# Blender 3.4.1
# www.blender.org
mtllib tableSpoon.mtl
o utensilSpoon
v -0.218700 0.010000 0.030831
v -0.239793 0.010000 -0.000000
v -0.218700 0.010000 -0.030831
v -0.124741 0.027800 0.026664
v -0.124741 0.027800 -0.026664
v 0.090664 0.010000 0.013031
v 0.090664 0.010000 -0.013031
v 0.090664 0.010000 0.030000
v 0.116285 0.000000 0.014002
v 0.142625 0.010000 0.060000
v 0.141698 0.000000 0.028674
v 0.194172 0.000000 0.012473
v 0.194172 0.000000 -0.012473
v 0.239793 0.010000 0.030000
v 0.239793 0.010000 -0.030000
v 0.116285 0.000000 -0.014002
v 0.141698 0.000000 -0.028674
v 0.142625 0.010000 -0.060000
v 0.090664 0.010000 -0.030000
v -0.218700 0.003326 0.030831
v -0.239793 0.003326 0.000000
v -0.218700 0.003326 -0.030830
v -0.124741 0.021126 0.026664
v -0.124741 0.021126 -0.026664
v 0.090664 0.003326 0.013031
v 0.090664 0.003326 -0.013030
v 0.090664 0.003326 0.030000
v 0.116285 -0.006674 0.014002
v 0.142625 0.003326 0.060000
v 0.141698 -0.006674 0.028674
v 0.194172 -0.006674 0.012473
v 0.194172 -0.006674 -0.012473
v 0.239793 0.003326 0.030000
v 0.239793 0.003326 -0.030000
v 0.116285 -0.006674 -0.014002
v 0.141698 -0.006674 -0.028674
v 0.142625 0.003326 -0.060000
v 0.090664 0.003326 -0.030000
vn -0.0000 1.0000 -0.0000
vn -0.1861 0.9825 -0.0000
vn 0.0824 0.9966 -0.0000
vn 0.1756 0.9363 -0.3041
vn -0.2141 0.9768 -0.0000
vn -0.0927 0.9493 -0.3003
vn -0.5000 -0.0000 0.8660
vn 0.2950 -0.0000 -0.9555
vn -0.8253 -0.0000 0.5647
vn -1.0000 -0.0000 -0.0000
vn -0.0927 0.9493 0.3003
vn 0.2950 -0.0000 0.9555
vn 1.0000 -0.0000 -0.0000
vn 0.1756 0.9363 0.3041
vn 0.0632 -0.0000 -0.9980
vn 0.0632 -0.0000 0.9980
vn 0.3636 0.9316 -0.0000
vn -0.8253 -0.0000 -0.5647
vn -0.5000 -0.0000 -0.8660
vn 0.0443 -0.0000 -0.9990
vn 0.0443 -0.0000 0.9990
vn -0.0000 -1.0000 -0.0000
vn 0.1861 -0.9825 -0.0000
vn -0.0824 -0.9966 -0.0000
vn -0.1756 -0.9363 0.3041
vn 0.2141 -0.9768 -0.0000
vn 0.0927 -0.9493 0.3003
vn 0.0927 -0.9493 -0.3003
vn -0.1756 -0.9363 -0.3041
vn -0.3636 -0.9316 -0.0000
vt -8.610248 -1.213799
vt 1.213799 -8.386498
vt -9.440681 0.000000
vt -8.610248 1.213799
vt -1.213799 -8.386498
vt -1.049753 4.984523
vt 1.049753 -4.621525
vt 1.049753 4.984523
vt -1.049753 -4.621525
vt -0.513012 -3.524889
vt -0.513012 -3.181993
vt 0.513012 -3.524889
vt 0.513012 -3.181993
vt -3.681775 -0.575099
vt -1.181102 -3.181993
vt -4.240409 -1.696315
vt 4.578139 -0.551248
vt -0.551248 -4.264804
vt -6.043980 -0.575099
vt -4.668413 3.838990
vt -5.395733 -1.696315
vt -4.997375 2.586340
vt 5.578679 -1.128910
vt 0.491077 7.467290
vt -7.159496 2.586340
vt 7.644578 -0.491077
vt -0.491077 7.467290
vt 7.644578 0.491077
vt 7.159496 2.586340
vt -8.672106 3.838990
vt 1.181102 9.306036
vt 8.672106 3.838990
vt -1.181102 9.306036
vt 4.578139 0.551248
vt 4.240409 -1.696315
vt 0.551248 -4.264804
vt 5.578679 1.128910
vt 4.997375 2.586340
vt 5.395733 -1.696315
vt 4.668413 3.838990
vt 6.043980 -0.575099
vt 1.181102 -3.181993
vt 3.681775 -0.575099
vt -8.610248 -1.213799
vt 1.213799 -8.386498
vt -9.440681 0.000000
vt -8.610248 1.213799
vt -1.213799 -8.386498
vt 1.049753 -4.621525
vt -1.049753 4.984523
vt -1.049753 -4.621525
vt 1.049753 4.984523
vt -0.513012 -3.524889
vt -0.513012 -3.181993
vt 0.513012 -3.524889
vt 0.513012 -3.181993
vt -3.681775 -0.575099
vt -1.181102 -3.181993
vt -4.240409 -1.696315
vt 4.578139 -0.551248
vt -0.551248 -4.264804
vt -6.043980 -0.575099
vt -4.668413 3.838990
vt -5.395733 -1.696315
vt -4.997375 2.586340
vt 5.578679 -1.128910
vt 0.491077 7.467290
vt -7.159496 2.586340
vt 7.644578 -0.491077
vt -0.491077 7.467290
vt 7.644578 0.491077
vt 7.159496 2.586340
vt 1.181102 9.306036
vt -8.672106 3.838990
vt -1.181102 9.306036
vt 8.672106 3.838990
vt 4.578139 0.551248
vt 4.240409 -1.696315
vt 0.551248 -4.264804
vt 5.578679 1.128910
vt 4.997375 2.586340
vt 5.395733 -1.696315
vt 4.668413 3.838990
vt 6.043980 -0.575099
vt 3.681775 -0.575099
vt 1.181102 -3.181993
s 0
usemtl white.003
f 3/4/1 2/3/1 1/1/1
f 4/7/2 3/5/2 1/2/2
f 3/5/2 4/7/2 5/9/2
f 6/10/3 5/8/3 4/6/3
f 5/8/3 6/10/3 7/12/3
f 10/19/4 9/16/4 8/14/4
f 9/16/4 10/19/4 11/21/4
f 14/31/5 13/27/5 12/24/5
f 13/27/5 14/31/5 15/33/5
f 10/20/6 12/25/6 11/22/6
f 12/25/6 10/20/6 14/30/6
f 10/19/7 8/14/7 27/57/7 29/62/7
f 11/23/1 16/34/1 9/17/1
f 16/34/1 11/23/1 17/37/1
f 17/37/1 11/23/1 12/26/1
f 17/37/1 12/26/1 13/28/1
f 18/40/8 15/32/8 34/76/8 37/83/8
f 1/1/9 2/3/9 21/46/9 20/44/9
f 7/13/10 19/42/10 38/86/10 26/56/10
f 8/15/10 6/11/10 25/54/10 27/58/10
f 13/29/11 18/40/11 17/38/11
f 18/40/11 13/29/11 15/32/11
f 14/30/12 10/20/12 29/63/12 33/74/12
f 15/33/13 14/31/13 33/73/13 34/75/13
f 16/35/14 18/41/14 19/43/14
f 18/41/14 16/35/14 17/39/14
f 5/8/15 7/12/15 26/55/15 24/52/15
f 6/10/16 4/6/16 23/50/16 25/53/16
f 9/18/17 6/11/17 8/15/17
f 6/11/17 9/18/17 7/13/17
f 7/13/17 9/18/17 19/42/17
f 19/42/17 9/18/17 16/36/17
f 2/3/18 3/4/18 22/47/18 21/46/18
f 19/43/19 18/41/19 37/84/19 38/85/19
f 3/5/20 5/9/20 24/51/20 22/48/20
f 4/7/21 1/2/21 20/45/21 23/49/21
f 20/44/22 21/46/22 22/47/22
f 20/45/23 22/48/23 23/49/23
f 24/51/23 23/49/23 22/48/23
f 23/50/24 24/52/24 25/53/24
f 26/55/24 25/53/24 24/52/24
f 27/57/25 28/59/25 29/62/25
f 30/64/25 29/62/25 28/59/25
f 31/67/26 32/70/26 33/73/26
f 34/75/26 33/73/26 32/70/26
f 30/65/27 31/68/27 29/63/27
f 33/74/27 29/63/27 31/68/27
f 28/60/22 35/77/22 30/66/22
f 36/80/22 30/66/22 35/77/22
f 31/69/22 30/66/22 36/80/22
f 32/71/22 31/69/22 36/80/22
f 36/81/28 37/83/28 32/72/28
f 34/76/28 32/72/28 37/83/28
f 38/85/29 37/84/29 35/78/29
f 36/82/29 35/78/29 37/84/29
f 27/58/30 25/54/30 28/61/30
f 26/56/30 28/61/30 25/54/30
f 38/86/30 28/61/30 26/56/30
f 35/79/30 28/61/30 38/86/30
