# Blender v2.78 (sub 0) OBJ File: ''
# www.blender.org
mtllib apple.mtl
o apple.003
v -0.031639 0.031639 -0.103701
v -0.031639 -0.031639 -0.103701
v -0.044744 0.000000 -0.103701
v 0.000000 0.044744 -0.103701
v 0.000000 -0.044744 -0.103701
v 0.031639 0.031639 -0.103701
v 0.031639 -0.031639 -0.103701
v 0.044744 0.000000 -0.103701
v 0.055833 0.055833 -0.071741
v 0.000000 0.078960 -0.071741
v -0.055833 0.055833 -0.071741
v 0.000000 -0.078960 -0.071741
v -0.055833 -0.055833 -0.071741
v 0.055833 -0.055833 -0.071741
v 0.078960 0.000000 -0.071741
v -0.078960 0.000000 -0.071741
v -0.043577 -0.043577 0.053315
v -0.043577 0.043577 0.053315
v -0.061627 -0.000000 0.053315
v -0.040356 -0.000000 0.053315
v -0.028536 -0.028536 0.053315
v 0.000000 -0.061627 0.053315
v -0.000000 -0.040357 0.053315
v 0.028536 -0.028536 0.053315
v 0.043577 -0.043577 0.053315
v 0.040356 -0.000000 0.053315
v -0.028536 0.028536 0.053315
v 0.000000 0.061627 0.053315
v -0.000000 0.040356 0.053315
v 0.028536 0.028536 0.053315
v 0.043577 0.043577 0.053315
v 0.061627 -0.000000 0.053315
v 0.026232 -0.000000 0.043315
v 0.018549 0.018549 0.043315
v -0.000000 -0.026232 0.043315
v 0.018549 -0.018549 0.043315
v 0.069401 0.069401 -0.005037
v 0.089314 -0.000000 0.030531
v 0.098147 0.000000 -0.005037
v 0.063155 0.063155 0.030531
v 0.069401 -0.069401 -0.005037
v -0.098147 0.000000 -0.005037
v -0.069401 -0.069401 -0.005037
v 0.000000 0.098147 -0.005037
v -0.069401 0.069401 -0.005037
v 0.000000 0.089314 0.030531
v 0.063155 -0.063155 0.030531
v 0.000000 -0.098147 -0.005037
v 0.000000 -0.089314 0.030531
v -0.063155 0.063155 0.030531
v -0.089314 -0.000000 0.030531
v -0.063155 -0.063155 0.030531
v -0.018549 0.018549 0.043315
v -0.000000 0.026232 0.043315
v -0.026232 -0.000000 0.043315
v -0.018549 -0.018549 0.043315
vt 1.2456 1.2456
vt 1.2456 -1.2456
vt 1.7616 0.0000
vt -0.0000 1.7616
vt -0.0000 -1.7616
vt -1.2456 1.2456
vt -1.2456 -1.2456
vt -1.7616 0.0000
vt -1.1896 2.9143
vt 0.6741 1.1445
vt 1.1896 2.9143
vt -0.6741 1.1445
vt -1.1896 2.9143
vt 0.6741 1.1445
vt 1.1896 2.9143
vt -0.6741 1.1445
vt -0.6741 1.1445
vt 1.1896 2.9143
vt -1.1896 2.9143
vt 0.6741 1.1445
vt 0.6741 1.1445
vt -1.1896 2.9143
vt -0.6741 1.1445
vt 1.1896 2.9143
vt -0.6741 1.1445
vt 1.1896 2.9143
vt -1.1896 2.9143
vt 0.6741 1.1445
vt 0.6741 1.1445
vt -1.1896 2.9143
vt -0.6741 1.1445
vt 1.1896 2.9143
vt 1.1896 2.9143
vt -0.6741 1.1445
vt 0.6741 1.1445
vt -1.1896 2.9143
vt -1.1896 2.9143
vt 0.6741 1.1445
vt 1.1896 2.9143
vt -0.6741 1.1445
vt -1.7156 -1.7156
vt -1.7156 1.7156
vt -2.4262 0.0000
vt -1.5888 0.0000
vt -1.1235 -1.1235
vt 0.0000 -2.4262
vt -0.0000 -1.5888
vt 1.1235 -1.1235
vt 1.7156 -1.7156
vt 1.5888 0.0000
vt -1.1235 1.1235
vt 0.0000 2.4262
vt -0.0000 1.5888
vt 1.1235 1.1235
vt 1.7156 1.7156
vt 2.4262 0.0000
vt 0.3952 4.2779
vt -0.6080 4.9252
vt -0.3952 4.2779
vt 0.6080 4.9252
vt -0.6080 4.9252
vt 0.3952 4.2779
vt 0.6080 4.9252
vt -0.3952 4.2779
vt 0.6080 4.9252
vt -0.3952 4.2779
vt 0.3952 4.2779
vt -0.6080 4.9252
vt 1.4787 2.9877
vt -1.3456 4.4244
vt -1.4787 2.9877
vt 1.3456 4.4244
vt -1.1896 1.9537
vt 1.4787 4.6710
vt -1.4787 4.6710
vt 1.1896 1.9537
vt -1.4787 4.6710
vt 1.1896 1.9537
vt 1.4787 4.6710
vt -1.1896 1.9537
vt 1.4787 4.6710
vt -1.1896 1.9537
vt 1.1896 1.9537
vt -1.4787 4.6710
vt -1.4787 4.6710
vt 1.1896 1.9537
vt 1.4787 4.6710
vt -1.1896 1.9537
vt 1.3456 4.4244
vt -1.4787 2.9877
vt 1.4787 2.9877
vt -1.3456 4.4244
vt 1.3456 4.4244
vt -1.4787 2.9877
vt 1.4787 2.9877
vt -1.3456 4.4244
vt -1.3456 4.4244
vt 1.4787 2.9877
vt 1.3456 4.4244
vt -1.4787 2.9877
vt -1.1896 1.9537
vt 1.4787 4.6710
vt -1.4787 4.6710
vt 1.1896 1.9537
vt 1.3456 4.4244
vt -1.4787 2.9877
vt 1.4787 2.9877
vt -1.3456 4.4244
vt 1.4787 4.6710
vt -1.1896 1.9537
vt 1.1896 1.9537
vt -1.4787 4.6710
vt 1.4787 2.9877
vt -1.3456 4.4244
vt -1.4787 2.9877
vt 1.3456 4.4244
vt 1.3456 4.4244
vt -1.4787 2.9877
vt 1.4787 2.9877
vt -1.3456 4.4244
vt 1.4787 4.6710
vt -1.1896 1.9537
vt 1.1896 1.9537
vt -1.4787 4.6710
vt 1.4787 4.6710
vt -1.1896 1.9537
vt 1.1896 1.9537
vt -1.4787 4.6710
vt 1.3456 4.4244
vt -1.4787 2.9877
vt 1.4787 2.9877
vt -1.3456 4.4244
vt -0.3952 4.2779
vt 0.6080 4.9252
vt -0.6080 4.9252
vt 0.3952 4.2779
vt 0.3952 4.2779
vt -0.6080 4.9252
vt -0.3952 4.2779
vt 0.6080 4.9252
vt -0.3952 4.2779
vt 0.6080 4.9252
vt -0.6080 4.9252
vt 0.3952 4.2779
vt -0.6080 4.9252
vt 0.3952 4.2779
vt 0.6080 4.9252
vt -0.3952 4.2779
vt -0.6080 4.9252
vt 0.3952 4.2779
vt 0.6080 4.9252
vt -0.3952 4.2779
vt -0.7303 -0.7303
vt -0.7303 0.7303
vt -1.0327 0.0000
vt -0.0000 -1.0327
vt 0.7303 0.7303
vt 0.7303 -0.7303
vt 1.0327 0.0000
vt -0.9285 2.4377
vt 1.3456 1.0891
vt 0.9285 2.4377
vt -1.3456 1.0891
vt 0.9285 2.4377
vt -1.3456 1.0891
vt 1.3456 1.0891
vt -0.9285 2.4377
vt 0.9285 2.4377
vt -1.3456 1.0891
vt 1.3456 1.0891
vt -0.9285 2.4377
vt -1.3456 1.0891
vt 0.9285 2.4377
vt -0.9285 2.4377
vt 1.3456 1.0891
vt -1.3456 1.0891
vt 0.9285 2.4377
vt -0.9285 2.4377
vt 1.3456 1.0891
vt 1.3456 1.0891
vt -0.9285 2.4377
vt -1.3456 1.0891
vt 0.9285 2.4377
vt -0.9285 2.4377
vt 1.3456 1.0891
vt 0.9285 2.4377
vt -1.3456 1.0891
vt 1.3456 1.0891
vt -0.9285 2.4377
vt -1.3456 1.0891
vt 0.9285 2.4377
vn 0.0000 -0.0000 -1.0000
vn 0.2721 0.6569 -0.7032
vn -0.2721 0.6569 -0.7032
vn -0.2721 -0.6569 -0.7032
vn 0.6569 -0.2721 -0.7032
vn -0.6569 -0.2721 -0.7032
vn 0.2721 -0.6569 -0.7032
vn 0.6569 0.2721 -0.7032
vn -0.6569 0.2721 -0.7032
vn 0.0000 -0.0000 1.0000
vn -0.5620 -0.2328 0.7937
vn -0.2328 0.5620 0.7937
vn -0.5620 0.2328 0.7937
vn 0.9005 0.3730 0.2236
vn 0.8929 -0.3698 -0.2568
vn -0.8929 -0.3698 -0.2568
vn 0.3698 0.8929 -0.2568
vn -0.8929 0.3698 -0.2568
vn 0.3730 0.9005 0.2236
vn 0.3730 -0.9005 0.2236
vn -0.9005 0.3730 0.2236
vn 0.8929 0.3698 -0.2568
vn -0.9005 -0.3730 0.2236
vn 0.3698 -0.8929 -0.2568
vn 0.9005 -0.3730 0.2236
vn -0.3730 0.9005 0.2236
vn -0.3698 -0.8929 -0.2568
vn -0.3698 0.8929 -0.2568
vn -0.3730 -0.9005 0.2236
vn 0.2328 -0.5620 0.7937
vn -0.2328 -0.5620 0.7937
vn 0.5620 -0.2328 0.7937
vn 0.5620 0.2328 0.7937
vn 0.2328 0.5620 0.7937
vn 0.2545 0.6145 0.7467
vn -0.6145 0.2545 0.7467
vn -0.2545 0.6145 0.7467
vn 0.2545 -0.6145 0.7467
vn 0.6145 -0.2545 0.7467
vn -0.2545 -0.6145 0.7467
vn 0.6145 0.2545 0.7467
vn -0.6145 -0.2545 0.7467
usemtl red
s 1
f 1/1/1 2/2/1 3/3/1
f 2/2/1 1/1/1 4/4/1
f 2/2/1 4/4/1 5/5/1
f 5/5/1 4/4/1 6/6/1
f 5/5/1 6/6/1 7/7/1
f 7/7/1 6/6/1 8/8/1
f 9/9/2 4/10/2 10/11/2
f 4/10/2 9/9/2 6/12/2
f 10/13/3 1/14/3 11/15/3
f 1/14/3 10/13/3 4/16/3
f 2/17/4 12/18/4 13/19/4
f 12/18/4 2/17/4 5/20/4
f 8/21/5 14/22/5 7/23/5
f 14/22/5 8/21/5 15/24/5
f 3/25/6 13/26/6 16/27/6
f 13/26/6 3/25/6 2/28/6
f 7/29/7 12/30/7 5/31/7
f 12/30/7 7/29/7 14/32/7
f 9/33/8 8/34/8 6/35/8
f 8/34/8 9/33/8 15/36/8
f 11/37/9 3/38/9 16/39/9
f 3/38/9 11/37/9 1/40/9
f 17/41/10 18/42/10 19/43/10
f 18/42/10 17/41/10 20/44/10
f 20/44/10 17/41/10 21/45/10
f 21/45/10 17/41/10 22/46/10
f 21/45/10 22/46/10 23/47/10
f 23/47/10 22/46/10 24/48/10
f 24/48/10 22/46/10 25/49/10
f 24/48/10 25/49/10 26/50/10
f 27/51/10 18/42/10 20/44/10
f 18/42/10 27/51/10 28/52/10
f 28/52/10 27/51/10 29/53/10
f 28/52/10 29/53/10 30/54/10
f 28/52/10 30/54/10 31/55/10
f 31/55/10 30/54/10 26/50/10
f 31/55/10 26/50/10 25/49/10
f 31/55/10 25/49/10 32/56/10
f 33/57/11 30/58/11 34/59/11
f 30/58/11 33/57/11 26/60/11
f 24/61/12 35/62/12 23/63/12
f 35/62/12 24/61/12 36/64/12
f 24/65/13 33/66/13 36/67/13
f 33/66/13 24/65/13 26/68/13
f 37/69/14 38/70/14 39/71/14
f 38/70/14 37/69/14 40/72/14
f 14/73/15 39/74/15 41/75/15
f 39/74/15 14/73/15 15/76/15
f 42/77/16 13/78/16 43/79/16
f 13/78/16 42/77/16 16/80/16
f 44/81/17 9/82/17 10/83/17
f 9/82/17 44/81/17 37/84/17
f 45/85/18 16/86/18 42/87/18
f 16/86/18 45/85/18 11/88/18
f 46/89/19 37/90/19 44/91/19
f 37/90/19 46/89/19 40/92/19
f 47/93/20 48/94/20 41/95/20
f 48/94/20 47/93/20 49/96/20
f 50/97/21 42/98/21 51/99/21
f 42/98/21 50/97/21 45/100/21
f 15/101/22 37/102/22 39/103/22
f 37/102/22 15/101/22 9/104/22
f 52/105/23 42/106/23 43/107/23
f 42/106/23 52/105/23 51/108/23
f 41/109/24 12/110/24 14/111/24
f 12/110/24 41/109/24 48/112/24
f 39/113/25 47/114/25 41/115/25
f 47/114/25 39/113/25 38/116/25
f 50/117/26 44/118/26 45/119/26
f 44/118/26 50/117/26 46/120/26
f 48/121/27 13/122/27 12/123/27
f 13/122/27 48/121/27 43/124/27
f 45/125/28 10/126/28 11/127/28
f 10/126/28 45/125/28 44/128/28
f 49/129/29 43/130/29 48/131/29
f 43/130/29 49/129/29 52/132/29
f 53/133/30 29/134/30 27/135/30
f 29/134/30 53/133/30 54/136/30
f 34/137/31 29/138/31 54/139/31
f 29/138/31 34/137/31 30/140/31
f 55/141/32 27/142/32 20/143/32
f 27/142/32 55/141/32 53/144/32
f 21/145/33 55/146/33 20/147/33
f 55/146/33 21/145/33 56/148/33
f 23/149/34 56/150/34 21/151/34
f 56/150/34 23/149/34 35/152/34
f 56/153/10 53/154/10 55/155/10
f 53/154/10 56/153/10 35/156/10
f 36/64/10 34/137/10 54/136/10
f 34/157/10 36/158/10 33/159/10
f 31/160/35 46/161/35 28/162/35
f 46/161/35 31/160/35 40/163/35
f 19/164/36 50/165/36 51/166/36
f 50/165/36 19/164/36 18/167/36
f 18/168/37 46/169/37 50/170/37
f 46/169/37 18/168/37 28/171/37
f 49/172/38 25/173/38 22/174/38
f 25/173/38 49/172/38 47/175/38
f 47/176/39 32/177/39 25/178/39
f 32/177/39 47/176/39 38/179/39
f 49/180/40 17/181/40 52/182/40
f 17/181/40 49/180/40 22/183/40
f 32/184/41 40/185/41 31/186/41
f 40/185/41 32/184/41 38/187/41
f 52/188/42 19/189/42 51/190/42
f 19/189/42 52/188/42 17/191/42
f 53/133/10 35/156/10 54/136/10
f 36/64/10 54/136/10 35/62/10
