# Blender v2.78 (sub 0) OBJ File: ''
# www.blender.org
mtllib apple_seed.mtl
o appleHalf.003
v 0.005000 0.002163 0.009843
v 0.005000 -0.002816 0.010302
v 0.005000 -0.004653 -0.009613
v 0.005000 0.005305 -0.010532
v -0.005000 0.005305 -0.010532
v -0.005000 -0.004653 -0.009613
v -0.005000 0.002163 0.009843
v -0.005000 -0.002816 0.010302
vt -0.5838 3.5505
vt -0.3937 3.4996
vt -0.5975 2.7390
vt -0.9778 2.8409
vt -0.9778 2.8409
vt -0.5975 2.7390
vt -0.5838 3.5505
vt -0.3937 3.4996
vn 0.5913 0.5526 0.5874
vn 0.5773 -0.5219 0.6279
vn 0.5774 -0.6279 -0.5219
vn 0.5655 0.6007 -0.5651
vn -0.5655 0.6007 -0.5651
vn -0.5774 -0.6279 -0.5219
vn -0.5913 0.5526 0.5874
vn -0.5773 -0.5219 0.6279
usemtl brownDark
s 1
f 1/1/1 2/2/2 3/3/3
f 3/3/3 4/4/4 1/1/1
f 5/5/5 4/4/4 3/3/3 6/6/6
f 7/7/7 1/1/1 4/4/4 5/5/5
f 6/6/6 3/3/3 2/2/2 8/8/8
f 8/8/8 2/2/2 1/1/1 7/7/7
f 7/7/7 6/6/6 8/8/8
f 6/6/6 7/7/7 5/5/5
