# Blender v2.78 (sub 0) OBJ File: ''
# www.blender.org
mtllib half_apple_seeds.mtl
o appleHalf.003
v 0.005000 -0.014830 0.009983
v 0.005000 0.015176 -0.010630
v 0.005000 0.024836 -0.008042
v 0.005000 0.014830 0.009983
v 0.005000 0.010000 0.008689
v 0.005000 -0.010000 0.008689
v 0.005000 -0.015176 -0.010630
v 0.005000 -0.024836 -0.008042
v -0.005000 -0.024836 -0.008042
v -0.005000 -0.015176 -0.010630
v -0.005000 -0.010000 0.008689
v -0.005000 0.010000 0.008689
v -0.005000 0.014830 0.009983
v -0.005000 0.024836 -0.008042
v -0.005000 0.015176 -0.010630
v -0.005000 -0.014830 0.009983
vt -0.5838 3.5505
vt -0.3937 3.4996
vt -0.5975 2.7390
vt 0.5838 3.5505
vt 0.9778 2.8409
vt 0.5975 2.7390
vt -0.9778 2.8409
vt 0.3937 3.4996
vt 0.5975 2.7390
vt 0.9778 2.8409
vt 0.3937 3.4996
vt -0.9778 2.8409
vt -0.5975 2.7390
vt 0.5838 3.5505
vt -0.5838 3.5505
vt -0.3937 3.4996
vn 0.5913 0.3149 0.7424
vn 0.5774 -0.7071 0.4082
vn 0.5774 -0.4082 -0.7071
vn 0.5913 -0.3149 0.7424
vn 0.5656 -0.7593 -0.3220
vn 0.5774 0.4082 -0.7071
vn 0.5656 0.7593 -0.3220
vn 0.5774 0.7071 0.4082
vn -0.5774 0.4082 -0.7071
vn -0.5656 -0.7593 -0.3220
vn -0.5774 0.7071 0.4082
vn -0.5656 0.7593 -0.3220
vn -0.5774 -0.4082 -0.7071
vn -0.5913 -0.3149 0.7424
vn -0.5913 0.3149 0.7424
vn -0.5774 -0.7071 0.4082
usemtl brownDark
s 1
f 4/1/1 5/2/2 2/3/3
f 1/4/4 8/5/5 7/6/6
f 2/3/3 3/7/7 4/1/1
f 7/6/6 6/8/8 1/4/4
f 10/9/9 7/6/6 8/5/5 9/10/10
f 11/11/11 6/8/8 7/6/6 10/9/9
f 14/12/12 3/7/7 2/3/3 15/13/13
f 16/14/14 1/4/4 6/8/8 11/11/11
f 13/15/15 4/1/1 3/7/7 14/12/12
f 9/10/10 8/5/5 1/4/4 16/14/14
f 15/13/13 2/3/3 5/2/2 12/16/16
f 12/16/16 5/2/2 4/1/1 13/15/15
f 16/14/14 10/9/9 9/10/10
f 10/9/9 16/14/14 11/11/11
f 13/15/15 15/13/13 12/16/16
f 15/13/13 13/15/15 14/12/12
