# Blender v2.78 (sub 0) OBJ File: ''
# www.blender.org
mtllib half_apple_core.mtl
o appleHalf.002
v 0.003951 -0.064228 -0.054773
v 0.003951 -0.038176 -0.079107
v 0.003951 -0.000000 -0.069107
v 0.003951 0.038176 -0.079107
v 0.003951 0.064228 -0.054773
v 0.003951 0.080909 0.003219
v 0.003951 0.074479 0.029111
v 0.003951 0.055655 0.044601
v 0.003951 0.045655 0.044601
v 0.003951 0.031530 0.034601
v 0.003951 -0.000000 0.024601
v 0.003951 -0.031530 0.034601
v 0.003951 -0.045655 0.044601
v 0.003951 -0.055655 0.044601
v 0.003951 -0.080909 0.003219
v 0.003951 -0.074479 0.029111
v -0.003951 -0.074479 0.029111
v -0.003951 -0.080909 0.003219
v -0.003951 -0.055655 0.044601
v -0.003951 -0.045655 0.044601
v -0.003951 -0.031530 0.034601
v -0.003951 -0.000000 0.024601
v -0.003951 0.031530 0.034601
v -0.003951 0.045655 0.044601
v -0.003951 0.055655 0.044601
v -0.003951 0.074479 0.029111
v -0.003951 0.080909 0.003219
v -0.003951 0.064228 -0.054773
v -0.003951 0.038176 -0.079107
v -0.003951 -0.000000 -0.069107
v -0.003951 -0.038176 -0.079107
v -0.003951 -0.064228 -0.054773
vt 2.9322 4.9162
vt 2.9322 4.9162
vt 2.1912 5.5261
vt 2.1912 5.5261
vt 1.7974 5.5261
vt 1.7974 5.5261
vt -0.0000 4.7387
vt -0.0000 4.7387
vt -1.2413 5.1324
vt -1.2413 5.1324
vt 1.5030 0.6557
vt 1.5030 0.6557
vt 2.5287 1.6137
vt 2.5287 1.6137
vt -2.9322 4.9162
vt -2.9322 4.9162
vt -3.1854 3.8969
vt -3.1854 3.8969
vt 1.2413 5.1324
vt -0.0000 1.0494
vt -2.5287 1.6137
vt -2.1912 5.5261
vt -1.7974 5.5261
vt -1.5030 0.6557
vt -1.5030 0.6557
vt -0.0000 1.0494
vt -2.5287 1.6137
vt -2.1912 5.5261
vt 1.2413 5.1324
vt 3.1854 3.8969
vt 3.1854 3.8969
vt 0.0000 0.0000
vt 0.0000 0.0000
vt -1.7974 5.5261
vn -0.6428 -0.6479 0.4088
vn 0.6428 -0.6479 0.4088
vn 0.6384 -0.2598 0.7245
vn -0.6384 -0.2598 0.7245
vn 0.6448 0.2317 0.7284
vn -0.6448 0.2317 0.7284
vn -0.7819 0.0000 0.6234
vn 0.7819 0.0000 0.6234
vn 0.7434 -0.2979 0.5988
vn -0.7434 -0.2979 0.5988
vn -0.6129 -0.1936 -0.7661
vn 0.6129 -0.1936 -0.7661
vn 0.6518 -0.6467 -0.3963
vn -0.6518 -0.6467 -0.3963
vn -0.6428 0.6479 0.4088
vn 0.6428 0.6479 0.4088
vn 0.6532 0.7570 -0.0139
vn -0.6532 0.7570 -0.0139
vn 0.7434 0.2979 0.5988
vn 0.7688 -0.0000 -0.6394
vn 0.6518 0.6467 -0.3963
vn 0.6384 0.2598 0.7245
vn 0.6448 -0.2317 0.7284
vn 0.6129 0.1936 -0.7661
vn -0.6129 0.1936 -0.7661
vn -0.7688 -0.0000 -0.6394
vn -0.6518 0.6467 -0.3963
vn -0.6384 0.2598 0.7245
vn -0.7434 0.2979 0.5988
vn -0.6532 -0.7570 -0.0139
vn 0.6532 -0.7570 -0.0139
vn -0.6448 -0.2317 0.7284
usemtl brownLight
s 1
f 17/1/1 16/2/2 14/3/3 19/4/4
f 19/4/4 14/3/3 13/5/5 20/6/6
f 22/7/7 11/8/8 10/9/9 23/10/10
f 31/11/11 2/12/12 1/13/13 32/14/14
f 1/13/13 2/12/12 14/3/3
f 26/15/15 7/16/16 6/17/17 27/18/18
f 11/8/8 12/19/19 3/20/20
f 5/21/21 8/22/22 9/23/23
f 4/24/24 10/9/9 11/8/8
f 29/25/25 4/24/24 3/20/20 30/26/26
f 1/13/13 14/3/3 16/2/2
f 5/21/21 7/16/16 8/22/22
f 5/21/21 6/17/17 7/16/16
f 27/18/18 6/17/17 5/21/21 28/27/27
f 25/28/28 8/22/22 7/16/16 26/15/15
f 30/26/26 3/20/20 2/12/12 31/11/11
f 20/6/6 13/5/5 12/19/19 21/29/29
f 18/30/30 15/31/31 16/2/2 17/1/1
f 21/29/29 12/19/19 11/8/8 22/7/7
f 4/24/24 9/23/23 10/9/9
f 4/24/24 5/21/21 9/23/23
f 3/20/20 4/24/24 11/32/8
f 16/2/2 15/31/31 1/13/13
f 2/12/12 13/5/5 14/3/3
f 2/12/12 12/19/19 13/5/5
f 2/12/12 3/20/20 12/19/19
f 17/1/1 32/14/14 18/30/30
f 32/14/14 17/1/1 19/4/4
f 32/14/14 19/4/4 31/11/11
f 31/11/11 19/4/4 20/6/6
f 31/11/11 20/6/6 21/29/29
f 31/11/11 21/29/29 30/26/26
f 30/26/26 22/33/7 29/25/25
f 29/25/25 23/10/10 24/34/32
f 29/25/25 24/34/32 28/27/27
f 28/27/27 24/34/32 25/28/28
f 28/27/27 25/28/28 26/15/15
f 28/27/27 26/15/15 27/18/18
f 29/25/25 22/7/7 23/10/10
f 22/7/7 30/26/26 21/29/29
f 28/27/27 5/21/21 4/24/24 29/25/25
f 32/14/14 1/13/13 15/31/31 18/30/30
f 24/34/32 9/23/23 8/22/22 25/28/28
f 23/10/10 10/9/9 9/23/23 24/34/32
