# Blender v2.78 (sub 0) OBJ File: ''
# www.blender.org
mtllib half_apple.mtl
o appleHalf.002
v -0.017979 0.098147 0.000303
v 0.037854 0.055833 -0.066401
v -0.017979 0.078960 -0.066401
v 0.051422 0.069401 0.000303
v 0.037854 -0.055833 -0.066401
v 0.080168 0.000000 0.000303
v 0.051422 -0.069401 0.000303
v 0.060981 0.000000 -0.066401
v 0.013660 0.031639 -0.098361
v -0.017979 -0.044744 -0.098361
v -0.017979 0.044744 -0.098361
v 0.013660 -0.031639 -0.098361
v 0.026765 0.000000 -0.098361
v 0.043648 0.000000 0.058655
v 0.045176 0.063155 0.035871
v 0.025598 0.043577 0.058655
v 0.071335 0.000000 0.035871
v 0.010557 -0.028536 0.058655
v -0.017979 -0.026232 0.048655
v -0.017979 -0.040356 0.058655
v 0.000570 -0.018549 0.048655
v 0.000570 0.018549 0.048655
v -0.017979 0.040357 0.058655
v -0.017979 0.026232 0.048655
v 0.010557 0.028536 0.058655
v 0.025598 -0.043577 0.058655
v -0.017979 -0.061627 0.058655
v 0.022378 0.000000 0.058655
v -0.017979 0.061627 0.058655
v -0.017979 -0.078960 -0.066401
v -0.017979 -0.098147 0.000303
v 0.045176 -0.063155 0.035871
v -0.017979 -0.089314 0.035871
v 0.008253 0.000000 0.048655
v -0.017979 0.089314 0.035871
v -0.017979 -0.074479 0.026511
v -0.017979 -0.080909 0.000619
v -0.017979 -0.055655 0.042001
v -0.017979 -0.045655 0.042001
v -0.017979 -0.031530 0.032001
v -0.017979 0.000000 0.022001
v -0.017979 0.031530 0.032001
v -0.017979 0.045655 0.042001
v -0.017979 0.055655 0.042001
v -0.017979 0.074479 0.026511
v -0.017979 0.080909 0.000619
v -0.017979 0.064228 -0.057373
v -0.017979 0.038176 -0.081707
v -0.017979 0.000000 -0.071707
v -0.017979 -0.038176 -0.081707
v -0.017979 -0.064228 -0.057373
v -0.017979 -0.024836 -0.026202
v -0.017979 -0.015176 -0.028790
v -0.017979 -0.010000 -0.009472
v -0.017979 0.010000 -0.009472
v -0.017979 0.014830 -0.008178
v -0.017979 0.024836 -0.026202
v -0.017979 0.015176 -0.028790
v -0.017979 -0.014830 -0.008178
vt 0.5838 3.5505
vt 0.5975 2.7390
vt 0.9778 2.8409
vt 0.3937 3.4996
vt -0.5838 3.5505
vt -0.5975 2.7390
vt -0.3937 3.4996
vt -0.9778 2.8409
vt 2.9322 4.9162
vt 2.5287 1.6137
vt 3.1854 3.8969
vt 2.1912 5.5261
vt 1.5030 0.6557
vt 1.7974 5.5261
vt 1.2413 5.1324
vt -0.0000 1.0494
vt -0.0000 4.7387
vt -1.2413 5.1324
vt -1.5030 0.6557
vt -1.7974 5.5261
vt -2.5287 1.6137
vt -2.1912 5.5261
vt -2.9322 4.9162
vt -3.1854 3.8969
vt 1.4787 4.6710
vt -1.1896 1.9537
vt 1.1896 1.9537
vt -1.4787 4.6710
vt -1.1896 1.9537
vt 1.4787 4.6710
vt -1.4787 4.6710
vt 1.1896 1.9537
vt -1.2456 1.2456
vt 0.0000 -1.7616
vt 0.0000 1.7616
vt -1.2456 -1.2456
vt -1.7616 0.0000
vt -1.1896 2.9143
vt 0.6741 1.1445
vt 1.1896 2.9143
vt -0.6741 1.1445
vt -0.9285 2.4377
vt 1.3456 1.0891
vt 0.9285 2.4377
vt -1.3456 1.0891
vt 1.1896 2.9143
vt -0.6741 1.1445
vt 0.6741 1.1445
vt -1.1896 2.9143
vt -0.6080 4.9252
vt 0.3952 4.2779
vt 0.6080 4.9252
vt -0.3952 4.2779
vt 0.3952 4.2779
vt -0.6080 4.9252
vt -0.3952 4.2779
vt 0.6080 4.9252
vt 1.7156 -1.7156
vt 0.0000 -1.5888
vt 0.0000 -2.4262
vt 1.1235 -1.1235
vt 1.5888 0.0000
vt 1.7156 1.7156
vt 1.1235 1.1235
vt 0.0000 2.4262
vt 0.0000 1.5888
vt 2.4262 0.0000
vt 1.4787 4.6710
vt -1.1896 1.9537
vt 1.1896 1.9537
vt -1.4787 4.6710
vt 0.6741 1.1445
vt -1.1896 2.9143
vt -0.6741 1.1445
vt 1.1896 2.9143
vt 1.3456 4.4244
vt -1.4787 2.9877
vt 1.4787 2.9877
vt -1.3456 4.4244
vt 1.4787 2.9877
vt -1.3456 4.4244
vt -1.4787 2.9877
vt 1.3456 4.4244
vt 0.3952 4.2779
vt -0.6080 4.9252
vt -0.3952 4.2779
vt 0.6080 4.9252
vt 0.6080 4.9252
vt -0.3952 4.2779
vt 0.3952 4.2779
vt -0.6080 4.9252
vt -1.1896 1.9537
vt 1.4787 4.6710
vt -1.4787 4.6710
vt 1.1896 1.9537
vt -0.9285 2.4377
vt 1.3456 1.0891
vt 0.9285 2.4377
vt -1.3456 1.0891
vt 1.3456 1.0891
vt -0.9285 2.4377
vt -1.3456 1.0891
vt 0.9285 2.4377
vt 0.6741 1.1445
vt -1.1896 2.9143
vt -0.6741 1.1445
vt 1.1896 2.9143
vt 1.3456 4.4244
vt -1.4787 2.9877
vt 1.4787 2.9877
vt -1.3456 4.4244
vt -1.3456 1.0891
vt 0.9285 2.4377
vt -0.9285 2.4377
vt 1.3456 1.0891
vt 1.4787 2.9877
vt -1.3456 4.4244
vt -1.4787 2.9877
vt 1.3456 4.4244
vt 0.7303 0.7303
vt 0.7303 -0.7303
vt 1.0327 0.0000
vt 3.5163 5.2847
vt 2.4262 6.1817
vt 1.5888 6.1817
vt 1.0327 5.7880
vt -1.0327 5.7880
vt -1.5888 6.1817
vt -2.4262 6.1817
vt -3.5163 5.2847
vt -3.8641 3.8844
vt -3.1087 1.2583
vt -1.7616 0.0000
vt 1.7616 0.0000
vt 3.1087 1.2583
vt 3.8641 3.8844
vt 0.0000 0.0000
vn -1.0000 -0.0000 0.0000
vn 0.3698 0.8929 -0.2568
vn 0.8929 -0.3698 -0.2568
vn 0.0000 -0.0000 -1.0000
vn 0.2721 0.6569 -0.7032
vn 0.6145 0.2545 0.7467
vn 0.6569 0.2721 -0.7032
vn -0.2328 0.5620 0.7937
vn -0.2328 -0.5620 0.7937
vn 0.0000 -0.0000 1.0000
vn 0.3698 -0.8929 -0.2568
vn 0.2721 -0.6569 -0.7032
vn 0.3730 -0.9005 0.2236
vn 0.9005 0.3730 0.2236
vn -0.5620 -0.2328 0.7937
vn -0.5620 0.2328 0.7937
vn 0.8929 0.3698 -0.2568
vn 0.2545 0.6145 0.7467
vn 0.2545 -0.6145 0.7467
vn 0.6569 -0.2721 -0.7032
vn 0.3730 0.9005 0.2236
vn 0.6145 -0.2545 0.7467
vn 0.9005 -0.3730 0.2236
vn -0.9542 -0.0000 0.2992
usemtl brownDark
s 1
f 59/1/1 53/2/1 52/3/1
f 53/2/1 59/1/1 54/4/1
f 56/5/1 58/6/1 55/7/1
f 58/6/1 56/5/1 57/8/1
usemtl brownLight
f 36/9/1 51/10/1 37/11/1
f 51/10/1 36/9/1 38/12/1
f 51/10/1 38/12/1 50/13/1
f 50/13/1 38/12/1 39/14/1
f 50/13/1 39/14/1 40/15/1
f 50/13/1 40/15/1 52/3/1
f 50/13/1 52/3/1 49/16/1
f 49/16/1 52/3/1 53/2/1
f 49/16/1 53/2/1 54/4/1
f 49/16/1 54/4/1 41/17/1
f 41/17/1 52/3/1 40/15/1
f 49/16/1 41/17/1 55/7/1
f 55/7/1 41/17/1 42/18/1
f 55/7/1 42/18/1 56/5/1
f 56/5/1 42/18/1 57/8/1
f 58/6/1 49/16/1 55/7/1
f 49/16/1 58/6/1 48/19/1
f 48/19/1 58/6/1 57/8/1
f 48/19/1 57/8/1 42/18/1
f 48/19/1 42/18/1 43/20/1
f 48/19/1 43/20/1 47/21/1
f 47/21/1 43/20/1 44/22/1
f 47/21/1 44/22/1 45/23/1
f 47/21/1 45/23/1 46/24/1
f 52/3/1 41/17/1 59/1/1
f 59/1/1 41/17/1 54/4/1
usemtl red.001
f 1/25/2 2/26/2 3/27/2
f 2/26/2 1/25/2 4/28/2
f 5/29/3 6/30/3 7/31/3
f 6/30/3 5/29/3 8/32/3
f 9/33/4 10/34/4 11/35/4
f 10/34/4 9/33/4 12/36/4
f 12/36/4 9/33/4 13/37/4
f 2/38/5 11/39/5 3/40/5
f 11/39/5 2/38/5 9/41/5
f 14/42/6 15/43/6 16/44/6
f 15/43/6 14/42/6 17/45/6
f 2/46/7 13/47/7 9/48/7
f 13/47/7 2/46/7 8/49/7
f 18/50/8 19/51/8 20/52/8
f 19/51/8 18/50/8 21/53/8
f 22/54/9 23/55/9 24/56/9
f 23/55/9 22/54/9 25/57/9
f 26/58/10 20/59/10 27/60/10
f 20/59/10 26/58/10 18/61/10
f 18/61/10 26/58/10 28/62/10
f 16/63/10 28/62/10 26/58/10
f 16/63/10 25/64/10 28/62/10
f 29/65/10 25/64/10 16/63/10
f 25/64/10 29/65/10 23/66/10
f 16/63/10 26/58/10 14/67/10
f 7/68/11 30/69/11 5/70/11
f 30/69/11 7/68/11 31/71/11
f 12/72/12 30/73/12 10/74/12
f 30/73/12 12/72/12 5/75/12
f 32/76/13 31/77/13 7/78/13
f 31/77/13 32/76/13 33/79/13
f 4/80/14 17/81/14 6/82/14
f 17/81/14 4/80/14 15/83/14
f 34/84/15 25/85/15 22/86/15
f 25/85/15 34/84/15 28/87/15
f 18/88/16 34/89/16 21/90/16
f 34/89/16 18/88/16 28/91/16
f 8/92/17 4/93/17 6/94/17
f 4/93/17 8/92/17 2/95/17
f 16/96/18 35/97/18 29/98/18
f 35/97/18 16/96/18 15/99/18
f 32/100/19 27/101/19 33/102/19
f 27/101/19 32/100/19 26/103/19
f 13/104/20 5/105/20 12/106/20
f 5/105/20 13/104/20 8/107/20
f 35/108/21 4/109/21 1/110/21
f 4/109/21 35/108/21 15/111/21
f 32/112/22 14/113/22 26/114/22
f 14/113/22 32/112/22 17/115/22
f 6/116/23 32/117/23 7/118/23
f 32/117/23 6/116/23 17/119/23
f 22/120/10 21/121/10 34/122/10
f 33/123/1 36/9/1 37/11/1
f 36/9/1 33/123/1 27/124/1
f 36/9/1 27/124/1 38/12/1
f 38/12/1 27/124/1 20/125/1
f 38/12/1 20/125/1 39/14/1
f 39/14/1 20/125/1 40/15/1
f 40/15/1 20/125/1 19/126/24
f 40/15/1 19/126/24 41/17/1
f 42/18/1 24/127/24 23/128/1
f 42/18/1 23/128/1 43/20/1
f 43/20/1 23/128/1 29/129/1
f 43/20/1 29/129/1 44/22/1
f 44/22/1 29/129/1 45/23/1
f 45/23/1 29/129/1 35/130/1
f 45/23/1 35/130/1 46/24/1
f 1/131/1 46/24/1 35/130/1
f 3/132/1 46/24/1 1/131/1
f 3/132/1 47/21/1 46/24/1
f 11/133/1 47/21/1 3/132/1
f 11/133/1 48/19/1 47/21/1
f 11/133/1 49/16/1 48/19/1
f 11/133/1 50/13/1 49/16/1
f 10/134/1 50/13/1 11/133/1
f 10/134/1 51/10/1 50/13/1
f 30/135/1 51/10/1 10/134/1
f 30/135/1 37/11/1 51/10/1
f 30/135/1 33/123/1 37/11/1
f 33/123/1 30/135/1 31/136/1
f 19/51/24 21/53/10 24/137/24
f 22/120/10 24/137/24 21/121/10
f 42/18/1 19/51/24 24/137/24
f 41/17/1 19/126/24 42/18/1
