# Blender v2.78 (sub 0) OBJ File: ''
# www.blender.org
mtllib leaf.mtl
o apple
v 0.022910 0.019134 0.000105
v 0.000000 0.027282 0.001381
v 0.000000 -0.004419 -0.005721
v 0.032400 -0.000537 -0.000832
v -0.022910 0.019134 0.000105
v -0.032400 -0.000537 -0.000832
v 0.000000 -0.060057 0.005795
vt 0.5911 4.9122
vt 0.5146 3.6698
vt 3.2589 4.9465
vt 0.1822 1.5820
vt -0.1822 1.5820
vt -1.0898 1.8986
vt -0.5911 4.9122
vt 1.0898 1.8986
vt 0.9529 0.5620
vt 1.2440 4.1702
vt 1.5341 2.7948
vt -1.5341 2.7948
vt -1.2440 4.1702
vt -0.5146 3.6698
vt 1.3470 3.7270
vt -1.3470 3.7270
vt -3.2589 4.9465
vt -0.9529 0.5620
vn 0.9995 0.0038 -0.0318
vn 0.6531 0.7566 0.0314
vn -0.0000 -0.9929 0.1191
vn -0.0000 0.9954 0.0963
vn -0.6531 0.7566 0.0314
vn -0.9995 0.0038 -0.0318
vn 0.0234 0.2185 -0.9755
vn 0.1351 0.1121 -0.9845
vn -0.1351 0.1121 -0.9845
vn 0.1695 -0.1997 -0.9651
vn -0.1695 -0.1997 -0.9651
vn -0.0234 0.2185 -0.9755
usemtl green
s 1
f 4/1/1 1/2/2 7/3/3
f 2/4/4 7/3/3 1/2/2
f 7/3/3 2/5/4 5/6/5
f 5/6/5 6/7/6 7/3/3
f 1/8/2 3/9/7 2/4/4
f 4/10/1 3/11/8 1/2/2
f 3/12/9 6/13/6 5/14/5
f 4/1/1 7/3/3 3/15/10
f 3/16/11 7/17/3 6/7/6
f 2/5/4 3/18/12 5/6/5
