# Blender v2.78 (sub 0) OBJ File: ''
# www.blender.org
mtllib stem.mtl
o apple.002
v -0.005381 -0.005381 -0.021869
v 0.005381 -0.005381 -0.021869
v 0.005381 0.005381 -0.021869
v -0.005381 0.005381 -0.021869
v 0.009610 -0.009610 0.021869
v -0.009610 -0.009610 0.021869
v 0.009610 0.009610 0.021869
v -0.009610 0.009610 0.021869
vt 0.3783 7.5115
vt -0.2119 5.7816
vt 0.2119 5.7816
vt -0.3783 7.5115
vt -0.2119 5.7816
vt 0.3783 7.5115
vt -0.3783 7.5115
vt 0.2119 5.7816
vt 0.3783 -0.3783
vt -0.3783 0.3783
vt -0.3783 -0.3783
vt 0.3783 0.3783
vt 0.3783 7.5115
vt -0.2119 5.7816
vt 0.2119 5.7816
vt -0.3783 7.5115
vt -0.3783 7.5115
vt 0.2119 5.7816
vt 0.3783 7.5115
vt -0.2119 5.7816
vn 0.0000 -0.9954 -0.0962
vn 0.9954 0.0000 -0.0962
vn 0.0000 0.0000 1.0000
vn 0.0000 0.9954 -0.0962
vn -0.9954 0.0000 -0.0962
vn 0.0000 0.0000 -1.0000
usemtl brown
s 1
f 5/1/1 1/2/1 2/3/1
f 1/2/1 5/1/1 6/4/1
f 2/5/2 7/6/2 5/7/2
f 7/6/2 2/5/2 3/8/2
f 5/9/3 8/10/3 6/11/3
f 8/10/3 5/9/3 7/12/3
f 8/13/4 3/14/4 4/15/4
f 3/14/4 8/13/4 7/16/4
f 8/17/5 1/18/5 6/19/5
f 1/18/5 8/17/5 4/20/5
f 1/18/6 3/14/6 2/5/6
f 1/18/6 4/20/6 3/14/6
