# Blender 3.4.1
# www.blender.org
mtllib TrashCanCollider.mtl
o glass
v -0.231465 0.133637 0.000000
v 0.000000 0.267273 0.000000
v 0.000000 -0.267273 0.000000
v -0.231465 -0.133637 0.000000
v 0.231465 -0.133637 0.000000
v 0.231465 0.133637 0.000000
v -0.194710 -0.112417 0.077829
v -0.194710 0.112417 0.077829
v 0.000000 -0.224834 0.077829
v 0.000000 0.224834 0.077829
v 0.194710 0.112417 0.077829
v 0.194710 -0.112417 0.077829
vn 0.9042 -0.0000 0.4270
vn 0.4521 -0.7831 0.4270
vn -0.0000 -0.0000 -1.0000
vn -0.0000 -0.0000 1.0000
vn -0.4521 -0.7831 0.4270
vn -0.9042 -0.0000 0.4270
vn -0.4521 0.7831 0.4270
vn 0.4521 0.7831 0.4270
vt 0.000000 0.000000
vt 0.000000 0.000000
vt 0.000000 0.000000
vt 0.000000 0.000000
vt 0.000000 0.000000
vt 0.000000 0.000000
vt 0.000000 0.000000
vt 0.000000 0.000000
vt 0.000000 0.000000
vt 0.000000 0.000000
vt 0.000000 0.000000
vt 0.000000 0.000000
s 0
usemtl _defaultMat.001
f 11/11/1 12/12/1 5/5/1 6/6/1
f 5/5/2 12/12/2 9/9/2 3/3/2
f 2/2/3 4/4/3 1/1/3
f 4/4/3 2/2/3 3/3/3
f 3/3/3 2/2/3 6/6/3
f 3/3/3 6/6/3 5/5/3
f 9/9/4 8/8/4 7/7/4
f 8/8/4 9/9/4 10/10/4
f 10/10/4 9/9/4 11/11/4
f 11/11/4 9/9/4 12/12/4
f 3/3/5 9/9/5 7/7/5 4/4/5
f 7/7/6 8/8/6 1/1/6 4/4/6
f 2/2/7 1/1/7 8/8/7 10/10/7
f 11/11/8 6/6/8 2/2/8 10/10/8
o glass.001
v 0.000000 -0.267273 0.000000
v 0.000000 -0.320728 0.661553
v 0.277760 -0.160364 0.661553
v 0.231465 -0.133637 0.000000
v 0.000000 -0.224834 0.077829
v 0.194710 -0.112417 0.077829
v 0.000000 -0.259046 0.661553
v 0.224343 -0.129521 0.661553
vn 0.4988 -0.8639 -0.0698
vn -0.4994 0.8649 0.0507
vn -0.0000 -0.0000 1.0000
vn 0.5000 0.8660 -0.0000
vn -0.4521 0.7831 -0.4270
vn -1.0000 -0.0000 -0.0000
vt 0.000000 0.000000
vt 0.000000 0.000000
vt 0.000000 0.000000
vt 0.000000 0.000000
vt 0.000000 0.000000
vt 0.000000 0.000000
vt 0.000000 0.000000
vt 0.000000 0.000000
s 0
usemtl _defaultMat.001
f 15/15/9 13/13/9 16/16/9
f 13/13/9 15/15/9 14/14/9
f 19/19/10 18/18/10 17/17/10
f 18/18/10 19/19/10 20/20/10
f 19/19/11 14/14/11 15/15/11
f 19/19/11 15/15/11 20/20/11
f 15/15/12 16/16/12 18/18/12 20/20/12
f 16/16/13 13/13/13 17/17/13 18/18/13
f 14/14/14 19/19/14 17/17/14 13/13/14
o glass.002
v 0.000000 -0.267273 0.000000
v -0.231465 -0.133637 0.000000
v 0.000000 -0.320728 0.661553
v -0.277760 -0.160364 0.661553
v -0.194710 -0.112417 0.077829
v 0.000000 -0.224834 0.077829
v 0.000000 -0.259046 0.661553
v -0.224343 -0.129521 0.661553
vn -0.4988 -0.8639 -0.0698
vn 0.4994 0.8649 0.0507
vn -0.0000 -0.0000 1.0000
vn 1.0000 -0.0000 -0.0000
vn 0.4521 0.7831 -0.4270
vn -0.5000 0.8660 -0.0000
vt 0.000000 0.000000
vt 0.000000 0.000000
vt 0.000000 0.000000
vt 0.000000 0.000000
vt 0.000000 0.000000
vt 0.000000 0.000000
vt 0.000000 0.000000
vt 0.000000 0.000000
s 0
usemtl _defaultMat.001
f 23/23/15 22/22/15 21/21/15
f 22/22/15 23/23/15 24/24/15
f 28/28/16 26/26/16 25/25/16
f 26/26/16 28/28/16 27/27/16
f 28/28/17 24/24/17 23/23/17
f 28/28/17 23/23/17 27/27/17
f 23/23/18 21/21/18 26/26/18 27/27/18
f 21/21/19 22/22/19 25/25/19 26/26/19
f 24/24/20 28/28/20 25/25/20 22/22/20
o glass.003
v -0.231465 0.133637 0.000000
v -0.277760 0.160364 0.661553
v -0.231465 -0.133637 0.000000
v -0.277760 -0.160364 0.661553
v -0.194710 -0.112417 0.077829
v -0.194710 0.112417 0.077829
v -0.224343 0.129521 0.661553
v -0.224343 -0.129521 0.661553
vn -0.9976 -0.0000 -0.0698
vn 0.9987 -0.0000 0.0507
vn -0.0000 -0.0000 1.0000
vn 0.5000 -0.8660 -0.0000
vn 0.5000 0.8660 -0.0000
vn 0.9042 -0.0000 -0.4270
vt 0.000000 0.000000
vt 0.000000 0.000000
vt 0.000000 0.000000
vt 0.000000 0.000000
vt 0.000000 0.000000
vt 0.000000 0.000000
vt 0.000000 0.000000
vt 0.000000 0.000000
s 0
usemtl _defaultMat.001
f 30/30/21 31/31/21 32/32/21
f 31/31/21 30/30/21 29/29/21
f 33/33/22 35/35/22 36/36/22
f 35/35/22 33/33/22 34/34/22
f 32/32/23 36/36/23 30/30/23
f 35/35/23 30/30/23 36/36/23
f 32/32/24 31/31/24 33/33/24 36/36/24
f 30/30/25 35/35/25 34/34/25 29/29/25
f 33/33/26 31/31/26 29/29/26 34/34/26
o glass.004
v -0.231465 0.133637 0.000000
v 0.000000 0.267273 0.000000
v -0.277760 0.160364 0.661553
v 0.000000 0.320728 0.661553
v -0.194710 0.112417 0.077829
v 0.000000 0.224834 0.077829
v 0.000000 0.259046 0.661553
v -0.224343 0.129521 0.661553
vn -0.4988 0.8639 -0.0698
vn 0.4994 -0.8649 0.0507
vn -0.0000 -0.0000 1.0000
vn -0.5000 -0.8660 -0.0000
vn 0.4521 -0.7831 -0.4270
vn 1.0000 -0.0000 -0.0000
vt 0.000000 0.000000
vt 0.000000 0.000000
vt 0.000000 0.000000
vt 0.000000 0.000000
vt 0.000000 0.000000
vt 0.000000 0.000000
vt 0.000000 0.000000
vt 0.000000 0.000000
s 0
usemtl _defaultMat.001
f 39/39/27 38/38/27 37/37/27
f 38/38/27 39/39/27 40/40/27
f 43/43/28 41/41/28 42/42/28
f 41/41/28 43/43/28 44/44/28
f 39/39/29 44/44/29 40/40/29
f 40/40/29 44/44/29 43/43/29
f 39/39/30 37/37/30 41/41/30 44/44/30
f 38/38/31 42/42/31 41/41/31 37/37/31
f 40/40/32 43/43/32 42/42/32 38/38/32
o glass.005
v 0.000000 0.267273 0.000000
v 0.000000 0.320728 0.661553
v 0.277760 0.160364 0.661553
v 0.231465 0.133637 0.000000
v 0.000000 0.224834 0.077829
v 0.194710 0.112417 0.077829
v 0.224343 0.129521 0.661553
v 0.000000 0.259046 0.661553
vn 0.4988 0.8639 -0.0698
vn -0.4994 -0.8649 0.0507
vn -0.0000 -0.0000 1.0000
vn -1.0000 -0.0000 -0.0000
vn -0.4521 -0.7831 -0.4270
vn 0.5000 -0.8660 -0.0000
vt 0.000000 0.000000
vt 0.000000 0.000000
vt 0.000000 0.000000
vt 0.000000 0.000000
vt 0.000000 0.000000
vt 0.000000 0.000000
vt 0.000000 0.000000
vt 0.000000 0.000000
s 0
usemtl _defaultMat.001
f 46/46/33 48/48/33 45/45/33
f 48/48/33 46/46/33 47/47/33
f 51/51/34 49/49/34 50/50/34
f 49/49/34 51/51/34 52/52/34
f 46/46/35 52/52/35 51/51/35
f 46/46/35 51/51/35 47/47/35
f 46/46/36 45/45/36 49/49/36 52/52/36
f 50/50/37 49/49/37 45/45/37 48/48/37
f 47/47/38 51/51/38 50/50/38 48/48/38
o glass.006
v 0.277760 -0.160364 0.661553
v 0.277760 0.160364 0.661553
v 0.231465 -0.133637 0.000000
v 0.231465 0.133637 0.000000
v 0.194710 0.112417 0.077829
v 0.194710 -0.112417 0.077829
v 0.224343 -0.129521 0.661553
v 0.224343 0.129521 0.661553
vn 0.9976 -0.0000 -0.0698
vn -0.9987 -0.0000 0.0507
vn -0.0000 -0.0000 1.0000
vn -0.5000 -0.8660 -0.0000
vn -0.9042 -0.0000 -0.4270
vn -0.5000 0.8660 -0.0000
vt 0.000000 0.000000
vt 0.000000 0.000000
vt 0.000000 0.000000
vt 0.000000 0.000000
vt 0.000000 0.000000
vt 0.000000 0.000000
vt 0.000000 0.000000
vt 0.000000 0.000000
s 0
usemtl _defaultMat.001
f 55/55/39 54/54/39 53/53/39
f 54/54/39 55/55/39 56/56/39
f 60/60/40 58/58/40 59/59/40
f 58/58/40 60/60/40 57/57/40
f 59/59/41 53/53/41 60/60/41
f 54/54/41 60/60/41 53/53/41
f 53/53/42 59/59/42 58/58/42 55/55/42
f 57/57/43 56/56/43 55/55/43 58/58/43
f 54/54/44 56/56/44 57/57/44 60/60/44
