# Blender 3.4.1
# www.blender.org
mtllib SweetPotatoPeel.mtl
o avocado.002
v 0.000521 -0.059923 0.011205
v -0.008589 -0.013365 0.016465
v 0.000521 -0.059923 -0.011205
v 0.001154 0.059898 -0.010840
v 0.001154 0.059898 0.010840
v -0.008589 -0.013365 -0.016465
v -0.008589 0.013338 -0.016465
v -0.008589 0.013338 0.016465
v 0.013050 -0.080654 -0.003971
v 0.013050 -0.080654 0.003971
v 0.013664 0.080706 -0.003617
v 0.013664 0.080706 0.003617
v -0.003216 -0.059923 0.011205
v -0.012326 -0.013365 0.016465
v -0.003216 -0.059923 -0.011205
v -0.012326 -0.013365 -0.016465
v -0.012326 0.013338 -0.016465
v -0.012326 0.013338 0.016465
v 0.009313 -0.080654 0.003971
v -0.002583 0.059898 -0.010840
v 0.009927 0.080706 -0.003617
v -0.002583 0.059898 0.010840
v 0.009313 -0.080654 -0.003971
v 0.009927 0.080706 0.003617
vn 0.6344 0.0328 0.7723
vn 0.7562 -0.4534 0.4717
vn 0.7562 -0.4534 -0.4717
vn 0.6344 0.0328 -0.7723
vn 0.6367 -0.0365 -0.7702
vn 0.7556 0.4541 -0.4721
vn 0.7556 0.4541 0.4721
vn 0.6367 -0.0365 0.7702
vn 0.6705 0.0184 -0.7416
vn 0.6705 0.0184 0.7416
vn 0.6680 -0.0189 -0.7440
vn 0.6680 -0.0189 0.7440
vn -0.6580 -0.3666 0.6578
vn -0.6580 -0.3666 -0.6578
vn -0.3885 -0.7858 -0.4812
vn -0.3885 -0.7858 0.4812
vn -0.6552 0.3727 -0.6571
vn -0.6552 0.3727 0.6571
vn -0.3894 0.7851 0.4817
vn -0.3894 0.7851 -0.4817
vn -0.7108 -0.1030 -0.6958
vn -0.7108 -0.1030 0.6958
vn -0.7107 0.1096 -0.6949
vn -0.7107 0.1096 0.6949
vt 2.259700 1.707900
vt 3.208700 3.389500
vt 3.208700 5.474900
vt -2.259700 1.707900
vt -1.604400 13.765300
vt 1.604400 13.765300
vt -3.208700 5.474900
vt -3.208700 3.389500
vt -3.208700 8.593600
vt -3.208700 6.025400
vt 3.208700 8.593600
vt 3.208700 6.025400
vt -2.259700 1.707900
vt 2.259700 1.707900
vt -1.604400 13.765300
vt 1.604400 13.765300
vt 2.259700 1.707900
vt 3.208700 3.389500
vt 3.208700 5.474900
vt -2.259700 1.707900
vt -3.208700 5.474900
vt -3.208700 3.389500
vt -3.208700 8.593600
vt -3.208700 6.025400
vt 3.208700 8.593600
vt 3.208700 6.025400
vt 2.259700 1.707900
vt -1.604400 13.765300
vt -1.604400 13.765300
vt 1.604400 13.765300
vt -2.259700 1.707900
vt 1.604400 13.765300
s 1
usemtl brownDarkest.005
f 1/1/1 10/14/2 9/13/3 3/4/4
f 4/5/5 11/15/6 12/16/7 5/6/8
f 6/7/9 2/3/10 1/1/1
f 1/1/1 3/4/4 6/7/9
f 7/9/11 8/11/12 2/2/10
f 2/2/10 6/8/9 7/9/11
f 5/6/8 8/12/12 7/10/11
f 7/10/11 4/5/5 5/6/8
f 13/17/13 15/20/14 23/31/15 19/27/16
f 20/28/17 22/30/18 24/32/19 21/29/20
f 16/21/21 13/17/13 14/19/22
f 13/17/13 16/21/21 15/20/14
f 17/23/23 14/18/22 18/25/24
f 14/18/22 17/23/23 16/22/21
f 22/30/18 17/24/23 18/26/24
f 17/24/23 22/30/18 20/28/17
f 5/6/8 12/16/7 24/32/19 22/30/18
f 6/7/9 3/4/4 15/20/14 16/21/21
f 2/2/10 8/11/12 18/25/24 14/18/22
f 9/13/3 10/14/2 19/27/16 23/31/15
f 10/14/2 1/1/1 13/17/13 19/27/16
f 11/15/6 4/5/5 20/28/17 21/29/20
f 3/4/4 9/13/3 23/31/15 15/20/14
f 8/12/12 5/6/8 22/30/18 18/26/24
f 12/16/7 11/15/6 21/29/20 24/32/19
f 1/1/1 2/3/10 14/19/22 13/17/13
f 7/9/11 6/8/9 16/22/21 17/23/23
f 4/5/5 7/10/11 17/24/23 20/28/17
