# Blender 3.4.1
# www.blender.org
mtllib SweetPotatoPeelCollider.mtl
o avocado.001
v 0.002308 0.119797 -0.021679
v 0.002308 0.119797 0.021679
v 0.027329 0.161411 -0.007234
v 0.027329 0.161411 0.007234
v -0.005166 0.119797 -0.021679
v 0.019854 0.161411 -0.007234
v -0.005166 0.119797 0.021679
v 0.019854 0.161411 0.007234
vn 0.4014 -0.5653 -0.7207
vn 0.7556 0.4541 -0.4721
vn 0.7556 0.4541 0.4721
vn 0.4014 -0.5653 0.7207
vn -0.6923 -0.3559 -0.6277
vn -0.6923 -0.3559 0.6277
vn -0.3894 0.7851 0.4817
vn -0.3894 0.7851 -0.4817
vt -1.604400 13.765300
vt 1.604400 13.765300
vt -1.604400 13.765300
vt 1.604400 13.765300
vt -1.604400 13.765300
vt -1.604400 13.765300
vt 1.604400 13.765300
vt 1.604400 13.765300
s 1
usemtl brownDarkest.002
f 1/1/1 3/3/2 4/4/3 2/2/4
f 5/5/5 7/7/6 8/8/7 6/6/8
f 2/2/4 4/4/3 8/8/7 7/7/6
f 3/3/2 1/1/1 5/5/5 6/6/8
f 4/4/3 3/3/2 6/6/8 8/8/7
f 2/2/4 7/7/6 5/5/5 1/1/1
o avocado.002
v 0.002308 0.119797 -0.021679
v 0.002308 0.119797 0.021679
v -0.017178 0.026677 -0.032930
v -0.017178 0.026677 0.032930
v -0.024652 0.026677 -0.032930
v -0.024652 0.026677 0.032930
v -0.005166 0.119797 -0.021679
v -0.005166 0.119797 0.021679
vn 0.6483 0.5448 0.5319
vn 0.5070 -0.5901 0.6283
vn 0.5070 -0.5901 -0.6283
vn 0.6483 0.5448 -0.5319
vn -0.5131 0.6612 0.5473
vn -0.6303 -0.4916 -0.6009
vn -0.6303 -0.4916 0.6009
vn -0.5131 0.6612 -0.5473
vt -1.604400 13.765300
vt 1.604400 13.765300
vt -3.208700 6.025400
vt 3.208700 6.025400
vt -3.208700 6.025400
vt 3.208700 6.025400
vt -1.604400 13.765300
vt 1.604400 13.765300
s 1
usemtl brownDarkest.002
f 10/10/9 12/12/10 11/11/11
f 11/11/11 9/9/12 10/10/9
f 16/16/13 13/13/14 14/14/15
f 13/13/14 16/16/13 15/15/16
f 12/12/10 10/10/9 16/16/13 14/14/15
f 9/9/12 11/11/11 13/13/14 15/15/16
f 12/12/10 14/14/15 13/13/14 11/11/11
f 10/10/9 9/9/12 15/15/16 16/16/13
o avocado.003
v -0.017178 -0.026730 0.032930
v -0.017178 -0.026730 -0.032930
v -0.017178 0.026677 -0.032930
v -0.017178 0.026677 0.032930
v -0.024652 -0.026730 0.032930
v -0.024652 -0.026730 -0.032930
v -0.024652 0.026677 -0.032930
v -0.024652 0.026677 0.032930
vn 0.5774 0.5774 -0.5774
vn 0.5774 0.5774 0.5774
vn 0.5774 -0.5774 0.5774
vn 0.5774 -0.5774 -0.5774
vn -0.5774 0.5774 -0.5774
vn -0.5774 -0.5774 0.5774
vn -0.5774 0.5774 0.5774
vn -0.5774 -0.5774 -0.5774
vt 3.208700 3.389500
vt -3.208700 3.389500
vt -3.208700 8.593600
vt 3.208700 8.593600
vt 3.208700 3.389500
vt -3.208700 3.389500
vt -3.208700 8.593600
vt 3.208700 8.593600
s 1
usemtl brownDarkest.002
f 19/19/17 20/20/18 17/17/19
f 17/17/19 18/18/20 19/19/17
f 23/23/21 21/21/22 24/24/23
f 21/21/22 23/23/21 22/22/24
f 17/17/19 20/20/18 24/24/23 21/21/22
f 19/19/17 18/18/20 22/22/24 23/23/21
f 22/22/24 18/18/20 17/17/19 21/21/22
f 20/20/18 19/19/17 23/23/21 24/24/23
o avocado.004
v 0.001042 -0.119846 0.022410
v -0.017178 -0.026730 0.032930
v 0.001042 -0.119846 -0.022410
v -0.017178 -0.026730 -0.032930
v -0.006432 -0.119846 0.022410
v -0.024652 -0.026730 0.032930
v -0.006432 -0.119846 -0.022410
v -0.024652 -0.026730 -0.032930
vn 0.5113 0.5899 -0.6250
vn 0.5113 0.5899 0.6250
vn 0.6438 -0.5474 0.5346
vn 0.6438 -0.5474 -0.5346
vn -0.6273 0.4970 -0.5996
vn -0.5175 -0.6560 0.5494
vn -0.6273 0.4970 0.5996
vn -0.5175 -0.6560 -0.5494
vt 2.259700 1.707900
vt 3.208700 5.474900
vt -2.259700 1.707900
vt -3.208700 5.474900
vt 2.259700 1.707900
vt 3.208700 5.474900
vt -2.259700 1.707900
vt -3.208700 5.474900
s 1
usemtl brownDarkest.002
f 28/28/25 26/26/26 25/25/27
f 25/25/27 27/27/28 28/28/25
f 32/32/29 29/29/30 30/30/31
f 29/29/30 32/32/29 31/31/32
f 28/28/25 27/27/28 31/31/32 32/32/29
f 25/25/27 26/26/26 30/30/31 29/29/30
f 32/32/29 30/30/31 26/26/26 28/28/25
f 27/27/28 25/25/27 29/29/30 31/31/32
o avocado.005
v 0.001042 -0.119846 0.022410
v 0.001042 -0.119846 -0.022410
v 0.026100 -0.161308 -0.007943
v 0.026100 -0.161308 0.007943
v -0.006432 -0.119846 0.022410
v -0.006432 -0.119846 -0.022410
v 0.018625 -0.161308 0.007943
v 0.018625 -0.161308 -0.007943
vn 0.4008 0.5649 0.7213
vn 0.7562 -0.4534 0.4717
vn 0.7562 -0.4534 -0.4717
vn 0.4008 0.5649 -0.7213
vn -0.6926 0.3550 0.6279
vn -0.6926 0.3550 -0.6279
vn -0.3885 -0.7858 -0.4812
vn -0.3885 -0.7858 0.4812
vt 2.259700 1.707900
vt -2.259700 1.707900
vt -2.259700 1.707900
vt 2.259700 1.707900
vt 2.259700 1.707900
vt -2.259700 1.707900
vt 2.259700 1.707900
vt -2.259700 1.707900
s 1
usemtl brownDarkest.002
f 33/33/33 36/36/34 35/35/35 34/34/36
f 37/37/37 38/38/38 40/40/39 39/39/40
f 35/35/35 36/36/34 39/39/40 40/40/39
f 36/36/34 33/33/33 37/37/37 39/39/40
f 34/34/36 35/35/35 40/40/39 38/38/38
f 34/34/36 38/38/38 37/37/37 33/33/33
