# Blender 3.4.1
# www.blender.org
mtllib pottedPlantPotCollider.mtl
o pottedPlant
v -0.228556 0.131957 0.000000
v -0.228556 -0.131957 0.000000
v -0.218403 0.126095 0.738417
v -0.218403 -0.126095 0.738417
v 0.000000 -0.252190 0.738417
v 0.000000 0.252190 0.738417
v 0.218403 -0.126095 0.738417
v 0.000000 -0.263914 0.000000
v 0.000000 0.263914 0.000000
v 0.228556 0.131957 0.000000
v 0.218403 0.126095 0.738417
v 0.228556 -0.131957 0.000000
v -0.283307 0.163567 0.729596
v 0.000000 0.327135 0.729596
v -0.283307 -0.163567 0.729596
v 0.283307 0.163567 0.729596
v 0.000000 -0.327135 0.729596
v 0.283307 -0.163567 0.729596
vn 0.0673 0.1166 0.9909
vn -0.9972 -0.0000 -0.0748
vn 0.1347 -0.0000 0.9909
vn 0.0673 -0.1166 0.9909
vn -0.0673 -0.1166 0.9909
vn -0.1347 -0.0000 0.9909
vn -0.4986 -0.8636 -0.0748
vn 0.4986 -0.8636 -0.0748
vn 0.4986 0.8636 -0.0748
vn -0.0000 -0.0000 -1.0000
vn 0.9972 -0.0000 -0.0748
vn -0.0673 0.1166 0.9909
vn -0.4986 0.8636 -0.0748
vn -0.0000 -0.0000 1.0000
vt -1.329724 -0.767717
vt -0.767717 0.099507
vt -1.329724 0.767717
vt 1.270653 -0.733612
vt 1.270653 0.733612
vt -0.000000 1.467223
vt 0.000000 -1.467223
vt -1.270653 0.733612
vt -0.767717 0.099507
vt 0.000000 1.535433
vt -0.000000 -1.535433
vt 1.329724 -0.767717
vt -0.767717 0.099507
vt -1.270653 -0.733612
vt 1.329724 0.767717
vt -0.767717 0.099507
vt 0.715102 4.258392
vt 1.348365 -0.951625
vt -0.865052 4.171819
vt -0.951625 4.356187
vt 1.411741 0.876273
vt -1.584888 -0.853831
vt -0.951625 4.356187
vt -1.584888 0.876273
s 0
usemtl wood.001
f 15/20/2 13/17/2 1/1/2 2/2/2
f 8/9/7 17/23/7 15/21/7 2/2/7
f 8/9/8 12/16/8 18/24/8 17/23/8
f 16/22/9 10/13/9 9/11/9 14/19/9
f 10/12/10 12/15/10 8/10/10
f 8/10/10 9/11/10 10/12/10
f 8/10/10 2/3/10 9/11/10
f 2/3/10 1/1/10 9/11/10
f 12/16/11 10/13/11 16/22/11 18/24/11
f 1/1/13 13/18/13 14/19/13 9/11/13
usemtl woodDark.001
f 14/19/1 6/7/1 11/14/1 16/22/1
f 16/22/3 11/14/3 7/8/3 18/24/3
f 18/24/4 7/8/4 5/6/4 17/23/4
f 17/23/5 5/6/5 4/5/5 15/21/5
f 4/5/6 3/4/6 13/17/6 15/20/6
f 14/19/12 13/18/12 3/4/12 6/7/12
f 5/6/14 7/8/14 11/14/14
f 11/14/14 6/7/14 5/6/14
f 6/7/14 4/5/14 5/6/14
f 6/7/14 3/4/14 4/5/14
o pottedPlant.001
v -0.290266 -0.167585 0.822328
v -0.218403 -0.126095 0.822328
v -0.218403 -0.126095 0.738417
v 0.000000 -0.252190 0.738417
v 0.000000 -0.252190 0.822328
v 0.000000 -0.335170 0.822328
v -0.283307 -0.163567 0.729596
v 0.000000 -0.327135 0.729596
vn 0.5000 0.8660 -0.0000
vn -0.0000 -0.0000 1.0000
vn -0.4986 -0.8636 -0.0748
vn -0.5000 0.8660 -0.0000
vn 1.0000 -0.0000 -0.0000
vn 0.0673 0.1166 -0.9909
vt 1.688750 0.975000
vt 0.733612 4.784252
vt 1.270653 0.733612
vt 0.733612 4.296063
vt -0.733612 4.296063
vt -0.733612 4.784252
vt -0.000000 1.467223
vt -0.000000 1.950000
vt -0.975000 4.897211
vt 1.411741 0.876273
vt -0.951625 4.356187
s 0
usemtl wood.001
f 22/29/15 21/28/15 20/26/15
f 20/26/15 23/30/15 22/29/15
f 23/31/16 19/25/16 24/32/16
f 23/31/16 20/27/16 19/25/16
f 26/35/17 24/33/17 19/25/17 25/34/17
f 21/28/18 25/34/18 19/25/18 20/27/18
f 22/29/19 23/31/19 24/33/19 26/35/19
f 21/28/20 22/29/20 26/35/20 25/34/20
o pottedPlant.002
v 0.000000 -0.252190 0.738417
v 0.000000 -0.252190 0.822328
v 0.218403 -0.126095 0.738417
v 0.218403 -0.126095 0.822328
v 0.290266 -0.167585 0.822328
v 0.000000 -0.335170 0.822328
v 0.000000 -0.327135 0.729596
v 0.283307 -0.163567 0.729596
vn -0.5000 0.8660 -0.0000
vn -0.0000 -0.0000 1.0000
vn 0.4986 -0.8636 -0.0748
vn 0.5000 0.8660 -0.0000
vn -1.0000 -0.0000 -0.0000
vn -0.0673 0.1166 -0.9909
vt 0.733612 4.296063
vt 0.733612 4.784252
vt -0.000000 1.467223
vt -0.733612 4.296063
vt -0.733612 4.784252
vt -1.270653 0.733612
vt -1.688750 0.975000
vt -0.000000 1.950000
vt -0.975000 4.897211
vt -0.951625 4.356187
vt -1.584888 0.876273
s 0
usemtl wood.001
f 29/39/21 27/36/21 28/37/21
f 28/37/21 30/40/21 29/39/21
f 30/41/22 32/43/22 31/42/22
f 30/41/22 28/38/22 32/43/22
f 33/45/23 34/46/23 31/42/23 32/44/23
f 31/42/24 34/46/24 29/39/24 30/41/24
f 27/36/25 33/45/25 32/44/25 28/38/25
f 27/36/26 29/39/26 34/46/26 33/45/26
o pottedPlant.003
v 0.218403 -0.126095 0.738417
v 0.218403 -0.126095 0.822328
v 0.218403 0.126095 0.822328
v 0.290266 0.167585 0.822328
v 0.290266 -0.167585 0.822328
v 0.218403 0.126095 0.738417
v 0.283307 0.163567 0.729596
v 0.283307 -0.163567 0.729596
vn -0.0000 -0.0000 1.0000
vn -1.0000 -0.0000 -0.0000
vn 0.9972 -0.0000 -0.0748
vn -0.5000 0.8660 -0.0000
vn -0.5000 -0.8660 -0.0000
vn -0.1347 -0.0000 -0.9909
vt 0.733612 4.296063
vt 0.733612 4.784252
vt -1.270653 0.733612
vt -1.270653 -0.733612
vt -0.733612 4.784252
vt -1.688750 -0.975000
vt -1.688750 0.975000
vt -0.733612 4.296063
vt -1.584888 -0.853831
vt -1.584888 0.876273
s 0
usemtl wood.001
f 37/50/27 36/49/27 38/52/27
f 39/53/27 38/52/27 36/49/27
f 37/51/28 40/54/28 35/47/28
f 35/47/28 36/48/28 37/51/28
f 42/56/29 41/55/29 38/52/29 39/53/29
f 38/52/30 41/55/30 40/54/30 37/51/30
f 39/53/31 36/49/31 35/47/31 42/56/31
f 35/47/32 40/54/32 41/55/32 42/56/32
o pottedPlant.004
v 0.000000 0.252190 0.738417
v 0.000000 0.252190 0.822328
v 0.218403 0.126095 0.822328
v 0.290266 0.167585 0.822328
v 0.000000 0.335170 0.822328
v 0.218403 0.126095 0.738417
v 0.000000 0.327135 0.729596
v 0.283307 0.163567 0.729596
vn -0.0000 -0.0000 1.0000
vn -0.5000 -0.8660 -0.0000
vn 0.4986 0.8636 -0.0748
vn -1.0000 -0.0000 -0.0000
vn 0.5000 -0.8660 -0.0000
vn -0.0673 -0.1166 -0.9909
vt -0.733612 4.296063
vt -0.733612 4.784252
vt 0.000000 -1.467223
vt -1.270653 -0.733612
vt 0.733612 4.784252
vt -1.688750 -0.975000
vt -0.975000 4.897211
vt 0.000000 -1.950000
vt 0.733612 4.296063
vt -0.865052 4.171819
vt -1.584888 -0.853831
s 0
usemtl wood.001
f 46/62/33 47/64/33 45/60/33
f 47/64/33 44/59/33 45/60/33
f 43/57/34 48/65/34 45/61/34
f 45/61/34 44/58/34 43/57/34
f 46/62/35 50/67/35 49/66/35 47/63/35
f 47/64/36 49/66/36 43/57/36 44/59/36
f 46/62/37 45/61/37 48/65/37 50/67/37
f 43/57/38 49/66/38 50/67/38 48/65/38
o pottedPlant.005
v -0.290266 0.167585 0.822328
v -0.218403 0.126095 0.822328
v -0.218403 0.126095 0.738417
v 0.000000 0.252190 0.738417
v 0.000000 0.252190 0.822328
v 0.000000 0.335170 0.822328
v -0.283307 0.163567 0.729596
v 0.000000 0.327135 0.729596
vn 0.5000 -0.8660 -0.0000
vn -0.0000 -0.0000 1.0000
vn -0.4986 0.8636 -0.0748
vn -0.5000 -0.8660 -0.0000
vn 1.0000 -0.0000 -0.0000
vn 0.0673 -0.1166 -0.9909
vt 1.688750 -0.975000
vt 1.270653 -0.733612
vt -0.733612 4.784252
vt -0.733612 4.296063
vt 0.733612 4.296063
vt 0.733612 4.784252
vt 0.000000 -1.467223
vt -0.975000 4.897211
vt 0.000000 -1.950000
vt 1.348365 -0.951625
vt -0.865052 4.171819
s 0
usemtl wood.001
f 53/71/39 54/72/39 55/73/39
f 55/73/39 52/70/39 53/71/39
f 56/76/40 52/69/40 55/74/40
f 56/76/40 51/68/40 52/69/40
f 57/77/41 51/68/41 56/75/41 58/78/41
f 51/68/42 57/77/42 53/71/42 52/70/42
f 56/76/43 55/74/43 54/72/43 58/78/43
f 54/72/44 53/71/44 57/77/44 58/78/44
o pottedPlant.006
v -0.290266 0.167585 0.822328
v -0.290266 -0.167585 0.822328
v -0.218403 0.126095 0.822328
v -0.218403 0.126095 0.738417
v -0.218403 -0.126095 0.822328
v -0.218403 -0.126095 0.738417
v -0.283307 0.163567 0.729596
v -0.283307 -0.163567 0.729596
vn -0.9972 -0.0000 -0.0748
vn 1.0000 -0.0000 -0.0000
vn -0.0000 -0.0000 1.0000
vn 0.5000 -0.8660 -0.0000
vn 0.5000 0.8660 -0.0000
vn 0.1347 -0.0000 -0.9909
vt 1.688750 -0.975000
vt 0.975000 4.897211
vt 1.688750 0.975000
vt -0.975000 4.897211
vt 1.270653 -0.733612
vt 0.733612 4.784252
vt 0.733612 4.296063
vt -0.733612 4.784252
vt 1.270653 0.733612
vt -0.733612 4.296063
vt 0.715102 4.258392
vt -0.951625 4.356187
s 0
usemtl wood.001
f 60/82/45 59/80/45 65/89/45 66/90/45
f 62/85/46 61/84/46 63/86/46
f 63/86/46 64/88/46 62/85/46
f 59/79/47 60/81/47 61/83/47
f 63/87/47 61/83/47 60/81/47
f 64/88/48 63/87/48 60/82/48 66/90/48
f 59/80/49 61/84/49 62/85/49 65/89/49
f 64/88/50 66/90/50 65/89/50 62/85/50
