# Blender 3.4.1
# www.blender.org
mtllib pottedPlantPlant.mtl
o pottedPlantGreen
v 0.357940 -0.000610 0.999609
v -0.000812 -0.000610 -0.813197
v 0.076476 -0.166364 -0.019135
v -0.203032 -0.088614 -0.225003
v -0.000812 -0.409104 0.529622
v 0.201408 0.087395 -0.225003
v -0.000812 0.407885 0.529622
v -0.078100 0.165144 -0.019135
v -0.359564 -0.000610 0.999609
v -0.203032 0.087395 -0.225003
v -0.078100 -0.166364 -0.019135
v 0.076476 0.165144 -0.019135
v 0.201408 -0.088614 -0.225003
v 0.381644 -0.000610 0.994918
v 0.022892 -0.000610 -0.817888
v 0.100180 -0.166364 -0.023826
v 0.100180 0.165144 -0.023826
v -0.000812 0.436789 0.520829
v -0.203032 0.116300 -0.233796
v -0.000812 0.028295 -0.821990
v 0.201408 0.116300 -0.233796
v -0.000812 -0.433589 0.522174
v 0.201408 -0.113099 -0.232452
v -0.000812 -0.025094 -0.820645
v -0.203032 -0.113099 -0.232452
v -0.377380 -0.000610 0.996083
v -0.095917 -0.166364 -0.022661
v -0.018628 -0.000610 -0.816723
v -0.095917 0.165144 -0.022661
vn 0.8869 -0.4273 -0.1755
vn -0.3952 -0.8788 -0.2673
vn 0.3952 0.8788 -0.2673
vn -0.8869 0.4273 -0.1755
vn -0.3952 0.8788 -0.2673
vn -0.8869 -0.4273 -0.1755
vn 0.8869 0.4273 -0.1755
vn 0.3952 -0.8788 -0.2673
vn -0.8869 0.4273 0.1755
vn -0.8869 -0.4273 0.1755
vn -0.0302 -0.9879 -0.1524
vn 0.0397 0.9789 0.2005
vn 0.0397 -0.9789 0.2005
vn -0.0302 0.9879 -0.1524
vn -0.3952 -0.8788 0.2673
vn 0.3952 -0.8788 0.2673
vn 0.9706 -0.0701 -0.2303
vn -0.9706 -0.0701 -0.2303
vn 0.9457 0.0946 0.3110
vn -0.9457 0.0946 0.3110
vn 0.3952 0.8788 0.2673
vn -0.3952 0.8788 0.2673
vn 0.9457 -0.0946 0.3110
vn -0.9457 -0.0946 0.3110
vn 0.9706 0.0701 -0.2303
vn -0.9706 0.0701 -0.2303
vn 0.8869 -0.4273 0.1755
vn 0.8869 0.4273 0.1755
vn -0.0397 0.9789 0.2005
vn 0.0302 -0.9879 -0.1524
vn 0.0302 0.9879 -0.1524
vn -0.0397 -0.9789 0.2005
vt -4.282144 20.404020
vt -4.282144 21.128220
vt -6.093949 -0.297978
vt -2.470338 -1.022176
vt 5.756495 -0.701310
vt 1.857947 -1.616668
vt -1.857947 1.616668
vt -5.756495 0.701310
vt 2.470338 1.022176
vt 6.093949 0.297978
vt -7.441179 9.087317
vt -3.584041 8.719356
vt 0.091327 17.831779
vt -7.705769 16.916420
vt 0.131853 5.486019
vt 3.807221 15.513800
vt 3.807221 14.598440
vt 4.746719 9.683272
vt 7.905754 21.724171
vt 0.658533 22.448370
vt 7.482589 6.401377
vt 3.817568 10.407470
vt -1.123109 8.363118
vt -4.030401 7.803997
vt -4.282144 20.404020
vt -4.282144 21.128220
vt -6.093949 -0.297978
vt -2.470338 -1.022176
vt -7.441179 9.087317
vt -1.123109 8.363118
vt 3.807221 15.513800
vt 3.807221 14.598440
vt 7.482589 6.401377
vt 5.756495 -0.701310
vt 1.857947 -1.616668
vt 0.131853 5.486019
vt 0.091327 17.831779
vt -7.705769 16.916420
vt -4.030401 7.803997
vt -1.857947 1.616668
vt -5.756495 0.701310
vt -3.584041 8.719356
vt 7.905754 21.724171
vt 0.658533 22.448370
vt 3.817568 10.407470
vt 2.470338 1.022176
vt 6.093949 0.297978
vt 4.746719 9.683272
s 0
usemtl plant
f 2/3/1 1/2/1 3/11/1
f 4/12/2 2/7/2 5/13/2
f 6/15/3 2/6/3 7/17/3
f 8/18/4 2/10/4 9/19/4
f 2/5/5 10/21/5 7/16/5
f 9/20/6 2/9/6 11/22/6
f 12/23/7 1/1/7 2/4/7
f 2/8/8 13/24/8 5/14/8
f 15/27/9 16/29/9 14/26/9
f 17/30/10 15/28/10 14/25/10
f 1/1/11 12/23/11 17/30/11 14/25/11
f 2/3/12 3/11/12 16/29/12 15/27/12
f 12/23/13 2/4/13 15/28/13 17/30/13
f 3/11/14 1/2/14 14/26/14 16/29/14
f 21/36/15 18/32/15 20/35/15
f 20/34/16 18/31/16 19/33/16
f 7/16/17 10/21/17 19/33/17 18/31/17
f 6/15/18 7/17/18 18/32/18 21/36/18
f 10/21/19 2/5/19 20/34/19 19/33/19
f 2/6/20 6/15/20 21/36/20 20/35/20
f 25/42/21 22/37/21 24/40/21
f 24/41/22 22/38/22 23/39/22
f 2/7/23 4/12/23 25/42/23 24/40/23
f 13/24/24 2/8/24 24/41/24 23/39/24
f 4/12/25 5/13/25 22/37/25 25/42/25
f 5/14/26 13/24/26 23/39/26 22/38/26
f 29/48/27 26/43/27 28/47/27
f 26/44/28 27/45/28 28/46/28
f 11/22/29 2/9/29 28/46/29 27/45/29
f 8/18/30 9/19/30 26/43/30 29/48/30
f 9/20/31 11/22/31 27/45/31 26/44/31
f 2/10/32 8/18/32 29/48/32 28/47/32
