# Blender v2.78 (sub 0) OBJ File: ''
# www.blender.org
mtllib kitchenstove_door_collision.mtl
o OvenDoor.001_ID22.001
v -0.939517 0.085610 0.241496
v -0.939517 0.021610 0.241496
v 0.916483 0.085610 0.241496
v 0.916483 0.021610 0.241496
v -0.939517 0.021610 0.757138
v -0.939517 0.085610 0.757138
v 0.916483 0.021610 0.757138
v 0.916483 0.085610 0.757138
v 1.206672 0.085610 0.892414
v -1.201725 0.085610 0.892414
v -1.201725 0.085610 0.002590
v 1.206672 0.085610 0.002590
v -1.201725 0.021610 0.892414
v 1.206672 0.021610 0.892414
v 1.206672 0.021610 0.002590
v -1.201725 0.021610 0.002590
vt -1.6130 1.6643
vt -13.0303 1.6643
vt -1.6130 8.0083
vt -13.0303 8.0083
vt -1.6130 0.3937
vt -1.6130 -0.3937
vt -13.0303 0.3937
vt -13.0303 -0.3937
vt 1.6130 -0.3937
vt 1.6130 0.3937
vt 13.0303 -0.3937
vt 13.0303 0.3937
vt 0.3937 8.0083
vt 0.3937 1.6643
vt -0.3937 8.0083
vt -0.3937 1.6643
vt -0.3937 1.6643
vt -0.3937 8.0083
vt 0.3937 1.6643
vt 0.3937 8.0083
vt -14.8154 0.0000
vt 0.0000 0.0000
vt 0.0000 10.9476
vt -14.8154 10.9476
vt 0.0000 0.3937
vt 0.0000 -0.3937
vt -14.8154 0.3937
vt -14.8154 -0.3937
vt 0.0000 0.0000
vt 13.0303 1.6643
vt 14.8154 0.0000
vt 14.8154 10.9476
vt 13.0303 8.0083
vt 1.6130 1.6643
vt 0.0000 10.9476
vt 1.6130 8.0083
vt 0.0000 -0.3937
vt 14.8154 -0.3937
vt 0.0000 0.3937
vt 14.8154 0.3937
vt 0.3937 10.9476
vt 0.3937 0.0000
vt -0.3937 10.9476
vt -0.3937 0.0000
vt -0.3937 0.0000
vt -0.3937 10.9476
vt 0.3937 0.0000
vt 0.3937 10.9476
vn 0.0000 1.0000 0.0000
vn 0.0000 0.0000 1.0000
vn 0.0000 0.0000 -1.0000
vn -1.0000 0.0000 0.0000
vn 1.0000 0.0000 0.0000
vn 0.0000 -1.0000 -0.0000
usemtl glass.003
s 1
f 6/1/1 8/2/1 1/3/1
f 3/4/1 1/3/1 8/2/1
usemtl metal.005
f 1/5/2 2/6/2 3/7/2
f 4/8/2 3/7/2 2/6/2
f 5/9/3 6/10/3 7/11/3
f 8/12/3 7/11/3 6/10/3
f 4/13/4 7/14/4 3/15/4
f 8/16/4 3/15/4 7/14/4
f 5/17/5 2/18/5 6/19/5
f 1/20/5 6/19/5 2/18/5
f 9/21/1 6/1/1 10/22/1
f 11/23/1 10/22/1 6/1/1
f 1/3/1 11/23/1 6/1/1
f 3/4/1 11/23/1 1/3/1
f 6/1/1 9/21/1 8/2/1
f 12/24/1 8/2/1 9/21/1
f 3/4/1 8/2/1 12/24/1
f 11/23/1 3/4/1 12/24/1
f 10/25/2 13/26/2 9/27/2
f 14/28/2 9/27/2 13/26/2
f 13/29/6 7/30/6 14/31/6
f 15/32/6 14/31/6 7/30/6
f 4/33/6 15/32/6 7/30/6
f 7/30/6 13/29/6 5/34/6
f 16/35/6 5/34/6 13/29/6
f 2/36/6 5/34/6 16/35/6
f 16/37/6 15/38/6 4/33/6 2/6/6
f 16/37/3 11/39/3 15/38/3
f 12/40/3 15/38/3 11/39/3
f 16/41/4 13/42/4 11/43/4
f 10/44/4 11/43/4 13/42/4
f 14/45/5 15/46/5 9/47/5
f 12/48/5 9/47/5 15/46/5
