# Blender v2.78 (sub 0) OBJ File: ''
# www.blender.org
mtllib handle.mtl
o mediumBowlVisual.002
v -0.000664 -0.024258 0.056490
v 0.000664 -0.024258 0.056490
v 0.000664 0.004520 0.056490
v -0.000664 0.004520 0.056490
v -0.000664 0.004938 -0.052261
v 0.000664 0.004938 -0.052261
v 0.000664 -0.024258 0.002790
v -0.000664 -0.024258 0.002790
v 0.000664 0.039056 -0.063510
v -0.000664 0.039056 -0.063510
vt 0.0000 0.0000
vt 0.0000 0.0000
vt 0.0000 0.0000
vt 0.0000 0.0000
vt 0.0000 0.0000
vt 0.0000 0.0000
vt 0.0000 0.0000
vt 0.0000 0.0000
vt 0.0000 0.0000
vt 0.0000 0.0000
vn 0.0000 0.0000 1.0000
vn 0.0000 -0.8835 -0.4685
vn 0.0000 -1.0000 0.0000
vn 0.0000 0.9610 0.2766
vn 0.0000 -0.3131 -0.9497
vn 1.0000 0.0000 0.0000
vn -1.0000 0.0000 0.0000
usemtl glass.003
s 1
f 1/1/1 2/2/1 3/3/1 4/4/1
f 5/5/2 6/6/2 7/7/2 8/8/2
f 8/8/3 7/7/3 2/2/3 1/1/3
f 4/4/4 3/3/4 9/9/4 10/10/4
f 10/10/5 9/9/5 6/6/5 5/5/5
f 3/3/6 6/6/6 9/9/6
f 3/3/6 2/2/6 7/7/6
f 7/7/6 6/6/6 3/3/6
f 8/8/7 4/4/7 5/5/7
f 4/4/7 8/8/7 1/1/7
f 4/4/7 10/10/7 5/5/7
