# Blender 3.4.1
# www.blender.org
mtllib broccoliHead.mtl
o broccoli
v -0.187590 -0.063716 0.101923
v -0.101923 -0.063716 0.187590
v -0.158040 -0.099885 0.082229
v -0.082229 -0.099885 0.158040
v -0.135348 0.073674 0.078143
v -0.135348 0.073674 -0.078143
v -0.067674 0.174889 0.039071
v -0.067674 0.174889 -0.039071
v 0.000000 0.073674 0.156286
v 0.000000 0.174889 0.078143
v 0.123624 0.019242 0.000000
v 0.131469 0.055665 -0.058596
v 0.164731 -0.006701 0.000000
v 0.147461 0.047831 -0.061794
v 0.135348 0.073674 0.078143
v 0.067674 0.174889 0.039071
v 0.135348 0.073674 -0.078143
v 0.067674 0.174889 -0.039071
v 0.131469 0.055665 0.058596
v 0.147461 0.047831 0.061794
v -0.187590 -0.063716 -0.101923
v -0.158040 -0.099885 -0.082229
v -0.101923 -0.063716 -0.187590
v -0.082229 -0.099885 -0.158040
v 0.187590 -0.063716 -0.101923
v 0.158170 0.021601 -0.115336
v 0.101923 -0.063716 -0.187590
v 0.115336 0.021601 -0.158170
v 0.000000 0.174889 -0.078143
v 0.167205 -0.013784 0.000000
v 0.000000 0.073674 -0.156286
v -0.115336 0.021601 0.158170
v 0.000000 -0.013784 0.167205
v 0.000000 -0.006701 0.164731
v -0.061794 0.047831 0.147461
v -0.158170 0.021601 0.115336
v -0.147461 0.047831 0.061794
v -0.167205 -0.013784 0.000000
v -0.164731 -0.006701 0.000000
v -0.147461 0.047831 -0.061794
v -0.123624 0.019242 0.000000
v -0.131469 0.055665 -0.058596
v -0.130132 0.049460 0.075132
v -0.131469 0.055665 0.058596
v -0.130132 0.049460 -0.075132
v -0.056415 0.061007 0.120565
v 0.141595 -0.059602 0.000000
v 0.158040 -0.099885 -0.082229
v 0.000000 0.008810 0.140154
v 0.061794 0.047831 0.147461
v 0.056415 0.061007 0.120565
v 0.000000 0.008810 -0.140154
v 0.056415 0.061007 -0.120565
v 0.130132 0.049460 -0.075132
v 0.130132 0.049460 0.075132
v 0.000000 -0.013784 -0.167205
v 0.000000 -0.006701 -0.164731
v 0.061794 0.047831 -0.147461
v -0.115336 0.021601 -0.158170
v -0.061794 0.047831 -0.147461
v -0.056415 0.061007 -0.120565
v -0.158170 0.021601 -0.115336
v -0.141595 -0.059602 0.000000
v 0.082229 -0.099885 -0.158040
v 0.000000 -0.059602 -0.141595
v 0.082229 -0.099885 0.158040
v 0.000000 -0.059602 0.141595
v 0.101923 -0.063716 0.187590
v 0.158040 -0.099885 0.082229
v 0.187590 -0.063716 0.101923
v 0.115336 0.021601 0.158170
v 0.158170 0.021601 0.115336
v -0.087585 -0.037552 0.000000
v -0.084205 -0.042091 -0.014498
v -0.055319 -0.030529 -0.015063
v -0.014005 -0.054569 -0.115262
v -0.027743 -0.024448 -0.027743
v -0.015368 -0.040846 -0.080285
v 0.000000 -0.051041 -0.120626
v 0.000000 -0.012846 -0.027068
v 0.000000 -0.037385 -0.087175
v -0.027068 -0.012846 0.000000
v -0.059507 -0.026089 0.000000
v 0.014005 -0.054569 -0.115262
v 0.015368 -0.040846 -0.080285
v 0.027743 -0.024448 -0.027743
v 0.055319 -0.030529 -0.015063
v 0.084205 -0.042091 -0.014498
v 0.087585 -0.037552 0.000000
v 0.059507 -0.026089 0.000000
v 0.027068 -0.012846 0.000000
v -0.055319 -0.030529 0.015063
v -0.027743 -0.024448 0.027743
v -0.014005 -0.054569 0.115262
v -0.084205 -0.042091 0.014498
v -0.015368 -0.040846 0.080285
v 0.000000 -0.012846 0.027068
v 0.000000 -0.037385 0.087175
v 0.000000 -0.051041 0.120626
v 0.027743 -0.024448 0.027743
v 0.015368 -0.040846 0.080285
v 0.014005 -0.054569 0.115262
v 0.055319 -0.030529 0.015063
v 0.084205 -0.042091 0.014498
v 0.000000 -0.012846 0.000000
vn -0.5094 -0.6935 0.5094
vn -0.8313 0.5558 -0.0000
vn -0.4157 0.5558 0.7199
vn 0.4582 0.7261 0.5127
vn 0.8313 0.5558 -0.0000
vn 0.4582 0.7261 -0.5127
vn -0.5094 -0.6935 -0.5094
vn 0.7010 0.1315 -0.7010
vn -0.0000 1.0000 -0.0000
vn 0.9437 0.3297 0.0272
vn -0.4157 0.5558 -0.7199
vn 0.0272 0.3297 0.9437
vn -0.9437 0.3297 -0.0272
vn -0.4582 0.7261 0.5127
vn -0.9776 -0.2105 -0.0000
vn -0.9776 -0.2106 -0.0000
vn -0.3536 0.8660 0.3536
vn -0.7010 0.1315 0.7010
vn 0.8066 -0.4509 0.3822
vn -0.5127 0.7261 0.4582
vn 0.4888 -0.2105 -0.8466
vn 0.4888 -0.2106 -0.8466
vn 0.4157 0.5558 0.7199
vn 0.9776 -0.2105 -0.0000
vn 0.9776 -0.2106 -0.0000
vn -0.0272 0.3297 -0.9437
vn -0.4582 0.7261 -0.5127
vn 0.0272 0.3297 -0.9437
vn 0.5127 0.7261 -0.4582
vn -0.3536 0.8660 -0.3536
vn -0.8066 -0.4509 -0.3822
vn 0.4157 0.5558 -0.7199
vn -0.3822 -0.4509 -0.8066
vn 0.5094 -0.6935 -0.5094
vn -0.7010 0.1315 -0.7010
vn -0.4888 -0.2105 0.8466
vn -0.4888 -0.2106 0.8466
vn -0.3822 -0.4509 0.8066
vn 0.3536 0.8660 -0.3536
vn 0.5094 -0.6935 0.5094
vn 0.5127 0.7261 0.4582
vn 0.3822 -0.4509 0.8066
vn 0.7010 0.1315 0.7010
vn 0.9437 0.3297 -0.0272
vn -0.9437 0.3297 0.0272
vn -0.8066 -0.4509 0.3822
vn 0.3536 -0.8660 0.3536
vn 0.3535 -0.8660 0.3536
vn 0.3536 0.8660 0.3536
vn -0.4888 -0.2105 -0.8466
vn -0.4888 -0.2106 -0.8466
vn -0.3535 -0.8660 0.3536
vn -0.3536 -0.8660 0.3536
vn 0.4888 -0.2105 0.8466
vn 0.4888 -0.2106 0.8466
vn -0.0272 0.3297 0.9437
vn 0.3536 -0.8660 -0.3536
vn 0.3535 -0.8660 -0.3536
vn -0.5127 0.7261 -0.4582
vn 0.8066 -0.4509 -0.3822
vn 0.3822 -0.4509 -0.8066
vn -0.3536 -0.8660 -0.3536
vn -0.2005 -0.9590 -0.2005
vn -0.2005 -0.9590 0.2005
vn 0.2005 -0.9590 0.2005
vn 0.2005 -0.9590 -0.2005
vt -2.384879 10.781930
vt 4.223971 4.408422
vt -2.384879 6.084672
vt 6.788657 8.667532
vt 2.384879 10.781930
vt -4.223971 4.408422
vt 2.384879 6.084672
vt -6.788657 8.667532
vt -2.110513 8.805304
vt 5.589836 7.072180
vt 2.110513 -2.901078
vt 2.110513 8.805304
vt -5.589836 7.072180
vt -2.110513 -2.901078
vt 3.076494 7.526155
vt -3.076494 7.526155
vt 3.076494 13.455390
vt -3.076494 13.455390
vt -3.076494 7.526155
vt 3.076494 7.526155
vt -3.076494 13.455390
vt 3.076494 13.455390
vt 1.538247 12.319650
vt -1.538247 12.319650
vt -2.664322 -1.538247
vt -1.538247 12.319650
vt -2.664322 1.538247
vt 1.538247 12.319650
vt 3.076494 7.526155
vt -3.076494 7.526155
vt 3.076494 13.455390
vt -3.076494 13.455390
vt 1.538247 12.319650
vt -0.000000 -3.076494
vt -1.538247 12.319650
vt 3.628829 4.846611
vt -3.628829 4.846611
vt -0.000000 11.263260
vt 5.396453 6.932047
vt 2.306911 12.730130
vt -2.028712 1.371338
vt 4.835453 3.361232
vt -4.835453 3.361231
vt 0.186991 6.786059
vt -0.186991 6.786059
vt 5.949806 6.483470
vt 2.599212 9.060119
vt -2.384879 0.754438
vt -3.076494 7.526155
vt 3.076494 7.526155
vt -3.076494 13.455390
vt 3.076494 13.455390
vt -1.538247 12.319650
vt 2.664322 -1.538247
vt 1.538247 12.319650
vt 3.076494 7.526155
vt -3.076494 13.455390
vt 3.076494 13.455390
vt -3.076494 7.526155
vt 1.538247 12.319650
vt 2.664322 1.538247
vt -1.538247 12.319650
vt -5.396453 6.932047
vt -2.306911 12.730130
vt 2.028712 1.371338
vt -5.949806 6.483470
vt -2.599212 9.060119
vt 2.384879 0.754438
vt 2.384880 10.781930
vt 2.384880 6.084672
vt -4.223971 4.408422
vt -6.788657 8.667532
vt 2.110513 8.805304
vt -5.589836 7.072180
vt -2.110513 -2.901078
vt -2.384879 10.781930
vt 4.223971 4.408422
vt -2.384879 6.084672
vt 6.788657 8.667532
vt -2.110513 8.805304
vt 2.110513 -2.901078
vt 5.589836 7.072180
vt -2.384879 6.084672
vt 4.223971 4.408422
vt 6.788657 8.667532
vt -2.384879 10.781930
vt -1.192440 9.473022
vt 4.718447 7.966275
vt -1.192440 -1.310928
vt 2.384879 6.084672
vt -4.223971 4.408422
vt -6.788657 8.667532
vt 2.384879 10.781930
vt 1.192440 9.473022
vt -4.718447 7.966275
vt 1.192440 -1.310928
vt -0.000000 3.076494
vt -1.538247 12.319650
vt 1.538247 12.319650
vt 0.189800 6.490661
vt 2.818798 10.869910
vt -0.189801 6.490661
vt -2.818798 10.869910
vt -3.076494 7.526155
vt 3.076494 13.455390
vt 3.076494 7.526155
vt -3.076494 13.455390
vt -4.718447 7.966275
vt 1.192440 -1.310928
vt 1.192440 9.473022
vt -0.189801 6.490661
vt 2.818798 10.869910
vt -2.818799 10.869910
vt 0.189800 6.490661
vt -0.186991 6.786059
vt 4.835453 3.361231
vt -4.835453 3.361231
vt 0.186991 6.786059
vt -2.599212 9.060119
vt 2.384879 0.754438
vt -5.949806 6.483470
vt 4.718447 7.966275
vt -1.192440 -1.310928
vt -1.192440 9.473022
vt 2.599212 9.060119
vt -2.384879 0.754438
vt 5.949806 6.483470
vt 0.189800 6.490661
vt 2.818798 10.869910
vt -0.189800 6.490661
vt -2.818798 10.869910
vt 0.186991 6.786059
vt -4.835453 3.361231
vt 4.835453 3.361231
vt -0.186991 6.786059
vt -5.949806 6.483470
vt 2.384880 0.754438
vt -2.599212 9.060119
vt -3.628829 4.846611
vt -0.000000 11.263260
vt 3.628829 4.846611
vt -5.396453 6.932047
vt -2.306911 12.730130
vt 2.028712 1.371338
vt 2.957953 12.480220
vt -1.531149 0.882727
vt -2.957953 12.480220
vt 2.306911 12.730130
vt -2.028712 1.371338
vt 5.396453 6.932047
vt -2.957953 12.480220
vt 1.531149 0.882727
vt 2.957953 12.480220
vt 1.785864 1.791964
vt 0.449835 12.945270
vt -5.019156 7.237904
vt 2.387047 8.849008
vt 3.941835 0.270866
vt -2.387047 8.849008
vt -3.941835 0.270866
vt 5.589836 7.072180
vt -2.110513 8.805304
vt 2.110513 -2.901078
vt 4.114053 4.249291
vt 2.758946 10.843120
vt -4.114053 4.249291
vt -2.758946 10.843120
vt 5.949806 6.483470
vt -2.384880 0.754438
vt 2.599212 9.060119
vt 5.019156 7.237904
vt -1.785864 1.791964
vt -0.449835 12.945270
vt 2.758946 10.843120
vt 4.114053 4.249291
vt -2.758946 10.843120
vt -4.114053 4.249291
vt 0.449835 12.945270
vt 1.785864 1.791964
vt -5.019156 7.237904
vt -2.957953 12.480220
vt 2.957953 12.480220
vt -1.531149 0.882726
vt -2.957953 12.480220
vt 1.531149 0.882727
vt 2.957953 12.480220
vt -0.189801 6.490661
vt 0.189801 6.490661
vt -2.818798 10.869910
vt 2.818798 10.869910
vt -0.186991 6.786059
vt 0.186991 6.786059
vt 4.835453 3.361232
vt -4.835453 3.361232
vt -2.599212 9.060119
vt 2.384879 0.754438
vt -5.949806 6.483470
vt 4.718447 7.966275
vt -1.192440 -1.310928
vt -1.192440 9.473022
vt 2.599212 9.060119
vt 5.949806 6.483470
vt -2.384879 0.754438
vt 5.019156 7.237905
vt -1.785864 1.791964
vt -0.449835 12.945270
vt 1.192440 -1.310928
vt 1.192440 9.473022
vt -4.718447 7.966275
vt 2.387047 8.849008
vt -2.387047 8.849008
vt -3.941835 0.270866
vt 3.941835 0.270866
vt -5.589836 7.072180
vt 2.110513 8.805304
vt -2.110513 -2.901078
vt -2.387047 8.849008
vt 3.941835 0.270866
vt -3.941835 0.270866
vt 2.387047 8.849008
vt 5.589836 7.072180
vt -2.110513 8.805304
vt 2.110513 -2.901078
vt 2.387047 8.849008
vt -2.387047 8.849008
vt -3.941835 0.270866
vt 3.941835 0.270866
vt 6.788657 8.667532
vt -2.384880 10.781930
vt -2.384880 6.084672
vt 4.223971 4.408422
vt 2.110513 8.805304
vt -5.589836 7.072180
vt -2.110513 -2.901078
vt 2.384879 10.781930
vt 2.384879 6.084672
vt -4.223971 4.408422
vt -6.788657 8.667532
vt -1.192440 9.473022
vt -1.192440 -1.310928
vt 4.718447 7.966275
vt 1.192440 9.473022
vt -4.718447 7.966275
vt 1.192440 -1.310928
vt 2.438262 2.007043
vt -2.438262 2.007043
vt -1.940581 1.649645
vt -1.120688 2.560053
vt 2.818886 0.667150
vt -0.000000 3.038884
vt 1.807214 1.747688
vt -3.358096 0.944911
vt 3.358096 0.944911
vt 0.753540 3.952393
vt -0.753540 3.952393
vt 2.426862 2.020207
vt -2.426862 2.020207
vt 0.753540 3.952393
vt -0.753540 3.952393
vt -1.656604 2.909625
vt 1.656604 2.909625
vt -2.818886 0.667150
vt -1.807214 1.747688
vt -0.000000 3.038884
vt 1.120688 2.560053
vt 1.940581 1.649645
vt -2.438262 2.007043
vt 2.438262 2.007043
vt 1.656604 2.909625
vt -1.656604 2.909625
vt -0.753540 3.952393
vt 0.753540 3.952393
vt 1.120688 2.560053
vt 0.000000 3.038884
vt -2.818886 0.667150
vt 1.940581 1.649645
vt -1.807214 1.747688
vt -0.753540 3.952393
vt 0.753540 3.952393
vt -2.426862 2.020207
vt 2.426862 2.020207
vt 3.358096 0.944911
vt -3.358096 0.944911
vt 0.000000 3.038884
vt 1.807214 1.747688
vt 2.818886 0.667150
vt -1.120688 2.560053
vt -1.940581 1.649645
vt 0.000000 0.000000
s 0
usemtl greenDark
f 3/9/1 2/5/1 1/1/1
f 2/5/1 3/9/1 4/12/1
f 7/23/2 6/19/2 5/15/2
f 6/19/2 7/23/2 8/26/2
f 10/33/3 5/16/3 9/29/3
f 5/16/3 10/33/3 7/24/3
f 13/42/4 12/39/4 11/36/4
f 12/39/4 13/42/4 14/46/4
f 17/56/5 16/53/5 15/49/5
f 16/53/5 17/56/5 18/60/5
f 19/63/6 13/43/6 11/37/6
f 13/43/6 19/63/6 20/66/6
f 23/76/7 22/73/7 21/69/7
f 22/73/7 23/76/7 24/80/7
f 27/90/8 26/87/8 25/83/8
f 26/87/8 27/90/8 28/94/8
f 10/34/9 8/27/9 7/25/9
f 8/27/9 10/34/9 29/97/9
f 29/97/9 10/34/9 16/54/9
f 29/97/9 16/54/9 18/61/9
f 25/84/10 13/44/10 30/100/10
f 13/44/10 25/84/10 14/47/10
f 14/47/10 25/84/10 26/88/10
f 8/28/11 31/104/11 6/20/11
f 31/104/11 8/28/11 29/98/11
f 33/111/12 32/108/12 2/6/12
f 32/108/12 33/111/12 34/115/12
f 32/108/12 34/115/12 35/119/12
f 37/125/13 1/2/13 36/122/13
f 1/2/13 37/125/13 38/128/13
f 38/128/13 37/125/13 39/132/13
f 41/139/14 40/136/14 39/133/14
f 40/136/14 41/139/14 42/142/14
f 5/17/15 44/148/15 43/145/15
f 44/148/15 5/17/15 6/21/15
f 44/148/16 6/21/16 41/140/16
f 41/140/15 6/21/15 42/143/15
f 42/143/15 6/21/15 45/151/15
f 32/109/17 37/126/17 36/123/17
f 37/126/17 32/109/17 43/146/17
f 37/126/17 43/146/17 44/149/17
f 43/146/17 32/109/17 46/154/17
f 46/154/17 32/109/17 35/120/17
f 32/110/18 1/3/18 2/7/18
f 1/3/18 32/110/18 36/124/18
f 48/161/19 30/101/19 47/157/19
f 30/101/19 48/161/19 25/85/19
f 50/168/20 49/164/20 34/116/20
f 49/164/20 50/168/20 51/171/20
f 31/105/21 53/178/21 52/174/21
f 17/57/22 53/178/22 31/105/22
f 53/178/21 17/57/21 54/181/21
f 16/55/23 9/30/23 15/50/23
f 9/30/23 16/55/23 10/35/23
f 15/51/24 19/64/24 17/58/24
f 19/64/24 15/51/24 55/184/24
f 17/58/25 19/64/25 11/38/25
f 17/58/24 11/38/24 12/40/24
f 17/58/24 12/40/24 54/182/24
f 56/187/26 28/95/26 27/91/26
f 28/95/26 56/187/26 57/191/26
f 28/95/26 57/191/26 58/195/26
f 37/127/27 41/141/27 39/134/27
f 41/141/27 37/127/27 44/150/27
f 59/198/28 56/188/28 23/77/28
f 56/188/28 59/198/28 57/192/28
f 57/192/28 59/198/28 60/201/28
f 61/204/29 57/193/29 60/202/29
f 57/193/29 61/204/29 52/175/29
f 40/137/30 59/199/30 62/207/30
f 59/199/30 40/137/30 45/152/30
f 45/152/30 40/137/30 42/144/30
f 59/199/30 45/152/30 61/205/30
f 59/199/30 61/205/30 60/203/30
f 38/129/31 3/10/31 1/4/31
f 3/10/31 38/129/31 63/210/31
f 29/99/32 17/59/32 31/106/32
f 17/59/32 29/99/32 18/62/32
f 65/217/33 27/92/33 64/214/33
f 27/92/33 65/217/33 56/189/33
f 27/93/34 48/162/34 64/215/34
f 48/162/34 27/93/34 25/86/34
f 62/208/35 23/78/35 21/70/35
f 23/78/35 62/208/35 59/200/35
f 9/31/36 46/155/36 49/165/36
f 5/18/37 46/155/37 9/31/37
f 46/155/36 5/18/36 43/147/36
f 68/228/38 67/224/38 66/221/38
f 67/224/38 68/228/38 33/112/38
f 54/183/39 58/196/39 53/179/39
f 58/196/39 54/183/39 28/96/39
f 28/96/39 54/183/39 26/89/39
f 26/89/39 54/183/39 12/41/39
f 26/89/39 12/41/39 14/48/39
f 69/232/40 68/229/40 66/222/40
f 68/229/40 69/232/40 70/235/40
f 34/117/41 46/156/41 35/121/41
f 46/156/41 34/117/41 49/166/41
f 67/225/42 2/8/42 4/13/42
f 2/8/42 67/225/42 33/113/42
f 70/236/43 71/239/43 68/230/43
f 71/239/43 70/236/43 72/242/43
f 70/237/44 20/67/44 72/243/44
f 20/67/44 70/237/44 30/102/44
f 20/67/44 30/102/44 13/45/44
f 40/138/45 38/130/45 39/135/45
f 38/130/45 40/138/45 21/71/45
f 21/71/45 40/138/45 62/209/45
f 38/131/46 22/74/46 63/211/46
f 22/74/46 38/131/46 21/72/46
f 24/81/47 63/212/47 22/75/47
f 63/212/47 24/81/47 73/246/47
f 73/246/47 24/81/47 74/247/47
f 74/247/47 24/81/47 75/248/47
f 75/248/47 24/81/47 76/249/47
f 76/249/47 24/81/47 65/218/47
f 75/248/47 76/249/47 77/250/47
f 77/250/48 76/249/48 78/251/48
f 76/249/48 65/218/48 79/253/48
f 78/251/47 80/254/47 77/250/47
f 80/254/47 78/251/47 81/256/47
f 82/259/47 75/248/47 77/250/47
f 75/248/47 82/259/47 83/260/47
f 50/169/49 55/185/49 51/172/49
f 55/185/49 50/169/49 71/240/49
f 55/185/49 71/240/49 72/244/49
f 55/185/49 72/244/49 19/65/49
f 19/65/49 72/244/49 20/68/49
f 6/22/50 61/206/50 45/153/50
f 31/107/51 61/206/51 6/22/51
f 61/206/50 31/107/50 52/176/50
f 65/219/52 84/262/52 79/252/52
f 84/262/53 65/219/53 64/216/53
f 84/262/53 64/216/53 85/263/53
f 85/263/53 64/216/53 86/264/53
f 86/264/53 64/216/53 87/265/53
f 87/265/53 64/216/53 88/266/53
f 88/266/53 64/216/53 48/163/53
f 88/266/53 48/163/53 89/268/53
f 89/268/53 48/163/53 47/158/53
f 90/269/53 86/264/53 87/265/53
f 86/264/53 90/269/53 91/272/53
f 86/264/53 81/257/53 85/263/53
f 81/257/53 86/264/53 80/255/53
f 15/52/54 51/173/54 55/186/54
f 9/32/55 51/173/55 15/52/55
f 51/173/54 9/32/54 49/167/54
f 71/241/56 33/114/56 68/231/56
f 33/114/56 71/241/56 34/118/56
f 34/118/56 71/241/56 50/170/56
f 82/258/57 92/273/57 83/261/57
f 92/273/57 82/258/57 93/274/57
f 94/275/57 92/273/57 93/274/57
f 4/14/57 92/273/57 94/275/57
f 4/14/57 95/276/57 92/273/57
f 4/14/57 73/245/57 95/276/57
f 4/14/57 63/213/57 73/245/57
f 63/213/57 4/14/57 3/11/57
f 4/14/57 94/275/57 67/226/57
f 94/275/58 93/274/58 96/277/58
f 97/278/57 96/277/57 93/274/57
f 96/277/57 97/278/57 98/280/57
f 67/226/58 94/275/58 99/283/58
f 53/180/59 57/194/59 52/177/59
f 57/194/59 53/180/59 58/197/59
f 69/233/60 30/103/60 70/238/60
f 30/103/60 69/233/60 47/159/60
f 23/79/61 65/220/61 24/82/61
f 65/220/61 23/79/61 56/190/61
f 100/284/62 98/281/62 97/279/62
f 98/281/62 100/284/62 101/285/62
f 66/223/62 101/285/62 100/284/62
f 66/223/62 102/286/62 101/285/62
f 66/223/62 99/282/62 102/286/62
f 99/282/62 66/223/62 67/227/62
f 66/223/62 100/284/62 103/287/62
f 100/284/62 90/270/62 103/287/62
f 90/270/62 100/284/62 91/271/62
f 66/223/62 103/287/62 104/288/62
f 66/223/62 104/288/62 69/234/62
f 69/234/62 104/288/62 89/267/62
f 69/234/62 89/267/62 47/160/62
f 85/263/53 81/257/53 79/252/53 84/262/53
f 76/249/47 79/253/47 81/257/47 78/251/47
f 73/246/47 74/247/47 75/248/47 83/260/47
f 95/276/57 73/246/57 83/261/57 92/273/57
f 88/266/53 89/268/53 90/269/53 87/265/53
f 104/288/62 103/287/62 90/270/62 89/268/62
f 101/285/62 102/286/62 99/282/62 98/281/62
f 94/275/57 96/277/57 98/281/57 99/283/57
f 100/284/63 97/279/63 105/289/63 91/271/63
f 86/264/64 91/272/64 105/289/64 80/255/64
f 80/255/65 105/289/65 82/259/65 77/250/65
f 82/259/66 105/289/66 97/279/66 93/274/66
