# Blender 3.4.1
# www.blender.org
mtllib broccoliStem.mtl
o broccoli.001
v -0.087585 0.209227 0.000000
v -0.084205 0.204688 -0.014498
v -0.055319 0.216250 -0.015063
v -0.014005 0.192210 -0.115262
v -0.027743 0.222331 -0.027743
v -0.015368 0.205933 -0.080285
v 0.000000 0.195738 -0.120626
v -0.000000 0.233933 -0.027068
v -0.000000 0.209394 -0.087175
v -0.027068 0.233933 0.000000
v -0.059507 0.220690 0.000000
v 0.014005 0.192210 -0.115262
v 0.015368 0.205933 -0.080285
v 0.027743 0.222331 -0.027743
v 0.055319 0.216250 -0.015063
v 0.084205 0.204688 -0.014498
v 0.087585 0.209227 0.000000
v 0.059507 0.220690 0.000000
v 0.027068 0.233933 0.000000
v -0.055319 0.216250 0.015063
v -0.027743 0.222331 0.027743
v -0.014005 0.192210 0.115262
v -0.084205 0.204688 0.014498
v -0.015368 0.205933 0.080285
v -0.000000 0.233933 0.027068
v -0.000000 0.209394 0.087175
v -0.000000 0.195738 0.120626
v 0.027743 0.222331 0.027743
v 0.015368 0.205933 0.080285
v 0.014005 0.192210 0.115262
v 0.055319 0.216250 0.015063
v 0.084205 0.204688 0.014498
v 0.032787 0.135631 -0.019498
v 0.029678 0.189069 -0.017233
v 0.032787 0.135631 0.019498
v 0.040679 0.000000 0.040679
v 0.040679 0.000000 -0.040679
v 0.029678 0.189069 0.017233
v -0.032787 0.135631 0.019498
v -0.029678 0.189069 0.017233
v -0.029678 0.189069 -0.017233
v -0.032787 0.135631 -0.019498
v -0.040679 0.000000 0.040679
v -0.040679 0.000000 -0.040679
v -0.019747 0.137887 -0.032656
v -0.018626 0.180756 -0.030162
v 0.019747 0.137887 -0.032656
v 0.018626 0.180756 -0.030162
v -0.019747 0.137887 0.032656
v 0.019747 0.137887 0.032656
v -0.018626 0.180756 0.030162
v 0.018626 0.180756 0.030162
v 0.000000 0.233933 0.000000
vn 0.0373 0.0445 -0.9983
vn 0.9983 0.0581 -0.0000
vn -0.9983 0.0581 -0.0000
vn -0.0000 0.0581 -0.9983
vn -0.7274 0.6862 -0.0000
vn -0.0373 0.0445 0.9983
vn -0.0000 -0.8355 0.5495
vn 0.8021 -0.5972 -0.0000
vn -0.0373 0.0445 -0.9983
vn -0.8021 -0.5972 -0.0000
vn -0.0000 0.8936 0.4489
vn -0.0000 0.8936 -0.4489
vn -0.0000 0.0581 0.9983
vn -0.0000 -0.8355 -0.5495
vn 0.0373 0.0445 0.9983
vn -0.0000 -1.0000 -0.0000
vn -0.9983 0.0290 -0.0503
vn 0.7274 0.6862 -0.0000
vn 0.9983 0.0290 -0.0503
vn -0.9983 0.0290 0.0503
vn 0.9983 0.0290 0.0503
vn -0.3536 0.8660 -0.3536
vn 0.3536 0.8660 -0.3536
vn -0.3536 0.8660 0.3536
vn 0.3536 0.8660 0.3536
vn -0.3858 0.9226 -0.0000
vn -0.0000 0.9226 -0.3858
vn -0.0000 0.9226 0.3858
vn 0.3858 0.9226 -0.0000
vt 0.000000 8.666318
vt -0.570774 8.443525
vt 3.291523 8.019710
vt 2.154226 8.475365
vt 0.593018 7.687537
vt -4.504383 7.541517
vt 0.551372 7.949426
vt -1.092241 8.674982
vt 1.092241 8.674982
vt -3.126375 8.082014
vt -0.605041 6.463661
vt -0.000000 8.202185
vt 0.000000 9.132508
vt -0.000000 6.767233
vt 0.000000 9.132508
vt -0.000000 7.927820
vt -0.551372 7.949426
vt 4.504383 7.541517
vt 0.605041 6.463661
vt 3.126375 8.082014
vt -1.092241 8.674982
vt 1.092241 8.674982
vt -2.154226 8.475365
vt -0.593018 7.687537
vt -3.291523 8.019710
vt 0.570774 8.443525
vt -0.000000 8.666318
vt 0.000000 7.927820
vt -0.000000 9.132508
vt -0.593018 7.687537
vt -2.154226 8.475365
vt -1.092241 8.674982
vt 1.092241 8.674982
vt 4.504383 7.541517
vt -0.551372 7.949426
vt 0.570774 8.443525
vt -3.291523 8.019710
vt 3.126375 8.082014
vt 0.605041 6.463661
vt -0.000000 9.132508
vt 0.000000 6.767233
vt -0.000000 8.202185
vt -1.092241 8.674982
vt 1.092241 8.674982
vt -0.605041 6.463661
vt -3.126375 8.082014
vt 0.551372 7.949426
vt -4.504383 7.541517
vt 0.593018 7.687537
vt 2.154226 8.475365
vt -0.570774 8.443525
vt 3.291523 8.019710
vt -1.261249 5.298214
vt 0.767658 5.255790
vt 0.767658 5.053867
vt -1.142260 7.404188
vt 0.678465 7.363236
vt -0.678465 6.216417
vt -0.767658 5.255790
vt -0.767658 5.053867
vt 1.261249 5.298214
vt -1.601518 -0.093022
vt 1.601518 -0.093022
vt -1.601518 -1.601518
vt 1.601518 -0.093022
vt -1.601518 -0.093022
vt -1.601518 1.601518
vt -0.678465 7.363236
vt 0.678465 6.216417
vt 1.142260 7.404188
vt 0.767658 5.255790
vt -1.261249 5.298214
vt 0.767658 5.053867
vt 0.678465 7.363236
vt -1.142260 7.404188
vt -0.678465 6.216417
vt -0.678465 7.363236
vt 1.142260 7.404188
vt 0.678465 6.216417
vt -0.767658 5.255790
vt 1.261249 5.298214
vt -0.767658 5.053867
vt 1.601518 -0.093022
vt -1.601518 -0.093022
vt 1.601518 -1.601518
vt -1.601518 -0.093022
vt 1.601518 -0.093022
vt 1.601518 1.601518
vt 0.777458 5.344768
vt 0.777458 4.056998
vt -1.244919 5.401890
vt 0.733307 7.035408
vt -0.733307 4.255355
vt -1.149066 7.090389
vt -0.777458 5.344768
vt -0.777458 4.056998
vt 1.244919 5.401890
vt -0.733307 7.035408
vt 0.733307 4.255355
vt 1.149066 7.090389
vt -0.777458 4.056998
vt -0.777458 5.344768
vt 1.244919 5.401890
vt 0.777458 4.056998
vt 0.777458 5.344768
vt -1.244919 5.401890
vt 0.733307 4.255355
vt -0.733307 7.035408
vt 1.149066 7.090389
vt -0.733307 4.255355
vt 0.733307 7.035408
vt -1.149066 7.090389
vt 0.000000 0.000000
s 0
usemtl green.001
f 34/56/1 16/25/1 33/53/1
f 16/25/1 34/56/1 15/23/1
f 36/62/2 35/59/2 28/43/2
f 35/59/2 36/62/2 37/65/2
f 35/59/2 37/65/2 33/54/2
f 33/54/2 37/65/2 14/22/2
f 38/68/2 28/43/2 35/59/2
f 28/43/2 38/68/2 19/29/2
f 19/29/2 38/68/2 34/57/2
f 19/29/2 34/57/2 14/22/2
f 14/22/2 34/57/2 33/54/2
f 21/33/3 40/74/3 39/71/3
f 40/74/3 21/33/3 10/15/3
f 40/74/3 10/15/3 41/77/3
f 41/77/3 10/15/3 5/8/3
f 41/77/3 5/8/3 42/80/3
f 39/71/3 43/83/3 21/33/3
f 43/83/3 39/71/3 44/86/3
f 44/86/3 39/71/3 42/80/3
f 44/86/3 42/80/3 5/8/3
f 44/87/4 45/89/4 37/66/4
f 45/89/4 44/87/4 5/9/4
f 45/89/4 5/9/4 46/92/4
f 46/92/4 5/9/4 14/21/4
f 14/21/4 5/9/4 8/13/4
f 37/66/4 47/95/4 14/21/4
f 47/95/4 37/66/4 45/89/4
f 14/21/4 47/95/4 48/98/4
f 14/21/4 48/98/4 46/92/4
f 31/49/5 34/58/5 38/69/5
f 34/58/5 31/49/5 18/28/5
f 34/58/5 18/28/5 15/24/5
f 40/75/6 23/37/6 39/72/6
f 23/37/6 40/75/6 20/31/6
f 50/104/7 22/35/7 49/101/7
f 22/35/7 50/104/7 27/42/7
f 27/42/7 50/104/7 30/47/7
f 33/55/8 32/51/8 35/60/8
f 32/51/8 33/55/8 17/27/8
f 17/27/8 33/55/8 16/26/8
f 2/3/9 41/78/9 42/81/9
f 41/78/9 2/3/9 3/4/9
f 23/36/10 42/82/10 39/73/10
f 42/82/10 23/36/10 1/1/10
f 42/82/10 1/1/10 2/2/10
f 48/99/11 6/11/11 46/93/11
f 6/11/11 48/99/11 9/14/11
f 9/14/11 48/99/11 13/19/11
f 24/39/12 52/110/12 51/107/12
f 52/110/12 24/39/12 26/41/12
f 52/110/12 26/41/12 29/45/12
f 36/63/13 50/105/13 43/84/13
f 50/105/13 36/63/13 28/44/13
f 50/105/13 28/44/13 52/111/13
f 52/111/13 28/44/13 51/108/13
f 49/102/13 43/84/13 50/105/13
f 43/84/13 49/102/13 21/32/13
f 21/32/13 49/102/13 51/108/13
f 21/32/13 51/108/13 28/44/13
f 21/32/13 28/44/13 25/40/13
f 4/7/14 47/96/14 45/90/14
f 47/96/14 4/7/14 7/12/14
f 47/96/14 7/12/14 12/17/14
f 32/52/15 38/70/15 35/61/15
f 38/70/15 32/52/15 31/50/15
f 37/67/16 43/85/16 44/88/16
f 43/85/16 37/67/16 36/64/16
f 6/10/17 45/91/17 46/94/17
f 45/91/17 6/10/17 4/6/17
f 41/79/18 20/30/18 40/76/18
f 20/30/18 41/79/18 11/16/18
f 11/16/18 41/79/18 3/5/18
f 47/97/19 13/20/19 48/100/19
f 13/20/19 47/97/19 12/18/19
f 24/38/20 49/103/20 22/34/20
f 49/103/20 24/38/20 51/109/20
f 50/106/21 29/46/21 30/48/21
f 29/46/21 50/106/21 52/112/21
f 6/11/22 9/14/22 7/12/22 4/7/22
f 13/20/23 12/18/23 7/12/23 9/14/23
f 1/1/22 11/16/22 3/5/22 2/3/22
f 23/37/24 20/31/24 11/16/24 1/1/24
f 24/39/24 22/35/24 27/42/24 26/41/24
f 29/46/25 26/41/25 27/42/25 30/48/25
f 16/26/23 15/24/23 18/28/23 17/27/23
f 32/52/25 17/27/25 18/28/25 31/50/25
f 8/13/26 5/9/26 53/113/26
f 10/15/27 53/113/27 5/9/27
f 21/33/28 53/113/28 10/15/28
f 25/40/26 53/113/26 21/33/26
f 28/44/29 53/113/29 25/40/29
f 19/29/28 53/113/28 28/44/28
f 19/29/27 14/22/27 53/113/27
f 14/22/29 8/13/29 53/113/29
