# Blender v2.78 (sub 0) OBJ File: ''
# www.blender.org
mtllib broccoliStem.mtl
o broccoli.001
v 0.014839 0.004169 -0.008616
v 0.042103 0.011978 -0.007249
v 0.016393 -0.022550 -0.009749
v 0.027660 0.017759 -0.007531
v 0.020340 -0.090366 0.020340
v 0.016393 -0.022550 0.009749
v 0.013872 0.020800 0.013872
v 0.020340 -0.090366 -0.020340
v 0.013872 0.020800 -0.013872
v 0.014839 0.004169 0.008616
v 0.013534 0.026601 0.000000
v -0.013871 0.020800 0.013872
v -0.014839 0.004169 0.008616
v -0.016393 -0.022550 0.009749
v -0.013534 0.026601 0.000000
v -0.014839 0.004169 -0.008616
v -0.013871 0.020800 -0.013872
v -0.016393 -0.022550 -0.009749
v -0.020340 -0.090366 0.020340
v -0.020340 -0.090366 -0.020340
v -0.009873 -0.021422 -0.016328
v -0.009313 0.000012 -0.015081
v 0.000000 0.026601 -0.013534
v 0.009874 -0.021422 -0.016328
v 0.009313 0.000012 -0.015081
v 0.027660 0.017759 0.007531
v 0.029754 0.019979 0.000000
v -0.042103 0.011978 0.007249
v -0.027660 0.017759 0.007531
v 0.009874 -0.021422 0.016328
v -0.007002 0.005739 0.057631
v -0.009873 -0.021422 0.016328
v 0.000000 0.007503 0.060313
v 0.007002 0.005739 0.057631
v 0.042103 0.011978 0.007249
v 0.043793 0.014248 0.000000
v -0.042103 0.011978 -0.007249
v -0.027660 0.017759 -0.007531
v -0.043793 0.014248 0.000000
v -0.007684 0.012601 -0.040142
v 0.000000 0.014331 -0.043587
v 0.007684 0.012601 -0.040142
v -0.007684 0.012601 0.040142
v 0.009313 0.000012 0.015081
v -0.009313 0.000012 0.015081
v 0.000000 0.014331 0.043587
v 0.007684 0.012601 0.040142
v 0.000000 0.026601 0.013534
v -0.007002 0.005739 -0.057631
v 0.000000 0.007503 -0.060313
v 0.007002 0.005739 -0.057631
v -0.029754 0.019979 0.000000
v 0.000000 0.026601 0.000000
vt -1.1423 7.4042
vt -3.2915 8.0197
vt -1.2612 5.2982
vt -2.1542 8.4754
vt -1.6015 -0.0930
vt -0.7677 5.2558
vt -1.0922 8.6750
vt 1.6015 -0.0930
vt 0.7677 5.2558
vt 1.0922 8.6750
vt -0.6785 7.3632
vt -0.0000 9.1325
vt 0.6785 7.3632
vt 1.0922 8.6750
vt 0.6785 7.3632
vt 0.7677 5.2558
vt 0.0000 9.1325
vt -0.6785 7.3632
vt -1.0922 8.6750
vt -0.7677 5.2558
vt 1.6015 -0.0930
vt -1.6015 -0.0930
vt 1.6015 -0.0930
vt 0.7775 5.3448
vt -1.6015 -0.0930
vt 1.0922 8.6750
vt 0.7333 7.0354
vt -1.0922 8.6750
vt 0.0000 9.1325
vt -0.7775 5.3448
vt -0.7333 7.0354
vt 0.5930 7.6875
vt -0.6785 6.2164
vt 0.6785 6.2164
vt 0.0000 7.9278
vt -0.5930 7.6875
vt -1.1423 7.4042
vt -3.2915 8.0197
vt -1.2612 5.2982
vt -2.1542 8.4754
vt 0.7775 4.0570
vt -0.5514 7.9494
vt -0.7775 4.0570
vt -0.0000 8.2022
vt 0.5514 7.9494
vt 0.7677 5.0539
vt -0.5708 8.4435
vt -0.7677 5.0539
vt -0.0000 8.6663
vt 0.5708 8.4435
vt 3.2915 8.0197
vt 1.1423 7.4042
vt 1.2612 5.2982
vt 2.1542 8.4754
vt 0.5708 8.4435
vt -0.7677 5.0539
vt 0.7677 5.0539
vt 0.0000 8.6663
vt -0.5708 8.4435
vt 0.7333 4.2554
vt -0.6050 6.4637
vt -0.7333 4.2554
vt -0.0000 6.7672
vt 0.6050 6.4637
vt 0.6050 6.4637
vt -0.7333 4.2554
vt 0.7333 4.2554
vt 0.0000 6.7672
vt -0.6050 6.4637
vt 1.6015 -0.0930
vt 0.7775 5.3448
vt -1.6015 -0.0930
vt 1.0922 8.6750
vt 0.7333 7.0354
vt -0.7333 7.0354
vt -0.7775 5.3448
vt -1.0922 8.6750
vt -0.0000 9.1325
vt 0.5514 7.9494
vt -0.7775 4.0570
vt 0.7775 4.0570
vt -0.0000 8.2022
vt -0.5514 7.9494
vt 3.2915 8.0197
vt 1.1423 7.4042
vt 1.2612 5.2982
vt 2.1542 8.4754
vt -1.6015 1.6015
vt 1.6015 -1.6015
vt 1.6015 1.6015
vt -1.6015 -1.6015
vt -3.1264 8.0820
vt -1.2449 5.4019
vt -1.1491 7.0904
vt -4.5044 7.5415
vt 0.6785 6.2164
vt -0.5930 7.6875
vt -0.6785 6.2164
vt -0.0000 7.9278
vt 0.5930 7.6875
vt 1.2449 5.4019
vt 3.1264 8.0820
vt 1.1491 7.0904
vt 4.5044 7.5415
vt 3.1264 8.0820
vt 1.2449 5.4019
vt 4.5044 7.5415
vt 1.1491 7.0904
vt -1.2449 5.4019
vt -3.1264 8.0820
vt -4.5044 7.5415
vt -1.1491 7.0904
vt 0.0000 0.0000
vn 0.0373 0.0445 -0.9983
vn 0.9983 0.0581 -0.0000
vn -0.9983 0.0581 -0.0000
vn 0.0000 0.0581 -0.9983
vn -0.7274 0.6862 0.0000
vn -0.0373 0.0445 0.9983
vn -0.0000 -0.8355 0.5495
vn 0.8021 -0.5972 -0.0000
vn -0.0373 0.0445 -0.9983
vn -0.8021 -0.5972 0.0000
vn 0.0000 0.8936 0.4489
vn -0.0000 0.8936 -0.4489
vn -0.0000 0.0581 0.9983
vn 0.0000 -0.8355 -0.5495
vn 0.0373 0.0445 0.9983
vn 0.0000 -1.0000 0.0000
vn -0.9983 0.0290 -0.0503
vn 0.7274 0.6862 -0.0000
vn 0.9983 0.0290 -0.0503
vn -0.9983 0.0290 0.0503
vn 0.9983 0.0290 0.0503
vn -0.3536 0.8660 -0.3536
vn 0.3536 0.8660 -0.3536
vn -0.3536 0.8660 0.3536
vn 0.3536 0.8660 0.3536
vn -0.3858 0.9226 0.0000
vn 0.0000 0.9226 -0.3858
vn 0.0000 0.9226 0.3858
vn 0.3858 0.9226 0.0000
usemtl green.001
s 1
f 1/1/1 2/2/1 3/3/1
f 2/2/1 1/1/1 4/4/1
f 5/5/2 6/6/2 7/7/2
f 6/6/2 5/5/2 8/8/2
f 6/6/2 8/8/2 3/9/2
f 3/9/2 8/8/2 9/10/2
f 10/11/2 7/7/2 6/6/2
f 7/7/2 10/11/2 11/12/2
f 11/12/2 10/11/2 1/13/2
f 11/12/2 1/13/2 9/10/2
f 9/10/2 1/13/2 3/9/2
f 12/14/3 13/15/3 14/16/3
f 13/15/3 12/14/3 15/17/3
f 13/15/3 15/17/3 16/18/3
f 16/18/3 15/17/3 17/19/3
f 16/18/3 17/19/3 18/20/3
f 14/16/3 19/21/3 12/14/3
f 19/21/3 14/16/3 20/22/3
f 20/22/3 14/16/3 18/20/3
f 20/22/3 18/20/3 17/19/3
f 20/23/4 21/24/4 8/25/4
f 21/24/4 20/23/4 17/26/4
f 21/24/4 17/26/4 22/27/4
f 22/27/4 17/26/4 9/28/4
f 9/28/4 17/26/4 23/29/4
f 8/25/4 24/30/4 9/28/4
f 24/30/4 8/25/4 21/24/4
f 9/28/4 24/30/4 25/31/4
f 9/28/4 25/31/4 22/27/4
f 26/32/5 1/33/5 10/34/5
f 1/33/5 26/32/5 27/35/5
f 1/33/5 27/35/5 4/36/5
f 13/37/6 28/38/6 14/39/6
f 28/38/6 13/37/6 29/40/6
f 30/41/7 31/42/7 32/43/7
f 31/42/7 30/41/7 33/44/7
f 33/44/7 30/41/7 34/45/7
f 3/46/8 35/47/8 6/48/8
f 35/47/8 3/46/8 36/49/8
f 36/49/8 3/46/8 2/50/8
f 37/51/9 16/52/9 18/53/9
f 16/52/9 37/51/9 38/54/9
f 28/55/10 18/56/10 14/57/10
f 18/56/10 28/55/10 39/58/10
f 18/56/10 39/58/10 37/59/10
f 25/60/11 40/61/11 22/62/11
f 40/61/11 25/60/11 41/63/11
f 41/63/11 25/60/11 42/64/11
f 43/65/12 44/66/12 45/67/12
f 44/66/12 43/65/12 46/68/12
f 44/66/12 46/68/12 47/69/12
f 5/70/13 30/71/13 19/72/13
f 30/71/13 5/70/13 7/73/13
f 30/71/13 7/73/13 44/74/13
f 44/74/13 7/73/13 45/75/13
f 32/76/13 19/72/13 30/71/13
f 19/72/13 32/76/13 12/77/13
f 12/77/13 32/76/13 45/75/13
f 12/77/13 45/75/13 7/73/13
f 12/77/13 7/73/13 48/78/13
f 49/79/14 24/80/14 21/81/14
f 24/80/14 49/79/14 50/82/14
f 24/80/14 50/82/14 51/83/14
f 35/84/15 10/85/15 6/86/15
f 10/85/15 35/84/15 26/87/15
f 8/88/16 19/89/16 20/90/16
f 19/89/16 8/88/16 5/91/16
f 40/92/17 21/93/17 22/94/17
f 21/93/17 40/92/17 49/95/17
f 16/96/18 29/97/18 13/98/18
f 29/97/18 16/96/18 52/99/18
f 52/99/18 16/96/18 38/100/18
f 24/101/19 42/102/19 25/103/19
f 42/102/19 24/101/19 51/104/19
f 43/105/20 32/106/20 31/107/20
f 32/106/20 43/105/20 45/108/20
f 30/109/21 47/110/21 34/111/21
f 47/110/21 30/109/21 44/112/21
f 40/61/22 41/63/22 50/82/22 49/79/22
f 42/102/23 51/104/23 50/82/23 41/63/23
f 39/58/22 52/99/22 38/100/22 37/51/22
f 28/38/24 29/40/24 52/99/24 39/58/24
f 43/65/24 31/42/24 33/44/24 46/68/24
f 47/110/25 46/68/25 33/44/25 34/111/25
f 2/50/23 4/36/23 27/35/23 36/49/23
f 35/84/25 36/49/25 27/35/25 26/87/25
f 23/29/26 17/26/26 53/113/26
f 15/17/27 53/113/27 17/26/27
f 12/14/28 53/113/28 15/17/28
f 48/78/26 53/113/26 12/14/26
f 7/73/29 53/113/29 48/78/29
f 11/12/28 53/113/28 7/73/28
f 11/12/27 9/10/27 53/113/27
f 9/10/29 23/29/29 53/113/29
