# Blender v2.78 (sub 0) OBJ File: ''
# www.blender.org
mtllib headCollider.mtl
o broccoli.003
v -0.079020 -0.046969 0.041115
v -0.050961 -0.028884 0.093795
v -0.093795 -0.028884 0.050961
v -0.041115 -0.046969 0.079020
v -0.033837 0.090418 0.019535
v -0.067674 0.039811 -0.039072
v -0.067674 0.039811 0.039072
v -0.033837 0.090418 -0.019536
v -0.000000 0.090418 0.039072
v -0.000000 0.039811 0.078143
v 0.067674 0.039811 -0.039072
v 0.033837 0.090418 0.019535
v 0.067674 0.039811 0.039072
v 0.033837 0.090418 -0.019536
v -0.050961 -0.028884 -0.093795
v -0.079020 -0.046969 -0.041115
v -0.093795 -0.028884 -0.050961
v -0.041115 -0.046969 -0.079020
v 0.050961 -0.028884 -0.093795
v 0.079085 0.013774 -0.057668
v 0.093795 -0.028884 -0.050961
v 0.057668 0.013774 -0.079085
v -0.000000 0.090418 -0.039072
v -0.000000 0.039811 -0.078143
v 0.057668 0.013774 0.079085
v -0.079085 0.013774 0.057668
v -0.079085 0.013774 -0.057668
v 0.079085 0.013774 0.057668
v -0.057668 0.013774 0.079085
v -0.000000 -0.028884 0.093795
v 0.050961 -0.028884 0.093795
v -0.000000 0.005463 0.085969
v -0.000000 0.005463 -0.085969
v -0.057668 0.013774 -0.079085
v 0.079020 -0.046969 -0.041115
v 0.041115 -0.046969 -0.079020
v 0.079020 -0.046969 0.041115
v 0.041115 -0.046969 0.079020
v 0.093795 -0.028884 0.050961
v -0.000000 -0.028884 -0.093795
vt -2.1105 8.8053
vt 2.3849 10.7819
vt -2.3849 10.7819
vt 2.1105 8.8053
vt 1.5382 12.3196
vt -3.0765 7.5262
vt 3.0765 7.5262
vt -1.5382 12.3196
vt 1.5382 12.3196
vt -3.0765 7.5262
vt 3.0765 7.5262
vt -1.5382 12.3196
vt 3.0765 7.5262
vt -1.5382 12.3196
vt -3.0765 7.5262
vt 1.5382 12.3196
vt -2.3849 10.7819
vt 2.1105 8.8053
vt 2.3849 10.7819
vt -2.1105 8.8053
vt 2.3849 6.0847
vt -1.1924 9.4730
vt -2.3849 6.0847
vt 1.1924 9.4730
vt -0.0000 -3.0765
vt -2.6643 1.5382
vt -2.6643 -1.5382
vt -0.0000 3.0765
vt 2.6643 -1.5382
vt 2.6643 1.5382
vt 1.5382 12.3196
vt -3.0765 7.5262
vt 3.0765 7.5262
vt -1.5382 12.3196
vt 3.0765 7.5262
vt -3.0765 7.5262
vt -1.1924 9.4730
vt 0.0000 0.0000
vt 0.0000 0.0000
vt 0.0000 0.0000
vt 0.0000 0.0000
vt 1.1924 9.4730
vt 1.1924 9.4730
vt -2.3849 6.0847
vt 2.3849 6.0847
vt -1.1924 9.4730
vt -0.0000 10.7819
vt -2.3849 10.7819
vt 0.0000 0.0000
vt 2.3849 10.7819
vt 0.0000 0.0000
vt 1.5382 12.3196
vt -1.5382 12.3196
vt -1.1924 9.4730
vt -2.3849 6.0847
vt 1.5382 12.3196
vt -3.0765 7.5262
vt 3.0765 7.5262
vt -1.5382 12.3196
vt -2.1105 8.8053
vt 2.1105 8.8053
vt -2.3849 10.7819
vt 1.1924 9.4730
vt 2.3849 6.0847
vt 2.1105 8.8053
vt -2.1105 8.8053
vt 2.3849 10.7819
vt 2.3849 6.0847
vt -2.3849 6.0847
vt 0.0000 0.0000
vt 0.0000 0.0000
vt 0.0000 0.0000
vt 0.0000 0.0000
vt 0.0000 0.0000
vt -5.5898 7.0722
vt -5.5898 7.0722
vt 6.7887 8.6675
vt -6.7887 8.6675
vt 5.5898 7.0722
vt 0.0000 10.7819
vt -6.7887 8.6675
vt 0.0000 8.4333
vn -0.5094 -0.6936 0.5094
vn -0.8313 0.5558 0.0000
vn -0.4157 0.5558 0.7199
vn 0.8313 0.5558 0.0000
vn -0.5094 -0.6936 -0.5094
vn 0.7010 0.1315 -0.7010
vn 0.0000 1.0000 0.0000
vn -0.4157 0.5558 -0.7199
vn -0.4156 0.5558 -0.7199
vn 0.3299 0.7514 0.5714
vn -0.9454 0.3260 0.0000
vn 0.5481 0.6317 0.5481
vn -0.7010 0.1315 0.7010
vn 0.0000 0.2222 0.9750
vn 0.0675 0.3158 -0.9464
vn 0.4157 0.5558 0.7199
vn 0.4156 0.5558 0.7199
vn -0.0675 0.3158 -0.9464
vn -0.9159 0.4014 0.0000
vn -0.3299 0.7514 -0.5714
vn 0.4157 0.5558 -0.7199
vn 0.5094 -0.6936 -0.5094
vn -0.7010 0.1315 -0.7010
vn -0.5481 0.6317 0.5481
vn 0.5094 -0.6936 0.5094
vn 0.7010 0.1315 0.7010
vn -0.9454 -0.3260 0.0000
vn 0.9159 0.4014 0.0000
vn -0.5481 0.6317 -0.5481
vn -0.3299 0.7514 0.5714
vn 0.0000 -1.0000 -0.0000
vn 0.0000 -0.6327 0.7744
vn -0.7744 -0.6327 0.0000
vn 0.0000 -0.6327 -0.7744
vn -0.7744 0.6327 0.0000
vn 0.5481 0.6317 -0.5481
vn 0.3299 0.7514 -0.5714
vn 0.0675 0.3158 0.9464
vn -0.0675 0.3158 0.9464
vn -0.0841 0.2214 0.9716
vn 0.0841 0.2214 0.9716
vn 0.0000 0.2222 -0.9750
vn -0.0841 0.2214 -0.9716
vn 0.0841 0.2214 -0.9716
usemtl greenDark.002
s 1
f 1/1/1 2/2/1 3/3/1
f 2/2/1 1/1/1 4/4/1
f 5/5/2 6/6/2 7/7/2
f 6/6/2 5/5/2 8/8/2
f 9/9/3 7/10/3 10/11/3
f 7/10/3 9/9/3 5/12/3
f 11/13/4 12/14/4 13/15/4
f 12/14/4 11/13/4 14/16/4
f 15/17/5 16/18/5 17/19/5
f 16/18/5 15/17/5 18/20/5
f 19/21/6 20/22/6 21/23/6
f 20/22/6 19/21/6 22/24/6
f 9/25/7 8/26/7 5/27/7
f 8/26/7 9/25/7 23/28/7
f 23/28/7 9/25/7 12/29/7
f 23/28/7 12/29/7 14/30/7
f 8/31/8 24/32/8 6/33/9
f 24/32/8 8/31/8 23/34/8
f 13/35/10 10/36/10 25/37/10
f 17/38/11 3/39/11 26/40/11 27/41/11
f 25/37/12 28/42/12 13/15/12
f 29/43/13 3/44/13 2/45/13
f 3/44/13 29/43/13 26/46/13
f 30/47/14 31/48/14 32/49/14
f 22/24/15 19/50/15 33/51/15
f 12/52/16 10/36/16 13/35/17
f 10/36/16 12/52/16 9/53/16
f 34/54/18 33/51/18 15/55/18
f 6/6/19 27/41/19 26/40/19 7/7/19
f 6/6/20 24/32/20 34/54/20
f 23/56/21 11/57/21 24/58/21
f 11/57/21 23/56/21 14/59/21
f 19/50/22 35/60/22 36/61/22
f 35/60/22 19/50/22 21/62/22
f 27/63/23 15/55/23 17/64/23
f 15/55/23 27/63/23 34/54/23
f 26/46/24 29/43/24 7/10/24
f 37/65/25 31/48/25 38/66/25
f 31/48/25 37/65/25 39/67/25
f 39/68/26 25/37/26 31/69/26
f 25/37/26 39/68/26 28/42/26
f 21/70/27 39/71/27 28/72/27 20/73/27
f 13/15/28 28/72/28 20/73/28 11/13/28
f 32/49/14 2/2/14 30/47/14
f 6/6/29 34/54/29 27/41/29
f 10/74/30 7/10/30 29/43/30
f 18/20/31 36/61/31 35/60/31 37/75/31 38/66/31 4/4/31 1/1/31 16/76/31
f 2/2/32 4/4/32 38/66/32 31/48/32 30/47/32
f 3/77/33 17/78/33 16/76/33 1/79/33
f 18/20/34 15/17/34 40/80/34 19/50/34 36/61/34
f 39/81/35 21/62/35 35/60/35 37/75/35
f 20/73/36 22/24/36 11/13/36
f 24/58/37 11/57/37 22/24/37
f 31/48/38 25/37/38 32/49/38
f 29/43/39 2/2/39 32/49/39
f 10/74/40 29/43/40 32/49/40
f 25/37/41 10/74/41 32/49/41
f 15/55/42 33/51/42 40/82/42
f 33/51/42 19/50/42 40/82/42
f 34/54/43 24/32/43 33/51/43
f 22/24/44 33/51/44 24/32/44
l 26 2
