# Blender 3.4.1
# www.blender.org
mtllib headCollider.mtl
o broccoli
v -0.187590 -0.063716 0.101923
v -0.101923 -0.063716 0.187590
v -0.158040 -0.099885 0.082229
v -0.082229 -0.099885 0.158040
v -0.135348 0.073674 0.078143
v -0.135348 0.073674 -0.078143
v -0.067674 0.174889 0.039071
v -0.067674 0.174889 -0.039071
v 0.000000 0.073674 0.156286
v 0.000000 0.174889 0.078143
v 0.135348 0.073674 0.078143
v 0.067674 0.174889 0.039071
v 0.135348 0.073674 -0.078143
v 0.067674 0.174889 -0.039071
v -0.187590 -0.063716 -0.101923
v -0.158040 -0.099885 -0.082229
v -0.101923 -0.063716 -0.187590
v -0.082229 -0.099885 -0.158040
v 0.187590 -0.063716 -0.101923
v 0.158170 0.021601 -0.115336
v 0.101923 -0.063716 -0.187590
v 0.115336 0.021601 -0.158170
v 0.000000 0.174889 -0.078143
v 0.000000 0.073674 -0.156286
v -0.115336 0.021601 0.158170
v -0.158170 0.021601 0.115336
v 0.158040 -0.099885 -0.082229
v -0.115336 0.021601 -0.158170
v 0.000000 0.004979 0.171938
v 0.000000 -0.063716 0.187590
v -0.158170 0.021601 -0.115336
v 0.082229 -0.099885 -0.158040
v 0.082229 -0.099885 0.158040
v 0.101923 -0.063716 0.187590
v 0.158040 -0.099885 0.082229
v 0.187590 -0.063716 0.101923
v 0.115336 0.021601 0.158170
v 0.158170 0.021601 0.115336
v 0.000000 -0.063716 -0.187590
v 0.000000 0.004979 -0.171938
vn -0.5094 -0.6936 0.5094
vn -0.8313 0.5558 -0.0000
vn -0.4157 0.5558 0.7199
vn 0.8313 0.5558 -0.0000
vn -0.5094 -0.6936 -0.5094
vn 0.7010 0.1315 -0.7010
vn -0.0000 1.0000 -0.0000
vn -0.4156 0.5558 -0.7199
vn -0.4157 0.5558 -0.7199
vn 0.3299 0.7514 0.5714
vn -0.9454 0.3260 -0.0000
vn 0.5481 0.6317 0.5481
vn -0.7010 0.1315 0.7010
vn -0.0000 0.2222 0.9750
vn 0.0675 0.3158 -0.9464
vn 0.4156 0.5558 0.7199
vn 0.4157 0.5558 0.7199
vn -0.0675 0.3158 -0.9464
vn -0.9159 0.4014 -0.0000
vn -0.3299 0.7514 -0.5714
vn 0.4157 0.5558 -0.7199
vn 0.5094 -0.6936 -0.5094
vn -0.7010 0.1315 -0.7010
vn -0.5481 0.6317 0.5481
vn 0.5094 -0.6936 0.5094
vn 0.7010 0.1315 0.7010
vn -0.9454 -0.3260 -0.0000
vn 0.9159 0.4014 -0.0000
vn -0.5481 0.6317 -0.5481
vn -0.3299 0.7514 0.5714
vn -0.0000 -1.0000 -0.0000
vn -0.0000 -0.6327 0.7744
vn -0.7744 -0.6327 -0.0000
vn -0.0000 -0.6327 -0.7744
vn -0.7744 0.6327 -0.0000
vn 0.5481 0.6317 -0.5481
vn 0.3299 0.7514 -0.5714
vn 0.0675 0.3158 0.9464
vn -0.0675 0.3158 0.9464
vn -0.0841 0.2214 0.9716
vn 0.0841 0.2214 0.9716
vn -0.0000 0.2222 -0.9750
vn -0.0841 0.2214 -0.9716
vn 0.0841 0.2214 -0.9716
vt -2.384879 10.781930
vt 0.000000 0.000000
vt -2.384879 6.084672
vt 6.788657 8.667532
vt 2.384879 6.084672
vt 2.384879 10.781930
vt -2.110513 8.805304
vt 5.589836 7.072180
vt 2.110513 8.805304
vt 3.076494 7.526155
vt -3.076494 7.526155
vt 3.076494 7.526155
vt -3.076494 7.526155
vt 1.538247 12.319650
vt -1.538247 12.319650
vt -2.664322 -1.538247
vt -1.538247 12.319650
vt -2.664322 1.538247
vt 1.538247 12.319650
vt 3.076494 7.526155
vt -3.076494 7.526155
vt 0.000000 0.000000
vt 1.538247 12.319650
vt -0.000000 -3.076494
vt -1.538247 12.319650
vt 3.076494 7.526155
vt -3.076494 7.526155
vt -1.538247 12.319650
vt 2.664322 -1.538247
vt 1.538247 12.319650
vt 3.076494 7.526155
vt -3.076494 7.526155
vt 1.538247 12.319650
vt 2.664322 1.538247
vt -1.538247 12.319650
vt 2.384880 10.781930
vt 0.000000 0.000000
vt 2.384880 6.084672
vt -6.788657 8.667532
vt 2.110513 8.805304
vt -5.589836 7.072180
vt -2.384879 10.781930
vt -2.384879 6.084672
vt -2.110513 8.805304
vt -2.384879 6.084672
vt 0.000000 0.000000
vt -2.384879 10.781930
vt -1.192440 9.473022
vt 0.000000 0.000000
vt 2.384879 6.084672
vt 2.384879 10.781930
vt 1.192440 9.473022
vt -0.000000 3.076494
vt -1.538247 12.319650
vt 1.538247 12.319650
vt 3.076494 7.526155
vt -3.076494 7.526155
vt 1.192440 9.473022
vt 0.000000 0.000000
vt -1.192440 9.473022
vt -2.110513 8.805304
vt -1.192440 9.473022
vt 0.000000 0.000000
vt -0.000000 10.781930
vt 1.192440 9.473022
vt 0.000000 0.000000
vt 2.110513 8.805304
vt -2.110513 8.805304
vt -2.384880 6.084672
vt -2.384880 10.781930
vt 2.110513 8.805304
vt -5.589836 7.072180
vt 2.384879 10.781930
vt 2.384879 6.084672
vt 0.000000 0.000000
vt -6.788657 8.667532
vt -1.192440 9.473022
vt 1.192440 9.473022
vt 0.000000 0.000000
vt 0.000000 10.781930
vt 0.000000 8.433301
vt 0.000000 0.000000
s 0
usemtl greenDark.002
f 3/7/1 2/6/1 1/1/1
f 2/6/1 3/7/1 4/9/1
f 7/14/2 6/13/2 5/10/2
f 6/13/2 7/14/2 8/17/2
f 10/23/3 5/11/3 9/20/3
f 5/11/3 10/23/3 7/15/3
f 13/31/4 12/28/4 11/27/4
f 12/28/4 13/31/4 14/33/4
f 17/42/5 16/40/5 15/36/5
f 16/40/5 17/42/5 18/44/5
f 21/50/6 20/48/6 19/45/6
f 20/48/6 21/50/6 22/52/6
f 10/24/7 8/18/7 7/16/7
f 8/18/7 10/24/7 23/53/7
f 23/53/7 10/24/7 12/29/7
f 23/53/7 12/29/7 14/34/7
f 8/19/8 24/57/8 6/12/8
f 24/57/9 8/19/9 23/54/9
f 11/26/10 9/21/10 37/77/10
f 15/37/11 1/2/11 26/59/11 31/66/11
f 37/77/12 38/78/12 11/27/12
f 25/58/13 1/3/13 2/5/13
f 1/3/13 25/58/13 26/60/13
f 30/64/14 34/70/14 29/63/14
f 22/52/15 21/51/15 40/82/15
f 12/30/16 9/21/16 11/26/16
f 9/21/17 12/30/17 10/25/17
f 28/62/18 40/82/18 17/43/18
f 6/13/19 31/66/19 26/59/19 5/10/19
f 6/13/20 24/57/20 28/62/20
f 23/55/21 13/32/21 24/56/21
f 13/32/21 23/55/21 14/35/21
f 21/51/22 27/61/22 32/67/22
f 27/61/22 21/51/22 19/47/22
f 31/65/23 17/43/23 15/38/23
f 17/43/23 31/65/23 28/62/23
f 26/60/24 25/58/24 5/11/24
f 35/71/25 34/70/25 33/68/25
f 34/70/25 35/71/25 36/73/25
f 36/74/26 37/77/26 34/69/26
f 37/77/26 36/74/26 38/78/26
f 19/46/27 36/75/27 38/79/27 20/49/27
f 11/27/28 38/79/28 20/49/28 13/31/28
f 29/63/14 2/6/14 30/64/14
f 6/13/29 28/62/29 31/66/29
f 9/22/30 5/11/30 25/58/30
f 18/44/31 32/67/31 27/61/31 35/72/31 33/68/31 4/9/31 3/7/31 16/41/31
f 2/6/32 4/9/32 33/68/32 34/70/32 30/64/32
f 1/4/33 15/39/33 16/41/33 3/8/33
f 18/44/34 17/42/34 39/80/34 21/51/34 32/67/34
f 36/76/35 19/47/35 27/61/35 35/72/35
f 20/49/36 22/52/36 13/31/36
f 24/56/37 13/32/37 22/52/37
f 34/70/38 37/77/38 29/63/38
f 25/58/39 2/6/39 29/63/39
f 9/22/40 25/58/40 29/63/40
f 37/77/41 9/22/41 29/63/41
f 17/43/42 40/82/42 39/81/42
f 40/82/42 21/51/42 39/81/42
f 28/62/43 24/57/43 40/82/43
f 22/52/44 40/82/44 24/57/44
l 26 2
