# Blender 3.4.1
# www.blender.org
mtllib stemCollider.mtl
o broccoli.001
v -0.084205 0.204688 -0.014498
v -0.014005 0.192210 -0.115262
v 0.014005 0.192210 -0.115262
v 0.084205 0.204688 -0.014498
v -0.014005 0.192210 0.115262
v -0.084205 0.204688 0.014498
v 0.014005 0.192210 0.115262
v 0.084205 0.204688 0.014498
v 0.040679 0.000000 0.040679
v 0.040679 0.000000 -0.040679
v -0.040679 0.000000 0.040679
v -0.040679 0.000000 -0.040679
v 0.000000 0.252840 0.000000
vn -0.0000 0.8850 0.4655
vn 0.4964 0.8681 -0.0000
vn -0.4964 0.8681 -0.0000
vn 0.4069 0.8279 -0.3860
vn 0.8221 -0.1032 -0.5599
vn -0.0000 -1.0000 -0.0000
vn -0.4069 0.8279 -0.3860
vn -0.8221 -0.1032 -0.5599
vn -0.8221 -0.1032 0.5599
vn -0.0000 0.8850 -0.4655
vn 0.8221 -0.1032 0.5599
vn -0.0000 -0.3617 -0.9323
vn -0.9781 -0.2080 -0.0000
vn -0.0000 -0.3617 0.9323
vn 0.9781 -0.2080 -0.0000
vn -0.4069 0.8279 0.3860
vn 0.4069 0.8279 0.3860
vt 0.000000 0.000000
vt 0.000000 0.000000
vt 0.000000 0.000000
vt 0.000000 0.000000
vt 0.000000 0.000000
vt 0.000000 0.000000
vt 0.000000 0.000000
vt 0.000000 0.000000
vt -1.601518 -1.601518
vt 1.601518 -0.093022
vt -1.601518 -0.093022
vt -1.601518 1.601518
vt -1.601518 -0.093022
vt 1.601518 -0.093022
vt 1.601518 -1.601518
vt 1.601518 -0.093022
vt -1.601518 -0.093022
vt 1.601518 1.601518
vt 1.601518 -0.093022
vt -1.601518 -0.093022
vt 0.000000 0.000000
s 0
usemtl green.013
f 13/21/1 5/5/1 7/7/1
f 4/4/2 13/21/2 8/8/2
f 1/1/3 6/6/3 13/21/3
f 4/4/4 3/3/4 13/21/4
f 3/3/5 4/4/5 10/13/5
f 10/12/6 11/15/6 12/18/6
f 11/15/6 10/12/6 9/9/6
f 13/21/7 2/2/7 1/1/7
f 1/1/8 2/2/8 12/20/8
f 6/6/9 11/16/9 5/5/9
f 2/2/10 13/21/10 3/3/10
f 7/7/11 9/10/11 8/8/11
f 10/13/12 12/19/12 2/2/12 3/3/12
f 12/20/13 11/16/13 6/6/13 1/1/13
f 11/17/14 9/10/14 7/7/14 5/5/14
f 9/11/15 10/14/15 4/4/15 8/8/15
f 6/6/16 5/5/16 13/21/16
f 8/8/17 13/21/17 7/7/17
