# Blender v2.78 (sub 0) OBJ File: ''
# www.blender.org
mtllib cubedRedOnion.mtl
o Cube.003
v -0.010266 -0.010266 -0.010266
v -0.010266 -0.010266 0.010266
v -0.010266 0.010266 0.010266
v -0.010266 0.010266 -0.010266
v 0.010266 0.010266 0.010266
v 0.010266 0.010266 -0.010266
v 0.010266 -0.010266 0.010266
v 0.010266 -0.010266 -0.010266
vt 0.3750 0.0000
vt 0.6250 0.0000
vt 0.6250 0.2500
vt 0.3750 0.2500
vt 0.6250 0.5000
vt 0.3750 0.5000
vt 0.6250 0.7500
vt 0.3750 0.7500
vt 0.6250 1.0000
vt 0.3750 1.0000
vt 0.1250 0.5000
vt 0.1250 0.7500
vt 0.8750 0.5000
vt 0.8750 0.7500
vn -1.0000 0.0000 0.0000
vn 0.0000 1.0000 0.0000
vn 1.0000 0.0000 0.0000
vn 0.0000 -1.0000 0.0000
vn 0.0000 0.0000 -1.0000
vn 0.0000 0.0000 1.0000
usemtl Material.005
s 1
f 1/1/1 2/2/1 3/3/1 4/4/1
f 4/4/2 3/3/2 5/5/2 6/6/2
f 6/6/3 5/5/3 7/7/3 8/8/3
f 8/8/4 7/7/4 2/9/4 1/10/4
f 4/11/5 6/6/5 8/8/5 1/12/5
f 5/5/6 3/13/6 2/14/6 7/7/6
