# Blender 3.4.1
# www.blender.org
mtllib onionPeelCollider.mtl
o onion.003
v -0.034105 0.019000 -0.092000
v 0.019588 0.050000 -0.062000
v -0.034105 -0.019000 -0.092000
v 0.019588 -0.050000 -0.062000
v -0.039316 -0.019000 -0.092000
v 0.014377 -0.050000 -0.062000
v 0.014377 0.050000 -0.062000
v -0.039316 0.019000 -0.092000
vn 0.4878 -0.0000 -0.8730
vn -0.4878 -0.0000 0.8730
vn -0.0000 -0.0000 -1.0000
vn -0.0000 -0.6954 -0.7186
vn -0.0000 0.6954 -0.7186
vn -0.0000 -0.0000 1.0000
vt 0.748031 1.131058
vt 1.968504 3.552557
vt -0.748031 1.131058
vt -1.968504 3.552557
vt -0.748031 1.131058
vt -1.968504 3.552557
vt 1.968504 3.552557
vt 0.748031 1.131058
s 0
usemtl brown.015
f 2/2/1 3/3/1 1/1/1
f 3/3/1 2/2/1 4/4/1
f 7/7/2 8/8/2 5/5/2
f 5/5/2 6/6/2 7/7/2
f 3/3/3 5/5/3 8/8/3 1/1/3
f 4/4/4 6/6/4 5/5/4 3/3/4
f 1/1/5 8/8/5 7/7/5 2/2/5
f 4/4/6 2/2/6 7/7/6 6/6/6
o onion.004
v -0.031551 0.020475 0.098000
v 0.019588 0.050000 0.058000
v -0.031551 -0.020475 0.098000
v 0.019588 -0.050000 0.058000
v -0.036761 0.020475 0.098000
v 0.014377 0.050000 0.058000
v 0.014377 -0.050000 0.058000
v -0.036761 -0.020475 0.098000
vn 0.6161 -0.0000 0.7877
vn -0.6161 -0.0000 -0.7877
vn -0.0000 -0.8046 0.5939
vn -0.0000 0.8046 0.5939
vn -0.0000 -0.0000 1.0000
vn -0.0000 -0.0000 -1.0000
vt 0.806102 3.508883
vt 1.968504 0.952804
vt -0.806102 3.508883
vt -1.968504 0.952804
vt 0.806102 3.508883
vt 1.968504 0.952804
vt -1.968504 0.952804
vt -0.806102 3.508883
s 0
usemtl brown.015
f 12/12/7 9/9/7 11/11/7
f 9/9/7 12/12/7 10/10/7
f 15/15/8 16/16/8 13/13/8
f 13/13/8 14/14/8 15/15/8
f 11/11/9 16/16/9 15/15/9 12/12/9
f 10/10/10 14/14/10 13/13/10 9/9/10
f 9/9/11 13/13/11 16/16/11 11/11/11
f 12/12/12 15/15/12 14/14/12 10/10/12
o onion.005
v 0.019588 0.050000 0.058000
v 0.019588 -0.050000 0.058000
v 0.039507 -0.061500 -0.002000
v 0.039507 0.061500 -0.002000
v 0.014377 0.050000 0.058000
v 0.014377 -0.050000 0.058000
v 0.034296 0.061500 -0.002000
v 0.034296 -0.061500 -0.002000
vn 0.9491 -0.0000 0.3151
vn -0.9491 -0.0000 -0.3151
vn -0.0000 0.9821 0.1882
vn -0.0000 -0.9821 0.1882
vn -0.0000 -0.0000 1.0000
vn -0.0000 -0.0000 -1.0000
vt 1.968504 4.530497
vt -1.968504 4.530497
vt -2.421260 2.041526
vt 2.421260 2.041526
vt 1.968504 4.530497
vt -1.968504 4.530497
vt 2.421260 2.041526
vt -2.421260 2.041526
s 0
usemtl brown.015
f 20/20/13 18/18/13 19/19/13
f 18/18/13 20/20/13 17/17/13
f 23/23/14 24/24/14 22/22/14
f 22/22/14 21/21/14 23/23/14
f 20/20/15 23/23/15 21/21/15 17/17/15
f 18/18/16 22/22/16 24/24/16 19/19/16
f 18/18/17 17/17/17 21/21/17 22/22/17
f 20/20/18 19/19/18 24/24/18 23/23/18
o onion.006
v 0.019588 0.050000 -0.062000
v 0.019588 -0.050000 -0.062000
v 0.039507 -0.061500 -0.002000
v 0.039507 0.061500 -0.002000
v 0.034296 0.061500 -0.002000
v 0.014377 -0.050000 -0.062000
v 0.014377 0.050000 -0.062000
v 0.034296 -0.061500 -0.002000
vn 0.9491 -0.0000 -0.3151
vn -0.9491 -0.0000 0.3151
vn -0.0000 0.9821 -0.1882
vn -0.0000 -0.9821 -0.1882
vn -0.0000 -0.0000 -1.0000
vn -0.0000 -0.0000 1.0000
vt 1.968504 2.195189
vt -1.968504 2.195189
vt -2.421260 4.684160
vt 2.421260 4.684160
vt 2.421260 4.684160
vt -1.968504 2.195189
vt 1.968504 2.195189
vt -2.421260 4.684160
s 0
usemtl brown.015
f 26/26/19 28/28/19 27/27/19
f 28/28/19 26/26/19 25/25/19
f 30/30/20 32/32/20 29/29/20
f 29/29/20 31/31/20 30/30/20
f 25/25/21 31/31/21 29/29/21 28/28/21
f 27/27/22 32/32/22 30/30/22 26/26/22
f 26/26/23 30/30/23 31/31/23 25/25/23
f 28/28/24 29/29/24 32/32/24 27/27/24
