# Blender 3.4.1
# www.blender.org
mtllib onionCollider.mtl
o onionCollider
v -0.000000 0.040950 0.190000
v 0.000000 0.100000 0.150000
v 0.035464 0.020475 0.190000
v 0.086603 0.050000 0.150000
v -0.086603 -0.050000 0.150000
v -0.035464 -0.020475 0.190000
v 0.000000 -0.100000 0.150000
v -0.000000 -0.040950 0.190000
v -0.086603 0.050000 0.150000
v -0.035464 0.020475 0.190000
v 0.035464 -0.020475 0.190000
v 0.086603 -0.050000 0.150000
v -0.086603 -0.050000 0.030000
v 0.000000 -0.100000 0.030000
v -0.032909 -0.019000 -0.000000
v 0.000000 -0.038000 -0.000000
v 0.000000 0.038000 0.000000
v 0.032909 0.019000 0.000000
v 0.000000 0.100000 0.030000
v 0.086603 0.050000 0.030000
v 0.032909 -0.019000 -0.000000
v 0.086603 -0.050000 0.030000
v -0.086603 0.050000 0.030000
v -0.032909 0.019000 0.000000
v -0.106521 -0.061500 0.090000
v -0.106521 0.061500 0.090000
v 0.000000 -0.123000 0.090000
v 0.106521 -0.061500 0.090000
v 0.106521 0.061500 0.090000
v 0.000000 0.123000 0.090000
vn 0.3081 0.5336 0.7877
vn -0.3081 -0.5336 0.7877
vn -0.6161 -0.0000 0.7877
vn 0.3081 -0.5336 0.7877
vn -0.3081 0.5336 0.7877
vn 0.6161 -0.0000 0.7877
vn -0.2439 -0.4224 -0.8730
vn 0.2439 0.4224 -0.8730
vn 0.4878 -0.0000 -0.8730
vn -0.2439 0.4224 -0.8730
vn -0.4878 -0.0000 -0.8730
vn 0.2439 -0.4224 -0.8730
vn -0.0000 -0.0000 -1.0000
vn -0.9491 -0.0000 0.3151
vn -0.9491 -0.0000 -0.3151
vn -0.4745 -0.8219 0.3151
vn 0.4745 -0.8219 0.3151
vn 0.9491 -0.0000 0.3151
vn 0.4745 0.8219 0.3151
vn 0.9491 -0.0000 -0.3151
vn -0.4745 0.8219 -0.3151
vn -0.4745 0.8219 0.3151
vn -0.4745 -0.8219 -0.3151
vn 0.4745 0.8219 -0.3151
vn 0.4745 -0.8219 -0.3151
vt 0.806102 3.508883
vt -0.806102 3.508883
vt 1.968504 0.952804
vt -1.968504 0.952804
vt 1.968504 4.530497
vt -1.968504 4.530497
vt -0.806102 3.508883
vt 0.806102 3.508883
vt -1.968504 0.952804
vt 1.968504 0.952804
vt 1.968504 4.530497
vt -1.968504 4.530497
vt -1.968504 0.952804
vt 1.968504 0.952804
vt 1.968504 4.530497
vt -1.968504 4.530497
vt -0.806102 3.508883
vt 0.806102 3.508883
vt 1.968504 0.952804
vt -1.968504 0.952804
vt 1.968504 4.530497
vt -1.968504 4.530497
vt 0.806102 3.508883
vt -0.806102 3.508883
vt -1.968504 0.952804
vt 1.968504 0.952804
vt -1.968504 4.530497
vt 1.968504 4.530497
vt -0.806102 3.508883
vt 0.806102 3.508883
vt 0.806102 3.508883
vt -0.806102 3.508883
vt 1.968504 0.952804
vt -1.968504 0.952804
vt 1.968504 4.530497
vt -1.968504 4.530497
vt -1.968504 3.552557
vt 1.968504 3.552557
vt 1.968504 2.195189
vt -1.968504 2.195189
vt 1.968504 3.552557
vt -1.968504 3.552557
vt 1.968504 2.195189
vt -1.968504 2.195189
vt -0.748031 1.131058
vt 0.748031 1.131058
vt 1.295629 -0.748031
vt 0.748031 1.131058
vt -0.748031 1.131058
vt -0.000000 -1.496063
vt 0.748031 1.131058
vt -0.748031 1.131058
vt -0.000000 1.496063
vt -0.748031 1.131058
vt 0.748031 1.131058
vt -1.295629 0.748031
vt 1.968504 3.552557
vt -1.968504 3.552557
vt -1.968504 2.195189
vt 1.968504 2.195189
vt -1.968504 3.552557
vt 1.968504 3.552557
vt 1.968504 2.195189
vt -1.968504 2.195189
vt -0.748031 1.131058
vt 0.748031 1.131058
vt -1.295629 -0.748031
vt -1.968504 3.552557
vt 1.968504 3.552557
vt -1.968504 2.195189
vt 1.968504 2.195189
vt 1.968504 3.552557
vt -1.968504 3.552557
vt -1.968504 2.195189
vt 1.968504 2.195189
vt 0.748031 1.131058
vt -0.748031 1.131058
vt 1.295629 0.748031
vt 2.421260 2.041526
vt 2.421260 4.684160
vt -2.421260 2.041526
vt -2.421260 4.684160
vt -2.421260 2.041526
vt -2.421260 4.684160
vt 2.421260 4.684160
vt 2.421260 2.041526
vt 2.421260 2.041526
vt -2.421260 2.041526
vt 2.421260 4.684160
vt -2.421260 4.684160
vt 2.421260 2.041526
vt -2.421260 2.041526
vt -2.421260 4.684160
vt 2.421260 4.684160
vt 2.421260 2.041526
vt -2.421260 2.041526
vt 2.421260 4.684160
vt -2.421260 4.684160
vt 2.421260 2.041526
vt -2.421260 4.684160
vt -2.421260 2.041526
vt 2.421260 4.684160
s 0
usemtl brown.012
f 3/7/1 2/3/1 1/1/1
f 2/3/1 3/7/1 4/9/1
f 7/19/2 6/17/2 5/13/2
f 6/17/2 7/19/2 8/23/2
f 6/18/3 9/25/3 5/14/3
f 9/25/3 6/18/3 10/29/3
f 7/20/4 11/31/4 8/24/4
f 11/31/4 7/20/4 12/33/4
f 10/30/5 2/4/5 9/26/5
f 2/4/5 10/30/5 1/2/5
f 12/34/6 3/8/6 11/32/6
f 3/8/6 12/34/6 4/10/6
f 15/45/7 14/41/7 13/37/7
f 14/41/7 15/45/7 16/48/7
f 19/57/8 18/54/8 17/51/8
f 18/54/8 19/57/8 20/61/8
f 20/62/9 21/65/9 18/55/9
f 21/65/9 20/62/9 22/68/9
f 19/58/10 24/76/10 23/72/10
f 24/76/10 19/58/10 17/52/10
f 24/77/11 13/38/11 23/73/11
f 13/38/11 24/77/11 15/46/11
f 21/66/12 14/42/12 16/49/12
f 14/42/12 21/66/12 22/69/12
f 17/53/13 15/47/13 24/78/13
f 15/47/13 17/53/13 16/50/13
f 16/50/13 17/53/13 18/56/13
f 16/50/13 18/56/13 21/67/13
f 5/15/14 26/83/14 25/79/14
f 26/83/14 5/15/14 9/27/14
f 26/84/15 13/39/15 25/80/15
f 13/39/15 26/84/15 23/74/15
f 7/21/16 25/81/16 27/87/16
f 25/81/16 7/21/16 5/16/16
f 12/35/17 27/88/17 28/91/17
f 27/88/17 12/35/17 7/22/17
f 29/95/18 12/36/18 28/92/18
f 12/36/18 29/95/18 4/11/18
f 2/5/19 29/96/19 30/99/19
f 29/96/19 2/5/19 4/12/19
f 22/70/20 29/97/20 28/93/20
f 29/97/20 22/70/20 20/63/20
f 26/85/21 19/59/21 23/75/21
f 19/59/21 26/85/21 30/100/21
f 9/28/22 30/101/22 26/86/22
f 30/101/22 9/28/22 2/6/22
f 27/89/23 13/40/23 14/43/23
f 13/40/23 27/89/23 25/82/23
f 30/102/24 20/64/24 19/60/24
f 20/64/24 30/102/24 29/98/24
f 28/94/25 14/44/25 22/71/25
f 14/44/25 28/94/25 27/90/25
o onionCollider2
v -0.000000 0.040950 0.190000
v 0.035464 0.020475 0.190000
v -0.035464 -0.020475 0.190000
v -0.000000 -0.040950 0.190000
v -0.035464 0.020475 0.190000
v 0.035464 -0.020475 0.190000
v -0.000000 -0.015708 0.250000
v -0.013604 -0.007854 0.250000
v 0.013604 -0.007854 0.250000
v 0.013604 0.007854 0.250000
v -0.013604 0.007854 0.250000
v -0.000000 0.015708 0.250000
vn -0.4698 -0.8137 0.3423
vn 0.9396 -0.0000 0.3423
vn -0.4698 0.8137 0.3423
vn 0.4698 -0.8137 0.3423
vn 0.4698 0.8137 0.3423
vn -0.9396 -0.0000 0.3423
vn -0.0000 -0.0000 1.0000
vn -0.0000 -0.0000 -1.0000
vt 0.806102 6.550411
vt -0.806102 6.550411
vt -0.806102 6.550411
vt 0.806102 6.550411
vt 0.806102 6.550411
vt -0.806102 6.550411
vt 0.806102 6.550411
vt -0.806102 6.550411
vt 0.806102 6.550411
vt -0.806102 6.550411
vt 0.806102 6.550411
vt -0.806102 6.550411
vt 0.309213 9.064513
vt -0.309213 9.064513
vt -0.000000 -0.618425
vt -0.309213 9.064513
vt 0.309213 9.064513
vt -0.535572 -0.309213
vt -0.309213 9.064513
vt 0.309213 9.064513
vt 0.535572 -0.309213
vt 0.309213 9.064513
vt -0.309213 9.064513
vt 0.535572 0.309213
vt 0.309213 9.064513
vt -0.309213 9.064513
vt -0.535572 0.309213
vt -0.309213 9.064513
vt 0.309213 9.064513
vt -0.000000 0.618425
s 0
usemtl brown.012
f 37/115/26 33/108/26 34/109/26
f 33/108/26 37/115/26 38/118/26
f 32/106/27 39/121/27 36/114/27
f 39/121/27 32/106/27 40/124/27
f 41/127/28 31/104/28 35/111/28
f 31/104/28 41/127/28 42/130/28
f 39/122/29 34/110/29 36/113/29
f 34/110/29 39/122/29 37/116/29
f 42/131/30 32/105/30 31/103/30
f 32/105/30 42/131/30 40/125/30
f 38/119/31 35/112/31 33/107/31
f 35/112/31 38/119/31 41/128/31
f 37/117/32 41/129/32 38/120/32
f 41/129/32 37/117/32 42/132/32
f 42/132/32 37/117/32 39/123/32
f 42/132/32 39/123/32 40/126/32
f 32/106/33 36/114/33 34/110/33 33/108/33 35/112/33 31/104/33
