# Blender 3.4.1
# www.blender.org
mtllib onionInsideCollider.mtl
o onionInsideCollider.001
v -0.002462 -0.080269 -0.014636
v -0.002462 -0.067235 0.019367
v -0.002462 -0.088618 0.036334
v -0.002462 -0.029770 0.076197
v -0.002462 -0.008766 0.058973
v -0.002462 0.008766 0.058973
v -0.002462 0.029770 0.076197
v -0.002462 0.067235 0.019367
v -0.002462 0.088618 0.036334
v -0.002462 0.080269 -0.014636
v -0.002462 -0.089023 -0.064550
v -0.002462 -0.108157 -0.014636
v -0.002462 -0.068399 -0.045601
v -0.002462 -0.034823 -0.090776
v -0.002462 -0.028854 -0.064736
v -0.002462 0.034823 -0.090776
v -0.002462 0.028854 -0.064736
v -0.002462 0.068399 -0.045601
v -0.002462 0.089023 -0.064550
v -0.002462 0.108157 -0.014636
v -0.002462 -0.067100 -0.014636
v -0.002462 -0.058660 -0.036653
v -0.002462 -0.057137 0.011355
v -0.002462 -0.026035 -0.052439
v -0.002462 0.000000 0.050059
v -0.002462 0.026035 -0.052439
v -0.002462 0.057137 0.011355
v -0.002462 0.058660 -0.036653
v -0.002462 0.067100 -0.014636
v 0.002462 -0.080269 -0.014636
v 0.002462 -0.067235 0.019367
v 0.002462 -0.088618 0.036334
v 0.002462 -0.029770 0.076197
v 0.002462 -0.008766 0.058973
v 0.002462 0.008766 0.058973
v 0.002462 0.029770 0.076197
v 0.002462 0.067235 0.019367
v 0.002462 0.088618 0.036334
v 0.002462 0.080269 -0.014636
v 0.002462 -0.089023 -0.064550
v 0.002462 -0.108157 -0.014636
v 0.002462 -0.068399 -0.045601
v 0.002462 -0.034823 -0.090776
v 0.002462 -0.028854 -0.064736
v 0.002462 0.034823 -0.090776
v 0.002462 0.028854 -0.064736
v 0.002462 0.068399 -0.045601
v 0.002462 0.089023 -0.064550
v 0.002462 -0.058660 -0.036653
v 0.002462 -0.057137 0.011355
v 0.002462 -0.026035 -0.052439
v 0.002462 0.000000 0.050059
v 0.002462 0.026035 -0.052439
v 0.002462 0.057137 0.011355
v 0.002462 0.058660 -0.036653
v 0.002462 0.067100 -0.014636
v 0.002462 0.108157 -0.014636
v 0.002462 -0.067100 -0.014636
vn -1.0000 -0.0000 -0.0000
vn 1.0000 -0.0000 -0.0000
vn -0.0000 -0.9337 -0.3579
vn -0.0000 -0.5608 0.8279
vn -0.0000 0.9337 0.3579
vn -0.0000 0.9337 -0.3579
vn -0.0000 0.5608 0.8279
vn -0.0000 -0.4356 -0.9002
vn -0.0000 0.4356 -0.9002
vn -0.0000 -0.0000 -1.0000
vn -0.0000 -0.9337 0.3579
vn -0.0000 -0.0000 1.0000
vt 3.160205 3.543307
vt 2.647041 4.881995
vt 3.488914 5.549974
vt 1.172056 7.119396
vt 0.345110 6.441305
vt -0.345110 6.441305
vt -1.172056 7.119396
vt -2.647041 4.881995
vt -3.488914 5.549974
vt -3.160205 3.543307
vt 3.504836 1.578174
vt 4.258137 3.543307
vt 2.692876 2.324189
vt 1.370984 0.545665
vt 1.135986 1.570855
vt -1.370984 0.545665
vt -1.135986 1.570855
vt -2.692876 2.324189
vt -3.504836 1.578174
vt -4.258137 3.543307
vt 2.641735 3.543307
vt 2.309449 2.676475
vt 2.249488 4.566559
vt 1.025015 2.054975
vt 0.000000 6.090344
vt -1.025015 2.054975
vt -2.249488 4.566559
vt -2.309449 2.676475
vt -2.641735 3.543307
vt 3.160205 3.543307
vt 2.647041 4.881995
vt 3.488914 5.549974
vt 1.172056 7.119396
vt 0.345110 6.441305
vt -0.345110 6.441305
vt -1.172056 7.119396
vt -2.647041 4.881995
vt -3.488914 5.549974
vt -3.160205 3.543307
vt 3.504836 1.578174
vt 4.258137 3.543307
vt 2.692876 2.324189
vt 1.370984 0.545665
vt 1.135986 1.570855
vt -1.370984 0.545665
vt -1.135986 1.570855
vt -2.692876 2.324189
vt -3.504836 1.578174
vt 2.309449 2.676475
vt 2.249488 4.566559
vt 1.025015 2.054975
vt 0.000000 6.090344
vt -1.025015 2.054975
vt -2.249488 4.566559
vt -2.309449 2.676475
vt -2.641735 3.543307
vt -4.258137 3.543307
vt 2.641735 3.543307
s 0
usemtl brownLight.006
f 3/3/1 2/2/1 1/1/1
f 2/2/1 3/3/1 4/4/1
f 2/2/1 4/4/1 5/5/1
f 6/6/1 7/7/1 8/8/1
f 8/8/1 7/7/1 9/9/1
f 8/8/1 9/9/1 10/10/1
f 11/11/1 3/3/1 1/1/1
f 3/3/1 11/11/1 12/12/1
f 11/11/1 1/1/1 13/13/1
f 11/11/1 13/13/1 14/14/1
f 14/14/1 13/13/1 15/15/1
f 14/14/1 15/15/1 16/16/1
f 16/16/1 15/15/1 17/17/1
f 16/16/1 17/17/1 18/18/1
f 16/16/1 18/18/1 19/19/1
f 19/19/1 18/18/1 10/10/1
f 19/19/1 10/10/1 9/9/1
f 19/19/1 9/9/1 20/20/1
f 23/23/1 22/22/1 21/21/1
f 22/22/1 23/23/1 24/24/1
f 24/24/1 23/23/1 25/25/1
f 24/24/1 25/25/1 26/26/1
f 26/26/1 25/25/1 27/27/1
f 26/26/1 27/27/1 28/28/1
f 28/28/1 27/27/1 29/29/1
f 2/2/1 23/23/1 21/21/1
f 23/23/1 2/2/1 5/5/1
f 23/23/1 5/5/1 25/25/1
f 25/25/1 6/6/1 27/27/1
f 27/27/1 6/6/1 8/8/1
f 27/27/1 8/8/1 29/29/1
f 13/13/1 2/2/1 21/21/1
f 2/2/1 13/13/1 1/1/1
f 13/13/1 21/21/1 22/22/1
f 13/13/1 22/22/1 15/15/1
f 15/15/1 22/22/1 24/24/1
f 15/15/1 24/24/1 17/17/1
f 17/17/1 24/24/1 26/26/1
f 17/17/1 26/26/1 28/28/1
f 17/17/1 28/28/1 18/18/1
f 18/18/1 28/28/1 29/29/1
f 18/18/1 29/29/1 8/8/1
f 18/18/1 8/8/1 10/10/1
f 32/32/2 30/30/2 31/31/2
f 31/31/2 33/33/2 32/32/2
f 31/31/2 34/34/2 33/33/2
f 6/6/1 5/5/1 4/4/1 7/7/1
f 35/35/2 36/36/2 33/33/2 34/34/2
f 35/35/2 37/37/2 36/36/2
f 37/37/2 38/38/2 36/36/2
f 37/37/2 39/39/2 38/38/2
f 40/40/2 30/30/2 32/32/2
f 32/32/2 41/41/2 40/40/2
f 40/40/2 42/42/2 30/30/2
f 40/40/2 43/43/2 42/42/2
f 43/43/2 44/44/2 42/42/2
f 43/43/2 45/45/2 44/44/2
f 45/45/2 46/46/2 44/44/2
f 45/45/2 47/47/2 46/46/2
f 45/45/2 48/48/2 47/47/2
f 48/48/2 39/39/2 47/47/2
f 48/48/2 38/38/2 39/39/2
f 48/48/2 57/57/2 38/38/2
f 50/50/2 58/58/2 49/49/2
f 49/49/2 51/51/2 50/50/2
f 51/51/2 52/52/2 50/50/2
f 51/51/2 53/53/2 52/52/2
f 53/53/2 54/54/2 52/52/2
f 53/53/2 55/55/2 54/54/2
f 55/55/2 56/56/2 54/54/2
f 31/31/2 58/58/2 50/50/2
f 50/50/2 34/34/2 31/31/2
f 50/50/2 52/52/2 34/34/2
f 52/52/2 35/35/2 34/34/2
f 25/25/1 5/5/1 6/6/1
f 52/52/2 54/54/2 35/35/2
f 54/54/2 37/37/2 35/35/2
f 54/54/2 56/56/2 37/37/2
f 42/42/2 58/58/2 31/31/2
f 31/31/2 30/30/2 42/42/2
f 42/42/2 49/49/2 58/58/2
f 42/42/2 44/44/2 49/49/2
f 44/44/2 51/51/2 49/49/2
f 44/44/2 46/46/2 51/51/2
f 46/46/2 53/53/2 51/51/2
f 46/46/2 55/55/2 53/53/2
f 46/46/2 47/47/2 55/55/2
f 47/47/2 56/56/2 55/55/2
f 47/47/2 37/37/2 56/56/2
f 47/47/2 39/39/2 37/37/2
f 11/11/3 40/40/3 41/41/3 12/12/3
f 3/3/4 32/32/4 33/33/4 4/4/4
f 9/9/5 38/38/5 57/57/5 20/20/5
f 20/20/6 57/57/6 48/48/6 19/19/6
f 7/7/7 36/36/7 38/38/7 9/9/7
f 14/14/8 43/43/8 40/40/8 11/11/8
f 19/19/9 48/48/9 45/45/9 16/16/9
f 16/16/10 45/45/10 43/43/10 14/14/10
f 12/12/11 41/41/11 32/32/11 3/3/11
f 36/36/12 7/7/12 4/4/12 33/33/12
o onionInsideCollider
v -0.002462 -0.029770 0.076197
v -0.002462 -0.006502 0.131504
v -0.002462 0.006502 0.131504
v -0.002462 0.029770 0.076197
v 0.002462 -0.029770 0.076197
v 0.002462 -0.006502 0.131504
v 0.002462 0.006502 0.131504
v 0.002462 0.029770 0.076197
vn 1.0000 -0.0000 -0.0000
vn -1.0000 -0.0000 -0.0000
vn -0.0000 -0.0000 1.0000
vn -0.0000 -0.9217 0.3878
vn -0.0000 0.9217 0.3878
vn -0.0000 -0.0000 -1.0000
vt 1.172056 7.119396
vt 0.255999 9.296855
vt -0.255999 9.296855
vt -1.172056 7.119396
vt 1.172056 7.119396
vt 0.255999 9.296855
vt -0.255999 9.296855
vt -1.172056 7.119396
s 0
usemtl brownLight.006
f 63/63/13 66/66/13 65/65/13 64/64/13
f 62/62/14 59/59/14 60/60/14 61/61/14
f 60/60/15 64/64/15 65/65/15 61/61/15
f 59/59/16 63/63/16 64/64/16 60/60/16
f 61/61/17 65/65/17 66/66/17 62/62/17
f 66/66/18 63/63/18 59/59/18 62/62/18
