# Blender v2.78 (sub 0) OBJ File: ''
# www.blender.org
mtllib redOnionPeel.mtl
o onionPeel
v 0.005365 -0.025000 0.029375
v -0.020205 0.010238 0.049375
v -0.020205 -0.010238 0.049375
v 0.005365 0.025000 0.029375
v 0.002759 -0.025000 0.029375
v -0.022810 -0.010238 0.049375
v -0.022810 0.010238 0.049375
v 0.002759 0.025000 0.029375
v 0.005365 0.025000 -0.030625
v -0.021482 -0.009500 -0.045625
v -0.021482 0.009500 -0.045625
v 0.005365 -0.025000 -0.030625
v 0.002759 0.025000 -0.030625
v -0.024087 0.009500 -0.045625
v -0.024087 -0.009500 -0.045625
v 0.002759 -0.025000 -0.030625
v 0.015324 0.030750 -0.000625
v 0.005365 -0.025000 0.029375
v 0.015324 -0.030750 -0.000625
v 0.005365 0.025000 0.029375
v 0.012719 0.030750 -0.000625
v 0.012719 -0.030750 -0.000625
v 0.002759 -0.025000 0.029375
v 0.002759 0.025000 0.029375
v 0.005365 -0.025000 -0.030625
v 0.015324 0.030750 -0.000625
v 0.015324 -0.030750 -0.000625
v 0.005365 0.025000 -0.030625
v 0.002759 -0.025000 -0.030625
v 0.012719 -0.030750 -0.000625
v 0.012719 0.030750 -0.000625
v 0.002759 0.025000 -0.030625
vt -1.9685 0.9528
vt 0.8061 3.5089
vt -0.8061 3.5089
vt 1.9685 0.9528
vt -1.9685 0.9528
vt -0.8061 3.5089
vt 0.8061 3.5089
vt 1.9685 0.9528
vt 1.9685 3.5526
vt -0.7480 1.1311
vt 0.7480 1.1311
vt -1.9685 3.5526
vt 1.9685 3.5526
vt 0.7480 1.1311
vt -0.7480 1.1311
vt -1.9685 3.5526
vt 2.4213 2.0415
vt -1.9685 4.5305
vt -2.4213 2.0415
vt 1.9685 4.5305
vt 2.4213 2.0415
vt -2.4213 2.0415
vt -1.9685 4.5305
vt 1.9685 4.5305
vt -1.9685 2.1952
vt 2.4213 4.6842
vt -2.4213 4.6842
vt 1.9685 2.1952
vt -1.9685 2.1952
vt -2.4213 4.6842
vt 2.4213 4.6842
vt 1.9685 2.1952
vn 0.6161 0.0000 0.7877
vn -0.6161 0.0000 -0.7877
vn 0.0000 -0.8046 0.5939
vn 0.0000 0.8046 0.5939
vn 0.0000 0.0000 1.0000
vn 0.4878 0.0000 -0.8730
vn -0.4878 0.0000 0.8730
vn 0.0000 0.0000 -1.0000
vn 0.0000 -0.6954 -0.7186
vn 0.0000 0.6954 -0.7186
vn 0.9491 0.0000 0.3151
vn -0.9491 0.0000 -0.3151
vn 0.0000 0.9821 0.1882
vn 0.0000 -0.9821 0.1882
vn 0.9491 0.0000 -0.3151
vn -0.9491 0.0000 0.3151
vn 0.0000 0.9821 -0.1882
vn 0.0000 -0.9821 -0.1882
usemtl brown.015
s 1
f 1/1/1 2/2/1 3/3/1
f 2/2/1 1/1/1 4/4/1
f 5/5/2 6/6/2 7/7/2
f 7/7/2 8/8/2 5/5/2
f 3/3/3 6/6/3 5/5/3 1/1/3
f 4/4/4 8/8/4 7/7/4 2/2/4
f 2/2/5 7/7/5 6/6/5 3/3/5
f 9/9/6 10/10/6 11/11/6
f 10/10/6 9/9/6 12/12/6
f 13/13/7 14/14/7 15/15/7
f 15/15/7 16/16/7 13/13/7
f 10/10/8 15/15/8 14/14/8 11/11/8
f 12/12/9 16/16/9 15/15/9 10/10/9
f 11/11/10 14/14/10 13/13/10 9/9/10
f 17/17/11 18/18/11 19/19/11
f 18/18/11 17/17/11 20/20/11
f 21/21/12 22/22/12 23/23/12
f 23/23/12 24/24/12 21/21/12
f 17/17/13 21/21/13 24/24/13 20/20/13
f 18/18/14 23/23/14 22/22/14 19/19/14
f 25/25/15 26/26/15 27/27/15
f 26/26/15 25/25/15 28/28/15
f 29/29/16 30/30/16 31/31/16
f 31/31/16 32/32/16 29/29/16
f 28/28/17 32/32/17 31/31/17 26/26/17
f 27/27/18 30/30/18 29/29/18 25/25/18
