# Blender v2.78 (sub 0) OBJ File: ''
# www.blender.org
mtllib redOnionPeelCollider.mtl
o onion.005
v 0.015255 0.030750 -0.000301
v 0.005296 -0.025000 0.029699
v 0.015255 -0.030750 -0.000301
v 0.005296 0.025000 0.029699
v 0.012650 0.030750 -0.000301
v 0.012650 -0.030750 -0.000301
v 0.002690 -0.025000 0.029699
v 0.002690 0.025000 0.029699
vt 2.4213 2.0415
vt -1.9685 4.5305
vt -2.4213 2.0415
vt 1.9685 4.5305
vt 2.4213 2.0415
vt -2.4213 2.0415
vt -1.9685 4.5305
vt 1.9685 4.5305
vn 0.9491 0.0000 0.3151
vn -0.9491 0.0000 -0.3151
vn 0.0000 0.9821 0.1882
vn 0.0000 -0.9821 0.1882
vn 0.0000 0.0000 1.0000
vn 0.0000 0.0000 -1.0000
usemtl brown.001
s 1
f 1/1/1 2/2/1 3/3/1
f 2/2/1 1/1/1 4/4/1
f 5/5/2 6/6/2 7/7/2
f 7/7/2 8/8/2 5/5/2
f 1/1/3 5/5/3 8/8/3 4/4/3
f 2/2/4 7/7/4 6/6/4 3/3/4
f 2/2/5 4/4/5 8/8/5 7/7/5
f 1/1/6 3/3/6 6/6/6 5/5/6
o onion.004
v 0.004823 -0.025000 0.029990
v -0.020746 0.010238 0.049990
v -0.020746 -0.010237 0.049990
v 0.004823 0.025000 0.029990
v 0.002218 -0.025000 0.029990
v -0.023351 -0.010237 0.049990
v -0.023351 0.010238 0.049990
v 0.002218 0.025000 0.029990
vt -1.9685 0.9528
vt 0.8061 3.5089
vt -0.8061 3.5089
vt 1.9685 0.9528
vt -1.9685 0.9528
vt -0.8061 3.5089
vt 0.8061 3.5089
vt 1.9685 0.9528
vn 0.6161 0.0000 0.7877
vn -0.6161 0.0000 -0.7877
vn 0.0000 -0.8046 0.5939
vn 0.0000 0.8046 0.5939
vn 0.0000 0.0000 1.0000
vn 0.0000 0.0000 -1.0000
usemtl brown.001
s 1
f 9/9/7 10/10/7 11/11/7
f 10/10/7 9/9/7 12/12/7
f 13/13/8 14/14/8 15/15/8
f 15/15/8 16/16/8 13/13/8
f 11/11/9 14/14/9 13/13/9 9/9/9
f 12/12/10 16/16/10 15/15/10 10/10/10
f 10/10/11 15/15/11 14/14/11 11/11/11
f 9/9/12 13/13/12 16/16/12 12/12/12
o onion.003
v 0.004719 0.025000 -0.030377
v -0.022127 -0.009500 -0.045377
v -0.022127 0.009500 -0.045377
v 0.004719 -0.025000 -0.030377
v 0.002114 0.025000 -0.030377
v -0.024733 0.009500 -0.045377
v -0.024733 -0.009500 -0.045377
v 0.002114 -0.025000 -0.030377
vt 1.9685 3.5526
vt -0.7480 1.1311
vt 0.7480 1.1311
vt -1.9685 3.5526
vt 1.9685 3.5526
vt 0.7480 1.1311
vt -0.7480 1.1311
vt -1.9685 3.5526
vn 0.4878 0.0000 -0.8730
vn -0.4878 0.0000 0.8730
vn 0.0000 0.0000 -1.0000
vn 0.0000 -0.6954 -0.7186
vn 0.0000 0.6954 -0.7186
vn 0.0000 0.0000 1.0000
usemtl brown.001
s 1
f 17/17/13 18/18/13 19/19/13
f 18/18/13 17/17/13 20/20/13
f 21/21/14 22/22/14 23/23/14
f 23/23/14 24/24/14 21/21/14
f 18/18/15 23/23/15 22/22/15 19/19/15
f 20/20/16 24/24/16 23/23/16 18/18/16
f 19/19/17 22/22/17 21/21/17 17/17/17
f 20/20/18 17/17/18 21/21/18 24/24/18
o onion.006
v 0.005296 -0.025000 -0.030571
v 0.015255 0.030750 -0.000571
v 0.015255 -0.030750 -0.000571
v 0.005296 0.025000 -0.030571
v 0.002690 -0.025000 -0.030571
v 0.012650 -0.030750 -0.000571
v 0.012650 0.030750 -0.000571
v 0.002690 0.025000 -0.030571
vt -1.9685 2.1952
vt 2.4213 4.6842
vt -2.4213 4.6842
vt 1.9685 2.1952
vt -1.9685 2.1952
vt -2.4213 4.6842
vt 2.4213 4.6842
vt 1.9685 2.1952
vn 0.9491 0.0000 -0.3151
vn -0.9491 0.0000 0.3151
vn 0.0000 0.9821 -0.1882
vn 0.0000 -0.9821 -0.1882
vn 0.0000 0.0000 -1.0000
vn 0.0000 0.0000 1.0000
usemtl brown.001
s 1
f 25/25/19 26/26/19 27/27/19
f 26/26/19 25/25/19 28/28/19
f 29/29/20 30/30/20 31/31/20
f 31/31/20 32/32/20 29/29/20
f 28/28/21 32/32/21 31/31/21 26/26/21
f 27/27/22 30/30/22 29/29/22 25/25/22
f 25/25/23 29/29/23 32/32/23 28/28/23
f 26/26/24 31/31/24 30/30/24 27/27/24
