# Blender 3.4.1
# www.blender.org
mtllib redOnionPeel.mtl
o onionPeel
v -0.031551 0.020475 0.098000
v 0.019588 0.050000 0.058000
v -0.031551 -0.020475 0.098000
v 0.019588 -0.050000 0.058000
v -0.036761 0.020475 0.098000
v 0.014377 0.050000 0.058000
v 0.014377 -0.050000 0.058000
v -0.036761 -0.020475 0.098000
v -0.034105 0.019000 -0.092000
v 0.019588 0.050000 -0.062000
v -0.034105 -0.019000 -0.092000
v 0.019588 -0.050000 -0.062000
v -0.039316 -0.019000 -0.092000
v 0.014377 -0.050000 -0.062000
v 0.014377 0.050000 -0.062000
v -0.039316 0.019000 -0.092000
v 0.019588 0.050000 0.058000
v 0.019588 -0.050000 0.058000
v 0.039507 -0.061500 -0.002000
v 0.039507 0.061500 -0.002000
v 0.014377 0.050000 0.058000
v 0.014377 -0.050000 0.058000
v 0.034296 0.061500 -0.002000
v 0.034296 -0.061500 -0.002000
v 0.019588 0.050000 -0.062000
v 0.019588 -0.050000 -0.062000
v 0.039507 -0.061500 -0.002000
v 0.039507 0.061500 -0.002000
v 0.034296 0.061500 -0.002000
v 0.014377 -0.050000 -0.062000
v 0.014377 0.050000 -0.062000
v 0.034296 -0.061500 -0.002000
vn 0.6161 -0.0000 0.7877
vn -0.6161 -0.0000 -0.7877
vn -0.0000 -0.8046 0.5939
vn -0.0000 0.8046 0.5939
vn -0.0000 -0.0000 1.0000
vn 0.4878 -0.0000 -0.8730
vn -0.4878 -0.0000 0.8730
vn -0.0000 -0.0000 -1.0000
vn -0.0000 -0.6954 -0.7186
vn -0.0000 0.6954 -0.7186
vn 0.9491 -0.0000 0.3151
vn -0.9491 -0.0000 -0.3151
vn -0.0000 0.9821 0.1882
vn -0.0000 -0.9821 0.1882
vn 0.9491 -0.0000 -0.3151
vn -0.9491 -0.0000 0.3151
vn -0.0000 0.9821 -0.1882
vn -0.0000 -0.9821 -0.1882
vt 0.806102 3.508883
vt 1.968504 0.952804
vt -0.806102 3.508883
vt -1.968504 0.952804
vt 0.806102 3.508883
vt 1.968504 0.952804
vt -1.968504 0.952804
vt -0.806102 3.508883
vt 0.748031 1.131058
vt 1.968504 3.552557
vt -0.748031 1.131058
vt -1.968504 3.552557
vt -0.748031 1.131058
vt -1.968504 3.552557
vt 1.968504 3.552557
vt 0.748031 1.131058
vt 1.968504 4.530497
vt -1.968504 4.530497
vt -2.421260 2.041526
vt 2.421260 2.041526
vt 1.968504 4.530497
vt -1.968504 4.530497
vt 2.421260 2.041526
vt -2.421260 2.041526
vt 1.968504 2.195189
vt -1.968504 2.195189
vt -2.421260 4.684160
vt 2.421260 4.684160
vt 2.421260 4.684160
vt -1.968504 2.195189
vt 1.968504 2.195189
vt -2.421260 4.684160
s 0
usemtl brown.015
f 4/4/1 1/1/1 3/3/1
f 1/1/1 4/4/1 2/2/1
f 7/7/2 8/8/2 5/5/2
f 5/5/2 6/6/2 7/7/2
f 3/3/3 8/8/3 7/7/3 4/4/3
f 2/2/4 6/6/4 5/5/4 1/1/4
f 1/1/5 5/5/5 8/8/5 3/3/5
f 10/10/6 11/11/6 9/9/6
f 11/11/6 10/10/6 12/12/6
f 15/15/7 16/16/7 13/13/7
f 13/13/7 14/14/7 15/15/7
f 11/11/8 13/13/8 16/16/8 9/9/8
f 12/12/9 14/14/9 13/13/9 11/11/9
f 9/9/10 16/16/10 15/15/10 10/10/10
f 20/20/11 18/18/11 19/19/11
f 18/18/11 20/20/11 17/17/11
f 23/23/12 24/24/12 22/22/12
f 22/22/12 21/21/12 23/23/12
f 20/20/13 23/23/13 21/21/13 17/17/13
f 18/18/14 22/22/14 24/24/14 19/19/14
f 26/26/15 28/28/15 27/27/15
f 28/28/15 26/26/15 25/25/15
f 30/30/16 32/32/16 29/29/16
f 29/29/16 31/31/16 30/30/16
f 25/25/17 31/31/17 29/29/17 28/28/17
f 27/27/18 32/32/18 30/30/18 26/26/18
