# Blender 3.4.1
# www.blender.org
mtllib redOnionHalf.mtl
o onionHalf
v -0.000000 -0.080269 0.090000
v 0.000000 -0.067235 0.124003
v 0.000000 -0.088618 0.140969
v -0.000000 -0.029770 0.180833
v -0.000000 -0.008766 0.163609
v -0.000000 0.008766 0.163609
v -0.000000 0.029770 0.180833
v 0.000000 0.067235 0.124003
v 0.000000 0.088618 0.140969
v -0.000000 0.080269 0.090000
v 0.000000 -0.089023 0.040086
v -0.000000 -0.108157 0.090000
v 0.000000 -0.068399 0.059034
v 0.000000 -0.034823 0.013860
v -0.000000 -0.028854 0.039900
v 0.000000 0.034823 0.013860
v -0.000000 0.028854 0.039900
v 0.000000 0.068399 0.059034
v 0.000000 0.089023 0.040086
v -0.000000 0.108157 0.090000
v -0.000000 -0.067100 0.090000
v 0.000000 -0.058660 0.067982
v 0.000000 -0.057137 0.115991
v -0.000000 -0.026035 0.052196
v -0.000000 -0.000000 0.154695
v -0.000000 0.026035 0.052196
v 0.000000 0.057137 0.115991
v 0.000000 0.058660 0.067982
v -0.000000 0.067100 0.090000
v -0.000000 -0.015708 0.250000
v -0.000000 0.015708 0.250000
v 0.013604 -0.007854 0.250000
v 0.013604 0.007854 0.250000
v 0.000000 0.038000 0.000000
v 0.000000 -0.038000 -0.000000
v 0.032909 0.019000 0.000000
v 0.032909 -0.019000 -0.000000
v -0.000000 -0.123000 0.090000
v 0.000000 -0.100000 0.150000
v -0.000000 -0.040950 0.190000
v -0.000000 0.040950 0.190000
v 0.000000 0.100000 0.150000
v -0.000000 0.123000 0.090000
v 0.000000 -0.100000 0.030000
v 0.000000 0.100000 0.030000
v 0.106521 -0.061500 0.090000
v 0.086603 -0.050000 0.150000
v 0.035464 -0.020475 0.190000
v 0.035464 0.020475 0.190000
v 0.086603 0.050000 0.150000
v 0.086603 0.050000 0.030000
v 0.086603 -0.050000 0.030000
v 0.106521 0.061500 0.090000
vn -1.0000 -0.0000 -0.0000
vn -0.0000 -0.0000 1.0000
vn -0.0000 -0.0000 -1.0000
vn 0.4745 -0.8219 0.3151
vn 0.3081 -0.5336 0.7877
vn 0.3081 0.5336 0.7877
vn 0.4878 -0.0000 -0.8730
vn 0.9396 -0.0000 0.3423
vn 0.4698 -0.8137 0.3423
vn 0.2439 0.4224 -0.8730
vn 0.4698 0.8137 0.3423
vn 0.9491 -0.0000 0.3151
vn 0.6161 -0.0000 0.7877
vn 0.4745 0.8219 0.3151
vn 0.9491 -0.0000 -0.3151
vn 0.2439 -0.4224 -0.8730
vn 0.4745 0.8219 -0.3151
vn 0.4745 -0.8219 -0.3151
vt 3.160205 3.543307
vt 2.647041 4.881995
vt 3.488914 5.549974
vt 1.172056 7.119396
vt 0.345110 6.441305
vt -0.345110 6.441305
vt -1.172056 7.119396
vt -2.647041 4.881995
vt -3.488914 5.549974
vt -3.160205 3.543307
vt 3.504836 1.578174
vt 4.258137 3.543307
vt 2.692876 2.324189
vt 1.370984 0.545665
vt 1.135986 1.570855
vt -1.370984 0.545665
vt -1.135986 1.570855
vt -2.692876 2.324189
vt -3.504836 1.578174
vt -4.258137 3.543307
vt 2.641735 3.543307
vt 2.309449 2.676475
vt 2.249488 4.566559
vt 1.025015 2.054975
vt 0.000000 6.090344
vt -1.025015 2.054975
vt -2.249488 4.566559
vt -2.309449 2.676475
vt -2.641735 3.543307
vt -0.000000 -0.618425
vt -0.309213 9.064513
vt -0.000000 0.618425
vt 0.309213 9.064513
vt 0.535572 -0.309213
vt -0.309213 9.064513
vt 0.309213 9.064513
vt 0.535572 0.309213
vt 0.309213 9.064513
vt -0.309213 9.064513
vt 0.000000 1.496063
vt -1.496063 0.000000
vt 0.748031 1.131058
vt 0.000000 -1.496063
vt 1.496063 -0.000000
vt -0.748031 1.131058
vt -1.295629 0.748031
vt 0.748031 1.131058
vt -0.748031 1.131058
vt -1.295629 -0.748031
vt -0.748031 1.131058
vt 0.748031 1.131058
vt 4.842520 3.543307
vt -2.421260 2.041526
vt -2.421260 4.684160
vt 3.937008 5.905512
vt -1.968504 4.530497
vt -1.968504 0.952804
vt 1.612205 7.480315
vt -0.806102 3.508883
vt -0.806102 6.550411
vt 0.806102 3.508883
vt 0.806102 6.550411
vt -1.612205 7.480315
vt -3.937008 5.905512
vt 1.968504 0.952804
vt 1.968504 4.530497
vt -4.842520 3.543307
vt 2.421260 2.041526
vt 2.421260 4.684160
vt 3.937008 1.181102
vt -1.968504 3.552557
vt -1.968504 2.195189
vt -3.937008 1.181102
vt 1.968504 3.552557
vt 1.968504 2.195189
vt 2.421260 2.041526
vt -2.421260 2.041526
vt -2.421260 4.684160
vt 2.421260 4.684160
vt 1.968504 4.530497
vt 1.968504 0.952804
vt -1.968504 4.530497
vt -1.968504 0.952804
vt 0.806102 3.508883
vt -0.806102 6.550411
vt 0.806102 6.550411
vt -0.806102 3.508883
vt -0.806102 3.508883
vt 0.806102 6.550411
vt -0.806102 6.550411
vt 0.806102 3.508883
vt -1.968504 0.952804
vt 1.968504 4.530497
vt 1.968504 0.952804
vt -1.968504 4.530497
vt 1.968504 3.552557
vt -1.968504 3.552557
vt 1.968504 2.195189
vt -1.968504 2.195189
vt -1.968504 3.552557
vt -1.968504 2.195189
vt 1.968504 3.552557
vt 1.968504 2.195189
vt 2.421260 2.041526
vt -2.421260 2.041526
vt 2.421260 4.684160
vt -2.421260 4.684160
s 0
usemtl brown.014
f 3/3/1 2/2/1 1/1/1
f 2/2/1 3/3/1 4/4/1
f 2/2/1 4/4/1 5/5/1
f 6/6/1 7/7/1 8/8/1
f 8/8/1 7/7/1 9/9/1
f 8/8/1 9/9/1 10/10/1
f 11/11/1 3/3/1 1/1/1
f 3/3/1 11/11/1 12/12/1
f 11/11/1 1/1/1 13/13/1
f 11/11/1 13/13/1 14/14/1
f 14/14/1 13/13/1 15/15/1
f 14/14/1 15/15/1 16/16/1
f 16/16/1 15/15/1 17/17/1
f 16/16/1 17/17/1 18/18/1
f 16/16/1 18/18/1 19/19/1
f 19/19/1 18/18/1 10/10/1
f 19/19/1 10/10/1 9/9/1
f 19/19/1 9/9/1 20/20/1
f 23/23/1 22/22/1 21/21/1
f 22/22/1 23/23/1 24/24/1
f 24/24/1 23/23/1 25/25/1
f 24/24/1 25/25/1 26/26/1
f 26/26/1 25/25/1 27/27/1
f 26/26/1 27/27/1 28/28/1
f 28/28/1 27/27/1 29/29/1
f 32/34/2 31/32/2 30/30/2
f 31/32/2 32/34/2 33/37/2
f 36/46/3 35/43/3 34/40/3
f 35/43/3 36/46/3 37/49/3
f 39/55/1 12/12/1 38/52/1
f 12/12/1 39/55/1 3/3/1
f 3/3/1 39/55/1 40/58/1
f 3/3/1 40/58/1 4/4/1
f 7/7/1 41/63/1 9/9/1
f 9/9/1 41/63/1 42/64/1
f 9/9/1 42/64/1 20/20/1
f 20/20/1 42/64/1 43/67/1
f 12/12/1 44/70/1 38/52/1
f 44/70/1 12/12/1 11/11/1
f 44/70/1 11/11/1 35/44/1
f 35/44/1 11/11/1 14/14/1
f 35/44/1 14/14/1 34/41/1
f 34/41/1 14/14/1 16/16/1
f 34/41/1 16/16/1 19/19/1
f 34/41/1 19/19/1 45/73/1
f 45/73/1 19/19/1 20/20/1
f 45/73/1 20/20/1 43/67/1
f 2/2/1 23/23/1 21/21/1
f 23/23/1 2/2/1 5/5/1
f 23/23/1 5/5/1 25/25/1
f 6/6/1 25/25/1 5/5/1 4/4/1 40/58/1 41/63/1 7/7/1
f 25/25/1 6/6/1 27/27/1
f 27/27/1 6/6/1 8/8/1
f 27/27/1 8/8/1 29/29/1
f 13/13/1 2/2/1 21/21/1
f 2/2/1 13/13/1 1/1/1
f 13/13/1 21/21/1 22/22/1
f 13/13/1 22/22/1 15/15/1
f 15/15/1 22/22/1 24/24/1
f 15/15/1 24/24/1 17/17/1
f 17/17/1 24/24/1 26/26/1
f 17/17/1 26/26/1 28/28/1
f 17/17/1 28/28/1 18/18/1
f 18/18/1 28/28/1 29/29/1
f 18/18/1 29/29/1 8/8/1
f 18/18/1 8/8/1 10/10/1
f 47/80/4 38/53/4 46/76/4
f 38/53/4 47/80/4 39/56/4
f 39/57/5 48/84/5 40/59/5
f 48/84/5 39/57/5 47/81/5
f 49/88/6 42/65/6 41/61/6
f 42/65/6 49/88/6 50/92/6
f 51/96/7 37/50/7 36/47/7
f 37/50/7 51/96/7 52/100/7
f 49/89/8 32/35/8 48/85/8
f 32/35/8 49/89/8 33/38/8
f 32/36/9 40/60/9 48/86/9
f 40/60/9 32/36/9 30/31/9
f 45/74/10 36/48/10 34/42/10
f 36/48/10 45/74/10 51/97/10
f 31/33/11 49/90/11 41/62/11
f 49/90/11 31/33/11 33/39/11
f 53/104/12 47/82/12 46/77/12
f 47/82/12 53/104/12 50/93/12
f 47/83/13 49/91/13 48/87/13
f 49/91/13 47/83/13 50/94/13
f 42/66/14 53/105/14 43/68/14
f 53/105/14 42/66/14 50/95/14
f 52/101/15 53/106/15 46/78/15
f 53/106/15 52/101/15 51/98/15
f 37/51/16 44/71/16 35/45/16
f 44/71/16 37/51/16 52/102/16
f 43/69/17 51/99/17 45/75/17
f 51/99/17 43/69/17 53/107/17
f 46/79/18 44/72/18 52/103/18
f 44/72/18 46/79/18 38/54/18
f 30/31/1 31/33/1 41/63/1 40/60/1
