# Blender v2.78 (sub 0) OBJ File: ''
# www.blender.org
mtllib redOnion.mtl
o onion
v 0.017732 0.010238 0.035833
v 0.000000 0.050000 0.015833
v 0.000000 0.020475 0.035833
v 0.043302 0.025000 0.015833
v 0.000000 -0.050000 0.015833
v -0.017732 -0.010238 0.035833
v -0.043302 -0.025000 0.015833
v 0.000000 -0.020475 0.035833
v -0.043302 0.025000 0.015833
v -0.017732 0.010238 0.035833
v 0.017732 -0.010238 0.035833
v 0.043302 -0.025000 0.015833
v -0.016454 -0.009500 -0.059167
v 0.000000 -0.050000 -0.044167
v -0.043302 -0.025000 -0.044167
v 0.000000 -0.019000 -0.059167
v 0.000000 0.050000 -0.044167
v 0.016454 0.009500 -0.059167
v 0.000000 0.019000 -0.059167
v 0.043302 0.025000 -0.044167
v 0.016454 -0.009500 -0.059167
v 0.043302 -0.025000 -0.044167
v -0.016454 0.009500 -0.059167
v -0.043302 0.025000 -0.044167
v 0.000000 -0.007854 0.065833
v -0.006802 -0.003927 0.065833
v 0.006802 -0.003927 0.065833
v 0.006802 0.003927 0.065833
v -0.006802 0.003927 0.065833
v 0.000000 0.007854 0.065833
v -0.053261 0.030750 -0.014167
v -0.053261 -0.030750 -0.014167
v 0.000000 -0.061500 -0.014167
v 0.053261 -0.030750 -0.014167
v 0.053261 0.030750 -0.014167
v 0.000000 0.061500 -0.014167
vt -0.8061 3.5089
vt 1.9685 0.9528
vt 0.8061 3.5089
vt -1.9685 0.9528
vt 1.9685 0.9528
vt -0.8061 3.5089
vt -1.9685 0.9528
vt 0.8061 3.5089
vt 0.8061 3.5089
vt -1.9685 0.9528
vt 1.9685 0.9528
vt -0.8061 3.5089
vt -1.9685 0.9528
vt 0.8061 3.5089
vt -0.8061 3.5089
vt 1.9685 0.9528
vt 0.8061 3.5089
vt -1.9685 0.9528
vt 1.9685 0.9528
vt -0.8061 3.5089
vt -1.9685 0.9528
vt 0.8061 3.5089
vt -0.8061 3.5089
vt 1.9685 0.9528
vt -0.7480 1.1311
vt 1.9685 3.5526
vt -1.9685 3.5526
vt 0.7480 1.1311
vt 1.9685 3.5526
vt -0.7480 1.1311
vt 0.7480 1.1311
vt -1.9685 3.5526
vt 1.9685 3.5526
vt -0.7480 1.1311
vt 0.7480 1.1311
vt -1.9685 3.5526
vt -1.9685 3.5526
vt 0.7480 1.1311
vt 1.9685 3.5526
vt -0.7480 1.1311
vt -0.7480 1.1311
vt 1.9685 3.5526
vt -1.9685 3.5526
vt 0.7480 1.1311
vt 0.7480 1.1311
vt -1.9685 3.5526
vt -0.7480 1.1311
vt 1.9685 3.5526
vt -0.0000 1.4961
vt 1.2956 -0.7480
vt 1.2956 0.7480
vt -0.0000 -1.4961
vt -1.2956 0.7480
vt -1.2956 -0.7480
vt 0.3092 9.0645
vt -0.8061 6.5504
vt 0.8061 6.5504
vt -0.3092 9.0645
vt 0.8061 6.5504
vt -0.3092 9.0645
vt -0.8061 6.5504
vt 0.3092 9.0645
vt 0.3092 9.0645
vt -0.8061 6.5504
vt 0.8061 6.5504
vt -0.3092 9.0645
vt 0.3092 9.0645
vt -0.8061 6.5504
vt 0.8061 6.5504
vt -0.3092 9.0645
vt 0.3092 9.0645
vt -0.8061 6.5504
vt 0.8061 6.5504
vt -0.3092 9.0645
vt 0.3092 9.0645
vt -0.8061 6.5504
vt 0.8061 6.5504
vt -0.3092 9.0645
vt -0.0000 -0.6184
vt -0.5356 0.3092
vt -0.5356 -0.3092
vt -0.0000 0.6184
vt 0.5356 -0.3092
vt 0.5356 0.3092
vt 1.9685 4.5305
vt -2.4213 2.0415
vt 2.4213 2.0415
vt -1.9685 4.5305
vt -2.4213 4.6842
vt 1.9685 2.1952
vt 2.4213 4.6842
vt -1.9685 2.1952
vt 1.9685 4.5305
vt -2.4213 2.0415
vt 2.4213 2.0415
vt -1.9685 4.5305
vt 1.9685 4.5305
vt -2.4213 2.0415
vt 2.4213 2.0415
vt -1.9685 4.5305
vt 2.4213 2.0415
vt -1.9685 4.5305
vt -2.4213 2.0415
vt 1.9685 4.5305
vt 1.9685 4.5305
vt -2.4213 2.0415
vt 2.4213 2.0415
vt -1.9685 4.5305
vt -1.9685 2.1952
vt 2.4213 4.6842
vt -2.4213 4.6842
vt 1.9685 2.1952
vt 2.4213 4.6842
vt -1.9685 2.1952
vt 1.9685 2.1952
vt -2.4213 4.6842
vt 1.9685 4.5305
vt -2.4213 2.0415
vt 2.4213 2.0415
vt -1.9685 4.5305
vt 2.4213 4.6842
vt -1.9685 2.1952
vt 1.9685 2.1952
vt -2.4213 4.6842
vt 2.4213 4.6842
vt -1.9685 2.1952
vt 1.9685 2.1952
vt -2.4213 4.6842
vt 2.4213 4.6842
vt -1.9685 2.1952
vt 1.9685 2.1952
vt -2.4213 4.6842
vn 0.3080 0.5336 0.7877
vn -0.3080 -0.5336 0.7877
vn -0.6161 0.0000 0.7877
vn 0.3080 -0.5336 0.7877
vn -0.3080 0.5336 0.7877
vn 0.6161 0.0000 0.7877
vn -0.2439 -0.4224 -0.8730
vn 0.2439 0.4224 -0.8730
vn 0.4878 0.0000 -0.8730
vn -0.2439 0.4224 -0.8730
vn -0.4878 0.0000 -0.8730
vn 0.2439 -0.4224 -0.8730
vn 0.0000 0.0000 -1.0000
vn -0.4698 -0.8137 0.3423
vn 0.9396 0.0000 0.3423
vn -0.4698 0.8137 0.3423
vn 0.4698 -0.8137 0.3423
vn 0.4698 0.8137 0.3423
vn -0.9396 0.0000 0.3423
vn 0.0000 0.0000 1.0000
vn -0.9491 0.0000 0.3151
vn -0.9491 0.0000 -0.3151
vn -0.4745 -0.8219 0.3151
vn 0.4745 -0.8219 0.3151
vn 0.9491 0.0000 0.3151
vn 0.4745 0.8219 0.3151
vn 0.9491 0.0000 -0.3151
vn -0.4745 0.8219 -0.3151
vn -0.4745 0.8219 0.3151
vn -0.4745 -0.8219 -0.3151
vn 0.4745 0.8219 -0.3151
vn 0.4745 -0.8219 -0.3151
usemtl brown.012
s 1
f 1/1/1 2/2/1 3/3/1
f 2/2/1 1/1/1 4/4/1
f 5/5/2 6/6/2 7/7/2
f 6/6/2 5/5/2 8/8/2
f 6/9/3 9/10/3 7/11/3
f 9/10/3 6/9/3 10/12/3
f 5/13/4 11/14/4 8/15/4
f 11/14/4 5/13/4 12/16/4
f 10/17/5 2/18/5 9/19/5
f 2/18/5 10/17/5 3/20/5
f 12/21/6 1/22/6 11/23/6
f 1/22/6 12/21/6 4/24/6
f 13/25/7 14/26/7 15/27/7
f 14/26/7 13/25/7 16/28/7
f 17/29/8 18/30/8 19/31/8
f 18/30/8 17/29/8 20/32/8
f 20/33/9 21/34/9 18/35/9
f 21/34/9 20/33/9 22/36/9
f 17/37/10 23/38/10 24/39/10
f 23/38/10 17/37/10 19/40/10
f 23/41/11 15/42/11 24/43/11
f 15/42/11 23/41/11 13/44/11
f 21/45/12 14/46/12 16/47/12
f 14/46/12 21/45/12 22/48/12
f 19/49/13 13/50/13 23/51/13
f 13/50/13 19/49/13 16/52/13
f 16/52/13 19/49/13 18/53/13
f 16/52/13 18/53/13 21/54/13
f 25/55/14 6/56/14 8/57/14
f 6/56/14 25/55/14 26/58/14
f 1/59/15 27/60/15 11/61/15
f 27/60/15 1/59/15 28/62/15
f 29/63/16 3/64/16 10/65/16
f 3/64/16 29/63/16 30/66/16
f 27/67/17 8/68/17 11/69/17
f 8/68/17 27/67/17 25/70/17
f 30/71/18 1/72/18 3/73/18
f 1/72/18 30/71/18 28/74/18
f 26/75/19 10/76/19 6/77/19
f 10/76/19 26/75/19 29/78/19
f 25/79/20 29/80/20 26/81/20
f 29/80/20 25/79/20 30/82/20
f 30/82/20 25/79/20 27/83/20
f 30/82/20 27/83/20 28/84/20
f 7/85/21 31/86/21 32/87/21
f 31/86/21 7/85/21 9/88/21
f 31/89/22 15/90/22 32/91/22
f 15/90/22 31/89/22 24/92/22
f 5/93/23 32/94/23 33/95/23
f 32/94/23 5/93/23 7/96/23
f 12/97/24 33/98/24 34/99/24
f 33/98/24 12/97/24 5/100/24
f 35/101/25 12/102/25 34/103/25
f 12/102/25 35/101/25 4/104/25
f 2/105/26 35/106/26 36/107/26
f 35/106/26 2/105/26 4/108/26
f 22/109/27 35/110/27 34/111/27
f 35/110/27 22/109/27 20/112/27
f 31/113/28 17/114/28 24/115/28
f 17/114/28 31/113/28 36/116/28
f 9/117/29 36/118/29 31/119/29
f 36/118/29 9/117/29 2/120/29
f 33/121/30 15/122/30 14/123/30
f 15/122/30 33/121/30 32/124/30
f 36/125/31 20/126/31 17/127/31
f 20/126/31 36/125/31 35/128/31
f 34/129/32 14/130/32 22/131/32
f 14/130/32 34/129/32 33/132/32
