# Blender 3.4.1
# www.blender.org
mtllib shallotCollider.mtl
o onion
v 0.000000 0.024080 0.242513
v 0.000000 0.058804 0.191458
v 0.023669 0.012040 0.242513
v 0.057801 0.029402 0.191458
v -0.057801 -0.029402 0.191458
v -0.023669 -0.012040 0.242513
v 0.000000 -0.058804 0.191458
v 0.000000 -0.024080 0.242513
v -0.057801 0.029402 0.191458
v -0.023669 0.012040 0.242513
v 0.023669 -0.012040 0.242513
v 0.057801 -0.029402 0.191458
v -0.057801 -0.029402 0.038292
v 0.000000 -0.058804 0.038292
v -0.021964 -0.011173 0.000000
v 0.000000 -0.022345 0.000000
v 0.000000 0.022345 0.000000
v 0.021964 0.011173 0.000000
v 0.000000 0.058804 0.038292
v 0.057801 0.029402 0.038292
v 0.021964 -0.011173 0.000000
v 0.057801 -0.029402 0.038292
v -0.057801 0.029402 0.038292
v -0.021964 0.011173 0.000000
v -0.071094 -0.036164 0.114875
v -0.071094 0.036164 0.114875
v 0.000000 -0.072328 0.114875
v 0.071094 -0.036164 0.114875
v 0.071094 0.036164 0.114875
v 0.000000 0.072328 0.114875
vn 0.3877 0.7622 0.5184
vn -0.3877 -0.7622 0.5184
vn -0.8313 -0.0000 0.5558
vn 0.3877 -0.7622 0.5184
vn -0.3877 0.7622 0.5184
vn 0.8313 -0.0000 0.5558
vn -0.3457 -0.6796 -0.6470
vn 0.3457 0.6796 -0.6470
vn 0.7301 -0.0000 -0.6833
vn -0.3457 0.6796 -0.6470
vn -0.7301 -0.0000 -0.6833
vn 0.3457 -0.6796 -0.6470
vn -0.0000 -0.0000 -1.0000
vn -0.0000 -0.0000 1.0000
vn -0.9853 -0.0000 0.1710
vn -0.9853 -0.0000 -0.1710
vn -0.4479 -0.8805 0.1555
vn 0.4479 -0.8805 0.1555
vn 0.9853 -0.0000 0.1710
vn 0.4479 0.8805 0.1555
vn 0.9853 -0.0000 -0.1710
vn -0.4479 0.8805 -0.1555
vn -0.4479 0.8805 0.1555
vn -0.4479 -0.8805 -0.1555
vn 0.4479 0.8805 -0.1555
vn 0.4479 -0.8805 -0.1555
vt 0.806102 3.508883
vt -0.806102 3.508883
vt 1.968504 0.952804
vt -1.968504 0.952804
vt 1.968504 4.530497
vt -1.968504 4.530497
vt -0.806102 3.508883
vt 0.806102 3.508883
vt -1.968504 0.952804
vt 1.968504 0.952804
vt 1.968504 4.530497
vt -1.968504 4.530497
vt -1.968504 0.952804
vt 1.968504 0.952804
vt 1.968504 4.530497
vt -1.968504 4.530497
vt 0.806102 3.508883
vt -0.806102 3.508883
vt 1.968504 0.952804
vt -1.968504 0.952804
vt 1.968504 4.530497
vt -1.968504 4.530497
vt 0.806102 3.508883
vt -0.806102 3.508883
vt -1.968504 0.952804
vt 1.968504 0.952804
vt -1.968504 4.530497
vt 1.968504 4.530497
vt 0.806102 3.508883
vt -0.806102 3.508883
vt 0.806102 3.508883
vt -0.806102 3.508883
vt 1.968504 0.952804
vt -1.968504 0.952804
vt 1.968504 4.530497
vt -1.968504 4.530497
vt -1.968504 3.552557
vt 1.968504 3.552557
vt 1.968504 2.195189
vt -1.968504 2.195189
vt 1.968504 3.552557
vt -1.968504 3.552557
vt 1.968504 2.195189
vt -1.968504 2.195189
vt -0.748031 1.131058
vt 0.748031 1.131058
vt 1.295629 -0.748031
vt 0.748031 1.131058
vt -0.748031 1.131058
vt -0.000000 -1.496063
vt 0.748031 1.131058
vt -0.748031 1.131058
vt -0.000000 1.496063
vt -0.748031 1.131058
vt 0.748031 1.131058
vt -1.295629 0.748031
vt 1.968504 3.552557
vt -1.968504 3.552557
vt -1.968504 2.195189
vt 1.968504 2.195189
vt -1.968504 3.552557
vt 1.968504 3.552557
vt 1.968504 2.195189
vt -1.968504 2.195189
vt -0.748031 1.131058
vt 0.748031 1.131058
vt -1.295629 -0.748031
vt -1.968504 3.552557
vt 1.968504 3.552557
vt -1.968504 2.195189
vt 1.968504 2.195189
vt 1.968504 3.552557
vt -1.968504 3.552557
vt -1.968504 2.195189
vt 1.968504 2.195189
vt 0.748031 1.131058
vt -0.748031 1.131058
vt 1.295629 0.748031
vt 2.421260 2.041526
vt 2.421260 4.684160
vt -2.421260 2.041526
vt -2.421260 4.684160
vt -2.421260 2.041526
vt -2.421260 4.684160
vt 2.421260 4.684160
vt 2.421260 2.041526
vt 2.421260 2.041526
vt -2.421260 2.041526
vt 2.421260 4.684160
vt -2.421260 4.684160
vt 2.421260 2.041526
vt -2.421260 2.041526
vt -2.421260 4.684160
vt 2.421260 4.684160
vt 2.421260 2.041526
vt -2.421260 2.041526
vt 2.421260 4.684160
vt -2.421260 4.684160
vt 2.421260 2.041526
vt -2.421260 4.684160
vt -2.421260 2.041526
vt 2.421260 4.684160
s 0
usemtl brown.019
f 3/7/1 2/3/1 1/1/1
f 2/3/1 3/7/1 4/9/1
f 7/19/2 6/18/2 5/13/2
f 6/18/2 7/19/2 8/23/2
f 6/17/3 9/25/3 5/14/3
f 9/25/3 6/17/3 10/30/3
f 7/20/4 11/31/4 8/24/4
f 11/31/4 7/20/4 12/33/4
f 10/29/5 2/4/5 9/26/5
f 2/4/5 10/29/5 1/2/5
f 12/34/6 3/8/6 11/32/6
f 3/8/6 12/34/6 4/10/6
f 15/45/7 14/41/7 13/37/7
f 14/41/7 15/45/7 16/48/7
f 19/57/8 18/54/8 17/51/8
f 18/54/8 19/57/8 20/61/8
f 20/62/9 21/65/9 18/55/9
f 21/65/9 20/62/9 22/68/9
f 19/58/10 24/76/10 23/72/10
f 24/76/10 19/58/10 17/52/10
f 24/77/11 13/38/11 23/73/11
f 13/38/11 24/77/11 15/46/11
f 21/66/12 14/42/12 16/49/12
f 14/42/12 21/66/12 22/69/12
f 17/53/13 15/47/13 24/78/13
f 15/47/13 17/53/13 16/50/13
f 16/50/13 17/53/13 18/56/13
f 16/50/13 18/56/13 21/67/13
f 3/8/14 1/2/14 10/30/14 6/18/14 8/24/14 11/32/14
f 5/15/15 26/83/15 25/79/15
f 26/83/15 5/15/15 9/27/15
f 26/84/16 13/39/16 25/80/16
f 13/39/16 26/84/16 23/74/16
f 7/21/17 25/81/17 27/87/17
f 25/81/17 7/21/17 5/16/17
f 12/35/18 27/88/18 28/91/18
f 27/88/18 12/35/18 7/22/18
f 29/95/19 12/36/19 28/92/19
f 12/36/19 29/95/19 4/11/19
f 2/5/20 29/96/20 30/99/20
f 29/96/20 2/5/20 4/12/20
f 22/70/21 29/97/21 28/93/21
f 29/97/21 22/70/21 20/63/21
f 26/85/22 19/59/22 23/75/22
f 19/59/22 26/85/22 30/100/22
f 9/28/23 30/101/23 26/86/23
f 30/101/23 9/28/23 2/6/23
f 27/89/24 13/40/24 14/43/24
f 13/40/24 27/89/24 25/82/24
f 30/102/25 20/64/25 19/60/25
f 20/64/25 30/102/25 29/98/25
f 28/94/26 14/44/26 22/71/26
f 14/44/26 28/94/26 27/90/26
o onion.001
v 0.000000 0.024080 0.242513
v 0.023669 0.012040 0.242513
v -0.023669 -0.012040 0.242513
v 0.000000 -0.024080 0.242513
v -0.023669 0.012040 0.242513
v 0.023669 -0.012040 0.242513
v 0.000000 -0.009237 0.319097
v -0.009080 -0.004618 0.319097
v 0.009080 -0.004618 0.319097
v 0.009080 0.004618 0.319097
v -0.009080 0.004618 0.319097
v 0.000000 0.009237 0.319097
vn -0.4468 -0.8783 0.1702
vn 0.9823 -0.0000 0.1871
vn -0.4468 0.8783 0.1702
vn 0.4468 -0.8783 0.1702
vn 0.4468 0.8783 0.1702
vn -0.9823 -0.0000 0.1871
vn -0.0000 -0.0000 1.0000
vn -0.0000 -0.0000 -1.0000
vt 0.806102 6.550411
vt -0.806102 6.550411
vt -0.806102 6.550411
vt 0.806102 6.550411
vt 0.806102 6.550411
vt -0.806102 6.550411
vt 0.806102 6.550411
vt -0.806102 6.550411
vt 0.806102 6.550411
vt -0.806102 6.550411
vt 0.806102 6.550411
vt -0.806102 6.550411
vt 0.309213 9.064513
vt -0.309213 9.064513
vt -0.000000 -0.618425
vt -0.309213 9.064513
vt 0.309213 9.064513
vt -0.535572 -0.309213
vt -0.309213 9.064513
vt 0.309213 9.064513
vt 0.535572 -0.309213
vt 0.309213 9.064513
vt -0.309213 9.064513
vt 0.535572 0.309213
vt 0.309213 9.064513
vt -0.309213 9.064513
vt -0.535572 0.309213
vt -0.309213 9.064513
vt 0.309213 9.064513
vt -0.000000 0.618425
s 0
usemtl brown.019
f 37/115/27 33/108/27 34/109/27
f 33/108/27 37/115/27 38/118/27
f 32/106/28 39/121/28 36/114/28
f 39/121/28 32/106/28 40/124/28
f 41/127/29 31/104/29 35/111/29
f 31/104/29 41/127/29 42/130/29
f 39/122/30 34/110/30 36/113/30
f 34/110/30 39/122/30 37/116/30
f 42/131/31 32/105/31 31/103/31
f 32/105/31 42/131/31 40/125/31
f 38/119/32 35/112/32 33/107/32
f 35/112/32 38/119/32 41/128/32
f 37/117/33 41/129/33 38/120/33
f 41/129/33 37/117/33 42/132/33
f 42/132/33 37/117/33 39/123/33
f 42/132/33 39/123/33 40/126/33
f 32/106/34 36/114/34 34/110/34 33/108/34 35/112/34 31/104/34
