# Blender 3.4.1
# www.blender.org
mtllib shallot.mtl
o onion
v 0.000000 0.012040 0.121257
v 0.000000 0.029402 0.095729
v 0.011835 0.006020 0.121257
v 0.028901 0.014701 0.095729
v -0.028901 -0.014701 0.095729
v -0.011835 -0.006020 0.121257
v 0.000000 -0.029402 0.095729
v 0.000000 -0.012040 0.121257
v -0.028901 0.014701 0.095729
v -0.011835 0.006020 0.121257
v 0.011835 -0.006020 0.121257
v 0.028901 -0.014701 0.095729
v -0.028901 -0.014701 0.019146
v 0.000000 -0.029402 0.019146
v -0.010982 -0.005586 0.000000
v 0.000000 -0.011173 0.000000
v 0.000000 0.011173 0.000000
v 0.010982 0.005586 0.000000
v 0.000000 0.029402 0.019146
v 0.028901 0.014701 0.019146
v 0.010982 -0.005586 0.000000
v 0.028901 -0.014701 0.019146
v -0.028901 0.014701 0.019146
v -0.010982 0.005586 0.000000
v 0.000000 -0.004618 0.159549
v -0.004540 -0.002309 0.159549
v 0.004540 -0.002309 0.159549
v 0.004540 0.002309 0.159549
v -0.004540 0.002309 0.159549
v 0.000000 0.004618 0.159549
v -0.035547 -0.018082 0.057438
v -0.035547 0.018082 0.057438
v 0.000000 -0.036164 0.057438
v 0.035547 -0.018082 0.057438
v 0.035547 0.018082 0.057438
v 0.000000 0.036164 0.057438
vn 0.3877 0.7622 0.5184
vn -0.3877 -0.7622 0.5184
vn -0.8313 -0.0000 0.5558
vn 0.3877 -0.7622 0.5184
vn -0.3877 0.7622 0.5184
vn 0.8313 -0.0000 0.5558
vn -0.3457 -0.6796 -0.6470
vn -0.3457 -0.6796 -0.6471
vn 0.3457 0.6796 -0.6471
vn 0.3457 0.6796 -0.6470
vn 0.7301 -0.0000 -0.6833
vn -0.3457 0.6796 -0.6470
vn -0.3457 0.6796 -0.6471
vn -0.7301 -0.0000 -0.6833
vn 0.3457 -0.6796 -0.6471
vn 0.3457 -0.6796 -0.6470
vn -0.0000 -0.0000 -1.0000
vn -0.4468 -0.8783 0.1702
vn 0.9823 -0.0000 0.1871
vn -0.4468 0.8783 0.1702
vn 0.4468 -0.8783 0.1702
vn 0.4468 0.8783 0.1702
vn -0.9823 -0.0000 0.1871
vn -0.0000 -0.0000 1.0000
vn -0.9853 -0.0000 0.1710
vn -0.9853 -0.0000 -0.1710
vn -0.4479 -0.8805 0.1555
vn 0.4479 -0.8805 0.1555
vn 0.9853 -0.0000 0.1710
vn 0.4479 0.8805 0.1555
vn 0.9853 -0.0000 -0.1710
vn -0.4479 0.8805 -0.1555
vn -0.4479 0.8805 0.1555
vn -0.4479 -0.8805 -0.1555
vn 0.4479 0.8805 -0.1555
vn 0.4479 -0.8805 -0.1555
vt 0.806102 3.508883
vt -0.806102 3.508883
vt -0.806102 6.550411
vt 0.806102 6.550411
vt 1.968504 0.952804
vt -1.968504 0.952804
vt 1.968504 4.530497
vt -1.968504 4.530497
vt -0.806102 3.508883
vt 0.806102 3.508883
vt 0.806102 6.550411
vt -0.806102 6.550411
vt -1.968504 0.952804
vt 1.968504 0.952804
vt 1.968504 4.530497
vt -1.968504 4.530497
vt -1.968504 0.952804
vt 1.968504 0.952804
vt 1.968504 4.530497
vt -1.968504 4.530497
vt -0.806102 3.508883
vt 0.806102 3.508883
vt -0.806102 6.550411
vt 0.806102 6.550411
vt 1.968504 0.952804
vt -1.968504 0.952804
vt 1.968504 4.530497
vt -1.968504 4.530497
vt 0.806102 3.508883
vt -0.806102 3.508883
vt 0.806102 6.550411
vt -0.806102 6.550411
vt -1.968504 0.952804
vt 1.968504 0.952804
vt -1.968504 4.530497
vt 1.968504 4.530497
vt -0.806102 3.508883
vt 0.806102 3.508883
vt 0.806102 6.550411
vt -0.806102 6.550411
vt 0.806102 3.508883
vt -0.806102 3.508883
vt -0.806102 6.550411
vt 0.806102 6.550411
vt 1.968504 0.952804
vt -1.968504 0.952804
vt 1.968504 4.530497
vt -1.968504 4.530497
vt -1.968504 3.552557
vt 1.968504 3.552557
vt 1.968504 2.195189
vt -1.968504 2.195189
vt 1.968504 3.552557
vt -1.968504 3.552557
vt 1.968504 2.195189
vt -1.968504 2.195189
vt -0.748031 1.131058
vt 0.748031 1.131058
vt 1.295629 -0.748031
vt 0.748031 1.131058
vt -0.748031 1.131058
vt -0.000000 -1.496063
vt 0.748031 1.131058
vt -0.748031 1.131058
vt -0.000000 1.496063
vt -0.748031 1.131058
vt 0.748031 1.131058
vt -1.295629 0.748031
vt 1.968504 3.552557
vt -1.968504 3.552557
vt -1.968504 2.195189
vt 1.968504 2.195189
vt -1.968504 3.552557
vt 1.968504 3.552557
vt 1.968504 2.195189
vt -1.968504 2.195189
vt -0.748031 1.131058
vt 0.748031 1.131058
vt -1.295629 -0.748031
vt -1.968504 3.552557
vt 1.968504 3.552557
vt -1.968504 2.195189
vt 1.968504 2.195189
vt 1.968504 3.552557
vt -1.968504 3.552557
vt -1.968504 2.195189
vt 1.968504 2.195189
vt 0.748031 1.131058
vt -0.748031 1.131058
vt 1.295629 0.748031
vt 0.309213 9.064513
vt -0.309213 9.064513
vt -0.000000 -0.618425
vt -0.309213 9.064513
vt 0.309213 9.064513
vt -0.535572 -0.309213
vt -0.309213 9.064513
vt 0.309213 9.064513
vt 0.535572 -0.309213
vt 0.309213 9.064513
vt -0.309213 9.064513
vt 0.535572 0.309213
vt 0.309213 9.064513
vt -0.309213 9.064513
vt -0.535572 0.309213
vt -0.309213 9.064513
vt 0.309213 9.064513
vt -0.000000 0.618425
vt 2.421260 2.041526
vt 2.421260 4.684160
vt -2.421260 2.041526
vt -2.421260 4.684160
vt -2.421260 2.041526
vt -2.421260 4.684160
vt 2.421260 4.684160
vt 2.421260 2.041526
vt 2.421260 2.041526
vt -2.421260 2.041526
vt 2.421260 4.684160
vt -2.421260 4.684160
vt 2.421260 2.041526
vt -2.421260 2.041526
vt -2.421260 4.684160
vt 2.421260 4.684160
vt 2.421260 2.041526
vt -2.421260 2.041526
vt 2.421260 4.684160
vt -2.421260 4.684160
vt 2.421260 2.041526
vt -2.421260 4.684160
vt -2.421260 2.041526
vt 2.421260 4.684160
s 0
usemtl brown.019
f 3/9/1 2/5/1 1/1/1
f 2/5/1 3/9/1 4/13/1
f 7/25/2 6/21/2 5/17/2
f 6/21/2 7/25/2 8/29/2
f 6/22/3 9/33/3 5/18/3
f 9/33/3 6/22/3 10/37/3
f 7/26/4 11/41/4 8/30/4
f 11/41/4 7/26/4 12/45/4
f 10/38/5 2/6/5 9/34/5
f 2/6/5 10/38/5 1/2/5
f 12/46/6 3/10/6 11/42/6
f 3/10/6 12/46/6 4/14/6
f 15/57/7 14/53/7 13/49/7
f 14/53/8 15/57/8 16/60/8
f 19/69/9 18/66/9 17/63/9
f 18/66/10 19/69/10 20/73/10
f 20/74/11 21/77/11 18/67/11
f 21/77/11 20/74/11 22/80/11
f 19/70/12 24/88/12 23/84/12
f 24/88/13 19/70/13 17/64/13
f 24/89/14 13/50/14 23/85/14
f 13/50/14 24/89/14 15/58/14
f 21/78/15 14/54/15 16/61/15
f 14/54/16 21/78/16 22/81/16
f 17/65/17 15/59/17 24/90/17
f 15/59/17 17/65/17 16/62/17
f 16/62/17 17/65/17 18/68/17
f 16/62/17 18/68/17 21/79/17
f 25/91/18 6/23/18 8/31/18
f 6/23/18 25/91/18 26/94/18
f 3/11/19 27/97/19 11/43/19
f 27/97/19 3/11/19 28/100/19
f 29/103/20 1/3/20 10/39/20
f 1/3/20 29/103/20 30/106/20
f 27/98/21 8/32/21 11/44/21
f 8/32/21 27/98/21 25/92/21
f 30/107/22 3/12/22 1/4/22
f 3/12/22 30/107/22 28/101/22
f 26/95/23 10/40/23 6/24/23
f 10/40/23 26/95/23 29/104/23
f 25/93/24 29/105/24 26/96/24
f 29/105/24 25/93/24 30/108/24
f 30/108/24 25/93/24 27/99/24
f 30/108/24 27/99/24 28/102/24
f 5/19/25 32/113/25 31/109/25
f 32/113/25 5/19/25 9/35/25
f 32/114/26 13/51/26 31/110/26
f 13/51/26 32/114/26 23/86/26
f 7/27/27 31/111/27 33/117/27
f 31/111/27 7/27/27 5/20/27
f 12/47/28 33/118/28 34/121/28
f 33/118/28 12/47/28 7/28/28
f 35/125/29 12/48/29 34/122/29
f 12/48/29 35/125/29 4/15/29
f 2/7/30 35/126/30 36/129/30
f 35/126/30 2/7/30 4/16/30
f 22/82/31 35/127/31 34/123/31
f 35/127/31 22/82/31 20/75/31
f 32/115/32 19/71/32 23/87/32
f 19/71/32 32/115/32 36/130/32
f 9/36/33 36/131/33 32/116/33
f 36/131/33 9/36/33 2/8/33
f 33/119/34 13/52/34 14/55/34
f 13/52/34 33/119/34 31/112/34
f 36/132/35 20/76/35 19/72/35
f 20/76/35 36/132/35 35/128/35
f 34/124/36 14/56/36 22/83/36
f 14/56/36 34/124/36 33/120/36
