# Blender v2.78 (sub 0) OBJ File: 'tmp_MSPrep.blend'
# www.blender.org
mtllib kitchen_sink_visual.mtl
o kitchenSink_ID13
v 0.299300 0.385565 -0.132304
v 0.299300 0.353565 0.111627
v 0.299300 0.385565 0.312608
v 0.299300 -0.222435 0.312608
v 0.299300 -0.222435 0.111627
v 0.299300 0.353565 0.068677
v 0.299300 -0.222435 -0.132304
v 0.299300 -0.222435 0.068676
v 0.342251 0.353565 -0.268442
v -0.345749 0.353565 -0.268442
v 0.342251 0.353565 -0.175255
v -0.345749 0.353565 -0.175255
v 0.342251 -0.302435 -0.268442
v 0.342251 -0.302435 0.355558
v 0.342251 0.385565 0.355558
v 0.342251 0.385565 -0.175255
v -0.302799 -0.222435 -0.132304
v -0.302799 -0.222435 0.068676
v -0.302799 0.353565 0.111627
v -0.302799 -0.222435 0.111627
v -0.302799 0.385565 -0.132304
v -0.345749 -0.302435 -0.268442
v -0.345749 -0.302435 0.355558
v -0.345749 0.385565 -0.175255
v -0.302799 0.353565 0.068677
v -0.302799 0.385565 0.312608
v -0.302799 -0.222435 0.312608
v -0.345749 0.385565 0.355558
v -0.259655 -0.104349 0.312608
v -0.259655 0.267478 0.312608
v 0.256156 -0.104349 0.312608
v 0.256156 0.267478 0.312608
v -0.345749 0.417565 0.355558
v 0.342251 0.417565 0.355558
v 0.342251 0.417565 0.403558
v 0.342251 -0.254435 0.403558
v 0.342251 -0.254435 0.451558
v 0.342251 -0.302435 0.451558
v -0.345749 -0.302435 0.451558
v -0.345749 -0.254435 0.451558
v -0.345749 0.417565 0.403558
v -0.345749 -0.254435 0.403558
v -0.236443 0.267478 0.243558
v -0.236443 -0.104349 0.243558
v 0.256156 -0.104349 0.403558
v -0.259655 -0.104349 0.403558
v 0.232945 -0.104349 0.243558
v 0.232945 0.267478 0.243558
v -0.259655 0.267478 0.403558
v 0.256156 0.267478 0.403558
v -0.001749 0.129565 0.243558
v -0.043319 0.057565 0.243558
v -0.043319 0.105565 0.243558
v -0.001749 0.033565 0.243558
v 0.039821 0.105565 0.243558
v 0.039821 0.057565 0.243558
v -0.020610 -0.161098 0.403558
v 0.027390 -0.161098 0.403558
v 0.027390 -0.209098 0.403558
v -0.020610 -0.209098 0.403558
v -0.020610 -0.195040 0.501499
v 0.027390 -0.195040 0.501499
v -0.020610 -0.190319 0.505640
v 0.027390 -0.190319 0.505640
v -0.020610 -0.185098 0.509128
v 0.027390 -0.185098 0.509128
v 0.027390 -0.161098 0.435558
v 0.027390 -0.209098 0.435558
v 0.027390 -0.017099 0.467558
v 0.027390 -0.017509 0.473824
v 0.027390 -0.161098 0.467558
v 0.027390 -0.018735 0.479982
v 0.027390 -0.020752 0.485928
v 0.027390 -0.023530 0.491558
v 0.027390 -0.027018 0.496779
v 0.027390 -0.031157 0.501499
v 0.027390 -0.035879 0.505640
v 0.027390 -0.041098 0.509128
v 0.027390 -0.046730 0.511904
v 0.027390 -0.052675 0.513923
v 0.027390 -0.058834 0.515147
v 0.027390 -0.065098 0.515558
v 0.027390 -0.161098 0.515558
v 0.027390 -0.209098 0.467558
v 0.027390 -0.167363 0.515147
v 0.027390 -0.173522 0.513923
v 0.027390 -0.179467 0.511904
v 0.027390 -0.199179 0.496779
v 0.027390 -0.202667 0.491558
v 0.027390 -0.205445 0.485928
v 0.027390 -0.207463 0.479982
v 0.027390 -0.208688 0.473824
v -0.020610 -0.173522 0.513923
v -0.020610 -0.167363 0.515147
v -0.020610 -0.208688 0.473824
v -0.020610 -0.207463 0.479982
v -0.020610 -0.179467 0.511904
v -0.020610 -0.209098 0.435558
v 0.075390 -0.209098 0.467558
v 0.075390 -0.209098 0.435558
v -0.068610 -0.209098 0.435558
v -0.068610 -0.209098 0.467558
v -0.020610 -0.209098 0.467558
v -0.020610 -0.017099 0.467558
v -0.020610 -0.161098 0.467558
v -0.020610 -0.065098 0.515558
v -0.020610 -0.161098 0.515558
v -0.020610 -0.205445 0.485928
v -0.020610 -0.202667 0.491558
v -0.020610 -0.199179 0.496779
v -0.020610 -0.017509 0.473824
v -0.020610 -0.018735 0.479982
v -0.020610 -0.020752 0.485928
v -0.020610 -0.023530 0.491558
v -0.020610 -0.027018 0.496779
v -0.020610 -0.031157 0.501499
v -0.020610 -0.035879 0.505640
v -0.020610 -0.041098 0.509128
v -0.020610 -0.046730 0.511904
v -0.020610 -0.052675 0.513923
v -0.020610 -0.058834 0.515147
v 0.075390 -0.161098 0.467558
v 0.075390 -0.161098 0.435558
v -0.068610 -0.161098 0.435558
v -0.068610 -0.161098 0.467558
v -0.020610 -0.161098 0.435558
vt -0.7874 3.3498
vt -1.5748 9.3521
vt -0.7874 14.2975
vt -15.7480 14.2975
vt -15.7480 9.3521
vt -1.5748 8.2952
vt -15.7480 3.3498
vt -15.7480 8.2952
vt 16.9291 0.0000
vt 0.0000 0.0000
vt 16.9291 2.2930
vt 0.0000 2.2930
vt 1.5748 0.0000
vt 1.5748 2.2930
vt 17.7165 0.0000
vt 17.7165 15.3543
vt 0.7874 15.3543
vt 0.7874 2.2930
vt 15.8723 3.3498
vt 1.0569 3.3498
vt 15.8723 8.2952
vt 1.0569 8.2952
vt 1.0569 1.5748
vt 1.0569 15.7480
vt 15.8723 1.5748
vt 15.8723 15.7480
vt 1.0569 0.7874
vt 1.0569 15.7480
vt 15.8723 0.7874
vt 15.8723 15.7480
vt 0.0000 0.0000
vt -16.9291 0.0000
vt 0.0000 15.3543
vt -16.9291 15.3543
vt 0.0000 1.5748
vt 0.0000 0.7874
vt -16.9291 1.5748
vt -16.9291 0.7874
vt 15.8723 8.2952
vt 1.0569 8.2952
vt 15.8723 9.3521
vt 1.0569 9.3521
vt -1.0569 15.7480
vt -1.0569 1.5748
vt -15.8723 15.7480
vt -15.8723 1.5748
vt 0.7874 14.2975
vt 1.5748 8.2952
vt 0.7874 3.3498
vt 15.7480 3.3498
vt 15.7480 8.2952
vt 1.5748 9.3521
vt 15.7480 14.2975
vt 15.7480 9.3521
vt 0.0000 17.7165
vt 0.0000 1.5748
vt -16.9291 17.7165
vt -16.9291 1.5748
vt 15.8723 9.3521
vt 1.0569 9.3521
vt 15.8723 14.2975
vt 1.0569 14.2975
vt -0.7874 15.3543
vt -0.7874 2.2930
vt -17.7165 15.3543
vt -1.5748 2.2930
vt -1.5748 0.0000
vt -17.7165 0.0000
vt 0.0000 2.2930
vt 15.8723 3.3498
vt 16.9291 2.2930
vt 16.9291 15.3543
vt 15.8723 14.2975
vt 1.0569 14.2975
vt 1.0569 3.3498
vt 0.0000 15.3543
vt -1.0569 0.7874
vt -2.1185 12.8424
vt -1.0569 15.7480
vt -15.8723 15.7480
vt -2.1185 3.6931
vt -14.8107 12.8424
vt -14.8107 3.6931
vt -15.8723 0.7874
vt 0.0000 0.0000
vt -16.9291 0.0000
vt 0.0000 0.7874
vt -16.9291 0.7874
vt 0.0000 15.3543
vt 0.0000 16.5354
vt 16.5354 16.5354
vt 16.5354 17.7165
vt 17.7165 17.7165
vt 0.0000 17.7165
vt -16.9291 17.7165
vt 16.9291 17.7165
vt 0.0000 16.5354
vt 16.9291 16.5354
vt 16.9291 15.3543
vt 0.0000 15.3543
vt 16.9291 16.5354
vt 0.0000 16.5354
vt -16.5354 17.7165
vt -16.5354 16.5354
vt -17.7165 17.7165
vt 3.6931 11.0847
vt 3.6931 12.8772
vt 12.8424 11.0847
vt 12.8424 12.8772
vt 14.8107 14.2975
vt 2.1185 14.2975
vt 14.8107 16.5354
vt 2.1185 16.5354
vt 2.6896 12.5984
vt 14.2395 12.5984
vt 16.9291 16.5354
vt 0.0000 16.5354
vt 16.9291 17.7165
vt 0.0000 17.7165
vt -2.6896 12.5984
vt -14.2395 12.5984
vt -2.1185 14.2975
vt -14.8107 14.2975
vt -2.1185 16.5354
vt -14.8107 16.5354
vt 8.4646 7.0866
vt 7.4417 8.8583
vt 7.4417 7.6772
vt 8.4646 9.4488
vt 9.4874 7.6772
vt 9.4874 8.8583
vt 14.2395 3.6931
vt 2.6896 3.6931
vt 2.6896 12.8424
vt 14.2395 12.8424
vt 2.1185 12.8424
vt 8.0005 14.2388
vt 14.8107 12.8424
vt 9.1816 14.2388
vt 9.1816 15.4199
vt 8.0005 15.4199
vt 2.1185 3.6931
vt 0.0000 0.0000
vt 16.9291 0.0000
vt 14.8107 3.6931
vt -3.6931 16.5354
vt -3.6931 14.2975
vt -12.8424 16.5354
vt -12.8424 14.2975
vt 3.6931 14.2975
vt 3.6931 16.5354
vt 12.8424 14.2975
vt 12.8424 16.5354
vt -3.6931 18.2715
vt -3.6931 16.4790
vt -12.8424 18.2715
vt -12.8424 16.4790
vt 14.2388 17.3228
vt 15.4199 17.3228
vt 14.2388 16.5354
vt 15.4199 16.5354
vt 10.6955 18.1102
vt 10.7056 18.2644
vt 14.2388 18.1102
vt 10.7357 18.4159
vt 10.7854 18.5622
vt 10.8537 18.7008
vt 10.9395 18.8292
vt 11.0414 18.9454
vt 11.1575 19.0473
vt 11.2860 19.1331
vt 11.4246 19.2014
vt 11.5709 19.2511
vt 11.7224 19.2812
vt 11.8766 19.2913
vt 14.2388 19.2913
vt 15.4199 18.1102
vt 14.3929 19.2812
vt 14.5445 19.2511
vt 14.6907 19.2014
vt 14.8293 19.1331
vt 14.9578 19.0473
vt 15.0739 18.9454
vt 15.1758 18.8292
vt 15.2616 18.7008
vt 15.3300 18.5622
vt 15.3796 18.4159
vt 15.4098 18.2644
vt -8.0005 16.5354
vt -9.1816 16.5354
vt -8.0005 17.3228
vt -9.1816 17.3228
vt -10.3627 18.1102
vt -10.3627 17.3228
vt -6.8194 17.3228
vt -9.1816 18.1102
vt -6.8194 18.1102
vt -8.0005 18.1102
vt -8.0005 10.6955
vt -9.1816 10.6955
vt -8.0005 14.2388
vt -9.1816 14.2388
vt 8.0005 11.8766
vt 8.0005 14.2388
vt 9.1816 11.8766
vt 9.1816 14.2388
vt -10.6955 18.1102
vt -14.2388 18.1102
vt -10.7056 18.2644
vt -10.7357 18.4159
vt -10.7854 18.5622
vt -10.8537 18.7008
vt -10.9395 18.8292
vt -11.0414 18.9454
vt -11.1575 19.0473
vt -11.2860 19.1331
vt -11.4246 19.2014
vt -11.5709 19.2511
vt -11.7224 19.2812
vt -11.8766 19.2913
vt -14.2388 19.2913
vt -14.3929 19.2812
vt -15.4199 18.1102
vt -14.5445 19.2511
vt -14.6907 19.2014
vt -14.8293 19.1331
vt -14.9578 19.0473
vt -15.0739 18.9454
vt -15.1758 18.8292
vt -15.2616 18.7008
vt -15.3300 18.5622
vt -15.3796 18.4159
vt -15.4098 18.2644
vt 9.1816 15.4199
vt 10.3627 15.4199
vt 9.1816 14.2388
vt 10.3627 14.2388
vt 14.2388 17.3228
vt 14.2388 18.1102
vt 15.4199 17.3228
vt 15.4199 18.1102
vt -9.1816 15.4199
vt -9.1816 14.2388
vt -10.3627 15.4199
vt -10.3627 14.2388
vt -14.2388 17.3228
vt -15.4199 17.3228
vt -14.2388 18.1102
vt -15.4199 18.1102
vt 6.8194 15.4199
vt 8.0005 15.4199
vt 6.8194 14.2388
vt 8.0005 14.2388
vt -6.8194 15.4199
vt -6.8194 14.2388
vt -8.0005 15.4199
vt -8.0005 14.2388
vt 10.3627 17.3228
vt 9.1816 17.3228
vt 10.3627 18.1102
vt 8.0005 17.3228
vt 6.8194 17.3228
vt 8.0005 18.1102
vt 6.8194 18.1102
vt 9.1816 18.1102
vt 8.0005 16.5354
vt 9.1816 16.5354
vt -14.2388 17.3228
vt -14.2388 16.5354
vt -15.4199 17.3228
vt -15.4199 16.5354
vt -9.1816 -10.3548
vt -8.0005 -10.3548
vt -9.1816 -10.5093
vt -9.1816 -10.3548
vt -8.0005 -10.3548
vt -9.1816 -10.5093
vt -8.0005 1.1584
vt -9.1816 1.1584
vt -8.0005 1.3129
vt -9.1816 1.3129
vt -8.0005 -1.7003
vt -8.0005 -1.8548
vt -9.1816 -1.7003
vt -9.1816 -1.8548
vt -8.0005 -10.5093
vt -9.1816 -10.5093
vt -8.0005 -10.3548
vt -9.1816 -10.3548
vt -9.1816 14.9072
vt -9.1816 15.0617
vt -8.0005 14.9072
vt -8.0005 15.0617
vt -8.0005 -7.5845
vt -8.0005 -7.7390
vt -9.1816 -7.5845
vt -9.1816 -7.7390
vt -9.1816 12.4950
vt -9.1816 12.6495
vt -8.0005 12.4950
vt -8.0005 12.6495
vt -9.1816 7.0702
vt -9.1816 7.2247
vt -8.0005 7.0702
vt -8.0005 7.2247
vt -8.0005 -13.1011
vt -9.1816 -13.1011
vt -8.0005 -12.9466
vt -9.1816 -12.9466
vt -9.1816 9.8677
vt -9.1816 10.0222
vt -8.0005 9.8677
vt -8.0005 10.0222
vt -9.1816 17.0630
vt -9.1816 17.2174
vt -8.0005 17.0630
vt -8.0005 17.2174
vt -8.0005 -4.8376
vt -9.1816 -4.8376
vt -8.0005 -4.6832
vt -9.1816 -4.6832
vt -9.1816 4.1505
vt -9.1816 4.3050
vt -8.0005 4.1505
vt -8.0005 4.3050
vt 8.0005 21.5791
vt 8.0005 21.7336
vt 9.1816 21.5791
vt 9.1816 21.7336
vt 8.0005 15.1042
vt 8.0005 15.2587
vt 9.1816 15.1042
vt 9.1816 15.2587
vt 8.0005 21.4182
vt 8.0005 21.5727
vt 9.1816 21.4182
vt 9.1816 21.5727
vt 8.0005 12.9583
vt 8.0005 13.1128
vt 9.1816 12.9583
vt 9.1816 13.1128
vt 8.0005 16.9904
vt 8.0005 17.1449
vt 9.1816 16.9904
vt 9.1816 17.1449
vt 8.0005 18.5845
vt 8.0005 18.7390
vt 9.1816 18.5845
vt 9.1816 18.7390
vt 8.0005 19.8593
vt 8.0005 20.0138
vt 9.1816 19.8593
vt 9.1816 20.0138
vt 8.0005 20.7929
vt 8.0005 20.9474
vt 9.1816 20.7929
vt 9.1816 20.9474
vt 8.0005 21.3695
vt 8.0005 21.5240
vt 9.1816 21.3695
vt 9.1816 21.5240
vt 8.0005 20.8895
vt 8.0005 21.0440
vt 9.1816 20.8895
vt 9.1816 21.0440
vt 8.0005 20.0020
vt 8.0005 20.1565
vt 9.1816 20.0020
vt 9.1816 20.1565
vt 9.1816 18.7710
vt 8.0005 18.7710
vt 9.1816 18.9255
vt 8.0005 18.9255
vn -1.0000 -0.0000 0.0000
vn 0.0000 1.0000 0.0000
vn 1.0000 0.0000 0.0000
vn 0.0000 -0.0000 1.0000
vn 0.0000 -1.0000 0.0000
vn 0.0000 0.0000 -1.0000
vn 0.9479 0.0000 0.3186
vn 0.0001 0.0000 -1.0000
vn -0.9479 0.0000 0.3186
vn -0.6926 -0.5100 0.5100
vn 0.6926 -0.5100 0.5100
vn -0.6926 -0.4390 0.5722
vn 0.6926 -0.4390 0.5722
vn -0.6926 -0.3606 0.6246
vn 0.6926 -0.3606 0.6246
vn -0.6926 -0.1867 0.6967
vn 0.6926 -0.1867 0.6967
vn -0.6927 -0.0941 0.7150
vn 0.6927 -0.0941 0.7150
vn 0.6926 -0.7151 0.0941
vn 0.6927 -0.6966 0.1867
vn -0.6926 -0.7151 0.0941
vn -0.6927 -0.6966 0.1867
vn -0.6927 -0.2760 0.6663
vn 0.6927 -0.2760 0.6663
vn 0.6926 -0.6663 0.2760
vn -0.6926 -0.6663 0.2760
vn 0.6927 -0.6246 0.3606
vn 0.6926 -0.5722 0.4390
vn -0.6927 -0.6246 0.3606
vn -0.6926 -0.5722 0.4390
vn -0.6998 -0.0234 0.7139
vn 0.6998 -0.0234 0.7139
vn 0.3045 -0.9523 0.0207
vn -0.3855 -0.4014 0.8308
vn -0.6927 0.6246 0.3606
vn -0.6926 0.5722 0.4390
vn 0.6927 0.6246 0.3606
vn 0.6926 0.5722 0.4390
vn -0.6926 0.1867 0.6967
vn -0.6927 0.0941 0.7150
vn 0.6926 0.1867 0.6967
vn 0.6927 0.0941 0.7150
vn -0.6926 0.6663 0.2760
vn 0.6926 0.6663 0.2760
vn -0.6998 0.0234 0.7140
vn 0.6998 0.0234 0.7140
vn -0.6927 0.2759 0.6663
vn 0.6927 0.2759 0.6663
vn -0.6926 0.3606 0.6247
vn 0.6926 0.3606 0.6247
vn -0.6927 0.4391 0.5722
vn 0.6927 0.4391 0.5722
vn -0.6926 0.5100 0.5100
vn 0.6926 0.5100 0.5100
vn -0.6927 0.6966 0.1867
vn 0.6927 0.6966 0.1867
vn -0.6926 0.7151 0.0941
vn 0.6926 0.7151 0.0941
vn 0.5740 0.5976 -0.5598
vn -0.5740 0.5976 -0.5598
usemtl metalLight
s off
f 1/1/1 2/2/1 3/3/1
f 4/4/1 3/3/1 2/2/1
f 5/5/1 4/4/1 2/2/1
f 2/2/1 1/1/1 6/6/1
f 7/7/1 6/6/1 1/1/1
f 8/8/1 6/6/1 7/7/1
f 9/9/2 10/10/2 11/11/2
f 12/12/2 11/11/2 10/10/2
f 9/13/3 11/14/3 13/15/3
f 13/15/3 11/14/3 14/16/3
f 14/16/3 11/14/3 15/17/3
f 16/18/3 15/17/3 11/14/3
f 7/19/2 17/20/2 8/21/2
f 18/22/2 8/21/2 17/20/2
f 19/23/4 20/24/4 2/25/4
f 5/26/4 2/25/4 20/24/4
f 21/27/4 17/28/4 1/29/4
f 7/30/4 1/29/4 17/28/4
f 22/31/5 13/32/5 23/33/5
f 14/34/5 23/33/5 13/32/5
f 12/35/6 24/36/6 11/37/6
f 16/38/6 11/37/6 24/36/6
f 6/39/2 25/40/2 2/41/2
f 19/42/2 2/41/2 25/40/2
f 18/43/6 25/44/6 8/45/6
f 6/46/6 8/45/6 25/44/6
f 26/47/3 25/48/3 21/49/3
f 17/50/3 21/49/3 25/48/3
f 18/51/3 17/50/3 25/48/3
f 25/48/3 26/47/3 19/52/3
f 27/53/3 19/52/3 26/47/3
f 20/54/3 19/52/3 27/53/3
f 22/55/6 10/56/6 13/57/6
f 9/58/6 13/57/6 10/56/6
f 5/59/2 20/60/2 4/61/2
f 27/62/2 4/61/2 20/60/2
f 28/63/1 24/64/1 23/65/1
f 12/66/1 23/65/1 24/64/1
f 10/67/1 23/65/1 12/66/1
f 22/68/1 23/65/1 10/67/1
f 24/69/2 1/70/2 16/71/2
f 15/72/2 16/71/2 1/70/2
f 3/73/2 15/72/2 1/70/2
f 26/74/2 15/72/2 3/73/2
f 1/70/2 24/69/2 21/75/2
f 28/76/2 21/75/2 24/69/2
f 26/74/2 21/75/2 28/76/2
f 15/72/2 26/74/2 28/76/2
f 26/77/6 29/78/6 27/79/6
f 4/80/6 27/79/6 29/78/6
f 30/81/6 29/78/6 26/77/6
f 31/82/6 4/80/6 29/78/6
f 32/83/6 4/80/6 31/82/6
f 3/84/6 4/80/6 32/83/6
f 26/77/6 3/84/6 30/81/6
f 32/83/6 30/81/6 3/84/6
f 33/85/6 34/86/6 28/87/6
f 15/88/6 28/87/6 34/86/6
f 34/89/3 35/90/3 15/17/3
f 36/91/3 15/17/3 35/90/3
f 14/16/3 15/17/3 36/91/3
f 37/92/3 14/16/3 36/91/3
f 38/93/3 14/16/3 37/92/3
f 23/33/5 14/34/5 39/94/5
f 38/95/5 39/94/5 14/34/5
f 39/94/4 38/96/4 40/97/4
f 37/98/4 40/97/4 38/96/4
f 34/99/2 33/100/2 35/101/2
f 41/102/2 35/101/2 33/100/2
f 40/103/1 42/104/1 39/105/1
f 39/105/1 42/104/1 23/65/1
f 23/65/1 42/104/1 28/63/1
f 28/63/1 42/104/1 33/100/1
f 41/102/1 33/100/1 42/104/1
f 43/106/7 30/107/7 44/108/7
f 29/109/7 44/108/7 30/107/7
f 31/110/2 29/111/2 45/112/2
f 46/113/2 45/112/2 29/111/2
f 29/111/2 31/110/2 44/114/2
f 47/115/2 44/114/2 31/110/2
f 36/116/2 42/117/2 37/118/2
f 40/119/2 37/118/2 42/117/2
f 43/120/5 48/121/5 30/122/5
f 32/123/5 30/122/5 48/121/5
f 30/122/5 32/123/5 49/124/5
f 50/125/5 49/124/5 32/123/5
f 51/126/6 52/127/6 53/128/6
f 52/127/6 51/126/6 54/129/6
f 54/129/6 51/126/6 55/130/6
f 54/129/6 55/130/6 56/131/6
f 53/128/6 48/132/6 51/126/6
f 51/126/6 48/132/6 55/130/6
f 55/130/6 48/132/6 56/131/6
f 53/128/6 43/133/6 48/132/6
f 43/133/6 53/128/6 44/134/6
f 52/127/6 44/134/6 53/128/6
f 44/134/6 52/127/6 47/135/6
f 47/135/8 52/127/8 54/129/8
f 47/135/6 54/129/6 56/131/6
f 47/135/6 56/131/6 48/132/6
f 46/136/4 57/137/4 45/138/4
f 58/139/4 45/138/4 57/137/4
f 59/140/4 45/138/4 58/139/4
f 57/137/4 46/136/4 60/141/4
f 46/136/4 42/117/4 60/141/4
f 36/116/4 60/141/4 42/117/4
f 59/140/4 60/141/4 36/116/4
f 45/138/4 59/140/4 36/116/4
f 49/142/4 42/117/4 46/136/4
f 42/117/4 49/142/4 41/143/4
f 35/144/4 41/143/4 49/142/4
f 35/144/4 45/138/4 36/116/4
f 50/145/4 35/144/4 49/142/4
f 45/138/4 35/144/4 50/145/4
f 50/146/1 32/147/1 45/148/1
f 31/149/1 45/148/1 32/147/1
f 30/150/3 49/151/3 29/152/3
f 46/153/3 29/152/3 49/151/3
f 32/154/9 48/155/9 31/156/9
f 47/157/9 31/156/9 48/155/9
f 67/158/3 68/159/3 58/160/3
f 59/161/3 58/160/3 68/159/3
f 69/162/3 70/163/3 71/164/3
f 72/165/3 71/164/3 70/163/3
f 73/166/3 71/164/3 72/165/3
f 74/167/3 71/164/3 73/166/3
f 75/168/3 71/164/3 74/167/3
f 76/169/3 71/164/3 75/168/3
f 77/170/3 71/164/3 76/169/3
f 78/171/3 71/164/3 77/170/3
f 79/172/3 71/164/3 78/171/3
f 80/173/3 71/164/3 79/172/3
f 81/174/3 71/164/3 80/173/3
f 82/175/3 71/164/3 81/174/3
f 83/176/3 71/164/3 82/175/3
f 84/177/3 71/164/3 83/176/3
f 85/178/3 84/177/3 83/176/3
f 86/179/3 84/177/3 85/178/3
f 87/180/3 84/177/3 86/179/3
f 66/181/3 84/177/3 87/180/3
f 64/182/3 84/177/3 66/181/3
f 62/183/3 84/177/3 64/182/3
f 88/184/3 84/177/3 62/183/3
f 89/185/3 84/177/3 88/184/3
f 90/186/3 84/177/3 89/185/3
f 91/187/3 84/177/3 90/186/3
f 92/188/3 84/177/3 91/187/3
f 60/189/5 59/190/5 98/191/5
f 68/192/5 98/191/5 59/190/5
f 98/191/5 68/192/5 99/193/5
f 100/194/5 99/193/5 68/192/5
f 101/195/5 98/191/5 99/193/5
f 84/196/5 101/195/5 99/193/5
f 102/197/5 101/195/5 84/196/5
f 103/198/4 102/197/4 84/196/4
f 104/199/6 69/200/6 105/201/6
f 71/202/6 105/201/6 69/200/6
f 106/203/4 107/204/4 82/205/4
f 83/206/4 82/205/4 107/204/4
f 104/207/1 105/208/1 111/209/1
f 112/210/1 111/209/1 105/208/1
f 113/211/1 112/210/1 105/208/1
f 114/212/1 113/211/1 105/208/1
f 115/213/1 114/212/1 105/208/1
f 116/214/1 115/213/1 105/208/1
f 117/215/1 116/214/1 105/208/1
f 118/216/1 117/215/1 105/208/1
f 119/217/1 118/216/1 105/208/1
f 120/218/1 119/217/1 105/208/1
f 121/219/1 120/218/1 105/208/1
f 106/220/1 121/219/1 105/208/1
f 107/221/1 106/220/1 105/208/1
f 94/222/1 107/221/1 105/208/1
f 103/223/1 94/222/1 105/208/1
f 93/224/1 94/222/1 103/223/1
f 97/225/1 93/224/1 103/223/1
f 65/226/1 97/225/1 103/223/1
f 63/227/1 65/226/1 103/223/1
f 61/228/1 63/227/1 103/223/1
f 110/229/1 61/228/1 103/223/1
f 109/230/1 110/229/1 103/223/1
f 108/231/1 109/230/1 103/223/1
f 96/232/1 108/231/1 103/223/1
f 95/233/1 96/232/1 103/223/1
f 84/234/4 99/235/4 71/236/4
f 122/237/4 71/236/4 99/235/4
f 123/238/3 122/239/3 100/240/3
f 99/241/3 100/240/3 122/239/3
f 68/242/6 67/243/6 100/244/6
f 123/245/6 100/244/6 67/243/6
f 124/246/1 101/247/1 125/248/1
f 102/249/1 125/248/1 101/247/1
f 102/250/4 103/251/4 125/252/4
f 105/253/4 125/252/4 103/251/4
f 101/254/6 124/255/6 98/256/6
f 126/257/6 98/256/6 124/255/6
f 123/258/2 67/259/2 122/260/2
f 126/261/2 122/260/2 67/259/2
f 124/262/2 122/260/2 126/261/2
f 105/263/2 122/260/2 124/262/2
f 125/264/2 105/263/2 124/262/2
f 71/265/6 122/260/6 105/263/6
f 126/261/2 67/259/2 57/266/2
f 58/267/2 57/266/2 67/259/2
f 126/268/1 57/269/1 98/270/1
f 60/271/1 98/270/1 57/269/1
f 103/272/6 105/273/6 84/274/6
f 71/275/6 84/276/6 105/277/6
s 1
f 61/278/10 62/279/11 63/280/12
f 64/281/13 63/280/12 62/279/11
f 65/282/14 63/283/12 66/284/15
f 64/285/13 66/284/15 63/283/12
f 93/286/16 86/287/17 94/288/18
f 85/289/19 94/288/18 86/287/17
f 92/290/20 91/291/21 95/292/22
f 96/293/23 95/292/22 91/291/21
f 93/294/16 97/295/24 86/296/17
f 87/297/25 86/296/17 97/295/24
f 91/298/21 90/299/26 96/300/23
f 108/301/27 96/300/23 90/299/26
f 89/302/28 88/303/29 109/304/30
f 110/305/31 109/304/30 88/303/29
f 94/306/18 85/307/19 107/308/32
f 83/309/33 107/308/32 85/307/19
f 90/310/26 89/311/28 108/312/27
f 109/313/30 108/312/27 89/311/28
f 84/314/34 92/315/20 103/316/35
f 95/317/22 103/316/35 92/315/20
f 65/318/14 66/319/15 97/320/24
f 87/321/25 97/320/24 66/319/15
f 88/322/29 62/323/11 110/324/31
f 61/325/10 110/324/31 62/323/11
f 114/326/36 115/327/37 74/328/38
f 75/329/39 74/328/38 115/327/37
f 120/330/40 121/331/41 80/332/42
f 81/333/43 80/332/42 121/331/41
f 113/334/44 114/335/36 73/336/45
f 74/337/38 73/336/45 114/335/36
f 121/338/41 106/339/46 81/340/43
f 82/341/47 81/340/43 106/339/46
f 119/342/48 120/343/40 79/344/49
f 80/345/42 79/344/49 120/343/40
f 118/346/50 119/347/48 78/348/51
f 79/349/49 78/348/51 119/347/48
f 117/350/52 118/351/50 77/352/53
f 78/353/51 77/352/53 118/351/50
f 116/354/54 117/355/52 76/356/55
f 77/357/53 76/356/55 117/355/52
f 115/358/37 116/359/54 75/360/39
f 76/361/55 75/360/39 116/359/54
f 112/362/56 113/363/44 72/364/57
f 73/365/45 72/364/57 113/363/44
f 111/366/58 112/367/56 70/368/59
f 72/369/57 70/368/59 112/367/56
f 69/370/60 104/371/61 70/372/59
f 111/373/58 70/372/59 104/371/61
