# Blender v2.78 (sub 0) OBJ File: ''
# www.blender.org
mtllib bag_visual.mtl
o bag.000
v -0.055186 0.094069 -0.108270
v 0.051012 0.086863 -0.147320
v -0.051334 0.086863 -0.147320
v 0.054864 0.094069 -0.108270
v 0.051012 -0.104624 -0.147320
v 0.054864 -0.111831 -0.108270
v -0.051334 -0.104624 -0.147320
v -0.055186 -0.111831 -0.108270
v -0.043631 -0.090211 0.108280
v -0.043631 0.072450 0.108280
v 0.043308 0.072450 0.108280
v 0.031028 -0.084925 0.127805
v 0.043308 -0.090211 0.108280
v 0.018748 -0.079638 0.147330
v 0.018748 0.061877 0.147330
v 0.031028 0.067163 0.127805
v -0.019071 0.061877 0.147330
v -0.019071 -0.079638 0.147330
v -0.031351 -0.084925 0.127805
v -0.031351 0.067163 0.127805
v -0.026171 0.088809 0.152560
v 0.029398 0.088809 0.152560
vt 6.1024 6.3308
vt -5.6752 1.9270
vt 5.6752 1.9270
vt -6.1024 6.3308
vt -10.6181 0.5571
vt 11.4173 4.9088
vt -11.4173 4.9088
vt 10.6181 0.5571
vt -11.4173 4.9088
vt 10.6181 0.5571
vt 11.4173 4.9088
vt -10.6181 0.5571
vt 6.1024 6.3308
vt -5.6752 1.9270
vt 5.6752 1.9270
vt -6.1024 6.3308
vt 9.0197 28.0493
vt -11.4173 3.9994
vt 11.4173 3.9994
vt -9.0197 28.0493
vt 9.0197 21.4284
vt -8.4334 23.9865
vt -9.0197 21.4284
vt -7.8471 26.5445
vt 7.8471 26.5445
vt 8.4334 23.9865
vt 2.0971 -7.8471
vt -2.0971 7.8471
vt -2.0971 -7.8471
vt 2.0971 7.8471
vt 8.4334 23.9865
vt -9.0197 21.4284
vt 9.0197 21.4284
vt 7.8471 26.5445
vt -7.8471 26.5445
vt -8.4334 23.9865
vt -5.6752 10.6181
vt 5.6752 -10.6181
vt 5.6752 10.6181
vt -5.6752 -10.6181
vt 4.8209 27.3102
vt -6.1024 3.1751
vt 6.1024 3.1751
vt -4.8209 27.3102
vt 4.8209 27.3102
vt -6.1024 3.1751
vt 6.1024 3.1751
vt -4.8209 27.3102
vt 11.4173 3.9994
vt -9.0197 28.0493
vt -11.4173 3.9994
vt 9.0197 28.0493
vt 3.4590 27.2474
vt -4.8209 25.0040
vt 4.8209 25.0040
vt -3.4590 27.2474
vt 3.4590 27.2474
vt -4.8209 25.0040
vt 4.8209 25.0040
vt -3.4590 27.2474
vt -11.1649 30.2314
vt -9.1086 27.1653
vt -8.0895 29.5837
vt 11.1687 31.1327
vt 7.9672 30.4979
vt 9.0943 28.1279
vt -2.0971 13.9319
vt 3.2782 16.9745
vt -2.8845 16.9745
vt 2.0971 13.9319
vt 2.8845 32.1673
vt -3.4590 28.5205
vt 3.4590 28.5205
vt -3.2782 32.1673
vn 0.0000 0.9834 -0.1815
vn 0.9952 0.0000 -0.0982
vn -0.9952 0.0000 -0.0982
vn 0.0000 -0.9834 -0.1815
vn -0.9986 0.0000 0.0533
vn 0.8465 -0.0000 0.5324
vn 0.8036 -0.2817 0.5243
vn 0.0000 0.0000 1.0000
vn -0.8465 -0.0000 0.5324
vn -0.8084 -0.2692 0.5235
vn 0.0000 0.0000 -1.0000
vn 0.0000 -0.9951 0.0993
vn 0.0000 0.9951 0.0993
vn 0.9986 0.0000 0.0533
vn 0.0000 -0.9652 0.2613
vn 0.0000 -0.9653 0.2613
vn 0.0000 0.9652 0.2614
vn -0.8407 -0.3081 0.4453
vn 0.8199 -0.4032 0.4065
vn 0.0000 -0.1906 0.9817
vn 0.0000 0.7528 -0.6583
vn 0.0000 -0.9652 0.2614
usemtl brownLight.000
s 1
f 1/1/1 2/2/1 3/3/1
f 2/2/1 1/1/1 4/4/1
f 5/5/2 4/6/2 6/7/2
f 4/6/2 5/5/2 2/8/2
f 1/9/3 7/10/3 8/11/3
f 7/10/3 1/9/3 3/12/3
f 6/13/4 7/14/4 5/15/4
f 7/14/4 6/13/4 8/16/4
f 9/17/5 1/18/5 8/19/5
f 1/18/5 9/17/5 10/20/5
f 11/21/6 12/22/6 13/23/6
f 12/22/6 11/21/6 14/24/6
f 14/24/6 11/21/6 15/25/6
f 15/25/6 11/21/6 16/26/7
f 14/27/8 17/28/8 18/29/8
f 17/28/8 14/27/8 15/30/8
f 19/31/9 10/32/9 9/33/9
f 10/32/9 19/31/9 18/34/9
f 10/32/9 18/34/9 17/35/9
f 10/32/9 17/35/9 20/36/10
f 2/37/11 7/38/11 3/39/11
f 7/38/11 2/37/11 5/40/11
f 13/41/12 8/42/12 6/43/12
f 8/42/12 13/41/12 9/44/12
f 10/45/13 4/46/13 1/47/13
f 4/46/13 10/45/13 11/48/13
f 4/49/14 13/50/14 6/51/14
f 13/50/14 4/49/14 11/52/14
f 12/53/15 9/54/16 13/55/16
f 9/54/16 12/53/15 19/56/15
f 20/57/17 11/58/17 10/59/17
f 11/58/17 20/57/17 16/60/17
f 21/61/18 20/62/18 17/63/18
f 22/64/19 15/65/19 16/66/19
f 17/67/20 22/68/20 21/69/20
f 22/68/20 17/67/20 15/70/20
f 21/71/21 16/72/21 20/73/21
f 16/72/21 21/71/21 22/74/21
f 12/53/15 14/27/22 18/34/22 19/56/15
