# Blender 3.4.1
# www.blender.org
mtllib JarLid.mtl
o glass.001
v -0.065846 0.038016 -0.014023
v 0.000000 0.076032 -0.014023
v 0.000000 -0.076032 -0.014023
v -0.065846 -0.038016 -0.014023
v 0.065846 -0.038016 -0.014023
v 0.065846 0.038016 -0.014023
v 0.065846 -0.038016 0.007011
v 0.065846 0.038016 0.007011
v -0.000000 0.061410 0.007011
v -0.053182 0.030705 0.007011
v 0.000000 -0.061410 0.007011
v -0.053182 -0.030705 0.007011
v -0.065846 0.038016 0.007011
v 0.000000 0.076032 0.007011
v -0.065846 -0.038016 0.007011
v 0.053182 0.030705 0.007011
v 0.000000 -0.076032 0.007011
v 0.053182 -0.030705 0.007011
vn -0.5000 0.8660 -0.0000
vn -0.5000 -0.8660 -0.0000
vn 0.5000 -0.8660 -0.0000
vn -1.0000 -0.0000 -0.0000
vn 1.0000 -0.0000 -0.0000
vn 0.5000 0.8660 -0.0000
vn -0.0000 -0.0000 1.0000
vn -0.0000 -0.0000 -1.0000
vt 0.000000 0.000000
vt 0.000000 0.000000
vt 0.000000 0.000000
vt 0.000000 0.000000
vt 0.000000 0.000000
vt 0.000000 0.000000
vt 0.000000 0.000000
vt 0.000000 0.000000
vt 0.000000 0.000000
vt 0.000000 0.000000
vt 0.000000 0.000000
vt 0.000000 0.000000
vt 0.000000 0.000000
vt 0.000000 0.000000
vt 0.000000 0.000000
vt 0.000000 0.000000
vt 0.000000 0.000000
vt 0.000000 0.000000
s 0
usemtl _defaultMat
f 2/2/1 1/1/1 13/13/1 14/14/1
f 4/4/2 3/3/2 17/17/2 15/15/2
f 3/3/3 5/5/3 7/7/3 17/17/3
f 1/1/4 4/4/4 15/15/4 13/13/4
f 5/5/5 6/6/5 8/8/5 7/7/5
f 6/6/6 2/2/6 14/14/6 8/8/6
f 16/16/7 11/11/7 18/18/7
f 12/12/7 11/11/7 16/16/7
f 9/9/7 10/10/7 16/16/7
f 12/12/7 16/16/7 10/10/7
f 15/15/7 12/12/7 13/13/7
f 12/12/7 15/15/7 17/17/7
f 12/12/7 17/17/7 11/11/7
f 11/11/7 17/17/7 7/7/7
f 11/11/7 7/7/7 18/18/7
f 18/18/7 7/7/7 16/16/7
f 10/10/7 13/13/7 12/12/7
f 13/13/7 10/10/7 14/14/7
f 14/14/7 10/10/7 9/9/7
f 14/14/7 9/9/7 16/16/7
f 14/14/7 16/16/7 8/8/7
f 8/8/7 16/16/7 7/7/7
f 6/6/8 3/3/8 4/4/8
f 5/5/8 3/3/8 6/6/8
f 6/6/8 4/4/8 2/2/8
f 2/2/8 4/4/8 1/1/8
