# Blender 3.4.1
# www.blender.org
mtllib WireRack.mtl
o bakingTray1.001_ID14.001
v 0.174410 -0.033203 0.017268
v 0.194078 -0.036831 0.035432
v 0.175888 -0.033415 0.034543
v 0.192448 -0.036598 0.016380
v -0.159739 0.148701 0.034543
v -0.178154 0.132291 0.034543
v -0.158791 0.147384 0.017268
v -0.176677 0.131446 0.017268
v 0.157473 0.148701 0.034543
v 0.175888 0.132291 0.034543
v 0.156525 0.147384 0.017268
v 0.174410 0.131446 0.017268
v -0.178154 -0.132838 0.034543
v -0.159739 -0.149249 0.034543
v -0.176677 -0.131993 0.017268
v -0.158791 -0.147932 0.017268
v 0.175888 -0.132838 0.034543
v 0.157473 -0.149249 0.034543
v 0.156525 -0.147932 0.017268
v 0.174410 -0.131993 0.017268
v -0.176677 0.007804 0.017268
v -0.175039 0.162572 0.016380
v -0.176085 0.164025 0.035432
v -0.196395 0.145926 0.035432
v -0.194765 0.144994 0.016380
v 0.172723 0.162572 0.016380
v 0.173768 0.164025 0.035432
v 0.194078 0.145926 0.035432
v -0.178154 0.007856 0.034543
v -0.194765 0.008629 0.016380
v 0.192448 0.144994 0.016380
v -0.194765 -0.145553 0.016380
v -0.196395 -0.146485 0.035432
v -0.175039 -0.163132 0.016380
v -0.176085 -0.164584 0.035432
v -0.196395 0.008686 0.035432
v 0.194078 -0.146485 0.035432
v 0.172723 -0.163132 0.016380
v 0.173768 -0.164584 0.035432
v 0.192448 -0.145553 0.016380
v -0.196395 0.036272 0.035432
v -0.194765 0.036039 0.016380
v -0.178154 0.032868 0.034543
v -0.176677 0.032656 0.017268
v -0.194765 -0.036943 0.016380
v -0.176677 -0.033517 0.017268
v -0.178154 -0.033730 0.034543
v -0.196395 -0.037179 0.035432
v -0.196395 0.126446 0.035432
v -0.194765 0.125638 0.016380
v -0.178154 0.114628 0.034543
v -0.176677 0.113896 0.017268
v -0.196395 0.054548 0.035432
v -0.194765 0.054198 0.016380
v -0.178154 0.049438 0.034543
v -0.176677 0.049121 0.017268
v 0.192448 0.081437 0.016380
v 0.194078 0.081961 0.035432
v 0.174410 0.073819 0.017268
v 0.175888 0.074294 0.034543
v 0.192448 0.099596 0.016380
v 0.174410 0.090284 0.017268
v 0.175888 0.090865 0.034543
v 0.194078 0.100237 0.035432
v -0.194765 -0.054930 0.016380
v -0.176677 -0.049825 0.017268
v -0.178154 -0.050143 0.034543
v -0.196395 -0.055280 0.035432
v -0.194765 -0.127394 0.016380
v -0.176677 -0.115528 0.017268
v -0.178154 -0.116267 0.034543
v -0.196395 -0.128209 0.035432
v -0.175039 0.162572 -0.007686
v -0.158791 0.147384 -0.006798
v 0.192448 -0.145553 -0.007686
v -0.194765 0.144994 -0.007686
v -0.176677 0.131446 -0.006798
v 0.172723 0.162572 -0.007686
v 0.172723 -0.163132 -0.007686
v 0.174410 -0.131993 -0.006798
v 0.156525 -0.147932 -0.006798
v -0.194765 -0.145553 -0.007686
v -0.176677 -0.131993 -0.006798
v -0.175039 -0.163132 -0.007686
v -0.158791 -0.147932 -0.006798
v 0.192448 0.144994 -0.007686
v 0.174410 0.131446 -0.006798
v 0.156525 0.147384 -0.006798
v 0.175888 0.032868 0.034543
v 0.194078 0.036272 0.035432
v 0.192448 0.036039 0.016380
v 0.174410 0.032656 0.017268
v 0.174410 -0.090831 0.017268
v 0.175888 -0.091412 0.034543
v 0.192448 -0.100155 0.016380
v 0.194078 -0.100796 0.035432
v 0.194078 0.054548 0.035432
v 0.192448 0.054198 0.016380
v 0.174410 0.049121 0.017268
v 0.175888 0.049438 0.034543
v 0.194078 0.127650 0.035432
v 0.192448 0.126835 0.016380
v 0.174410 0.114981 0.017268
v 0.175888 0.115720 0.034543
v 0.175888 -0.050197 0.034543
v 0.192448 -0.054990 0.016380
v 0.194078 -0.055341 0.035432
v 0.174410 -0.049879 0.017268
v 0.175888 -0.116267 0.034543
v 0.174410 -0.115528 0.017268
v 0.192448 -0.127394 0.016380
v 0.194078 -0.128209 0.035432
v 0.194078 -0.082520 0.035432
v 0.192448 -0.081996 0.016380
v 0.175888 -0.074841 0.034543
v 0.174410 -0.074366 0.017268
v 0.175888 0.007901 0.034543
v 0.194078 0.008737 0.035432
v 0.192448 0.008679 0.016380
v 0.174410 0.007849 0.017268
v 0.192448 -0.009359 0.016380
v 0.194078 -0.009417 0.035432
v 0.174410 -0.008506 0.017268
v 0.175888 -0.008559 0.034543
v -0.194765 -0.009445 0.016380
v -0.176677 -0.008584 0.017268
v -0.178154 -0.008638 0.034543
v -0.196395 -0.009504 0.035432
v -0.196395 0.081877 0.035432
v -0.194765 0.081354 0.016380
v -0.178154 0.074218 0.034543
v -0.176677 0.073743 0.017268
v -0.196395 0.099986 0.035432
v -0.194765 0.099347 0.016380
v -0.178154 0.090637 0.034543
v -0.176677 0.090057 0.017268
v -0.194765 -0.082232 0.016380
v -0.176677 -0.074580 0.017268
v -0.178154 -0.075057 0.034543
v -0.196395 -0.082758 0.035432
v -0.194765 -0.100173 0.016380
v -0.176677 -0.090847 0.017268
v -0.178154 -0.091428 0.034543
v -0.196395 -0.100814 0.035432
vn -0.3749 -0.7981 0.4716
vn 0.4304 0.7269 -0.5352
vn -0.2449 0.3911 -0.8872
vn 0.2887 0.3863 -0.8760
vn 0.2048 -0.2056 0.9570
vn 0.2213 -0.5695 0.7917
vn -0.3018 0.7610 0.5743
vn -0.7851 0.3386 0.5186
vn -0.1498 0.4266 -0.8920
vn 0.1362 0.7351 0.6641
vn -0.4454 -0.0474 0.8941
vn 0.4954 0.7319 -0.4678
vn -0.6049 -0.1784 0.7761
vn 0.2999 -0.6603 0.6885
vn -0.2226 0.8801 0.4193
vn 0.1150 0.9852 0.1272
vn 0.2075 0.5390 0.8163
vn 0.9469 -0.0229 -0.3206
vn -0.0159 -0.1032 -0.9945
vn 0.2054 -0.0372 0.9780
vn -0.7851 -0.3386 0.5186
vn -0.3018 -0.7610 0.5743
vn 0.3365 -0.4962 -0.8003
vn -0.2295 0.7047 0.6713
vn 0.1502 0.0435 0.9877
vn 0.0703 0.5868 -0.8067
vn -0.6692 -0.0784 -0.7390
vn -0.9620 -0.2154 -0.1679
vn -0.6867 0.0797 0.7226
vn 0.3889 -0.7643 -0.5144
vn 0.4227 -0.0372 -0.9055
vn 0.9639 0.0311 -0.2646
vn -0.9189 0.2943 -0.2629
vn -0.1869 0.9700 -0.1555
vn 0.3255 -0.7282 -0.6032
vn 0.4520 -0.5570 -0.6968
vn -0.2235 -0.9540 -0.1997
vn -0.7886 -0.0440 -0.6134
vn 0.0136 -0.8288 -0.5594
vn 0.7085 -0.6495 0.2761
vn 0.7281 -0.6815 0.0736
vn 0.0593 0.7976 -0.6002
vn 0.1501 0.8912 -0.4280
vn 0.2866 -0.9266 -0.2433
vn 0.9605 -0.1908 0.2027
vn 0.8550 -0.5044 0.1206
vn 0.3363 -0.9141 0.2267
vn -0.5074 0.0988 -0.8561
vn -0.0999 -0.1158 -0.9882
vn -0.8053 0.0531 -0.5904
vn 0.3346 -0.3038 -0.8920
vn -0.0153 -0.0592 -0.9981
vn 0.3331 0.0085 0.9429
vn 0.4665 0.0122 0.8844
vn -0.1307 0.5125 -0.8487
vn 0.6787 0.0126 -0.7343
vn 0.7142 -0.6998 0.0151
vn -0.0151 0.0591 -0.9981
vn 0.3150 0.2679 0.9105
vn -0.6252 -0.0710 -0.7772
vn -0.6138 -0.0598 -0.7872
vn -0.7658 0.0604 0.6403
vn -0.7639 0.0634 0.6422
vn 0.0002 -1.0000 -0.0031
vn -0.5769 -0.0072 -0.8168
vn 0.0346 -0.4252 -0.9044
vn -0.7139 -0.0262 -0.6997
vn -0.7160 -0.0141 -0.6980
vn -0.4144 0.4253 -0.8046
vn -0.6875 -0.0690 -0.7229
vn -0.6679 0.0587 0.7420
vn -0.7533 0.0750 0.6534
vn -0.6696 0.0625 0.7401
vn -0.6839 -0.0721 -0.7260
vn -0.6818 0.0767 0.7275
vn -0.7696 0.0525 0.6363
vn -0.5965 -0.0207 -0.8024
vn 0.3250 0.0102 0.9456
vn 0.3454 0.0001 0.9385
vn 0.6802 -0.0090 -0.7330
vn -0.0925 -0.3603 -0.9283
vn -0.5969 0.0197 -0.8021
vn -0.6805 0.0748 -0.7289
vn -0.6727 -0.0674 0.7368
vn 0.0226 0.0009 0.9997
vn -0.7023 0.0536 -0.7099
vn -0.6655 -0.0558 0.7443
vn 0.0348 -0.4252 -0.9044
vn 0.0338 0.0013 0.9994
vn -0.7727 0.0438 0.6333
vn 0.3558 0.0006 0.9345
vn -0.0353 0.8816 -0.4706
vn -0.6999 -0.0551 -0.7121
vn -0.7498 0.0777 0.6571
vn 0.1821 0.6871 0.7033
vn 0.6125 -0.7652 0.1984
vn -0.2710 0.8786 0.3931
vn -0.1000 -0.6648 0.7403
vn 0.0333 0.0099 0.9994
vn 0.7968 -0.0315 -0.6034
vn 0.5944 0.5470 -0.5895
vn 0.2246 0.5829 -0.7808
vn 0.6379 -0.6204 -0.4563
vn 0.6371 0.6943 -0.3348
vn 0.0443 -0.6617 0.7485
vn -0.0196 0.3589 -0.9332
vn -0.7391 -0.0268 0.6731
vn -0.8785 -0.0529 0.4748
vn 0.3090 -0.3746 -0.8742
vn 0.8860 0.4440 0.1335
vn -0.0494 0.2379 -0.9700
vn 0.9971 -0.0110 0.0751
vn 0.9971 0.0048 0.0765
vn 0.9964 -0.0000 0.0852
vn 0.7474 -0.4339 0.5031
vn 0.0735 -0.7373 -0.6715
vn 0.9908 0.0975 -0.0936
vn 0.9967 -0.0088 0.0806
vn 0.9972 0.0099 0.0740
vn 0.7484 0.4454 0.4914
vn 0.7466 -0.4238 0.5129
vn 0.9971 -0.0112 0.0753
vn 0.9971 0.0046 0.0764
vn 0.7468 -0.4271 0.5097
vn -0.5108 -0.5738 0.6402
vn -0.7499 0.3043 0.5875
vn -0.9964 -0.0000 0.0852
vn -0.6211 -0.7562 0.2057
vn 0.2225 -0.5520 -0.8036
vn -0.2504 0.5314 -0.8093
vn -0.7992 0.0134 -0.6009
vn -0.7980 -0.0393 -0.6013
vn -0.7424 0.0152 0.6698
vn 0.1036 -0.4801 0.8711
vn 0.2789 0.5120 -0.8125
vn -0.5127 0.5960 0.6180
vn -0.6985 -0.1543 -0.6988
vn -0.5104 -0.5692 0.6446
vn 0.4928 -0.6232 -0.6072
vn 0.9367 -0.3233 -0.1342
vn -0.1327 0.7646 0.6307
vn 0.1458 0.4577 0.8771
vn 0.1478 0.5280 0.8363
vn 0.1659 0.2589 -0.9515
vn 0.2768 0.3681 -0.8876
vn 0.3117 -0.3525 0.8824
vn 0.6924 0.5597 0.4553
vn 0.7427 0.5701 0.3512
vn 0.6608 0.5632 -0.4961
vn 0.9289 -0.3498 0.1216
vn 0.5727 -0.0226 -0.8195
vn -0.0716 0.7653 0.6397
vn 0.2710 0.1966 -0.9423
vn 0.7814 -0.4134 -0.4675
vn 0.2801 0.0275 0.9596
vn 0.7671 -0.6271 0.1356
vn -0.4909 -0.2959 0.8194
vn -0.0000 0.9988 -0.0489
vn -0.2607 0.7084 0.6559
vn 0.4140 0.8089 0.4175
vn 0.0031 -0.9991 0.0426
vn -0.5738 0.5943 -0.5635
vn 0.4325 0.4390 -0.7875
vn 0.4383 -0.4332 -0.7875
vn -0.6722 -0.3031 -0.6755
vn -0.7562 -0.1522 0.6364
vn 0.1521 -0.7562 0.6364
vn -0.0000 -0.0000 1.0000
vn 0.0110 0.0101 0.9999
vn -0.0006 0.9994 -0.0336
vn 0.0002 -0.9996 0.0275
vn -0.0001 1.0000 -0.0030
vn -0.0000 0.9999 -0.0122
vn -0.0000 0.9998 -0.0183
vn -0.0009 0.9999 0.0123
vn -0.0002 -0.9998 -0.0184
vn -0.5951 -0.5730 -0.5635
vn -0.0000 -0.0000 -1.0000
vn 0.4332 0.4383 -0.7875
vn 0.0101 -0.0110 0.9999
vn -0.0006 0.9996 0.0275
vn -0.0000 -0.9994 -0.0336
vt 0.000000 0.000000
vt 0.000000 0.000000
vt 0.000000 0.000000
vt 0.000000 0.000000
vt 0.000000 0.000000
vt 0.000000 0.000000
vt 0.000000 0.000000
vt 0.000000 0.000000
vt 0.000000 0.000000
vt 0.000000 0.000000
vt 0.000000 0.000000
vt 0.000000 0.000000
vt 0.000000 0.000000
vt 0.000000 0.000000
vt 0.000000 0.000000
vt 0.000000 0.000000
vt 0.000000 0.000000
vt 0.000000 0.000000
vt 0.000000 0.000000
vt 0.000000 0.000000
vt 0.000000 0.000000
vt 0.000000 0.000000
vt 0.000000 0.000000
vt 0.000000 0.000000
vt 0.000000 0.000000
vt 0.000000 0.000000
vt 0.000000 0.000000
vt 0.000000 0.000000
vt 0.000000 0.000000
vt 0.000000 0.000000
vt 0.000000 0.000000
vt 0.000000 0.000000
vt 0.000000 0.000000
vt 0.000000 0.000000
vt 0.000000 0.000000
vt 0.000000 0.000000
vt 0.000000 0.000000
vt 0.000000 0.000000
vt 0.000000 0.000000
vt 0.000000 0.000000
vt 0.000000 0.000000
vt 0.000000 0.000000
vt 0.000000 0.000000
vt 0.000000 0.000000
vt 0.000000 0.000000
vt 0.000000 0.000000
vt 0.000000 0.000000
vt 0.000000 0.000000
vt 0.000000 0.000000
vt 0.000000 0.000000
vt 0.000000 0.000000
vt 0.000000 0.000000
vt 0.000000 0.000000
vt 0.000000 0.000000
vt 0.000000 0.000000
vt 0.000000 0.000000
vt 0.000000 0.000000
vt 0.000000 0.000000
vt 0.000000 0.000000
vt 0.000000 0.000000
vt 0.000000 0.000000
vt 0.000000 0.000000
vt 0.000000 0.000000
vt 0.000000 0.000000
vt 0.000000 0.000000
vt 0.000000 0.000000
vt 0.000000 0.000000
vt 0.000000 0.000000
vt 0.000000 0.000000
vt 0.000000 0.000000
vt 0.000000 0.000000
vt 0.000000 0.000000
vt 0.000000 0.000000
vt 0.000000 0.000000
vt 0.000000 0.000000
vt 0.000000 0.000000
vt 0.000000 0.000000
vt 0.000000 0.000000
vt 0.000000 0.000000
vt 0.000000 0.000000
vt 0.000000 0.000000
vt 0.000000 0.000000
vt 0.000000 0.000000
vt 0.000000 0.000000
vt 0.000000 0.000000
vt 0.000000 0.000000
vt 0.000000 0.000000
vt 0.000000 0.000000
vt 0.000000 0.000000
vt 0.000000 0.000000
vt 0.000000 0.000000
vt 0.000000 0.000000
vt 0.000000 0.000000
vt 0.000000 0.000000
vt 0.000000 0.000000
vt 0.000000 0.000000
vt 0.000000 0.000000
vt 0.000000 0.000000
vt 0.000000 0.000000
vt 0.000000 0.000000
vt 0.000000 0.000000
vt 0.000000 0.000000
vt 0.000000 0.000000
vt 0.000000 0.000000
vt 0.000000 0.000000
vt 0.000000 0.000000
vt 0.000000 0.000000
vt 0.000000 0.000000
vt 0.000000 0.000000
vt 0.000000 0.000000
vt 0.000000 0.000000
vt 0.000000 0.000000
vt 0.000000 0.000000
vt 0.000000 0.000000
vt 0.000000 0.000000
vt 0.000000 0.000000
vt 0.000000 0.000000
vt 0.000000 0.000000
vt 0.000000 0.000000
vt 0.000000 0.000000
vt 0.000000 0.000000
vt 0.000000 0.000000
vt 0.000000 0.000000
vt 0.000000 0.000000
vt 0.000000 0.000000
vt 0.000000 0.000000
vt 0.000000 0.000000
vt 0.000000 0.000000
vt 0.000000 0.000000
vt 0.000000 0.000000
vt 0.000000 0.000000
vt 0.000000 0.000000
vt 0.000000 0.000000
vt 0.000000 0.000000
vt 0.000000 0.000000
vt 0.000000 0.000000
vt 0.000000 0.000000
vt 0.000000 0.000000
vt 0.000000 0.000000
vt 0.000000 0.000000
vt 0.000000 0.000000
vt 0.000000 0.000000
vt 0.000000 0.000000
vt 0.000000 0.000000
s 1
usemtl metalMedium.002
f 11/11/1 26/26/2 78/78/3 88/88/4
f 6/6/5 5/5/6 23/23/7 24/24/8
f 19/19/9 18/18/10 17/17/11 20/20/12
f 9/9/13 10/10/14 28/28/15 27/27/16
f 14/14/17 16/16/18 15/15/19 13/13/20
f 14/14/17 13/13/20 33/33/21 35/35/22
f 110/110/23 109/109/24 94/94/25 93/93/26
f 69/69/27 32/32/28 33/33/21 72/72/29
f 102/102/30 31/31/31 28/28/15 101/101/32
f 25/25/33 24/24/8 23/23/7 22/22/34
f 22/22/34 23/23/7 27/27/16 26/26/2
f 27/27/16 28/28/15 31/31/31 26/26/2
f 103/103/35 12/12/36 31/31/31 102/102/30
f 34/34/37 32/32/28 82/82/38 84/84/39
f 32/32/28 34/34/37 35/35/22 33/33/21
f 22/22/34 7/7/40 74/74/41 73/73/42
f 70/70/43 15/15/19 32/32/28 69/69/27
f 38/38/44 40/40/45 37/37/46 39/39/47
f 31/31/31 12/12/36 87/87/48 86/86/49
f 25/25/33 22/22/34 73/73/42 76/76/50
f 12/12/36 11/11/1 88/88/4 87/87/48
f 8/8/51 25/25/33 76/76/50 77/77/52
f 43/43/53 29/29/54 21/21/55 44/44/56
f 14/14/17 18/18/10 19/19/9 16/16/18
f 17/17/11 18/18/10 39/39/47 37/37/46
f 15/15/19 16/16/18 85/85/57 83/83/58
f 71/71/59 72/72/29 33/33/21 13/13/20
f 30/30/60 125/125/61 128/128/62 36/36/63
s 0
f 127/127/64 126/126/64 123/123/64 124/124/64
s 1
f 21/21/55 126/126/65 125/125/61 30/30/60
f 56/56/66 54/54/67 130/130/68 132/132/69
f 134/134/70 130/130/68 129/129/71 133/133/72
f 54/54/67 53/53/73 129/129/71 130/130/68
f 137/137/74 140/140/75 68/68/76 65/65/77
f 140/140/75 139/139/78 67/67/79 68/68/76
f 138/138/80 142/142/81 141/141/82 137/137/74
f 54/54/67 42/42/83 41/41/84 53/53/73
f 56/56/66 44/44/56 42/42/83 54/54/67
f 55/55/85 53/53/73 41/41/84 43/43/53
f 41/41/84 36/36/63 29/29/54 43/43/53
f 125/125/61 45/45/86 48/48/87 128/128/62
f 126/126/65 46/46/88 45/45/86 125/125/61
f 135/135/89 133/133/72 129/129/71 131/131/89
f 69/69/27 72/72/29 144/144/90 141/141/82
f 72/72/29 71/71/59 143/143/91 144/144/90
f 136/136/92 134/134/70 50/50/93 52/52/65
f 134/134/70 133/133/72 49/49/94 50/50/93
f 97/97/95 58/58/96 60/60/97 100/100/98
f 25/25/33 50/50/93 49/49/94 24/24/8
f 8/8/51 52/52/65 50/50/93 25/25/33
f 6/6/5 24/24/8 49/49/94 51/51/99
f 44/44/56 21/21/55 30/30/60 42/42/83
f 120/120/100 92/92/101 91/91/102 119/119/103
f 42/42/83 30/30/60 36/36/63 41/41/84
f 61/61/104 64/64/105 58/58/96 57/57/106
f 64/64/105 101/101/32 104/104/107 63/63/108
f 45/45/86 65/65/77 68/68/76 48/48/87
f 46/46/88 66/66/109 65/65/77 45/45/86
f 47/47/85 48/48/87 68/68/76 67/67/79
f 19/19/9 20/20/12 80/80/110 81/81/111
f 71/71/59 70/70/43 142/142/81 143/143/91
s 0
f 127/127/112 47/47/113 46/46/114 126/126/115
s 1
f 40/40/45 38/38/44 79/79/116 75/75/117
f 7/7/40 8/8/51 77/77/52 74/74/41
f 8/8/51 7/7/40 5/5/6 6/6/5
f 16/16/18 19/19/9 38/38/44 34/34/37
f 39/39/47 35/35/22 34/34/37 38/38/44
f 14/14/17 35/35/22 39/39/47 18/18/10
f 16/16/18 34/34/37 84/84/39 85/85/57
s 0
f 51/51/118 135/135/119 136/136/120 52/52/121
f 131/131/122 55/55/123 56/56/114 132/132/124
s 1
f 32/32/28 15/15/19 83/83/58 82/82/38
f 83/83/58 85/85/57 84/84/39 82/82/38
f 12/12/36 10/10/14 9/9/13 11/11/1
s 0
f 123/123/125 1/1/126 3/3/127 124/124/128
s 1
f 26/26/2 31/31/31 86/86/49 78/78/3
f 62/62/129 63/63/108 104/104/107 103/103/35
f 74/74/41 77/77/52 76/76/50 73/73/42
f 20/20/12 40/40/45 75/75/117 80/80/110
f 99/99/130 100/100/98 60/60/97 59/59/131
f 116/116/132 115/115/133 105/105/134 108/108/135
s 0
f 120/120/136 117/117/137 89/89/127 92/92/138
s 1
f 81/81/111 80/80/110 75/75/117 79/79/116
f 38/38/44 19/19/9 81/81/111 79/79/116
f 66/66/109 67/67/79 139/139/78 138/138/80
f 87/87/48 88/88/4 78/78/3 86/86/49
f 9/9/13 5/5/6 7/7/40 11/11/1
f 104/104/107 101/101/32 28/28/15 10/10/14
f 123/123/100 120/120/100 119/119/103 121/121/139
f 59/59/131 57/57/106 98/98/140 99/99/130
f 124/124/141 122/122/142 118/118/143 117/117/141
f 116/116/132 108/108/135 106/106/144 114/114/145
f 96/96/146 113/113/147 115/115/133 94/94/25
f 114/114/145 106/106/144 107/107/148 113/113/147
f 98/98/140 57/57/106 58/58/96 97/97/95
f 60/60/97 58/58/96 64/64/105 63/63/108
f 106/106/144 4/4/149 2/2/150 107/107/148
f 108/108/135 1/1/151 4/4/149 106/106/144
f 105/105/134 107/107/148 2/2/150 3/3/152
f 111/111/153 95/95/154 96/96/146 112/112/155
f 116/116/132 93/93/26 142/142/81 138/138/80
f 110/110/23 93/93/26 95/95/154 111/111/153
f 117/117/141 118/118/143 90/90/156 89/89/157
f 119/119/103 91/91/102 90/90/156 118/118/143
f 1/1/151 123/123/100 121/121/139 4/4/149
f 61/61/104 102/102/30 101/101/32 64/64/105
f 113/113/147 107/107/148 105/105/134 115/115/133
f 62/62/129 103/103/35 102/102/30 61/61/104
f 115/115/133 139/139/78 143/143/91 94/94/25
f 17/17/11 13/13/20 15/15/19 20/20/12
f 91/91/102 98/98/140 97/97/95 90/90/156
f 92/92/101 99/99/130 98/98/140 91/91/102
f 89/89/157 90/90/156 97/97/95 100/100/98
f 59/59/131 62/62/129 61/61/104 57/57/106
f 51/51/99 104/104/107 10/10/14 6/6/5
s 0
f 10/10/158 12/12/159 8/8/160 6/6/158
f 51/51/161 52/52/161 103/103/161 104/104/161
f 103/103/162 52/52/163 8/8/164 12/12/165
f 60/60/166 63/63/167 135/135/168 131/131/169
s 1
f 136/136/92 62/62/129 59/59/131 132/132/69
f 135/135/170 63/63/108 62/62/129 136/136/92
f 95/95/154 114/114/145 113/113/147 96/96/146
f 112/112/155 96/96/146 94/94/25 109/109/24
f 116/116/132 114/114/145 95/95/154 93/93/26
f 40/40/45 111/111/153 112/112/155 37/37/46
f 20/20/12 110/110/23 111/111/153 40/40/45
f 17/17/11 37/37/46 112/112/155 109/109/24
f 2/2/150 122/122/142 124/124/141 3/3/152
f 4/4/149 121/121/139 122/122/142 2/2/150
s 0
f 131/131/171 132/132/171 59/59/171 60/60/171
s 1
f 11/11/1 7/7/40 22/22/34 26/26/2
f 109/109/24 71/71/59 13/13/20 17/17/11
f 70/70/43 110/110/23 20/20/12 15/15/19
f 71/71/59 109/109/24 110/110/23 70/70/43
f 121/121/139 119/119/103 118/118/143 122/122/142
s 0
f 29/29/172 117/117/172 120/120/172 21/21/172
s 1
f 29/29/54 36/36/63 128/128/62 127/127/89
s 0
f 43/43/173 89/89/173 92/92/173 44/44/173
f 55/55/174 100/100/174 99/99/174 56/56/174
f 47/47/175 3/3/175 1/1/175 46/46/175
f 67/67/176 66/66/176 108/108/176 105/105/176
f 21/21/164 120/120/177 123/123/178 126/126/179
f 117/117/167 29/29/180 127/127/168 124/124/166
s 1
f 46/46/88 1/1/151 108/108/135 66/66/109
f 67/67/79 105/105/134 3/3/152 47/47/85
f 56/56/66 99/99/130 92/92/101 44/44/56
f 43/43/53 89/89/157 100/100/98 55/55/85
f 127/127/89 128/128/62 48/48/87 47/47/85
f 53/53/73 55/55/85 131/131/89 129/129/71
f 133/133/72 135/135/89 51/51/99 49/49/94
f 136/136/92 132/132/69 130/130/68 134/134/70
f 139/139/78 140/140/75 144/144/90 143/143/91
f 137/137/74 141/141/82 144/144/90 140/140/75
f 70/70/43 69/69/27 141/141/82 142/142/81
s 0
f 139/139/181 115/115/181 116/116/181 138/138/181
f 143/143/182 142/142/182 93/93/182 94/94/182
s 1
f 138/138/80 137/137/74 65/65/77 66/66/109
f 9/9/13 27/27/16 23/23/7 5/5/6
