# Blender v2.78 (sub 0) OBJ File: 'tmp_MSPrep.blend'
# www.blender.org
mtllib boiler_visual.mtl
o barrel_ID9
v 0.290458 0.042902 -0.350038
v 0.290458 0.042902 -0.380038
v 0.270458 0.042902 -0.350038
v 0.201399 0.042902 -0.380038
v 0.201399 0.042902 -0.350038
v 0.221660 0.368052 0.179962
v -0.047352 0.338599 0.179962
v -0.059552 0.368052 0.179962
v -0.258399 0.169205 0.179962
v -0.228946 0.157005 0.179962
v -0.258399 -0.112007 0.179962
v -0.228946 -0.099807 0.179962
v -0.047352 -0.281401 0.179962
v -0.059552 -0.310854 0.179962
v 0.209460 -0.281401 0.179962
v 0.209460 0.338599 0.179962
v 0.420507 0.169205 0.179962
v 0.391054 0.157005 0.179962
v 0.420507 -0.112007 0.179962
v 0.391054 -0.099807 0.179962
v 0.221660 -0.310854 0.179962
v 0.195475 0.028599 -0.380038
v 0.290458 0.014296 -0.380038
v 0.201399 0.014296 -0.380038
v 0.290458 0.014296 -0.350038
v 0.270458 0.014296 -0.350038
v 0.201399 0.014296 -0.350038
v -0.059552 0.368052 0.239962
v -0.258399 0.169205 0.239962
v -0.258399 0.169205 -0.190038
v -0.258399 -0.112007 -0.190038
v -0.258399 0.169205 -0.130038
v -0.258399 -0.112007 -0.130038
v 0.420507 -0.112007 -0.190038
v 0.420507 0.169205 -0.190038
v 0.420507 -0.112007 -0.130038
v 0.420507 0.169205 -0.130038
v 0.221660 -0.310854 -0.130038
v -0.059552 -0.310854 -0.130038
v 0.221660 -0.310854 -0.190038
v -0.059552 -0.310854 -0.190038
v 0.221660 0.368052 0.239962
v 0.221660 0.368052 -0.190038
v -0.047352 0.338599 -0.190038
v -0.059552 0.368052 -0.190038
v -0.228946 0.157005 -0.190038
v -0.228946 -0.099807 -0.190038
v -0.047352 -0.281401 -0.190038
v 0.209460 -0.281401 -0.190038
v 0.209460 0.338599 -0.190038
v 0.391054 0.157005 -0.190038
v 0.391054 -0.099807 -0.190038
v 0.221660 0.368052 -0.130038
v -0.059552 0.368052 -0.130038
v -0.258399 -0.112007 0.239962
v 0.420507 -0.112007 0.239962
v 0.420507 0.169205 0.239962
v -0.059552 -0.310854 0.239962
v 0.207323 -0.000006 -0.350038
v 0.264534 -0.000006 -0.350038
v 0.235929 -0.011855 -0.350038
v 0.221660 -0.310854 0.239962
v 0.235929 0.069053 -0.350038
v 0.264534 0.057204 -0.350038
v 0.207323 0.057204 -0.350038
v 0.209460 0.338599 0.239962
v 0.391054 0.157005 0.239962
v 0.391054 -0.099807 0.239962
v 0.209460 -0.281401 0.239962
v -0.047352 -0.281401 0.239962
v -0.047352 0.338599 0.239962
v -0.228946 0.157005 0.239962
v -0.228946 -0.099807 0.239962
v 0.209460 0.338599 -0.130038
v 0.391054 0.157005 -0.130038
v 0.391054 -0.099807 -0.130038
v 0.209460 -0.281401 -0.130038
v -0.047352 -0.281401 -0.130038
v -0.047352 0.338599 -0.130038
v -0.228946 0.157005 -0.130038
v -0.228946 -0.099807 -0.130038
v 0.195475 0.028599 -0.303599
v 0.207323 -0.000006 -0.303599
v 0.264534 -0.000006 -0.303599
v 0.272556 0.019360 -0.350038
v 0.276382 0.028599 -0.350038
v 0.276382 0.028599 -0.303599
v 0.235929 0.069053 -0.303599
v 0.207323 0.057204 -0.303599
v 0.264534 0.057204 -0.303599
v 0.235929 -0.011855 -0.303599
v 0.209460 0.338599 -0.305038
v 0.391054 0.157005 -0.305038
v 0.190739 -0.236205 0.379962
v 0.190739 -0.236205 0.349962
v -0.028632 -0.236205 0.379962
v -0.028632 -0.236205 0.349962
v 0.345858 0.138285 0.349962
v 0.345858 0.138285 0.379962
v 0.190739 0.293403 0.349962
v 0.190739 0.293403 0.379962
v -0.228946 -0.099807 -0.305038
v -0.228946 0.157005 -0.305038
v 0.391054 -0.099807 -0.305038
v 0.209460 -0.281401 -0.305038
v -0.047352 -0.281401 -0.305038
v 0.345858 -0.081087 0.349962
v 0.345858 -0.081087 0.379962
v -0.183750 -0.081087 0.349962
v -0.183750 0.138285 0.349962
v -0.183750 -0.081087 0.379962
v -0.183750 0.138285 0.379962
v -0.047352 0.338599 -0.305038
v -0.028632 0.293403 0.349962
v -0.028632 0.293403 0.379962
v -0.195182 -0.085822 -0.305038
v -0.195182 0.143020 -0.305038
v -0.033367 0.304835 -0.305038
v 0.195475 0.304835 -0.305038
v 0.357290 0.143020 -0.305038
v -0.047352 0.338599 0.379962
v 0.209460 0.338599 0.379962
v 0.391054 0.157005 0.379962
v 0.391054 -0.099807 0.379962
v 0.209460 -0.281401 0.379962
v -0.228946 0.157005 0.379962
v -0.228946 -0.099807 0.379962
v -0.047352 -0.281401 0.379962
v 0.357290 -0.085822 -0.305038
v -0.033367 -0.247637 -0.305038
v 0.195475 -0.247637 -0.305038
vt -13.7795 5.1200
vt -14.9606 5.1200
vt -13.7795 5.9074
vt -14.9606 8.6263
vt -13.7795 8.6263
vt 13.3643 7.8286
vt 12.2047 18.4197
vt 13.3643 18.9000
vt 5.5357 26.7286
vt 5.0554 25.5690
vt -5.5357 26.7286
vt -5.0554 25.5690
vt -12.2047 18.4197
vt -13.3643 18.9000
vt -12.2047 8.3089
vt 12.2047 8.3089
vt 5.5357 0.0000
vt 5.0554 1.1596
vt -5.5357 0.0000
vt -5.0554 1.1596
vt -13.3643 7.8286
vt 0.5631 8.6263
vt 0.5631 5.1200
vt 0.0000 8.8595
vt -0.5631 5.1200
vt -0.5631 8.6263
vt 13.7795 5.1200
vt 13.7795 5.9074
vt 14.9606 5.1200
vt 14.9606 8.6263
vt 13.7795 8.6263
vt 7.0866 3.9143
vt 7.0866 14.9857
vt 9.4488 3.9143
vt 9.4488 14.9857
vt -7.4803 -5.5357
vt -7.4803 5.5357
vt -5.1181 -5.5357
vt -5.1181 5.5357
vt 7.4803 5.5357
vt 7.4803 -5.5357
vt 5.1181 5.5357
vt 5.1181 -5.5357
vt 5.1181 7.8286
vt 5.1181 18.9000
vt 7.4803 7.8286
vt 7.4803 18.9000
vt 9.4488 7.8286
vt 7.0866 7.8286
vt 9.4488 18.9000
vt 7.0866 18.9000
vt 13.3643 7.8286
vt 12.2047 18.4197
vt 13.3643 18.9000
vt 5.5357 26.7286
vt 5.0554 25.5690
vt -5.5357 26.7286
vt -5.0554 25.5690
vt -12.2047 18.4197
vt -13.3643 18.9000
vt -12.2047 8.3089
vt 12.2047 8.3089
vt 5.5357 0.0000
vt 5.0554 1.1596
vt -5.5357 0.0000
vt -5.0554 1.1596
vt -13.3643 7.8286
vt -5.1181 7.8286
vt -7.4803 7.8286
vt -5.1181 18.9000
vt -7.4803 18.9000
vt -7.4803 3.9143
vt -7.4803 14.9857
vt -5.1181 3.9143
vt -5.1181 14.9857
vt -7.4803 3.9143
vt -7.4803 14.9857
vt -5.1181 3.9143
vt -5.1181 14.9857
vt 7.0866 -5.5357
vt 7.0866 5.5357
vt 9.4488 -5.5357
vt 9.4488 5.5357
vt -7.0866 5.5357
vt -7.0866 -5.5357
vt -9.4488 5.5357
vt -9.4488 -5.5357
vt -7.0866 3.9143
vt -9.4488 3.9143
vt -7.0866 14.9857
vt -9.4488 14.9857
vt 7.4803 3.9143
vt 5.1181 3.9143
vt 7.4803 14.9857
vt 5.1181 14.9857
vt -0.5631 8.6263
vt -0.5631 5.9074
vt -1.1262 8.3931
vt -1.1262 6.1407
vt -1.5927 7.2669
vt 9.4488 3.9143
vt 7.0866 3.9143
vt 9.4488 14.9857
vt 7.0866 14.9857
vt -7.0866 3.9143
vt -9.4488 3.9143
vt -7.0866 14.9857
vt -9.4488 14.9857
vt 1.5927 7.2669
vt 1.1262 6.1407
vt 1.1262 8.3931
vt 0.5631 8.6263
vt 0.5631 5.9074
vt 7.4803 3.9143
vt 5.1181 3.9143
vt 7.4803 14.9857
vt 5.1181 14.9857
vt -13.3643 18.9000
vt -12.2047 8.3089
vt -13.3643 7.8286
vt -5.5357 0.0000
vt -5.0554 1.1596
vt 5.5357 0.0000
vt 5.0554 1.1596
vt 12.2047 8.3089
vt 13.3643 7.8286
vt 12.2047 18.4197
vt -12.2047 18.4197
vt -5.5357 26.7286
vt -5.0554 25.5690
vt 5.5357 26.7286
vt 5.0554 25.5690
vt 13.3643 18.9000
vt -7.0866 7.8286
vt -9.4488 7.8286
vt -7.0866 18.9000
vt -9.4488 18.9000
vt 14.9606 0.5631
vt 14.9606 -0.5631
vt 13.7795 0.5631
vt 13.7795 -0.5631
vt -13.3643 18.9000
vt -12.2047 8.3089
vt -13.3643 7.8286
vt -5.5357 0.0000
vt -5.0554 1.1596
vt 5.5357 0.0000
vt 5.0554 1.1596
vt 12.2047 8.3089
vt 13.3643 7.8286
vt 12.2047 18.4197
vt -12.2047 18.4197
vt -5.5357 26.7286
vt -5.0554 25.5690
vt 5.5357 26.7286
vt 5.0554 25.5690
vt 13.3643 18.9000
vt 14.9606 3.3904
vt 14.9606 2.7809
vt 11.0236 3.3904
vt 13.7795 2.7809
vt 13.7795 2.1714
vt 11.0236 2.1714
vt 13.7795 3.3904
vt 13.7795 2.7809
vt 11.0236 3.3904
vt 13.7795 2.5651
vt 13.7795 2.1714
vt 11.0236 2.1714
vt -11.0236 6.1042
vt -13.7795 6.1042
vt -11.0236 7.3232
vt -13.7795 7.3232
vt -11.0236 6.1042
vt -13.7795 6.1042
vt -11.0236 7.3232
vt -13.7795 7.3232
vt 13.7795 6.1042
vt 11.0236 6.1042
vt 13.7795 7.3232
vt 11.0236 7.3232
vt -13.7795 2.1714
vt -13.7795 2.7809
vt -11.0236 2.1714
vt -13.7795 3.3904
vt -11.0236 3.3904
vt -13.7795 2.1714
vt -13.7795 2.7809
vt -11.0236 2.1714
vt -11.0236 3.3904
vt -14.9606 3.3904
vt -14.9606 2.7809
vt 13.7795 6.1042
vt 11.0236 6.1042
vt 13.7795 7.3232
vt 11.0236 7.3232
vt -0.5631 5.1200
vt -0.5631 5.9074
vt 0.5631 5.1200
vt 0.0000 5.6742
vt 0.3637 5.8249
vt 0.5631 5.9074
vt -7.4803 14.5053
vt -11.8110 4.3946
vt -12.5984 14.5053
vt -7.4803 4.3946
vt 14.9606 9.0460
vt 13.7795 9.0460
vt 14.9606 17.6826
vt 13.7795 17.6826
vt -13.7795 5.1317
vt -14.9606 5.1317
vt -13.7795 13.7683
vt -14.9606 13.7683
vt -7.4803 5.0554
vt -12.2047 -5.0554
vt -12.9921 5.0554
vt -7.4803 -5.0554
vt 11.4173 4.3946
vt 7.4803 4.3946
vt 11.4173 14.5053
vt 7.4803 14.5053
vt 7.4803 8.3089
vt 7.4803 18.4197
vt 11.4173 8.3089
vt 12.9921 4.3946
vt -10.8754 17.8691
vt -10.8754 8.8595
vt 13.7795 5.1317
vt 13.7795 13.7683
vt 14.9606 5.1317
vt 14.9606 13.7683
vt 13.7795 -4.3183
vt 13.7795 4.3183
vt 14.9606 -4.3183
vt 14.9606 4.3183
vt -13.7795 4.3183
vt -13.7795 -4.3183
vt -14.9606 4.3183
vt -14.9606 -4.3183
vt 10.8754 8.8595
vt 10.8754 17.8691
vt 0.0000 0.0000
vt -13.7795 9.0460
vt -14.9606 9.0460
vt -13.7795 17.6826
vt -14.9606 17.6826
vt 13.7795 5.1317
vt 13.7795 13.7683
vt 14.9606 5.1317
vt 14.9606 13.7683
vt -13.7795 5.1317
vt -14.9606 5.1317
vt -13.7795 13.7683
vt -14.9606 13.7683
vt 7.4803 -5.0554
vt 11.4173 5.0554
vt 11.8110 -5.0554
vt 7.4803 5.0554
vt 7.4803 4.3946
vt 12.9921 14.5053
vt 7.4803 14.5053
vt -7.4803 8.3089
vt -12.5984 8.3089
vt -7.4803 18.4197
vt -12.2047 4.3946
vt -12.2047 14.5053
vt -7.4803 4.3946
vt -7.4803 14.5053
vt 4.5048 24.2397
vt -11.0236 -4.5048
vt -4.5048 2.4889
vt -12.2047 18.4197
vt -10.4254 9.0460
vt -12.2047 8.3089
vt -5.0554 1.1596
vt -4.3183 2.9389
vt 5.0554 1.1596
vt 4.3183 2.9389
vt 10.4254 9.0460
vt 12.2047 8.3089
vt 10.4254 17.6826
vt -10.4254 17.6826
vt -5.0554 25.5690
vt -4.3183 23.7897
vt 5.0554 25.5690
vt 4.3183 23.7897
vt 12.2047 18.4197
vt -4.5048 24.2397
vt -5.1181 4.3946
vt -5.1181 14.5053
vt 7.0866 4.3946
vt 7.0866 14.5053
vt -14.9606 8.3089
vt -14.9606 18.4197
vt -9.4488 8.3089
vt -9.4488 18.4197
vt -7.0866 8.3089
vt -7.0866 18.4197
vt 5.1181 8.3089
vt 5.1181 18.4197
vt 5.1181 5.0554
vt 5.1181 -5.0554
vt -7.0866 5.0554
vt -7.0866 -5.0554
vt 5.1181 4.3946
vt -7.0866 4.3946
vt 5.1181 14.5053
vt -7.0866 14.5053
vt 9.4488 4.3946
vt 9.4488 14.5053
vt 14.9606 4.3946
vt 14.9606 14.5053
vt 9.4488 14.5053
vt 14.9606 14.5053
vt 9.4488 4.3946
vt 14.9606 4.3946
vt -5.1181 -5.0554
vt -5.1181 5.0554
vt 7.0866 -5.0554
vt 7.0866 5.0554
vt 9.4488 -5.0554
vt 9.4488 5.0554
vt 14.9606 -5.0554
vt 14.9606 5.0554
vt -5.1181 4.3946
vt -5.1181 14.5053
vt 7.0866 4.3946
vt 7.0866 14.5053
vt -9.4488 5.0554
vt -9.4488 -5.0554
vt -14.9606 5.0554
vt -14.9606 -5.0554
vt 7.0866 8.3089
vt -5.1181 8.3089
vt 7.0866 18.4197
vt -5.1181 18.4197
vt 5.1181 4.3946
vt -7.0866 4.3946
vt 5.1181 14.5053
vt -7.0866 14.5053
vt -9.4488 14.5053
vt -9.4488 4.3946
vt -14.9606 14.5053
vt -14.9606 4.3946
vt 14.9606 8.3089
vt 9.4488 8.3089
vt 14.9606 18.4197
vt 9.4488 18.4197
vt -9.4488 14.5053
vt -9.4488 4.3946
vt -14.9606 14.5053
vt -14.9606 4.3946
vt -10.4254 9.0460
vt -10.4254 17.6826
vt -4.3183 2.9389
vt -4.3183 23.7897
vt 4.3183 2.9389
vt 4.3183 23.7897
vt 10.4254 9.0460
vt 10.4254 17.6826
vt 4.5048 2.4889
vt 1.5927 7.2669
vt 1.1262 8.3931
vt 0.0000 8.8595
vt -1.1262 8.3931
vt -1.5927 7.2669
vt -1.1262 6.1407
vt -11.0236 4.5048
vn 0.0000 1.0000 0.0000
vn 0.0000 0.0000 -1.0000
vn -0.0000 -1.0000 -0.0000
vn -0.7071 0.7071 0.0000
vn -1.0000 0.0000 0.0000
vn 1.0000 0.0000 0.0000
vn 0.7071 0.7071 0.0000
vn -0.7071 -0.7071 0.0000
vn 0.7071 -0.7071 0.0000
vn 0.0000 0.0000 1.0000
vn -0.9239 -0.3827 -0.0000
vn 0.9239 -0.3827 -0.0000
vn 0.9239 -0.3828 -0.0000
vn 0.9239 -0.3826 0.0000
vn -0.3827 0.9239 0.0000
vn 0.3827 0.9239 0.0000
vn 0.3827 -0.9239 -0.0000
vn 0.9239 0.3827 0.0000
vn -0.9239 0.3827 0.0000
vn -0.3827 -0.9239 0.0000
vn 0.0251 -0.0606 -0.9978
vn 0.0042 -0.0017 -1.0000
vn 0.0033 0.0014 -1.0000
vn 0.0024 0.0057 -1.0000
vn -0.0048 0.0116 -0.9999
vn -0.0000 0.0195 -0.9998
vn -0.0112 0.0046 -0.9999
vn -0.0048 -0.0116 -0.9999
vn -0.0167 -0.0008 -0.9999
usemtl greyLight
s off
f 1/1/1 2/2/1 3/3/1
f 4/4/1 3/3/1 2/2/1
f 5/5/1 3/3/1 4/4/1
f 6/6/2 7/7/2 8/8/2
f 9/9/2 8/8/2 7/7/2
f 10/10/2 9/9/2 7/7/2
f 11/11/2 9/9/2 10/10/2
f 12/12/2 11/11/2 10/10/2
f 13/13/2 11/11/2 12/12/2
f 14/14/2 11/11/2 13/13/2
f 15/15/2 14/14/2 13/13/2
f 7/7/2 6/6/2 16/16/2
f 17/17/2 16/16/2 6/6/2
f 18/18/2 16/16/2 17/17/2
f 19/19/2 18/18/2 17/17/2
f 20/20/2 18/18/2 19/19/2
f 15/15/2 20/20/2 19/19/2
f 21/21/2 15/15/2 19/19/2
f 14/14/2 15/15/2 21/21/2
f 4/22/2 2/23/2 22/24/2
f 23/25/2 22/24/2 2/23/2
f 24/26/2 22/24/2 23/25/2
f 25/27/3 26/28/3 23/29/3
f 24/30/3 23/29/3 26/28/3
f 27/31/3 24/30/3 26/28/3
f 8/32/4 9/33/4 28/34/4
f 29/35/4 28/34/4 9/33/4
f 30/36/5 31/37/5 32/38/5
f 33/39/5 32/38/5 31/37/5
f 34/40/6 35/41/6 36/42/6
f 37/43/6 36/42/6 35/41/6
f 38/44/3 39/45/3 40/46/3
f 41/47/3 40/46/3 39/45/3
f 42/48/1 6/49/1 28/50/1
f 8/51/1 28/50/1 6/49/1
f 43/52/2 44/53/2 45/54/2
f 30/55/2 45/54/2 44/53/2
f 46/56/2 30/55/2 44/53/2
f 31/57/2 30/55/2 46/56/2
f 47/58/2 31/57/2 46/56/2
f 48/59/2 31/57/2 47/58/2
f 41/60/2 31/57/2 48/59/2
f 49/61/2 41/60/2 48/59/2
f 44/53/2 43/52/2 50/62/2
f 35/63/2 50/62/2 43/52/2
f 51/64/2 50/62/2 35/63/2
f 34/65/2 51/64/2 35/63/2
f 52/66/2 51/64/2 34/65/2
f 49/61/2 52/66/2 34/65/2
f 40/67/2 49/61/2 34/65/2
f 41/60/2 49/61/2 40/67/2
f 53/68/1 43/69/1 54/70/1
f 45/71/1 54/70/1 43/69/1
f 35/72/7 43/73/7 37/74/7
f 53/75/7 37/74/7 43/73/7
f 45/76/4 30/77/4 54/78/4
f 32/79/4 54/78/4 30/77/4
f 9/80/5 11/81/5 29/82/5
f 55/83/5 29/82/5 11/81/5
f 19/84/6 17/85/6 56/86/6
f 57/87/6 56/86/6 17/85/6
f 14/88/8 58/89/8 11/90/8
f 55/91/8 11/90/8 58/89/8
f 41/92/8 39/93/8 31/94/8
f 33/95/8 31/94/8 39/93/8
f 27/96/2 26/97/2 59/98/2
f 60/99/2 59/98/2 26/97/2
f 61/100/2 59/98/2 60/99/2
f 57/101/7 17/102/7 42/103/7
f 6/104/7 42/103/7 17/102/7
f 19/105/9 56/106/9 21/107/9
f 62/108/9 21/107/9 56/106/9
f 63/109/2 64/110/2 65/111/2
f 5/112/2 65/111/2 64/110/2
f 3/113/2 5/112/2 64/110/2
f 34/114/9 36/115/9 40/116/9
f 38/117/9 40/116/9 36/115/9
f 28/118/10 66/119/10 42/120/10
f 57/121/10 42/120/10 66/119/10
f 67/122/10 57/121/10 66/119/10
f 56/123/10 57/121/10 67/122/10
f 68/124/10 56/123/10 67/122/10
f 69/125/10 56/123/10 68/124/10
f 62/126/10 56/123/10 69/125/10
f 70/127/10 62/126/10 69/125/10
f 66/119/10 28/118/10 71/128/10
f 29/129/10 71/128/10 28/118/10
f 72/130/10 71/128/10 29/129/10
f 55/131/10 72/130/10 29/129/10
f 73/132/10 72/130/10 55/131/10
f 70/127/10 73/132/10 55/131/10
f 58/133/10 70/127/10 55/131/10
f 62/126/10 70/127/10 58/133/10
f 21/134/3 62/135/3 14/136/3
f 58/137/3 14/136/3 62/135/3
f 23/138/6 2/139/6 25/140/6
f 1/141/6 25/140/6 2/139/6
f 54/142/10 74/143/10 53/144/10
f 37/145/10 53/144/10 74/143/10
f 75/146/10 37/145/10 74/143/10
f 36/147/10 37/145/10 75/146/10
f 76/148/10 36/147/10 75/146/10
f 77/149/10 36/147/10 76/148/10
f 38/150/10 36/147/10 77/149/10
f 78/151/10 38/150/10 77/149/10
f 74/143/10 54/142/10 79/152/10
f 32/153/10 79/152/10 54/142/10
f 80/154/10 79/152/10 32/153/10
f 33/155/10 80/154/10 32/153/10
f 81/156/10 80/154/10 33/155/10
f 78/151/10 81/156/10 33/155/10
f 39/157/10 78/151/10 33/155/10
f 38/150/10 78/151/10 39/157/10
f 22/158/11 24/159/11 82/160/11
f 27/161/11 82/160/11 24/159/11
f 59/162/11 82/160/11 27/161/11
f 83/163/11 82/160/11 59/162/11
f 60/164/12 26/165/12 84/166/12
f 85/167/13 84/166/13 26/165/13
f 86/168/14 84/166/14 85/167/14
f 87/169/12 84/166/12 86/168/12
f 88/170/15 63/171/15 89/172/15
f 65/173/15 89/172/15 63/171/15
f 90/174/16 64/175/16 88/176/16
f 63/177/16 88/176/16 64/175/16
f 60/178/17 84/179/17 61/180/17
f 91/181/17 61/180/17 84/179/17
f 86/182/18 3/183/18 87/184/18
f 64/185/18 87/184/18 3/183/18
f 90/186/18 87/184/18 64/185/18
f 65/187/19 5/188/19 89/189/19
f 89/189/19 5/188/19 82/190/19
f 82/190/19 5/188/19 22/191/19
f 4/192/19 22/191/19 5/188/19
f 61/193/20 91/194/20 59/195/20
f 83/196/20 59/195/20 91/194/20
f 1/197/10 3/198/10 25/199/10
f 86/200/10 25/199/10 3/198/10
f 85/201/10 25/199/10 86/200/10
f 26/202/10 25/199/10 85/201/10
f 50/203/7 93/204/7 92/205/7
f 51/206/7 93/204/7 50/203/7
f 94/207/1 95/208/1 96/209/1
f 97/210/1 96/209/1 95/208/1
f 98/211/8 99/212/8 100/213/8
f 101/214/8 100/213/8 99/212/8
f 47/215/5 103/216/5 102/217/5
f 46/218/5 103/216/5 47/215/5
f 104/219/9 52/220/9 105/221/9
f 49/222/9 105/221/9 52/220/9
f 49/223/3 48/224/3 105/225/3
f 48/224/3 106/226/3 105/225/3
f 106/226/2 130/227/2 131/228/2 105/225/2
f 107/229/4 95/230/4 108/231/4
f 94/232/4 108/231/4 95/230/4
f 98/233/5 107/234/5 99/235/5
f 108/236/5 99/235/5 107/234/5
f 109/237/6 110/238/6 111/239/6
f 112/240/6 111/239/6 110/238/6
f 119/241/2 118/242/2 113/243/2 92/205/2
f 100/244/3 101/245/3 114/246/3
f 115/247/3 114/246/3 101/245/3
f 97/248/7 109/249/7 96/250/7
f 111/251/7 96/250/7 109/249/7
f 114/252/9 115/253/9 110/254/9
f 112/255/9 110/254/9 115/253/9
f 51/256/6 104/257/6 93/258/6
f 52/259/6 104/257/6 51/256/6
f 48/260/8 102/261/8 106/226/8
f 47/262/8 102/261/8 48/260/8
f 50/263/1 92/264/1 44/265/1
f 113/266/4 103/267/4 44/268/4
f 46/269/4 44/268/4 103/267/4
f 117/270/2 103/267/2 113/266/2 118/242/2
f 93/258/2 120/271/2 119/241/2 92/205/2
f 104/219/2 105/221/2 131/228/2 129/272/2
f 121/273/10 101/274/10 122/275/10
f 123/276/10 122/275/10 101/274/10
f 99/277/10 123/276/10 101/274/10
f 124/278/10 123/276/10 99/277/10
f 108/279/10 124/278/10 99/277/10
f 94/280/10 124/278/10 108/279/10
f 125/281/10 124/278/10 94/280/10
f 96/282/10 125/281/10 94/280/10
f 101/274/10 121/273/10 115/283/10
f 126/284/10 115/283/10 121/273/10
f 112/285/10 115/283/10 126/284/10
f 127/286/10 112/285/10 126/284/10
f 111/287/10 112/285/10 127/286/10
f 96/282/10 111/287/10 127/286/10
f 128/288/10 96/282/10 127/286/10
f 125/281/10 96/282/10 128/288/10
f 117/270/2 116/289/2 102/217/2 103/267/2
f 106/226/2 102/261/2 116/289/2 130/227/2
f 44/265/1 92/264/1 113/243/1
f 79/290/4 80/291/4 7/292/4
f 10/293/4 7/292/4 80/291/4
f 125/294/3 128/295/3 69/296/3
f 70/297/3 69/296/3 128/295/3
f 15/298/3 13/299/3 77/300/3
f 78/301/3 77/300/3 13/299/3
f 76/302/6 75/303/6 20/304/6
f 18/305/6 20/304/6 75/303/6
f 76/306/9 20/307/9 77/308/9
f 15/309/9 77/308/9 20/307/9
f 71/310/4 72/311/4 121/312/4
f 126/313/4 121/312/4 72/311/4
f 66/314/7 122/315/7 67/316/7
f 123/317/7 67/316/7 122/315/7
f 80/318/5 81/319/5 10/320/5
f 12/321/5 10/320/5 81/319/5
f 72/322/5 73/323/5 126/324/5
f 127/325/5 126/324/5 73/323/5
f 75/326/7 74/327/7 18/328/7
f 16/329/7 18/328/7 74/327/7
f 68/330/6 67/331/6 124/332/6
f 123/333/6 124/332/6 67/331/6
f 16/334/1 74/335/1 7/336/1
f 79/337/1 7/336/1 74/335/1
f 78/338/8 13/339/8 81/340/8
f 12/341/8 81/340/8 13/339/8
f 69/342/9 68/343/9 125/344/9
f 124/345/9 125/344/9 68/343/9
f 122/346/1 66/347/1 121/348/1
f 71/349/1 121/348/1 66/347/1
f 73/350/8 70/351/8 127/352/8
f 128/353/8 127/352/8 70/351/8
f 100/354/10 114/355/10 98/356/10
f 110/357/10 98/356/10 114/355/10
f 107/358/10 98/356/10 110/357/10
f 109/359/10 107/358/10 110/357/10
f 95/360/10 107/358/10 109/359/10
f 97/361/10 95/360/10 109/359/10
f 118/242/2 119/241/2 117/270/2
f 120/362/2 117/270/2 119/241/2
f 116/289/2 117/270/2 120/362/2
f 88/363/21 116/289/21 120/362/21
f 89/364/21 116/289/21 88/363/21
f 82/365/22 116/289/22 89/364/22
f 83/366/23 116/289/23 82/365/23
f 91/367/24 116/289/24 83/366/24
f 91/367/25 84/368/25 129/272/25
f 116/289/26 91/367/26 129/272/26
f 130/227/2 116/289/2 129/272/2
f 131/228/2 130/227/2 129/272/2
f 129/369/2 120/271/2 93/258/2 104/257/2
f 87/169/27 129/272/27 84/368/27
f 88/176/28 120/362/28 90/174/28
f 87/169/29 90/174/29 120/271/29 129/272/29
