# Blender 4.0.2
# www.blender.org
mtllib forkCollider.mtl
o Икосфера.001
v -0.097656 -0.018999 0.000463
v -0.094034 -0.000001 -0.003925
v -0.096053 -0.019747 -0.006079
v -0.092317 -0.000001 -0.010652
v -0.105002 -0.018999 -0.005484
v -0.101379 -0.000001 -0.007941
v -0.099663 -0.000001 -0.011707
v -0.103399 -0.019747 -0.009147
vn 0.6231 -0.7260 -0.2910
vn 0.2098 -0.4506 0.8677
vn -0.8476 -0.4507 0.2800
vn -0.4217 -0.6192 -0.6624
vn 0.3884 0.6082 0.6922
vn -0.7293 0.6607 0.1778
vn 0.7556 0.4573 -0.4689
vn -0.2753 0.5734 -0.7717
vt 0.079967 0.206007
vt 0.397337 0.202622
vt 0.397337 0.187821
vt 0.079967 0.190969
vt 0.358270 0.209761
vt 0.358270 0.195002
vt 0.120572 0.212862
vt 0.120572 0.198084
s 1
usemtl Material.009
f 3/1/1 1/2/2 5/3/3 8/4/4
f 1/2/2 2/5/5 6/6/6 5/3/3
f 4/7/7 3/1/1 8/4/4 7/8/8
f 6/6/6 2/5/5 4/7/7 7/8/8
f 2/5/5 1/2/2 3/1/1 4/7/7
f 5/3/3 6/6/6 7/8/8 8/4/4
o Икосфера.002
v -0.097656 0.018997 0.000463
v -0.094034 -0.000001 -0.003925
v -0.096053 0.019746 -0.006079
v -0.092317 -0.000001 -0.010652
v -0.101379 -0.000001 -0.007941
v -0.099663 -0.000001 -0.011707
v -0.103399 0.019746 -0.009147
v -0.105002 0.018997 -0.005484
vn 0.6231 0.7260 -0.2910
vn 0.7556 -0.4573 -0.4689
vn -0.2753 -0.5734 -0.7717
vn -0.4217 0.6192 -0.6624
vn 0.3884 -0.6082 0.6922
vn 0.2098 0.4506 0.8677
vn -0.8476 0.4507 0.2800
vn -0.7293 -0.6607 0.1778
vt 0.161178 0.206007
vt 0.120572 0.212862
vt 0.120572 0.198084
vt 0.161178 0.190969
vt 0.358270 0.209761
vt 0.319204 0.202622
vt 0.319204 0.187821
vt 0.358270 0.195002
vt 0.583533 0.781861
vt 0.597214 0.779414
vt 0.602637 0.794414
vt 0.594859 0.797192
s 1
usemtl Material.009
f 11/9/9 12/10/10 14/11/11 15/12/12
f 10/13/13 9/14/14 16/15/15 13/16/16
f 9/17/14 11/18/9 15/19/12 16/20/15
f 13/16/16 14/11/11 12/10/10 10/13/13
f 15/19/12 14/11/11 13/16/16 16/20/15
f 10/13/13 12/10/10 11/9/9 9/17/14
o Икосфера.003
v -0.097656 -0.018999 0.000463
v -0.094034 -0.000001 -0.003925
v -0.096053 -0.019747 -0.006079
v -0.092317 -0.000001 -0.010652
v 0.282727 -0.000001 0.008703
v 0.282727 -0.000001 0.015430
v 0.282727 -0.012755 0.011657
v 0.269727 -0.019747 0.012722
v 0.278920 -0.017699 0.012640
v 0.269727 -0.018999 0.019266
v 0.282727 -0.012006 0.018203
v 0.278920 -0.016950 0.019184
vn -0.6169 0.6696 0.4137
vn -0.7039 -0.4258 0.5685
vn 0.0480 -0.5975 0.8004
vn 0.4024 -0.5247 0.7501
vn 0.7166 -0.1096 0.6888
vn 0.5770 0.6332 0.5159
vn -0.5467 -0.6364 -0.5441
vn 0.1039 -0.8332 -0.5432
vn -0.4198 0.5485 -0.7232
vn 0.5826 0.5139 -0.6297
vn 0.7378 -0.3636 -0.5687
vn 0.4297 -0.7493 -0.5039
vt 0.358270 0.209761
vt 0.397337 0.202622
vt 0.397338 0.936823
vt 0.393126 0.955182
vt 0.382958 0.962766
vt 0.358271 0.962705
vt 0.505007 0.073986
vt 0.518687 0.076433
vt 0.523274 0.808016
vt 0.509778 0.808766
vt 0.079967 0.206007
vt 0.120572 0.212862
vt 0.120572 0.962931
vt 0.094346 0.963313
vt 0.084179 0.955851
vt 0.079967 0.937538
vt 0.962671 0.631807
vt 0.968373 0.655787
vt 0.954912 0.657283
vt 0.948837 0.631807
vt 0.970389 0.665664
vt 0.956933 0.667159
vt 0.524311 0.826334
vt 0.510816 0.827083
s 1
usemtl Material.009
f 18/21/17 17/22/18 26/23/19 28/24/20 27/25/21 22/26/22
f 17/27/18 19/28/23 24/29/24 26/30/19
f 19/31/23 20/32/25 21/33/26 23/34/27 25/35/28 24/36/24
f 22/37/22 27/38/21 23/39/27 21/40/26
f 23/39/27 27/38/21 28/41/20 25/42/28
f 25/43/28 28/44/20 26/30/19 24/29/24
f 18/21/17 20/32/25 19/31/23 17/27/18
f 21/33/26 20/32/25 18/21/17 22/26/22
o Икосфера.004
v -0.097656 0.018997 0.000463
v -0.094034 -0.000001 -0.003925
v -0.096053 0.019746 -0.006079
v -0.092317 -0.000001 -0.010652
v 0.282727 -0.000001 0.008703
v 0.282727 -0.000001 0.015430
v 0.269727 0.019746 0.012722
v 0.282727 0.012753 0.011657
v 0.278920 0.017698 0.012640
v 0.282727 0.012005 0.018203
v 0.269727 0.018997 0.019266
v 0.278920 0.016949 0.019184
vn 0.7166 0.1096 0.6888
vn 0.5770 -0.6332 0.5159
vn 0.5826 -0.5139 -0.6297
vn 0.7378 0.3636 -0.5687
vn -0.5467 0.6364 -0.5441
vn -0.7039 0.4258 0.5685
vn 0.0480 0.5975 0.8004
vn 0.1039 0.8332 -0.5432
vn -0.6169 -0.6696 0.4137
vn 0.4024 0.5247 0.7501
vn 0.4297 0.7493 -0.5039
vn -0.4198 -0.5485 -0.7232
vt 0.968373 0.607827
vt 0.962671 0.631807
vt 0.948837 0.631807
vt 0.954912 0.606331
vt 0.597214 0.779414
vt 0.583533 0.781861
vt 0.588305 0.047081
vt 0.601800 0.047831
vt 0.319204 0.202622
vt 0.358270 0.209761
vt 0.358271 0.962705
vt 0.333584 0.962766
vt 0.323416 0.955182
vt 0.319205 0.936823
vt 0.956933 0.596455
vt 0.970389 0.597950
vt 0.589342 0.028763
vt 0.602837 0.029513
vt 0.120572 0.212862
vt 0.161178 0.206007
vt 0.161178 0.937538
vt 0.156966 0.955851
vt 0.146799 0.963313
vt 0.120572 0.962931
s 1
usemtl Material.009
f 38/45/29 34/46/30 33/47/31 36/48/32
f 31/49/33 29/50/34 39/51/35 35/52/36
f 29/53/34 30/54/37 34/55/30 38/56/29 40/57/38 39/58/35
f 38/45/29 36/48/32 37/59/39 40/60/38
f 40/61/38 37/62/39 35/52/36 39/51/35
f 32/63/40 31/64/33 35/65/36 37/66/39 36/67/32 33/68/31
f 33/68/31 34/55/30 30/54/37 32/63/40
f 30/54/37 29/50/34 31/64/33 32/63/40
o Икосфера.005
v -0.105002 -0.018999 -0.005484
v -0.101379 -0.000001 -0.007941
v -0.099663 -0.000001 -0.011707
v -0.103399 -0.019747 -0.009147
v -0.119762 -0.028825 -0.004104
v -0.119762 -0.000001 -0.007832
v -0.119762 -0.000001 -0.013547
v -0.119762 -0.029960 -0.009661
vn 0.5432 -0.3144 0.7785
vn 0.4852 0.5983 0.6377
vn -0.5828 0.6092 0.5378
vn -0.3988 -0.5933 0.6993
vn 0.7571 0.4826 -0.4404
vn 0.7589 -0.5100 -0.4049
vn -0.4010 -0.8228 -0.4028
vn -0.5415 0.5352 -0.6483
vt 0.397337 0.187821
vt 0.358270 0.195002
vt 0.358270 0.158287
vt 0.417543 0.158369
vt 0.120572 0.198084
vt 0.079967 0.190969
vt 0.058965 0.158285
vt 0.120572 0.157782
vt 0.524110 0.061433
vt 0.516332 0.058655
vt 0.512797 0.029399
vt 0.524311 0.028763
s 1
usemtl Material.009
f 41/69/41 42/70/42 46/71/43 45/72/44
f 43/73/45 44/74/46 48/75/47 47/76/48
f 44/77/46 41/78/41 45/79/44 48/80/47
f 47/76/48 46/71/43 42/70/42 43/73/45
f 41/78/41 44/77/46 43/73/45 42/70/42
f 45/79/44 46/71/43 47/76/48 48/80/47
o Икосфера.006
v -0.101379 -0.000001 -0.007941
v -0.099663 -0.000001 -0.011707
v -0.103399 0.019746 -0.009147
v -0.105002 0.018997 -0.005484
v -0.119762 -0.000001 -0.007832
v -0.119762 -0.000001 -0.013547
v -0.119762 0.029959 -0.009661
v -0.119762 0.028824 -0.004104
vn 0.4852 -0.5983 0.6377
vn 0.5432 0.3144 0.7785
vn -0.3988 0.5933 0.6993
vn -0.5828 -0.6092 0.5378
vn 0.7589 0.5100 -0.4049
vn -0.4010 0.8228 -0.4028
vn 0.7571 -0.4826 -0.4404
vn -0.5415 -0.5352 -0.6483
vt 0.358270 0.195002
vt 0.319204 0.187821
vt 0.298998 0.158369
vt 0.358270 0.158287
vt 0.594859 0.797192
vt 0.602637 0.794414
vt 0.602837 0.827083
vt 0.591324 0.826447
vt 0.161178 0.190969
vt 0.120572 0.198084
vt 0.120572 0.157782
vt 0.182180 0.158285
s 1
usemtl Material.009
f 49/81/49 52/82/50 56/83/51 53/84/52
f 52/85/50 51/86/53 55/87/54 56/88/51
f 51/89/53 50/90/55 54/91/56 55/92/54
f 51/86/53 52/85/50 49/81/49 50/90/55
f 55/92/54 54/91/56 53/84/52 56/83/51
f 54/91/56 50/90/55 49/81/49 53/84/52
o Икосфера.007
v -0.119762 -0.000001 -0.007832
v -0.119762 -0.000001 -0.013547
v -0.119762 0.029959 -0.009661
v -0.119762 0.028824 -0.004104
v -0.129999 -0.000001 -0.007679
v -0.129999 -0.000001 -0.016117
v -0.129999 0.044234 -0.010381
v -0.129999 0.042557 -0.002175
vn 0.5881 -0.6100 0.5311
vn 0.7292 0.1418 0.6695
vn -0.2676 0.6969 0.6653
vn -0.5807 -0.6089 0.5403
vn 0.8081 0.3082 -0.5021
vn -0.2395 0.8611 -0.4486
vn 0.6335 -0.5600 -0.5340
vn -0.4976 -0.5268 -0.6891
vt 0.358270 0.158287
vt 0.298998 0.158369
vt 0.270756 0.137964
vt 0.358270 0.137844
vt 0.522195 0.913349
vt 0.510554 0.912647
vt 0.505007 0.884610
vt 0.522195 0.885647
vt 0.182180 0.158285
vt 0.120572 0.157782
vt 0.120572 0.137045
vt 0.211533 0.137787
s 1
usemtl Material.009
f 57/93/57 60/94/58 64/95/59 61/96/60
f 60/97/58 59/98/61 63/99/62 64/100/59
f 59/101/61 58/102/63 62/103/64 63/104/62
f 63/99/62 62/103/64 61/96/60 64/100/59
f 62/103/64 58/102/63 57/93/57 61/96/60
f 60/94/58 57/93/57 58/102/63 59/101/61
o Икосфера.008
v -0.119762 -0.028825 -0.004104
v -0.119762 -0.000001 -0.007832
v -0.119762 -0.000001 -0.013547
v -0.119762 -0.029960 -0.009661
v -0.129999 -0.042559 -0.002175
v -0.129999 -0.000001 -0.007679
v -0.129999 -0.000001 -0.016117
v -0.129999 -0.044235 -0.010381
vn 0.7292 -0.1418 0.6695
vn 0.5881 0.6100 0.5311
vn -0.5807 0.6089 0.5403
vn -0.2676 -0.6969 0.6653
vn 0.6335 0.5600 -0.5340
vn 0.8081 -0.3082 -0.5021
vn -0.2395 -0.8611 -0.4486
vn -0.4976 0.5268 -0.6891
vt 0.417543 0.158369
vt 0.358270 0.158287
vt 0.358270 0.137844
vt 0.445784 0.137964
vt 0.120572 0.157782
vt 0.058965 0.158285
vt 0.029611 0.137787
vt 0.120572 0.137045
vt 0.591196 0.885312
vt 0.602837 0.884610
vt 0.602837 0.912312
vt 0.585649 0.913349
s 1
usemtl Material.009
f 65/105/65 66/106/66 70/107/67 69/108/68
f 67/109/69 68/110/70 72/111/71 71/112/72
f 68/113/70 65/114/65 69/115/68 72/116/71
f 65/114/65 68/113/70 67/109/69 66/106/66
f 71/112/72 70/107/67 66/106/66 67/109/69
f 69/115/68 70/107/67 71/112/72 72/116/71
o Икосфера.009
v -0.129999 -0.042559 -0.002175
v -0.129999 -0.000001 -0.007679
v -0.129999 -0.000001 -0.016117
v -0.129999 -0.044235 -0.010381
v -0.184609 -0.039786 -0.005488
v -0.184609 -0.000001 -0.007941
v -0.184609 -0.000001 -0.011701
v -0.184609 -0.041353 -0.009145
vn 0.5603 -0.6849 -0.4658
vn 0.5469 -0.4767 0.6882
vn -0.6390 -0.4333 0.6355
vn -0.5592 -0.6809 -0.4731
vn -0.5850 0.6013 0.5442
vn -0.5923 0.5573 -0.5819
vn 0.5797 0.6025 0.5486
vn 0.5522 0.5450 -0.6309
vt 0.965864 0.372293
vt 0.948837 0.372293
vt 0.955283 0.263185
vt 0.962956 0.263192
vt 0.825684 0.031894
vt 0.820641 0.111364
vt 0.812910 0.111364
vt 0.818166 0.028763
vt 0.445784 0.137964
vt 0.358270 0.137844
vt 0.358270 0.028763
vt 0.440083 0.028817
vt 0.120572 0.137045
vt 0.029611 0.137787
vt 0.035537 0.029094
vt 0.120572 0.028763
s 1
usemtl Material.009
f 76/117/73 73/118/74 77/119/75 80/120/76
f 77/121/75 78/122/77 79/123/78 80/124/76
f 73/125/74 74/126/79 78/127/77 77/128/75
f 75/129/80 76/130/73 80/131/76 79/132/78
f 73/118/74 76/117/73 75/129/80 74/126/79
f 79/123/78 78/122/77 74/126/79 75/129/80
o Икосфера.010
v -0.129999 -0.000001 -0.007679
v -0.129999 -0.000001 -0.016117
v -0.129999 0.044234 -0.010381
v -0.129999 0.042557 -0.002175
v -0.184609 -0.000001 -0.007941
v -0.184609 -0.000001 -0.011701
v -0.184609 0.041352 -0.009145
v -0.184609 0.039785 -0.005488
vn 0.5603 0.6849 -0.4658
vn 0.5522 -0.5450 -0.6309
vn -0.5923 -0.5573 -0.5819
vn -0.5592 0.6809 -0.4731
vn -0.5850 -0.6013 0.5442
vn -0.6390 0.4333 0.6355
vn 0.5797 -0.6025 0.5486
vn 0.5469 0.4767 0.6882
vt 0.211533 0.137787
vt 0.120572 0.137045
vt 0.120572 0.028763
vt 0.205608 0.029094
vt 0.818166 0.193965
vt 0.812910 0.111364
vt 0.820641 0.111364
vt 0.825684 0.190834
vt 0.358270 0.137844
vt 0.270756 0.137964
vt 0.276457 0.028817
vt 0.358270 0.028763
vt 0.965864 0.538928
vt 0.948837 0.538928
vt 0.951746 0.429827
vt 0.959419 0.429820
s 1
usemtl Material.009
f 83/133/81 82/134/82 86/135/83 87/136/84
f 87/137/84 86/138/83 85/139/85 88/140/86
f 81/141/87 84/142/88 88/143/86 85/144/85
f 84/145/88 83/146/81 87/147/84 88/148/86
f 83/146/81 84/145/88 81/141/87 82/134/82
f 86/138/83 82/134/82 81/141/87 85/139/85
o Икосфера.011
v -0.271055 -0.034406 -0.008536
v -0.271055 -0.034406 -0.007366
v -0.271055 -0.029583 -0.008536
v -0.271055 -0.029583 -0.007366
v -0.182267 -0.035934 -0.009180
v -0.182267 -0.035934 -0.006722
v -0.182267 -0.028055 -0.009180
v -0.182267 -0.028055 -0.006722
v -0.226661 -0.028819 -0.008230
v -0.226661 -0.028819 -0.010044
v -0.226661 -0.035170 -0.008230
v -0.226661 -0.035170 -0.010044
vn -0.5766 -0.5709 0.5844
vn -0.5766 0.5709 0.5844
vn -0.5907 0.5736 -0.5674
vn -0.5907 -0.5736 -0.5674
vn -0.0176 0.7130 0.7009
vn 0.5639 0.5809 0.5870
vn 0.5778 0.5838 -0.5703
vn -0.0170 0.7010 -0.7130
vn 0.5639 -0.5809 0.5870
vn 0.5778 -0.5838 -0.5703
vn -0.0176 -0.7130 0.7009
vn -0.0170 -0.7010 -0.7130
vt 0.662060 0.971237
vt 0.662060 0.961603
vt 0.664467 0.961603
vt 0.664467 0.971237
vt 0.741210 0.808694
vt 0.743645 0.897392
vt 0.738599 0.897360
vt 0.737485 0.808671
vt 0.950025 0.044502
vt 0.950025 0.028763
vt 0.955079 0.028763
vt 0.955079 0.044502
vt 0.887180 0.586790
vt 0.889615 0.675457
vt 0.887210 0.675472
vt 0.883454 0.586814
vt 0.676691 0.587126
vt 0.663631 0.587126
vt 0.662060 0.498525
vt 0.678262 0.498525
vt 0.663631 0.352347
vt 0.676691 0.352347
vt 0.675119 0.440998
vt 0.665202 0.440998
vt 0.662060 0.263644
vt 0.678262 0.263644
vt 0.675120 0.675420
vt 0.665202 0.675420
vt 0.889615 0.498092
vt 0.884568 0.498125
vt 0.743645 0.720028
vt 0.741241 0.720012
s 1
usemtl Material.009
f 90/149/89 92/150/90 91/151/91 89/152/92
f 97/153/93 96/154/94 95/155/95 98/156/96
f 96/157/94 94/158/97 93/159/98 95/160/95
f 99/161/99 90/162/89 89/163/92 100/164/100
f 100/165/100 98/166/96 95/167/95 93/168/98
f 99/169/99 97/170/93 92/171/90 90/172/89
f 94/173/97 96/174/94 97/170/93 99/169/99
f 89/175/92 91/176/91 98/166/96 100/165/100
f 94/177/97 99/161/99 100/164/100 93/178/98
f 92/179/90 97/153/93 98/156/96 91/180/91
o Икосфера.012
v -0.270159 -0.015011 -0.009295
v -0.270159 -0.015011 -0.008208
v -0.270159 -0.010915 -0.009295
v -0.270159 -0.010915 -0.008208
v -0.184499 -0.016309 -0.009893
v -0.184499 -0.016309 -0.007610
v -0.184499 -0.009617 -0.009893
v -0.184499 -0.009617 -0.007610
v -0.227329 -0.010266 -0.009095
v -0.227329 -0.010266 -0.010780
v -0.227329 -0.015660 -0.009095
v -0.227329 -0.015660 -0.010780
vn -0.5758 -0.5715 0.5847
vn -0.5758 0.5715 0.5847
vn -0.5904 0.5743 -0.5671
vn -0.5904 -0.5743 -0.5671
vn -0.0159 0.7133 0.7007
vn 0.5642 0.5802 0.5873
vn 0.5787 0.5832 -0.5700
vn -0.0154 0.7008 -0.7132
vn 0.5642 -0.5802 0.5873
vn 0.5787 -0.5832 -0.5700
vn -0.0159 -0.7133 0.7007
vn -0.0154 -0.7008 -0.7132
vt 0.948572 0.969838
vt 0.948572 0.961656
vt 0.950808 0.961656
vt 0.950808 0.969838
vt 0.886914 0.818556
vt 0.889349 0.904129
vt 0.884662 0.904100
vt 0.883454 0.818535
vt 0.954719 0.175294
vt 0.954719 0.188662
vt 0.950025 0.188662
vt 0.950025 0.175294
vt 0.888368 0.114337
vt 0.890803 0.199879
vt 0.888569 0.199893
vt 0.884907 0.114358
vt 0.811804 0.576998
vt 0.822897 0.576998
vt 0.824231 0.662485
vt 0.810469 0.662485
vt 0.822897 0.348712
vt 0.811804 0.348712
vt 0.813138 0.263185
vt 0.821562 0.263185
vt 0.824231 0.434291
vt 0.810469 0.434291
vt 0.813139 0.491818
vt 0.821562 0.491818
vt 0.890803 0.028763
vt 0.886115 0.028793
vt 0.889349 0.733013
vt 0.887116 0.732999
s 1
usemtl Material.009
f 102/181/101 104/182/102 103/183/103 101/184/104
f 109/185/105 108/186/106 107/187/107 110/188/108
f 108/189/106 106/190/109 105/191/110 107/192/107
f 111/193/111 102/194/101 101/195/104 112/196/112
f 112/197/112 110/198/108 107/199/107 105/200/110
f 111/201/111 109/202/105 104/203/102 102/204/101
f 106/205/109 108/206/106 109/202/105 111/201/111
f 101/207/104 103/208/103 110/198/108 112/197/112
f 106/209/109 111/193/111 112/196/112 105/210/110
f 104/211/102 109/185/105 110/188/108 103/212/103
o Икосфера.013
v -0.270159 0.010913 -0.009295
v -0.270159 0.010913 -0.008208
v -0.270159 0.015010 -0.009295
v -0.270159 0.015010 -0.008208
v -0.184499 0.009615 -0.009893
v -0.184499 0.009615 -0.007610
v -0.184499 0.016308 -0.009893
v -0.184499 0.016308 -0.007610
v -0.227329 0.015659 -0.009095
v -0.227329 0.015659 -0.010780
v -0.227329 0.010264 -0.009095
v -0.227329 0.010264 -0.010780
vn -0.5758 -0.5715 0.5847
vn -0.5758 0.5715 0.5847
vn -0.5904 0.5743 -0.5671
vn -0.5904 -0.5743 -0.5671
vn -0.0159 0.7133 0.7007
vn 0.5642 0.5802 0.5873
vn 0.5787 0.5832 -0.5700
vn -0.0154 0.7008 -0.7132
vn 0.5642 -0.5802 0.5873
vn 0.5787 -0.5832 -0.5700
vn -0.0159 -0.7133 0.7007
vn -0.0154 -0.7008 -0.7132
vt 0.883454 0.969838
vt 0.883454 0.961656
vt 0.885690 0.961656
vt 0.885690 0.969838
vt 0.952033 0.818556
vt 0.954468 0.904129
vt 0.949780 0.904100
vt 0.948572 0.818535
vt 0.742179 0.954919
vt 0.742179 0.968287
vt 0.737485 0.968287
vt 0.737485 0.954919
vt 0.665520 0.818520
vt 0.667955 0.904062
vt 0.665722 0.904076
vt 0.662060 0.818541
vt 0.738819 0.576998
vt 0.749912 0.576998
vt 0.751247 0.662485
vt 0.737485 0.662485
vt 0.749912 0.348712
vt 0.738820 0.348712
vt 0.740154 0.263185
vt 0.748578 0.263185
vt 0.751247 0.434291
vt 0.737485 0.434291
vt 0.740154 0.491818
vt 0.748577 0.491818
vt 0.667955 0.732947
vt 0.663268 0.732976
vt 0.954468 0.733013
vt 0.952235 0.732999
s 1
usemtl Material.009
f 114/213/113 116/214/114 115/215/115 113/216/116
f 121/217/117 120/218/118 119/219/119 122/220/120
f 120/221/118 118/222/121 117/223/122 119/224/119
f 123/225/123 114/226/113 113/227/116 124/228/124
f 124/229/124 122/230/120 119/231/119 117/232/122
f 123/233/123 121/234/117 116/235/114 114/236/113
f 118/237/121 120/238/118 121/234/117 123/233/123
f 113/239/116 115/240/115 122/230/120 124/229/124
f 118/241/121 123/225/123 124/228/124 117/242/122
f 116/243/114 121/217/117 122/220/120 115/244/115
o Икосфера.014
v -0.271055 0.029582 -0.008536
v -0.271055 0.029582 -0.007366
v -0.271055 0.034404 -0.008536
v -0.271055 0.034404 -0.007366
v -0.182267 0.028054 -0.009180
v -0.182267 0.028054 -0.006722
v -0.182267 0.035933 -0.009180
v -0.182267 0.035933 -0.006722
v -0.226661 0.035168 -0.008230
v -0.226661 0.035168 -0.010044
v -0.226661 0.028818 -0.008230
v -0.226661 0.028818 -0.010044
vn -0.5766 -0.5709 0.5844
vn -0.5766 0.5709 0.5844
vn -0.5907 0.5736 -0.5674
vn -0.5907 -0.5736 -0.5674
vn -0.0176 0.7130 0.7009
vn 0.5639 0.5809 0.5870
vn 0.5778 0.5838 -0.5703
vn -0.0170 0.7010 -0.7130
vn 0.5639 -0.5809 0.5870
vn 0.5778 -0.5838 -0.5703
vn -0.0176 -0.7130 0.7009
vn -0.0170 -0.7010 -0.7130
vt 0.802868 0.964553
vt 0.802868 0.954919
vt 0.805276 0.954919
vt 0.805276 0.964553
vt 0.806594 0.808694
vt 0.809029 0.897392
vt 0.803982 0.897360
vt 0.802868 0.808671
vt 0.950025 0.117767
vt 0.950025 0.102029
vt 0.955079 0.102029
vt 0.955079 0.117767
vt 0.887180 0.351883
vt 0.889615 0.440550
vt 0.887210 0.440565
vt 0.883454 0.351907
vt 0.752115 0.117364
vt 0.739056 0.117364
vt 0.737485 0.028763
vt 0.753687 0.028764
vt 0.676691 0.117414
vt 0.663631 0.117414
vt 0.665202 0.028763
vt 0.675120 0.028763
vt 0.678262 0.206117
vt 0.662060 0.206117
vt 0.750544 0.205658
vt 0.740627 0.205658
vt 0.889615 0.263185
vt 0.884568 0.263217
vt 0.809029 0.720028
vt 0.806625 0.720012
s 1
usemtl Material.009
f 126/245/125 128/246/126 127/247/127 125/248/128
f 133/249/129 132/250/130 131/251/131 134/252/132
f 132/253/130 130/254/133 129/255/134 131/256/131
f 135/257/135 126/258/125 125/259/128 136/260/136
f 136/261/136 134/262/132 131/263/131 129/264/134
f 135/265/135 133/266/129 128/267/126 126/268/125
f 130/269/133 132/270/130 133/266/129 135/265/135
f 125/271/128 127/272/127 134/262/132 136/261/136
f 130/273/133 135/257/135 136/260/136 129/274/134
f 128/275/126 133/249/129 134/252/132 127/276/127
