# Blender v2.78 (sub 0) OBJ File: ''
# www.blender.org
mtllib cookingknife.mtl
o cookingKnife.001
v -0.113125 0.001822 0.016256
v -0.103125 -0.001822 0.016256
v -0.103125 0.001822 0.016256
v -0.113125 0.001822 0.046256
v -0.113125 -0.001822 0.046256
v -0.113125 -0.001822 0.016256
v 0.271875 -0.001822 -0.036244
v -0.103125 -0.001822 -0.063744
v 0.363125 -0.001822 0.046256
v 0.271875 0.001822 -0.036244
v -0.103125 0.001822 -0.063744
v 0.363125 0.001822 0.046256
vt 0.0000 0.0000
vt 0.0000 0.0000
vt 4.0600 -0.6400
vt 0.0000 0.0000
vt 4.4537 -1.8211
vt 4.4537 -0.6400
vt 4.0600 -0.6400
vt 4.4537 -1.8211
vt 4.4537 -0.6400
vt 0.0000 0.0000
vt 0.0000 0.0000
vt 0.0000 0.0000
vn 0.0000 1.0000 0.0000
vn -0.5576 0.5736 -0.6000
vn -0.3015 0.9045 -0.3015
vn 0.7820 0.5457 0.3011
vn -0.5774 0.5774 0.5774
vn -0.3015 -0.9045 -0.3015
vn -0.5774 -0.5774 0.5774
vn 0.0000 -1.0000 0.0000
vn 0.7820 -0.5457 0.3011
vn -0.5576 -0.5736 -0.6000
vn 0.3932 0.0000 -0.9194
vn -0.7071 0.0000 -0.7071
usemtl greyLight
s 1
f 10/1/1 11/2/2 3/3/3 12/4/4
f 12/4/4 3/3/3 4/5/5
f 3/3/3 1/6/1 4/5/5
f 2/7/6 5/8/7 6/9/8
f 7/10/8 9/11/9 2/7/6 8/12/10
f 2/7/6 3/3/3 11/2/2 8/12/10
f 7/10/11 10/1/11 12/4/4 9/11/9
f 9/11/9 5/8/7 2/7/6
f 6/9/12 1/6/12 3/3/3 2/7/6
f 5/8/7 4/5/5 1/6/12 6/9/12
f 9/11/9 12/4/4 4/5/5 5/8/7
f 8/12/10 11/2/2 10/1/11 7/10/11
o cookingKnife
v -0.113125 0.010000 0.051074
v -0.363125 -0.010000 0.063744
v -0.113125 -0.010000 0.051074
v -0.363125 0.010000 0.063744
v -0.277078 0.010000 -0.008392
v -0.113125 -0.010000 0.011438
v -0.277078 -0.010000 -0.008392
v -0.113125 0.010000 0.011438
v -0.363125 0.010000 0.024782
v -0.339113 0.010000 -0.004018
v -0.339113 -0.010000 -0.004018
v -0.363125 -0.010000 0.024782
vt -4.5498 0.7874
vt -14.4050 0.0000
vt -4.5498 0.0000
vt -14.4050 0.7874
vt 10.8693 0.7874
vt 4.3674 0.0000
vt 10.8693 0.0000
vt 4.3674 0.7874
vt -4.4537 -2.0108
vt -14.2963 -0.9757
vt -14.2963 -2.5096
vt -13.3509 0.1582
vt -10.9086 0.3304
vt -4.4537 -0.4503
vt 13.3509 0.1582
vt 14.2963 -2.5096
vt 14.2963 -0.9757
vt 4.4537 -2.0108
vt 10.9086 0.3304
vt 4.4537 -0.4503
vt 8.4279 0.7874
vt 9.9042 0.0000
vt 9.9042 0.7874
vt 8.4279 0.0000
vt 13.3067 0.7874
vt 10.8583 0.0000
vt 13.3067 0.0000
vt 10.8583 0.7874
vt 0.9757 0.7874
vt 2.5096 0.0000
vt 2.5096 0.7874
vt 0.9757 0.0000
vt -0.4503 0.0000
vt -2.0108 0.7874
vt -2.0108 0.0000
vt -0.4503 0.7874
vn 0.0506 0.0000 0.9987
vn 0.1201 0.0000 -0.9928
vn 0.0000 1.0000 0.0000
vn 0.0000 -1.0000 0.0000
vn -0.7681 0.0000 -0.6404
vn -0.0703 0.0000 -0.9975
vn -1.0000 0.0000 0.0000
vn 1.0000 0.0000 0.0000
usemtl brownDark
s 1
f 13/13/13 14/14/13 15/15/13
f 14/14/13 13/13/13 16/16/13
f 17/17/14 18/18/14 19/19/14
f 18/18/14 17/17/14 20/20/14
f 13/21/15 21/22/15 16/23/15
f 21/22/15 13/21/15 22/24/15
f 22/24/15 13/21/15 17/25/15
f 17/25/15 13/21/15 20/26/15
f 23/27/16 14/28/16 24/29/16
f 14/28/16 23/27/16 15/30/16
f 15/30/16 23/27/16 19/31/16
f 15/30/16 19/31/16 18/32/16
f 22/33/17 24/34/17 21/35/17
f 24/34/17 22/33/17 23/36/17
f 22/37/18 19/38/18 23/39/18
f 19/38/18 22/37/18 17/40/18
f 21/41/19 14/42/19 16/43/19
f 14/42/19 21/41/19 24/44/19
f 18/45/20 13/46/20 15/47/20
f 13/46/20 18/45/20 20/48/20
