# Blender 3.4.1
# www.blender.org
mtllib MixerShaft.mtl
o whisk.002
v 0.001988 0.002005 -0.031929
v 0.001988 0.002196 0.031929
v 0.001988 -0.002196 0.031929
v 0.001988 -0.002005 -0.031929
v -0.001988 0.002196 0.031929
v -0.001988 0.002005 -0.031929
v -0.001988 -0.002005 -0.031929
v -0.001988 -0.002196 0.031929
vn 0.2776 0.9194 -0.2786
vn 0.2748 0.9217 0.2738
vn 0.2748 -0.9217 0.2738
vn 0.2776 -0.9194 -0.2786
vn -0.2748 0.9217 0.2738
vn -0.2776 0.9194 -0.2786
vn -0.2776 -0.9194 -0.2786
vn -0.2748 -0.9217 0.2738
vt -0.489000 0.526200
vt 4.539200 0.885400
vt 4.539200 -0.885400
vt -0.489000 -0.526200
vt 4.539200 0.885400
vt -0.489000 0.526200
vt -0.489000 -0.526200
vt 4.539200 -0.885400
s 1
usemtl white.001
f 1/1/1 2/2/2 3/3/3
f 3/3/3 4/4/4 1/1/1
f 5/5/5 2/2/2 1/1/1 6/6/6
f 6/6/6 1/1/1 4/4/4 7/7/7
f 7/7/7 4/4/4 3/3/3 8/8/8
f 8/8/8 3/3/3 2/2/2 5/5/5
f 6/6/6 8/8/8 5/5/5
f 8/8/8 6/6/6 7/7/7
