# Blender 3.4.1
# www.blender.org
mtllib MixerButton1.mtl
o Cube
v -0.003064 -0.008533 -0.004045
v -0.003064 -0.008533 0.004045
v -0.003064 0.008533 -0.004045
v -0.003064 0.008533 0.004045
v 0.003064 -0.008533 -0.004045
v 0.003064 -0.008533 0.004045
v 0.003064 0.008533 -0.004045
v 0.003064 0.008533 0.004045
v -0.003064 0.000000 0.009317
v 0.003064 0.000000 0.009317
vn -1.0000 -0.0000 -0.0000
vn -0.0000 1.0000 -0.0000
vn 1.0000 -0.0000 -0.0000
vn -0.0000 -1.0000 -0.0000
vn -0.0000 -0.0000 -1.0000
vn -0.0000 -0.5256 0.8507
vn -0.0000 0.5256 0.8507
vt 0.375000 0.000000
vt 0.375000 1.000000
vt 0.125000 0.750000
vt 0.625000 0.000000
vt 0.625000 1.000000
vt 0.875000 0.750000
vt 0.375000 0.250000
vt 0.125000 0.500000
vt 0.625000 0.250000
vt 0.875000 0.500000
vt 0.375000 0.750000
vt 0.625000 0.750000
vt 0.375000 0.500000
vt 0.625000 0.500000
vt 0.625000 0.125000
vt 0.875000 0.625000
vt 0.625000 0.625000
s 0
usemtl Material.022
f 1/1/1 2/4/1 9/15/1 4/9/1 3/7/1
f 3/7/2 4/9/2 8/14/2 7/13/2
f 7/13/3 8/14/3 10/17/3 6/12/3 5/11/3
f 5/11/4 6/12/4 2/5/4 1/2/4
f 3/8/5 7/13/5 5/11/5 1/3/5
f 10/17/6 9/16/6 2/6/6 6/12/6
f 8/14/7 4/10/7 9/16/7 10/17/7
