# Blender 3.4.1
# www.blender.org
mtllib EggSeparator.mtl
o pot.002
v 0.034430 -0.010944 -0.006250
v 0.034430 -0.010944 0.019352
v 0.042558 0.014071 -0.006250
v 0.042558 0.014071 0.019352
v -0.006889 -0.007131 -0.023112
v -0.018036 0.000967 -0.023112
v -0.022294 0.014071 -0.023112
v -0.034430 0.039086 -0.006250
v -0.013151 0.054547 -0.006250
v -0.034430 0.039086 0.019352
v -0.013151 0.054547 0.019352
v 0.013151 0.054547 -0.006250
v 0.013151 0.054547 0.019352
v 0.034430 0.039086 -0.006250
v 0.034430 0.039086 0.019352
v 0.006889 -0.007131 -0.023112
v -0.018036 0.027175 -0.023112
v -0.006889 0.035274 -0.023112
v 0.018036 0.000967 -0.023112
v 0.022294 0.014071 -0.023112
v 0.013151 -0.026404 -0.006250
v 0.013151 -0.026404 0.019352
v -0.042558 0.014071 0.019352
v -0.042558 0.014071 -0.006250
v 0.018036 0.027175 -0.023112
v -0.013151 -0.026404 -0.006250
v -0.007449 -0.182471 0.017229
v 0.007449 -0.182471 0.017229
v 0.007449 -0.026404 0.017229
v -0.007449 -0.026404 0.017229
v -0.007449 -0.182471 0.012161
v 0.007449 -0.182471 0.012161
v -0.013151 -0.026404 0.019352
v 0.007449 -0.026404 0.012161
v -0.007449 -0.026404 0.012161
v 0.006889 0.035274 -0.023112
v -0.034430 -0.010944 -0.006250
v -0.034430 -0.010944 0.019352
v 0.029952 -0.007690 0.017229
v 0.037023 0.014071 0.017229
v 0.011441 0.049282 0.017229
v 0.029952 0.035833 0.017229
v -0.037023 0.014071 0.017229
v -0.029952 0.035833 0.017229
v -0.029952 -0.007690 0.017229
v -0.011441 -0.021139 0.017229
v -0.011441 0.049282 0.017229
v 0.011441 -0.021139 0.017229
v -0.004803 -0.190209 0.013062
v -0.004803 -0.190209 0.016329
v 0.004803 -0.190209 0.013062
v 0.004803 -0.190209 0.016329
v 0.029952 -0.007690 -0.005186
v 0.037023 0.014071 -0.005186
v 0.011441 0.049282 -0.005186
v 0.029952 0.035833 -0.005186
v -0.037023 0.014071 -0.005186
v -0.029952 0.035833 -0.005186
v -0.029952 -0.007690 -0.005186
v -0.011441 -0.021139 -0.005186
v -0.011441 0.049282 -0.005186
v 0.011441 -0.021139 -0.005186
v 0.016159 0.002331 -0.019668
v 0.019973 0.014071 -0.019668
v 0.006172 0.033067 -0.019668
v 0.016159 0.025812 -0.019668
v -0.019973 0.014071 -0.019668
v -0.016159 0.025812 -0.019668
v -0.016159 0.002331 -0.019668
v -0.006172 -0.004924 -0.019668
v -0.006172 0.033067 -0.019668
v 0.006172 -0.004924 -0.019668
vn 0.9511 -0.3090 -0.0000
vn -0.5878 0.8090 -0.0000
vn -0.0000 1.0000 -0.0000
vn 0.9511 0.3090 -0.0000
vn 0.5878 0.8090 -0.0000
vn 0.5878 -0.8090 -0.0000
vn -0.9511 0.3090 -0.0000
vn -0.0000 -0.0000 -1.0000
vn -0.0000 -1.0000 -0.0000
vn 1.0000 -0.0000 -0.0000
vn -1.0000 -0.0000 -0.0000
vn -0.0000 -0.1155 0.9933
vn -0.0000 -0.0000 1.0000
vn -0.6262 0.2035 -0.7526
vn -0.0000 -0.8419 0.5396
vn -0.0000 0.6585 -0.7526
vn 0.1884 0.0612 -0.9802
vn 0.6262 0.2035 -0.7526
vn -0.8008 -0.2602 0.5395
vn -0.3870 -0.5327 -0.7526
vn -0.4949 0.6812 0.5395
vn -0.9511 -0.3090 -0.0000
vn 0.3870 -0.5327 -0.7526
vn 0.1165 -0.1603 -0.9802
vn -0.5878 -0.8090 -0.0000
vn -0.3557 0.1156 0.9274
vn -0.2199 -0.3026 0.9274
vn -0.2198 -0.3026 0.9274
vn -0.2198 0.3026 0.9274
vn -0.0000 0.3740 0.9274
vn -0.3557 -0.1156 0.9274
vn 0.2198 0.3026 0.9274
vn -0.0000 -0.3740 0.9274
vn 0.3557 0.1156 0.9274
vn 0.3557 -0.1156 0.9274
vn 0.2198 -0.3026 0.9274
vn 0.2199 -0.3026 0.9274
vn -0.0000 -0.6661 0.7458
vn -0.3915 0.5389 0.7458
vn 0.3915 0.5389 0.7458
vn 0.6335 -0.2058 0.7458
vn -0.6335 -0.2058 0.7458
vn 0.8008 -0.2602 0.5395
vn -0.0000 0.1981 -0.9802
vn -0.9462 -0.3236 -0.0000
vn 0.9462 -0.3236 -0.0000
vn -0.0000 -0.1156 -0.9933
vn -0.1884 0.0612 -0.9802
vn 0.4949 0.6812 0.5395
vn -0.1165 -0.1603 -0.9802
vt -3.999273 1.291339
vt 3.999273 1.291339
vt -10.470230 -7.607069
vt -3.999273 14.204720
vt 3.999273 14.204720
vt 3.999273 16.728020
vt -3.999273 16.728020
vt 3.999273 1.291339
vt -3.999273 1.291339
vt -12.941920 0.000000
vt 3.999273 14.204720
vt -3.999273 14.204720
vt -3.999273 16.728020
vt 3.999273 16.728020
vt 3.479079 -10.707500
vt 0.000000 0.000000
vt 9.108347 -6.617601
vt 0.000000 0.000000
vt 11.258540 0.000000
vt 0.000000 0.000000
vt -3.999273 1.291339
vt 10.470230 7.607069
vt 3.999273 1.291339
vt 3.999273 12.308500
vt -3.999273 1.291339
vt 3.999273 14.204720
vt -3.999273 14.204720
vt 3.999273 16.728020
vt -3.999273 16.728020
vt -3.999273 14.204720
vt -3.999273 16.728020
vt 3.999273 16.728020
vt -3.999273 12.308500
vt 3.999273 1.291339
vt 3.999273 14.204720
vt -3.999273 16.728020
vt 3.999273 16.728020
vt 3.999273 1.291339
vt -3.999273 1.291339
vt -10.470230 7.607069
vt 3.999273 14.204720
vt -3.999273 14.204720
vt 3.999273 16.728020
vt -3.999273 16.728020
vt 0.000000 0.000000
vt -3.479079 -10.707500
vt 9.108347 6.617601
vt 0.000000 0.000000
vt 3.479079 10.707500
vt 0.000000 0.000000
vt -9.108347 -6.617601
vt 0.000000 0.000000
vt -11.258540 0.000000
vt 0.000000 0.000000
vt -3.999273 1.291339
vt -3.999273 -12.308500
vt 3.999273 14.204720
vt -3.999273 14.204720
vt 3.999273 16.728020
vt -3.999273 16.728020
vt 3.999273 14.204720
vt -3.999273 14.204720
vt 3.999273 16.728020
vt -3.999273 16.728020
vt 3.999273 1.291339
vt 12.941920 0.000000
vt -3.999273 1.291339
vt -9.108347 6.617601
vt 0.000000 0.000000
vt 3.999273 1.291339
vt 3.999273 -12.308500
vt -2.265469 13.559060
vt 2.265469 13.559060
vt 2.265469 13.559060
vt -2.265469 13.559060
vt -2.265469 12.017940
vt 2.265469 12.017940
vt 3.999273 14.204720
vt 3.999273 16.728020
vt -3.999273 16.728020
vt 2.265469 12.017940
vt -2.265469 12.017940
vt -3.479079 10.707500
vt 0.000000 0.000000
vt 10.470230 -7.607069
vt -3.999273 1.291339
vt 3.999273 1.291339
vt -3.999273 14.204720
vt 3.999273 14.204720
vt 3.999273 16.728020
vt -3.999273 16.728020
vt -3.479079 15.001740
vt 3.479079 15.001740
vt 3.479079 15.001740
vt -3.479079 15.001740
vt -3.479079 15.001740
vt 3.479079 15.001740
vt 3.479079 15.001740
vt -3.479079 15.001740
vt 3.479079 15.001740
vt -3.479079 15.001740
vt -3.479079 15.001740
vt 3.479079 15.001740
vt 3.479079 15.001740
vt -3.479079 15.001740
vt -3.479079 15.001740
vt 3.479079 15.001740
vt -3.479079 15.001740
vt 3.479079 15.001740
vt -3.479079 15.001740
vt 3.479079 15.001740
vt -2.265469 12.017940
vt -2.265469 13.559060
vt 2.265469 12.017940
vt 2.265469 13.559060
vt -3.479079 15.001740
vt 3.479079 15.001740
vt -3.479079 15.001740
vt 3.479079 15.001740
vt -3.479079 15.001740
vt 3.479079 15.001740
vt 3.479079 15.001740
vt -3.479079 15.001740
vt 3.479079 15.001740
vt -3.479079 15.001740
vt -3.479079 15.001740
vt 3.479079 15.001740
vt -3.479079 15.001740
vt 3.479079 15.001740
vt -3.479079 15.001740
vt 3.479079 15.001740
vt 3.479079 15.001740
vt -3.479079 15.001740
vt -3.479079 15.001740
vt 3.479079 15.001740
vt -3.479079 15.001740
vt 3.479079 15.001740
vt 3.479079 15.001740
vt -3.479079 15.001740
vt -3.479079 15.001740
vt -3.479079 15.001740
vt 3.479079 15.001740
vt -3.479079 15.001740
vt 3.479079 15.001740
vt -3.479079 15.001740
vt -3.479079 15.001740
vt -3.479079 15.001740
vt 3.479079 15.001740
vt -3.479079 15.001740
s 0
usemtl greyDark.005
f 3/8/1 2/4/1 1/1/1
f 2/4/1 3/8/1 4/11/1
f 10/26/2 9/25/2 8/23/2
f 9/25/2 10/26/2 11/30/2
f 11/31/3 13/37/3 12/34/3 9/24/3
f 14/38/4 4/12/4 3/9/4
f 4/12/4 14/38/4 15/41/4
f 13/35/5 14/39/5 12/34/5
f 14/39/5 13/35/5 15/42/5
f 2/5/6 21/55/6 1/2/6
f 21/55/6 2/5/6 22/58/6
f 10/27/7 24/65/7 23/61/7
f 24/65/7 10/27/7 8/21/7
f 35/82/8 34/81/8 32/77/8 31/76/8
f 49/112/9 51/114/9 52/115/9 50/113/9
f 34/81/10 29/74/10 28/73/10 32/77/10
f 35/82/9 26/70/9 34/81/9
f 29/74/9 22/57/9 30/75/9
f 33/79/9 35/82/9 30/75/9
f 30/75/11 35/82/11 31/76/11 27/72/11
f 34/81/9 22/57/9 29/74/9
f 22/58/9 34/81/9 21/55/9
f 35/82/9 33/79/9 26/70/9
f 21/55/9 34/81/9 26/70/9
f 30/75/9 22/60/9 33/79/9
f 28/73/12 27/72/12 50/113/12 52/115/12
f 29/74/13 30/75/13 27/72/13 28/73/13
f 8/22/14 7/19/14 24/66/14
f 7/19/14 8/22/14 17/47/14
f 5/16/1 70/146/1 60/130/1 26/71/1
f 16/45/15 72/149/15 70/146/15 5/16/15
f 18/49/16 9/24/16 12/33/16
f 18/49/16 12/33/16 36/83/16
f 59/129/17 37/85/17 24/67/17 57/125/17
f 57/125/9 24/66/9 7/19/9 67/141/9
f 25/68/18 14/40/18 20/53/18
f 20/53/18 14/40/18 3/10/18
f 6/17/2 37/85/2 59/129/2 69/144/2
f 69/145/19 67/141/19 7/20/19 6/18/19
f 37/85/20 6/17/20 26/71/20
f 26/71/20 6/17/20 5/15/20
f 18/49/21 17/47/21 68/143/21 71/147/21
f 71/147/22 61/133/22 9/25/22 18/49/22
f 21/56/23 16/46/23 19/51/23
f 21/56/23 19/51/23 1/3/23
f 68/142/5 17/47/5 8/22/5 58/126/5
f 61/132/24 58/126/24 8/23/24 9/25/24
f 33/78/25 37/86/25 26/70/25
f 37/86/25 33/78/25 38/88/25
f 23/62/22 37/87/22 38/89/22
f 37/87/22 23/62/22 24/67/22
f 2/6/26 40/95/26 39/93/26
f 40/95/26 2/6/26 4/13/26
f 42/98/27 13/36/27 41/96/27
f 13/36/28 42/98/28 15/43/28
f 22/59/29 39/92/29 48/111/29
f 39/92/29 22/59/29 2/7/29
f 22/60/30 46/107/30 33/79/30
f 46/107/30 22/60/30 48/110/30
f 40/94/31 15/44/31 42/99/31
f 15/44/31 40/94/31 4/14/31
f 33/80/32 45/104/32 38/90/32
f 45/104/32 33/80/32 46/106/32
f 47/108/33 13/37/33 11/31/33
f 13/37/33 47/108/33 41/97/33
f 38/91/34 43/100/34 23/63/34
f 43/100/34 38/91/34 45/105/34
f 43/101/35 10/28/35 23/64/35
f 10/28/35 43/101/35 44/103/35
f 44/102/36 11/32/36 10/29/36
f 11/32/37 44/102/37 47/109/37
f 19/52/8 16/45/8 5/16/8 6/18/8 7/20/8 17/48/8 18/50/8 36/84/8 25/69/8 20/54/8
f 45/104/5 46/106/5 60/130/5 59/129/5
f 42/98/25 41/96/25 55/120/25 56/122/25
f 40/94/22 42/99/22 56/123/22 54/119/22
f 46/107/3 48/110/3 62/134/3 60/131/3
f 43/100/4 45/105/4 59/128/4 57/124/4
f 41/97/9 47/108/9 61/133/9 55/121/9
f 48/111/2 39/92/2 53/116/2 62/135/2
f 47/109/6 44/102/6 58/126/6 61/132/6
f 39/93/7 40/95/7 54/118/7 53/117/7
f 44/103/1 43/101/1 57/125/1 58/127/1
f 55/121/38 61/133/38 71/147/38 65/138/38
f 62/135/39 53/116/39 63/136/39 72/148/39
f 59/129/40 60/130/40 70/146/40 69/144/40
f 58/127/41 57/125/41 67/141/41 68/142/41
f 54/119/42 56/123/42 66/140/42 64/137/42
f 20/54/9 3/10/9 54/119/9 64/137/9
f 19/52/5 63/136/5 53/116/5 1/3/5
f 64/137/43 63/136/43 19/52/43 20/54/43
f 21/56/44 26/71/44 60/131/44 62/135/44
f 62/135/22 72/149/22 16/46/22 21/56/22
f 64/137/13 66/140/13 65/139/13 71/147/13 68/143/13 67/141/13 69/145/13 70/146/13 72/149/13 63/136/13
f 27/72/45 31/76/45 49/112/45 50/113/45
f 32/77/46 28/73/46 52/115/46 51/114/46
f 31/76/47 32/77/47 51/114/47 49/112/47
f 3/10/48 1/3/48 53/117/48 54/119/48
f 25/69/49 36/84/49 65/139/49 66/140/49
f 36/84/1 12/33/1 55/121/1 65/139/1
f 66/140/2 56/123/2 14/40/2 25/69/2
f 56/123/50 55/121/50 12/34/50 14/40/50
