# Blender 3.4.1
# www.blender.org
mtllib EggSeparatorCollider.mtl
o pot.002
v 0.013151 -0.026404 -0.006250
v 0.013151 -0.026404 0.019352
v -0.013151 -0.026404 -0.006250
v 0.007449 -0.026404 0.017229
v -0.007449 -0.026404 0.017229
v -0.013151 -0.026404 0.019352
v 0.007449 -0.026404 0.012161
v -0.007449 -0.026404 0.012161
v -0.011441 -0.021139 0.017229
v 0.011441 -0.021139 0.017229
v -0.011441 -0.021139 -0.005186
v 0.011441 -0.021139 -0.005186
vn -0.0000 -1.0000 -0.0000
vn -0.0000 0.3740 0.9274
vn -0.0000 1.0000 -0.0000
vn -0.0000 0.1981 -0.9802
vn 0.9511 0.3090 -0.0000
vn -0.9511 0.3090 -0.0000
vt -3.999273 1.291339
vt -3.999273 -12.308500
vt 3.999273 14.204720
vt -3.999273 14.204720
vt -3.999273 16.728020
vt 3.999273 1.291339
vt 3.999273 -12.308500
vt 2.265469 13.559060
vt -2.265469 13.559060
vt 3.999273 16.728020
vt 2.265469 12.017940
vt -2.265469 12.017940
vt 3.479079 15.001740
vt -3.479079 15.001740
vt 3.479079 15.001740
vt -3.479079 15.001740
vt 3.479079 15.001740
s 0
usemtl greyDark.005
f 8/12/1 3/6/1 7/11/1
f 4/8/1 2/3/1 5/9/1
f 6/10/1 8/12/1 5/9/1
f 7/11/1 2/3/1 4/8/1
f 2/4/1 7/11/1 1/1/1
f 8/12/1 6/10/1 3/6/1
f 1/1/1 7/11/1 3/6/1
f 5/9/1 2/5/1 6/10/1
f 2/5/2 9/13/2 6/10/2
f 9/13/2 2/5/2 10/14/2
f 9/13/3 10/14/3 12/16/3 11/15/3
f 1/2/4 3/7/4 11/15/4 12/17/4
f 5/9/1 8/12/1 7/11/1 4/8/1
f 1/2/5 12/17/5 10/14/5 2/5/5
f 9/13/6 11/15/6 3/7/6 6/10/6
o pot.001
v -0.007449 -0.182471 0.017229
v 0.007449 -0.182471 0.017229
v 0.007449 -0.026404 0.017229
v -0.007449 -0.026404 0.017229
v -0.007449 -0.182471 0.012161
v 0.007449 -0.182471 0.012161
v 0.007449 -0.026404 0.012161
v -0.007449 -0.026404 0.012161
v -0.004803 -0.190209 0.013062
v -0.004803 -0.190209 0.016329
v 0.004803 -0.190209 0.013062
v 0.004803 -0.190209 0.016329
vn -0.0000 -0.0000 -1.0000
vn -0.0000 -1.0000 -0.0000
vn 1.0000 -0.0000 -0.0000
vn -1.0000 -0.0000 -0.0000
vn -0.0000 -0.1155 0.9933
vn -0.0000 -0.0000 1.0000
vn 0.9462 -0.3236 -0.0000
vn -0.0000 -0.1156 -0.9933
vn -0.0000 1.0000 -0.0000
vn -0.9462 -0.3236 -0.0000
vt -2.265469 13.559060
vt 2.265469 13.559060
vt 2.265469 13.559060
vt -2.265469 13.559060
vt -2.265469 12.017940
vt 2.265469 12.017940
vt 2.265469 12.017940
vt -2.265469 12.017940
vt -2.265469 12.017940
vt -2.265469 13.559060
vt 2.265469 12.017940
vt 2.265469 13.559060
s 0
usemtl greyDark.005
f 20/25/7 19/24/7 18/23/7 17/22/7
f 21/26/8 23/28/8 24/29/8 22/27/8
f 19/24/9 15/20/9 14/19/9 18/23/9
f 16/21/10 20/25/10 17/22/10 13/18/10
f 14/19/11 13/18/11 22/27/11 24/29/11
f 15/20/12 16/21/12 13/18/12 14/19/12
f 18/23/13 14/19/13 24/29/13 23/28/13
f 17/22/14 18/23/14 23/28/14 21/26/14
f 16/21/15 15/20/15 19/24/15 20/25/15
f 13/18/16 17/22/16 21/26/16 22/27/16
o pot.003
v -0.006889 -0.007131 -0.023112
v -0.018036 0.000967 -0.023112
v -0.022294 0.014071 -0.023112
v 0.006889 -0.007131 -0.023112
v -0.018036 0.027175 -0.023112
v -0.006889 0.035274 -0.023112
v 0.018036 0.000967 -0.023112
v 0.022294 0.014071 -0.023112
v 0.018036 0.027175 -0.023112
v 0.006889 0.035274 -0.023112
v 0.016159 0.002331 -0.019668
v 0.019973 0.014071 -0.019668
v 0.006172 0.033067 -0.019668
v 0.016159 0.025812 -0.019668
v -0.019973 0.014071 -0.019668
v -0.016159 0.025812 -0.019668
v -0.016159 0.002331 -0.019668
v -0.006172 -0.004924 -0.019668
v -0.006172 0.033067 -0.019668
v 0.006172 -0.004924 -0.019668
vn -0.0000 -0.8419 0.5396
vn -0.8008 -0.2602 0.5395
vn -0.4949 0.6812 0.5395
vn -0.0000 -0.0000 -1.0000
vn 0.8008 -0.2602 0.5395
vn -0.0000 -0.0000 1.0000
vn 0.4949 0.6812 0.5395
vn 0.8008 0.2602 0.5395
vn -0.0000 0.8420 0.5395
vn -0.8008 0.2602 0.5395
vn -0.4949 -0.6812 0.5395
vn 0.4949 -0.6812 0.5395
vt 0.000000 0.000000
vt 0.000000 0.000000
vt 0.000000 0.000000
vt 0.000000 0.000000
vt 0.000000 0.000000
vt 9.108347 6.617601
vt 3.479079 10.707500
vt 0.000000 0.000000
vt 0.000000 0.000000
vt 0.000000 0.000000
vt 0.000000 0.000000
vt 0.000000 0.000000
vt -3.479079 15.001740
vt 3.479079 15.001740
vt -3.479079 15.001740
vt -3.479079 15.001740
vt -3.479079 15.001740
vt -3.479079 15.001740
vt -3.479079 15.001740
vt -3.479079 15.001740
vt -3.479079 15.001740
vt -3.479079 15.001740
s 0
usemtl greyDark.005
f 28/33/17 44/51/17 42/49/17 25/30/17
f 41/48/18 39/46/18 27/32/18 26/31/18
f 30/36/19 29/35/19 40/47/19 43/50/19
f 31/38/20 28/33/20 25/30/20 26/31/20 27/32/20 29/34/20 30/37/20 34/41/20 33/40/20 32/39/20
f 36/43/21 35/42/21 31/38/21 32/39/21
f 36/43/22 38/45/22 37/44/22 43/50/22 40/47/22 39/46/22 41/48/22 42/49/22 44/51/22 35/42/22
f 33/40/23 34/41/23 37/44/23 38/45/23
f 33/40/24 38/45/24 36/43/24 32/39/24
f 43/50/25 37/44/25 34/41/25 30/37/25
f 29/35/26 27/32/26 39/46/26 40/47/26
f 25/30/27 42/49/27 41/48/27 26/31/27
f 35/42/28 44/51/28 28/33/28 31/38/28
o pot.004
v -0.006889 -0.007131 -0.023112
v -0.018036 0.000967 -0.023112
v -0.013151 -0.026404 -0.006250
v -0.034430 -0.010944 -0.006250
v -0.029952 -0.007690 -0.005186
v -0.011441 -0.021139 -0.005186
v -0.016159 0.002331 -0.019668
v -0.006172 -0.004924 -0.019668
vn 0.9511 -0.3090 -0.0000
vn -0.5878 0.8090 -0.0000
vn -0.3870 -0.5327 -0.7526
vn 0.3915 0.5389 0.7458
vn -0.1165 -0.1603 0.9802
vn 0.4949 0.6812 -0.5395
vt 3.479079 -10.707500
vt 0.000000 0.000000
vt 9.108347 -6.617601
vt 3.999273 -12.308500
vt 10.470230 -7.607069
vt 3.479079 15.001740
vt -3.479079 15.001740
vt 3.479079 15.001740
vt -3.479079 15.001740
s 0
usemtl greyDark.005
f 45/53/29 52/60/29 50/58/29 47/55/29
f 46/54/30 48/56/30 49/57/30 51/59/30
f 48/56/31 46/54/31 47/55/31
f 47/55/31 46/54/31 45/52/31
f 49/57/32 50/58/32 52/60/32 51/59/32
f 49/57/33 48/56/33 47/55/33 50/58/33
f 45/53/34 46/54/34 51/59/34 52/60/34
o pot.005
v -0.022294 0.014071 -0.023112
v -0.034430 0.039086 -0.006250
v -0.018036 0.027175 -0.023112
v -0.042558 0.014071 -0.006250
v -0.037023 0.014071 -0.005186
v -0.029952 0.035833 -0.005186
v -0.019973 0.014071 -0.019668
v -0.016159 0.025812 -0.019668
vn -0.6262 0.2035 -0.7526
vn -0.0000 -1.0000 -0.0000
vn 0.5878 0.8090 -0.0000
vn 0.6335 -0.2058 0.7458
vn -0.1884 0.0612 0.9802
vn 0.8008 -0.2602 -0.5395
vt 11.258540 0.000000
vt 10.470230 7.607069
vt 9.108347 6.617601
vt 12.941920 0.000000
vt -3.479079 15.001740
vt 3.479079 15.001740
vt -3.479079 15.001740
vt -3.479079 15.001740
vt 3.479079 15.001740
s 0
usemtl greyDark.005
f 54/62/35 53/61/35 56/64/35
f 53/61/35 54/62/35 55/63/35
f 57/65/36 56/64/36 53/61/36 59/68/36
f 60/69/37 55/63/37 54/62/37 58/67/37
f 58/66/38 57/65/38 59/68/38 60/69/38
f 57/65/39 58/67/39 54/62/39 56/64/39
f 55/63/40 60/69/40 59/68/40 53/61/40
o pot.006
v -0.013151 0.054547 -0.006250
v 0.013151 0.054547 -0.006250
v -0.006889 0.035274 -0.023112
v 0.006889 0.035274 -0.023112
v 0.011441 0.049282 -0.005186
v -0.011441 0.049282 -0.005186
v 0.006172 0.033067 -0.019668
v -0.006172 0.033067 -0.019668
vn -0.0000 0.6585 -0.7526
vn -0.9511 -0.3090 -0.0000
vn -0.0000 -0.6661 0.7458
vn 0.9511 -0.3090 -0.0000
vn -0.0000 0.1981 0.9802
vn -0.0000 -0.8420 -0.5395
vt 3.999273 12.308500
vt -3.999273 1.291339
vt -3.999273 12.308500
vt 3.479079 10.707500
vt -3.479079 10.707500
vt 0.000000 0.000000
vt 3.479079 15.001740
vt -3.479079 15.001740
vt -3.479079 15.001740
vt 3.479079 15.001740
vt -3.479079 15.001740
s 0
usemtl greyDark.005
f 63/73/41 61/70/41 62/72/41
f 63/73/41 62/72/41 64/74/41
f 68/80/42 66/77/42 61/71/42 63/73/42
f 65/76/43 66/77/43 68/80/43 67/79/43
f 64/75/44 62/72/44 65/76/44 67/78/44
f 61/71/45 66/77/45 65/76/45 62/72/45
f 68/80/46 63/73/46 64/75/46 67/79/46
o pot.007
v 0.034430 -0.010944 -0.006250
v 0.006889 -0.007131 -0.023112
v 0.018036 0.000967 -0.023112
v 0.013151 -0.026404 -0.006250
v 0.029952 -0.007690 -0.005186
v 0.011441 -0.021139 -0.005186
v 0.016159 0.002331 -0.019668
v 0.006172 -0.004924 -0.019668
vn 0.3870 -0.5327 -0.7526
vn -0.3915 0.5389 0.7458
vn 0.5878 0.8090 -0.0000
vn -0.9511 -0.3090 -0.0000
vn -0.4949 0.6812 -0.5395
vn 0.1165 -0.1603 0.9802
vt -10.470230 -7.607069
vt -3.479079 -10.707500
vt -9.108347 -6.617601
vt 0.000000 0.000000
vt -3.999273 -12.308500
vt -3.479079 15.001740
vt 3.479079 15.001740
vt -3.479079 15.001740
vt 3.479079 15.001740
vt -3.479079 15.001740
s 0
usemtl greyDark.005
f 72/85/47 70/82/47 71/83/47
f 72/85/47 71/83/47 69/81/47
f 74/87/48 73/86/48 75/88/48 76/89/48
f 71/84/49 75/88/49 73/86/49 69/81/49
f 74/87/50 76/90/50 70/82/50 72/85/50
f 75/88/51 71/84/51 70/82/51 76/90/51
f 72/85/52 69/81/52 73/86/52 74/87/52
o pot.008
v 0.042558 0.014071 -0.006250
v 0.034430 0.039086 -0.006250
v 0.022294 0.014071 -0.023112
v 0.018036 0.027175 -0.023112
v 0.037023 0.014071 -0.005186
v 0.029952 0.035833 -0.005186
v 0.019973 0.014071 -0.019668
v 0.016159 0.025812 -0.019668
vn 0.6262 0.2035 -0.7526
vn -0.6335 -0.2058 0.7458
vn -0.0000 -1.0000 -0.0000
vn -0.5878 0.8090 -0.0000
vn -0.8008 -0.2602 -0.5395
vn 0.1884 0.0612 0.9802
vt -12.941920 0.000000
vt -10.470230 7.607069
vt -11.258540 0.000000
vt 0.000000 0.000000
vt -9.108347 6.617601
vt 0.000000 0.000000
vt 3.479079 15.001740
vt -3.479079 15.001740
vt 3.479079 15.001740
vt -3.479079 15.001740
s 0
usemtl greyDark.005
f 80/95/53 78/92/53 79/93/53
f 79/93/53 78/92/53 77/91/53
f 81/97/54 82/98/54 84/100/54 83/99/54
f 79/94/55 77/91/55 81/97/55 83/99/55
f 84/100/56 82/98/56 78/92/56 80/96/56
f 80/96/57 79/94/57 83/99/57 84/100/57
f 78/92/58 82/98/58 81/97/58 77/91/58
o pot.009
v 0.034430 -0.010944 -0.006250
v 0.034430 -0.010944 0.019352
v 0.013151 -0.026404 -0.006250
v 0.013151 -0.026404 0.019352
v 0.029952 -0.007690 0.017229
v 0.011441 -0.021139 0.017229
v 0.029952 -0.007690 -0.005186
v 0.011441 -0.021139 -0.005186
vn 0.5878 -0.8090 -0.0000
vn -0.2198 0.3026 0.9274
vn -0.5878 0.8090 -0.0000
vn -0.1165 0.1603 -0.9802
vn -0.9511 -0.3090 -0.0000
vn 0.5878 0.8090 -0.0000
vt 3.999273 1.291339
vt 3.999273 14.204720
vt -3.999273 16.728020
vt -3.999273 1.291339
vt -3.999273 14.204720
vt 3.999273 16.728020
vt -3.479079 15.001740
vt 3.479079 15.001740
vt -3.479079 15.001740
vt 3.479079 15.001740
s 0
usemtl greyDark.005
f 86/102/59 87/104/59 85/101/59
f 87/104/59 86/102/59 88/105/59
f 88/106/60 89/107/60 90/108/60
f 89/107/60 88/106/60 86/103/60
f 90/108/61 89/107/61 91/109/61 92/110/61
f 87/104/62 92/110/62 91/109/62 85/101/62
f 87/104/63 88/106/63 90/108/63 92/110/63
f 85/101/64 91/109/64 89/107/64 86/103/64
o pot.010
v 0.034430 -0.010944 -0.006250
v 0.034430 -0.010944 0.019352
v 0.042558 0.014071 -0.006250
v 0.042558 0.014071 0.019352
v 0.029952 -0.007690 0.017229
v 0.037023 0.014071 0.017229
v 0.029952 -0.007690 -0.005186
v 0.037023 0.014071 -0.005186
vn 0.9511 -0.3090 -0.0000
vn -0.3557 0.1156 0.9274
vn -0.9511 0.3090 -0.0000
vn -0.1884 0.0612 -0.9802
vn -0.5878 -0.8090 -0.0000
vn -0.0000 1.0000 -0.0000
vt -3.999273 1.291339
vt -10.470230 -7.607069
vt -3.999273 14.204720
vt 3.999273 16.728020
vt 3.999273 1.291339
vt -12.941920 0.000000
vt 3.999273 14.204720
vt -3.999273 16.728020
vt 3.479079 15.001740
vt -3.479079 15.001740
vt 3.479079 15.001740
vt -3.479079 15.001740
vt 3.479079 15.001740
s 0
usemtl greyDark.005
f 95/115/65 94/113/65 93/111/65
f 94/113/65 95/115/65 96/117/65
f 94/114/66 98/120/66 97/119/66
f 98/120/66 94/114/66 96/118/66
f 97/119/67 98/120/67 100/122/67 99/121/67
f 95/116/68 93/112/68 99/121/68 100/123/68
f 93/112/69 94/114/69 97/119/69 99/121/69
f 95/116/70 100/123/70 98/120/70 96/118/70
o pot.011
v 0.042558 0.014071 -0.006250
v 0.042558 0.014071 0.019352
v 0.034430 0.039086 -0.006250
v 0.034430 0.039086 0.019352
v 0.037023 0.014071 0.017229
v 0.029952 0.035833 0.017229
v 0.037023 0.014071 -0.005186
v 0.029952 0.035833 -0.005186
vn 0.9511 0.3090 -0.0000
vn -0.3557 -0.1156 0.9274
vn -0.9511 -0.3090 -0.0000
vn -0.5878 0.8090 -0.0000
vn -0.0000 -1.0000 -0.0000
vn -0.1884 -0.0612 -0.9802
vt -3.999273 1.291339
vt -3.999273 14.204720
vt 3.999273 16.728020
vt 3.999273 1.291339
vt 3.999273 14.204720
vt -3.999273 16.728020
vt 3.479079 15.001740
vt -3.479079 15.001740
vt 3.479079 15.001740
vt -3.479079 15.001740
s 0
usemtl greyDark.005
f 103/127/71 102/125/71 101/124/71
f 102/125/71 103/127/71 104/128/71
f 105/130/72 104/129/72 106/131/72
f 104/129/72 105/130/72 102/126/72
f 105/130/73 106/131/73 108/133/73 107/132/73
f 106/131/74 104/129/74 103/127/74 108/133/74
f 101/124/75 102/126/75 105/130/75 107/132/75
f 103/127/76 101/124/76 107/132/76 108/133/76
o pot.012
v 0.013151 0.054547 -0.006250
v 0.013151 0.054547 0.019352
v 0.034430 0.039086 -0.006250
v 0.034430 0.039086 0.019352
v 0.011441 0.049282 0.017229
v 0.029952 0.035833 0.017229
v 0.011441 0.049282 -0.005186
v 0.029952 0.035833 -0.005186
vn 0.5878 0.8090 -0.0000
vn -0.2199 -0.3026 0.9274
vn -0.2198 -0.3026 0.9274
vn -0.5878 -0.8090 -0.0000
vn -0.1165 -0.1603 -0.9802
vn 0.5878 -0.8090 -0.0000
vn -0.9511 0.3090 -0.0000
vt 3.999273 1.291339
vt -3.999273 16.728020
vt 3.999273 14.204720
vt -10.470230 7.607069
vt -3.999273 1.291339
vt -3.999273 14.204720
vt 3.999273 16.728020
vt -3.479079 15.001740
vt 3.479079 15.001740
vt 3.479079 15.001740
vt -3.479079 15.001740
vt 3.479079 15.001740
vt -3.479079 15.001740
s 0
usemtl greyDark.005
f 110/136/77 111/138/77 109/134/77
f 111/138/77 110/136/77 112/139/77
f 114/142/78 110/135/78 113/141/78
f 110/135/79 114/142/79 112/140/79
f 114/142/80 113/141/80 115/144/80 116/145/80
f 116/146/81 115/143/81 109/134/81 111/137/81
f 114/142/82 116/146/82 111/138/82 112/140/82
f 113/141/83 110/136/83 109/134/83 115/144/83
o pot.013
v -0.013151 0.054547 -0.006250
v -0.013151 0.054547 0.019352
v 0.013151 0.054547 -0.006250
v 0.013151 0.054547 0.019352
v 0.011441 0.049282 0.017229
v -0.011441 0.049282 0.017229
v 0.011441 0.049282 -0.005186
v -0.011441 0.049282 -0.005186
vn -0.0000 1.0000 -0.0000
vn -0.0000 -0.3740 0.9274
vn -0.0000 -1.0000 -0.0000
vn -0.9511 -0.3090 -0.0000
vn 0.9511 -0.3090 -0.0000
vn -0.0000 -0.1981 -0.9802
vt 3.999273 12.308500
vt -3.999273 16.728020
vt 3.999273 1.291339
vt 3.999273 16.728020
vt 3.479079 15.001740
vt -3.479079 15.001740
vt 3.479079 15.001740
vt -3.479079 15.001740
s 0
usemtl greyDark.005
f 118/148/84 120/150/84 119/149/84 117/147/84
f 122/152/85 120/150/85 118/148/85
f 120/150/85 122/152/85 121/151/85
f 121/151/86 122/152/86 124/154/86 123/153/86
f 117/147/87 124/154/87 122/152/87 118/148/87
f 120/150/88 121/151/88 123/153/88 119/149/88
f 117/147/89 119/149/89 123/153/89 124/154/89
o pot.014
v -0.034430 0.039086 -0.006250
v -0.013151 0.054547 -0.006250
v -0.034430 0.039086 0.019352
v -0.013151 0.054547 0.019352
v -0.029952 0.035833 0.017229
v -0.011441 0.049282 0.017229
v -0.029952 0.035833 -0.005186
v -0.011441 0.049282 -0.005186
vn -0.5878 0.8090 -0.0000
vn 0.1165 -0.1603 -0.9802
vn 0.2198 -0.3026 0.9274
vn 0.2199 -0.3026 0.9274
vn 0.5878 -0.8090 -0.0000
vn 0.9511 0.3090 -0.0000
vn -0.5878 -0.8090 -0.0000
vt 3.999273 1.291339
vt -3.999273 1.291339
vt 3.999273 14.204720
vt -3.999273 16.728020
vt -3.999273 14.204720
vt 3.999273 16.728020
vt -3.479079 15.001740
vt 3.479079 15.001740
vt -3.479079 15.001740
vt 3.479079 15.001740
s 0
usemtl greyDark.005
f 127/157/90 126/156/90 125/155/90
f 126/156/90 127/157/90 128/159/90
f 132/164/91 131/163/91 125/155/91 126/156/91
f 129/161/92 128/160/92 127/158/92
f 128/160/93 129/161/93 130/162/93
f 130/162/94 129/161/94 131/163/94 132/164/94
f 126/156/95 128/160/95 130/162/95 132/164/95
f 125/155/96 131/163/96 129/161/96 127/158/96
o pot.015
v -0.034430 0.039086 -0.006250
v -0.034430 0.039086 0.019352
v -0.042558 0.014071 0.019352
v -0.042558 0.014071 -0.006250
v -0.037023 0.014071 0.017229
v -0.029952 0.035833 0.017229
v -0.037023 0.014071 -0.005186
v -0.029952 0.035833 -0.005186
vn -0.9511 0.3090 -0.0000
vn 0.3557 -0.1156 0.9274
vn 0.9511 -0.3090 -0.0000
vn 0.5878 0.8090 -0.0000
vn -0.0000 -1.0000 -0.0000
vn 0.1884 -0.0612 -0.9802
vt -3.999273 1.291339
vt -3.999273 14.204720
vt 3.999273 16.728020
vt 3.999273 14.204720
vt -3.999273 16.728020
vt 3.999273 1.291339
vt -3.479079 15.001740
vt 3.479079 15.001740
vt -3.479079 15.001740
vt 3.479079 15.001740
s 0
usemtl greyDark.005
f 134/166/97 136/170/97 135/168/97
f 136/170/97 134/166/97 133/165/97
f 137/171/98 134/167/98 135/169/98
f 134/167/98 137/171/98 138/172/98
f 138/172/99 137/171/99 139/173/99 140/174/99
f 133/165/100 134/167/100 138/172/100 140/174/100
f 136/170/101 139/173/101 137/171/101 135/169/101
f 139/173/102 136/170/102 133/165/102 140/174/102
o pot.016
v -0.042558 0.014071 0.019352
v -0.042558 0.014071 -0.006250
v -0.034430 -0.010944 -0.006250
v -0.034430 -0.010944 0.019352
v -0.037023 0.014071 0.017229
v -0.029952 -0.007690 0.017229
v -0.037023 0.014071 -0.005186
v -0.029952 -0.007690 -0.005186
vn 0.1884 0.0612 -0.9802
vn -0.9511 -0.3090 -0.0000
vn 0.3557 0.1156 0.9274
vn 0.9511 0.3090 -0.0000
vn -0.0000 1.0000 -0.0000
vn 0.5878 -0.8090 -0.0000
vt -3.999273 14.204720
vt 3.999273 16.728020
vt -3.999273 1.291339
vt 3.999273 1.291339
vt 10.470230 -7.607069
vt 3.999273 14.204720
vt -3.999273 16.728020
vt 3.479079 15.001740
vt -3.479079 15.001740
vt 3.479079 15.001740
vt -3.479079 15.001740
vt -3.479079 15.001740
vt 3.479079 15.001740
s 0
usemtl greyDark.005
f 148/187/103 143/179/103 142/177/103 147/185/103
f 141/175/104 143/178/104 144/180/104
f 143/178/104 141/175/104 142/177/104
f 144/181/105 145/182/105 141/176/105
f 145/182/105 144/181/105 146/183/105
f 145/182/106 146/183/106 148/186/106 147/184/106
f 142/177/107 141/176/107 145/182/107 147/185/107
f 143/179/108 148/187/108 146/183/108 144/181/108
o pot.017
v -0.013151 -0.026404 -0.006250
v -0.013151 -0.026404 0.019352
v -0.034430 -0.010944 -0.006250
v -0.034430 -0.010944 0.019352
v -0.029952 -0.007690 0.017229
v -0.011441 -0.021139 0.017229
v -0.029952 -0.007690 -0.005186
v -0.011441 -0.021139 -0.005186
vn -0.5878 -0.8090 -0.0000
vn 0.2198 0.3026 0.9274
vn 0.5878 0.8090 -0.0000
vn -0.5878 0.8090 -0.0000
vn 0.9511 -0.3090 -0.0000
vn 0.1165 0.1603 -0.9802
vt 3.999273 1.291339
vt -3.999273 16.728020
vt 3.999273 14.204720
vt -3.999273 1.291339
vt -3.999273 14.204720
vt 3.999273 16.728020
vt 3.479079 15.001740
vt -3.479079 15.001740
vt 3.479079 15.001740
vt -3.479079 15.001740
s 0
usemtl greyDark.005
f 150/190/109 151/191/109 149/188/109
f 151/191/109 150/190/109 152/192/109
f 150/189/110 153/194/110 152/193/110
f 153/194/110 150/189/110 154/195/110
f 153/194/111 154/195/111 156/197/111 155/196/111
f 151/191/112 152/193/112 153/194/112 155/196/112
f 154/195/113 150/190/113 149/188/113 156/197/113
f 155/196/114 156/197/114 149/188/114 151/191/114
