# Blender 3.4.1
# www.blender.org
mtllib chair.mtl
o chair.003
v -0.105330 -0.386211 0.175551
v -0.596872 -0.386211 0.175551
v -0.105330 -0.386211 0.245771
v -0.596872 -0.386211 0.245771
v -0.561762 -0.140440 -0.000000
v -0.561762 0.000000 0.000000
v -0.702202 -0.140440 -0.000000
v -0.702202 0.000000 0.000000
v -0.140440 -0.561762 1.509735
v -0.140440 -0.596872 1.035748
v -0.140440 -0.561762 0.842643
v -0.140440 -0.702202 0.842643
v -0.140440 -0.667092 1.035748
v -0.140440 -0.667092 1.176189
v -0.140440 -0.596872 1.176189
v -0.140440 -0.702202 1.509735
v -0.596872 -0.315991 0.175551
v -0.105330 -0.315991 0.175551
v -0.596872 -0.315991 0.245771
v -0.105330 -0.315991 0.245771
v 0.000000 -0.000000 0.842643
v 0.000000 -0.561762 0.842643
v -0.702202 -0.000000 0.842643
v -0.561762 -0.561762 0.842643
v -0.702202 -0.561762 0.842643
v -0.561762 -0.702202 0.842643
v -0.561762 -0.667092 1.035748
v -0.561762 -0.667092 1.176189
v -0.702202 -0.561762 -0.000000
v -0.702202 -0.561762 0.667092
v -0.702202 -0.702202 -0.000000
v -0.702202 -0.561762 1.650176
v -0.702202 -0.702202 1.650176
v -0.702202 -0.140440 0.667092
v -0.561762 -0.561762 0.667092
v -0.561762 -0.140440 0.667092
v -0.561762 -0.000000 0.667092
v -0.561762 -0.702202 0.667092
v -0.140440 -0.000000 0.667092
v -0.140440 -0.140440 0.667092
v -0.140440 -0.561762 0.667092
v -0.140440 -0.702202 0.667092
v 0.000000 -0.140440 0.667092
v 0.000000 -0.561762 0.667092
v -0.561762 -0.596872 1.176189
v 0.000000 -0.702202 -0.000000
v -0.140440 -0.702202 -0.000000
v 0.000000 -0.702202 1.650176
v -0.561762 -0.702202 1.509735
v -0.561762 -0.702202 -0.000000
v 0.000000 0.000000 0.000000
v -0.140440 0.000000 0.000000
v -0.561762 -0.596872 1.035748
v 0.000000 -0.561762 1.650176
v 0.000000 -0.561762 -0.000000
v -0.140440 -0.561762 -0.000000
v -0.561762 -0.561762 1.509735
v 0.000000 -0.140440 -0.000000
v -0.140440 -0.140440 -0.000000
v -0.561762 -0.561762 -0.000000
v -0.667092 -0.140440 0.175551
v -0.667092 -0.140440 0.245771
v -0.667092 -0.561762 0.175551
v -0.667092 -0.561762 0.245771
v -0.596872 -0.561762 0.245771
v -0.596872 -0.561762 0.175551
v -0.035110 -0.140440 0.175551
v -0.035110 -0.140440 0.245771
v -0.105330 -0.140440 0.245771
v -0.105330 -0.140440 0.175551
v -0.561762 -0.140440 0.175551
v -0.596872 -0.140440 0.245771
v -0.596872 -0.140440 0.175551
v -0.105330 -0.561762 0.245771
v -0.105330 -0.561762 0.175551
v -0.035110 -0.561762 0.245771
v -0.035110 -0.561762 0.175551
vn -0.0000 -1.0000 -0.0000
vn -0.0000 -0.0000 -1.0000
vn -1.0000 -0.0000 -0.0000
vn -0.0000 1.0000 -0.0000
vn -0.0000 -0.0000 1.0000
vn 1.0000 -0.0000 -0.0000
vn -0.0000 -0.0000 -0.0000
vt -1.181102 1.968504
vt 4.330709 1.968504
vt -1.181102 4.330709
vt -6.692914 1.968504
vt -4.330709 1.968504
vt -6.692914 4.330709
vt -1.181102 2.755906
vt 4.330709 2.755906
vt 1.181102 4.330709
vt -6.692914 2.755906
vt -4.330709 2.755906
vt 6.692914 4.330709
vt -6.299212 1.574803
vt -1.574803 0.000000
vt -6.299212 0.000000
vt -6.299212 0.000000
vt 6.299212 0.000000
vt 0.000000 0.000000
vt -7.874016 1.574803
vt 1.574803 -0.000000
vt -7.874016 0.000000
vt -7.874016 0.000000
vt -0.000000 -0.000000
vt 7.874016 0.000000
vt 6.299212 16.929131
vt 1.574803 16.929131
vt -1.574803 6.299212
vt 6.692914 11.614170
vt 1.574803 11.614170
vt -1.574803 6.692914
vt 6.299212 9.448819
vt 1.574803 6.299212
vt 1.574803 9.448819
vt 7.874016 9.448819
vt 1.574803 7.874016
vt -1.574803 9.448819
vt 7.480315 11.614170
vt -1.574803 11.614170
vt -1.574803 7.480315
vt 7.480315 13.188980
vt -1.574803 13.188980
vt 1.574803 7.480315
vt 6.692914 13.188980
vt 1.574803 6.692914
vt 1.574803 13.188980
vt 7.874016 16.929131
vt -1.574803 16.929131
vt -1.574803 7.874016
vt 6.692914 1.968504
vt -3.543307 1.968504
vt -6.692914 3.543307
vt 1.181102 1.968504
vt 3.543307 1.968504
vt -1.181102 3.543307
vt 6.692914 2.755906
vt -3.543307 2.755906
vt 6.692914 3.543307
vt 1.181102 2.755906
vt 3.543307 2.755906
vt 1.181102 3.543307
vt 0.000000 0.000000
vt 0.000000 9.448819
vt 0.000000 6.299212
vt 0.000000 9.448819
vt -6.299212 9.448819
vt 7.874016 0.000000
vt -0.000000 9.448819
vt 7.874016 9.448819
vt 6.299212 6.299212
vt 6.299212 9.448819
vt -6.299212 9.448819
vt 7.874016 6.299212
vt 6.299212 9.448819
vt 7.874016 9.448819
vt 6.299212 7.874016
vt -6.299212 9.448819
vt -7.874016 9.448819
vt -6.299212 11.614170
vt -6.299212 7.480315
vt -7.480315 11.614170
vt -6.299212 13.188980
vt 6.299212 7.480315
vt -7.480315 13.188980
vt 6.299212 -0.000000
vt -7.874016 6.299212
vt 7.874016 0.000000
vt 6.299212 7.480315
vt -7.874016 6.299212
vt 7.874016 7.480315
vt 7.874016 -0.000000
vt -7.874016 -0.000000
vt -7.874016 7.874016
vt 6.299212 18.503941
vt 7.874016 6.299212
vt 7.874016 18.503941
vt 7.874016 18.503941
vt -7.874016 18.503941
vt 7.874016 7.874016
vt 1.574803 7.480315
vt -7.874016 1.574803
vt -7.874016 7.480315
vt -6.299212 6.299212
vt -6.299212 7.480315
vt 6.299212 7.480315
vt -6.299212 1.574803
vt -1.574803 7.480315
vt -6.299212 7.480315
vt -6.299212 0.000000
vt 6.299212 7.480315
vt 0.000000 7.480315
vt -6.299212 7.874016
vt -6.299212 7.480315
vt -7.874016 7.480315
vt -1.574803 0.000000
vt 1.574803 7.480315
vt 0.000000 7.480315
vt -1.574803 1.574803
vt -1.574803 7.480315
vt 1.574803 7.480315
vt -1.574803 6.299212
vt 6.299212 7.480315
vt 1.574803 7.480315
vt -1.574803 7.874016
vt -1.574803 7.480315
vt 7.874016 7.480315
vt 0.000000 1.574803
vt -1.574803 7.480315
vt 0.000000 7.480315
vt 0.000000 6.299212
vt -6.299212 7.480315
vt -0.000000 7.480315
vt 6.299212 6.692914
vt 6.299212 13.188980
vt -6.692914 13.188980
vt 0.000000 -0.000000
vt 0.000000 7.874016
vt -7.874016 0.000000
vt -1.574803 -0.000000
vt -1.574803 7.874016
vt 7.874016 0.000000
vt 0.000000 18.503941
vt 0.000000 7.874016
vt -7.874016 18.503941
vt -6.299212 16.929131
vt -6.299212 7.874016
vt -7.874016 16.929131
vt -6.299212 -0.000000
vt -7.874016 0.000000
vt -6.299212 7.874016
vt 0.000000 0.000000
vt 1.574803 0.000000
vt -1.574803 0.000000
vt 0.000000 0.000000
vt 6.299212 11.614170
vt -6.299212 6.692914
vt -6.692914 11.614170
vt 0.000000 6.299212
vt 0.000000 18.503941
vt -6.299212 18.503941
vt 0.000000 6.299212
vt -6.299212 0.000000
vt -0.000000 0.000000
vt -1.574803 6.299212
vt 6.299212 0.000000
vt 1.574803 0.000000
vt 6.299212 16.929131
vt -6.299212 6.299212
vt -6.299212 16.929131
vt 0.000000 1.574803
vt -1.574803 0.000000
vt 0.000000 0.000000
vt -1.574803 1.574803
vt -1.574803 0.000000
vt 1.574803 0.000000
vt -6.299212 0.000000
vt -6.299212 6.299212
vt 6.299212 0.000000
vt 1.574803 1.968504
vt -7.480315 1.968504
vt -7.480315 1.574803
vt 1.574803 2.755906
vt -7.480315 2.755906
vt 7.480315 1.574803
vt 6.299212 1.968504
vt 7.480315 1.968504
vt -7.480315 6.299212
vt 6.299212 2.755906
vt 7.480315 2.755906
vt 7.480315 6.299212
vt 6.692914 2.755906
vt -6.299212 2.755906
vt 6.692914 6.299212
vt 6.692914 1.968504
vt -6.299212 1.968504
vt -6.692914 6.299212
vt -0.393701 1.968504
vt -0.393701 1.574803
vt -1.574803 1.968504
vt -0.393701 2.755906
vt -1.574803 2.755906
vt 0.393701 1.574803
vt -1.181102 2.755906
vt 1.574803 2.755906
vt 1.181102 1.574803
vt -1.181102 1.968504
vt 1.574803 1.968504
vt -1.181102 1.574803
vt -1.574803 1.968504
vt -6.299212 1.968504
vt -1.574803 2.755906
vt -6.692914 2.755906
vt 6.692914 1.574803
vt -1.574803 1.968504
vt -6.692914 1.968504
vt -6.692914 1.574803
vt 6.299212 2.755906
vt 1.181102 2.755906
vt 1.181102 6.299212
vt 6.299212 1.968504
vt 1.181102 1.968504
vt -1.181102 6.299212
vt 0.393701 2.755906
vt -6.299212 2.755906
vt 0.393701 6.299212
vt 0.393701 1.968504
vt -0.393701 6.299212
vt -6.299212 1.968504
s 0
usemtl wood.003
f 2/4/1 1/1/1 3/7/1
f 3/7/1 4/10/1 2/4/1
f 6/16/2 5/13/2 7/19/2
f 7/19/2 8/22/2 6/16/2
f 10/28/3 9/25/3 11/31/3
f 11/31/3 12/34/3 10/28/3
f 12/34/3 13/37/3 10/28/3
f 12/34/3 14/40/3 13/37/3
f 9/25/3 10/28/3 15/43/3
f 15/43/3 16/46/3 9/25/3
f 15/43/3 14/40/3 16/46/3
f 14/40/3 12/34/3 16/46/3
f 18/52/4 17/49/4 19/55/4
f 19/55/4 20/58/4 18/52/4
f 22/63/5 21/61/5 23/66/5
f 23/66/5 11/32/5 22/63/5
f 23/66/5 12/35/5 11/32/5
f 23/66/5 24/69/5 12/35/5
f 23/66/5 25/72/5 24/69/5
f 12/35/5 24/69/5 26/75/5
f 27/78/1 13/38/1 14/41/1
f 14/41/1 28/81/1 27/78/1
f 30/87/3 29/84/3 31/90/3
f 31/90/3 25/73/3 30/87/3
f 31/90/3 32/93/3 25/73/3
f 31/90/3 33/96/3 32/93/3
f 34/99/3 30/87/3 25/73/3
f 34/99/3 25/73/3 23/67/3
f 7/20/3 34/99/3 23/67/3
f 23/67/3 8/23/3 7/20/3
f 36/105/2 35/102/2 30/88/2
f 30/88/2 34/100/2 36/105/2
f 35/102/2 36/105/2 37/108/2
f 38/111/2 35/102/2 37/108/2
f 38/111/2 37/108/2 39/114/2
f 38/111/2 39/114/2 40/117/2
f 38/111/2 40/117/2 41/120/2
f 41/120/2 42/123/2 38/111/2
f 41/120/2 40/117/2 43/126/2
f 43/126/2 44/129/2 41/120/2
f 14/42/5 15/44/5 45/132/5
f 45/132/5 28/82/5 14/42/5
f 47/138/1 46/135/1 48/141/1
f 48/141/1 42/124/1 47/138/1
f 48/141/1 12/36/1 42/124/1
f 12/36/1 38/112/1 42/124/1
f 48/141/1 16/47/1 12/36/1
f 48/141/1 49/144/1 16/47/1
f 38/112/1 12/36/1 26/76/1
f 38/112/1 26/76/1 33/97/1
f 26/76/1 49/144/1 33/97/1
f 49/144/1 48/141/1 33/97/1
f 38/112/1 33/97/1 31/91/1
f 31/91/1 50/147/1 38/112/1
f 6/17/4 8/24/4 23/68/4
f 23/68/4 37/109/4 6/17/4
f 23/68/4 39/115/4 37/109/4
f 39/115/4 23/68/4 21/62/4
f 39/115/4 21/62/4 51/150/4
f 51/150/4 52/151/4 39/115/4
f 15/45/4 10/29/4 53/154/4
f 53/154/4 45/133/4 15/45/4
f 10/30/2 13/39/2 27/79/2
f 27/79/2 53/155/2 10/30/2
f 48/142/5 54/157/5 32/94/5
f 32/94/5 33/98/5 48/142/5
f 55/160/2 46/136/2 47/139/2
f 47/139/2 56/163/2 55/160/2
f 24/70/4 25/74/4 32/95/4
f 32/95/4 57/166/4 24/70/4
f 32/95/4 9/26/4 57/166/4
f 32/95/4 54/158/4 9/26/4
f 9/26/4 54/158/4 22/64/4
f 22/64/4 11/33/4 9/26/4
f 51/150/2 58/169/2 59/172/2
f 59/172/2 52/152/2 51/150/2
f 9/27/2 16/48/2 49/145/2
f 49/145/2 57/167/2 9/27/2
f 45/134/6 24/71/6 57/168/6
f 57/168/6 49/146/6 45/134/6
f 49/146/6 28/83/6 45/134/6
f 49/146/6 27/80/6 28/83/6
f 24/71/6 45/134/6 53/156/6
f 53/156/6 26/77/6 24/71/6
f 53/156/6 27/80/6 26/77/6
f 27/80/6 49/146/6 26/77/6
f 60/175/6 35/103/6 38/113/6
f 38/113/6 50/148/6 60/175/6
f 60/176/2 50/149/2 31/92/2
f 31/92/2 29/85/2 60/176/2
f 22/65/6 54/159/6 48/143/6
f 48/143/6 44/130/6 22/65/6
f 48/143/6 55/161/6 44/130/6
f 48/143/6 46/137/6 55/161/6
f 22/65/6 44/130/6 43/127/6
f 21/62/6 22/65/6 43/127/6
f 43/127/6 51/150/6 21/62/6
f 51/150/6 43/127/6 58/170/6
f 62/181/3 61/178/3 63/184/3
f 63/184/3 64/187/3 62/181/3
f 63/185/4 60/177/4 29/86/4
f 29/86/4 30/89/4 63/185/4
f 30/89/4 64/188/4 63/185/4
f 30/89/4 65/190/4 64/188/4
f 60/177/4 63/185/4 66/193/4
f 66/193/4 35/104/4 60/177/4
f 66/193/4 65/190/4 35/104/4
f 65/190/4 30/89/4 35/104/4
f 67/196/1 59/173/1 58/171/1
f 58/171/1 43/128/1 67/196/1
f 43/128/1 68/199/1 67/196/1
f 43/128/1 69/202/1 68/199/1
f 59/173/1 67/196/1 70/205/1
f 70/205/1 40/118/1 59/173/1
f 70/205/1 69/202/1 40/118/1
f 69/202/1 43/128/1 40/118/1
f 39/116/3 52/153/3 59/174/3
f 59/174/3 40/119/3 39/116/3
f 41/121/3 56/164/3 47/140/3
f 47/140/3 42/125/3 41/121/3
f 6/18/6 37/110/6 36/106/6
f 36/106/6 5/14/6 6/18/6
f 36/106/6 71/208/6 5/14/6
f 73/213/6 72/210/6 19/56/6
f 19/56/6 17/50/6 73/213/6
f 73/214/1 71/209/1 36/107/1
f 36/107/1 72/211/1 73/214/1
f 36/107/1 62/182/1 72/211/1
f 71/209/1 73/214/1 61/179/1
f 71/209/1 61/179/1 7/21/1
f 7/21/1 5/15/1 71/209/1
f 61/179/1 34/101/1 7/21/1
f 61/179/1 62/182/1 34/101/1
f 62/182/1 36/107/1 34/101/1
f 2/5/6 4/11/6 65/191/6
f 65/191/6 66/194/6 2/5/6
f 69/203/3 70/206/3 18/53/3
f 18/53/3 20/59/3 69/203/3
f 74/216/3 3/8/3 1/2/3
f 1/2/3 75/219/3 74/216/3
f 75/220/4 55/162/4 56/165/4
f 56/165/4 41/122/4 75/220/4
f 41/122/4 74/217/4 75/220/4
f 41/122/4 76/222/4 74/217/4
f 55/162/4 75/220/4 77/225/4
f 77/225/4 44/131/4 55/162/4
f 77/225/4 76/222/4 44/131/4
f 76/222/4 41/122/4 44/131/4
f 67/197/2 77/226/2 75/221/2
f 75/221/2 70/207/2 67/197/2
f 75/221/2 1/3/2 70/207/2
f 1/3/2 18/54/2 70/207/2
f 18/54/2 1/3/2 2/6/2
f 2/6/2 17/51/2 18/54/2
f 63/186/2 17/51/2 2/6/2
f 2/6/2 66/195/2 63/186/2
f 17/51/2 63/186/2 61/180/2
f 61/180/2 73/215/2 17/51/2
f 67/198/6 68/200/6 76/223/6
f 76/223/6 77/227/6 67/198/6
f 76/224/5 68/201/5 69/204/5
f 69/204/5 74/218/5 76/224/5
f 69/204/7 20/60/7 74/218/7
f 20/60/5 3/9/5 74/218/5
f 3/9/5 20/60/5 19/57/5
f 19/57/5 4/12/5 3/9/5
f 62/183/5 4/12/5 19/57/5
f 19/57/5 72/212/5 62/183/5
f 4/12/5 62/183/5 64/189/5
f 64/189/5 65/192/5 4/12/5
f 2/4/1 1/1/1 3/7/1
f 3/7/1 4/10/1 2/4/1
f 6/16/2 5/13/2 7/19/2
f 7/19/2 8/22/2 6/16/2
f 10/28/3 9/25/3 11/31/3
f 11/31/3 12/34/3 10/28/3
f 12/34/3 13/37/3 10/28/3
f 12/34/3 14/40/3 13/37/3
f 9/25/3 10/28/3 15/43/3
f 15/43/3 16/46/3 9/25/3
f 15/43/3 14/40/3 16/46/3
f 14/40/3 12/34/3 16/46/3
f 18/52/4 17/49/4 19/55/4
f 19/55/4 20/58/4 18/52/4
f 22/63/5 21/61/5 23/66/5
f 23/66/5 11/32/5 22/63/5
f 23/66/5 12/35/5 11/32/5
f 23/66/5 24/69/5 12/35/5
f 23/66/5 25/72/5 24/69/5
f 12/35/5 24/69/5 26/75/5
f 27/78/1 13/38/1 14/41/1
f 14/41/1 28/81/1 27/78/1
f 30/87/3 29/84/3 31/90/3
f 31/90/3 25/73/3 30/87/3
f 31/90/3 32/93/3 25/73/3
f 31/90/3 33/96/3 32/93/3
f 34/99/3 30/87/3 25/73/3
f 34/99/3 25/73/3 23/67/3
f 7/20/3 34/99/3 23/67/3
f 23/67/3 8/23/3 7/20/3
f 36/105/2 35/102/2 30/88/2
f 30/88/2 34/100/2 36/105/2
f 35/102/2 36/105/2 37/108/2
f 38/111/2 35/102/2 37/108/2
f 38/111/2 37/108/2 39/114/2
f 38/111/2 39/114/2 40/117/2
f 38/111/2 40/117/2 41/120/2
f 41/120/2 42/123/2 38/111/2
f 41/120/2 40/117/2 43/126/2
f 43/126/2 44/129/2 41/120/2
f 14/42/5 15/44/5 45/132/5
f 45/132/5 28/82/5 14/42/5
f 47/138/1 46/135/1 48/141/1
f 48/141/1 42/124/1 47/138/1
f 48/141/1 12/36/1 42/124/1
f 12/36/1 38/112/1 42/124/1
f 48/141/1 16/47/1 12/36/1
f 48/141/1 49/144/1 16/47/1
f 38/112/1 12/36/1 26/76/1
f 38/112/1 26/76/1 33/97/1
f 26/76/1 49/144/1 33/97/1
f 49/144/1 48/141/1 33/97/1
f 38/112/1 33/97/1 31/91/1
f 31/91/1 50/147/1 38/112/1
f 6/17/4 8/24/4 23/68/4
f 23/68/4 37/109/4 6/17/4
f 23/68/4 39/115/4 37/109/4
f 39/115/4 23/68/4 21/62/4
f 39/115/4 21/62/4 51/150/4
f 51/150/4 52/151/4 39/115/4
f 15/45/4 10/29/4 53/154/4
f 53/154/4 45/133/4 15/45/4
f 10/30/2 13/39/2 27/79/2
f 27/79/2 53/155/2 10/30/2
f 48/142/5 54/157/5 32/94/5
f 32/94/5 33/98/5 48/142/5
f 55/160/2 46/136/2 47/139/2
f 47/139/2 56/163/2 55/160/2
f 24/70/4 25/74/4 32/95/4
f 32/95/4 57/166/4 24/70/4
f 32/95/4 9/26/4 57/166/4
f 32/95/4 54/158/4 9/26/4
f 9/26/4 54/158/4 22/64/4
f 22/64/4 11/33/4 9/26/4
f 51/150/2 58/169/2 59/172/2
f 59/172/2 52/152/2 51/150/2
f 9/27/2 16/48/2 49/145/2
f 49/145/2 57/167/2 9/27/2
f 45/134/6 24/71/6 57/168/6
f 57/168/6 49/146/6 45/134/6
f 49/146/6 28/83/6 45/134/6
f 49/146/6 27/80/6 28/83/6
f 24/71/6 45/134/6 53/156/6
f 53/156/6 26/77/6 24/71/6
f 53/156/6 27/80/6 26/77/6
f 27/80/6 49/146/6 26/77/6
f 60/175/6 35/103/6 38/113/6
f 38/113/6 50/148/6 60/175/6
f 60/176/2 50/149/2 31/92/2
f 31/92/2 29/85/2 60/176/2
f 22/65/6 54/159/6 48/143/6
f 48/143/6 44/130/6 22/65/6
f 48/143/6 55/161/6 44/130/6
f 48/143/6 46/137/6 55/161/6
f 22/65/6 44/130/6 43/127/6
f 21/62/6 22/65/6 43/127/6
f 43/127/6 51/150/6 21/62/6
f 51/150/6 43/127/6 58/170/6
f 62/181/3 61/178/3 63/184/3
f 63/184/3 64/187/3 62/181/3
f 63/185/4 60/177/4 29/86/4
f 29/86/4 30/89/4 63/185/4
f 30/89/4 64/188/4 63/185/4
f 30/89/4 65/190/4 64/188/4
f 60/177/4 63/185/4 66/193/4
f 66/193/4 35/104/4 60/177/4
f 66/193/4 65/190/4 35/104/4
f 65/190/4 30/89/4 35/104/4
f 67/196/1 59/173/1 58/171/1
f 58/171/1 43/128/1 67/196/1
f 43/128/1 68/199/1 67/196/1
f 43/128/1 69/202/1 68/199/1
f 59/173/1 67/196/1 70/205/1
f 70/205/1 40/118/1 59/173/1
f 70/205/1 69/202/1 40/118/1
f 69/202/1 43/128/1 40/118/1
f 39/116/3 52/153/3 59/174/3
f 59/174/3 40/119/3 39/116/3
f 41/121/3 56/164/3 47/140/3
f 47/140/3 42/125/3 41/121/3
f 6/18/6 37/110/6 36/106/6
f 36/106/6 5/14/6 6/18/6
f 36/106/6 71/208/6 5/14/6
f 73/213/6 72/210/6 19/56/6
f 19/56/6 17/50/6 73/213/6
f 73/214/1 71/209/1 36/107/1
f 36/107/1 72/211/1 73/214/1
f 36/107/1 62/182/1 72/211/1
f 71/209/1 73/214/1 61/179/1
f 71/209/1 61/179/1 7/21/1
f 7/21/1 5/15/1 71/209/1
f 61/179/1 34/101/1 7/21/1
f 61/179/1 62/182/1 34/101/1
f 62/182/1 36/107/1 34/101/1
f 2/5/6 4/11/6 65/191/6
f 65/191/6 66/194/6 2/5/6
f 69/203/3 70/206/3 18/53/3
f 18/53/3 20/59/3 69/203/3
f 74/216/3 3/8/3 1/2/3
f 1/2/3 75/219/3 74/216/3
f 75/220/4 55/162/4 56/165/4
f 56/165/4 41/122/4 75/220/4
f 41/122/4 74/217/4 75/220/4
f 41/122/4 76/222/4 74/217/4
f 55/162/4 75/220/4 77/225/4
f 77/225/4 44/131/4 55/162/4
f 77/225/4 76/222/4 44/131/4
f 76/222/4 41/122/4 44/131/4
f 67/197/2 77/226/2 75/221/2
f 75/221/2 70/207/2 67/197/2
f 75/221/2 1/3/2 70/207/2
f 1/3/2 18/54/2 70/207/2
f 18/54/2 1/3/2 2/6/2
f 2/6/2 17/51/2 18/54/2
f 63/186/2 17/51/2 2/6/2
f 2/6/2 66/195/2 63/186/2
f 17/51/2 63/186/2 61/180/2
f 61/180/2 73/215/2 17/51/2
f 67/198/6 68/200/6 76/223/6
f 76/223/6 77/227/6 67/198/6
f 76/224/5 68/201/5 69/204/5
f 69/204/5 74/218/5 76/224/5
f 69/204/7 20/60/7 74/218/7
f 20/60/5 3/9/5 74/218/5
f 3/9/5 20/60/5 19/57/5
f 19/57/5 4/12/5 3/9/5
f 62/183/5 4/12/5 19/57/5
f 19/57/5 72/212/5 62/183/5
f 4/12/5 62/183/5 64/189/5
f 64/189/5 65/192/5 4/12/5
