# Blender v2.78 (sub 0) OBJ File: ''
# www.blender.org
mtllib mediumbowl_collision.mtl
o mediumBowl10_ID5.006_mediumBowl10_ID5.012
v 0.109961 0.067432 0.052746
v 0.109962 -0.059541 0.052746
v 0.125538 -0.068534 0.052746
v 0.125539 0.076424 0.052746
v 0.100675 -0.054180 -0.032660
v 0.100675 0.062070 -0.032660
v 0.109736 -0.059411 -0.015223
v 0.109736 0.067301 -0.015223
v 0.091269 -0.048749 -0.022254
v 0.091268 0.056638 -0.022254
v 0.125539 0.076424 0.019184
v 0.125538 -0.068534 0.019184
vt 0.0000 0.0000
vt 0.0000 0.0000
vt 0.0000 0.0000
vt 0.0000 0.0000
vt 0.0000 0.0000
vt 0.0000 0.0000
vt 0.0000 0.0000
vt 0.0000 0.0000
vt 0.0000 0.0000
vt 0.0000 0.0000
vt 0.0000 0.0000
vt 0.0000 0.0000
vn -0.0000 -0.0000 1.0000
vn 0.8873 0.0000 -0.4611
vn -0.2396 0.3502 -0.9055
vn -0.2538 -0.3430 -0.9044
vn -0.7418 -0.0000 -0.6706
vn -0.5000 0.8660 -0.0000
vn 0.1101 0.9813 0.1580
vn 0.9087 0.0000 -0.4174
vn 1.0000 -0.0000 0.0000
vn 0.1256 -0.9789 0.1612
vn -0.5000 -0.8660 0.0000
vn -0.6978 -0.1561 0.6991
vn -0.3308 -0.6602 0.6743
vn -0.3262 0.6620 0.6748
vn -0.6486 0.4067 0.6434
vn -0.6605 -0.3984 0.6365
usemtl _defaultMat.002
s off
f 1/1/1 2/2/1 3/3/1
f 4/4/1 1/1/1 3/3/1
f 5/5/2 6/6/2 7/7/2
f 8/8/2 7/7/2 6/6/2
f 9/9/3 10/10/4 6/6/5 5/5/5
f 4/4/6 11/11/6 6/6/6 10/10/7 1/1/6
f 7/7/8 8/8/8 12/12/8
f 11/11/8 12/12/8 8/8/8
f 12/12/9 11/11/9 3/3/9
f 4/4/9 3/3/9 11/11/9
f 9/9/10 5/5/11 12/12/11 3/3/11 2/2/12
s 1
f 2/2/13 1/1/14 9/9/15
f 10/10/16 9/9/15 1/1/14
o mediumBowl10_ID5.005_mediumBowl10_ID5.011
v -0.000001 0.130918 0.052746
v 0.109962 0.067432 0.052746
v 0.125538 0.076425 0.052746
v 0.000001 0.148904 0.052746
v 0.100675 0.062070 -0.032660
v 0.000000 0.120195 -0.032660
v 0.109736 0.067301 -0.015223
v 0.000000 0.130657 -0.015223
v 0.091269 0.056639 -0.022254
v 0.000000 0.109332 -0.022254
v 0.000001 0.148904 0.019184
v 0.125538 0.076425 0.019184
vt 0.0000 0.0000
vt 0.0000 0.0000
vt 0.0000 0.0000
vt 0.0000 0.0000
vt 0.0000 0.0000
vt 0.0000 0.0000
vt 0.0000 0.0000
vt 0.0000 0.0000
vt 0.0000 0.0000
vt 0.0000 0.0000
vt 0.0000 0.0000
vt 0.0000 0.0000
vn -0.0000 0.0000 1.0000
vn 0.4437 0.7685 -0.4611
vn -0.4231 -0.0324 -0.9055
vn 0.1701 -0.3913 -0.9044
vn -0.3709 -0.6424 -0.6706
vn -1.0000 0.0001 -0.0000
vn -0.7948 0.5860 0.1580
vn 0.4544 0.7870 -0.4174
vn 0.5000 0.8660 0.0000
vn 0.9105 -0.3807 0.1612
vn 0.5000 -0.8660 -0.0000
vn -0.2137 -0.6823 0.6991
vn 0.4063 -0.6166 0.6743
vn -0.7364 0.0484 0.6748
vn -0.6765 -0.3584 0.6434
vn 0.0148 -0.7712 0.6365
usemtl _defaultMat.002
s off
f 13/13/17 14/14/17 15/15/17
f 16/16/17 13/13/17 15/15/17
f 17/17/18 18/18/18 19/19/18
f 20/20/18 19/19/18 18/18/18
f 21/21/19 22/22/20 18/18/21 17/17/21
f 16/16/22 23/23/22 18/18/22 22/22/23 13/13/22
f 19/19/24 20/20/24 24/24/24
f 23/23/24 24/24/24 20/20/24
f 24/24/25 23/23/25 15/15/25
f 16/16/25 15/15/25 23/23/25
f 21/21/26 17/17/27 24/24/27 15/15/27 14/14/28
s 1
f 14/14/29 13/13/30 21/21/31
f 22/22/32 21/21/31 13/13/30
o mediumBowl10_ID5.004_mediumBowl10_ID5.010
v -0.109962 0.067431 0.052746
v 0.000000 0.130918 0.052746
v 0.000000 0.148904 0.052746
v -0.125538 0.076425 0.052746
v 0.000000 0.120195 -0.032660
v -0.100675 0.062070 -0.032660
v 0.000000 0.130657 -0.015223
v -0.109736 0.067301 -0.015223
v 0.000000 0.109333 -0.022254
v -0.091268 0.056639 -0.022254
v -0.125538 0.076425 0.019184
v 0.000000 0.148904 0.019184
vt 0.0000 0.0000
vt 0.0000 0.0000
vt 0.0000 0.0000
vt 0.0000 0.0000
vt 0.0000 0.0000
vt 0.0000 0.0000
vt 0.0000 0.0000
vt 0.0000 0.0000
vt 0.0000 0.0000
vt 0.0000 0.0000
vt 0.0000 0.0000
vt 0.0000 0.0000
vn 0.0000 -0.0000 1.0000
vn -0.4437 0.7685 -0.4611
vn -0.1835 -0.3826 -0.9055
vn 0.4240 -0.0483 -0.9044
vn 0.3709 -0.6424 -0.6706
vn -0.5000 -0.8660 -0.0000
vn -0.9049 -0.3953 0.1580
vn -0.4544 0.7870 -0.4174
vn -0.5000 0.8660 0.0000
vn 0.7850 0.5982 0.1612
vn 1.0000 0.0000 0.0000
vn 0.4841 -0.5262 0.6991
vn 0.7371 0.0436 0.6743
vn -0.4102 -0.6135 0.6748
vn -0.0279 -0.7650 0.6434
vn 0.6752 -0.3728 0.6365
usemtl _defaultMat.002
s off
f 25/25/33 26/26/33 27/27/33
f 28/28/33 25/25/33 27/27/33
f 29/29/34 30/30/34 31/31/34
f 32/32/34 31/31/34 30/30/34
f 33/33/35 34/34/36 30/30/37 29/29/37
f 28/28/38 35/35/38 30/30/38 34/34/39 25/25/38
f 31/31/40 32/32/40 36/36/40
f 35/35/40 36/36/40 32/32/40
f 36/36/41 35/35/41 27/27/41
f 28/28/41 27/27/41 35/35/41
f 33/33/42 29/29/43 36/36/43 27/27/43 26/26/44
s 1
f 26/26/45 25/25/46 33/33/47
f 34/34/48 33/33/47 25/25/46
o mediumBowl10_ID5.003_mediumBowl10_ID5.009
v -0.100675 0.062070 -0.032660
v 0.000000 0.120195 -0.032660
v -0.100675 -0.054180 -0.032660
v 0.000000 -0.112305 -0.032660
v 0.100675 0.062070 -0.032660
v 0.100675 -0.054180 -0.032660
v -0.066848 -0.034650 -0.054166
v -0.066848 0.042540 -0.054166
v 0.000000 -0.073245 -0.054166
v 0.000000 0.081135 -0.054166
v 0.066848 -0.034650 -0.054166
v 0.066848 0.042540 -0.054166
v -0.091268 0.056639 -0.022254
v -0.091268 -0.048749 -0.022254
v 0.000000 0.109333 -0.022254
v 0.000000 -0.101443 -0.022254
v 0.091268 -0.048749 -0.022254
v 0.091268 0.056639 -0.022254
vt 0.0000 0.0000
vt 0.0000 0.0000
vt 0.0000 0.0000
vt 0.0000 0.0000
vt 0.0000 0.0000
vt 0.0000 0.0000
vt 0.0000 0.0000
vt 0.0000 0.0000
vt 0.0000 0.0000
vt 0.0000 0.0000
vt 0.0000 0.0000
vt 0.0000 0.0000
vt 0.0000 0.0000
vt 0.0000 0.0000
vt 0.0000 0.0000
vt 0.0000 0.0000
vt 0.0000 0.0000
vt 0.0000 0.0000
vn 0.0000 0.0000 -1.0000
vn -0.7418 -0.0000 0.6706
vn -0.3709 0.6424 0.6706
vn 0.3709 -0.6424 0.6706
vn -0.2683 -0.4646 -0.8439
vn 0.2683 0.4646 -0.8439
vn -0.5365 0.0000 -0.8439
vn 0.5365 0.0000 -0.8439
vn 0.2683 -0.4646 -0.8439
vn -0.2683 0.4646 -0.8439
vn -0.3709 -0.6424 0.6706
vn 0.0000 -0.0000 1.0000
vn 0.3709 0.6424 0.6706
vn 0.7418 -0.0000 0.6706
usemtl _defaultMat.001
s off
f 37/37/49 38/38/49 39/39/49
f 40/40/49 39/39/49 38/38/49
f 41/41/49 40/40/49 38/38/49
f 42/42/49 40/40/49 41/41/49
f 43/43/49 44/44/49 45/45/49
f 46/46/49 45/45/49 44/44/49
f 47/47/49 45/45/49 46/46/49
f 48/48/49 47/47/49 46/46/49
f 49/49/50 37/37/50 39/39/50 50/50/50
f 37/37/51 49/49/51 51/51/51 38/38/51
f 52/52/52 40/40/52 42/42/52 53/53/52
f 39/39/53 43/43/53 40/40/53
f 45/45/53 40/40/53 43/43/53
f 38/38/54 41/41/54 46/46/54
f 48/48/54 46/46/54 41/41/54
f 39/39/55 37/37/55 43/43/55
f 44/44/55 43/43/55 37/37/55
f 47/47/56 48/48/56 42/42/56
f 41/41/56 42/42/56 48/48/56
f 40/40/57 45/45/57 42/42/57
f 47/47/57 42/42/57 45/45/57
f 37/37/58 38/38/58 44/44/58
f 46/46/58 44/44/58 38/38/58
f 50/50/59 39/39/59 40/40/59 52/52/59
f 49/49/60 50/50/60 51/51/60
f 52/52/60 51/51/60 50/50/60
f 54/54/60 51/51/60 52/52/60
f 53/53/60 54/54/60 52/52/60
f 38/38/61 51/51/61 54/54/61 41/41/61
f 41/41/62 54/54/62 53/53/62 42/42/62
o mediumBowl10_ID5.002_mediumBowl10_ID5.008
v 0.000001 -0.123028 0.052746
v -0.109962 -0.059542 0.052746
v -0.125538 -0.068535 0.052746
v 0.000000 -0.141014 0.052746
v -0.100675 -0.054180 -0.032660
v 0.000000 -0.112305 -0.032660
v -0.109736 -0.059411 -0.015223
v 0.000000 -0.122767 -0.015223
v -0.091269 -0.048749 -0.022254
v 0.000000 -0.101442 -0.022254
v 0.000000 -0.141014 0.019184
v -0.125538 -0.068535 0.019184
vt 0.0000 0.0000
vt 0.0000 0.0000
vt 0.0000 0.0000
vt 0.0000 0.0000
vt 0.0000 0.0000
vt 0.0000 0.0000
vt 0.0000 0.0000
vt 0.0000 0.0000
vt 0.0000 0.0000
vt 0.0000 0.0000
vt 0.0000 0.0000
vt 0.0000 0.0000
vn -0.0000 0.0000 1.0000
vn -0.4437 -0.7685 -0.4611
vn 0.4231 0.0324 -0.9055
vn -0.1701 0.3913 -0.9044
vn 0.3709 0.6424 -0.6706
vn 1.0000 -0.0000 -0.0000
vn 0.7948 -0.5860 0.1580
vn -0.4544 -0.7870 -0.4174
vn -0.5000 -0.8660 0.0000
vn -0.9105 0.3807 0.1612
vn -0.5000 0.8660 -0.0000
vn 0.2137 0.6823 0.6991
vn -0.4063 0.6166 0.6743
vn 0.7364 -0.0484 0.6748
vn 0.6765 0.3584 0.6434
vn -0.0148 0.7712 0.6365
usemtl _defaultMat.002
s off
f 55/55/63 56/56/63 57/57/63
f 58/58/63 55/55/63 57/57/63
f 59/59/64 60/60/64 61/61/64
f 62/62/64 61/61/64 60/60/64
f 63/63/65 64/64/66 60/60/67 59/59/67
f 58/58/68 65/65/68 60/60/68 64/64/69 55/55/68
f 61/61/70 62/62/70 66/66/70
f 65/65/70 66/66/70 62/62/70
f 66/66/71 65/65/71 57/57/71
f 58/58/71 57/57/71 65/65/71
f 63/63/72 59/59/73 66/66/73 57/57/73 56/56/74
s 1
f 56/56/75 55/55/76 63/63/77
f 64/64/78 63/63/77 55/55/76
o mediumBowl10_ID5.001_mediumBowl10_ID5.007
v -0.109961 -0.059542 0.052746
v -0.109962 0.067431 0.052746
v -0.125538 0.076424 0.052746
v -0.125538 -0.068534 0.052746
v -0.100675 0.062070 -0.032660
v -0.100675 -0.054180 -0.032660
v -0.109736 0.067301 -0.015223
v -0.109736 -0.059411 -0.015223
v -0.091269 0.056639 -0.022254
v -0.091268 -0.048748 -0.022254
v -0.125538 -0.068534 0.019184
v -0.125538 0.076424 0.019184
vt 0.0000 0.0000
vt 0.0000 0.0000
vt 0.0000 0.0000
vt 0.0000 0.0000
vt 0.0000 0.0000
vt 0.0000 0.0000
vt 0.0000 0.0000
vt 0.0000 0.0000
vt 0.0000 0.0000
vt 0.0000 0.0000
vt 0.0000 0.0000
vt 0.0000 0.0000
vn -0.0000 -0.0000 1.0000
vn -0.8873 0.0000 -0.4611
vn 0.2396 -0.3502 -0.9055
vn 0.2538 0.3430 -0.9044
vn 0.7418 0.0000 -0.6706
vn 0.5000 -0.8660 -0.0000
vn -0.1101 -0.9813 0.1580
vn -0.9087 0.0000 -0.4174
vn -1.0000 0.0000 0.0000
vn -0.1256 0.9789 0.1612
vn 0.5000 0.8660 0.0000
vn 0.6978 0.1561 0.6991
vn 0.3308 0.6602 0.6743
vn 0.3263 -0.6620 0.6748
vn 0.6486 -0.4067 0.6434
vn 0.6605 0.3984 0.6365
usemtl _defaultMat.002
s off
f 67/67/79 68/68/79 69/69/79
f 70/70/79 67/67/79 69/69/79
f 71/71/80 72/72/80 73/73/80
f 74/74/80 73/73/80 72/72/80
f 75/75/81 76/76/82 72/72/83 71/71/83
f 70/70/84 77/77/84 72/72/84 76/76/85 67/67/84
f 73/73/86 74/74/86 78/78/86
f 77/77/86 78/78/86 74/74/86
f 78/78/87 77/77/87 69/69/87
f 70/70/87 69/69/87 77/77/87
f 75/75/88 71/71/89 78/78/89 69/69/89 68/68/90
s 1
f 68/68/91 67/67/92 75/75/93
f 76/76/94 75/75/93 67/67/92
o mediumBowl10_ID5.000
v 0.109962 -0.059541 0.052746
v 0.000000 -0.123028 0.052746
v 0.000000 -0.141014 0.052746
v 0.125538 -0.068535 0.052746
v 0.000000 -0.112305 -0.032660
v 0.100675 -0.054180 -0.032660
v 0.000000 -0.122767 -0.015223
v 0.109736 -0.059411 -0.015223
v 0.000000 -0.101443 -0.022254
v 0.091268 -0.048749 -0.022254
v 0.125538 -0.068535 0.019184
v 0.000000 -0.141014 0.019184
vt 0.0000 0.0000
vt 0.0000 0.0000
vt 0.0000 0.0000
vt 0.0000 0.0000
vt 0.0000 0.0000
vt 0.0000 0.0000
vt 0.0000 0.0000
vt 0.0000 0.0000
vt 0.0000 0.0000
vt 0.0000 0.0000
vt 0.0000 0.0000
vt 0.0000 0.0000
vn 0.0000 -0.0000 1.0000
vn 0.4437 -0.7685 -0.4611
vn 0.1835 0.3826 -0.9055
vn -0.4240 0.0483 -0.9044
vn -0.3709 0.6424 -0.6706
vn 0.5000 0.8660 -0.0000
vn 0.9049 0.3953 0.1580
vn 0.4544 -0.7870 -0.4174
vn 0.5000 -0.8660 -0.0000
vn -0.7850 -0.5982 0.1612
vn -1.0000 0.0000 0.0000
vn -0.4841 0.5262 0.6991
vn -0.7371 -0.0436 0.6743
vn 0.4102 0.6135 0.6748
vn 0.0279 0.7650 0.6434
vn -0.6752 0.3728 0.6365
usemtl _defaultMat.002
s off
f 79/79/95 80/80/95 81/81/95
f 82/82/95 79/79/95 81/81/95
f 83/83/96 84/84/96 85/85/96
f 86/86/96 85/85/96 84/84/96
f 87/87/97 88/88/98 84/84/99 83/83/99
f 82/82/100 89/89/100 84/84/100 88/88/101 79/79/100
f 85/85/102 86/86/102 90/90/102
f 89/89/102 90/90/102 86/86/102
f 90/90/103 89/89/103 81/81/103
f 82/82/103 81/81/103 89/89/103
f 87/87/104 83/83/105 90/90/105 81/81/105 80/80/106
s 1
f 80/80/107 79/79/108 87/87/109
f 88/88/110 87/87/109 79/79/108
