# Blender v2.78 (sub 0) OBJ File: ''
# www.blender.org
mtllib mediumbowl_visual.mtl
o mediumBowl10_ID5.035
v -0.100675 0.058125 -0.028715
v -0.100675 -0.058125 -0.028715
v 0.000000 0.116250 -0.028715
v 0.000000 -0.116250 -0.028715
v 0.100675 0.058125 -0.028715
v 0.100675 -0.058125 -0.028715
v -0.125538 -0.072480 0.056691
v -0.109962 0.063486 0.056691
v -0.125538 0.072480 0.056691
v 0.000000 0.144959 0.044549
v 0.000000 0.126973 0.056691
v 0.125538 0.072480 0.056691
v 0.109962 0.063486 0.056691
v 0.109962 -0.063486 0.056691
v -0.109962 -0.063486 0.056691
v 0.000000 -0.144959 0.056691
v 0.000000 -0.126973 0.056691
v 0.125538 -0.072480 0.056691
v -0.066848 -0.038595 -0.050221
v -0.066848 0.038595 -0.050221
v 0.000000 -0.077190 -0.050221
v 0.000000 0.077190 -0.050221
v 0.066848 -0.038595 -0.050221
v 0.066848 0.038595 -0.050221
v -0.109736 -0.063356 -0.011278
v 0.000000 -0.126712 -0.011278
v -0.109736 0.063356 -0.011278
v 0.000000 0.126712 -0.011278
v 0.109736 0.063356 -0.011278
v 0.109736 -0.063356 -0.011278
v 0.125538 0.072480 0.023129
v 0.000000 0.144959 0.023129
v 0.125538 -0.072480 0.023129
v 0.000000 -0.144959 0.023129
v -0.125538 0.072480 0.023129
v -0.125538 -0.072480 0.023129
v -0.091268 0.052694 -0.018309
v -0.091268 -0.052694 -0.018309
v 0.000000 0.105388 -0.018309
v 0.000000 -0.105388 -0.018309
v 0.091268 0.052694 -0.018309
v 0.091268 -0.052694 -0.018309
vt 0.0000 0.0000
vt 0.0000 0.0000
vt 0.0000 0.0000
vt 0.0000 0.0000
vt 0.0000 0.0000
vt 0.0000 0.0000
vt 0.0000 0.0000
vt 0.0000 0.0000
vt 0.0000 0.0000
vt 0.0000 0.0000
vt 0.0000 0.0000
vt 0.0000 0.0000
vt 0.0000 0.0000
vt 0.0000 0.0000
vt 0.0000 0.0000
vt 0.0000 0.0000
vt 0.0000 0.0000
vt 0.0000 0.0000
vt 0.0000 0.0000
vt 0.0000 0.0000
vt 0.0000 0.0000
vt 0.0000 0.0000
vt 0.0000 0.0000
vt 0.0000 0.0000
vt 0.0000 0.0000
vt 0.0000 0.0000
vt 0.0000 0.0000
vt 0.0000 0.0000
vt 0.0000 0.0000
vt 0.0000 0.0000
vt 0.0000 0.0000
vt 0.0000 0.0000
vt 0.0000 0.0000
vt 0.0000 0.0000
vt 0.0000 0.0000
vt 0.0000 0.0000
vt 0.0000 0.0000
vt 0.0000 0.0000
vt 0.0000 0.0000
vt 0.0000 0.0000
vt 0.0000 0.0000
vt 0.0000 0.0000
vn 0.0000 0.0000 1.0000
vn 0.0481 0.0834 0.9954
vn -0.3074 0.5324 0.7887
vn 0.2360 0.5437 0.8054
vn 0.0000 0.0000 -1.0000
vn -0.4437 -0.7685 -0.4611
vn -0.8873 0.0000 -0.4611
vn -0.4437 0.7685 -0.4611
vn 0.4437 0.7685 -0.4611
vn 0.4437 -0.7685 -0.4611
vn 0.8873 0.0000 -0.4611
vn -0.2683 -0.4646 -0.8439
vn 0.2683 0.4646 -0.8439
vn -0.5365 0.0000 -0.8439
vn 0.5365 0.0000 -0.8439
vn 0.2683 -0.4646 -0.8439
vn -0.2683 0.4646 -0.8439
vn 0.5000 0.8660 0.0000
vn 0.4544 0.7870 -0.4174
vn 1.0000 0.0000 0.0000
vn 0.9087 0.0000 -0.4174
vn 0.4544 -0.7870 -0.4174
vn 0.5000 -0.8660 0.0000
vn -0.4544 0.7870 -0.4174
vn -0.5000 0.8660 0.0000
vn -0.5000 -0.8660 0.0000
vn -0.4544 -0.7870 -0.4174
vn -0.9087 0.0000 -0.4174
vn -1.0000 0.0000 0.0000
vn 0.3829 -0.2211 0.8969
vn 0.3829 0.2211 0.8969
vn 0.6073 -0.3506 0.7129
vn 0.6073 0.3506 0.7129
vn -0.0000 0.4422 0.8969
vn -0.0000 0.7012 0.7129
vn -0.3829 0.2211 0.8969
vn -0.6073 0.3506 0.7129
vn -0.6073 -0.3506 0.7129
vn -0.3829 -0.2211 0.8969
vn 0.0000 -0.4422 0.8969
vn 0.0000 -0.7012 0.7129
usemtl glass.001
s off
f 1/1/1 2/2/1 3/3/1
f 4/4/1 3/3/1 2/2/1
f 5/5/1 3/3/1 4/4/1
f 6/6/1 5/5/1 4/4/1
f 7/7/1 8/8/1 9/9/1
f 10/10/2 9/9/2 8/8/2
f 11/11/3 10/10/3 8/8/3
f 12/12/4 10/10/4 11/11/4
f 13/13/1 12/12/1 11/11/1
f 14/14/1 12/12/1 13/13/1
f 8/8/1 7/7/1 15/15/1
f 16/16/1 15/15/1 7/7/1
f 17/17/1 15/15/1 16/16/1
f 14/14/1 17/17/1 16/16/1
f 18/18/1 14/14/1 16/16/1
f 12/12/1 14/14/1 18/18/1
f 19/19/5 20/20/5 21/21/5
f 22/22/5 21/21/5 20/20/5
f 23/23/5 21/21/5 22/22/5
f 24/24/5 23/23/5 22/22/5
f 2/2/6 4/4/6 25/25/6
f 26/26/6 25/25/6 4/4/6
f 27/27/7 1/1/7 25/25/7
f 2/2/7 25/25/7 1/1/7
f 3/3/8 1/1/8 28/28/8
f 27/27/8 28/28/8 1/1/8
f 5/5/9 3/3/9 29/29/9
f 28/28/9 29/29/9 3/3/9
f 4/4/10 6/6/10 26/26/10
f 30/30/10 26/26/10 6/6/10
f 29/29/11 30/30/11 5/5/11
f 6/6/11 5/5/11 30/30/11
f 2/2/12 19/19/12 4/4/12
f 21/21/12 4/4/12 19/19/12
f 3/3/13 5/5/13 22/22/13
f 24/24/13 22/22/13 5/5/13
f 2/2/14 1/1/14 19/19/14
f 20/20/14 19/19/14 1/1/14
f 23/23/15 24/24/15 6/6/15
f 5/5/15 6/6/15 24/24/15
f 4/4/16 21/21/16 6/6/16
f 23/23/16 6/6/16 21/21/16
f 1/1/17 3/3/17 20/20/17
f 22/22/17 20/20/17 3/3/17
f 31/31/18 32/32/18 12/12/18
f 10/10/18 12/12/18 32/32/18
f 29/29/19 28/28/19 31/31/19
f 32/32/19 31/31/19 28/28/19
f 31/31/20 12/12/20 33/33/20
f 18/18/20 33/33/20 12/12/20
f 31/31/21 33/33/21 29/29/21
f 30/30/21 29/29/21 33/33/21
f 26/26/22 30/30/22 34/34/22
f 33/33/22 34/34/22 30/30/22
f 34/34/23 33/33/23 16/16/23
f 18/18/23 16/16/23 33/33/23
f 28/28/24 27/27/24 32/32/24
f 35/35/24 32/32/24 27/27/24
f 32/32/25 35/35/25 10/10/25
f 9/9/25 10/10/25 35/35/25
f 36/36/26 34/34/26 7/7/26
f 16/16/26 7/7/26 34/34/26
f 25/25/27 26/26/27 36/36/27
f 34/34/27 36/36/27 26/26/27
f 35/35/28 27/27/28 36/36/28
f 25/25/28 36/36/28 27/27/28
f 9/9/29 35/35/29 7/7/29
f 36/36/29 7/7/29 35/35/29
f 37/37/1 38/38/1 39/39/1
f 40/40/1 39/39/1 38/38/1
f 41/41/1 39/39/1 40/40/1
f 42/42/1 41/41/1 40/40/1
s 1
f 8/8/30 15/15/31 37/37/32
f 38/38/33 37/37/32 15/15/31
f 15/15/31 17/17/34 38/38/33
f 40/40/35 38/38/33 17/17/34
f 17/17/34 14/14/36 40/40/35
f 42/42/37 40/40/35 14/14/36
f 42/42/37 14/14/36 41/41/38
f 13/13/39 41/41/38 14/14/36
f 13/13/39 11/11/40 41/41/38
f 39/39/41 41/41/38 11/11/40
f 37/37/32 39/39/41 8/8/30
f 11/11/40 8/8/30 39/39/41
