# Blender v2.78 (sub 0) OBJ File: ''
# www.blender.org
mtllib whisk_collision.mtl
o whisk.025_whisk.042
v 0.064592 0.047251 0.052355
v 0.050205 0.055811 0.060915
v 0.050205 0.060915 0.055811
v 0.064592 0.052355 0.047251
v 0.330661 0.047251 0.052355
v 0.345048 0.055811 0.060915
v 0.330661 0.052355 0.047251
v 0.345048 0.060915 0.055811
vt -2.5430 0.0723
vt -1.9766 -0.9088
vt -1.9766 -0.9088
vt -2.5430 0.0723
vt -11.9023 0.0723
vt -12.4687 -0.9088
vt -11.9023 0.0723
vt -12.4687 -0.9088
vn -0.2640 -0.9626 -0.0610
vn -0.7878 -0.1821 0.5885
vn -0.7878 0.5885 -0.1821
vn -0.2640 -0.0610 -0.9626
vn 0.2640 -0.9626 -0.0610
vn 0.7878 -0.1821 0.5885
vn 0.2640 -0.0610 -0.9626
vn 0.7878 0.5885 -0.1821
usemtl white.002
s 1
f 1/1/1 2/2/2 3/3/3 4/4/4
f 2/2/2 1/1/1 5/5/5 6/6/6
f 7/7/7 8/8/8 6/6/6 5/5/5
f 6/6/6 8/8/8 3/3/3 2/2/2
f 1/1/1 4/4/4 7/7/7 5/5/5
f 3/3/3 8/8/8 7/7/7 4/4/4
o whisk.024_whisk.041
v 0.345227 0.059875 0.054772
v 0.361271 -0.000899 -0.006003
v 0.341031 0.004266 -0.000838
v 0.327585 0.055277 0.050173
v 0.345227 0.054772 0.059876
v 0.327585 0.050173 0.055277
v 0.341031 -0.000838 0.004266
v 0.361271 -0.006003 -0.000899
vt -12.4687 -0.9088
vt -14.2600 2.1939
vt -13.1272 2.1939
vt -11.9023 0.0723
vt -12.4687 -0.9088
vt -11.9023 0.0723
vt -13.1272 2.1939
vt -14.2600 2.1939
vn 0.4061 0.9080 0.1033
vn 0.5390 -0.0563 -0.8404
vn -0.6035 0.0690 -0.7943
vn -0.7041 0.6978 -0.1320
vn 0.4061 0.1033 0.9080
vn -0.7041 -0.1320 0.6978
vn -0.6035 -0.7943 0.0690
vn 0.5390 -0.8404 -0.0563
usemtl white.002
s 1
f 9/9/9 10/10/10 11/11/11
f 9/9/9 11/11/11 12/12/12
f 13/13/13 9/9/9 12/12/12 14/14/14
f 13/13/13 15/15/15 16/16/16
f 16/16/16 10/10/10 9/9/9 13/13/13
f 13/13/13 14/14/14 15/15/15
f 14/14/14 12/12/12 11/11/11 15/15/15
f 15/15/15 11/11/11 10/10/10 16/16/16
o whisk.023_whisk.040
v 0.345227 0.081068 -0.003609
v 0.361271 -0.004881 -0.003609
v 0.341031 0.002424 -0.003609
v 0.327585 0.074565 -0.003609
v 0.345227 0.081068 0.003609
v 0.327585 0.074565 0.003609
v 0.341031 0.002424 0.003609
v 0.361271 -0.004881 0.003609
vt -12.4687 -0.9088
vt -14.2600 2.1939
vt -13.1272 2.1939
vt -11.9023 0.0723
vt -12.4687 -0.9088
vt -11.9023 0.0723
vt -13.1272 2.1939
vt -14.2600 2.1939
vn 0.4061 0.7151 -0.5690
vn 0.5390 -0.6341 -0.5545
vn -0.6035 -0.5129 -0.6105
vn -0.7041 0.4000 -0.5868
vn 0.4061 0.7150 0.5690
vn -0.7041 0.4000 0.5868
vn -0.6035 -0.5129 0.6105
vn 0.5390 -0.6341 0.5545
usemtl white.002
s 1
f 17/17/17 18/18/18 19/19/19
f 17/17/17 19/19/19 20/20/20
f 21/21/21 17/17/17 20/20/20 22/22/22
f 21/21/21 23/23/23 24/24/24
f 24/24/24 18/18/18 17/17/17 21/21/21
f 21/21/21 22/22/22 23/23/23
f 22/22/22 20/20/20 19/19/19 23/23/23
f 23/23/23 19/19/19 18/18/18 24/24/24
o whisk.019_whisk.039
v 0.064592 0.070432 0.003609
v 0.050205 0.082538 0.003609
v 0.050205 0.082538 -0.003609
v 0.064592 0.070432 -0.003609
v 0.330661 0.070432 0.003609
v 0.345048 0.082538 0.003609
v 0.330661 0.070432 -0.003609
v 0.345048 0.082538 -0.003609
vt -2.5430 0.0723
vt -1.9766 -0.9088
vt -1.9766 -0.9088
vt -2.5430 0.0723
vt -11.9023 0.0723
vt -12.4687 -0.9088
vt -11.9023 0.0723
vt -12.4687 -0.9088
vn -0.2640 -0.7238 0.6375
vn -0.7878 0.2873 0.5449
vn -0.7878 0.2873 -0.5449
vn -0.2640 -0.7238 -0.6375
vn 0.2640 -0.7238 0.6375
vn 0.7878 0.2873 0.5449
vn 0.2640 -0.7238 -0.6375
vn 0.7878 0.2873 -0.5449
usemtl white.002
s 1
f 25/25/25 26/26/26 27/27/27 28/28/28
f 26/26/26 25/25/25 29/29/29 30/30/30
f 31/31/31 32/32/32 30/30/30 29/29/29
f 30/30/30 32/32/32 27/27/27 26/26/26
f 25/25/25 28/28/28 31/31/31 29/29/29
f 27/27/27 32/32/32 31/31/31 28/28/28
o whisk.017_whisk.038
v 0.064592 0.052355 -0.047251
v 0.050205 0.060915 -0.055811
v 0.050205 0.055811 -0.060915
v 0.064592 0.047251 -0.052355
v 0.330661 0.052355 -0.047251
v 0.345048 0.060915 -0.055811
v 0.330661 0.047251 -0.052355
v 0.345048 0.055811 -0.060915
vt -2.5430 0.0723
vt -1.9766 -0.9088
vt -1.9766 -0.9088
vt -2.5430 0.0723
vt -11.9023 0.0723
vt -12.4687 -0.9088
vt -11.9023 0.0723
vt -12.4687 -0.9088
vn -0.2640 -0.0610 0.9626
vn -0.7878 0.5885 0.1821
vn -0.7878 -0.1821 -0.5885
vn -0.2640 -0.9626 0.0610
vn 0.2640 -0.0610 0.9626
vn 0.7878 0.5885 0.1821
vn 0.2640 -0.9626 0.0610
vn 0.7878 -0.1821 -0.5885
usemtl white.002
s 1
f 33/33/33 34/34/34 35/35/35 36/36/36
f 34/34/34 33/33/33 37/37/37 38/38/38
f 39/39/39 40/40/40 38/38/38 37/37/37
f 38/38/38 40/40/40 35/35/35 34/34/34
f 33/33/33 36/36/36 39/39/39 37/37/37
f 35/35/35 40/40/40 39/39/39 36/36/36
o whisk.016_whisk.037
v 0.345227 0.054772 -0.059876
v 0.361271 -0.006003 0.000899
v 0.341031 -0.000838 -0.004266
v 0.327585 0.050173 -0.055277
v 0.345227 0.059876 -0.054772
v 0.327585 0.055277 -0.050173
v 0.341031 0.004266 0.000838
v 0.361271 -0.000899 0.006003
vt -12.4687 -0.9088
vt -14.2600 2.1939
vt -13.1272 2.1939
vt -11.9023 0.0723
vt -12.4687 -0.9088
vt -11.9023 0.0723
vt -13.1272 2.1939
vt -14.2600 2.1939
vn 0.4061 0.1033 -0.9080
vn 0.5390 -0.8404 0.0563
vn -0.6035 -0.7943 -0.0690
vn -0.7041 -0.1320 -0.6978
vn 0.4061 0.9080 -0.1033
vn -0.7041 0.6978 0.1320
vn -0.6035 0.0690 0.7943
vn 0.5390 -0.0563 0.8404
usemtl white.002
s 1
f 41/41/41 42/42/42 43/43/43
f 41/41/41 43/43/43 44/44/44
f 45/45/45 41/41/41 44/44/44 46/46/46
f 45/45/45 47/47/47 48/48/48
f 48/48/48 42/42/42 41/41/41 45/45/45
f 45/45/45 46/46/46 47/47/47
f 46/46/46 44/44/44 43/43/43 47/47/47
f 47/47/47 43/43/43 42/42/42 48/48/48
o whisk.015_whisk.036
v 0.345227 -0.003609 -0.081068
v 0.361271 -0.003609 0.004881
v 0.341031 -0.003609 -0.002424
v 0.327585 -0.003609 -0.074565
v 0.345227 0.003609 -0.081068
v 0.327585 0.003609 -0.074565
v 0.341031 0.003609 -0.002424
v 0.361271 0.003609 0.004881
vt -12.4687 -0.9088
vt -14.2600 2.1939
vt -13.1272 2.1939
vt -11.9023 0.0723
vt -12.4687 -0.9088
vt -11.9023 0.0723
vt -13.1272 2.1939
vt -14.2600 2.1939
vn 0.4061 -0.5690 -0.7151
vn 0.5390 -0.5545 0.6341
vn -0.6035 -0.6105 0.5129
vn -0.7041 -0.5868 -0.4000
vn 0.4061 0.5690 -0.7150
vn -0.7041 0.5868 -0.4000
vn -0.6035 0.6105 0.5129
vn 0.5390 0.5545 0.6341
usemtl white.002
s 1
f 49/49/49 50/50/50 51/51/51
f 49/49/49 51/51/51 52/52/52
f 53/53/53 49/49/49 52/52/52 54/54/54
f 53/53/53 55/55/55 56/56/56
f 56/56/56 50/50/50 49/49/49 53/53/53
f 53/53/53 54/54/54 55/55/55
f 54/54/54 52/52/52 51/51/51 55/55/55
f 55/55/55 51/51/51 50/50/50 56/56/56
o whisk.014_whisk.035
v 0.064592 0.003609 -0.070432
v 0.050205 0.003609 -0.082538
v 0.050205 -0.003609 -0.082538
v 0.064592 -0.003609 -0.070432
v 0.330661 0.003609 -0.070432
v 0.345048 0.003609 -0.082538
v 0.330661 -0.003609 -0.070432
v 0.345048 -0.003609 -0.082538
vt -2.5430 0.0723
vt -1.9766 -0.9088
vt -1.9766 -0.9088
vt -2.5430 0.0723
vt -11.9023 0.0723
vt -12.4687 -0.9088
vt -11.9023 0.0723
vt -12.4687 -0.9088
vn -0.2640 0.6375 0.7238
vn -0.7878 0.5449 -0.2873
vn -0.7878 -0.5449 -0.2873
vn -0.2640 -0.6375 0.7238
vn 0.2640 0.6375 0.7238
vn 0.7878 0.5449 -0.2873
vn 0.2640 -0.6375 0.7238
vn 0.7878 -0.5449 -0.2873
usemtl white.002
s 1
f 57/57/57 58/58/58 59/59/59 60/60/60
f 58/58/58 57/57/57 61/61/61 62/62/62
f 63/63/63 64/64/64 62/62/62 61/61/61
f 62/62/62 64/64/64 59/59/59 58/58/58
f 57/57/57 60/60/60 63/63/63 61/61/61
f 59/59/59 64/64/64 63/63/63 60/60/60
o whisk.012_whisk.034
v 0.064592 -0.047251 -0.052355
v 0.050205 -0.055811 -0.060915
v 0.050205 -0.060915 -0.055811
v 0.064592 -0.052355 -0.047251
v 0.330661 -0.047251 -0.052355
v 0.345048 -0.055811 -0.060915
v 0.330661 -0.052355 -0.047251
v 0.345048 -0.060915 -0.055811
vt -2.5430 0.0723
vt -1.9766 -0.9088
vt -1.9766 -0.9088
vt -2.5430 0.0723
vt -11.9023 0.0723
vt -12.4687 -0.9088
vt -11.9023 0.0723
vt -12.4687 -0.9088
vn -0.2640 0.9626 0.0610
vn -0.7878 0.1821 -0.5885
vn -0.7878 -0.5885 0.1821
vn -0.2640 0.0610 0.9626
vn 0.2640 0.9626 0.0610
vn 0.7878 0.1821 -0.5885
vn 0.2640 0.0610 0.9626
vn 0.7878 -0.5885 0.1821
usemtl white.002
s 1
f 65/65/65 66/66/66 67/67/67 68/68/68
f 66/66/66 65/65/65 69/69/69 70/70/70
f 71/71/71 72/72/72 70/70/70 69/69/69
f 70/70/70 72/72/72 67/67/67 66/66/66
f 65/65/65 68/68/68 71/71/71 69/69/69
f 67/67/67 72/72/72 71/71/71 68/68/68
o whisk.009_whisk.033
v 0.345227 -0.059876 -0.054772
v 0.361271 0.000899 0.006003
v 0.341031 -0.004266 0.000838
v 0.327585 -0.055277 -0.050173
v 0.345227 -0.054772 -0.059876
v 0.327585 -0.050173 -0.055277
v 0.341031 0.000838 -0.004266
v 0.361271 0.006003 0.000899
vt -12.4687 -0.9088
vt -14.2600 2.1939
vt -13.1272 2.1939
vt -11.9023 0.0723
vt -12.4687 -0.9088
vt -11.9023 0.0723
vt -13.1272 2.1939
vt -14.2600 2.1939
vn 0.4061 -0.9080 -0.1033
vn 0.5390 0.0563 0.8404
vn -0.6035 -0.0690 0.7943
vn -0.7041 -0.6978 0.1320
vn 0.4061 -0.1033 -0.9080
vn -0.7041 0.1320 -0.6978
vn -0.6035 0.7943 -0.0690
vn 0.5390 0.8404 0.0563
usemtl white.002
s 1
f 73/73/73 74/74/74 75/75/75
f 73/73/73 75/75/75 76/76/76
f 77/77/77 73/73/73 76/76/76 78/78/78
f 77/77/77 79/79/79 80/80/80
f 80/80/80 74/74/74 73/73/73 77/77/77
f 77/77/77 78/78/78 79/79/79
f 78/78/78 76/76/76 75/75/75 79/79/79
f 79/79/79 75/75/75 74/74/74 80/80/80
o whisk.006_whisk.032
v 0.345227 -0.081068 0.003609
v 0.361271 0.004881 0.003609
v 0.341031 -0.002424 0.003609
v 0.327585 -0.074565 0.003609
v 0.345227 -0.081068 -0.003609
v 0.327585 -0.074565 -0.003609
v 0.341031 -0.002424 -0.003609
v 0.361271 0.004881 -0.003609
vt -12.4687 -0.9088
vt -14.2600 2.1939
vt -13.1272 2.1939
vt -11.9023 0.0723
vt -12.4687 -0.9088
vt -11.9023 0.0723
vt -13.1272 2.1939
vt -14.2600 2.1939
vn 0.4061 -0.7150 0.5690
vn 0.5390 0.6341 0.5545
vn -0.6035 0.5129 0.6105
vn -0.7041 -0.4000 0.5868
vn 0.4061 -0.7150 -0.5690
vn -0.7041 -0.4000 -0.5868
vn -0.6035 0.5129 -0.6105
vn 0.5390 0.6341 -0.5545
usemtl white.002
s 1
f 81/81/81 82/82/82 83/83/83
f 81/81/81 83/83/83 84/84/84
f 85/85/85 81/81/81 84/84/84 86/86/86
f 85/85/85 87/87/87 88/88/88
f 88/88/88 82/82/82 81/81/81 85/85/85
f 85/85/85 86/86/86 87/87/87
f 86/86/86 84/84/84 83/83/83 87/87/87
f 87/87/87 83/83/83 82/82/82 88/88/88
o whisk.004_whisk.031
v 0.064592 -0.070432 -0.003609
v 0.050205 -0.082538 -0.003609
v 0.050205 -0.082538 0.003609
v 0.064592 -0.070432 0.003609
v 0.330661 -0.070432 -0.003609
v 0.345048 -0.082538 -0.003609
v 0.330661 -0.070432 0.003609
v 0.345048 -0.082538 0.003609
vt -2.5430 0.0723
vt -1.9766 -0.9088
vt -1.9766 -0.9088
vt -2.5430 0.0723
vt -11.9023 0.0723
vt -12.4687 -0.9088
vt -11.9023 0.0723
vt -12.4687 -0.9088
vn -0.2640 0.7238 -0.6375
vn -0.7878 -0.2873 -0.5449
vn -0.7878 -0.2873 0.5449
vn -0.2640 0.7238 0.6375
vn 0.2640 0.7238 -0.6375
vn 0.7878 -0.2873 -0.5449
vn 0.2640 0.7238 0.6375
vn 0.7878 -0.2873 0.5449
usemtl white.002
s 1
f 89/89/89 90/90/90 91/91/91 92/92/92
f 90/90/90 89/89/89 93/93/93 94/94/94
f 95/95/95 96/96/96 94/94/94 93/93/93
f 94/94/94 96/96/96 91/91/91 90/90/90
f 89/89/89 92/92/92 95/95/95 93/93/93
f 91/91/91 96/96/96 95/95/95 92/92/92
o whisk.002_whisk.030
v 0.064592 -0.052355 0.047251
v 0.050205 -0.060915 0.055811
v 0.050205 -0.055811 0.060915
v 0.064592 -0.047251 0.052355
v 0.330661 -0.052355 0.047251
v 0.345048 -0.060915 0.055811
v 0.330661 -0.047251 0.052355
v 0.345048 -0.055811 0.060915
vt -2.5430 0.0723
vt -1.9766 -0.9088
vt -1.9766 -0.9088
vt -2.5430 0.0723
vt -11.9023 0.0723
vt -12.4687 -0.9088
vt -11.9023 0.0723
vt -12.4687 -0.9088
vn -0.2640 0.0610 -0.9626
vn -0.7878 -0.5885 -0.1821
vn -0.7878 0.1821 0.5885
vn -0.2640 0.9626 -0.0610
vn 0.2640 0.0610 -0.9626
vn 0.7878 -0.5885 -0.1821
vn 0.2640 0.9626 -0.0610
vn 0.7878 0.1821 0.5885
usemtl white.002
s 1
f 97/97/97 98/98/98 99/99/99 100/100/100
f 98/98/98 97/97/97 101/101/101 102/102/102
f 103/103/103 104/104/104 102/102/102 101/101/101
f 102/102/102 104/104/104 99/99/99 98/98/98
f 97/97/97 100/100/100 103/103/103 101/101/101
f 99/99/99 104/104/104 103/103/103 100/100/100
o whisk.000_whisk.029
v 0.345227 -0.054772 0.059876
v 0.361271 0.006003 -0.000899
v 0.341031 0.000838 0.004266
v 0.327585 -0.050173 0.055277
v 0.345227 -0.059876 0.054772
v 0.327585 -0.055277 0.050173
v 0.341031 -0.004266 -0.000838
v 0.361271 0.000899 -0.006003
vt -12.4687 -0.9088
vt -14.2600 2.1939
vt -13.1272 2.1939
vt -11.9023 0.0723
vt -12.4687 -0.9088
vt -11.9023 0.0723
vt -13.1272 2.1939
vt -14.2600 2.1939
vn 0.4061 -0.1033 0.9080
vn 0.5390 0.8404 -0.0563
vn -0.6035 0.7943 0.0690
vn -0.7041 0.1320 0.6978
vn 0.4061 -0.9080 0.1033
vn -0.7041 -0.6978 -0.1320
vn -0.6035 -0.0690 -0.7943
vn 0.5390 0.0563 -0.8404
usemtl white.002
s 1
f 105/105/105 106/106/106 107/107/107
f 105/105/105 107/107/107 108/108/108
f 109/109/109 105/105/105 108/108/108 110/110/110
f 109/109/109 111/111/111 112/112/112
f 112/112/112 106/106/106 105/105/105 109/109/109
f 109/109/109 110/110/110 111/111/111
f 110/110/110 108/108/108 107/107/107 111/111/111
f 111/111/111 107/107/107 106/106/106 112/112/112
o whisk.028
v 0.026223 -0.005468 -0.000308
v 0.004705 -0.005468 -0.000308
v 0.050205 -0.061194 -0.056033
v 0.026223 -0.000364 -0.005412
v 0.064592 -0.052633 -0.047473
v 0.064592 -0.047529 -0.052577
v 0.050205 -0.056090 -0.061137
v 0.004705 -0.000364 -0.005412
vt -1.3181 2.1939
vt -0.1852 2.1939
vt -1.9766 -0.9088
vt -1.3181 2.1939
vt -2.5430 0.0723
vt -2.5430 0.0723
vt -1.9766 -0.9088
vt -0.1852 2.1939
vn 0.3968 0.0538 0.9163
vn -0.7206 -0.0981 0.6864
vn -0.1423 -0.9750 -0.1708
vn 0.3968 0.9163 0.0538
vn 0.7971 -0.5147 0.3158
vn 0.7971 0.3158 -0.5147
vn -0.1423 -0.1708 -0.9750
vn -0.7206 0.6864 -0.0981
usemtl white.002
s 1
f 113/113/113 114/114/114 115/115/115
f 116/116/116 113/113/113 117/117/117 118/118/118
f 116/116/116 119/119/119 120/120/120
f 120/120/120 114/114/114 113/113/113 116/116/116
f 119/119/119 116/116/116 118/118/118
f 118/118/118 117/117/117 115/115/115 119/119/119
f 115/115/115 117/117/117 113/113/113
f 119/119/119 115/115/115 114/114/114 120/120/120
o whisk.021
v 0.345227 0.003609 0.081068
v 0.361271 0.003609 -0.004881
v 0.341031 0.003609 0.002424
v 0.327585 0.003609 0.074565
v 0.345227 -0.003609 0.081068
v 0.327585 -0.003609 0.074565
v 0.341031 -0.003609 0.002424
v 0.361271 -0.003609 -0.004881
vt -12.4687 -0.9088
vt -14.2600 2.1939
vt -13.1272 2.1939
vt -11.9023 0.0723
vt -12.4687 -0.9088
vt -11.9023 0.0723
vt -13.1272 2.1939
vt -14.2600 2.1939
vn 0.4061 0.5690 0.7150
vn 0.5390 0.5545 -0.6341
vn -0.6035 0.6105 -0.5129
vn -0.7041 0.5868 0.4000
vn 0.4061 -0.5690 0.7150
vn -0.7041 -0.5868 0.4000
vn -0.6035 -0.6105 -0.5129
vn 0.5390 -0.5545 -0.6341
usemtl white.002
s 1
f 121/121/121 122/122/122 123/123/123
f 121/121/121 123/123/123 124/124/124
f 125/125/125 121/121/121 124/124/124 126/126/126
f 125/125/125 127/127/127 128/128/128
f 128/128/128 122/122/122 121/121/121 125/125/125
f 125/125/125 126/126/126 127/127/127
f 126/126/126 124/124/124 123/123/123 127/127/127
f 127/127/127 123/123/123 122/122/122 128/128/128
o whisk.011
v 0.064592 -0.003609 0.070432
v 0.050205 -0.003609 0.082538
v 0.050205 0.003609 0.082538
v 0.064592 0.003609 0.070432
v 0.330661 -0.003609 0.070432
v 0.345048 -0.003609 0.082538
v 0.330661 0.003609 0.070432
v 0.345048 0.003609 0.082538
vt -2.5430 0.0723
vt -1.9766 -0.9088
vt -1.9766 -0.9088
vt -2.5430 0.0723
vt -11.9023 0.0723
vt -12.4687 -0.9088
vt -11.9023 0.0723
vt -12.4687 -0.9088
vn -0.2640 -0.6375 -0.7238
vn -0.7878 -0.5449 0.2873
vn -0.7878 0.5449 0.2873
vn -0.2640 0.6375 -0.7238
vn 0.2640 -0.6375 -0.7238
vn 0.7878 -0.5449 0.2873
vn 0.2640 0.6375 -0.7238
vn 0.7878 0.5449 0.2873
usemtl white.002
s 1
f 129/129/129 130/130/130 131/131/131 132/132/132
f 130/130/130 129/129/129 133/133/133 134/134/134
f 135/135/135 136/136/136 134/134/134 133/133/133
f 134/134/134 136/136/136 131/131/131 130/130/130
f 129/129/129 132/132/132 135/135/135 133/133/133
f 131/131/131 136/136/136 135/135/135 132/132/132
o whisk.018
v 0.026223 0.005276 0.000228
v 0.004705 0.005276 0.000228
v 0.050205 0.061002 0.055954
v 0.026223 0.000172 0.005332
v 0.064592 0.052442 0.047394
v 0.064592 0.047338 0.052498
v 0.050205 0.055898 0.061058
v 0.004705 0.000172 0.005332
vt -1.3181 2.1939
vt -0.1852 2.1939
vt -1.9766 -0.9088
vt -1.3181 2.1939
vt -2.5430 0.0723
vt -2.5430 0.0723
vt -1.9766 -0.9088
vt -0.1852 2.1939
vn 0.3968 -0.0538 -0.9163
vn -0.7206 0.0981 -0.6864
vn -0.1423 0.9750 0.1708
vn 0.3968 -0.9163 -0.0538
vn 0.7971 0.5147 -0.3158
vn 0.7971 -0.3158 0.5147
vn -0.1423 0.1708 0.9750
vn -0.7206 -0.6864 0.0981
usemtl white.002
s 1
f 137/137/137 138/138/138 139/139/139
f 140/140/140 137/137/137 141/141/141 142/142/142
f 140/140/140 143/143/143 144/144/144
f 144/144/144 138/138/138 137/137/137 140/140/140
f 143/143/143 140/140/140 142/142/142
f 142/142/142 141/141/141 139/139/139 143/143/143
f 139/139/139 141/141/141 137/137/137
f 143/143/143 139/139/139 138/138/138 144/144/144
o whisk.020
v 0.064592 0.051942 -0.046608
v 0.064592 0.046838 -0.051712
v 0.050205 0.055399 -0.060273
v 0.050205 0.060503 -0.055169
v 0.004705 0.004777 0.000557
v 0.004705 -0.000327 -0.004547
v 0.026223 -0.000327 -0.004547
v 0.026223 0.004777 0.000557
vt -2.5430 0.0723
vt -2.5430 0.0723
vt -1.9766 -0.9088
vt -1.9766 -0.9088
vt -0.1852 2.1939
vt -0.1852 2.1939
vt -1.3181 2.1939
vt -1.3181 2.1939
vn 0.7971 0.5147 0.3158
vn 0.7971 -0.3158 -0.5147
vn -0.1423 0.1708 -0.9750
vn -0.1423 0.9750 -0.1708
vn -0.7206 0.0981 0.6864
vn -0.7206 -0.6864 -0.0981
vn 0.3968 -0.9163 0.0538
vn 0.3968 -0.0538 0.9163
usemtl white.002
s 1
f 145/145/145 146/146/146 147/147/147 148/148/148
f 149/149/149 150/150/150 151/151/151 152/152/152
f 147/147/147 146/146/146 151/151/151
f 152/152/152 151/151/151 146/146/146 145/145/145
f 152/152/152 148/148/148 149/149/149
f 148/148/148 152/152/152 145/145/145
f 148/148/148 147/147/147 150/150/150 149/149/149
f 151/151/151 150/150/150 147/147/147
o whisk.022
v 0.026223 0.000002 0.005332
v 0.004705 0.000002 0.005332
v 0.050205 -0.055724 0.061058
v 0.026223 -0.005102 0.000228
v 0.064592 -0.047164 0.052498
v 0.064592 -0.052268 0.047394
v 0.050205 -0.060828 0.055954
v 0.004705 -0.005102 0.000228
vt -1.3181 2.1939
vt -0.1852 2.1939
vt -1.9766 -0.9088
vt -1.3181 2.1939
vt -2.5430 0.0723
vt -2.5430 0.0723
vt -1.9766 -0.9088
vt -0.1852 2.1939
vn 0.3968 0.9163 -0.0538
vn -0.7206 0.6864 0.0981
vn -0.1423 -0.1708 0.9750
vn 0.3968 0.0538 -0.9163
vn 0.7971 0.3158 0.5147
vn 0.7971 -0.5147 -0.3158
vn -0.1423 -0.9750 0.1708
vn -0.7206 -0.0981 -0.6864
usemtl white.002
s 1
f 153/153/153 154/154/154 155/155/155
f 156/156/156 153/153/153 157/157/157 158/158/158
f 156/156/156 159/159/159 160/160/160
f 160/160/160 154/154/154 153/153/153 156/156/156
f 159/159/159 156/156/156 158/158/158
f 158/158/158 157/157/157 155/155/155 159/159/159
f 155/155/155 157/157/157 153/153/153
f 159/159/159 155/155/155 154/154/154 160/160/160
o whisk.008
v 0.064592 0.003609 -0.069726
v 0.064592 -0.003609 -0.069726
v 0.050205 -0.003609 -0.081832
v 0.050205 0.003609 -0.081832
v 0.004705 0.003609 -0.003023
v 0.004705 -0.003609 -0.003023
v 0.026223 -0.003609 -0.003023
v 0.026223 0.003609 -0.003023
vt -2.5430 0.0723
vt -2.5430 0.0723
vt -1.9766 -0.9088
vt -1.9766 -0.9088
vt -0.1852 2.1939
vt -0.1852 2.1939
vt -1.3181 2.1939
vt -1.3181 2.1939
vn 0.7971 0.5873 -0.1406
vn 0.7971 -0.5873 -0.1406
vn -0.1423 -0.5687 -0.8102
vn -0.1423 0.5687 -0.8102
vn -0.7206 0.5547 0.4160
vn -0.7206 -0.5547 0.4160
vn 0.3968 -0.6099 0.6860
vn 0.3968 0.6099 0.6860
usemtl white.002
s 1
f 161/161/161 162/162/162 163/163/163 164/164/164
f 165/165/165 166/166/166 167/167/167 168/168/168
f 163/163/163 162/162/162 167/167/167
f 168/168/168 167/167/167 162/162/162 161/161/161
f 168/168/168 164/164/164 165/165/165
f 164/164/164 168/168/168 161/161/161
f 164/164/164 163/163/163 166/166/166 165/165/165
f 167/167/167 166/166/166 163/163/163
o whisk.010
v 0.026223 0.003609 0.003729
v 0.004705 0.003609 0.003729
v 0.050205 0.003609 0.082538
v 0.026223 -0.003609 0.003729
v 0.064592 0.003609 0.070432
v 0.064592 -0.003609 0.070432
v 0.050205 -0.003609 0.082538
v 0.004705 -0.003609 0.003729
vt -1.3181 2.1939
vt -0.1852 2.1939
vt -1.9766 -0.9088
vt -1.3181 2.1939
vt -2.5430 0.0723
vt -2.5430 0.0723
vt -1.9766 -0.9088
vt -0.1852 2.1939
vn 0.3968 0.6099 -0.6860
vn -0.7206 0.5547 -0.4160
vn -0.1423 0.5687 0.8102
vn 0.3968 -0.6099 -0.6860
vn 0.7971 0.5873 0.1406
vn 0.7971 -0.5873 0.1406
vn -0.1423 -0.5687 0.8102
vn -0.7206 -0.5547 -0.4160
usemtl white.002
s 1
f 169/169/169 170/170/170 171/171/171
f 172/172/172 169/169/169 173/173/173 174/174/174
f 172/172/172 175/175/175 176/176/176
f 176/176/176 170/170/170 169/169/169 172/172/172
f 175/175/175 172/172/172 174/174/174
f 174/174/174 173/173/173 171/171/171 175/175/175
f 171/171/171 173/173/173 169/169/169
f 175/175/175 171/171/171 170/170/170 176/176/176
o whisk.013
v 0.026223 -0.004246 0.003609
v 0.004705 -0.004246 0.003609
v 0.050205 -0.083055 0.003609
v 0.026223 -0.004246 -0.003609
v 0.064592 -0.070949 0.003609
v 0.064592 -0.070949 -0.003609
v 0.050205 -0.083055 -0.003609
v 0.004705 -0.004246 -0.003609
vt -1.3181 2.1939
vt -0.1852 2.1939
vt -1.9766 -0.9088
vt -1.3181 2.1939
vt -2.5430 0.0723
vt -2.5430 0.0723
vt -1.9766 -0.9088
vt -0.1852 2.1939
vn 0.3968 0.6860 0.6099
vn -0.7206 0.4160 0.5547
vn -0.1423 -0.8102 0.5687
vn 0.3968 0.6860 -0.6099
vn 0.7971 -0.1406 0.5873
vn 0.7971 -0.1406 -0.5873
vn -0.1423 -0.8102 -0.5687
vn -0.7206 0.4160 -0.5547
usemtl white.002
s 1
f 177/177/177 178/178/178 179/179/179
f 180/180/180 177/177/177 181/181/181 182/182/182
f 180/180/180 183/183/183 184/184/184
f 184/184/184 178/178/178 177/177/177 180/180/180
f 183/183/183 180/180/180 182/182/182
f 182/182/182 181/181/181 179/179/179 183/183/183
f 179/179/179 181/181/181 177/177/177
f 183/183/183 179/179/179 178/178/178 184/184/184
o whisk.005
v 0.026223 0.003729 -0.003609
v 0.004705 0.003729 -0.003609
v 0.050205 0.082538 -0.003609
v 0.026223 0.003729 0.003609
v 0.064592 0.070432 -0.003609
v 0.064592 0.070432 0.003609
v 0.050205 0.082538 0.003609
v 0.004705 0.003729 0.003609
vt -1.3181 2.1939
vt -0.1852 2.1939
vt -1.9766 -0.9088
vt -1.3181 2.1939
vt -2.5430 0.0723
vt -2.5430 0.0723
vt -1.9766 -0.9088
vt -0.1852 2.1939
vn 0.3968 -0.6860 -0.6099
vn -0.7206 -0.4160 -0.5547
vn -0.1423 0.8102 -0.5687
vn 0.3968 -0.6860 0.6099
vn 0.7971 0.1406 -0.5873
vn 0.7971 0.1406 0.5873
vn -0.1423 0.8102 0.5687
vn -0.7206 -0.4160 0.5547
usemtl white.002
s 1
f 185/185/185 186/186/186 187/187/187
f 188/188/188 185/185/185 189/189/189 190/190/190
f 188/188/188 191/191/191 192/192/192
f 192/192/192 186/186/186 185/185/185 188/188/188
f 191/191/191 188/188/188 190/190/190
f 190/190/190 189/189/189 187/187/187 191/191/191
f 187/187/187 189/189/189 185/185/185
f 191/191/191 187/187/187 186/186/186 192/192/192
