# Blender v2.78 (sub 0) OBJ File: ''
# www.blender.org
mtllib whisk_visual.mtl
o whisk
v 0.340687 -0.003023 0.003609
v 0.012421 0.003010 0.013365
v 0.362205 -0.003023 0.003609
v -0.115295 0.003010 -0.022488
v 0.317291 -0.003379 0.082079
v 0.302904 -0.003379 0.069973
v 0.362791 0.003110 -0.003609
v 0.005291 0.003110 -0.003609
v 0.065178 0.069813 -0.003609
v 0.050791 0.081919 -0.003609
v 0.050791 0.081919 0.003609
v 0.065178 0.003609 -0.071284
v 0.050791 0.003609 -0.083389
v -0.115295 0.003010 0.022488
v 0.012421 0.003010 -0.013365
v 0.302904 0.069813 -0.003609
v 0.316705 -0.081832 0.003609
v 0.302318 -0.069726 0.003609
v 0.064592 -0.069726 0.003609
v 0.050205 -0.081832 0.003609
v 0.026223 -0.003023 0.003609
v 0.004705 -0.003023 0.003609
v 0.302904 0.003839 0.069973
v 0.302904 0.069813 0.003609
v 0.050791 -0.003379 0.082079
v 0.317291 0.081919 0.003609
v 0.026809 0.003110 -0.003609
v 0.362791 0.003110 0.003609
v 0.012421 -0.003010 -0.013365
v -0.115295 -0.003010 0.022488
v -0.115295 -0.003010 -0.022488
v 0.012421 -0.003010 0.013365
v 0.050791 -0.003609 -0.083389
v 0.065178 -0.003609 -0.071284
v 0.302904 -0.003609 -0.071284
v 0.317291 -0.003609 -0.083389
v 0.362791 -0.003609 -0.004581
v 0.341273 -0.003609 -0.004581
v 0.050791 0.003839 0.082079
v 0.065178 0.003839 0.069973
v 0.005291 0.003839 0.003271
v 0.362791 0.003839 0.003271
v 0.341273 0.003110 0.003609
v 0.026809 0.003110 0.003609
v 0.005291 0.003609 -0.004581
v 0.005291 -0.003609 -0.004581
v 0.362791 0.003609 -0.004581
v 0.026809 -0.003609 -0.004581
v 0.005291 0.003110 0.003609
v 0.341273 0.003110 -0.003609
v 0.065178 0.069813 0.003609
v 0.317291 0.003609 -0.083389
v 0.302904 0.003609 -0.071284
v 0.026809 0.003609 -0.004581
v 0.341273 0.003609 -0.004581
v 0.317291 0.081919 -0.003609
v -0.337005 0.010000 -0.032488
v -0.362205 -0.010000 0.000000
v -0.362205 0.010000 0.000000
v -0.337005 -0.010000 -0.032488
v -0.115295 -0.007800 -0.025341
v -0.337005 -0.010000 0.032488
v -0.115295 -0.007800 0.025341
v -0.115295 0.007800 0.025341
v -0.337005 0.010000 0.032488
v -0.115295 0.007800 -0.025341
v 0.362205 -0.003023 -0.003609
v 0.340687 -0.003023 -0.003609
v 0.004705 -0.003023 -0.003609
v 0.026223 -0.003023 -0.003609
v 0.050205 -0.081832 -0.003609
v 0.064592 -0.069726 -0.003609
v 0.026809 0.003839 0.003271
v 0.362791 -0.003379 0.003271
v 0.302318 -0.069726 -0.003609
v 0.316705 -0.081832 -0.003609
v 0.341273 -0.003379 0.003271
v 0.026809 -0.003379 0.003271
v 0.005291 -0.003379 0.003271
v 0.341273 0.003839 0.003271
v 0.065178 -0.003379 0.069973
v 0.317291 0.003839 0.082079
v 0.340687 -0.004898 0.000262
v 0.362205 -0.004898 0.000262
v 0.317291 -0.060636 0.055498
v 0.302904 -0.052076 0.046938
v 0.362791 0.004543 -0.000505
v 0.005291 0.004543 -0.000505
v 0.065178 0.051709 0.046661
v 0.050791 0.060269 0.055221
v 0.050791 0.055165 0.060325
v 0.065178 0.052749 -0.048005
v 0.050791 0.061309 -0.056565
v 0.302904 0.051709 0.046661
v 0.316705 -0.060624 -0.055464
v 0.302318 -0.052064 -0.046904
v 0.064592 -0.052064 -0.046904
v 0.050205 -0.060624 -0.055464
v 0.026223 -0.004898 0.000262
v 0.004705 -0.004898 0.000262
v 0.302904 -0.046972 0.052042
v 0.302904 0.046605 0.051765
v 0.050791 -0.060636 0.055498
v 0.317291 0.055165 0.060325
v 0.026809 0.004543 -0.000505
v 0.362791 -0.000561 0.004599
v 0.050791 0.056205 -0.061669
v 0.065178 0.047645 -0.053109
v 0.302904 0.047645 -0.053109
v 0.317291 0.056205 -0.061669
v 0.362791 0.000479 -0.005943
v 0.341273 0.000479 -0.005943
v 0.050791 -0.055532 0.060602
v 0.065178 -0.046972 0.052042
v 0.005291 0.000194 0.004876
v 0.362791 0.000194 0.004876
v 0.341273 -0.000561 0.004599
v 0.026809 -0.000561 0.004599
v 0.005291 0.005583 -0.000839
v 0.005291 0.000479 -0.005943
v 0.362791 0.005583 -0.000839
v 0.026809 0.000479 -0.005943
v 0.005291 -0.000561 0.004599
v 0.341273 0.004543 -0.000505
v 0.065178 0.046605 0.051765
v 0.317291 0.061309 -0.056565
v 0.302904 0.052749 -0.048005
v 0.026809 0.005583 -0.000839
v 0.341273 0.005583 -0.000839
v 0.317291 0.060269 0.055221
v 0.362205 0.000206 -0.004842
v 0.340687 0.000206 -0.004842
v 0.004705 0.000206 -0.004842
v 0.026223 0.000206 -0.004842
v 0.050205 -0.055520 -0.060568
v 0.064592 -0.046960 -0.052008
v 0.026809 0.000194 0.004876
v 0.362791 -0.004910 -0.000228
v 0.302318 -0.046960 -0.052008
v 0.316705 -0.055520 -0.060568
v 0.341273 -0.004910 -0.000228
v 0.026809 -0.004910 -0.000228
v 0.005291 -0.004910 -0.000228
v 0.341273 0.000194 0.004876
v 0.065178 -0.052076 0.046938
v 0.317291 -0.055532 0.060602
vt 7.1213 3.4964
vt 8.7400 2.7090
vt 8.7400 3.4964
vt 7.1213 2.7090
vt 0.9977 -4.5112
vt -1.2791 -13.2404
vt 1.2791 -13.2404
vt -0.9977 -4.5112
vt 13.2679 -1.2791
vt 14.2600 -0.0000
vt 13.2679 1.2791
vt -0.9977 4.5728
vt 1.2791 13.3020
vt -1.2791 13.3020
vt 0.9977 4.5728
vt 13.3022 3.4964
vt 4.5690 2.7956
vt 13.3022 2.7090
vt 4.5690 3.4098
vt 0.9977 2.7956
vt -0.9977 3.4098
vt -0.9977 2.7956
vt 0.9977 3.4098
vt -4.5690 2.7956
vt -13.3022 3.4964
vt -13.3022 2.7090
vt -4.5690 3.4098
vt -13.2679 1.2791
vt -14.2600 -0.0000
vt -13.2679 -1.2791
vt -8.7400 3.4964
vt -7.1213 2.7090
vt -7.1213 3.4964
vt -8.7400 2.7090
vt -0.4890 0.5262
vt 4.5392 0.8854
vt 4.5392 -0.8854
vt -0.4890 -0.5262
vt -0.1852 2.1939
vt -0.1852 2.1939
vt -1.3181 2.1939
vt -1.3181 2.1939
vt -1.9766 -0.9088
vt -1.3181 2.1939
vt -2.5430 0.0723
vt -1.9766 -0.9088
vt -2.5430 0.0723
vt -1.3181 2.1939
vt -0.1852 2.1939
vt -12.4687 -0.9088
vt -11.9023 0.0723
vt -13.1272 2.1939
vt -14.2600 2.1939
vt -14.2600 2.1939
vt -12.4687 -0.9088
vt -11.9023 0.0723
vt -13.1272 2.1939
vt -1.9766 -0.9088
vt -1.9766 -0.9088
vt -0.1852 2.1939
vt -0.1852 2.1939
vt -1.3181 2.1939
vt 4.5392 0.8854
vt -0.4890 0.5262
vt -0.4890 -0.5262
vt -2.5430 0.0723
vt -2.5430 0.0723
vt -0.1852 2.1939
vt -0.1852 2.1939
vt -1.3181 2.1939
vt -1.3181 2.1939
vt -1.9766 -0.9088
vt -2.5430 0.0723
vt 4.5392 -0.8854
vt -12.4687 -0.9088
vt -14.2600 2.1939
vt -13.1272 2.1939
vt -12.4687 -0.9088
vt -11.9023 0.0723
vt -1.9766 -0.9088
vt -2.5430 0.0723
vt -1.9766 -0.9088
vt -2.5430 0.0723
vt -11.9023 0.0723
vt -11.9023 0.0723
vt -13.1272 2.1939
vt -14.2600 2.1939
vt -14.2600 2.1939
vt -13.1272 2.1939
vt -13.1272 2.1939
vt -13.1272 2.1939
vt -14.2600 2.1939
vt -14.2600 2.1939
vt -1.9766 -0.9088
vt -2.5430 0.0723
vt -12.4687 -0.9088
vt -11.9023 0.0723
vt -0.1852 2.1939
vt -12.4687 -0.9088
vt -12.4687 -0.9088
vt -11.9023 0.0723
vt -11.9023 0.0723
vt -13.1272 2.1939
vt -14.2600 2.1939
vt -1.3181 2.1939
vt -12.4687 -0.9088
vt -0.1852 2.1939
vt -0.1852 2.1939
vt -1.3181 2.1939
vt -1.3181 2.1939
vt -1.9766 -0.9088
vt -1.3181 2.1939
vt -2.5430 0.0723
vt -1.9766 -0.9088
vt -2.5430 0.0723
vt -1.3181 2.1939
vt -0.1852 2.1939
vt -12.4687 -0.9088
vt -11.9023 0.0723
vt -13.1272 2.1939
vt -14.2600 2.1939
vt -14.2600 2.1939
vt -12.4687 -0.9088
vt -11.9023 0.0723
vt -13.1272 2.1939
vt -1.9766 -0.9088
vt -1.9766 -0.9088
vt -0.1852 2.1939
vt -0.1852 2.1939
vt -1.3181 2.1939
vt -2.5430 0.0723
vt -2.5430 0.0723
vt -0.1852 2.1939
vt -0.1852 2.1939
vt -1.3181 2.1939
vt -1.3181 2.1939
vt -1.9766 -0.9088
vt -2.5430 0.0723
vt -12.4687 -0.9088
vt -14.2600 2.1939
vt -13.1272 2.1939
vt -12.4687 -0.9088
vt -11.9023 0.0723
vt -1.9766 -0.9088
vt -2.5430 0.0723
vt -1.9766 -0.9088
vt -2.5430 0.0723
vt -11.9023 0.0723
vt -11.9023 0.0723
vt -13.1272 2.1939
vt -14.2600 2.1939
vt -14.2600 2.1939
vt -13.1272 2.1939
vt -13.1272 2.1939
vt -13.1272 2.1939
vt -14.2600 2.1939
vt -14.2600 2.1939
vt -1.9766 -0.9088
vt -2.5430 0.0723
vt -12.4687 -0.9088
vt -11.9023 0.0723
vt -0.1852 2.1939
vt -12.4687 -0.9088
vt -12.4687 -0.9088
vt -11.9023 0.0723
vt -11.9023 0.0723
vt -13.1272 2.1939
vt -14.2600 2.1939
vt -1.3181 2.1939
vt -12.4687 -0.9088
vn -0.7902 0.0000 -0.6129
vn 0.0099 -1.0000 0.0000
vn 0.0022 -1.0000 -0.0000
vn 0.0016 -1.0000 0.0000
vn 0.0000 -1.0000 0.0000
vn 0.0099 1.0000 0.0000
vn 0.0022 1.0000 0.0000
vn 0.0016 1.0000 -0.0000
vn 0.0322 0.0000 -0.9995
vn 1.0000 0.0000 0.0000
vn 0.0322 0.0000 0.9995
vn 0.0000 1.0000 0.0000
vn -0.7902 0.0000 0.6129
vn 0.5956 0.5812 -0.5545
vn -0.5582 0.5737 -0.5994
vn -0.5582 0.5737 0.5994
vn 0.5956 0.5812 0.5545
vn -0.7206 -0.4160 0.5547
vn -0.7206 -0.4160 -0.5547
vn 0.3968 -0.6860 -0.6099
vn 0.3968 -0.6860 0.6099
vn -0.3962 -0.6100 0.6862
vn 0.3968 -0.6099 -0.6860
vn 0.2726 -0.8388 -0.4712
vn -0.3962 0.6100 0.6862
vn 0.2726 0.8388 -0.4712
vn 0.3968 0.6099 -0.6860
vn -0.7206 0.5547 -0.4160
vn 0.3962 0.6100 -0.6862
vn -0.2726 0.8388 0.4712
vn -0.3968 0.6099 0.6860
vn 0.7206 0.5547 0.4160
vn 0.7206 -0.5547 0.4160
vn 0.3962 -0.6100 -0.6862
vn -0.2726 -0.8388 0.4712
vn -0.3968 -0.6099 0.6860
vn -0.3962 -0.6100 -0.6862
vn -0.3962 0.6100 -0.6862
vn -0.7206 -0.5547 0.4160
vn -0.7206 0.5547 0.4160
vn 0.3968 -0.6099 0.6860
vn -0.5582 -0.5737 -0.5994
vn 0.5956 -0.5812 -0.5545
vn 0.5956 -0.5812 0.5545
vn 0.2726 0.8388 0.4712
vn 0.2726 -0.8388 0.4712
vn -0.7206 0.4160 -0.5547
vn -0.7206 0.4160 0.5547
vn 0.3968 0.6860 0.6099
vn 0.3968 0.6860 -0.6099
vn -0.3962 -0.6862 0.6100
vn 0.2726 0.4712 0.8388
vn -0.5582 -0.5737 0.5994
vn 0.3962 0.6862 -0.6100
vn 0.7206 -0.4160 -0.5547
vn -0.3968 -0.6860 -0.6099
vn 0.3962 0.6100 0.6862
vn -0.2726 0.8388 -0.4712
vn -0.3962 0.6862 -0.6100
vn 0.2726 -0.4712 -0.8388
vn -0.3962 0.6862 0.6100
vn 0.2726 -0.4712 0.8388
vn -0.2726 -0.4712 -0.8388
vn -0.2726 -0.4712 0.8388
vn -0.3968 -0.6860 0.6099
vn 0.7206 -0.4160 0.5547
vn 0.7206 0.5547 -0.4160
vn -0.3968 0.6099 -0.6860
vn -0.3968 0.6860 -0.6099
vn -0.3968 0.6860 0.6099
vn 0.7206 0.4160 0.5547
vn 0.7206 0.4160 -0.5547
vn -0.3962 -0.6862 -0.6100
vn 0.2726 0.4712 -0.8388
vn 0.3962 -0.6862 0.6100
vn -0.2726 0.4712 0.8388
vn -0.7206 -0.5547 -0.4160
vn 0.3962 0.6862 0.6100
vn 0.3962 -0.6862 -0.6100
vn -0.2726 0.4712 -0.8388
vn -0.2726 -0.8388 -0.4712
vn -0.3968 -0.6099 -0.6860
vn 0.7206 -0.5547 -0.4160
vn 0.3968 0.6099 0.6860
vn 0.3962 -0.6100 0.6862
vn -0.7206 -0.6864 0.0981
vn -0.7206 0.0981 -0.6864
vn 0.3968 -0.0538 -0.9163
vn 0.3968 -0.9163 -0.0538
vn -0.3962 -0.9166 0.0539
vn 0.3968 0.0538 -0.9163
vn 0.2726 -0.2599 -0.9264
vn -0.3962 -0.0539 0.9166
vn 0.2726 0.9264 0.2599
vn 0.3968 0.9163 -0.0538
vn -0.7206 0.6864 0.0981
vn 0.3962 0.9166 -0.0539
vn -0.2726 0.2599 0.9264
vn -0.3968 -0.0538 0.9163
vn 0.7206 0.0981 0.6864
vn 0.7206 -0.6864 -0.0981
vn 0.3962 0.0539 -0.9166
vn -0.2726 -0.9264 -0.2599
vn -0.3968 -0.9163 0.0538
vn -0.3962 0.0539 -0.9166
vn -0.3962 0.9166 -0.0539
vn -0.7206 -0.6864 -0.0981
vn -0.7206 0.0981 0.6864
vn 0.3968 -0.9163 0.0538
vn 0.2726 0.2599 0.9264
vn 0.2726 -0.9264 -0.2599
vn -0.7206 0.6864 -0.0981
vn -0.7206 -0.0981 0.6864
vn 0.3968 0.0538 0.9163
vn 0.3968 0.9163 0.0538
vn -0.3962 -0.9166 -0.0539
vn 0.2726 -0.2599 0.9264
vn 0.3962 0.9166 0.0539
vn 0.7206 0.0981 -0.6864
vn -0.3968 -0.0538 -0.9163
vn 0.3962 -0.0539 0.9166
vn -0.2726 0.9264 0.2599
vn -0.3962 0.9166 0.0539
vn 0.2726 0.2599 -0.9264
vn -0.3962 0.0539 0.9166
vn 0.2726 -0.9264 0.2599
vn -0.2726 0.2599 -0.9264
vn -0.2726 -0.9264 0.2599
vn -0.3968 -0.9163 -0.0538
vn 0.7206 -0.6864 0.0981
vn 0.7206 0.6864 0.0981
vn -0.3968 0.9163 -0.0538
vn -0.3968 0.9163 0.0538
vn -0.3968 0.0538 0.9163
vn 0.7206 -0.0981 0.6864
vn 0.7206 0.6864 -0.0981
vn -0.3962 -0.0539 -0.9166
vn 0.2726 0.9264 -0.2599
vn 0.3962 -0.9166 -0.0539
vn -0.2726 -0.2599 0.9264
vn -0.7206 -0.0981 -0.6864
vn 0.3962 0.0539 0.9166
vn 0.3962 -0.0539 -0.9166
vn -0.2726 0.9264 -0.2599
vn -0.2726 -0.2599 -0.9264
vn -0.3968 0.0538 -0.9163
vn 0.7206 -0.0981 -0.6864
vn 0.3968 -0.0538 0.9163
vn 0.3962 -0.9166 0.0539
usemtl greyDark
s 1
f 57/1/1 58/2/1 59/3/1
f 58/2/1 57/1/1 60/4/1
f 61/5/2 62/6/3 60/7/4
f 62/6/3 61/5/2 63/8/2
f 62/9/3 58/10/5 60/11/4
f 64/12/6 57/13/7 65/14/8
f 57/13/7 64/12/6 66/15/6
f 57/16/9 61/17/9 60/18/9
f 61/17/9 57/16/9 66/19/9
f 61/20/10 64/21/10 63/22/10
f 64/21/10 61/20/10 66/23/10
f 63/24/11 65/25/11 62/26/11
f 65/25/11 63/24/11 64/27/11
f 57/28/7 59/29/12 65/30/8
f 59/31/13 62/32/13 65/33/13
f 62/32/13 59/31/13 58/34/13
usemtl white.001
f 15/35/14 4/36/15 14/37/16
f 14/37/16 2/38/17 15/35/14
f 49/39/18 8/40/19 27/41/20 44/42/21
f 25/43/22 78/44/23 81/45/24
f 39/46/25 40/47/26 73/48/27
f 73/48/27 41/49/28 39/46/25
f 52/50/29 53/51/30 55/52/31
f 52/50/29 55/52/31 47/53/32
f 47/53/32 37/54/33 36/55/34 52/50/29
f 53/51/30 35/56/35 38/57/36 55/52/31
f 52/50/29 36/55/34 33/58/37 13/59/38
f 13/59/38 33/58/37 46/60/39 45/61/40
f 48/62/41 46/60/39 33/58/37
f 31/63/42 4/36/15 15/35/14 29/64/43
f 29/64/43 15/35/14 2/38/17 32/65/44
f 12/66/45 34/67/46 35/56/35 53/51/30
f 55/52/31 38/57/36 37/54/33 47/53/32
f 69/68/47 22/69/48 21/70/49 70/71/50
f 20/72/51 19/73/52 21/70/49
f 21/70/49 22/69/48 20/72/51
f 32/65/44 2/38/17 14/37/16 30/74/53
f 30/74/53 14/37/16 4/36/15 31/63/42
f 56/75/54 7/76/55 50/77/56
f 39/46/25 82/78/57 23/79/58 40/47/26
f 10/80/59 9/81/60 27/41/20
f 11/82/61 44/42/21 51/83/62
f 44/42/21 11/82/61 49/39/18
f 27/41/20 8/40/19 10/80/59
f 51/83/62 9/81/60 16/84/63 24/85/64
f 43/86/65 50/77/56 7/76/55 28/87/66
f 10/80/59 56/75/54 16/84/63 9/81/60
f 82/78/57 42/88/67 80/89/68
f 29/64/43 30/74/53 31/63/42
f 30/74/53 29/64/43 32/65/44
f 68/90/69 1/91/70 3/92/71 67/93/72
f 33/58/37 34/67/46 48/62/41
f 71/94/73 20/72/51 22/69/48 69/68/47
f 70/71/50 21/70/49 19/73/52 72/95/74
f 17/96/75 3/92/71 1/91/70
f 17/96/75 1/91/70 18/97/76
f 20/72/51 17/96/75 18/97/76 19/73/52
f 44/42/21 27/41/20 9/81/60 51/83/62
f 79/98/77 41/49/28 73/48/27 78/44/23
f 24/85/64 16/84/63 50/77/56 43/86/65
f 26/99/78 56/75/54 10/80/59 11/82/61
f 11/82/61 10/80/59 8/40/19 49/39/18
f 28/87/66 7/76/55 56/75/54 26/99/78
f 26/99/78 24/85/64 43/86/65
f 26/99/78 43/86/65 28/87/66
f 56/75/54 50/77/56 16/84/63
f 78/44/23 73/48/27 40/47/26 81/45/24
f 67/93/72 3/92/71 17/96/75 76/100/79
f 75/101/80 18/97/76 1/91/70 68/90/69
f 81/45/24 40/47/26 23/79/58 6/102/81
f 77/103/82 80/89/68 42/88/67 74/104/83
f 78/44/23 25/43/22 79/98/77
f 11/82/61 51/83/62 24/85/64 26/99/78
f 13/59/38 54/105/84 12/66/45
f 54/105/84 13/59/38 45/61/40
f 36/55/34 38/57/36 35/56/35
f 33/58/37 36/55/34 35/56/35 34/67/46
f 36/55/34 37/54/33 38/57/36
f 54/105/84 48/62/41 34/67/46 12/66/45
f 45/61/40 46/60/39 48/62/41 54/105/84
f 76/100/79 17/96/75 20/72/51 71/94/73
f 72/95/74 19/73/52 18/97/76 75/101/80
f 13/59/38 12/66/45 53/51/30 52/50/29
f 70/71/50 71/94/73 69/68/47
f 71/94/73 70/71/50 72/95/74
f 71/94/73 72/95/74 75/101/80 76/100/79
f 5/106/85 82/78/57 39/46/25 25/43/22
f 25/43/22 39/46/25 41/49/28 79/98/77
f 6/102/81 23/79/58 80/89/68 77/103/82
f 76/100/79 75/101/80 68/90/69
f 76/100/79 68/90/69 67/93/72
f 74/104/83 42/88/67 82/78/57 5/106/85
f 5/106/85 6/102/81 77/103/82
f 5/106/85 77/103/82 74/104/83
f 82/78/57 80/89/68 23/79/58
f 25/43/22 81/45/24 6/102/81 5/106/85
f 123/107/86 88/108/87 105/109/88 118/110/89
f 103/111/90 142/112/91 145/113/92
f 113/114/93 114/115/94 137/116/95
f 137/116/95 115/117/96 113/114/93
f 126/118/97 127/119/98 129/120/99
f 126/118/97 129/120/99 121/121/100
f 121/121/100 111/122/101 110/123/102 126/118/97
f 127/119/98 109/124/103 112/125/104 129/120/99
f 126/118/97 110/123/102 107/126/105 93/127/106
f 93/127/106 107/126/105 120/128/107 119/129/108
f 122/130/109 120/128/107 107/126/105
f 92/131/110 108/132/111 109/124/103 127/119/98
f 129/120/99 112/125/104 111/122/101 121/121/100
f 133/133/112 100/134/113 99/135/114 134/136/115
f 98/137/116 97/138/117 99/135/114
f 99/135/114 100/134/113 98/137/116
f 130/139/118 87/140/119 124/141/120
f 113/114/93 146/142/121 101/143/122 114/115/94
f 90/144/123 89/145/124 105/109/88
f 91/146/125 118/110/89 125/147/126
f 118/110/89 91/146/125 123/107/86
f 105/109/88 88/108/87 90/144/123
f 125/147/126 89/145/124 94/148/127 102/149/128
f 117/150/129 124/141/120 87/140/119 106/151/130
f 90/144/123 130/139/118 94/148/127 89/145/124
f 146/142/121 116/152/131 144/153/132
f 132/154/133 83/155/134 84/156/135 131/157/136
f 107/126/105 108/132/111 122/130/109
f 135/158/137 98/137/116 100/134/113 133/133/112
f 134/136/115 99/135/114 97/138/117 136/159/138
f 95/160/139 84/156/135 83/155/134
f 95/160/139 83/155/134 96/161/140
f 98/137/116 95/160/139 96/161/140 97/138/117
f 118/110/89 105/109/88 89/145/124 125/147/126
f 143/162/141 115/117/96 137/116/95 142/112/91
f 102/149/128 94/148/127 124/141/120 117/150/129
f 104/163/142 130/139/118 90/144/123 91/146/125
f 91/146/125 90/144/123 88/108/87 123/107/86
f 106/151/130 87/140/119 130/139/118 104/163/142
f 104/163/142 102/149/128 117/150/129
f 104/163/142 117/150/129 106/151/130
f 130/139/118 124/141/120 94/148/127
f 142/112/91 137/116/95 114/115/94 145/113/92
f 131/157/136 84/156/135 95/160/139 140/164/143
f 139/165/144 96/161/140 83/155/134 132/154/133
f 145/113/92 114/115/94 101/143/122 86/166/145
f 141/167/146 144/153/132 116/152/131 138/168/147
f 142/112/91 103/111/90 143/162/141
f 91/146/125 125/147/126 102/149/128 104/163/142
f 93/127/106 128/169/148 92/131/110
f 128/169/148 93/127/106 119/129/108
f 110/123/102 112/125/104 109/124/103
f 107/126/105 110/123/102 109/124/103 108/132/111
f 110/123/102 111/122/101 112/125/104
f 128/169/148 122/130/109 108/132/111 92/131/110
f 119/129/108 120/128/107 122/130/109 128/169/148
f 140/164/143 95/160/139 98/137/116 135/158/137
f 136/159/138 97/138/117 96/161/140 139/165/144
f 93/127/106 92/131/110 127/119/98 126/118/97
f 134/136/115 135/158/137 133/133/112
f 135/158/137 134/136/115 136/159/138
f 135/158/137 136/159/138 139/165/144 140/164/143
f 85/170/149 146/142/121 113/114/93 103/111/90
f 103/111/90 113/114/93 115/117/96 143/162/141
f 86/166/145 101/143/122 144/153/132 141/167/146
f 140/164/143 139/165/144 132/154/133
f 140/164/143 132/154/133 131/157/136
f 138/168/147 116/152/131 146/142/121 85/170/149
f 85/170/149 86/166/145 141/167/146
f 85/170/149 141/167/146 138/168/147
f 146/142/121 144/153/132 101/143/122
f 103/111/90 145/113/92 86/166/145 85/170/149
