# Blender v2.78 (sub 0) OBJ File: ''
# www.blender.org
mtllib flesh_visual.mtl
o avocadoHalf.001
v 0.021048 0.025536 0.011603
v 0.029489 0.008132 -0.016476
v 0.029489 0.008132 0.016476
v 0.021048 0.025536 -0.011603
v 0.000951 -0.018591 0.032953
v 0.021048 -0.035996 0.011603
v 0.000951 -0.035996 0.023206
v 0.029489 -0.018591 0.016476
v 0.000951 0.008132 -0.032953
v 0.000951 0.025536 -0.023206
v 0.000951 0.025536 0.023206
v 0.000951 0.008132 0.032953
v 0.000951 -0.035996 -0.023206
v 0.021048 -0.035996 -0.011603
v 0.000951 -0.018591 -0.032953
v 0.029489 -0.018591 -0.016476
v 0.000951 0.105336 0.031722
v 0.000951 -0.040030 0.068816
v 0.000951 0.021825 0.068816
v 0.000951 -0.072602 0.050576
v 0.000951 0.105336 -0.031722
v 0.000951 0.021825 -0.068816
v 0.000951 -0.072602 -0.050576
v 0.000951 -0.040030 -0.068816
v 0.038221 -0.013413 -0.026865
v 0.038221 -0.026129 -0.019744
v 0.038221 0.010734 -0.026865
v 0.038221 0.043336 -0.012384
v 0.038221 -0.026129 0.019744
v 0.038221 0.010734 0.026865
v 0.038221 -0.013413 0.026865
v 0.038221 0.043336 0.012384
vt 0.0000 0.0000
vt 0.0000 0.0000
vt 0.0000 0.0000
vt 0.0000 0.0000
vt 0.0000 0.0000
vt 0.0000 0.0000
vt -3.7428 1.3247
vt -1.7173 4.0337
vt 0.0000 0.0000
vt 0.0000 0.0000
vt 0.0000 0.0000
vt 0.0000 0.0000
vt 0.0000 0.0000
vt 0.0000 0.0000
vt 0.0000 0.0000
vt 0.0000 0.0000
vt -1.2193 5.3217
vt 0.8587 7.0776
vt -1.2193 5.6461
vt 1.2193 5.6461
vt -0.8587 7.0776
vt 1.2193 5.7099
vt -0.8587 4.2784
vt 0.8587 4.2784
vt -1.2193 5.7099
vt 0.8587 7.0776
vt -1.2193 5.6461
vt 1.2193 5.6461
vt -0.8587 7.0776
vt 0.8587 7.0776
vt -1.2193 5.6461
vt 1.2193 5.6461
vt -0.8587 7.0776
vt 1.4873 -0.8587
vt 0.0000 1.7173
vt 0.0000 -1.7173
vt 1.4873 0.8587
vt 1.2193 7.2993
vt -1.2193 5.3217
vt 1.2193 5.3217
vt -1.2193 7.2993
vt 1.2193 7.2993
vt 1.2193 5.3217
vt -1.2193 7.2993
vt -1.2193 5.7099
vt 0.8587 4.2784
vt 1.2193 5.7099
vt -0.8587 4.2784
vt 1.2193 5.7099
vt -0.8587 4.2784
vt 0.8587 4.2784
vt -1.2193 5.7099
vt -1.2193 7.2993
vt 1.2193 5.3217
vt 1.2193 7.2993
vt -1.2193 5.3217
vt 3.7428 1.3247
vt -3.7428 1.3247
vt 3.7428 1.3247
vt -0.0000 -1.7173
vt -0.0000 1.7173
vt -2.3476 14.4928
vt 0.0000 0.0000
vt 1.7173 4.0337
vt -1.4873 0.8587
vt -1.4873 -0.8587
vt 2.3476 14.4928
vt 2.3476 14.4928
vt -2.3476 14.4928
vt -5.0927 3.7352
vt -5.0927 8.3127
vt -5.0927 8.3127
vt 5.0927 3.7352
vt 5.0927 8.3127
vn 0.7476 0.0000 -0.6642
vn 0.7995 -0.2935 -0.5241
vn -1.0000 0.0000 0.0000
vn 0.7476 0.0000 0.6642
vn 0.7995 -0.2935 0.5241
vn 0.7545 0.2664 0.5998
vn -0.8998 -0.4364 0.0000
vn -0.4499 0.4364 -0.7792
vn -0.4499 -0.4364 0.7792
vn -0.4499 -0.4364 -0.7792
vn 0.0000 1.0000 0.0000
vn -0.5000 0.0000 -0.8660
vn -0.5000 0.0000 0.8660
vn -0.8998 0.4364 0.0000
vn -0.4499 0.4364 0.7792
vn -0.8737 -0.4864 0.0000
vn -0.1104 -0.9939 0.0000
vn 0.9444 -0.3289 0.0000
vn -0.7890 0.6144 0.0000
vn -0.2040 0.8501 -0.4855
vn -0.6886 0.2943 -0.6627
vn 0.0000 -1.0000 0.0000
vn 0.9666 0.2563 0.0000
vn 0.9311 0.2736 -0.2413
vn 1.0000 0.0000 0.0000
vn 0.9636 0.1086 -0.2444
usemtl green
s off
f 22/1/1 27/2/1 25/3/1 24/4/1
f 24/4/2 25/3/2 26/5/2 23/6/2
f 23/7/3 13/8/3 24/4/3
f 18/9/4 31/10/4 30/11/4 19/12/4
f 20/13/5 29/14/5 31/10/5 18/9/5
f 19/12/6 30/11/6 32/15/6 17/16/6
f 22/1/3 24/4/3 15/17/3
s 1
f 1/18/7 2/19/7 3/20/7
f 2/19/7 1/18/7 4/21/7
f 5/22/8 6/23/8 7/24/8
f 6/23/8 5/22/8 8/25/8
f 4/26/9 9/27/9 2/28/9
f 9/27/9 4/26/9 10/29/9
f 11/30/10 3/31/10 12/32/10
f 3/31/10 11/30/10 1/33/10
f 6/34/11 13/35/11 7/36/11
f 13/35/11 6/34/11 14/37/11
f 12/38/12 8/39/12 5/40/12
f 8/39/12 12/38/12 3/41/12
f 2/42/13 15/17/13 16/43/13
f 15/17/13 2/42/13 9/44/13
f 16/45/14 6/46/14 8/47/14
f 6/46/14 16/45/14 14/48/14
f 16/49/15 13/50/15 14/51/15
f 13/50/15 16/49/15 15/52/15
f 2/53/3 8/54/3 3/55/3
f 8/54/3 2/53/3 16/56/3
f 20/57/16 23/7/17 26/58/18 29/59/18
f 5/22/3 20/57/16 18/9/3
f 19/12/3 17/16/19 11/60/3
f 19/12/3 11/30/3 12/32/3
f 10/61/3 17/16/19 21/62/20
f 22/1/21 9/44/3 21/63/20
f 11/60/3 17/16/19 10/61/3
f 20/57/16 7/64/3 23/7/17
f 15/52/3 24/4/3 13/50/3
f 23/7/17 7/64/3 13/8/3
f 21/63/20 9/27/3 10/29/3
f 4/65/22 11/60/22 10/61/22
f 11/60/22 4/65/22 1/66/22
f 15/17/3 9/44/3 22/1/21
f 21/62/20 17/67/19 32/68/23 28/69/24
f 12/32/3 18/9/3 19/12/3
f 26/58/18 25/70/25 27/71/26
f 22/72/21 21/62/20 28/69/24 27/71/26
f 31/73/25 29/59/18 32/68/23
f 32/68/23 30/74/25 31/73/25
f 20/57/16 5/22/3 7/64/3
f 18/9/3 12/38/3 5/40/3
f 27/71/26 29/59/18 26/58/18
f 32/68/23 29/59/18 27/71/26
f 28/69/24 32/68/23 27/71/26
