# Blender v2.78 (sub 0) OBJ File: ''
# www.blender.org
mtllib peel_visual.mtl
o avocadoHalf.015
v 0.053838 -0.090503 0.030534
v 0.076051 -0.044701 -0.043359
v 0.076051 -0.044701 0.043359
v 0.053838 -0.090503 -0.030534
v 0.076051 0.025621 0.043359
v 0.000951 -0.044701 0.086717
v 0.000951 0.025621 0.086717
v 0.000951 -0.090503 0.061068
v 0.000951 -0.044701 -0.086717
v 0.000951 -0.090503 -0.061068
v 0.038501 0.123237 0.021679
v 0.000951 0.123237 0.043359
v 0.076051 0.025621 -0.043359
v 0.000951 0.123237 -0.043359
v 0.000951 0.025621 -0.086717
v 0.038501 0.123237 -0.021679
v 0.000951 -0.040030 -0.068816
v 0.000951 -0.072602 -0.050576
v 0.046714 -0.048152 -0.034356
v 0.046714 -0.026027 -0.046746
v 0.000951 -0.040030 0.068816
v 0.000951 0.021825 0.068816
v 0.046714 0.015990 0.046746
v 0.046714 -0.026027 0.046746
v 0.000951 -0.072602 0.050576
v 0.046714 -0.048152 0.034356
v 0.000951 0.021825 -0.068816
v 0.046714 0.015990 -0.046746
v 0.000951 0.105336 0.031722
v 0.046714 0.072718 0.021549
v 0.046714 0.072718 -0.021549
v 0.000951 0.105336 -0.031722
vt -2.2597 1.7079
vt 3.2087 5.4749
vt -3.2087 5.4749
vt 2.2597 1.7079
vt 3.2087 8.5936
vt -3.2087 3.3895
vt 3.2087 3.3895
vt -3.2087 8.5936
vt 3.2087 5.4749
vt -2.2597 1.7079
vt 2.2597 1.7079
vt -3.2087 5.4749
vt 3.2087 5.4749
vt -2.2597 1.7079
vt 2.2597 1.7079
vt -3.2087 5.4749
vt 1.6044 13.7653
vt -3.2087 6.0254
vt 3.2087 6.0254
vt -1.6044 13.7653
vt 3.2087 3.3895
vt -3.2087 8.5936
vt -3.2087 3.3895
vt 3.2087 8.5936
vt 1.6044 13.7653
vt -3.2087 6.0254
vt 3.2087 6.0254
vt -1.6044 13.7653
vt 2.7788 -1.6044
vt 0.0000 3.2087
vt 0.0000 -3.2087
vt 2.7788 1.6044
vt 3.2087 8.5936
vt -3.2087 3.3895
vt 3.2087 3.3895
vt -3.2087 8.5936
vt -3.9138 2.2597
vt 0.0000 -4.5193
vt 0.0000 4.5193
vt -3.9138 -2.2597
vt 3.2087 6.0254
vt -1.6044 13.7653
vt -3.2087 6.0254
vt 1.6044 13.7653
vt -5.0927 3.7352
vt -3.7428 1.3247
vt -3.7428 1.3247
vt -5.0927 3.7352
vt 5.0927 3.7352
vt 5.0927 8.3127
vt 5.0927 8.3127
vt 5.0927 3.7352
vt 3.7428 1.3247
vt 3.7428 1.3247
vt -5.0927 8.3127
vt -5.0927 8.3127
vt 2.3476 14.4928
vt 2.3476 14.4928
vt -2.3476 14.4928
vt -2.3476 14.4928
vt 3.2087 15.8176
vt -3.2087 15.8176
vt -6.4174 8.5936
vt 6.4174 3.3895
vt 4.5193 -0.0000
vt -4.5193 -0.0000
vt -6.4174 3.3895
vn 0.8998 -0.4364 0.0000
vn 0.5000 0.0000 0.8660
vn 0.4499 -0.4364 0.7792
vn 0.4499 -0.4364 -0.7792
vn 0.4667 0.3590 0.8083
vn 1.0000 0.0000 0.0000
vn 0.4667 0.3590 -0.8083
vn 0.0000 1.0000 0.0000
vn 0.5000 0.0000 -0.8660
vn 0.0000 -1.0000 0.0000
vn 0.9333 0.3590 0.0000
vn -0.8963 0.1214 0.4265
vn -0.9413 0.2898 0.1729
vn -0.8109 0.5087 0.2893
vn -0.8224 0.1284 0.5542
vn -0.8963 0.1214 -0.4265
vn -0.8816 -0.0992 -0.4615
vn -0.8193 -0.1172 -0.5612
vn -0.8224 0.1284 -0.5542
vn -0.9413 0.2898 -0.1729
vn -0.8109 0.5087 -0.2893
vn -0.8816 -0.0992 0.4615
vn -0.8193 -0.1172 0.5612
vn -0.9527 -0.2617 -0.1543
vn -0.8190 -0.4545 -0.3503
vn -0.8190 -0.4545 0.3503
vn -0.9527 -0.2617 0.1543
vn -1.0000 -0.0000 0.0000
usemtl brownDarkest.003
s 1
f 1/1/1 2/2/1 3/3/1
f 2/2/1 1/1/1 4/4/1
f 5/5/2 6/6/2 3/7/2
f 6/6/2 5/5/2 7/8/2
f 3/9/3 8/10/3 1/11/3
f 8/10/3 3/9/3 6/12/3
f 9/13/4 4/14/4 10/15/4
f 4/14/4 9/13/4 2/16/4
f 11/17/5 7/18/5 5/19/5
f 7/18/5 11/17/5 12/20/5
f 2/21/6 5/22/6 3/23/6
f 5/22/6 2/21/6 13/24/6
f 14/25/7 13/26/7 15/27/7
f 13/26/7 14/25/7 16/28/7
f 11/29/8 14/30/8 12/31/8
f 14/30/8 11/29/8 16/32/8
f 15/33/9 2/34/9 9/35/9
f 2/34/9 15/33/9 13/36/9
f 4/37/10 8/38/10 10/39/10
f 8/38/10 4/37/10 1/40/10
f 13/41/11 11/42/11 5/43/11
f 11/42/11 13/41/11 16/44/11
f 17/45/12 18/46/13 19/47/14 20/48/15
f 21/49/16 22/50/17 23/51/18 24/52/19
f 18/46/13 25/53/20 26/54/21 19/47/14
f 27/55/22 17/45/12 20/48/15 28/56/23
f 22/50/17 29/57/24 30/58/25 23/51/18
f 31/59/26 28/56/23 30/58/25
f 28/56/23 23/51/18 30/58/25
f 23/51/18 28/56/23 20/48/15
f 20/48/15 24/52/19 23/51/18
f 26/54/21 24/52/19 20/48/15
f 19/47/14 26/54/21 20/48/15
f 32/60/27 27/55/22 28/56/23 31/59/26
f 25/53/20 21/49/16 24/52/19 26/54/21
f 29/57/24 32/60/27 31/59/26 30/58/25
f 12/20/28 22/50/17 7/18/28
f 6/6/28 7/8/28 22/50/17
f 22/50/17 12/61/28 29/57/24
f 29/57/24 12/61/28 14/62/28
f 29/57/24 14/62/28 32/60/27
f 32/60/27 14/62/28 27/55/22
f 27/55/22 14/62/28 15/63/28
f 27/55/22 15/63/28 17/45/12
f 21/49/16 6/64/28 22/50/17
f 6/64/28 21/49/16 8/65/28
f 8/65/28 21/49/16 25/53/20
f 8/65/28 25/53/20 10/66/28
f 10/66/28 25/53/20 18/46/13
f 10/66/28 18/46/13 17/45/12
f 10/66/28 17/45/12 9/67/28
f 9/67/28 17/45/12 15/63/28
