# Blender v2.78 (sub 0) OBJ File: ''
# www.blender.org
mtllib peel_collision.mtl
o avocadoHalf.012_avocadoHalf.013
v 0.046714 -0.026027 -0.046746
v 0.046714 -0.048152 -0.034356
v 0.046714 0.015990 -0.046746
v 0.046714 0.072718 -0.021549
v 0.046714 -0.048152 0.034356
v 0.046714 0.015990 0.046746
v 0.046714 -0.026027 0.046746
v 0.046714 0.072718 0.021549
v 0.053838 -0.090503 0.030534
v 0.076051 -0.044701 -0.043359
v 0.076051 -0.044701 0.043359
v 0.053838 -0.090503 -0.030534
v 0.076051 0.025621 0.043359
v 0.038501 0.123237 0.021679
v 0.076051 0.025621 -0.043359
v 0.038501 0.123237 -0.021679
vt -2.2597 1.7079
vt 3.2087 5.4749
vt -3.2087 5.4749
vt 2.2597 1.7079
vt 3.2087 3.3895
vt -3.2087 8.5936
vt -3.2087 3.3895
vt 3.2087 8.5936
vt 3.2087 6.0254
vt -1.6044 13.7653
vt -3.2087 6.0254
vt 1.6044 13.7653
vt 0.0000 0.0000
vt 3.7428 1.3247
vt -3.7428 1.3247
vt 0.0000 0.0000
vt -5.0927 8.3127
vt -5.0927 3.7352
vt -2.3476 14.4928
vt 2.3476 14.4928
vt 5.0927 8.3127
vt 5.0927 3.7352
vn 0.8998 -0.4364 0.0000
vn 1.0000 0.0000 0.0000
vn 0.9333 0.3590 0.0000
vn 0.0722 0.1279 0.9892
vn -0.6502 0.0667 0.7568
vn -0.1176 -0.1891 0.9749
vn -0.8324 -0.2130 0.5116
vn -0.9331 -0.1848 0.3085
vn -0.9820 -0.1213 -0.1451
vn -0.9278 -0.2255 -0.2972
vn -0.9863 -0.1246 0.1083
vn -0.9863 -0.1246 -0.1083
vn -0.9832 -0.1069 -0.1481
vn 0.0722 0.1279 -0.9892
vn -0.6502 0.0667 -0.7568
vn 0.0135 -0.1578 -0.9874
vn -0.6568 -0.0669 -0.7511
vn -0.9832 -0.1069 0.1481
vn -0.6496 -0.1233 0.7502
usemtl brownDarkest.001
s 1
f 9/1/1 10/2/1 11/3/1
f 10/2/1 9/1/1 12/4/1
f 10/5/2 13/6/2 11/7/2
f 13/6/2 10/5/2 15/8/2
f 15/9/3 14/10/3 13/11/3
f 14/10/3 15/9/3 16/12/3
f 13/6/4 6/13/5 11/7/6
f 11/7/6 5/14/7 9/1/8
f 9/1/8 2/15/9 12/4/10
f 13/6/4 14/10/11 6/13/5
f 16/12/12 8/16/13 14/10/11
f 16/12/12 15/9/14 3/17/15
f 15/9/14 10/5/16 1/18/17
f 12/4/10 1/18/17 10/5/16
usemtl brownDark
f 4/19/18 3/17/15 8/20/13
f 3/17/15 6/21/5 8/20/13
f 6/21/5 3/17/15 1/18/17
f 1/18/17 7/22/19 6/21/5
f 5/14/7 7/22/19 1/18/17
f 2/15/9 5/14/7 1/18/17
f 6/13/5 7/22/19 11/7/6
f 5/14/7 11/7/6 7/22/19
f 5/14/7 2/15/9 9/1/8
f 8/16/13 6/21/5 14/10/11
f 8/16/13 16/12/12 4/19/18
f 3/17/15 4/19/18 16/12/12
f 3/17/15 15/9/14 1/18/17
f 2/15/9 1/18/17 12/4/10
o avocadoHalf.011_avocadoHalf.012
v 0.046714 0.072718 -0.021549
v 0.046714 0.072718 0.021549
v 0.000951 0.105336 0.031722
v 0.000951 0.105336 -0.031722
v 0.038501 0.123237 0.021679
v 0.000951 0.123237 0.043359
v 0.000951 0.123237 -0.043359
v 0.038501 0.123237 -0.021679
vt -2.3476 14.4928
vt -3.2087 15.8176
vt 2.7788 1.6044
vt 3.2087 15.8176
vt 2.3476 14.4928
vt 2.7788 -1.6044
vt 0.0000 3.2087
vt 0.0000 -3.2087
vt 2.3476 14.4928
vt -2.3476 14.4928
vn 0.4836 -0.7490 -0.4529
vn -0.4955 -0.2118 -0.8424
vn 0.8438 0.1358 -0.5193
vn -0.4955 -0.2118 0.8424
vn 0.4836 -0.7490 0.4529
vn 0.8438 0.1358 0.5193
vn 0.0000 1.0000 0.0000
vn -0.7577 -0.5145 0.4015
vn -0.7577 -0.5145 -0.4015
usemtl brownDarkest.001
s 1
f 17/23/20 23/24/21 24/25/22
f 22/26/23 18/27/24 21/28/25
f 21/28/26 23/29/26 22/30/26
f 23/29/26 21/28/26 24/25/26
usemtl brownDark
f 19/31/27 20/32/28 17/23/20 18/27/24
f 18/27/24 24/25/22 21/28/25
f 19/31/27 18/27/24 22/26/23
f 24/25/22 18/27/24 17/23/20
f 20/32/28 23/24/21 17/23/20
f 19/31/27 22/26/23 23/24/21
f 19/31/27 23/24/21 20/32/28
o avocadoHalf.010_avocadoHalf.011
v 0.046714 0.015990 -0.046746
v 0.046714 0.072718 -0.021549
v 0.000951 0.105336 -0.031722
v 0.000951 0.021825 -0.068816
v 0.076051 0.025621 -0.043359
v 0.000951 0.123237 -0.043359
v 0.000951 0.025621 -0.086717
v 0.038501 0.123237 -0.021679
vt -3.2087 6.0254
vt -1.6044 13.7653
vt -2.3476 14.4928
vt 1.6044 13.7653
vt 3.2087 6.0254
vt -5.0927 8.3127
vt -5.0927 8.3127
vt -6.4174 8.5936
vt -2.3476 14.4928
vt -3.2087 15.8176
vn 0.2202 -0.6158 0.7565
vn -0.1733 0.1233 0.9771
vn 0.1562 -0.1397 0.9778
vn 0.4667 0.3590 -0.8083
vn -0.6410 -0.7397 0.2049
vn 0.0171 -0.9803 0.1965
vn -0.7614 -0.6342 -0.1345
vn -0.7635 0.0483 0.6441
vn -0.8009 0.3264 0.5021
usemtl brownDarkest.001
s 1
f 29/33/29 32/34/30 26/35/31
f 30/36/32 29/33/32 31/37/32
f 29/33/32 30/36/32 32/34/32
f 28/38/33 29/33/29 25/39/34
f 28/38/33 31/40/35 29/33/29
usemtl brownDark
f 27/41/36 28/38/33 25/39/34 26/35/31
f 27/41/36 26/35/31 32/34/30
f 29/33/29 26/35/31 25/39/34
f 32/34/30 30/36/37 27/41/36
f 27/41/36 30/42/37 28/38/33
f 28/38/33 30/42/37 31/40/35
o avocadoHalf.009_avocadoHalf.010
v 0.046714 -0.026027 -0.046746
v 0.046714 0.015990 -0.046746
v 0.000951 0.021825 -0.068816
v 0.000951 -0.040030 -0.068816
v 0.076051 -0.044701 -0.043359
v 0.000951 -0.044701 -0.086717
v 0.076051 0.025621 -0.043359
v 0.000951 0.025621 -0.086717
vt 3.2087 8.5936
vt -3.2087 3.3895
vt 3.2087 3.3895
vt -3.2087 8.5936
vt -5.0927 8.3127
vt -5.0927 3.7352
vt -5.0927 3.7352
vt -5.0927 8.3127
vt -6.4174 8.5936
vt -6.4174 3.3895
vn 0.5000 0.0000 -0.8660
vn -0.7080 0.5119 0.4865
vn -0.7128 -0.4911 0.5007
vn -0.2905 -0.1272 0.9484
vn -0.2902 0.2691 0.9183
vn -0.1982 -0.2379 0.9508
vn -0.1636 0.2478 0.9549
vn -0.8165 0.5648 0.1198
vn -0.8124 -0.5642 0.1472
usemtl brownDarkest.001
s 1
f 40/43/38 37/44/38 38/45/38
f 37/44/38 40/43/38 39/46/38
usemtl brownDark
f 35/47/39 36/48/40 33/49/41 34/50/42
f 37/44/43 33/49/41 36/48/40
f 37/44/43 34/50/42 33/49/41
f 35/47/39 34/50/42 39/46/44
f 39/46/44 40/43/45 35/47/39
f 39/46/44 34/50/42 37/44/43
f 37/44/43 36/48/40 38/45/46
f 35/47/39 40/51/45 36/48/40
f 38/52/46 36/48/40 40/51/45
o avocadoHalf.008_avocadoHalf.009
v 0.046714 -0.026027 -0.046746
v 0.046714 -0.048152 -0.034356
v 0.000951 -0.072602 -0.050576
v 0.000951 -0.040030 -0.068816
v 0.076051 -0.044701 -0.043359
v 0.053838 -0.090503 -0.030534
v 0.000951 -0.044701 -0.086717
v 0.000951 -0.090503 -0.061068
vt 3.2087 5.4749
vt -2.2597 1.7079
vt 2.2597 1.7079
vt -3.2087 5.4749
vt -3.7428 1.3247
vt -6.4174 3.3895
vt -5.0927 3.7352
vt -5.0927 3.7352
vt -3.7428 1.3247
vt -4.5193 -0.0000
vn 0.4499 -0.4364 -0.7792
vn -0.1851 -0.0234 0.9824
vn 0.4591 0.5542 0.6944
vn -0.1178 0.2999 0.9467
vn -0.7722 0.5732 -0.2741
vn 0.1143 0.9784 0.1724
vn -0.7358 0.6547 0.1728
vn -0.7887 -0.0191 0.6145
vn -0.8102 -0.2964 0.5057
usemtl brownDarkest.001
s 1
f 47/53/47 46/54/47 48/55/47
f 46/54/47 47/53/47 45/56/47
f 46/54/48 45/56/49 42/57/50
f 45/56/49 47/58/51 41/59/52
usemtl brownDark
f 44/60/53 43/61/54 42/57/50 41/59/52
f 42/57/50 45/56/49 41/59/52
f 43/61/54 46/54/48 42/57/50
f 48/62/55 43/61/54 44/60/53
f 48/62/55 44/60/53 47/58/51
f 48/55/55 46/54/48 43/61/54
f 41/59/52 47/58/51 44/60/53
o avocadoHalf.007_avocadoHalf.008
v 0.046714 -0.048152 -0.034356
v 0.046714 -0.048152 0.034356
v 0.000951 -0.072602 0.050576
v 0.000951 -0.072602 -0.050576
v 0.053838 -0.090503 0.030534
v 0.053838 -0.090503 -0.030534
v 0.000951 -0.090503 0.061068
v 0.000951 -0.090503 -0.061068
vt 4.5193 -0.0000
vt -3.9138 -2.2597
vt 3.7428 1.3247
vt -3.7428 1.3247
vt -3.9138 2.2597
vt 0.0000 4.5193
vt 0.0000 -4.5193
vt -3.7428 1.3247
vt 3.7428 1.3247
vt -4.5193 -0.0000
vn -0.4676 0.2614 0.8444
vn 0.8841 0.1077 0.4547
vn 0.4340 0.7821 0.4471
vn 0.4340 0.7821 -0.4471
vn 0.8841 0.1077 -0.4547
vn -0.4676 0.2614 -0.8444
vn 0.0000 -1.0000 0.0000
vn -0.6744 0.5657 -0.4745
vn -0.6744 0.5657 0.4745
usemtl brownDarkest.001
s 1
f 55/63/56 53/64/57 50/65/58
f 49/66/59 50/65/58 54/67/60
f 56/68/61 49/66/59 54/67/60
f 54/67/62 55/69/62 56/68/62
f 55/69/62 54/67/62 53/64/62
f 50/65/58 53/64/57 54/67/60
usemtl brownDark
f 52/70/63 51/71/64 50/65/58 49/66/59
f 52/70/63 49/66/59 56/72/61
f 51/71/64 55/63/56 50/65/58
f 55/63/56 51/71/64 56/72/61
f 56/72/61 51/71/64 52/70/63
o avocadoHalf.006_avocadoHalf.007
v 0.046714 -0.048152 0.034356
v 0.046714 -0.026027 0.046746
v 0.000951 -0.040030 0.068816
v 0.000951 -0.072602 0.050576
v 0.053838 -0.090503 0.030534
v 0.076051 -0.044701 0.043359
v 0.000951 -0.044701 0.086717
v 0.000951 -0.090503 0.061068
vt 3.2087 5.4749
vt -2.2597 1.7079
vt 2.2597 1.7079
vt -3.2087 5.4749
vt 5.0927 3.7352
vt 6.4174 3.3895
vt 3.7428 1.3247
vt 3.7428 1.3247
vt 5.0927 3.7352
vt 4.5193 -0.0000
vn 0.4499 -0.4364 0.7792
vn 0.1143 0.9784 -0.1724
vn -0.7722 0.5732 0.2741
vn 0.4591 0.5542 -0.6944
vn -0.1851 -0.0234 -0.9824
vn -0.1178 0.2999 -0.9467
vn -0.7887 -0.0191 -0.6145
vn -0.7358 0.6547 -0.1728
vn -0.8102 -0.2964 -0.5057
usemtl brownDarkest.001
s 1
f 62/73/65 64/74/65 61/75/65
f 64/74/65 62/73/65 63/76/65
f 58/77/66 63/78/67 62/73/68
f 62/73/68 61/75/69 57/79/70
f 60/80/71 57/79/70 61/75/69
f 58/77/66 62/73/68 57/79/70
usemtl brownDark
f 60/80/71 59/81/72 58/77/66 57/79/70
f 58/77/66 59/81/72 63/78/67
f 63/78/67 59/81/72 64/82/73
f 64/82/73 59/81/72 60/80/71
f 60/80/71 61/75/69 64/74/73
o avocadoHalf.005_avocadoHalf.006
v 0.046714 0.015990 0.046746
v 0.046714 -0.026027 0.046746
v 0.000951 -0.040030 0.068816
v 0.000951 0.021825 0.068816
v 0.076051 -0.044701 0.043359
v 0.076051 0.025621 0.043359
v 0.000951 -0.044701 0.086717
v 0.000951 0.025621 0.086717
vt 3.2087 8.5936
vt -3.2087 3.3895
vt 3.2087 3.3895
vt -3.2087 8.5936
vt 6.4174 3.3895
vt 5.0927 3.7352
vt 5.0927 3.7352
vt 5.0927 8.3127
vt 5.0927 8.3127
vn 0.5000 0.0000 0.8660
vn -0.8124 -0.5642 -0.1472
vn -0.7128 -0.4911 -0.5007
vn -0.1982 -0.2379 -0.9508
vn -0.2905 -0.1272 -0.9484
vn -0.1904 0.2456 -0.9505
vn -0.6672 0.5614 -0.4896
vn -0.3102 0.3847 -0.8693
vn -0.8014 0.5718 -0.1755
usemtl brownDarkest.001
s 1
f 70/83/74 71/84/74 69/85/74
f 71/84/74 70/83/74 72/86/74
f 71/87/75 67/88/76 69/85/77
f 66/89/78 69/85/77 67/88/76
f 69/85/77 66/89/78 70/83/79
usemtl brownDark
f 67/88/76 68/90/80 65/91/81 66/89/78
f 72/86/82 70/83/79 65/91/81
f 70/83/79 66/89/78 65/91/81
f 72/86/82 65/91/81 68/90/80
f 71/84/75 72/86/82 68/90/80
f 67/88/76 71/87/75 68/90/80
o avocadoHalf.002
v 0.046714 0.015990 0.046746
v 0.046714 0.072718 0.021549
v 0.000951 0.105336 0.031722
v 0.000951 0.021825 0.068816
v 0.076051 0.025621 0.043359
v 0.000951 0.025621 0.086717
v 0.038501 0.123237 0.021679
v 0.000951 0.123237 0.043359
vt 1.6044 13.7653
vt -3.2087 6.0254
vt 3.2087 6.0254
vt -1.6044 13.7653
vt 2.3476 14.4928
vt 3.2087 15.8176
vt 2.3476 14.4928
vt 5.0927 8.3127
vt 0.0000 0.0000
vt 5.0927 8.3127
vn 0.4667 0.3590 0.8083
vn -0.7635 0.0483 -0.6441
vn -0.8009 0.3264 -0.5021
vn -0.1733 0.1233 -0.9771
vn 0.1562 -0.1397 -0.9778
vn 0.0170 -0.9446 -0.3277
vn 0.2451 -0.6054 -0.7573
vn -0.7758 -0.6032 0.1851
vn -0.6838 -0.6952 -0.2216
usemtl brownDarkest.001
s 1
f 79/92/83 78/93/83 77/94/83
f 78/93/83 79/92/83 80/95/83
f 75/96/84 80/97/85 79/92/86
f 75/96/84 79/92/86 74/98/87
f 73/99/88 74/98/87 77/94/89
f 79/92/86 77/94/89 74/98/87
f 77/94/89 78/93/90 73/100/88
usemtl brownDark
f 76/101/91 75/96/84 74/98/87 73/99/88
f 73/100/88 78/93/90 76/101/91
f 80/95/85 76/101/91 78/93/90
f 76/101/91 80/97/85 75/96/84
