# Blender v2.78 (sub 0) OBJ File: 'abe_simkitchen_default.blend'
# www.blender.org
mtllib floor.mtl
o Ground_Plane
v 16.890245 12.926915 0.000000
v 16.890245 -12.926918 0.000000
v -16.890245 -12.926915 0.000000
v -16.890238 12.926921 0.000000
v 16.890245 12.926915 -0.107450
v 16.890245 -12.926918 -0.107450
v -16.890245 -12.926915 -0.107450
v -16.890238 12.926921 -0.107450
vt -1.6803 -1.6803
vt -1.6803 2.6803
vt 2.6803 2.6803
vt 2.6803 -1.6803
vt -1.6803 -1.6803
vt 2.6803 -1.6803
vt 2.6803 2.6803
vt -1.6803 2.6803
vn 0.0000 0.0000 -1.0000
vn 0.0000 0.0000 1.0000
vn -0.0000 -1.0000 0.0000
vn 0.0000 1.0000 0.0000
vn 1.0000 -0.0000 0.0000
vn -1.0000 0.0000 0.0000
usemtl _defaultMat.001
s off
f 1/1/1 2/2/1 3/3/1 4/4/1
f 5/5/2 8/6/2 7/7/2 6/8/2
f 1/1/3 4/4/3 8/6/3 5/5/3
f 3/3/4 2/2/4 6/8/4 7/7/4
f 4/4/5 3/3/5 7/7/5 8/6/5
f 2/2/6 1/1/6 5/5/6 6/8/6
