# Blender 3.4.1
# www.blender.org
mtllib BlackOlive.mtl
o mangoGreen.001
v -0.005718 -0.014269 -0.000000
v -0.004034 -0.014269 0.004065
v -0.004034 -0.014269 -0.004065
v 0.000031 -0.014269 -0.005749
v 0.000031 -0.014269 0.005749
v 0.004096 -0.014269 -0.004065
v 0.004096 -0.014269 0.004065
v 0.005780 -0.014269 -0.000000
v 0.000031 -0.010163 -0.010145
v 0.007205 -0.010163 -0.007174
v -0.007143 -0.010163 -0.007174
v -0.007143 -0.010163 0.007174
v 0.000031 -0.010163 0.010145
v 0.007205 -0.010163 0.007174
v 0.010177 -0.010163 -0.000000
v -0.010114 -0.010163 -0.000000
v -0.008886 -0.005456 0.008917
v -0.012579 -0.005456 -0.000000
v -0.008083 0.001231 0.008115
v -0.011444 0.001231 -0.000000
v -0.008886 -0.005456 -0.008917
v 0.000031 -0.005456 -0.012610
v -0.008083 0.001231 -0.008115
v 0.000031 -0.005456 0.012610
v -0.010238 0.005905 -0.000000
v 0.007205 -0.010163 -0.007174
v 0.007205 -0.010163 0.007174
v 0.010177 -0.010163 -0.000000
v -0.008083 0.001231 0.008115
v 0.008949 -0.005456 0.008917
v 0.008146 0.001231 0.008115
v 0.012642 -0.005456 -0.000000
v 0.011507 0.001231 -0.000000
v 0.000031 -0.005456 -0.012610
v -0.008083 0.001231 -0.008115
v 0.000031 0.001231 -0.011476
v 0.000031 -0.005456 0.012610
v 0.000031 0.001231 0.011476
v 0.008949 -0.005456 -0.008917
v 0.008146 0.001231 -0.008115
v 0.000031 0.005905 -0.010269
v 0.007293 0.005905 -0.007261
v -0.007230 0.005905 -0.007261
v 0.010300 0.005905 -0.000000
v -0.010238 0.005905 -0.000000
v -0.007230 0.005905 0.007261
v 0.000031 0.005905 0.010269
v 0.007293 0.005905 0.007261
v -0.002479 0.014899 -0.000000
v -0.001744 0.014899 -0.001775
v -0.001744 0.014899 0.001775
v 0.000031 0.014899 0.002510
v 0.001806 0.014899 0.001775
v 0.000031 0.014899 -0.002510
v 0.001806 0.014899 -0.001775
v 0.002541 0.014899 -0.000000
v 0.005315 0.011983 0.005283
v 0.007503 0.011983 -0.000000
v 0.005315 0.011983 -0.005283
v -0.007440 0.011983 -0.000000
v -0.005252 0.011983 -0.005283
v 0.000031 0.011983 -0.007472
v -0.005252 0.011983 0.005283
v 0.000031 0.011983 0.007472
vn -0.0000 -1.0000 -0.0000
vn 0.2721 -0.7032 -0.6569
vn 0.2721 -0.7032 -0.6568
vn -0.2721 -0.7032 -0.6568
vn -0.2721 -0.7032 0.6568
vn 0.6568 -0.7032 0.2721
vn 0.6569 -0.7032 0.2721
vn -0.6569 -0.7032 0.2721
vn -0.6568 -0.7032 0.2721
vn 0.2721 -0.7032 0.6568
vn 0.6568 -0.7032 -0.2721
vn 0.6569 -0.7032 -0.2721
vn -0.6569 -0.7032 -0.2721
vn -0.6568 -0.7032 -0.2721
vn -0.9127 0.1549 0.3780
vn -0.3780 0.1549 -0.9127
vn -0.3780 0.1549 0.9127
vn -0.9127 0.1549 -0.3780
vn -0.8316 -0.4356 0.3444
vn -0.8316 -0.4356 0.3445
vn 0.3445 -0.4356 -0.8316
vn -0.8316 -0.4356 -0.3444
vn -0.3445 -0.4356 0.8316
vn -0.3444 -0.4356 0.8316
vn -0.3444 -0.4356 -0.8316
vn 0.3445 -0.4356 0.8316
vn -0.8987 0.2320 -0.3722
vn -0.8987 0.2320 0.3722
vn 0.9127 0.1549 0.3780
vn 0.9127 0.1549 -0.3780
vn 0.3780 0.1549 -0.9127
vn 0.3780 0.1549 0.9127
vn 0.8316 -0.4356 0.3444
vn 0.8316 -0.4356 0.3445
vn 0.3444 -0.4356 -0.8316
vn 0.8316 -0.4356 -0.3444
vn 0.3444 -0.4356 0.8316
vn 0.3722 0.2320 -0.8987
vn -0.3722 0.2320 -0.8987
vn 0.8987 0.2320 -0.3722
vn -0.3722 0.2320 0.8987
vn 0.3722 0.2320 0.8987
vn 0.8987 0.2320 0.3722
vn 0.8502 0.3913 0.3522
vn 0.8502 0.3913 -0.3522
vn -0.8502 0.3913 -0.3522
vn -0.3522 0.3913 -0.8502
vn 0.3522 0.3913 -0.8502
vn -0.8502 0.3913 0.3522
vn 0.3522 0.3913 0.8502
vn -0.3522 0.3913 0.8502
vn -0.4959 0.8437 -0.2054
vn -0.4960 0.8437 -0.2054
vn 0.4960 0.8437 0.2054
vn 0.4959 0.8437 0.2054
vn 0.2054 0.8437 0.4960
vn 0.2054 0.8437 0.4959
vn 0.2054 0.8437 -0.4959
vn 0.2054 0.8437 -0.4960
vn 0.4959 0.8437 -0.2054
vn 0.4960 0.8437 -0.2054
vn -0.2054 0.8437 -0.4960
vn -0.2054 0.8437 -0.4959
vn -0.2054 0.8437 0.4959
vn -0.2054 0.8437 0.4960
vn -0.4960 0.8437 0.2054
vn -0.4959 0.8437 0.2054
vn -0.0000 1.0000 -0.0000
vt 1.761575 0.000000
vt -0.674125 1.144478
vt 0.674125 1.144478
vt 1.245621 -1.245621
vt -0.674125 1.144478
vt 0.674125 1.144478
vt 1.245621 1.245621
vt 0.674125 1.144478
vt -0.674125 1.144478
vt -0.000000 1.761575
vt 0.674125 1.144478
vt -0.674125 1.144478
vt -0.000000 -1.761575
vt 0.674125 1.144478
vt -0.674125 1.144478
vt -1.245621 1.245621
vt -0.674125 1.144478
vt 0.674125 1.144478
vt -1.245621 -1.245621
vt -0.674125 1.144478
vt 0.674125 1.144478
vt -1.761575 0.000000
vt 0.674125 1.144478
vt -0.674125 1.144478
vt 1.189633 2.914261
vt -1.189633 2.914261
vt 1.189633 2.383674
vt -1.189633 2.383674
vt -1.189633 2.914261
vt 1.189633 2.914261
vt -1.189633 2.383674
vt 1.189633 2.914261
vt -1.189633 2.914261
vt -1.189633 2.383674
vt 1.189633 2.383674
vt -1.189633 2.914261
vt 1.189633 2.914261
vt 1.189633 2.383674
vt -1.189633 2.383674
vt 1.189633 2.914261
vt -1.189633 2.914261
vt 1.189633 2.383674
vt -1.189633 2.914261
vt 1.189633 2.914261
vt 1.189633 2.914261
vt -1.189633 2.914261
vt -1.189633 2.914261
vt 1.189633 2.914261
vt -1.189633 2.383674
vt 1.189633 2.383674
vt 1.478714 2.114796
vt 1.478714 3.985837
vt -1.478714 3.985837
vt -1.478714 2.114796
vt 1.478714 2.114796
vt -1.478714 3.985837
vt 1.478714 3.985837
vt 1.345630 4.188775
vt 1.345630 1.195508
vt -1.345630 4.188775
vt 1.345630 4.188775
vt 1.345630 1.195508
vt -1.345630 1.195508
vt 1.478714 2.114796
vt -1.478714 2.114796
vt -1.478714 3.985837
vt 1.478714 3.985837
vt -1.478714 2.114796
vt 1.478714 3.985837
vt -1.478714 3.985837
vt 1.345630 4.188775
vt -1.345630 4.188775
vt -1.345630 1.195508
vt 1.478714 3.985837
vt 0.779927 3.174611
vt -0.779927 3.174611
vt -1.189633 2.383674
vt 1.189633 2.383674
vt -1.189633 2.383674
vt 1.189633 2.383674
vt -1.189633 2.383674
vt 1.345630 4.188775
vt -1.345630 1.195508
vt 1.345630 1.195508
vt -1.478714 2.114796
vt -1.478714 3.985837
vt 1.478714 2.114796
vt -1.345630 4.188775
vt 1.345630 4.188775
vt 1.345630 1.195508
vt -1.345630 1.195508
vt 1.478714 2.114796
vt -1.478714 2.114796
vt 1.478714 3.985837
vt -1.478714 3.985837
vt 1.345630 4.188775
vt -1.345630 4.188775
vt -1.345630 1.195508
vt 1.345630 1.195508
vt -1.478714 2.114796
vt 1.478714 2.114796
vt 1.478714 3.985837
vt 1.345630 4.188775
vt 1.345630 1.195508
vt -1.345630 1.195508
vt -1.345630 4.188775
vt 1.345630 4.188775
vt 1.345630 1.195508
vt -1.345630 1.195508
vt 1.478714 3.985837
vt -1.478714 2.114796
vt -1.345630 4.188775
vt 1.345630 1.195508
vt -1.345630 1.195508
vt 1.478714 2.114796
vt -1.478714 2.114796
vt -1.478714 3.985837
vt 1.478714 3.985837
vt 1.345630 4.188775
vt -1.345630 4.188775
vt -1.345630 1.195508
vt 1.345630 1.195508
vt 0.779927 3.174611
vt -0.779927 3.174611
vt -0.779927 5.514337
vt 0.779927 5.514337
vt -0.779927 3.174611
vt 0.779927 3.174611
vt 0.779927 5.514337
vt -0.779927 5.514337
vt 0.779927 3.174611
vt -0.779927 3.174611
vt -0.779927 5.514337
vt 0.779927 5.514337
vt -0.779927 3.174611
vt 0.779927 3.174611
vt 0.779927 5.514337
vt -0.779927 5.514337
vt 0.779927 3.174611
vt -0.779927 3.174611
vt 0.779927 5.514337
vt -0.779927 5.514337
vt -0.779927 3.174611
vt 0.779927 3.174611
vt 0.779927 5.514337
vt -0.779927 5.514337
vt 0.779927 3.174611
vt -0.779927 3.174611
vt -0.779927 5.514337
vt 0.779927 5.514337
vt 0.779927 3.174611
vt -0.779927 3.174611
vt -0.779927 5.514337
vt 0.779927 5.514337
vt 0.294303 6.634511
vt -0.294303 6.634511
vt 0.294303 6.634511
vt -0.294303 6.634511
vt 0.294303 6.634511
vt -0.294303 6.634511
vt 0.294303 6.634511
vt -0.294303 6.634511
vt 0.294303 6.634511
vt -0.294303 6.634511
vt -0.294303 6.634511
vt 0.294303 6.634511
vt 0.294303 6.634511
vt -0.294303 6.634511
vt 0.294303 6.634511
vt -0.294303 6.634511
vt -0.580674 7.437668
vt 0.580674 7.437668
vt -0.580674 5.504609
vt 0.580674 5.504609
vt 0.580674 7.437668
vt -0.580674 7.437668
vt 0.580674 5.504609
vt -0.580674 5.504609
vt 0.580674 7.437668
vt -0.580674 7.437668
vt -0.580674 5.504609
vt 0.580674 5.504609
vt 0.580674 7.437668
vt -0.580674 7.437668
vt 0.580674 5.504609
vt -0.580674 5.504609
vt -0.580674 7.437668
vt 0.580674 7.437668
vt -0.580674 5.504609
vt 0.580674 5.504609
vt -0.580674 7.437668
vt 0.580674 7.437668
vt 0.580674 5.504609
vt -0.580674 5.504609
vt 0.580674 7.437668
vt -0.580674 7.437668
vt -0.580674 5.504609
vt 0.580674 5.504609
vt -0.580674 7.437668
vt 0.580674 7.437668
vt -0.580674 5.504609
vt 0.580674 5.504609
s 0
usemtl green.004
f 3/7/1 2/4/1 1/1/1
f 2/4/1 3/7/1 4/10/1
f 2/4/1 4/10/1 5/13/1
f 5/13/1 4/10/1 6/16/1
f 5/13/1 6/16/1 7/19/1
f 7/19/1 6/16/1 8/22/1
f 10/29/2 4/11/2 9/25/2
f 4/11/3 10/29/3 6/17/3
f 9/26/4 3/8/4 11/32/4
f 3/8/4 9/26/4 4/12/4
f 2/5/5 13/40/5 12/36/5
f 13/40/5 2/5/5 5/14/5
f 8/23/6 14/43/6 7/20/6
f 14/43/7 8/23/7 15/45/7
f 1/2/8 12/37/8 16/47/8
f 12/37/9 1/2/9 2/6/9
f 7/21/10 13/41/10 5/15/10
f 13/41/10 7/21/10 14/44/10
f 10/30/11 8/24/11 6/18/11
f 8/24/12 10/30/12 15/46/12
f 11/33/13 1/3/13 16/48/13
f 1/3/14 11/33/14 3/9/14
f 19/58/15 18/54/15 17/51/15
f 18/54/15 19/58/15 20/60/15
f 23/71/16 22/68/16 21/64/16
f 19/58/17 17/53/17 24/74/17
f 23/72/18 18/55/18 20/61/18
f 18/55/18 23/72/18 21/65/18
f 18/56/19 12/38/19 17/52/19
f 12/38/20 18/56/20 16/49/20
f 22/69/21 10/31/21 9/27/21
f 21/66/22 16/50/22 18/57/22
f 16/50/22 21/66/22 11/34/22
f 24/74/23 12/39/23 13/42/23
f 12/39/24 24/74/24 17/53/24
f 21/67/25 9/28/25 11/35/25
f 9/28/25 21/67/25 22/70/25
f 14/44/26 24/74/26 13/42/26
f 25/75/27 23/73/27 20/62/27
f 19/59/28 25/76/28 20/63/28
f 32/92/29 31/88/29 30/85/29
f 31/88/29 32/92/29 33/96/29
f 34/100/16 35/103/16 36/106/16
f 37/110/17 38/113/17 29/82/17
f 39/115/30 33/97/30 32/93/30
f 33/97/30 39/115/30 40/119/30
f 36/107/31 39/116/31 34/101/31
f 39/116/31 36/107/31 40/120/31
f 31/89/32 37/111/32 30/87/32
f 37/111/32 31/89/32 38/112/32
f 27/79/33 32/94/33 30/86/33
f 32/94/34 27/79/34 28/80/34
f 26/77/35 34/102/35 39/117/35
f 28/81/36 39/118/36 32/95/36
f 39/118/36 28/81/36 26/78/36
f 37/111/37 27/79/37 30/87/37
f 42/127/38 36/108/38 41/123/38
f 36/108/38 42/127/38 40/121/38
f 43/131/39 36/109/39 35/104/39
f 36/109/39 43/131/39 41/124/39
f 44/135/40 40/122/40 42/128/40
f 40/122/40 44/135/40 33/98/40
f 35/105/27 45/139/27 43/132/27
f 38/113/41 46/143/41 29/83/41
f 46/143/41 38/113/41 47/147/41
f 38/114/42 48/151/42 47/148/42
f 48/151/42 38/114/42 31/90/42
f 45/140/28 29/84/28 46/144/28
f 31/91/43 44/136/43 48/152/43
f 44/136/43 31/91/43 33/99/43
f 44/137/44 57/171/44 48/153/44
f 57/171/44 44/137/44 58/175/44
f 42/129/45 58/176/45 44/138/45
f 58/176/45 42/129/45 59/179/45
f 61/187/46 45/141/46 60/183/46
f 45/141/46 61/187/46 43/133/46
f 61/188/47 41/125/47 43/134/47
f 41/125/47 61/188/47 62/191/47
f 62/192/48 42/130/48 41/126/48
f 42/130/48 62/192/48 59/180/48
f 63/195/49 45/142/49 46/145/49
f 45/142/49 63/195/49 60/184/49
f 57/172/50 47/149/50 48/154/50
f 47/149/50 57/172/50 64/199/50
f 64/200/51 46/146/51 47/150/51
f 46/146/51 64/200/51 63/196/51
f 50/158/52 60/185/52 49/155/52
f 60/185/53 50/158/53 61/189/53
f 58/177/54 53/164/54 57/173/54
f 53/164/55 58/177/55 56/169/55
f 53/163/56 64/201/56 57/174/56
f 64/201/57 53/163/57 52/162/57
f 54/166/58 59/181/58 62/193/58
f 59/181/59 54/166/59 55/168/59
f 58/178/60 55/167/60 56/170/60
f 55/167/61 58/178/61 59/182/61
f 50/157/62 62/194/62 61/190/62
f 62/194/63 50/157/63 54/165/63
f 52/161/64 63/197/64 64/202/64
f 63/197/65 52/161/65 51/160/65
f 51/159/66 60/186/66 63/198/66
f 60/186/67 51/159/67 49/156/67
f 54/166/68 50/158/68 49/156/68 51/160/68 52/162/68 53/164/68 56/170/68 55/168/68
