# Blender v2.78 (sub 0) OBJ File: ''
# www.blender.org
mtllib butter.mtl
o Cube.001_Cube.004
v -0.058068 0.000000 0.000000
v 0.000000 0.024087 0.000000
v 0.058068 0.000000 0.000000
v 0.000000 -0.024087 0.000000
v 0.000000 0.000000 -0.006498
v 0.000000 0.000000 0.006498
v -0.043551 0.000000 -0.004873
v -0.043551 -0.018065 0.000000
v -0.043551 0.000000 0.004873
v -0.043551 0.018065 0.000000
v 0.000000 0.018065 -0.004873
v 0.000000 0.018065 0.004873
v 0.043551 0.018065 0.000000
v 0.043551 0.000000 -0.004873
v 0.043551 0.000000 0.004873
v 0.043551 -0.018065 0.000000
v 0.000000 -0.018065 -0.004873
v 0.000000 -0.018065 0.004873
v -0.032260 -0.013382 -0.003610
v -0.032260 -0.013382 0.003610
v -0.032260 0.013382 -0.003610
v -0.032260 0.013382 0.003610
v 0.032260 -0.013382 -0.003610
v 0.032260 -0.013382 0.003610
v 0.032260 0.013382 -0.003610
v 0.032260 0.013382 0.003610
vn -0.2608 -0.2514 -0.9321
vn -0.2608 -0.2514 0.9321
vn -0.2608 0.2514 0.9321
vn -0.2608 0.2514 -0.9321
vn -0.0924 0.5568 -0.8255
vn -0.0924 0.5568 0.8255
vn 0.0924 0.5568 0.8255
vn 0.0924 0.5568 -0.8255
vn 0.2608 0.2514 -0.9321
vn 0.2608 0.2514 0.9321
vn 0.2608 -0.2514 0.9321
vn 0.2608 -0.2514 -0.9321
vn 0.0924 -0.5568 -0.8255
vn 0.0924 -0.5568 0.8255
vn -0.0924 -0.5568 0.8255
vn -0.0924 -0.5568 -0.8255
vn -0.0445 0.1072 -0.9932
vn 0.0445 0.1072 -0.9932
vn 0.0445 -0.1072 -0.9932
vn -0.0445 -0.1072 -0.9932
vn 0.0445 0.1072 0.9932
vn -0.0445 0.1072 0.9932
vn -0.0445 -0.1072 0.9932
vn 0.0445 -0.1072 0.9932
usemtl yellow
s off
f 1//1 7//1 19//1 8//1
f 1//2 8//2 20//2 9//2
f 1//3 9//3 22//3 10//3
f 1//4 10//4 21//4 7//4
f 2//5 11//5 21//5 10//5
f 2//6 10//6 22//6 12//6
f 2//7 12//7 26//7 13//7
f 2//8 13//8 25//8 11//8
f 3//9 14//9 25//9 13//9
f 3//10 13//10 26//10 15//10
f 3//11 15//11 24//11 16//11
f 3//12 16//12 23//12 14//12
f 4//13 17//13 23//13 16//13
f 4//14 16//14 24//14 18//14
f 4//15 18//15 20//15 8//15
f 4//16 8//16 19//16 17//16
f 5//17 7//17 21//17 11//17
f 5//18 11//18 25//18 14//18
f 5//19 14//19 23//19 17//19
f 5//20 17//20 19//20 7//20
f 6//21 15//21 26//21 12//21
f 6//22 12//22 22//22 9//22
f 6//23 9//23 20//23 18//23
f 6//24 18//24 24//24 15//24
