# Blender 3.4.1
# www.blender.org
mtllib goop.mtl
o Blob.002
v 0.084819 0.050267 0.022629
v 0.084819 0.005301 0.022629
v 0.084819 0.050267 0.045894
v 0.084819 0.005301 0.045894
v 0.039853 0.050267 0.022629
v 0.039853 0.005301 0.022629
v 0.039853 0.050267 0.045894
v 0.039853 0.005301 0.045894
v 0.114116 0.025093 0.045894
v 0.114116 0.025093 0.022629
v 0.117093 0.005301 0.022629
v 0.117093 0.005301 0.045894
v 0.009493 0.005301 0.045894
v 0.015834 0.031638 0.045894
v 0.015834 0.031638 0.022629
v 0.009493 0.005301 0.022629
v 0.084819 0.005301 0.066851
v 0.084819 0.034643 0.066851
v 0.039853 0.034643 0.066851
v 0.039853 0.005301 0.066851
v 0.109181 0.005301 0.066851
v 0.104414 0.019346 0.066851
v 0.017881 0.005301 0.066851
v 0.024386 0.023284 0.066851
vn -0.0000 -1.0000 -0.0000
vn -0.0000 0.8017 0.5977
vn -0.0000 -0.0000 -1.0000
vn -0.0000 1.0000 -0.0000
vn 0.9889 0.1487 -0.0000
vn 0.6517 0.7585 -0.0000
vn -0.5234 0.6892 0.5011
vn -0.9722 0.2341 -0.0000
vn 0.5610 0.6777 0.4754
vn -0.6128 0.7902 -0.0000
vn -0.0000 -0.0000 1.0000
vn 0.8922 0.2042 0.4029
vn -0.8779 0.2544 0.4056
vt 0.125000 0.750000
vt 0.375000 1.000000
vt 0.875000 0.750000
vt 0.625000 1.000000
vt 0.125000 0.500000
vt 0.875000 0.500000
vt 0.375000 0.750000
vt 0.625000 0.750000
vt 0.375000 0.500000
vt 0.625000 0.500000
vt 0.125000 0.500000
vt 0.375000 0.250000
vt 0.375000 0.000000
vt 0.125000 0.750000
vt 0.375000 1.000000
vt 0.875000 0.750000
vt 0.625000 0.000000
vt 0.625000 1.000000
vt 0.625000 0.250000
vt 0.875000 0.500000
vt 0.625000 0.500000
vt 0.375000 0.500000
vt 0.375000 0.750000
vt 0.625000 0.750000
vt 0.625000 0.250000
vt 0.875000 0.500000
vt 0.125000 0.500000
vt 0.375000 0.250000
vt 0.375000 0.500000
vt 0.625000 0.500000
vt 0.625000 0.250000
vt 0.875000 0.500000
vt 0.125000 0.500000
vt 0.375000 0.250000
vt 0.625000 0.500000
vt 0.375000 0.500000
s 0
usemtl Material.001
f 2/3/1 11/16/1 12/20/1 4/6/1
f 7/9/2 19/29/2 18/27/2 3/5/2
f 8/10/1 13/21/1 16/24/1 6/8/1
f 5/7/3 1/2/3 2/4/3 6/8/3
f 3/5/4 1/1/4 5/7/4 7/9/4
f 8/10/1 6/8/1 2/3/1 4/6/1
f 10/13/5 9/12/5 12/19/5 11/17/5
f 3/5/6 9/11/6 10/14/6 1/1/6
f 14/22/7 24/36/7 19/29/7 7/9/7
f 1/2/3 10/15/3 11/18/3 2/4/3
f 14/22/8 15/23/8 16/24/8 13/21/8
f 3/5/9 18/27/9 22/33/9 9/11/9
f 6/8/3 16/24/3 15/23/3 5/7/3
f 5/7/10 15/23/10 14/22/10 7/9/10
f 18/28/11 19/29/11 20/30/11 17/25/11
f 17/25/11 21/31/11 22/34/11 18/28/11
f 19/29/11 24/36/11 23/35/11 20/30/11
f 9/12/12 22/34/12 21/31/12 12/19/12
f 13/21/13 23/35/13 24/36/13 14/22/13
f 4/6/1 17/26/1 20/30/1 8/10/1
f 12/20/1 21/32/1 17/26/1 4/6/1
f 8/10/1 20/30/1 23/35/1 13/21/1
