# Blender 3.4.1
# www.blender.org
mtllib halfTomatoOutside.mtl
o tomato.001
v 0.033517 -0.033517 -0.083198
v 0.050275 -0.050275 -0.063764
v 0.047400 0.000000 -0.083198
v 0.071100 0.000000 -0.063764
v 0.033517 0.033517 -0.083198
v 0.050275 0.050275 -0.063764
v 0.000000 0.071100 -0.063764
v 0.000000 0.047400 -0.083198
v 0.000000 -0.071100 -0.063764
v 0.000000 -0.047400 -0.083198
v 0.000000 -0.084846 -0.024896
v 0.059995 -0.059995 -0.024896
v 0.000000 0.084846 -0.024896
v 0.084846 0.000000 -0.024896
v 0.059995 0.059995 -0.024896
v 0.050275 -0.050275 0.013972
v 0.000000 -0.071100 0.013972
v 0.000000 0.071100 0.013972
v 0.050275 0.050275 0.013972
v 0.071100 0.000000 0.013972
v 0.000000 0.047400 0.033406
v 0.000000 -0.047400 0.033406
v 0.033517 -0.033517 0.033406
v 0.033517 0.033517 0.033406
v 0.047400 0.000000 0.033406
vn 0.6133 -0.2540 -0.7479
vn 0.6133 0.2540 -0.7479
vn 0.2540 0.6133 -0.7479
vn -0.0000 -0.0000 -1.0000
vn 0.2540 -0.6133 -0.7479
vn 0.3638 -0.8782 -0.3106
vn 0.8782 -0.3638 -0.3106
vn 0.8782 0.3638 -0.3106
vn 0.3638 0.8782 -0.3106
vn 0.3638 -0.8782 0.3106
vn 0.3638 0.8782 0.3106
vn 0.8782 0.3638 0.3106
vn 0.2540 -0.6133 0.7479
vn 0.6133 0.2540 0.7479
vn 0.8782 -0.3638 0.3106
vn 0.6133 -0.2540 0.7479
vn 0.2540 0.6133 0.7479
vn -1.0000 -0.0000 -0.0000
vn -0.0000 -0.0000 1.0000
vt -0.714141 1.289451
vt -1.319561 -1.319561
vt 0.714141 1.289451
vt -1.071212 2.442068
vt 1.071212 2.442068
vt 1.071212 1.530482
vt -1.071212 1.530482
vt 0.714141 1.289451
vt -0.714141 1.289451
vt -1.866142 -0.000000
vt 1.071212 2.442068
vt -1.071212 2.442068
vt 1.071212 1.530482
vt -1.071212 1.530482
vt 0.714141 1.289451
vt -0.714141 1.289451
vt -1.319561 1.319561
vt 1.071212 2.442068
vt -1.071212 2.442068
vt 1.071212 1.530482
vt -1.071212 1.530482
vt 1.071212 1.530482
vt 1.071212 2.442068
vt 0.714141 1.289451
vt -0.000000 1.866142
vt -1.071212 1.530482
vt -1.071212 2.442068
vt -0.000000 -1.866142
vt -0.714141 1.289451
vt 0.000000 0.000000
vt -1.278313 3.140330
vt -1.278313 1.223356
vt 1.278313 3.140330
vt -1.278313 3.140330
vt 1.278313 1.223356
vt -1.278313 1.223356
vt 1.278313 3.140330
vt 1.278313 1.223356
vt 1.278313 3.140330
vt -1.278313 3.140330
vt -1.278313 1.223356
vt 1.278313 1.223356
vt 1.278313 3.140330
vt -1.278313 3.140330
vt -1.278313 1.223356
vt 1.278313 1.223356
vt 1.071212 2.833203
vt 1.071212 0.605286
vt -1.071212 2.833203
vt -1.071212 0.605286
vt -1.071212 2.833203
vt -1.071212 0.605286
vt 1.071212 2.833203
vt 1.071212 0.605286
vt -1.071212 2.833203
vt 1.071212 2.833203
vt 1.071212 0.605286
vt -1.071212 0.605286
vt -1.071212 2.833203
vt -1.071212 0.605286
vt 1.071212 2.833203
vt 1.071212 0.605286
vt 0.714141 1.757904
vt -0.714141 1.757904
vt 0.714141 1.757904
vt -0.714141 1.757904
vt 1.319561 -1.319561
vt 0.714141 1.757904
vt 1.319561 1.319561
vt -0.714141 1.757904
vt -0.714141 1.757904
vt 0.714141 1.757904
vt 1.866142 -0.000000
s 0
usemtl Material.001
f 3/8/1 2/4/1 1/1/1
f 2/4/1 3/8/1 4/11/1
f 6/18/2 3/9/2 5/15/2
f 3/9/2 6/18/2 4/12/2
f 6/19/3 8/24/3 7/23/3
f 8/24/3 6/19/3 5/16/3
f 10/28/4 8/25/4 5/17/4
f 10/28/4 5/17/4 1/2/4
f 1/2/4 5/17/4 3/10/4
f 10/29/5 2/5/5 9/27/5
f 2/5/5 10/29/5 1/3/5
f 12/33/6 9/26/6 2/6/6
f 9/26/6 12/33/6 11/31/6
f 2/7/7 14/39/7 12/34/7
f 14/39/7 2/7/7 4/13/7
f 6/20/8 14/40/8 4/14/8
f 14/40/8 6/20/8 15/43/8
f 13/37/9 6/21/9 7/22/9
f 6/21/9 13/37/9 15/44/9
f 16/47/10 11/32/10 12/35/10
f 11/32/10 16/47/10 17/51/10
f 18/53/11 15/45/11 13/38/11
f 15/45/11 18/53/11 19/55/11
f 14/41/12 19/56/12 20/59/12
f 19/56/12 14/41/12 15/46/12
f 16/48/13 22/64/13 17/52/13
f 22/64/13 16/48/13 23/65/13
f 25/71/14 19/57/14 24/68/14
f 19/57/14 25/71/14 20/60/14
f 14/42/15 16/49/15 12/36/15
f 16/49/15 14/42/15 20/61/15
f 16/50/16 25/72/16 23/66/16
f 25/72/16 16/50/16 20/62/16
f 21/63/17 19/58/17 18/54/17
f 19/58/17 21/63/17 24/70/17
f 13/38/18 7/23/18 18/53/18
f 8/25/18 18/54/18 7/23/18
f 21/63/18 18/54/18 8/25/18
f 9/27/18 11/32/18 17/52/18
f 22/64/18 9/27/18 17/52/18
f 10/30/18 9/27/18 22/64/18
f 21/63/18 8/25/18 10/30/18
f 24/69/19 23/67/19 25/73/19
f 21/63/18 10/30/18 22/64/18
f 24/70/19 21/63/19 23/67/19
f 23/67/19 21/63/19 22/64/19
