# Blender 3.4.1
# www.blender.org
mtllib tail.mtl
o tomato.002
v -0.004596 0.003986 0.007307
v 0.043145 -0.000244 0.011968
v 0.007484 -0.029422 -0.003560
v -0.008216 0.028934 -0.003560
v -0.000366 -0.043755 0.011968
v -0.008216 -0.029422 -0.003560
v 0.028812 0.007606 -0.003560
v 0.028812 -0.008094 -0.003560
v -0.000366 0.043267 0.011968
v 0.007484 0.028934 -0.003560
v 0.011484 0.011606 -0.009093
v -0.007300 -0.007178 -0.009093
v -0.043877 -0.000244 0.011968
v -0.029544 -0.008094 -0.003560
v -0.029544 0.007606 -0.003560
v 0.006568 0.006690 -0.009093
v -0.007300 0.006690 -0.009093
v 0.006568 -0.007178 -0.009093
v 0.003863 0.003986 0.007307
v 0.003863 -0.004474 0.007307
v -0.012216 0.011606 -0.009093
v 0.011484 -0.012094 -0.009093
v -0.012216 -0.012094 -0.009093
v -0.011367 -0.011488 -0.007072
v 0.012333 -0.011488 -0.007072
v 0.012333 0.012212 -0.007072
v -0.011367 0.012212 -0.007072
v -0.003747 -0.003868 0.009328
v -0.003747 0.004592 0.009328
v 0.004713 -0.003868 0.009328
v 0.004713 0.004592 0.009328
v 0.007417 -0.006572 -0.007072
v -0.006451 -0.006572 -0.007072
v -0.006451 0.007296 -0.007072
v -0.028695 0.008212 -0.001539
v -0.028695 -0.007488 -0.001539
v -0.043028 0.000362 0.013988
v -0.007367 0.029540 -0.001539
v 0.008333 0.029540 -0.001539
v 0.000483 0.043873 0.013988
v 0.029661 -0.007488 -0.001539
v 0.043994 0.000362 0.013988
v 0.029661 0.008212 -0.001539
v 0.008333 -0.028816 -0.001540
v -0.007367 -0.028816 -0.001540
v 0.000483 -0.043149 0.013988
vn -0.0000 -0.3042 -0.9526
vn -0.0000 -0.7348 -0.6783
vn -0.3042 -0.0000 0.9526
vn 0.3042 -0.0000 -0.9526
vn 0.7348 -0.0000 -0.6783
vn -0.0000 -0.3042 0.9526
vn -0.0000 0.7348 -0.6783
vn -0.7348 -0.0000 -0.6783
vn -0.3042 -0.0000 -0.9526
vn -0.0000 -0.0000 1.0000
vn 0.9867 -0.0000 0.1627
vn -0.0000 0.9867 0.1627
vn -0.0000 -0.9867 0.1627
vn -0.9867 -0.0000 0.1627
vn -0.9101 -0.0803 0.4065
vn 0.3762 -0.9191 0.1174
vn 0.8551 -0.4701 -0.2185
vn 0.9275 -0.0990 -0.3604
vn -0.0000 0.9579 -0.2872
vn 0.7880 -0.5965 -0.1522
vn 0.9078 -0.3024 -0.2907
vn -0.1117 -0.9380 0.3282
vn 0.3042 -0.0000 0.9526
vn 0.5027 0.7469 -0.4353
vn 0.7348 -0.0000 0.6783
vn -0.2727 0.9471 -0.1694
vn -0.0000 -0.7348 0.6783
vn -0.0000 0.3042 -0.9526
vn -0.1424 -0.9300 0.3388
vn -0.2205 0.9559 -0.1940
vn 0.7540 0.4708 -0.4580
vn -0.7348 -0.0000 0.6783
vn -0.8288 -0.3345 0.4485
vn 0.9218 -0.0000 -0.3877
vn -0.1502 0.9626 -0.2255
vn -0.9131 -0.0636 0.4028
vn -0.0000 0.7348 0.6783
vn -0.9274 0.1268 0.3518
vn -0.5138 0.8569 -0.0411
vn -0.0000 0.3041 0.9526
vt 0.166525 5.139516
vt -0.166525 5.139516
vt -0.166525 0.166525
vt -0.000000 5.144470
vt 0.309055 4.312514
vt 0.309055 2.556851
vt 0.309055 2.556851
vt 0.309055 4.312515
vt -0.000000 5.144470
vt -0.309055 2.556851
vt -0.309055 4.312514
vt 0.309055 2.556851
vt 0.309055 4.312515
vt -0.309055 4.312515
vt -0.309055 2.556851
vt -0.000000 5.144470
vt -0.309055 4.312515
vt -0.309055 2.556851
vt 0.466535 1.840718
vt 0.466535 0.466535
vt -0.466535 1.840718
vt -0.272992 -0.272992
vt 0.000000 0.000000
vt -0.000000 5.144470
vt 0.309055 2.556851
vt 0.309055 4.312515
vt -0.309055 2.556851
vt -0.309055 4.312515
vt 0.272992 0.272992
vt 0.272992 4.485127
vt -0.272992 4.485127
vt 0.000000 0.000000
vt -0.272992 0.272992
vt 0.272992 4.485127
vt 0.000000 0.000000
vt -0.272992 4.485127
vt 0.272992 -0.272992
vt -0.272992 4.485127
vt 0.000000 0.000000
vt 0.272992 4.485127
vt 0.166525 5.139516
vt -0.166525 5.139516
vt 0.166525 0.166525
vt -0.166525 5.139516
vt 0.166525 5.139516
vt 0.166525 -0.166525
vt -0.466535 0.466535
vt 0.466535 1.840718
vt -0.466535 1.840718
vt 0.466535 -0.466535
vt 0.466535 1.840718
vt -0.466535 1.840718
vt -0.466535 -0.466535
vt -0.466535 1.840718
vt 0.466535 1.840718
vt 0.466535 1.840718
vt -0.466535 1.840718
vt -0.466535 1.840718
vt 0.466535 1.840718
vt -0.466535 1.840718
vt -0.466535 1.840718
vt 0.466535 1.840718
vt -0.166525 -0.166525
vt -0.166525 5.139516
vt 0.166525 5.139516
vt -0.166525 5.139516
vt -0.166525 0.166525
vt 0.166525 5.139516
vt 0.166525 -0.166525
vt 0.166525 0.166525
vt 0.272992 4.485127
vt -0.272992 4.485127
vt 0.272992 4.485127
vt -0.272992 4.485127
vt -0.309055 2.556851
vt -0.309055 4.312515
vt 0.309055 2.556851
vt 0.309055 4.312515
vt -0.000000 5.144470
vt 0.309055 2.556851
vt 0.309055 4.312515
vt -0.309055 4.312515
vt -0.309055 2.556851
vt -0.000000 5.144470
vt -0.309055 4.312515
vt -0.309055 2.556851
vt -0.000000 5.144470
vt 0.309055 4.312515
vt 0.309055 2.556851
vt 0.309055 4.312514
vt 0.309055 2.556851
vt -0.309055 4.312514
vt -0.309055 2.556851
vt -0.000000 5.144470
s 0
usemtl green.002
f 6/10/1 22/51/1 3/6/1
f 22/51/1 6/10/1 23/54/1
f 5/9/2 6/11/2 3/5/2
f 8/15/3 7/12/3 22/52/3
f 11/19/3 22/52/3 7/12/3
f 7/12/4 22/52/4 11/19/4
f 7/13/5 2/4/5 8/14/5
f 10/18/6 4/7/6 11/21/6
f 21/48/6 11/21/6 4/7/6
f 9/16/7 10/17/7 4/8/7
f 15/28/8 14/26/8 13/24/8
f 14/25/9 21/49/9 23/55/9
f 21/49/9 14/25/9 15/27/9
f 11/20/10 16/29/10 22/50/10
f 11/20/10 17/33/10 16/29/10
f 21/47/10 17/33/10 11/20/10
f 17/33/10 21/47/10 12/22/10
f 18/37/10 22/50/10 16/29/10
f 12/22/10 22/50/10 18/37/10
f 12/22/10 23/53/10 22/50/10
f 23/53/10 12/22/10 21/47/10
f 20/44/11 16/30/11 19/41/11
f 16/30/11 20/44/11 18/38/11
f 16/31/12 1/1/12 19/42/12
f 1/1/12 16/31/12 17/34/12
f 17/35/10 12/23/10 18/39/10 16/32/10
f 30/69/10 29/67/10 28/63/10
f 29/67/10 30/69/10 31/70/10
f 30/68/13 33/72/13 32/71/13
f 33/72/13 30/68/13 28/64/13
f 28/65/14 34/74/14 33/73/14
f 34/74/14 28/65/14 29/66/14
f 45/93/15 24/57/15 23/54/15 6/10/15
f 42/87/16 41/85/16 8/14/16 2/4/16
f 34/74/17 29/66/17 1/2/17 17/36/17
f 38/80/18 27/62/18 21/48/18 4/7/18
f 29/67/19 31/70/19 19/43/19 1/3/19
f 44/90/20 46/94/20 5/9/20 3/5/20
f 25/59/21 44/91/21 3/6/21 22/51/21
f 24/56/22 36/77/22 14/25/22 23/55/22
f 35/75/23 36/77/23 27/61/23
f 24/56/23 27/61/23 36/77/23
f 40/84/24 39/82/24 10/17/24 9/16/24
f 37/79/25 36/78/25 35/76/25
f 35/75/26 27/61/26 21/49/26 15/27/26
f 38/81/27 39/82/27 40/84/27
f 38/80/28 26/60/28 27/62/28
f 26/60/28 38/80/28 39/83/28
f 36/78/29 37/79/29 13/24/29 14/26/29
f 30/68/30 32/71/30 18/40/30 20/45/30
f 43/88/31 42/87/31 2/4/31 7/13/31
f 41/85/32 42/87/32 43/88/32
f 26/60/33 39/83/33 10/18/33 11/21/33
f 25/58/4 43/89/4 41/86/4
f 31/70/34 30/69/34 20/46/34 19/43/34
f 25/58/35 41/86/35 8/15/35 22/52/35
f 46/94/36 45/92/36 6/11/36 5/9/36
f 44/90/37 45/92/37 46/94/37
f 38/81/38 40/84/38 9/16/38 4/8/38
f 37/79/39 35/76/39 15/28/39 13/24/39
f 24/57/40 45/93/40 25/59/40
f 44/91/40 25/59/40 45/93/40
