# Blender 3.4.1
# www.blender.org
mtllib tomato.mtl
o tomato
v -0.071100 0.019434 0.000000
v -0.050275 0.019434 0.050275
v -0.047400 0.000000 0.000000
v -0.033517 0.000000 0.033517
v 0.033517 0.000000 0.033517
v 0.050275 0.019434 0.050275
v 0.047400 0.000000 0.000000
v 0.071100 0.019434 0.000000
v 0.033517 0.000000 -0.033517
v 0.050275 0.019434 -0.050275
v 0.000000 0.019434 -0.071100
v 0.000000 0.000000 -0.047400
v -0.050275 0.019434 -0.050275
v -0.033517 0.000000 -0.033517
v 0.000000 0.019434 0.071100
v 0.000000 0.000000 0.047400
v -0.084846 0.058302 0.000000
v -0.059995 0.058302 -0.059995
v -0.000000 0.058302 0.084846
v -0.059995 0.058302 0.059995
v 0.059995 0.058302 0.059995
v -0.000000 0.058302 -0.084846
v 0.084846 0.058302 0.000000
v 0.059995 0.058302 -0.059995
v 0.050275 0.097170 0.050275
v 0.000000 0.097170 0.071100
v 0.000000 0.097170 -0.071100
v 0.050275 0.097170 -0.050275
v 0.071100 0.097170 0.000000
v -0.050275 0.097170 -0.050275
v -0.033517 0.116604 -0.033517
v 0.000000 0.116604 -0.047400
v -0.050275 0.097170 0.050275
v -0.033517 0.116604 0.033517
v 0.000000 0.116604 0.047400
v 0.033517 0.116604 0.033517
v -0.071100 0.097170 0.000000
v -0.047400 0.116604 0.000000
v 0.033517 0.116604 -0.033517
v 0.047400 0.116604 0.000000
v -0.011850 0.116604 0.011850
v 0.011850 0.116604 0.011850
v 0.011850 0.116604 -0.011850
v -0.011850 0.116604 -0.011850
v -0.004230 0.133004 0.004230
v -0.004230 0.133004 -0.004230
v 0.004230 0.133004 0.004230
v 0.004230 0.133004 -0.004230
v 0.006934 0.116604 0.006934
v -0.006934 0.116604 0.006934
v -0.006934 0.116604 -0.006934
v 0.006934 0.116604 -0.006934
v -0.029178 0.122137 -0.007850
v -0.029178 0.122137 0.007850
v -0.043511 0.137664 0.000000
v -0.007850 0.122137 -0.029178
v 0.007850 0.122137 -0.029178
v -0.000000 0.137664 -0.043511
v 0.029178 0.122137 0.007850
v 0.043511 0.137664 0.000000
v 0.029178 0.122137 -0.007850
v 0.007850 0.122137 0.029178
v -0.007850 0.122137 0.029178
v -0.000000 0.137664 0.043511
vn -0.6133 -0.7479 0.2540
vn 0.6133 -0.7479 0.2540
vn 0.6133 -0.7479 -0.2540
vn 0.2540 -0.7479 -0.6133
vn -0.6133 -0.7479 -0.2540
vn -0.2540 -0.7479 -0.6133
vn -0.2540 -0.7479 0.6133
vn -0.0000 -1.0000 -0.0000
vn 0.2540 -0.7479 0.6133
vn -0.8782 -0.3106 -0.3638
vn -0.3638 -0.3106 0.8782
vn -0.8782 -0.3106 0.3638
vn 0.3638 -0.3106 0.8782
vn -0.3638 -0.3106 -0.8782
vn 0.8782 -0.3106 0.3638
vn 0.8782 -0.3106 -0.3638
vn 0.3638 -0.3106 -0.8782
vn 0.3638 0.3106 0.8782
vn 0.3638 0.3106 -0.8782
vn 0.8782 0.3106 -0.3638
vn -0.2540 0.7479 -0.6133
vn -0.2540 0.7479 0.6133
vn 0.2540 0.7479 0.6133
vn -0.6133 0.7479 -0.2540
vn -0.6133 0.7479 0.2540
vn 0.6133 0.7479 -0.2540
vn 0.8782 0.3106 0.3638
vn 0.6133 0.7479 0.2540
vn -0.3638 0.3106 -0.8782
vn 0.2540 0.7479 -0.6133
vn -0.8782 0.3106 0.3638
vn -0.8782 0.3106 -0.3638
vn -0.3638 0.3106 0.8782
vn -0.0000 1.0000 -0.0000
vn -0.0000 0.1627 0.9867
vn -0.9867 0.1627 -0.0000
vn -0.0000 0.1627 -0.9867
vn 0.9867 0.1627 -0.0000
vn -0.3042 -0.9526 -0.0000
vn 0.3042 0.9526 -0.0000
vn -0.7348 -0.6783 -0.0000
vn 0.7348 0.6783 -0.0000
vn -0.0000 -0.6783 -0.7348
vn -0.0000 0.6783 0.7348
vn -0.0000 -0.9526 -0.3042
vn -0.0000 0.9526 0.3042
vn 0.7348 -0.6783 -0.0000
vn -0.7348 0.6783 -0.0000
vn 0.3042 -0.9526 -0.0000
vn -0.3042 0.9526 -0.0000
vn -0.0000 -0.6783 0.7348
vn -0.0000 0.6783 -0.7348
vn -0.0000 -0.9526 0.3042
vn -0.0000 0.9526 -0.3042
vt -1.071212 2.442068
vt 1.071212 2.442068
vt 1.071212 1.530482
vt -1.071212 1.530482
vt 1.071212 2.442068
vt -1.071212 2.442068
vt -1.071212 1.530482
vt 1.071212 1.530482
vt -0.714141 1.289451
vt 0.714141 1.289451
vt 1.866142 -0.000000
vt 0.714141 1.289451
vt -0.714141 1.289451
vt 1.319561 -1.319561
vt -0.714141 1.289451
vt -1.319561 -1.319561
vt 0.714141 1.289451
vt -1.071212 2.442068
vt 1.071212 2.442068
vt 1.071212 1.530482
vt -1.071212 1.530482
vt 0.714141 1.289451
vt -0.714141 1.289451
vt -1.866142 -0.000000
vt 1.071212 2.442068
vt -1.071212 2.442068
vt 1.071212 1.530482
vt -1.071212 1.530482
vt 0.714141 1.289451
vt -0.714141 1.289451
vt -1.319561 1.319561
vt 1.071212 2.442068
vt -1.071212 2.442068
vt 1.071212 1.530482
vt -1.071212 1.530482
vt 1.071212 2.442068
vt -1.071212 2.442068
vt -1.071212 1.530482
vt 1.071212 1.530482
vt 0.714141 1.289451
vt -0.714141 1.289451
vt -0.000000 1.866142
vt -1.071212 2.442068
vt 1.071212 2.442068
vt -1.071212 1.530482
vt 1.071212 1.530482
vt -0.714141 1.289451
vt 0.714141 1.289451
vt 1.319561 1.319561
vt 1.071212 2.442068
vt -1.071212 2.442068
vt 1.071212 1.530482
vt -1.071212 1.530482
vt 0.714141 1.289451
vt -0.000000 -1.866142
vt -0.714141 1.289451
vt 1.278313 3.140330
vt -1.278313 3.140330
vt -1.278313 1.223356
vt 1.278313 1.223356
vt -1.278313 3.140330
vt 1.278313 3.140330
vt 1.278313 1.223356
vt -1.278313 1.223356
vt 1.278313 3.140330
vt -1.278313 3.140330
vt -1.278313 1.223356
vt 1.278313 1.223356
vt -1.278313 3.140330
vt 1.278313 3.140330
vt 1.278313 1.223356
vt -1.278313 1.223356
vt 1.278313 3.140330
vt -1.278313 3.140330
vt 1.278313 1.223356
vt -1.278313 1.223356
vt -1.278313 3.140330
vt 1.278313 3.140330
vt 1.278313 1.223356
vt -1.278313 1.223356
vt 1.278313 3.140330
vt -1.278313 3.140330
vt -1.278313 1.223356
vt 1.278313 1.223356
vt 1.278313 3.140330
vt -1.278313 3.140330
vt -1.278313 1.223356
vt 1.278313 1.223356
vt 1.071212 2.833203
vt 1.071212 0.605286
vt -1.071212 2.833203
vt -1.071212 0.605286
vt -1.071212 2.833203
vt 1.071212 0.605286
vt -1.071212 0.605286
vt 1.071212 2.833203
vt 1.071212 2.833203
vt -1.071212 0.605286
vt -1.071212 2.833203
vt 1.071212 0.605286
vt -1.071212 2.833203
vt 1.071212 2.833203
vt 1.071212 0.605286
vt -1.071212 0.605286
vt -1.071212 2.833203
vt -1.071212 0.605286
vt 1.071212 2.833203
vt 1.071212 0.605286
vt 1.071212 0.605286
vt -1.071212 0.605286
vt 1.071212 2.833203
vt -1.071212 2.833203
vt 0.714141 1.757904
vt -0.714141 1.757904
vt -1.319561 1.319561
vt -0.714141 1.757904
vt 0.714141 1.757904
vt 0.000000 1.866142
vt -1.071212 0.605286
vt 1.071212 0.605286
vt 1.071212 2.833203
vt -1.071212 2.833203
vt -0.714141 1.757904
vt 0.714141 1.757904
vt -1.319561 -1.319561
vt 0.714141 1.757904
vt -0.714141 1.757904
vt 0.000000 -1.866142
vt 0.714141 1.757904
vt -0.714141 1.757904
vt 1.319561 -1.319561
vt 1.071212 0.605286
vt -1.071212 0.605286
vt -1.071212 2.833203
vt 1.071212 2.833203
vt 0.714141 1.757904
vt -0.714141 1.757904
vt -1.866142 -0.000000
vt 0.714141 1.757904
vt -0.714141 1.757904
vt 1.319561 1.319561
vt -0.714141 1.757904
vt 0.714141 1.757904
vt 1.866142 -0.000000
vt -0.466535 -0.466535
vt 0.466535 1.840718
vt -0.466535 1.840718
vt 0.466535 -0.466535
vt -0.466535 1.840718
vt 0.466535 1.840718
vt 0.466535 0.466535
vt -0.466535 1.840718
vt 0.466535 1.840718
vt -0.466535 0.466535
vt -0.466535 1.840718
vt 0.466535 1.840718
vt -0.166525 -0.166525
vt -0.166525 5.139516
vt 0.166525 5.139516
vt -0.166525 0.166525
vt -0.166525 5.139516
vt 0.166525 5.139516
vt 0.166525 -0.166525
vt 0.166525 5.139516
vt -0.166525 5.139516
vt 0.166525 0.166525
vt -0.166525 5.139516
vt 0.166525 5.139516
vt 0.272992 4.485127
vt -0.272992 4.485127
vt 0.272992 -0.272992
vt -0.272992 4.485127
vt 0.272992 4.485127
vt -0.272992 -0.272992
vt -0.272992 4.485127
vt 0.272992 4.485127
vt -0.272992 0.272992
vt -0.272992 4.485127
vt 0.272992 4.485127
vt 0.272992 0.272992
vt -0.309055 2.556851
vt -0.309055 4.312515
vt 0.309055 2.556851
vt 0.309055 4.312515
vt -0.000000 5.144470
vt 0.309055 4.312515
vt 0.309055 2.556851
vt -0.309055 4.312515
vt -0.309055 2.556851
vt -0.000000 5.144470
vt -0.309055 4.312515
vt -0.309055 2.556851
vt -0.000000 5.144470
vt 0.309055 4.312515
vt 0.309055 2.556851
vt 0.309055 4.312514
vt 0.309055 2.556851
vt -0.309055 4.312514
vt -0.309055 2.556851
vt -0.000000 5.144470
s 0
usemtl red
f 3/9/1 2/5/1 1/1/1
f 2/5/1 3/9/1 4/12/1
f 7/22/2 6/18/2 5/15/2
f 6/18/2 7/22/2 8/25/2
f 10/32/3 7/23/3 9/29/3
f 7/23/3 10/32/3 8/26/3
f 10/33/4 12/40/4 11/36/4
f 12/40/4 10/33/4 9/30/4
f 13/43/5 3/10/5 1/2/5
f 3/10/5 13/43/5 14/47/5
f 11/37/6 14/48/6 13/44/6
f 14/48/6 11/37/6 12/41/6
f 4/13/7 15/50/7 2/6/7
f 15/50/7 4/13/7 16/54/7
f 14/49/8 4/14/8 3/11/8
f 4/14/8 14/49/8 12/42/8
f 4/14/8 12/42/8 16/55/8
f 16/55/8 12/42/8 9/31/8
f 16/55/8 9/31/8 5/16/8
f 5/16/8 9/31/8 7/24/8
f 16/56/9 6/19/9 15/51/9
f 6/19/9 16/56/9 5/17/9
f 17/57/10 13/45/10 1/3/10
f 13/45/10 17/57/10 18/61/10
f 19/65/11 2/7/11 15/52/11
f 2/7/11 19/65/11 20/69/11
f 17/58/12 2/8/12 20/70/12
f 2/8/12 17/58/12 1/4/12
f 21/73/13 15/53/13 6/20/13
f 15/53/13 21/73/13 19/66/13
f 18/62/14 11/38/14 13/46/14
f 11/38/14 18/62/14 22/77/14
f 6/21/15 23/81/15 21/74/15
f 23/81/15 6/21/15 8/27/15
f 10/34/16 23/82/16 8/28/16
f 23/82/16 10/34/16 24/85/16
f 22/78/17 10/35/17 11/39/17
f 10/35/17 22/78/17 24/86/17
f 25/89/18 19/67/18 21/75/18
f 19/67/18 25/89/18 26/93/18
f 27/97/19 24/87/19 22/79/19
f 24/87/19 27/97/19 28/101/19
f 23/83/20 28/102/20 29/105/20
f 28/102/20 23/83/20 24/88/20
f 31/113/21 27/98/21 30/109/21
f 27/98/21 31/113/21 32/116/21
f 26/94/22 34/123/22 33/119/22
f 34/123/22 26/94/22 35/126/22
f 25/90/23 35/127/23 26/95/23
f 35/127/23 25/90/23 36/129/23
f 38/136/24 30/110/24 37/132/24
f 30/110/24 38/136/24 31/114/24
f 33/120/25 38/137/25 37/133/25
f 38/137/25 33/120/25 34/124/25
f 40/142/26 28/103/26 39/139/26
f 28/103/26 40/142/26 29/106/26
f 23/84/27 25/91/27 21/76/27
f 25/91/27 23/84/27 29/107/27
f 25/92/28 40/143/28 36/130/28
f 40/143/28 25/92/28 29/108/28
f 30/111/29 22/80/29 18/63/29
f 22/80/29 30/111/29 27/99/29
f 32/117/30 28/104/30 27/100/30
f 28/104/30 32/117/30 39/140/30
f 33/121/31 17/59/31 20/71/31
f 17/59/31 33/121/31 37/134/31
f 30/112/32 17/60/32 37/135/32
f 17/60/32 30/112/32 18/64/32
f 26/96/33 20/72/33 19/68/33
f 20/72/33 26/96/33 33/122/33
f 34/125/34 31/115/34 38/138/34
f 31/115/34 34/125/34 35/128/34
f 31/115/34 35/128/34 41/145/34
f 41/145/34 35/128/34 42/148/34
f 42/148/34 35/128/34 36/131/34
f 42/148/34 36/131/34 43/151/34
f 44/154/34 31/115/34 41/145/34
f 31/115/34 44/154/34 32/118/34
f 32/118/34 44/154/34 43/151/34
f 32/118/34 43/151/34 39/141/34
f 39/141/34 43/151/34 36/131/34
f 39/141/34 36/131/34 40/144/34
usemtl green
f 47/163/34 46/160/34 45/157/34
f 46/160/34 47/163/34 48/166/34
f 47/164/35 50/172/35 49/169/35
f 50/172/35 47/164/35 45/158/35
f 45/159/36 51/175/36 50/173/36
f 51/175/36 45/159/36 46/161/36
f 46/162/37 52/178/37 51/176/37
f 52/178/37 46/162/37 48/167/37
f 52/179/38 47/165/38 49/170/38
f 47/165/38 52/179/38 48/168/38
f 41/145/34 50/174/34 44/154/34
f 50/174/34 41/145/34 42/148/34
f 50/174/34 42/148/34 49/171/34
f 49/171/34 42/148/34 52/180/34
f 51/177/34 44/154/34 50/174/34
f 44/154/34 51/177/34 43/151/34
f 43/151/34 51/177/34 52/180/34
f 43/151/34 52/180/34 42/148/34
f 44/155/39 54/183/39 53/181/39
f 54/183/39 44/155/39 41/146/39
f 53/181/40 54/183/40 44/155/40
f 41/146/40 44/155/40 54/183/40
f 53/182/41 54/184/41 55/185/41
f 55/185/42 54/184/42 53/182/42
f 58/190/43 57/188/43 56/186/43
f 56/186/44 57/188/44 58/190/44
f 56/187/45 43/152/45 44/156/45
f 43/152/45 56/187/45 57/189/45
f 44/156/46 43/152/46 56/187/46
f 57/189/46 56/187/46 43/152/46
f 61/194/47 60/193/47 59/191/47
f 59/191/48 60/193/48 61/194/48
f 61/195/49 42/149/49 43/153/49
f 42/149/49 61/195/49 59/192/49
f 43/153/50 42/149/50 61/195/50
f 59/192/50 61/195/50 42/149/50
f 64/200/51 63/198/51 62/196/51
f 62/196/52 63/198/52 64/200/52
f 42/150/53 63/199/53 41/147/53
f 63/199/53 42/150/53 62/197/53
f 41/147/54 63/199/54 42/150/54
f 62/197/54 42/150/54 63/199/54
