# Blender 3.4.1
# www.blender.org
mtllib cap.mtl
o shakerPepper.004
v -0.012072 -0.013299 0.010500
v -0.015535 0.012269 0.000000
v -0.015535 -0.013495 0.000000
v -0.012072 0.012072 0.010500
v 0.016762 0.012269 0.000000
v 0.013299 -0.013299 0.010500
v 0.016762 -0.013495 0.000000
v 0.013299 0.012072 0.010500
v -0.012269 -0.016762 0.000000
v 0.013495 -0.016762 0.000000
v 0.013495 0.015535 0.000000
v -0.012269 0.015535 0.000000
v -0.012269 0.012269 0.000000
v -0.012269 -0.013495 0.000000
v 0.013495 -0.013495 0.000000
v -0.012269 0.012269 0.000000
v 0.013495 0.012269 0.000000
v -0.011539 -0.012766 -0.010500
v -0.011539 0.011539 -0.010500
v 0.012766 0.011539 -0.010500
v 0.012766 -0.012766 -0.010500
vn -0.9497 -0.0000 0.3132
vn 0.9497 -0.0000 0.3132
vn -0.0000 -0.9497 0.3132
vn -0.0000 0.9497 0.3132
vn -0.0000 -0.0000 1.0000
vn -0.0000 -0.0000 -1.0000
vn 0.7071 -0.0000 -0.7071
vn -0.6867 -0.6865 0.2393
vn -0.6866 0.6866 0.2393
vn 0.6865 0.6867 0.2393
vn 0.6866 -0.6866 0.2393
vn -0.0000 0.9976 -0.0694
vn 0.9976 -0.0000 -0.0693
vn -0.9976 -0.0000 -0.0694
vn -0.0000 -0.9976 -0.0693
vt 0.998800 7.015400
vt -0.998800 7.015400
vt -0.998800 -0.998800
vt 0.000000 7.154300
vt -1.014300 6.144800
vt 1.271500 1.014300
vt 0.181900 6.302800
vt 1.014300 6.144800
vt 1.271500 -1.014300
vt -0.181900 6.302800
vt -0.998800 7.015400
vt 0.998800 7.015400
vt -0.998800 0.998800
vt 0.000000 7.154300
vt 1.014300 6.144800
vt -1.271500 1.014300
vt -0.181900 6.302800
vt -0.998800 7.015400
vt 0.998800 7.015400
vt 0.998800 -0.998800
vt -0.000000 7.154300
vt -1.014300 6.144800
vt -1.271500 -1.014300
vt 0.181900 6.302800
vt 0.998800 7.015400
vt -0.998800 7.015400
vt 0.998800 0.998800
vt -0.000000 7.154300
vt -1.014300 6.144800
vt 1.014300 -1.271500
vt 0.181900 6.302800
vt 1.014300 6.144800
vt -1.014300 -1.271500
vt -0.181900 6.302800
vt -1.014300 6.144800
vt -1.014300 1.271500
vt 0.181900 6.302800
vt 1.014300 6.144800
vt 1.014300 1.271500
vt -0.181900 6.302800
vt -1.014300 6.943500
vt 1.014300 6.943500
vt 1.014300 6.943500
vt -1.014300 6.943500
vt 1.014300 6.943500
vt -1.014300 6.943500
vt 1.014300 1.014300
vt -1.014300 6.943500
vt 1.014300 6.943500
vt 0.956900 6.114700
vt -0.956900 6.114700
vt 0.956900 6.114700
vt -0.956900 6.114700
vt 0.956900 6.114700
vt -0.956900 6.114700
vt 0.956900 6.114700
vt -0.956900 6.114700
s 1
usemtl greyDark.001
f 1/1/1 2/5/1 3/8/1
f 2/5/1 1/1/1 4/11/1
f 5/15/2 6/18/2 7/22/2
f 6/18/2 5/15/2 8/25/2
f 6/19/3 9/29/3 10/32/3
f 9/29/3 6/19/3 1/2/3
f 4/12/4 11/35/4 12/38/4
f 11/35/4 4/12/4 8/26/4
f 6/20/5 4/13/5 1/3/5
f 4/13/5 6/20/5 8/27/5
f 13/41/5 14/43/5 15/45/5
f 10/33/6 9/29/6 5/16/6
f 5/17/6 9/30/6 16/47/7
f 11/36/6 16/47/7 12/39/6
f 15/46/5 17/49/5 13/42/5
f 10/33/6 5/16/6 7/23/6
f 9/30/6 12/39/6 16/47/7
f 18/50/6 19/53/6 20/55/6
f 3/9/6 12/39/6 9/30/6
f 12/39/6 3/9/6 2/6/6
f 11/36/6 5/17/6 16/47/7
f 18/51/6 20/54/6 21/56/6
f 1/4/8 3/10/8 9/31/8
f 12/40/9 2/7/9 4/14/9
f 11/37/10 8/28/10 5/17/10
f 6/21/11 10/34/11 7/24/11
f 13/42/12 20/55/12 19/52/12
f 17/49/13 21/57/13 20/54/13
f 13/41/14 18/50/14 14/43/14
f 18/50/14 13/41/14 19/53/14
f 18/51/15 15/45/15 14/44/15
f 20/55/12 13/42/12 17/48/12
f 15/45/15 18/51/15 21/56/15
f 21/57/13 17/49/13 15/46/13
