# Blender 3.4.1
# www.blender.org
mtllib label.mtl
o shakerPepper.005
v -0.003469 -0.016792 -0.014000
v -0.003469 0.016792 -0.014000
v 0.003469 -0.023730 -0.014000
v -0.003469 0.016792 0.014000
v -0.003469 -0.016792 0.014000
v 0.003469 0.023730 0.014000
v 0.003469 0.023730 -0.014000
v 0.003469 -0.023730 0.014000
vn -0.7173 -0.2971 -0.6303
vn -0.7173 0.2971 -0.6303
vn 0.3204 -0.7735 -0.5469
vn -0.7173 0.2971 0.6303
vn -0.7173 -0.2971 0.6303
vn 0.3204 0.7735 0.5469
vn 0.3204 0.7735 -0.5469
vn 0.3204 -0.7735 0.5469
vt -0.386300 1.929100
vt 1.322200 1.929100
vt 0.386300 1.929100
vt -1.322200 1.929100
vt 0.386300 1.929100
vt 0.386300 4.133900
vt -1.322200 4.133900
vt -0.386300 4.133900
vt 1.322200 4.133900
vt -0.386300 4.133900
vt -0.386300 1.929100
vt 0.386300 4.133900
s 1
usemtl Material.003
f 1/2/1 2/4/2 3/5/3
f 4/7/4 5/9/5 6/10/6
f 7/11/7 6/10/6 8/12/8
f 3/5/3 7/11/7 8/12/8
f 2/3/2 7/11/7 3/5/3
f 6/10/6 5/9/5 8/12/8
f 6/10/6 2/3/2 4/6/4
f 2/3/2 6/10/6 7/11/7
f 5/8/5 3/5/3 8/12/8
f 3/5/3 5/8/5 1/1/1
f 4/7/4 1/2/1 5/9/5
f 1/2/1 4/7/4 2/4/2
