# Blender v2.78 (sub 0) OBJ File: ''
# www.blender.org
mtllib kitchencabinet_collision.mtl
o kitchenCabinet1.001_ID7.005
v 3.223392 -0.141446 -0.952535
v 3.352704 -0.141446 -0.952535
v 3.352704 -0.141446 1.035689
v 3.223392 -0.141446 1.035689
v 3.223392 0.674002 1.035704
v 3.223392 0.674002 -0.952535
v 3.352704 0.674002 -0.952535
v 3.352704 0.674002 1.035704
vt -1.0569 15.7480
vt -15.8723 15.7480
vt 15.8723 15.7480
vt 1.0569 15.7480
vt 1.0569 1.5748
vt 1.0569 8.2952
vt -15.8723 1.5748
vt 15.8723 9.3521
vt 15.8723 1.5748
vt -1.0569 1.5748
vt 15.8723 8.2952
vt 1.0569 9.3521
vn 0.0000 -1.0000 0.0000
vn -1.0000 0.0000 0.0000
vn 1.0000 0.0000 0.0000
vn 0.0000 -0.0000 1.0000
vn 0.0000 0.0000 -1.0000
vn 0.0000 1.0000 0.0000
usemtl wood.000
s 1
f 1/1/1 2/2/1 3/3/1 4/4/1
f 4/4/2 5/5/2 6/6/2 1/1/2
f 2/2/3 7/7/3 8/8/3 3/3/3
f 5/5/4 4/4/4 8/9/4
f 3/3/4 8/9/4 4/4/4
f 1/1/5 6/10/5 2/2/5
f 7/7/5 2/2/5 6/10/5
f 7/11/6 6/6/6 8/8/6
f 5/12/6 8/8/6 6/6/6
o kitchenCabinet1.001_ID7.004
v -2.927081 -0.141446 -0.952535
v -2.797769 -0.141446 -0.952535
v -2.797769 -0.141446 1.035689
v -2.927081 -0.141446 1.035689
v -2.927081 0.674002 1.035704
v -2.927081 0.674002 -0.952535
v -2.797769 0.674002 -0.952535
v -2.797769 0.674002 1.035704
vt -1.0569 15.7480
vt -15.8723 15.7480
vt 15.8723 15.7480
vt 1.0569 15.7480
vt 1.0569 1.5748
vt 1.0569 8.2952
vt -15.8723 1.5748
vt 15.8723 9.3521
vt 15.8723 1.5748
vt -1.0569 1.5748
vt 15.8723 8.2952
vt 1.0569 9.3521
vn 0.0000 -1.0000 0.0000
vn -1.0000 0.0000 0.0000
vn 1.0000 -0.0000 0.0000
vn 0.0000 -0.0000 1.0000
vn 0.0000 0.0000 -1.0000
vn 0.0000 1.0000 0.0000
usemtl wood.000
s 1
f 9/13/7 10/14/7 11/15/7 12/16/7
f 12/16/8 13/17/8 14/18/8 9/13/8
f 10/14/9 15/19/9 16/20/9 11/15/9
f 13/17/10 12/16/10 16/21/10
f 11/15/10 16/21/10 12/16/10
f 9/13/11 14/22/11 10/14/11
f 15/19/11 10/14/11 14/22/11
f 15/23/12 14/18/12 16/20/12
f 13/24/12 16/20/12 14/18/12
o kitchenCabinet1.001_ID7.003
v -2.794322 -0.141446 0.768461
v 3.224322 -0.141446 0.768461
v 3.224322 -0.141446 1.031821
v -2.794322 -0.141446 1.031821
v -2.794322 0.674002 1.031823
v -2.794322 0.674002 0.768461
v 3.224322 0.674002 0.768461
v 3.224322 0.674002 1.031823
vt -1.0569 15.7480
vt -15.8723 15.7480
vt 15.8723 15.7480
vt 1.0569 15.7480
vt 1.0569 1.5748
vt 1.0569 8.2952
vt -15.8723 1.5748
vt 15.8723 9.3521
vt 15.8723 1.5748
vt -1.0569 1.5748
vt 15.8723 8.2952
vt 1.0569 9.3521
vn 0.0000 -1.0000 0.0000
vn -1.0000 0.0000 0.0000
vn 1.0000 -0.0000 0.0000
vn 0.0000 -0.0000 1.0000
vn 0.0000 0.0000 -1.0000
vn 0.0000 1.0000 0.0000
usemtl wood.000
s 1
f 17/25/13 18/26/13 19/27/13 20/28/13
f 20/28/14 21/29/14 22/30/14 17/25/14
f 18/26/15 23/31/15 24/32/15 19/27/15
f 21/29/16 20/28/16 24/33/16
f 19/27/16 24/33/16 20/28/16
f 17/25/17 22/34/17 18/26/17
f 23/31/17 18/26/17 22/34/17
f 23/35/18 22/30/18 24/32/18
f 21/36/18 24/32/18 22/30/18
o kitchenCabinet1.001_ID7.002
v -2.794322 -0.126616 -0.952800
v 3.224322 -0.126616 -0.952800
v 3.224322 -0.126616 -0.557878
v -2.794322 -0.126616 -0.557878
v -2.794322 0.634243 -0.557877
v -2.794322 0.634243 -0.952800
v 3.224322 0.634243 -0.952800
v 3.224322 0.634243 -0.557877
vt -1.0569 15.7480
vt -15.8723 15.7480
vt 15.8723 15.7480
vt 1.0569 15.7480
vt 1.0569 1.5748
vt 1.0569 8.2952
vt -15.8723 1.5748
vt 15.8723 9.3521
vt 15.8723 1.5748
vt -1.0569 1.5748
vt 15.8723 8.2952
vt 1.0569 9.3521
vn 0.0000 -1.0000 0.0000
vn -1.0000 0.0000 0.0000
vn 1.0000 0.0000 0.0000
vn 0.0000 -0.0000 1.0000
vn 0.0000 0.0000 -1.0000
vn 0.0000 1.0000 0.0000
usemtl wood.000
s 1
f 25/37/19 26/38/19 27/39/19 28/40/19
f 28/40/20 29/41/20 30/42/20 25/37/20
f 26/38/21 31/43/21 32/44/21 27/39/21
f 29/41/22 28/40/22 32/45/22
f 27/39/22 32/45/22 28/40/22
f 25/37/23 30/46/23 26/38/23
f 31/43/23 26/38/23 30/46/23
f 31/47/24 30/42/24 32/44/24
f 29/48/24 32/44/24 30/42/24
o kitchenCabinet1.001_ID7.001
v -2.794322 -0.126408 0.043178
v 3.224322 -0.126408 0.043178
v 3.224322 -0.126408 0.170466
v -2.794322 -0.126408 0.170466
v -2.794322 0.593592 0.170466
v -2.794322 0.593592 0.043178
v 3.224322 0.593592 0.043178
v 3.224322 0.593592 0.170466
vt -1.0569 15.7480
vt -15.8723 15.7480
vt 15.8723 15.7480
vt 1.0569 15.7480
vt 1.0569 1.5748
vt 1.0569 8.2952
vt -15.8723 1.5748
vt 15.8723 9.3521
vt 15.8723 1.5748
vt -1.0569 1.5748
vt 15.8723 8.2952
vt 1.0569 9.3521
vn 0.0000 -1.0000 0.0000
vn -1.0000 0.0000 0.0000
vn 1.0000 0.0000 0.0000
vn 0.0000 0.0000 1.0000
vn 0.0000 0.0000 -1.0000
vn 0.0000 1.0000 0.0000
usemtl wood.000
s 1
f 33/49/25 34/50/25 35/51/25 36/52/25
f 36/52/26 37/53/26 38/54/26 33/49/26
f 34/50/27 39/55/27 40/56/27 35/51/27
f 37/53/28 36/52/28 40/57/28
f 35/51/28 40/57/28 36/52/28
f 33/49/29 38/58/29 34/50/29
f 39/55/29 34/50/29 38/58/29
f 39/59/30 38/54/30 40/56/30
f 37/60/30 40/56/30 38/54/30
o kitchenCabinet1.001_ID7.000
v 3.340865 -0.224871 -0.952535
v 3.340867 -0.145596 -0.952535
v 3.340867 -0.145596 1.035689
v 3.340865 -0.224871 1.035689
v -2.924424 -0.224871 1.035704
v -2.924424 -0.224871 -0.952535
v -2.924420 -0.145596 -0.952535
v -2.924420 -0.145596 1.035704
vt -1.0569 15.7480
vt -15.8723 15.7480
vt 15.8723 15.7480
vt 1.0569 15.7480
vt 1.0569 1.5748
vt 1.0569 8.2952
vt -15.8723 1.5748
vt 15.8723 9.3521
vt 15.8723 1.5748
vt -1.0569 1.5748
vt 15.8723 8.2952
vt 1.0569 9.3521
vn 1.0000 -0.0000 0.0000
vn 0.0000 -1.0000 0.0000
vn 0.0000 1.0000 0.0000
vn 0.0000 -0.0000 1.0000
vn 0.0000 0.0000 -1.0000
vn -1.0000 0.0000 0.0000
usemtl wood.000
s 1
f 41/61/31 42/62/31 43/63/31 44/64/31
f 44/64/32 45/65/32 46/66/32 41/61/32
f 42/62/33 47/67/33 48/68/33 43/63/33
f 45/65/34 44/64/34 48/69/34
f 43/63/34 48/69/34 44/64/34
f 41/61/35 46/70/35 42/62/35
f 47/67/35 42/62/35 46/70/35
f 47/71/36 46/66/36 48/68/36
f 45/72/36 48/68/36 46/66/36
