# Blender v2.78 (sub 0) OBJ File: 'abe_simkitchen_default.blend'
# www.blender.org
mtllib kitchencabinet_visual.mtl
o kitchenCabinet1.001_ID7.006
v -2.919774 -0.166408 1.177676
v -2.919774 -0.226408 1.177676
v 3.349774 -0.166408 1.177676
v 3.349775 -0.226408 1.177676
v -2.919774 -0.226408 0.893169
v 3.349775 -0.226408 0.893169
v -2.919775 0.633592 0.893169
v -2.919775 0.673592 0.893169
v 3.349774 0.633592 0.893169
v 3.349774 0.673592 0.893169
v -2.919774 -0.166408 1.035423
v -2.919775 0.673592 1.035423
v 3.349774 0.673592 1.035423
v 3.349774 -0.166408 1.035423
v -2.919774 -0.226408 -0.956122
v -2.919775 0.593592 -0.956122
v 3.349775 -0.226408 -0.956122
v 3.349774 0.593592 -0.956122
v -2.794322 0.593592 0.170253
v -2.794322 -0.126408 0.170253
v 3.224322 0.593592 0.170253
v 3.224322 -0.126408 0.170253
v -2.794322 0.633592 -0.552663
v -2.794322 -0.126408 -0.552663
v 3.224322 0.633592 -0.552663
v 3.224322 -0.126408 -0.552663
v 3.224322 -0.126408 0.765881
v -2.794322 -0.126408 0.765881
v -2.794322 0.633592 0.765881
v 3.224322 0.633592 0.765881
v -2.919775 0.593592 -0.679952
v -2.919775 0.633592 -0.679952
v 3.349774 0.593592 -0.679952
v 3.349774 0.633592 -0.679952
v 3.224322 0.593592 0.042965
v 3.224322 -0.126408 0.042965
v -2.794322 -0.126408 0.042965
v -2.794322 0.593592 0.042965
vt 0.0000 16.5354
vt 0.0000 17.7165
vt 16.9291 16.5354
vt 16.9291 17.7165
vt 0.0000 15.3543
vt -16.9291 15.3543
vt -16.9291 17.7165
vt 0.0000 0.7874
vt 0.0000 0.0000
vt -16.9291 0.7874
vt -16.9291 0.0000
vt -16.5354 17.7165
vt -16.5354 16.5354
vt -17.7165 17.7165
vt -17.7165 15.3543
vt -0.7874 15.3543
vt 0.0000 15.3543
vt 0.0000 16.5354
vt 0.0000 15.3543
vt 0.0000 16.5354
vt 0.7874 15.3543
vt 16.5354 16.5354
vt 17.7165 15.3543
vt 16.5354 17.7165
vt 17.7165 17.7165
vt 16.9291 15.3543
vt 16.9291 16.5354
vt 16.9291 16.5354
vt 0.0000 16.5354
vt 16.9291 17.7165
vt 0.0000 17.7165
vt 0.0000 0.0000
vt 16.9291 0.0000
vt 0.0000 17.7165
vt 0.0000 1.5748
vt -16.9291 17.7165
vt -16.9291 1.5748
vt 1.0569 1.5748
vt 1.0569 15.7480
vt 15.8723 1.5748
vt 15.8723 15.7480
vt 1.0569 0.7874
vt 1.0569 15.7480
vt 15.8723 0.7874
vt 15.8723 15.7480
vt 15.8723 9.3521
vt 1.0569 9.3521
vt 15.8723 14.2975
vt 1.0569 14.2975
vt -1.0569 15.7480
vt -1.0569 0.7874
vt -15.8723 15.7480
vt -15.8723 0.7874
vt 0.0000 1.5748
vt 0.0000 0.7874
vt -16.9291 1.5748
vt -16.9291 0.7874
vt -0.7874 3.3498
vt -1.5748 9.3521
vt -0.7874 14.2975
vt -15.7480 14.2975
vt -15.7480 9.3521
vt -1.5748 8.2952
vt -15.7480 3.3498
vt -15.7480 8.2952
vt 16.9291 0.0000
vt 0.0000 0.0000
vt 16.9291 2.2930
vt 0.0000 2.2930
vt 1.5748 0.0000
vt 1.5748 2.2930
vt 17.7165 0.0000
vt 0.7874 2.2930
vt -0.7874 2.2930
vt -1.5748 2.2930
vt -1.5748 0.0000
vt -17.7165 0.0000
vt 15.8723 3.3498
vt 1.0569 3.3498
vt 15.8723 8.2952
vt 1.0569 8.2952
vt 0.0000 17.7165
vt 16.9291 0.7874
vt 16.9291 17.7165
vt 0.0000 0.0000
vt -16.9291 0.0000
vt -1.0569 15.7480
vt -1.0569 1.5748
vt -15.8723 15.7480
vt -15.8723 1.5748
vt 15.8723 8.2952
vt 1.0569 8.2952
vt 15.8723 9.3521
vt 1.0569 9.3521
vt 0.7874 14.2975
vt 1.5748 8.2952
vt 0.7874 3.3498
vt 15.7480 3.3498
vt 15.7480 8.2952
vt 1.5748 9.3521
vt 15.7480 14.2975
vt 15.7480 9.3521
vt 0.0000 2.2930
vt 15.8723 3.3498
vt 16.9291 2.2930
vt 16.9291 15.3543
vt 15.8723 14.2975
vt 1.0569 14.2975
vt 1.0569 3.3498
vt 0.0000 15.3543
vn 0.0000 0.0000 1.0000
vn 0.0000 -1.0000 0.0000
vn 0.0000 0.0000 -1.0000
vn -1.0000 0.0000 0.0000
vn 1.0000 0.0000 0.0000
vn 0.0000 1.0000 0.0000
usemtl wood.008
s 1
f 1/1/1 2/2/1 3/3/1
f 4/4/1 3/3/1 2/2/1
f 5/5/2 6/6/2 2/2/2
f 4/7/2 2/2/2 6/6/2
f 7/8/3 8/9/3 9/10/3
f 10/11/3 9/10/3 8/9/3
f 1/12/4 11/13/4 2/14/4
f 2/14/4 11/13/4 5/15/4
f 5/15/4 11/13/4 7/16/4
f 7/16/4 11/13/4 8/17/4
f 12/18/4 8/17/4 11/13/4
f 10/19/5 13/20/5 9/21/5
f 14/22/5 9/21/5 13/20/5
f 6/23/5 9/21/5 14/22/5
f 3/24/5 6/23/5 14/22/5
f 4/25/5 6/23/5 3/24/5
f 10/26/6 8/17/6 13/27/6
f 12/18/6 13/27/6 8/17/6
f 14/28/6 11/29/6 3/30/6
f 1/31/6 3/30/6 11/29/6
f 12/32/1 11/29/1 13/33/1
f 14/28/1 13/33/1 11/29/1
f 15/34/3 16/35/3 17/36/3
f 18/37/3 17/36/3 16/35/3
f 19/38/1 20/39/1 21/40/1
f 22/41/1 21/40/1 20/39/1
f 23/42/1 24/43/1 25/44/1
f 26/45/1 25/44/1 24/43/1
f 22/46/6 20/47/6 27/48/6
f 28/49/6 27/48/6 20/47/6
f 28/50/3 29/51/3 27/52/3
f 30/53/3 27/52/3 29/51/3
f 31/54/3 32/55/3 33/56/3
f 34/57/3 33/56/3 32/55/3
f 25/58/4 21/59/4 30/60/4
f 27/61/4 30/60/4 21/59/4
f 22/62/4 27/61/4 21/59/4
f 21/59/4 25/58/4 35/63/4
f 26/64/4 35/63/4 25/58/4
f 36/65/4 35/63/4 26/64/4
f 18/66/6 16/67/6 33/68/6
f 31/69/6 33/68/6 16/67/6
f 18/70/5 33/71/5 17/72/5
f 17/72/5 33/71/5 6/23/5
f 6/23/5 33/71/5 9/21/5
f 34/73/5 9/21/5 33/71/5
f 7/16/4 32/74/4 5/15/4
f 31/75/4 5/15/4 32/74/4
f 16/76/4 5/15/4 31/75/4
f 15/77/4 5/15/4 16/76/4
f 26/78/6 24/79/6 36/80/6
f 37/81/6 36/80/6 24/79/6
f 7/8/1 5/82/1 9/83/1
f 6/84/1 9/83/1 5/82/1
f 15/85/2 17/86/2 5/5/2
f 6/6/2 5/5/2 17/86/2
f 37/87/3 38/88/3 36/89/3
f 35/90/3 36/89/3 38/88/3
f 35/91/6 38/92/6 21/93/6
f 19/94/6 21/93/6 38/92/6
f 29/95/5 38/96/5 23/97/5
f 24/98/5 23/97/5 38/96/5
f 37/99/5 24/98/5 38/96/5
f 38/96/5 29/95/5 19/100/5
f 28/101/5 19/100/5 29/95/5
f 20/102/5 19/100/5 28/101/5
f 32/103/6 25/104/6 34/105/6
f 9/106/6 34/105/6 25/104/6
f 30/107/6 9/106/6 25/104/6
f 29/108/6 9/106/6 30/107/6
f 25/104/6 32/103/6 23/109/6
f 7/110/6 23/109/6 32/103/6
f 29/108/6 23/109/6 7/110/6
f 9/106/6 29/108/6 7/110/6
