# Blender 3.4.1
# www.blender.org
mtllib chopped_cranberry.mtl
o cherries.001
v 0.014300 0.000000 -0.017872
v 0.022000 0.000000 -0.002750
v 0.011000 -0.019053 -0.002750
v 0.007150 -0.012384 0.012373
v 0.014300 0.000000 0.012373
v 0.007150 -0.012384 -0.017872
v -0.007150 -0.012384 -0.017872
v -0.011000 -0.019053 -0.002750
v -0.022000 0.000000 -0.002750
v -0.007150 -0.012384 0.012373
v -0.014300 0.000000 0.012373
v -0.014300 0.000000 -0.017872
v 0.000000 0.000000 -0.017872
v 0.000000 0.000000 0.012373
vn 0.7924 -0.4575 0.4035
vn -0.0000 -0.9150 -0.4035
vn -0.7924 -0.4575 0.4035
vn -0.0000 1.0000 -0.0000
vn -0.0000 -0.9150 0.4035
vn -0.0000 -0.0000 1.0000
vn -0.0000 -0.0000 -1.0000
vn 0.7924 -0.4575 -0.4035
vn -0.7924 -0.4575 -0.4035
vt -0.744020 0.697911
vt -0.440870 1.999270
vt -0.440870 0.179737
vt -2.173154 0.179737
vt 0.866142 2.303736
vt 0.866142 -0.124730
vt -2.173154 1.999270
vt -1.870004 1.481095
vt 0.562992 1.176628
vt -0.744020 1.481095
vt -1.870004 0.697911
vt 0.562992 1.002378
vt 1.870004 0.697911
vt -0.562992 1.002378
vt -0.866142 2.303736
vt 2.173154 0.179737
vt -0.866142 -0.124730
vt 2.173154 1.999270
vt 0.440870 1.999270
vt 0.440870 0.179737
vt 1.870004 1.481095
vt -0.562992 1.176628
vt 0.744020 1.481095
vt 0.744020 0.697911
vt 0.000000 0.000000
vt 0.000000 0.000000
s 0
usemtl red.002
f 2/3/1 4/8/1 3/4/1
f 4/8/1 2/3/1 5/10/1
f 3/5/2 7/14/2 6/12/2
f 7/14/2 3/5/2 8/15/2
f 10/21/3 9/20/3 8/16/3
f 9/20/3 10/21/3 11/23/3
f 2/3/4 1/1/4 13/25/4
f 9/19/4 13/25/4 12/24/4
f 4/9/5 8/17/5 3/6/5
f 8/17/5 4/9/5 10/22/5
f 4/9/6 14/26/6 10/22/6
f 13/25/7 6/12/7 7/14/7
f 9/20/4 2/3/4 13/25/4
f 2/3/4 9/20/4 14/26/4
f 6/11/8 2/2/8 3/7/8
f 2/2/8 6/11/8 1/1/8
f 9/19/9 7/13/9 8/18/9
f 7/13/9 9/19/9 12/24/9
f 11/23/4 14/26/4 9/20/4
f 5/10/4 2/3/4 14/26/4
f 14/26/6 11/23/6 10/22/6
f 4/9/6 5/10/6 14/26/6
f 6/12/7 13/25/7 1/1/7
f 13/25/7 7/14/7 12/24/7
