# Blender 3.4.1
# www.blender.org
mtllib tableCollider.mtl
o Kitchen_table_rectangle
v 0.293634 -1.067873 0.669570
v 0.299039 -1.088042 0.669570
v 0.278869 -1.053107 0.669570
v 0.258699 -1.047703 0.669570
v 0.238530 -1.053107 0.669570
v 0.223764 -1.067873 0.669570
v 0.218360 -1.088042 0.669570
v 0.223764 -1.108212 0.669570
v 0.238530 -1.122977 0.669570
v 0.258699 -1.128382 0.669570
v 0.278869 -1.122977 0.669570
v 0.293634 -1.108212 0.669570
v 0.287029 -1.088042 -0.000371
v 0.283233 -1.073878 -0.000371
v 0.272864 -1.063509 -0.000371
v 0.258699 -1.059713 -0.000371
v 0.244535 -1.063509 -0.000371
v 0.234165 -1.073878 -0.000371
v 0.230370 -1.088042 -0.000371
v 0.234165 -1.102207 -0.000371
v 0.244535 -1.112576 -0.000371
v 0.258699 -1.116372 -0.000371
v 0.272864 -1.112576 -0.000371
v 0.283233 -1.102207 -0.000371
v 0.258699 -1.088042 -0.000371
v 0.258699 -1.088042 0.669570
vn -0.0000 -0.0000 1.0000
vn -0.7070 0.7070 -0.0173
vn -0.9658 0.2588 -0.0173
vn 0.2588 0.9658 -0.0173
vn -0.2588 0.9658 -0.0173
vn 0.9658 0.2588 -0.0173
vn 0.7070 0.7070 -0.0173
vn 0.7070 -0.7070 -0.0173
vn 0.9658 -0.2588 -0.0173
vn -0.2588 -0.9658 -0.0173
vn 0.2588 -0.9658 -0.0173
vn -0.9658 -0.2588 -0.0173
vn -0.0000 -0.0000 -1.0000
vn -0.7070 -0.7070 -0.0173
vt 0.000000 0.000000
vt 0.000000 0.000000
vt 0.000000 0.000000
vt 0.000000 0.000000
vt 0.000000 0.000000
vt 0.000000 0.000000
vt 0.000000 0.000000
vt 0.000000 0.000000
vt 0.000000 0.000000
vt 0.000000 0.000000
vt 0.000000 0.000000
vt 0.000000 0.000000
vt 0.455239 0.958513
vt 0.453637 0.973273
vt 0.459629 0.986856
vt 0.471609 0.995623
vt 0.486369 0.997226
vt 0.499952 0.991234
vt 0.508719 0.979253
vt 0.510322 0.964493
vt 0.504330 0.950910
vt 0.492349 0.942143
vt 0.477589 0.940540
vt 0.464007 0.946532
vt 0.481979 0.968883
vt 0.000000 0.000000
s 0
usemtl Kitchen_TableChair
f 3/3/1 4/4/1 26/26/1
f 1/1/1 3/3/1 26/26/1
f 5/5/1 6/6/1 26/26/1
f 4/4/1 5/5/1 26/26/1
f 7/7/1 8/8/1 26/26/1
f 6/6/1 7/7/1 26/26/1
f 9/9/1 10/10/1 26/26/1
f 8/8/1 9/9/1 26/26/1
f 12/12/1 26/26/1 11/11/1
f 10/10/1 11/11/1 26/26/1
f 6/6/2 5/5/2 17/17/2 18/18/2
f 7/7/3 6/6/3 18/18/3 19/19/3
f 4/4/4 3/3/4 15/15/4 16/16/4
f 5/5/5 4/4/5 16/16/5 17/17/5
f 1/1/6 2/2/6 13/13/6 14/14/6
f 3/3/7 1/1/7 14/14/7 15/15/7
f 12/12/8 11/11/8 23/23/8 24/24/8
f 2/2/9 12/12/9 24/24/9 13/13/9
f 10/10/10 9/9/10 21/21/10 22/22/10
f 11/11/11 10/10/11 22/22/11 23/23/11
f 8/8/12 7/7/12 19/19/12 20/20/12
f 12/12/1 2/2/1 26/26/1
f 2/2/1 1/1/1 26/26/1
f 14/14/13 13/13/13 25/25/13
f 15/15/13 14/14/13 25/25/13
f 16/16/13 15/15/13 25/25/13
f 17/17/13 16/16/13 25/25/13
f 18/18/13 17/17/13 25/25/13
f 19/19/13 18/18/13 25/25/13
f 20/20/13 19/19/13 25/25/13
f 21/21/13 20/20/13 25/25/13
f 22/22/13 21/21/13 25/25/13
f 23/23/13 22/22/13 25/25/13
f 24/24/13 23/23/13 25/25/13
f 13/13/13 24/24/13 25/25/13
f 9/9/14 8/8/14 20/20/14 21/21/14
o Kitchen_table_rectangle.001
v -0.101464 0.436588 0.701809
v -0.583702 0.015496 0.701809
v 0.383713 0.015496 0.722293
v -0.578508 0.015496 0.730486
v -0.099994 0.015496 0.730486
v 0.378519 0.015496 0.730486
v -0.583702 0.015496 0.722293
v 0.383713 0.015496 0.701809
v -0.099994 0.015496 0.701809
v -0.583702 0.430976 0.722293
v -0.101464 0.436588 0.722293
v -0.583702 0.430976 0.701809
v -0.099994 0.430976 0.730486
v -0.578508 0.430976 0.730486
v 0.383713 0.430976 0.722293
v 0.383713 0.430976 0.701809
v 0.378519 0.430976 0.730486
v -0.101464 -1.237411 0.701809
v 0.383713 -1.231798 0.701809
v 0.383713 -0.816318 0.701809
v -0.099994 -0.816318 0.701809
v -0.583702 -1.231798 0.701809
v -0.583702 -0.816318 0.701809
v 0.378519 -1.231798 0.730486
v -0.099994 -1.231798 0.730486
v -0.099994 -0.816318 0.730486
v 0.378519 -0.816318 0.730486
v -0.578508 -1.231798 0.730486
v -0.578508 -0.816318 0.730486
v -0.583702 -0.816318 0.722293
v -0.583702 -1.231798 0.722293
v 0.383713 -1.231798 0.722293
v 0.383713 -0.816318 0.722293
v -0.099994 -0.400411 0.701809
v 0.383713 -0.400411 0.701809
v -0.583702 -0.400411 0.701809
v 0.378519 -0.400411 0.730486
v -0.099994 -0.400411 0.730486
v -0.578508 -0.400411 0.730486
v -0.583702 -0.400411 0.722293
v 0.383713 -0.400411 0.722293
v -0.101464 -1.237411 0.722293
vn -0.0000 -0.0000 -1.0000
vn -0.0000 -0.0000 1.0000
vn -1.0000 -0.0000 -0.0000
vn 1.0000 -0.0000 -0.0000
vn 0.8446 -0.0000 0.5354
vn -0.8446 -0.0000 0.5354
vn -0.0000 1.0000 -0.0000
vn -0.0116 0.9999 -0.0000
vn 0.0009 0.8285 0.5600
vn -0.0009 0.8249 0.5653
vn -0.0002 0.9999 0.0116
vn 0.0116 0.9999 -0.0000
vn 0.0002 0.9999 0.0115
vn -0.0000 -1.0000 -0.0000
vn -0.0116 -0.9999 -0.0000
vn 0.0009 -0.8285 0.5600
vn -0.0002 -0.9999 0.0116
vn -0.0009 -0.8249 0.5653
vn 0.0116 -0.9999 -0.0000
vn 0.0002 -0.9999 0.0115
vt 0.298210 0.298541
vt 0.591066 0.500425
vt 0.012703 0.500425
vt 0.005346 0.500424
vt 0.584757 0.500425
vt 0.015224 0.500424
vt 0.298207 0.500425
vt 0.581190 0.500425
vt 0.011655 0.500424
vt 0.583716 0.500425
vt 0.591066 0.500425
vt 0.298210 0.500425
vt 0.011655 0.702308
vt 0.584757 0.702309
vt 0.584757 0.500425
vt 0.012703 0.298541
vt 0.005346 0.702308
vt 0.591066 0.702309
vt 0.298207 0.702309
vt 0.581190 0.500425
vt 0.015224 0.702308
vt 0.581190 0.702309
vt 0.584757 0.702309
vt 0.584758 0.298541
vt 0.583716 0.298541
vt 0.591066 0.702309
vt 0.591066 0.298541
vt 0.581190 0.702309
vt 0.581190 0.298540
vt 0.298210 0.298541
vt 0.591066 0.500425
vt 0.583716 0.298541
vt 0.591066 0.702309
vt 0.591066 0.298541
vt 0.583716 0.500425
vt 0.591066 0.500425
vt 0.298210 0.500425
vt 0.012703 0.298541
vt 0.005346 0.702308
vt 0.591066 0.702309
vt 0.012703 0.500425
vt 0.005346 0.500424
vt 0.581190 0.702309
vt 0.581190 0.298540
vt 0.298207 0.702309
vt 0.581190 0.500425
vt 0.298207 0.500425
vt 0.581190 0.500425
vt 0.015224 0.702308
vt 0.581190 0.702309
vt 0.015224 0.500424
vt 0.011655 0.500424
vt 0.011655 0.702308
vt 0.584757 0.702309
vt 0.584757 0.702309
vt 0.584758 0.298541
vt 0.584757 0.500425
vt 0.298210 0.702309
vt 0.583716 0.702309
vt 0.591066 0.298541
vt 0.012703 0.702309
vt 0.005346 0.298540
vt 0.581190 0.298540
vt 0.298207 0.298540
vt 0.015224 0.298540
vt 0.011655 0.298540
vt 0.584758 0.298541
vt 0.584757 0.500425
s 1
usemtl Kitchen_TableChair
f 27/27/15 42/51/15 34/36/15
f 34/36/15 35/38/15 27/27/15
f 38/42/15 27/27/15 35/38/15
f 35/38/15 28/29/15 38/42/15
f 43/54/16 39/45/16 31/33/16
f 31/33/16 32/34/16 43/54/16
f 39/45/16 40/47/16 30/32/16
f 30/32/16 31/33/16 39/45/16
f 36/39/17 38/43/17 28/30/17
f 28/30/17 33/35/17 36/39/17
f 29/31/18 34/37/18 42/52/18
f 42/52/18 41/49/18 29/31/18
f 32/34/19 29/31/19 41/49/19
f 41/49/19 43/54/19 32/34/19
f 40/47/20 36/39/20 33/35/20
f 33/35/20 30/32/20 40/47/20
f 60/84/15 35/38/15 34/36/15
f 34/36/15 61/85/15 60/84/15
f 62/87/15 28/29/15 35/38/15
f 35/38/15 60/84/15 62/87/15
f 63/89/16 32/34/16 31/33/16
f 31/33/16 64/90/16 63/89/16
f 64/90/16 31/33/16 30/32/16
f 30/32/16 65/91/16 64/90/16
f 66/92/17 33/35/17 28/30/17
f 28/30/17 62/88/17 66/92/17
f 29/31/18 67/93/18 61/86/18
f 61/86/18 34/37/18 29/31/18
f 32/34/19 63/89/19 67/93/19
f 67/93/19 29/31/19 32/34/19
f 65/91/20 30/32/20 33/35/20
f 33/35/20 66/92/20 65/91/20
f 37/41/21 27/28/21 38/44/22
f 38/44/22 36/40/22 37/41/21
f 39/46/23 37/41/24 36/40/25
f 36/40/25 40/48/21 39/46/23
f 37/41/21 41/50/26 42/53/26
f 42/53/26 27/28/21 37/41/21
f 39/46/23 43/55/21 41/50/27
f 41/50/27 37/41/24 39/46/23
f 44/56/15 47/63/15 46/61/15
f 46/61/15 45/58/15 44/56/15
f 48/64/15 49/67/15 47/63/15
f 47/63/15 44/56/15 48/64/15
f 50/69/16 53/74/16 52/73/16
f 52/73/16 51/71/16 50/69/16
f 51/71/16 52/73/16 55/77/16
f 55/77/16 54/75/16 51/71/16
f 57/79/17 56/78/17 49/68/17
f 49/68/17 48/65/17 57/79/17
f 59/83/18 58/81/18 45/59/18
f 45/59/18 46/62/18 59/83/18
f 53/74/19 50/69/19 58/81/19
f 58/81/19 59/83/19 53/74/19
f 54/75/20 55/77/20 56/78/20
f 56/78/20 57/79/20 54/75/20
f 60/84/15 61/85/15 46/61/15
f 46/61/15 47/63/15 60/84/15
f 62/87/15 60/84/15 47/63/15
f 47/63/15 49/67/15 62/87/15
f 63/89/16 64/90/16 52/73/16
f 52/73/16 53/74/16 63/89/16
f 64/90/16 65/91/16 55/77/16
f 55/77/16 52/73/16 64/90/16
f 66/92/17 62/88/17 49/68/17
f 49/68/17 56/78/17 66/92/17
f 59/83/18 46/62/18 61/86/18
f 61/86/18 67/93/18 59/83/18
f 53/74/19 59/83/19 67/93/19
f 67/93/19 63/89/19 53/74/19
f 65/91/20 66/92/20 56/78/20
f 56/78/20 55/77/20 65/91/20
f 68/94/28 57/80/29 48/66/29
f 48/66/29 44/57/28 68/94/28
f 51/72/30 54/76/28 57/80/31
f 57/80/31 68/94/32 51/72/30
f 68/94/28 44/57/28 45/60/33
f 45/60/33 58/82/33 68/94/28
f 51/72/30 68/94/32 58/82/34
f 58/82/34 50/70/28 51/72/30
o Kitchen_table_rectangle.002
v 0.345097 0.000000 0.610401
v -0.100000 0.000000 0.610401
v -0.545097 0.000000 0.610401
v 0.345097 0.000000 0.709627
v -0.545097 0.000000 0.709627
v -0.545097 0.380903 0.709627
v -0.098616 0.380651 0.709627
v -0.100000 0.380903 0.610401
v -0.545097 0.380903 0.610401
v 0.345097 0.380903 0.709627
v 0.345097 0.380903 0.610401
v -0.100000 -0.400411 0.610401
v -0.100000 -1.181726 0.610401
v 0.345097 -1.181726 0.610401
v 0.345097 -0.800822 0.610401
v -0.100000 -0.800822 0.610401
v -0.545097 -1.181726 0.610401
v -0.545097 -0.800822 0.610401
v 0.345097 -1.181726 0.709627
v 0.345097 -0.800822 0.709627
v -0.545097 -0.800822 0.709627
v -0.545097 -1.181726 0.709627
v -0.545097 -0.400411 0.610401
v -0.545097 -0.400411 0.709627
v -0.098616 -1.181473 0.709627
v 0.345097 -0.400411 0.610401
v 0.345097 -0.400411 0.709627
v -0.100000 0.000000 0.709627
v -0.100000 -0.800822 0.709627
v -0.100000 -0.400411 0.709627
vn -0.0000 -0.0000 -1.0000
vn 0.7072 -0.0000 0.7070
vn 0.7071 -0.0000 0.7071
vn 1.0000 -0.0000 -0.0000
vn -0.7071 -0.0000 0.7071
vn -0.8764 -0.0000 0.4815
vn -1.0000 -0.0000 -0.0000
vn 0.0006 1.0000 0.0025
vn -0.0000 1.0000 -0.0000
vn -0.0006 1.0000 0.0026
vn -0.0000 -1.0000 -0.0000
vn 0.0006 -1.0000 0.0025
vn -0.0006 -1.0000 0.0026
vn -0.0000 -0.0000 1.0000
vt 0.573326 0.499550
vt 0.486507 0.041962
vt 0.302999 0.499550
vt 0.486505 0.041961
vt 0.032672 0.499550
vt 0.486507 0.073417
vt 0.486505 0.073416
vt 0.677633 0.073418
vt 0.486507 0.073417
vt 0.302999 0.297993
vt 0.486507 0.041962
vt 0.032672 0.297993
vt 0.677633 0.041963
vt 0.677633 0.073418
vt 0.295381 0.073415
vt 0.573326 0.297993
vt 0.677633 0.041963
vt 0.295382 0.041960
vt 0.302999 0.698123
vt 0.302999 0.297993
vt 0.486507 0.041962
vt 0.573326 0.297993
vt 0.677633 0.041963
vt 0.295382 0.041960
vt 0.573326 0.499550
vt 0.486507 0.041962
vt 0.302999 0.499550
vt 0.032672 0.297993
vt 0.677633 0.041963
vt 0.486505 0.041961
vt 0.032672 0.499550
vt 0.677633 0.073418
vt 0.295381 0.073415
vt 0.486507 0.073417
vt 0.486505 0.073416
vt 0.677633 0.073418
vt 0.298208 0.041962
vt 0.032672 0.698123
vt 0.298208 0.073418
vt 0.486507 0.073417
vt 0.573326 0.698123
vt 0.298210 0.041960
vt 0.000000 0.000000
vt 0.298210 0.073415
vt 0.000000 0.000000
vt 0.000000 0.000000
vt 0.000000 0.000000
s 1
usemtl Kitchen_TableChair
f 76/104/35 79/110/35 69/95/35
f 69/95/35 70/97/35 76/104/35
f 77/106/35 76/104/35 70/97/35
f 70/97/35 71/99/35 77/106/35
f 78/108/36 72/100/37 69/96/38
f 69/96/38 79/111/38 78/108/36
f 73/101/39 74/102/40 77/107/41
f 77/107/41 71/98/41 73/101/39
f 71/98/41 91/131/41 92/133/39
f 92/133/39 73/101/39 71/98/41
s 0
f 74/102/42 75/103/42 76/105/42
f 76/105/43 77/107/43 74/102/43
f 78/109/43 79/112/43 76/105/43
f 76/105/44 75/103/44 78/109/44
s 1
f 70/97/35 69/95/35 94/135/35
f 94/135/35 80/113/35 70/97/35
f 71/99/35 70/97/35 80/113/35
f 80/113/35 91/132/35 71/99/35
f 69/96/38 72/100/37 95/138/37
f 95/138/37 94/136/38 69/96/38
f 81/114/35 84/121/35 83/119/35
f 83/119/35 82/116/35 81/114/35
f 85/122/35 86/125/35 84/121/35
f 84/121/35 81/114/35 85/122/35
f 87/126/36 82/117/38 83/120/38
f 83/120/38 88/128/37 87/126/36
f 89/129/39 86/124/41 85/123/41
f 85/123/41 90/130/40 89/129/39
f 86/124/41 89/129/39 92/133/39
f 92/133/39 91/131/41 86/124/41
s 0
f 90/130/45 85/123/45 81/115/45
f 81/115/46 93/134/46 90/130/46
f 87/127/47 93/134/47 81/115/47
f 81/115/45 82/118/45 87/127/45
s 1
f 84/121/35 80/113/35 94/135/35
f 94/135/35 83/119/35 84/121/35
f 86/125/35 91/132/35 80/113/35
f 80/113/35 84/121/35 86/125/35
f 83/120/38 94/136/38 95/138/37
f 95/138/37 88/128/37 83/120/38
s 0
f 90/130/48 93/134/48 97/140/48
s 1
f 87/127/36 88/128/37 93/134/48
f 97/140/48 93/134/48 88/128/37
f 89/129/39 90/130/40 97/140/48
f 89/129/39 97/140/48 98/141/48
f 92/133/39 89/129/39 98/141/48
f 98/141/48 97/140/48 95/137/37
f 88/128/37 95/137/37 97/140/48
f 78/109/36 75/103/48 72/100/37
f 96/139/48 72/100/37 75/103/48
f 95/138/37 72/100/37 96/139/48
f 98/141/48 95/138/37 96/139/48
s 0
f 75/103/48 74/102/48 96/139/48
s 1
f 73/101/39 96/139/48 74/102/40
f 73/101/39 98/141/48 96/139/48
f 73/101/39 92/133/39 98/141/48
o Kitchen_table_rectangle.003
v -0.429417 0.299242 0.669570
v -0.424013 0.279072 0.669570
v -0.444183 0.314007 0.669570
v -0.464352 0.319411 0.669570
v -0.484522 0.314007 0.669570
v -0.499287 0.299242 0.669570
v -0.504691 0.279072 0.669570
v -0.499287 0.258902 0.669570
v -0.484522 0.244137 0.669570
v -0.464352 0.238733 0.669570
v -0.444183 0.244137 0.669570
v -0.429417 0.258902 0.669570
v -0.464352 0.279072 0.669570
v -0.436023 0.279072 -0.000370
v -0.439818 0.293237 -0.000370
v -0.450188 0.303606 -0.000370
v -0.464352 0.307401 -0.000370
v -0.478517 0.303606 -0.000370
v -0.488886 0.293237 -0.000370
v -0.492681 0.279072 -0.000370
v -0.488886 0.264907 -0.000370
v -0.478517 0.254538 -0.000370
v -0.464352 0.250743 -0.000370
v -0.450188 0.254538 -0.000370
v -0.439818 0.264907 -0.000370
v -0.464352 0.279072 -0.000371
vn -0.0000 -0.0000 1.0000
vn 0.9658 0.2588 -0.0173
vn 0.2588 0.9658 -0.0173
vn 0.7070 0.7070 -0.0173
vn -0.7070 0.7070 -0.0173
vn -0.2588 0.9658 -0.0173
vn -0.9658 -0.2588 -0.0173
vn -0.9658 0.2588 -0.0173
vn -0.2588 -0.9658 -0.0173
vn -0.7070 -0.7070 -0.0173
vn 0.7070 -0.7070 -0.0173
vn 0.2588 -0.9658 -0.0173
vn 0.9658 -0.2588 -0.0173
vn -0.0000 -0.0000 -1.0000
vt 0.000000 0.000000
vt 0.000000 0.000000
vt 0.000000 0.000000
vt 0.000000 0.000000
vt 0.000000 0.000000
vt 0.000000 0.000000
vt 0.000000 0.000000
vt 0.000000 0.000000
vt 0.000000 0.000000
vt 0.000000 0.000000
vt 0.000000 0.000000
vt 0.000000 0.000000
vt 0.000000 0.000000
vt 0.455239 0.958513
vt 0.453637 0.973273
vt 0.459629 0.986856
vt 0.471609 0.995623
vt 0.486369 0.997226
vt 0.499952 0.991234
vt 0.508719 0.979253
vt 0.510322 0.964493
vt 0.504330 0.950910
vt 0.492349 0.942143
vt 0.477589 0.940540
vt 0.464007 0.946532
vt 0.481979 0.968883
s 0
usemtl Kitchen_TableChair
f 100/143/49 99/142/49 111/154/49
f 103/146/49 104/147/49 111/154/49
f 102/145/49 103/146/49 111/154/49
f 105/148/49 106/149/49 111/154/49
f 105/148/49 111/154/49 104/147/49
f 107/150/49 108/151/49 111/154/49
f 106/149/49 107/150/49 111/154/49
f 109/152/49 110/153/49 111/154/49
f 108/151/49 109/152/49 111/154/49
f 99/142/50 100/143/50 112/155/50 113/156/50
f 110/153/49 100/143/49 111/154/49
f 102/145/51 101/144/51 114/157/51 115/158/51
f 101/144/52 99/142/52 113/156/52 114/157/52
f 104/147/53 103/146/53 116/159/53 117/160/53
f 103/146/54 102/145/54 115/158/54 116/159/54
f 106/149/55 105/148/55 118/161/55 119/162/55
f 105/148/56 104/147/56 117/160/56 118/161/56
f 108/151/57 107/150/57 120/163/57 121/164/57
f 107/150/58 106/149/58 119/162/58 120/163/58
f 110/153/59 109/152/59 122/165/59 123/166/59
f 109/152/60 108/151/60 121/164/60 122/165/60
f 100/143/61 110/153/61 123/166/61 112/155/61
f 99/142/49 101/144/49 111/154/49
f 101/144/49 102/145/49 111/154/49
f 113/156/62 112/155/62 124/167/62
f 114/157/62 113/156/62 124/167/62
f 115/158/62 114/157/62 124/167/62
f 116/159/62 115/158/62 124/167/62
f 117/160/62 116/159/62 124/167/62
f 118/161/62 117/160/62 124/167/62
f 119/162/62 118/161/62 124/167/62
f 120/163/62 119/162/62 124/167/62
f 121/164/62 120/163/62 124/167/62
f 122/165/62 121/164/62 124/167/62
f 123/166/62 122/165/62 124/167/62
f 112/155/62 123/166/62 124/167/62
o Kitchen_table_rectangle.004
v 0.293634 0.299242 0.669570
v 0.299039 0.279072 0.669570
v 0.278869 0.314007 0.669570
v 0.258699 0.319411 0.669570
v 0.238530 0.314007 0.669570
v 0.223764 0.299242 0.669570
v 0.218360 0.279072 0.669570
v 0.223764 0.258902 0.669570
v 0.238530 0.244137 0.669570
v 0.258699 0.238733 0.669570
v 0.278869 0.244137 0.669570
v 0.293634 0.258902 0.669570
v 0.258699 0.279072 0.669570
v 0.287029 0.279072 -0.000370
v 0.283233 0.293237 -0.000370
v 0.272864 0.303606 -0.000370
v 0.258699 0.307401 -0.000370
v 0.244535 0.303606 -0.000370
v 0.234165 0.293237 -0.000370
v 0.230370 0.279072 -0.000370
v 0.234165 0.264907 -0.000370
v 0.244535 0.254538 -0.000370
v 0.258699 0.250743 -0.000370
v 0.272864 0.254538 -0.000370
v 0.283233 0.264907 -0.000370
v 0.258699 0.279072 -0.000371
vn -0.0000 -0.0000 1.0000
vn 0.2588 -0.9658 -0.0173
vn 0.9658 -0.2588 -0.0173
vn 0.7070 -0.7070 -0.0173
vn 0.7070 0.7070 -0.0173
vn 0.9658 0.2588 -0.0173
vn -0.2588 0.9658 -0.0173
vn 0.2588 0.9658 -0.0173
vn -0.9658 0.2588 -0.0173
vn -0.7070 0.7070 -0.0173
vn -0.7070 -0.7070 -0.0173
vn -0.9658 -0.2588 -0.0173
vn -0.2588 -0.9658 -0.0173
vn -0.0000 -0.0000 -1.0000
vt 0.000000 0.000000
vt 0.000000 0.000000
vt 0.000000 0.000000
vt 0.000000 0.000000
vt 0.000000 0.000000
vt 0.000000 0.000000
vt 0.000000 0.000000
vt 0.000000 0.000000
vt 0.000000 0.000000
vt 0.000000 0.000000
vt 0.000000 0.000000
vt 0.000000 0.000000
vt 0.000000 0.000000
vt 0.455239 0.958513
vt 0.453637 0.973273
vt 0.459629 0.986856
vt 0.471609 0.995623
vt 0.486369 0.997226
vt 0.499952 0.991234
vt 0.508719 0.979253
vt 0.510322 0.964493
vt 0.504330 0.950910
vt 0.492349 0.942143
vt 0.477589 0.940540
vt 0.464007 0.946532
vt 0.481979 0.968883
s 0
usemtl Kitchen_TableChair
f 134/177/63 135/178/63 137/180/63
f 125/168/63 127/170/63 137/180/63
f 126/169/63 125/168/63 137/180/63
f 128/171/63 129/172/63 137/180/63
f 127/170/63 128/171/63 137/180/63
f 130/173/63 131/174/63 137/180/63
f 129/172/63 130/173/63 137/180/63
f 132/175/63 133/176/63 137/180/63
f 131/174/63 132/175/63 137/180/63
f 135/178/64 134/177/64 147/190/64 148/191/64
f 134/177/63 137/180/63 133/176/63
f 126/169/65 136/179/65 149/192/65 138/181/65
f 136/179/66 135/178/66 148/191/66 149/192/66
f 127/170/67 125/168/67 139/182/67 140/183/67
f 125/168/68 126/169/68 138/181/68 139/182/68
f 129/172/69 128/171/69 141/184/69 142/185/69
f 128/171/70 127/170/70 140/183/70 141/184/70
f 131/174/71 130/173/71 143/186/71 144/187/71
f 130/173/72 129/172/72 142/185/72 143/186/72
f 133/176/73 132/175/73 145/188/73 146/189/73
f 132/175/74 131/174/74 144/187/74 145/188/74
f 134/177/75 133/176/75 146/189/75 147/190/75
f 135/178/63 136/179/63 137/180/63
f 136/179/63 126/169/63 137/180/63
f 139/182/76 138/181/76 150/193/76
f 140/183/76 139/182/76 150/193/76
f 141/184/76 140/183/76 150/193/76
f 142/185/76 141/184/76 150/193/76
f 143/186/76 142/185/76 150/193/76
f 144/187/76 143/186/76 150/193/76
f 145/188/76 144/187/76 150/193/76
f 146/189/76 145/188/76 150/193/76
f 147/190/76 146/189/76 150/193/76
f 148/191/76 147/190/76 150/193/76
f 149/192/76 148/191/76 150/193/76
f 138/181/76 149/192/76 150/193/76
o Kitchen_table_rectangle.005
v -0.429417 -1.067873 0.669570
v -0.424013 -1.088042 0.669570
v -0.444183 -1.053107 0.669570
v -0.464352 -1.047703 0.669570
v -0.484522 -1.053107 0.669570
v -0.499287 -1.067873 0.669570
v -0.504691 -1.088042 0.669570
v -0.499287 -1.108212 0.669570
v -0.484522 -1.122977 0.669570
v -0.464352 -1.128382 0.669570
v -0.444183 -1.122977 0.669570
v -0.429417 -1.108212 0.669570
v -0.464352 -1.088042 0.669570
v -0.436023 -1.088042 -0.000371
v -0.439818 -1.073878 -0.000371
v -0.450188 -1.063509 -0.000371
v -0.464352 -1.059713 -0.000371
v -0.478517 -1.063509 -0.000371
v -0.488886 -1.073878 -0.000371
v -0.492681 -1.088042 -0.000371
v -0.488886 -1.102207 -0.000371
v -0.478517 -1.112576 -0.000371
v -0.464352 -1.116372 -0.000371
v -0.450188 -1.112576 -0.000371
v -0.439818 -1.102207 -0.000371
v -0.464352 -1.088042 -0.000371
vn -0.0000 -0.0000 1.0000
vn 0.9658 0.2588 -0.0173
vn 0.2588 0.9658 -0.0173
vn 0.7070 0.7070 -0.0173
vn -0.7070 0.7070 -0.0173
vn -0.2588 0.9658 -0.0173
vn -0.9658 -0.2588 -0.0173
vn -0.9658 0.2588 -0.0173
vn -0.2588 -0.9658 -0.0173
vn -0.7070 -0.7070 -0.0173
vn 0.7070 -0.7070 -0.0173
vn 0.2588 -0.9658 -0.0173
vn 0.9658 -0.2588 -0.0173
vn -0.0000 -0.0000 -1.0000
vt 0.000000 0.000000
vt 0.000000 0.000000
vt 0.000000 0.000000
vt 0.000000 0.000000
vt 0.000000 0.000000
vt 0.000000 0.000000
vt 0.000000 0.000000
vt 0.000000 0.000000
vt 0.000000 0.000000
vt 0.000000 0.000000
vt 0.000000 0.000000
vt 0.000000 0.000000
vt 0.000000 0.000000
vt 0.455239 0.958513
vt 0.453637 0.973273
vt 0.459629 0.986856
vt 0.471609 0.995623
vt 0.486369 0.997226
vt 0.499952 0.991234
vt 0.508719 0.979253
vt 0.510322 0.964493
vt 0.504330 0.950910
vt 0.492349 0.942143
vt 0.477589 0.940540
vt 0.464007 0.946532
vt 0.481979 0.968883
s 0
usemtl Kitchen_TableChair
f 161/204/77 162/205/77 163/206/77
f 151/194/78 152/195/78 164/207/78 165/208/78
f 162/205/77 152/195/77 163/206/77
f 154/197/79 153/196/79 166/209/79 167/210/79
f 153/196/80 151/194/80 165/208/80 166/209/80
f 156/199/81 155/198/81 168/211/81 169/212/81
f 155/198/82 154/197/82 167/210/82 168/211/82
f 158/201/83 157/200/83 170/213/83 171/214/83
f 157/200/84 156/199/84 169/212/84 170/213/84
f 160/203/85 159/202/85 172/215/85 173/216/85
f 159/202/86 158/201/86 171/214/86 172/215/86
f 162/205/87 161/204/87 174/217/87 175/218/87
f 161/204/88 160/203/88 173/216/88 174/217/88
f 152/195/89 162/205/89 175/218/89 164/207/89
f 165/208/90 164/207/90 176/219/90
f 166/209/90 165/208/90 176/219/90
f 167/210/90 166/209/90 176/219/90
f 168/211/90 167/210/90 176/219/90
f 169/212/90 168/211/90 176/219/90
f 170/213/90 169/212/90 176/219/90
f 171/214/90 170/213/90 176/219/90
f 172/215/90 171/214/90 176/219/90
f 173/216/90 172/215/90 176/219/90
f 174/217/90 173/216/90 176/219/90
f 175/218/90 174/217/90 176/219/90
f 164/207/90 175/218/90 176/219/90
f 160/203/77 161/204/77 163/206/77
f 159/202/77 160/203/77 163/206/77
f 158/201/77 159/202/77 163/206/77
f 157/200/77 158/201/77 163/206/77
f 157/200/77 163/206/77 156/199/77
f 155/198/77 156/199/77 163/206/77
f 154/197/77 155/198/77 163/206/77
f 153/196/77 154/197/77 163/206/77
f 151/194/77 153/196/77 163/206/77
f 152/195/77 151/194/77 163/206/77
