# Blender 3.4.1
# www.blender.org
mtllib GarlicClove.mtl
o leek.002
v 0.010494 0.011592 0.043982
v -0.010494 0.011592 0.043982
v -0.023865 -0.012940 0.024919
v 0.023865 -0.012940 0.024919
v -0.025516 -0.015969 -0.007084
v -0.015555 0.002308 -0.030909
v 0.015555 0.002308 -0.030909
v 0.025516 -0.015969 -0.007084
v -0.015555 0.015009 -0.030909
v 0.015555 0.015009 -0.030909
vn -0.0000 -0.6136 0.7896
vn -0.0000 -0.7934 -0.6087
vn -0.0000 -0.9956 0.0942
vn -0.0000 -0.0000 -1.0000
vn -0.0000 0.9990 0.0456
vn 0.9326 0.3604 0.0183
vn -0.9326 0.3604 0.0183
vt 0.709422 -0.386636
vt 0.709422 0.386636
vt 0.709422 0.386636
vt 0.709422 -0.386636
vt 0.386636 0.709422
vt 0.709422 -0.386636
vt 0.386636 0.709422
vt -0.435827 26.980150
vt -1.307480 24.889299
vt 0.435827 26.980150
vt -0.435827 26.980150
vt -1.307480 24.889299
vt 0.435827 26.980150
vt 0.709422 0.386636
vt 0.435827 26.980150
vt -0.435827 26.980150
s 0
usemtl _defaultMat.012
f 3/3/1 4/4/1 1/1/1 2/2/1
f 8/12/2 6/10/2 7/11/2
f 6/9/2 8/13/2 5/8/2
f 4/5/3 5/6/3 8/14/3
f 5/7/3 4/4/3 3/3/3
f 7/11/4 6/10/4 9/15/4 10/16/4
f 1/1/5 10/16/5 9/15/5 2/2/5
f 8/14/6 7/11/6 10/16/6 1/1/6 4/5/6
f 2/2/7 9/15/7 6/10/7 5/8/7 3/3/7
