# Blender 3.4.1
# www.blender.org
mtllib Garlic.mtl
o leek.001
v 0.012002 -0.022022 0.085649
v 0.022022 -0.012002 0.085649
v 0.022022 0.012002 0.085649
v -0.022022 0.012002 0.085649
v -0.022022 -0.012002 0.085649
v -0.012002 -0.022022 0.085649
v 0.012002 0.022022 0.085649
v -0.012002 0.022022 0.085649
v -0.027293 0.050078 0.063847
v 0.027293 0.050078 0.063847
v -0.027293 -0.050078 0.063847
v -0.050078 -0.027293 0.063847
v -0.050078 0.027293 0.063847
v 0.050078 0.027293 0.063847
v 0.050078 -0.027293 0.063847
v 0.027293 -0.050078 0.063847
v -0.029181 -0.053542 0.027247
v -0.017789 -0.032640 -0.000000
v -0.053542 -0.029181 0.027247
v -0.032640 -0.017789 -0.000000
v 0.017789 -0.032640 -0.000000
v 0.029181 -0.053542 0.027247
v 0.053542 -0.029181 0.027247
v 0.053542 0.029181 0.027247
v 0.032640 -0.017789 -0.000000
v 0.032640 0.017789 -0.000000
v -0.032640 0.017789 -0.000000
v -0.017789 0.032640 -0.000000
v -0.053542 0.029181 0.027247
v -0.029181 0.053542 0.027247
v 0.017789 0.032640 -0.000000
v 0.029181 0.053542 0.027247
v 0.005650 -0.010367 0.119151
v 0.010367 -0.005650 0.119151
v 0.010367 0.005650 0.119151
v -0.010367 0.005650 0.119151
v -0.010367 -0.005650 0.119151
v -0.005650 -0.010367 0.119151
v 0.005650 0.010367 0.119151
v -0.005650 0.010367 0.119151
v 0.003577 -0.006564 0.169045
v 0.006564 -0.003577 0.169045
v 0.006564 0.003577 0.169045
v -0.006564 0.003577 0.169045
v -0.006564 -0.003577 0.169045
v -0.003577 -0.006564 0.169045
v 0.003577 0.006564 0.169045
v -0.003577 0.006564 0.169045
vn 0.4099 0.4099 0.8149
vn -0.0000 0.9445 0.3286
vn -0.4099 0.4099 0.8149
vn -0.6136 -0.0000 0.7896
vn -0.4099 -0.4099 0.8149
vn -0.0000 -0.6136 0.7896
vn -0.9445 -0.0000 0.3286
vn 0.6610 -0.6610 0.3553
vn -0.6610 0.6610 0.3553
vn 0.9445 -0.0000 0.3286
vn -0.6610 -0.6610 0.3553
vn -0.0000 -0.9445 0.3286
vn -0.0000 0.6136 0.7896
vn 0.4099 -0.4099 0.8149
vn 0.6136 -0.0000 0.7896
vn 0.6610 0.6610 0.3553
vn -0.5419 -0.5419 -0.6423
vn -0.0000 -0.7934 -0.6087
vn 0.7934 -0.0000 -0.6087
vn -0.5419 0.5419 -0.6423
vn -0.0000 0.7934 -0.6087
vn -0.0000 -0.0000 -1.0000
vn -0.0000 0.9956 0.0942
vn -0.7034 -0.7034 0.1029
vn -0.7934 -0.0000 -0.6087
vn -0.7034 0.7034 0.1029
vn 0.9956 -0.0000 0.0942
vn 0.5419 0.5419 -0.6423
vn -0.9956 -0.0000 0.0942
vn 0.5419 -0.5419 -0.6423
vn 0.7034 -0.7034 0.1029
vn 0.7034 0.7034 0.1029
vn -0.0000 -0.9956 0.0942
vn -0.0000 -0.9971 0.0760
vn 0.7047 -0.7047 0.0830
vn -0.7047 0.7047 0.0830
vn -0.0000 0.9971 0.0760
vn 0.9971 -0.0000 0.0760
vn -0.7047 -0.7047 0.0830
vn 0.7047 0.7047 0.0830
vn -0.9971 -0.0000 0.0760
vn -0.0000 -0.0000 1.0000
vt 0.709422 -0.386636
vt 0.871654 23.447029
vt 0.577198 16.325109
vt 0.871654 23.447029
vt 0.577198 16.325109
vt 0.709422 0.386636
vt 0.577198 16.325109
vt -0.577198 16.325109
vt 0.577198 16.325109
vt -0.577198 16.325109
vt 0.709422 0.386636
vt 0.577198 16.325109
vt 0.709422 -0.386636
vt 0.871654 23.447029
vt -0.577198 16.325109
vt 0.871654 23.447029
vt -0.577198 16.325109
vt 0.577198 16.325109
vt 0.709422 -0.386636
vt 0.386636 0.709422
vt 0.871654 23.447029
vt -0.577198 16.325109
vt 0.709422 0.386636
vt 0.577198 16.325109
vt 0.871654 23.447029
vt -0.577198 16.325109
vt 0.577198 16.325109
vt 0.577198 16.325109
vt 0.709422 0.386636
vt -0.577198 16.325109
vt 0.871654 23.447029
vt 0.577198 16.325109
vt -0.577198 16.325109
vt 0.871654 23.447029
vt 0.386636 0.709422
vt 0.709422 -0.386636
vt -0.435827 26.980150
vt 0.577198 16.325109
vt 0.709422 -0.386636
vt 0.386636 0.709422
vt 0.435827 26.980150
vt -1.307480 24.889299
vt 0.577198 16.325109
vt 0.871654 23.447029
vt -1.307480 24.889299
vt 0.435827 26.980150
vt -0.577198 16.325109
vt 0.871654 23.447029
vt 0.577198 16.325109
vt -0.435827 26.980150
vt -0.577198 16.325109
vt 0.871654 23.447029
vt -0.435827 26.980150
vt 0.577198 16.325109
vt 0.871654 23.447029
vt -0.577198 16.325109
vt -1.307480 24.889299
vt 0.435827 26.980150
vt 0.577198 16.325109
vt 0.709422 0.386636
vt -0.435827 26.980150
vt 0.577198 16.325109
vt 0.871654 23.447029
vt -0.577198 16.325109
vt 0.435827 26.980150
vt -1.307480 24.889299
vt -0.577198 16.325109
vt 0.871654 23.447029
vt 0.386636 0.709422
vt 0.709422 -0.386636
vt -1.307480 24.889299
vt 0.435827 26.980150
vt 0.577198 16.325109
vt -0.435827 26.980150
vt -0.577198 16.325109
vt 0.577198 16.325109
vt -0.435827 26.980150
vt 0.577198 16.325109
vt 0.435827 26.980150
vt -1.307480 24.889299
vt -0.435827 26.980150
vt 0.871654 23.447029
vt -0.577198 16.325109
vt -1.307480 24.889299
vt 0.435827 26.980150
vt -0.577198 16.325109
vt 0.871654 23.447029
vt -0.435827 26.980150
vt -1.307480 24.889299
vt 0.435827 26.980150
vt 0.577198 16.325109
vt 0.435827 26.980150
vt -1.307480 24.889299
vt 0.577198 16.325109
vt 0.871654 23.447029
vt -0.577198 16.325109
vt -0.435827 26.980150
vt -0.577198 16.325109
vt 0.871654 23.447029
vt 0.577198 16.325109
vt 0.709422 0.386636
vt 0.709422 -0.386636
vt 0.871654 23.447029
vt 0.577198 16.325109
vt 0.871654 23.447029
vt 0.577198 16.325109
vt 0.709422 0.386636
vt 0.577198 16.325109
vt 0.577198 16.325109
vt -0.577198 16.325109
vt 0.709422 0.386636
vt -0.577198 16.325109
vt 0.577198 16.325109
vt 0.709422 -0.386636
vt 0.871654 23.447029
vt -0.577198 16.325109
vt 0.871654 23.447029
vt 0.709422 -0.386636
vt 0.871654 23.447029
vt 0.577198 16.325109
vt 0.577198 16.325109
vt 0.709422 0.386636
vt 0.577198 16.325109
vt 0.577198 16.325109
vt -0.577198 16.325109
vt 0.709422 0.386636
vt -0.577198 16.325109
vt 0.577198 16.325109
vt 0.709422 -0.386636
vt 0.871654 23.447029
vt -0.577198 16.325109
s 0
usemtl _defaultMat.010
f 14/29/1 10/19/1 7/13/1 3/6/1
f 7/12/2 8/15/2 40/116/2 39/113/2
f 9/16/3 13/27/3 4/7/3 8/14/3
f 13/27/4 12/26/4 5/8/4 4/7/4
f 12/24/5 11/22/5 6/10/5 5/9/5
f 11/23/6 16/36/6 1/1/6 6/11/6
f 4/7/7 5/8/7 37/110/7 36/108/7
f 1/2/8 2/3/8 34/104/8 33/103/8
f 8/14/9 4/7/9 36/108/9 40/115/9
f 2/4/10 3/5/10 35/106/10 34/105/10
f 5/9/11 6/10/11 38/112/11 37/109/11
f 6/11/12 1/1/12 33/102/12 38/111/12
f 10/18/13 9/17/13 8/15/13 7/12/13
f 16/34/14 15/32/14 2/3/14 1/2/14
f 15/31/15 14/28/15 3/5/15 2/4/15
f 3/6/16 7/13/16 39/114/16 35/107/16
f 19/45/17 18/41/17 17/37/17
f 18/42/17 19/46/17 20/50/17
f 22/57/18 18/41/18 21/53/18
f 18/42/18 22/58/18 17/37/18
f 25/71/19 24/65/19 23/61/19
f 24/66/19 25/72/19 26/74/19
f 29/84/20 28/79/20 27/77/20
f 28/80/20 29/85/20 30/88/20
f 30/89/21 31/92/21 28/81/21
f 31/93/21 30/90/21 32/97/21
f 28/82/22 20/51/22 27/78/22
f 20/52/22 28/83/22 18/43/22
f 18/44/22 28/83/22 31/94/22
f 18/44/22 31/96/22 21/54/22
f 21/55/22 31/96/22 26/76/22
f 21/55/22 26/75/22 25/73/22
f 9/16/23 32/98/23 30/91/23
f 32/99/23 9/17/23 10/18/23
f 11/21/24 19/47/24 17/38/24
f 19/48/24 11/22/24 12/24/24
f 29/87/25 20/51/25 19/49/25
f 20/52/25 29/86/25 27/78/25
f 9/16/26 29/86/26 13/27/26
f 29/87/26 9/17/26 30/91/26
f 24/68/27 15/30/27 23/62/27
f 15/31/27 24/67/27 14/28/27
f 31/95/28 24/67/28 26/76/28
f 24/68/28 31/96/28 32/100/28
f 12/25/29 29/86/29 19/49/29
f 29/87/29 12/26/29 13/27/29
f 21/55/30 23/64/30 22/59/30
f 23/63/30 21/56/30 25/73/30
f 23/63/31 16/33/31 22/59/31
f 16/34/31 23/64/31 15/32/31
f 24/69/32 10/19/32 14/29/32
f 10/20/32 24/70/32 32/101/32
f 16/35/33 17/39/33 22/60/33
f 17/40/33 16/36/33 11/23/33
f 38/111/34 33/102/34 41/118/34 46/126/34
f 33/103/35 34/104/35 42/120/35 41/117/35
f 40/115/36 36/108/36 44/123/36 48/130/36
f 39/113/37 40/116/37 48/131/37 47/128/37
f 34/105/38 35/106/38 43/121/38 42/119/38
f 37/109/39 38/112/39 46/127/39 45/124/39
f 35/107/40 39/114/40 47/129/40 43/122/40
f 36/108/41 37/110/41 45/125/41 44/123/41
f 43/122/42 47/129/42 48/131/42 44/123/42 45/125/42 46/127/42 41/118/42 42/120/42
