# Blender 3.4.1
# www.blender.org
mtllib GarlicPeelCollider.mtl
o leek.002
v -0.029181 -0.010928 -0.016765
v -0.017789 0.009974 -0.044012
v 0.017789 0.009974 -0.044012
v 0.029181 -0.010928 -0.016765
v -0.029181 -0.017015 -0.017112
v -0.017789 0.003887 -0.044359
v 0.017789 0.003887 -0.044359
v 0.029181 -0.017015 -0.017112
vn -0.0000 0.7934 0.6087
vn -0.0000 -0.7934 -0.6087
vn 0.9281 0.0212 -0.3718
vn -0.9281 0.0212 -0.3718
vn -0.0000 0.0569 -0.9984
vn -0.0000 -0.0569 0.9984
vt -0.435827 26.980150
vt -1.307480 24.889299
vt 0.435827 26.980150
vt -0.435827 26.980150
vt 0.435827 26.980150
vt -1.307480 24.889299
vt -0.435827 26.980150
vt -1.307480 24.889299
vt 0.435827 26.980150
vt -0.435827 26.980150
vt 0.435827 26.980150
vt -1.307480 24.889299
s 0
usemtl _defaultMat.011
f 4/6/1 3/4/1 2/3/1
f 2/2/1 1/1/1 4/5/1
f 8/12/2 6/9/2 7/10/2
f 6/8/2 8/11/2 5/7/2
f 3/4/3 4/6/3 8/12/3 7/10/3
f 1/1/4 2/2/4 6/8/4 5/7/4
f 2/3/5 3/4/5 7/10/5 6/9/5
f 8/12/6 4/6/6 1/1/6 5/7/6
o leek.001
v 0.012002 0.020592 0.041637
v -0.012002 0.020592 0.041637
v -0.027293 -0.007464 0.019835
v 0.027293 -0.007464 0.019835
v -0.012002 0.014505 0.041290
v -0.027293 -0.013551 0.019488
v 0.027293 -0.013551 0.019488
v 0.012002 0.014505 0.041290
vn -0.0000 0.6136 -0.7896
vn -0.0000 -0.6136 0.7896
vn 0.7969 -0.0344 0.6031
vn -0.7969 -0.0344 0.6031
vn -0.0000 -0.0569 0.9984
vn -0.0000 0.0569 -0.9984
vt 0.709422 -0.386636
vt 0.709422 0.386636
vt 0.709422 0.386636
vt 0.709422 -0.386636
vt 0.709422 0.386636
vt 0.709422 0.386636
vt 0.709422 -0.386636
vt 0.709422 -0.386636
s 0
usemtl _defaultMat.011
f 11/15/7 10/14/7 9/13/7 12/16/7
f 14/18/8 15/19/8 16/20/8 13/17/8
f 12/16/9 9/13/9 16/20/9 15/19/9
f 10/14/10 11/15/10 14/18/10 13/17/10
f 9/13/11 10/14/11 13/17/11 16/20/11
f 12/16/12 15/19/12 14/18/12 11/15/12
o leek.003
v -0.027293 -0.007464 0.019835
v 0.027293 -0.007464 0.019835
v -0.029181 -0.010928 -0.016765
v 0.029181 -0.010928 -0.016765
v -0.027293 -0.013551 0.019488
v 0.027293 -0.013551 0.019488
v -0.029181 -0.017015 -0.017112
v 0.029181 -0.017015 -0.017112
vn -0.0000 0.9956 -0.0942
vn -0.0000 -0.9956 0.0942
vn 0.9987 -0.0030 0.0518
vn -0.9987 -0.0030 0.0518
vn -0.0000 -0.0569 0.9984
vn -0.0000 0.0569 -0.9984
vt 0.709422 0.386636
vt 0.709422 -0.386636
vt 0.386636 0.709422
vt 0.386636 0.709422
vt 0.709422 -0.386636
vt 0.709422 0.386636
vt 0.709422 0.386636
vt 0.709422 -0.386636
vt 0.386636 0.709422
vt 0.709422 -0.386636
vt 0.386636 0.709422
vt 0.709422 0.386636
s 0
usemtl _defaultMat.011
f 18/23/13 20/26/13 19/25/13
f 19/24/13 17/21/13 18/22/13
f 22/29/14 23/30/14 24/32/14
f 23/31/14 22/28/14 21/27/14
f 20/26/15 18/23/15 22/29/15 24/32/15
f 17/21/16 19/24/16 23/31/16 21/27/16
f 18/23/17 17/21/17 21/27/17 22/29/17
f 24/32/18 23/31/18 19/25/18 20/26/18
