# Blender v2.78 (sub 0) OBJ File: ''
# www.blender.org
mtllib butter.mtl
o Cube_Cube.002
v -0.074567 0.049292 0.026861
v -0.063046 -0.037211 -0.038942
v 0.074567 0.049292 -0.026861
v -0.074567 -0.049292 -0.026861
v 0.063046 0.037211 -0.038942
v -0.063046 0.037211 0.038942
v 0.063046 -0.037211 0.038942
v 0.074567 -0.049292 0.026861
v 0.063050 -0.037210 -0.038942
v -0.063050 0.037210 -0.038942
v 0.074570 -0.049290 -0.026861
v -0.074570 0.049290 -0.026861
v -0.074570 -0.049290 0.026861
v -0.063050 -0.037210 0.038942
v 0.074570 0.049290 0.026861
v 0.063050 0.037210 0.038942
vn -0.0000 -0.7071 0.7071
vn -0.7237 0.0000 0.6901
vn -0.7237 0.0000 0.6902
vn 0.0000 0.7071 0.7071
vn 0.7237 -0.0000 0.6902
vn 0.7237 -0.0000 0.6901
vn -0.0000 0.0000 1.0000
vn -0.0000 0.7071 -0.7071
vn -0.7237 -0.0000 -0.6901
vn -0.7237 -0.0000 -0.6902
vn 0.0000 -0.7071 -0.7071
vn 0.7237 0.0000 -0.6902
vn 0.7237 0.0000 -0.6901
vn -0.0000 0.0000 -1.0000
vn -1.0000 0.0000 0.0001
vn -1.0000 -0.0000 -0.0001
vn -0.0000 -1.0000 0.0000
vn 1.0000 -0.0000 0.0001
vn 1.0000 0.0000 -0.0001
vn 0.0000 1.0000 0.0000
usemtl yellow
s off
f 13//1 7//1 14//1
f 1//2 13//2 14//2
f 1//3 14//3 6//3
f 7//1 13//1 8//1
f 15//4 6//4 16//4
f 6//4 15//4 1//4
f 8//5 16//5 7//5
f 8//6 15//6 16//6
f 7//7 16//7 14//7
f 16//7 6//7 14//7
f 12//8 5//8 10//8
f 4//9 12//9 10//9
f 4//10 10//10 2//10
f 5//8 12//8 3//8
f 11//11 2//11 9//11
f 2//11 11//11 4//11
f 3//12 9//12 5//12
f 3//13 11//13 9//13
f 5//14 9//14 10//14
f 9//14 2//14 10//14
f 12//15 13//15 1//15
f 12//16 4//16 13//16
f 13//17 4//17 8//17
f 4//17 11//17 8//17
f 8//18 11//18 15//18
f 11//19 3//19 15//19
f 15//20 3//20 1//20
f 3//20 12//20 1//20
