# Blender 3.4.1
# www.blender.org
mtllib body.mtl
o shakerPepper.003
v 0.016792 0.023730 -0.028000
v 0.023730 0.016792 0.028000
v 0.023730 0.016792 -0.028000
v 0.016792 0.023730 0.028000
v -0.016792 0.023730 -0.028000
v 0.014860 0.021000 -0.038500
v -0.014860 0.021000 -0.038500
v 0.014860 0.021000 0.038500
v 0.021000 0.014860 0.038500
v 0.021000 -0.014860 0.038500
v 0.023730 -0.016792 0.028000
v 0.023730 -0.016792 -0.028000
v 0.016792 -0.023730 0.028000
v 0.014860 -0.021000 0.038500
v 0.021000 -0.014860 -0.038500
v 0.021000 0.014860 -0.038500
v 0.014860 -0.021000 -0.038500
v 0.016792 -0.023730 -0.028000
v -0.016792 -0.023730 -0.028000
v -0.023730 0.016792 -0.028000
v -0.023730 -0.016792 0.028000
v -0.023730 0.016792 0.028000
v -0.023730 -0.016792 -0.028000
v -0.016792 -0.023730 0.028000
v -0.014860 -0.021000 0.038500
v -0.021000 -0.014860 0.038500
v -0.021000 0.014860 0.038500
v -0.014860 -0.021000 -0.038500
v -0.014860 0.021000 0.038500
v -0.016792 0.023730 0.028000
v -0.021000 0.014860 -0.038500
v -0.021000 -0.014860 -0.038500
vn 0.7071 0.7071 -0.0000
vn -0.0000 0.9678 -0.2516
vn 0.6746 0.6746 0.2995
vn 0.9678 -0.0000 0.2516
vn 1.0000 -0.0000 -0.0000
vn 0.6746 -0.6746 0.2995
vn 0.9678 -0.0000 -0.2516
vn 0.6746 -0.6746 -0.2995
vn -0.0000 -1.0000 -0.0000
vn -0.3827 -0.9239 -0.0000
vn -0.9239 0.3827 -0.0000
vn -0.9239 -0.3827 -0.0000
vn -0.3827 0.9239 -0.0000
vn -0.0000 -0.9678 0.2516
vn -0.9678 -0.0000 0.2516
vn -0.0000 -0.9678 -0.2516
vn -0.0000 0.9678 0.2516
vn -0.6746 0.6746 0.2995
vn -0.6746 -0.6746 0.2995
vn 0.6746 0.6746 -0.2995
vn -0.6746 0.6746 -0.2995
vn -0.9678 -0.0000 -0.2516
vn -0.0000 -0.0000 -1.0000
vn 0.7071 -0.7071 -0.0000
vn -0.6746 -0.6746 -0.2995
vn -0.0000 -0.0000 1.0000
vn -0.0000 1.0000 -0.0000
vt -1.014300 6.144800
vt -0.998800 7.015400
vt 0.998800 7.015400
vt -1.014300 6.144800
vt 0.998800 7.015400
vt -0.998800 7.015400
vt -0.998800 7.015400
vt 0.998800 7.015400
vt -1.014300 6.144800
vt -0.998800 7.015400
vt -1.014300 6.144800
vt 0.998800 7.015400
vt -1.014300 6.144800
vt -0.998800 7.015400
vt 0.998800 7.015400
vt -1.014300 6.144800
vt 0.998800 7.015400
vt -1.014300 6.943500
vt 1.014300 6.943500
vt -0.998800 7.015400
vt 0.998800 7.015400
vt -1.014300 6.144800
vt -0.956900 6.114700
vt 1.014300 6.943500
vt 0.998800 7.015400
vt -1.014300 6.144800
vt -0.998800 7.015400
vt 0.956900 6.114700
vt -0.998800 7.015400
vt -0.956900 6.114700
vt -1.014300 6.144800
vt 0.998800 7.015400
vt -0.956900 6.114700
vt -1.014300 6.943500
vt 0.998800 7.015400
vt -1.014300 6.144800
vt -0.998800 7.015400
vt -0.956900 6.114700
vt 1.014300 6.943500
vt -0.998800 7.015400
vt -1.014300 6.144800
vt 0.998800 7.015400
vt -1.014300 6.943500
vt 0.998800 7.015400
vt -0.998800 7.015400
vt -1.014300 6.144800
vt -1.014300 6.943500
vt -0.998800 7.015400
vt -1.014300 6.144800
vt 0.998800 7.015400
vt -1.014300 6.943500
vt -1.014300 6.144800
vt 0.998800 7.015400
vt -0.998800 7.015400
vt -1.014300 6.943500
vt -0.998800 7.015400
vt -1.014300 6.943500
vt 1.014300 6.943500
vt 0.998800 7.015400
vt -1.014300 6.144800
vt -0.998800 7.015400
vt -1.014300 6.943500
vt -0.956900 6.114700
vt -0.998800 7.015400
vt -1.014300 6.144800
vt 0.998800 7.015400
vt 1.014300 6.943500
vt -0.956900 6.114700
vt 0.998800 7.015400
vt -0.998800 7.015400
vt -1.014300 6.943500
vt -1.014300 6.144800
vt 0.998800 7.015400
vt 0.000000 0.000000
vt -0.998800 7.015400
vt -1.014300 6.144800
vt 0.998800 7.015400
vt 0.000000 0.000000
vt 0.998800 7.015400
vt -1.014300 6.144800
vt -0.998800 7.015400
vt 1.014300 6.943500
vt -0.956900 6.114700
vt 0.998800 7.015400
vt -1.014300 6.144800
vt -0.998800 7.015400
vt 0.000000 0.000000
vt -1.014300 6.144800
vt 0.998800 7.015400
vt 0.956900 6.114700
vt -1.014300 6.943500
vt -0.998800 7.015400
vt -1.014300 6.144800
vt 0.998800 7.015400
vt -0.998800 7.015400
vt -0.956900 6.114700
vt -0.998800 7.015400
vt -1.014300 6.943500
vt 0.956900 6.114700
vt 0.998800 7.015400
vt -1.014300 6.144800
vt -1.014300 6.943500
vt 1.014300 6.943500
vt -0.956900 6.114700
vt -1.014300 6.144800
vt 0.998800 7.015400
vt -0.956900 6.114700
vt 0.000000 0.000000
vt -0.998800 7.015400
vt -0.998800 7.015400
vt -1.014300 6.943500
vt 0.998800 7.015400
vt -1.014300 6.144800
vt 1.014300 6.943500
vt -0.956900 6.114700
vt -1.014300 6.943500
s 1
usemtl _defaultMat.002
f 1/1/1 2/5/1 3/7/1
f 2/4/1 1/3/1 4/10/1
f 5/13/2 6/17/2 7/20/2
f 6/16/2 5/15/2 1/2/2
f 2/4/3 8/25/3 9/29/3
f 8/26/3 2/5/3 4/10/3
f 2/4/4 10/32/4 11/37/4
f 10/31/4 2/5/4 9/29/4
f 3/9/5 11/35/5 12/40/5
f 11/36/5 3/8/5 2/6/5
f 10/31/6 13/44/6 11/37/6
f 13/46/6 10/32/6 14/48/6
f 15/52/7 3/8/7 12/40/7
f 3/9/7 15/53/7 16/56/7
f 12/41/8 17/59/8 15/54/8
f 17/60/8 12/42/8 18/64/8
f 13/46/9 19/69/10 18/64/9
f 20/72/11 21/74/12 22/79/11
f 5/14/13 20/73/11 22/78/11
f 20/72/11 23/81/12 21/74/12
f 14/49/14 24/84/14 13/45/14
f 24/85/14 14/50/14 25/92/14
f 26/93/15 22/79/15 21/75/15
f 22/80/15 26/94/15 27/97/15
f 18/65/16 28/100/16 17/61/16
f 28/101/16 18/66/16 19/70/16
f 29/105/17 4/12/17 30/109/17
f 4/11/17 29/106/17 8/27/17
f 29/105/18 22/79/18 27/97/18
f 22/80/18 29/106/18 30/109/18
f 25/88/19 21/77/19 24/86/19
f 21/76/19 25/89/19 26/95/19
f 6/16/20 3/8/20 16/56/20
f 3/9/20 6/17/20 1/2/20
f 20/72/21 7/21/21 31/110/21
f 7/22/21 20/73/21 5/14/21
f 20/72/22 32/112/22 23/81/22
f 32/113/22 20/73/22 31/110/22
f 24/87/10 19/71/10 13/46/9
f 7/23/23 32/114/23 31/111/23
f 32/115/23 7/24/23 28/102/23
f 28/104/23 7/24/23 6/18/23
f 28/104/23 6/19/23 17/62/23
f 17/63/23 6/19/23 16/57/23
f 17/63/23 16/58/23 15/55/23
f 11/38/24 18/67/24 12/43/24
f 18/68/24 11/39/24 13/47/24
f 23/83/25 28/103/25 19/71/25
f 28/104/25 23/82/25 32/116/25
f 25/90/26 27/98/26 26/96/26
f 27/99/26 25/91/26 29/107/26
f 29/107/26 25/91/26 8/27/26
f 14/50/26 8/27/26 25/92/26
f 8/28/26 14/51/26 10/33/26
f 8/28/26 10/34/26 9/30/26
f 1/2/27 5/15/13 30/108/13
f 23/83/12 19/71/10 24/87/10
f 30/109/13 4/12/27 1/3/27
f 23/83/12 24/87/10 21/77/12
f 22/80/11 30/109/13 5/15/13
