# Blender v2.78 (sub 0) OBJ File: ''
# www.blender.org
mtllib base.mtl
o kitchenCabinet1.001_ID7.002
v -3.134774 -0.659999 -0.138085
v -3.134775 0.660001 -0.138085
v 3.134775 -0.659999 -0.138085
v 3.134774 0.660001 -0.138085
v -3.134775 0.660001 0.138085
v 3.134774 0.660001 0.138085
v -3.134775 -0.660001 0.138085
v 3.134774 -0.660001 0.138085
vt 0.0000 0.0000
vt 16.9291 0.0000
vt 0.0000 17.7165
vt -16.9291 17.7165
vt 16.9291 2.2930
vt 0.0000 2.2930
vt 0.0000 2.2930
vt 16.9291 2.2930
vt -16.9291 1.5748
vn 0.0000 0.0000 -1.0000
vn 0.0000 1.0000 0.0000
vn -0.5774 -0.5774 0.5773
vn 0.5773 -0.5774 0.5773
vn -0.7071 -0.0000 0.7071
vn -1.0000 -0.0000 0.0000
vn -0.7071 -0.7071 -0.0000
vn 0.7071 -0.7071 -0.0000
vn 1.0000 0.0000 0.0000
vn 0.7071 0.0000 0.7071
usemtl wood.000
s 1
f 2/1/1 4/2/1 1/3/1
f 3/4/1 1/3/1 4/2/1
f 4/2/2 2/1/2 6/5/2
f 5/6/2 6/5/2 2/1/2
f 7/7/3 8/8/4 5/6/5
f 2/1/6 1/3/7 5/6/5
f 5/6/5 1/3/7 7/7/3
f 1/3/7 3/4/8 7/7/3
f 7/7/3 3/4/8 8/8/4
f 3/4/8 4/9/9 8/8/4
f 6/5/10 8/8/4 4/9/9
f 5/6/5 8/8/4 6/5/10
