# Blender v2.78 (sub 0) OBJ File: ''
# www.blender.org
mtllib top.mtl
o kitchenCabinet1.001_ID7.003_kitchenCabinet1.001_ID7.004
v -3.134775 -0.670002 -0.071127
v -3.134775 0.670000 -0.071127
v 3.134774 -0.670002 -0.071127
v 3.134774 0.670000 -0.071127
v -3.134774 -0.669999 0.071127
v -3.134775 0.670000 0.071127
v 3.134774 0.670000 0.071127
v 3.134774 -0.669999 0.071127
vt 0.7874 15.3543
vt 0.0000 0.7874
vt 0.0000 15.3543
vt 0.0000 15.3543
vt -0.7874 15.3543
vt -16.5354 16.5354
vt 0.0000 16.5354
vt 0.0000 16.5354
vt 16.5354 16.5354
vt 0.0000 0.0000
vt 16.9291 16.5354
vt 0.0000 16.5354
vn 0.0000 -0.7071 -0.7071
vn -0.5774 -0.5774 -0.5773
vn 0.0000 0.0000 -1.0000
vn -0.7071 -0.7071 0.0000
vn -1.0000 -0.0000 0.0000
vn 1.0000 0.0000 0.0000
vn 0.0000 1.0000 0.0000
vn 0.0000 0.0000 1.0000
vn 0.0000 -1.0000 0.0000
usemtl wood.000
s 1
f 3/1/1 1/2/2 4/3/3
f 2/4/3 4/3/3 1/5/2
f 1/5/2 5/6/4 2/4/5
f 6/7/5 2/4/5 5/6/4
f 4/3/6 7/8/6 3/1/6
f 8/9/6 3/1/6 7/8/6
f 7/8/7 4/3/7 6/10/7
f 4/3/7 2/4/7 6/10/7
f 6/7/8 5/6/8 8/11/8
f 7/8/8 6/10/8 8/11/8
f 8/11/9 5/12/4 1/5/2
f 8/9/9 1/2/2 3/1/1
