# Blender 3.4.1
# www.blender.org
mtllib chiliGreen.mtl
o carrotBody.002
v -0.022680 0.386183 0.014459
v -0.022680 0.386183 -0.014459
v 0.000000 0.386183 0.028919
v 0.022680 0.386183 0.014459
v 0.000000 0.386183 -0.028919
v 0.022680 0.386183 -0.014459
v 0.000000 0.361179 0.041360
v -0.032437 0.361179 0.020680
v 0.000000 0.361179 -0.041360
v 0.032437 0.361179 -0.020680
v 0.032437 0.361179 0.020680
v -0.032437 0.361179 -0.020680
v -0.011029 0.000000 -0.007031
v -0.011029 0.000000 0.007031
v 0.000000 0.000000 -0.014062
v 0.000000 0.000000 0.014062
v 0.011029 0.000000 -0.007031
v 0.011029 0.000000 0.007031
v 0.000000 0.020000 0.020680
v -0.016218 0.020000 0.010340
v 0.000000 0.020000 -0.020680
v 0.016218 0.020000 -0.010340
v 0.016218 0.020000 0.010340
v -0.016218 0.020000 -0.010340
v -0.010796 0.085740 -0.037041
v 0.013532 0.085740 0.009489
v 0.005423 0.085740 0.004319
v -0.010796 0.085740 -0.006021
v 0.013532 0.085740 -0.052551
v 0.021641 0.085740 -0.047381
v 0.029750 0.085740 -0.000851
v 0.037860 0.085740 -0.037041
v 0.037860 0.085740 -0.026701
v -0.010796 0.085740 -0.026701
v -0.002687 0.085740 -0.042211
v 0.037860 0.085740 -0.006021
v -0.010372 0.216534 -0.036404
v 0.018010 0.216534 0.017881
v 0.013956 0.216534 0.015296
v -0.010372 0.216534 -0.000214
v 0.018010 0.216534 -0.054499
v 0.022065 0.216534 -0.051914
v 0.042338 0.216534 0.002371
v 0.046393 0.216534 -0.036404
v 0.046393 0.216534 -0.031234
v -0.010372 0.216534 -0.031234
v -0.006317 0.216534 -0.038989
v 0.046393 0.216534 -0.000214
vn -0.4957 0.3869 0.7776
vn -0.4957 0.3869 0.7775
vn 0.4957 0.3869 -0.7776
vn 0.4957 0.3869 -0.7775
vn 0.4957 0.3869 0.7775
vn -0.4957 0.3869 -0.7775
vn -0.9316 0.3635 -0.0000
vn 0.9316 0.3635 -0.0000
vn -0.0000 -1.0000 -0.0000
vn -0.5178 -0.2688 0.8122
vn -0.5178 -0.2687 0.8122
vn 0.5178 -0.2688 -0.8122
vn 0.5178 -0.2687 -0.8122
vn 0.9680 -0.2511 -0.0000
vn -0.5178 -0.2687 -0.8122
vn -0.5178 -0.2688 -0.8122
vn 0.5178 -0.2687 0.8122
vn 0.5178 -0.2688 0.8122
vn -0.9680 -0.2511 -0.0000
vn 0.9954 0.0960 -0.0000
vn 0.9499 -0.3127 -0.0000
vn -0.5152 -0.2857 -0.8081
vn -0.5376 0.0097 -0.8432
vn 0.4771 -0.4610 -0.7483
vn 0.5321 0.1421 -0.8347
vn -0.5210 0.2464 0.8172
vn -0.5268 -0.1997 0.8262
vn -0.9966 0.0822 -0.0000
vn -0.9886 -0.1508 -0.0000
vn 0.5361 -0.0723 0.8410
vn 0.5363 -0.0698 0.8412
vn 0.5373 0.0329 0.8427
vn -1.0000 0.0032 -0.0000
vn -0.5373 -0.0357 0.8427
vn 0.4770 -0.4610 -0.7483
vn 0.5373 -0.0310 -0.8428
vn -0.5376 0.0059 -0.8432
vn 0.9979 -0.0651 -0.0000
vn -0.5375 0.0097 -0.8432
vn 0.5362 -0.0723 0.8410
vn 0.5362 -0.0698 0.8412
vn -0.5372 -0.0357 0.8427
vn -0.5376 0.0058 -0.8432
vn 0.5373 0.0329 0.8428
vn -0.0000 1.0000 -0.0000
vt 0.825827 14.147410
vt -0.825827 14.147410
vt -0.825827 14.147410
vt 0.825827 14.147410
vt 0.825827 14.147410
vt -0.825827 14.147410
vt 0.825827 14.147410
vt -0.825827 14.147410
vt 0.825827 14.147410
vt -0.825827 14.147410
vt 0.825827 14.147410
vt -0.825827 14.147410
vt 1.181102 12.456650
vt -1.181102 12.456650
vt -1.181102 14.287900
vt 1.181102 14.287900
vt -1.181102 12.456650
vt 1.181102 12.456650
vt -1.181102 14.287900
vt 1.181102 14.287900
vt 1.181102 12.456650
vt -1.181102 12.456650
vt -1.181102 14.287900
vt 1.181102 14.287900
vt -1.181102 12.456650
vt 1.181102 12.456650
vt -1.181102 14.287900
vt 1.181102 14.287900
vt 1.181102 12.456650
vt -1.181102 12.456650
vt -1.181102 14.287900
vt 1.181102 14.287900
vt 1.181102 12.456650
vt -1.181102 12.456650
vt 1.181102 14.287900
vt -1.181102 14.287900
vt 0.695548 0.401575
vt 0.401575 0.266985
vt -0.401575 0.266985
vt 0.695548 -0.401575
vt -0.401575 0.266985
vt 0.401575 0.266985
vt -0.000000 0.803150
vt 0.401575 0.266985
vt -0.401575 0.266985
vt -0.000000 -0.803150
vt 0.401575 0.266985
vt -0.401575 0.266985
vt -0.695548 0.401575
vt -0.401575 0.266985
vt 0.401575 0.266985
vt -0.695548 -0.401575
vt -0.401575 0.266985
vt 0.401575 0.266985
vt 0.590551 1.119709
vt 0.590551 0.863047
vt -0.590551 0.863047
vt -0.590551 1.119709
vt -0.590551 1.119709
vt 0.590551 1.119709
vt 0.590551 0.863047
vt -0.590551 0.863047
vt 0.590551 1.119709
vt -0.590551 1.119709
vt 0.590551 0.863047
vt -0.590551 0.863047
vt -0.590551 1.119709
vt 0.590551 1.119709
vt 0.590551 0.863047
vt -0.590551 0.863047
vt -0.590551 1.119709
vt 0.590551 1.119709
vt -0.590551 0.863047
vt 0.590551 0.863047
vt 0.590551 1.119709
vt -0.590551 1.119709
vt 0.590551 0.863047
vt -0.590551 0.863047
vt 0.885827 7.575473
vt -0.885827 7.575473
vt 0.885827 7.575473
vt -0.885827 7.575473
vt 0.295276 7.575473
vt 0.885827 7.575473
vt -0.885827 7.575473
vt 0.885827 7.575473
vt -0.885827 7.575473
vt 0.295276 7.575473
vt 0.295276 7.575473
vt 0.885827 7.575473
vt -0.885827 7.575473
vt 0.295276 7.575473
vt -0.295276 7.575473
vt 0.295276 7.575473
vt 0.885827 7.575473
vt 1.033464 10.931686
vt -1.033464 10.931686
vt 1.033464 10.931686
vt -1.033464 10.931686
vt 0.738189 10.931686
vt 1.033464 10.931686
vt -1.033464 10.931686
vt 1.033464 10.931686
vt -1.033464 10.931686
vt 0.738189 10.931686
vt 0.738189 10.931686
vt 1.033464 10.931686
vt -1.033464 10.931686
vt 0.738189 10.931686
vt -0.738189 10.931686
vt 0.738189 10.931686
vt -1.033464 10.931686
vt 1.033464 10.931686
s 0
usemtl rot.001
f 3/5/1 8/17/1 7/13/1
f 8/17/2 3/5/2 1/2/2
f 5/9/3 10/25/3 9/21/3
f 10/25/4 5/9/4 6/12/4
f 4/7/5 7/14/5 11/29/5
f 7/14/5 4/7/5 3/6/5
f 2/4/6 9/22/6 12/33/6
f 9/22/6 2/4/6 5/10/6
f 1/1/7 12/34/7 8/18/7
f 12/34/7 1/1/7 2/3/7
f 10/26/8 4/8/8 11/30/8
f 4/8/8 10/26/8 6/11/8
f 15/43/9 14/40/9 13/37/9
f 14/40/9 15/43/9 16/46/9
f 16/46/9 15/43/9 17/49/9
f 16/46/9 17/49/9 18/52/9
f 19/55/10 14/41/10 16/47/10
f 14/41/11 19/55/11 20/59/11
f 21/63/12 17/50/12 15/44/12
f 17/50/13 21/63/13 22/67/13
f 18/53/14 22/68/14 23/71/14
f 22/68/14 18/53/14 17/51/14
f 24/75/15 15/45/15 13/38/15
f 15/45/16 24/75/16 21/64/16
f 23/72/17 16/48/17 18/54/17
f 16/48/18 23/72/18 19/58/18
f 24/76/19 14/42/19 20/60/19
f 14/42/19 24/76/19 13/39/19
f 48/112/20 45/109/20 10/28/20 11/31/20
f 33/92/21 23/73/21 22/69/21 32/90/21
f 35/94/22 21/66/22 24/77/22 25/79/22
f 47/111/23 12/35/23 9/23/23 41/104/23
f 30/88/24 22/70/24 21/65/24 29/86/24
f 42/105/25 9/24/25 10/27/25 44/108/25
f 27/83/26 20/62/26 19/56/26 26/81/26
f 39/100/27 7/16/27 8/19/27 40/102/27
f 34/93/28 20/61/28 28/84/28
f 46/110/29 12/36/29 37/97/29
f 36/95/30 48/113/30 43/106/30 31/89/30
f 43/106/31 11/32/31 7/15/31 38/99/31
f 19/57/32 31/89/32 26/82/32
f 20/61/28 34/93/28 25/80/28 24/78/28
f 46/110/33 34/93/33 28/84/33 40/101/33
f 20/62/26 27/83/26 28/85/26
f 39/100/34 27/83/34 26/81/34 38/98/34
f 22/70/35 30/88/35 32/91/35
f 42/105/36 30/88/36 29/86/36 41/103/36
f 21/66/22 35/94/22 29/87/22
f 47/111/37 35/94/37 25/79/37 37/96/37
f 45/109/38 33/92/38 32/90/38 44/107/38
f 10/28/20 45/109/20 44/107/20
f 12/35/39 47/111/39 37/96/39
f 9/24/25 42/105/25 41/103/25
f 7/16/27 39/100/27 38/98/27
f 12/36/29 46/110/29 40/101/29 8/20/29
f 31/89/40 43/106/40 38/99/40 26/82/40
f 11/32/41 43/106/41 48/113/41
f 34/93/33 46/110/33 37/97/33 25/80/33
f 27/83/42 39/100/42 40/102/42 28/85/42
f 30/88/36 42/105/36 44/108/36 32/91/36
f 35/94/43 47/111/43 41/104/43 29/87/43
f 48/113/38 36/95/38 33/92/38 45/109/38
f 33/92/21 36/95/21 23/74/21
f 31/89/44 19/58/44 23/74/44 36/95/44
f 2/4/45 1/2/45 3/6/45 4/8/45 6/12/45 5/10/45
