# Blender 3.4.1
# www.blender.org
mtllib chiliStem.mtl
o carrotBody.001
v -0.011340 -0.011831 0.007229
v -0.011340 -0.011831 -0.007229
v 0.000000 -0.011831 0.014460
v 0.011340 -0.011831 0.007229
v 0.000000 -0.011831 -0.014460
v 0.011340 -0.011831 -0.007229
v -0.004550 -0.004432 0.002901
v -0.004550 -0.004432 -0.002901
v 0.000000 -0.004432 0.005801
v 0.004550 -0.004432 0.002901
v 0.000000 -0.004432 -0.005801
v 0.004550 -0.004432 -0.002901
v -0.004317 0.016262 0.002752
v -0.004317 0.016262 -0.002752
v 0.000000 0.016262 0.005504
v 0.004317 0.016262 0.002752
v 0.000000 0.016262 -0.005504
v 0.004317 0.016262 -0.002752
vn 0.3827 0.7024 0.6002
vn 0.5375 0.0121 -0.8432
vn -0.3827 0.7024 -0.6002
vn -0.7368 0.6762 -0.0000
vn 0.3827 0.7024 -0.6002
vn 0.7368 0.6762 -0.0000
vn -0.3827 0.7024 0.6002
vn -0.0000 1.0000 -0.0000
vn -0.5375 0.0121 0.8432
vn -0.5375 0.0121 -0.8432
vn 0.5375 0.0121 0.8432
vn -0.9999 0.0113 -0.0000
vn 0.9999 0.0113 -0.0000
vn -0.0000 -1.0000 -0.0000
vt 0.825827 14.147410
vt -0.825827 14.147410
vt -0.825827 14.147410
vt 0.825827 14.147410
vt 0.825827 14.147410
vt -0.825827 14.147410
vt 0.825827 14.147410
vt -0.825827 14.147410
vt 0.825827 14.147410
vt -0.825827 14.147410
vt 0.825827 14.147410
vt -0.825827 14.147410
vt -0.825827 14.147410
vt 0.825827 14.147410
vt 0.825827 14.147410
vt -0.825827 14.147410
vt 0.825827 14.147410
vt -0.825827 14.147410
vt 0.825827 14.147410
vt -0.825827 14.147410
vt 0.825827 14.147410
vt -0.825827 14.147410
vt -0.825827 14.147410
vt 0.825827 14.147410
vt -0.825827 14.147410
vt 0.825827 14.147410
vt 0.825827 14.147410
vt -0.825827 14.147410
vt 0.825827 14.147410
vt -0.825827 14.147410
vt 0.825827 14.147410
vt -0.825827 14.147410
vt 0.825827 14.147410
vt -0.825827 14.147410
vt -0.825827 14.147410
vt 0.825827 14.147410
s 0
usemtl rot.004
f 3/6/1 4/7/1 10/19/1 9/18/1
f 12/23/2 11/21/2 17/33/2 18/35/2
f 5/10/3 2/4/3 8/15/3 11/22/3
f 2/3/4 1/1/4 7/14/4 8/16/4
f 6/12/5 5/9/5 11/21/5 12/23/5
f 4/8/6 6/11/6 12/24/6 10/20/6
f 1/2/7 3/5/7 9/17/7 7/13/7
f 14/27/8 13/25/8 15/30/8 16/32/8 18/35/8 17/34/8
f 7/13/9 9/17/9 15/29/9 13/25/9
f 11/22/10 8/15/10 14/27/10 17/34/10
f 9/18/11 10/19/11 16/31/11 15/30/11
f 8/16/12 7/14/12 13/26/12 14/28/12
f 10/20/13 12/24/13 18/36/13 16/32/13
f 2/4/14 5/10/14 6/12/14 4/8/14 3/6/14 1/2/14
