# Blender 3.4.1
# www.blender.org
mtllib chiliCollider.mtl
o carrotBody.002
v -0.022680 0.386183 0.014459
v -0.022680 0.386183 -0.014459
v 0.000000 0.386183 0.028919
v 0.022680 0.386183 0.014459
v 0.000000 0.386183 -0.028919
v 0.022680 0.386183 -0.014459
v 0.000000 0.361179 0.041360
v -0.032437 0.361179 0.020680
v 0.000000 0.361179 -0.041360
v 0.032437 0.361179 -0.020680
v 0.032437 0.361179 0.020680
v -0.032437 0.361179 -0.020680
v -0.011029 0.000000 -0.007031
v -0.011029 0.000000 0.007031
v 0.000000 0.000000 -0.014062
v 0.000000 0.000000 0.014062
v 0.011029 0.000000 -0.007031
v 0.011029 0.000000 0.007031
v 0.000000 0.020000 0.020680
v -0.016218 0.020000 0.010340
v 0.000000 0.020000 -0.020680
v 0.016218 0.020000 -0.010340
v 0.016218 0.020000 0.010340
v -0.016218 0.020000 -0.010340
v -0.010796 0.085740 -0.037041
v 0.013532 0.085740 -0.052551
v 0.021641 0.085740 -0.047381
v 0.037860 0.085740 -0.037041
v 0.037860 0.085740 -0.026701
v -0.002687 0.085740 -0.042211
v 0.037860 0.085740 -0.006021
v -0.010372 0.216534 -0.036404
v 0.018010 0.216534 -0.054499
v 0.022065 0.216534 -0.051914
v 0.046393 0.216534 -0.036404
v 0.046393 0.216534 -0.031234
v -0.006317 0.216534 -0.038989
v 0.046393 0.216534 -0.000214
vn -0.4957 0.3869 0.7775
vn -0.4957 0.3869 0.7776
vn 0.4957 0.3869 -0.7775
vn 0.4957 0.3869 -0.7776
vn 0.4957 0.3869 0.7776
vn 0.4957 0.3869 0.7775
vn -0.4957 0.3869 -0.7776
vn -0.4957 0.3869 -0.7775
vn -0.9316 0.3635 -0.0000
vn 0.9316 0.3635 -0.0000
vn -0.0000 -1.0000 -0.0000
vn -0.5178 -0.2687 0.8122
vn 0.5178 -0.2687 -0.8122
vn 0.9679 -0.2512 -0.0000
vn -0.5178 -0.2687 -0.8122
vn 0.5178 -0.2687 0.8122
vn -0.9679 -0.2512 -0.0000
vn 0.9954 0.0960 -0.0000
vn 0.9499 -0.3127 -0.0000
vn -0.5152 -0.2857 -0.8081
vn -0.5376 0.0097 -0.8432
vn 0.4771 -0.4610 -0.7483
vn 0.5321 0.1421 -0.8347
vn 0.5373 -0.0310 -0.8428
vn -0.5376 0.0058 -0.8432
vn 0.9979 -0.0651 -0.0000
vn -0.0000 1.0000 -0.0000
vn -0.5369 -0.0510 0.8421
vn 0.5841 -0.0547 0.8098
vn -0.9821 -0.0459 -0.1825
vt 0.825827 14.147410
vt -0.825827 14.147410
vt -0.825827 14.147410
vt 0.825827 14.147410
vt 0.825827 14.147410
vt -0.825827 14.147410
vt 0.825827 14.147410
vt -0.825827 14.147410
vt 0.825827 14.147410
vt -0.825827 14.147410
vt 0.825827 14.147410
vt -0.825827 14.147410
vt -1.181102 12.456650
vt 1.181102 12.456650
vt 0.000000 0.000000
vt 1.181102 12.456650
vt -1.181102 12.456650
vt 0.000000 0.000000
vt 1.181102 12.456650
vt -1.181102 12.456650
vt -1.181102 14.287900
vt 1.181102 14.287900
vt -1.181102 12.456650
vt 1.181102 12.456650
vt -1.181102 14.287900
vt 1.181102 14.287900
vt 1.181102 12.456650
vt -1.181102 12.456650
vt -1.181102 14.287900
vt 0.000000 0.000000
vt 1.181102 12.456650
vt -1.181102 12.456650
vt 1.181102 14.287900
vt 0.000000 0.000000
vt 0.695548 0.401575
vt 0.401575 0.266985
vt -0.401575 0.266985
vt 0.695548 -0.401575
vt -0.401575 0.266985
vt 0.401575 0.266985
vt -0.000000 0.803150
vt 0.401575 0.266985
vt -0.401575 0.266985
vt -0.000000 -0.803150
vt 0.401575 0.266985
vt -0.401575 0.266985
vt -0.695548 0.401575
vt -0.401575 0.266985
vt 0.401575 0.266985
vt -0.695548 -0.401575
vt -0.401575 0.266985
vt 0.401575 0.266985
vt -0.590551 1.119709
vt 0.590551 1.119709
vt 0.000000 0.000000
vt 0.590551 1.119709
vt -0.590551 1.119709
vt 0.000000 0.000000
vt 0.590551 1.119709
vt -0.590551 1.119709
vt 0.590551 0.863047
vt -0.590551 0.863047
vt -0.590551 1.119709
vt 0.590551 1.119709
vt 0.590551 0.863047
vt -0.590551 0.863047
vt -0.590551 1.119709
vt 0.590551 1.119709
vt -0.590551 0.863047
vt 0.590551 0.863047
vt 0.000000 0.000000
vt 0.590551 1.119709
vt -0.590551 1.119709
vt 0.590551 0.863047
vt 0.000000 0.000000
vt 0.885827 7.575473
vt 0.000000 0.000000
vt 0.885827 7.575473
vt -0.885827 7.575473
vt 0.295276 7.575473
vt 0.885827 7.575473
vt -0.885827 7.575473
vt 0.295276 7.575473
vt 0.295276 7.575473
vt 0.885827 7.575473
vt 0.000000 0.000000
vt 1.033464 10.931686
vt 0.000000 0.000000
vt 1.033464 10.931686
vt -1.033464 10.931686
vt 0.738189 10.931686
vt 1.033464 10.931686
vt -1.033464 10.931686
vt 0.738189 10.931686
vt 0.738189 10.931686
vt -1.033464 10.931686
vt 1.033464 10.931686
vt 0.000000 0.000000
s 0
usemtl rot.005
f 3/5/1 8/17/1 7/14/1
f 8/17/2 3/5/2 1/2/2
f 5/9/3 10/23/3 9/19/3
f 10/23/4 5/9/4 6/12/4
f 4/7/5 7/13/5 11/27/5
f 7/13/6 4/7/6 3/6/6
f 2/4/7 9/20/7 12/31/7
f 9/20/8 2/4/8 5/10/8
f 1/1/9 12/32/9 8/16/9
f 12/32/9 1/1/9 2/3/9
f 10/24/10 4/8/10 11/28/10
f 4/8/10 10/24/10 6/11/10
f 15/41/11 14/38/11 13/35/11
f 14/38/11 15/41/11 16/44/11
f 16/44/11 15/41/11 17/47/11
f 16/44/11 17/47/11 18/50/11
f 19/54/12 14/39/12 16/45/12
f 14/39/12 19/54/12 20/57/12
f 21/59/13 17/48/13 15/42/13
f 17/48/13 21/59/13 22/63/13
f 18/51/14 22/64/14 23/67/14
f 22/64/14 18/51/14 17/49/14
f 24/72/15 15/43/15 13/36/15
f 15/43/15 24/72/15 21/60/15
f 23/68/16 16/46/16 18/52/16
f 16/46/16 23/68/16 19/53/16
f 24/73/17 14/40/17 20/56/17
f 14/40/17 24/73/17 13/37/17
f 38/96/18 36/94/18 10/26/18 11/29/18
f 29/83/19 23/69/19 22/65/19 28/81/19
f 30/84/20 21/62/20 24/74/20 25/76/20
f 37/95/21 12/33/21 9/21/21 33/90/21
f 27/80/22 22/66/22 21/61/22 26/78/22
f 34/91/23 9/22/23 10/25/23 35/93/23
f 22/66/22 27/80/22 28/82/22
f 34/91/24 27/80/24 26/78/24 33/89/24
f 21/62/20 30/84/20 26/79/20
f 37/95/25 30/84/25 25/76/25 32/87/25
f 36/94/26 29/83/26 28/81/26 35/92/26
f 10/26/18 36/94/18 35/92/18
f 12/33/21 37/95/21 32/87/21
f 9/22/23 34/91/23 33/89/23
f 27/80/24 34/91/24 35/93/24 28/82/24
f 30/84/25 37/95/25 33/90/25 26/79/25
f 38/97/26 31/85/26 29/83/26 36/94/26
f 29/83/19 31/85/19 23/70/19
f 2/4/27 1/2/27 3/6/27 4/8/27 6/12/27 5/10/27
f 8/17/28 20/57/28 19/54/28 7/14/28
f 19/55/29 23/71/29 31/86/29 38/98/29 11/30/29 7/15/29
f 8/18/30 12/34/30 32/88/30 25/77/30 24/75/30 20/58/30
