# Blender 3.4.1
# www.blender.org
mtllib chiliStemCollider.mtl
o carrotBody.001
v -0.011340 -0.011831 0.007229
v -0.011340 -0.011831 -0.007229
v 0.000000 -0.011831 0.014460
v 0.011340 -0.011831 0.007229
v 0.000000 -0.011831 -0.014460
v 0.011340 -0.011831 -0.007229
v -0.004317 0.016262 0.002752
v -0.004317 0.016262 -0.002752
v 0.000000 0.016262 0.005504
v 0.004317 0.016262 0.002752
v 0.000000 0.016262 -0.005504
v 0.004317 0.016262 -0.002752
vn 0.9701 0.2425 -0.0000
vn 0.5192 0.2596 -0.8143
vn -0.0000 1.0000 -0.0000
vn -0.0000 -1.0000 -0.0000
vn -0.5192 0.2596 -0.8143
vn -0.9701 0.2425 -0.0000
vn -0.5192 0.2596 0.8143
vn 0.5192 0.2596 0.8143
vt -0.825827 14.147410
vt 0.825827 14.147410
vt -0.825827 14.147410
vt -0.825827 14.147410
vt -0.825827 14.147410
vt -0.825827 14.147410
vt -0.825827 14.147410
vt 0.825827 14.147410
vt -0.825827 14.147410
vt -0.825827 14.147410
vt -0.825827 14.147410
vt -0.825827 14.147410
s 0
usemtl rot.006
f 6/6/1 12/12/1 10/10/1 4/4/1
f 6/6/2 5/5/2 11/11/2 12/12/2
f 8/8/3 7/7/3 9/9/3 10/10/3 12/12/3 11/11/3
f 2/2/4 5/5/4 6/6/4 4/4/4 3/3/4 1/1/4
f 5/5/5 2/2/5 8/8/5 11/11/5
f 2/2/6 1/1/6 7/7/6 8/8/6
f 3/3/7 9/9/7 7/7/7 1/1/7
f 4/4/8 10/10/8 9/9/8 3/3/8
