# Blender v2.78 (sub 0) OBJ File: ''
# www.blender.org
mtllib blade.mtl
o cookingKnife
v 0.157934 -0.001440 -0.044676
v -0.117321 -0.005000 -0.028555
v -0.117321 -0.001440 -0.063157
v 0.157934 0.001440 -0.044676
v -0.117321 0.001440 -0.063157
v -0.117321 0.005000 -0.028555
v -0.117321 -0.005000 0.016843
v -0.117321 0.005000 0.016843
v 0.249184 -0.001440 0.046843
v 0.249184 0.001440 0.046843
v -0.127321 -0.005000 0.046843
v -0.127321 0.005000 0.046843
v -0.127321 -0.005000 0.016843
v -0.127321 0.005000 0.016843
vt -10.7037 1.4269
vt 4.0600 1.1473
vt 4.0600 2.5096
vt -10.7037 1.4269
vt 4.0600 2.5096
vt 4.0600 1.1473
vt 0.0000 0.0000
vt 0.0000 0.0000
vt 0.0000 0.0000
vt 0.0000 0.0000
vt 4.4537 -1.8211
vt 4.0600 -0.6400
vt 4.0600 -0.6400
vt 4.4537 -1.8211
vt 4.4537 -0.6400
vt 4.4537 -0.6400
vn 0.3235 -0.6302 -0.7058
vn -0.6921 -0.7209 -0.0356
vn -0.5640 -0.5417 -0.6232
vn 0.3235 0.6302 -0.7058
vn -0.5640 0.5417 -0.6232
vn -0.6921 0.7209 -0.0356
vn -0.2949 -0.9066 -0.3017
vn -0.2949 0.9066 -0.3017
vn 0.7751 -0.5442 0.3209
vn 0.7751 0.5442 0.3209
vn -0.5751 -0.5795 0.5774
vn -0.5751 0.5795 0.5774
vn -0.5773 -0.5773 -0.5773
vn -0.5773 0.5773 -0.5773
usemtl white
s 1
f 1/1/1 2/2/2 3/3/3
f 4/4/4 5/5/5 6/6/6
f 2/2/2 1/1/1 7/7/7
f 2/2/2 6/6/6 5/5/5 3/3/3
f 8/8/8 4/4/4 6/6/6
f 4/4/4 1/1/1 3/3/3 5/5/5
f 7/7/7 8/8/8 6/6/6 2/2/2
usemtl greyLight
f 1/1/1 9/9/9 7/7/7
f 4/4/4 8/8/8 10/10/10
f 9/9/9 11/11/11 7/12/7
f 10/10/10 8/13/8 12/14/12
f 7/12/7 11/11/11 13/15/13
f 1/1/1 4/4/4 10/10/10 9/9/9
f 9/9/9 10/10/10 12/14/12 11/11/11
f 11/11/11 12/14/12 14/16/14 13/15/13
f 8/13/8 14/16/14 12/14/12
f 13/15/13 14/16/14 8/13/8 7/12/7
