# Blender 3.4.1
# www.blender.org
mtllib vinegarCork.mtl
o Cork
v 0.029050 -0.029050 -0.067500
v 0.029050 0.029050 -0.067500
v -0.029050 -0.029050 -0.067500
v -0.029050 0.029050 -0.067500
v -0.030979 -0.030979 0.012500
v -0.024983 -0.024983 -0.007500
v -0.030979 0.030979 0.012500
v -0.024983 0.024983 -0.007500
v 0.030979 -0.030979 0.012500
v 0.030979 0.030979 0.012500
v 0.024983 -0.024983 -0.007500
v 0.024983 0.024983 -0.007500
v -0.030979 0.030979 0.062500
v 0.030979 0.030979 0.062500
v 0.030979 -0.030979 0.062500
v -0.030979 -0.030979 0.062500
vn -0.9579 -0.0000 -0.2872
vn 0.9579 -0.0000 -0.2872
vn -0.0000 1.0000 -0.0000
vn 1.0000 -0.0000 -0.0000
vn -0.9977 -0.0000 0.0676
vn -0.0000 -0.0000 1.0000
vn -0.0000 0.9977 0.0676
vn 0.9977 -0.0000 0.0676
vn -0.0000 -0.9579 -0.2872
vn -0.0000 0.9579 -0.2872
vn -1.0000 -0.0000 -0.0000
vn -0.0000 -1.0000 -0.0000
vn -0.0000 -0.9977 0.0676
vn -0.0000 -0.0000 -1.0000
vt -1.143701 18.777031
vt 1.143701 18.777031
vt 1.143701 18.777031
vt -1.143701 18.777031
vt -1.143701 18.777031
vt 1.143701 18.777031
vt -1.143701 18.777031
vt 1.143701 18.777031
vt 1.219643 21.468861
vt -1.219643 21.468861
vt 1.219643 22.047251
vt -1.219643 22.047251
vt 0.983583 20.646830
vt 0.983583 21.144650
vt -0.983583 20.646830
vt -0.983583 21.144650
vt -1.219643 21.468861
vt 1.219643 22.047251
vt 1.219643 21.468861
vt -1.219643 22.047251
vt -0.983583 20.646830
vt -0.983583 21.144650
vt 0.983583 21.144650
vt 0.983583 20.646830
vt -1.219643 21.468861
vt -1.219643 22.047251
vt 1.219643 21.468861
vt 1.219643 22.047251
vt 1.219643 21.468861
vt -1.219643 22.047251
vt 1.219643 22.047251
vt -1.219643 21.468861
vt -0.983583 20.646830
vt -0.983583 21.144650
vt 0.983583 20.646830
vt 0.983583 21.144650
vt 0.983583 20.646830
vt -0.983583 21.144650
vt 0.983583 21.144650
vt -0.983583 20.646830
vt 1.219643 24.015751
vt -1.219643 1.219643
vt -1.219643 24.015751
vt -1.219643 24.015751
vt 1.219643 24.015751
vt 1.219643 1.219643
vt -1.219643 24.015751
vt 1.219643 -1.219643
vt 1.219643 24.015751
vt -1.219643 -1.219643
vt 1.219643 24.015751
vt -1.219643 24.015751
s 0
usemtl brown.013
f 7/17/1 6/13/1 5/9/1
f 6/13/1 7/17/1 8/21/1
f 11/33/2 10/29/2 9/25/2
f 10/29/2 11/33/2 12/37/2
f 13/41/3 10/30/3 7/18/3
f 10/30/3 13/41/3 14/44/3
f 10/31/4 15/47/4 9/26/4
f 15/47/4 10/31/4 14/45/4
f 6/14/5 4/7/5 3/6/5
f 4/7/5 6/14/5 8/22/5
f 15/48/6 13/42/6 16/50/6
f 13/42/6 15/48/6 14/46/6
f 8/23/7 2/4/7 4/8/7
f 2/4/7 8/23/7 12/38/7
f 2/3/8 11/34/8 1/1/8
f 11/34/8 2/3/8 12/39/8
f 9/27/9 6/15/9 11/35/9
f 6/15/9 9/27/9 5/10/9
f 7/19/10 12/40/10 8/24/10
f 12/40/10 7/19/10 10/32/10
f 13/43/11 5/11/11 16/51/11
f 5/11/11 13/43/11 7/20/11
f 15/49/12 5/12/12 9/28/12
f 5/12/12 15/49/12 16/52/12
f 11/36/13 3/5/13 1/2/13
f 3/5/13 11/36/13 6/16/13
f 2/4/14 1/2/14 3/6/14 4/8/14
