# Blender 3.4.1
# www.blender.org
mtllib carrotGreen.mtl
o carrotGreen
v -0.011028 -0.132900 0.007264
v 0.011112 -0.132900 0.007264
v 0.011112 -0.132900 -0.014876
v -0.011028 -0.132900 -0.014876
v -0.033168 0.089850 -0.067704
v -0.011028 0.124258 -0.124446
v 0.033252 0.089850 -0.067704
v 0.011112 0.124258 -0.124446
v 0.022182 0.023484 -0.030862
v -0.022098 0.023484 -0.030862
v 0.063940 0.029707 0.029404
v 0.027098 -0.018740 0.018334
v 0.063940 0.029707 -0.037016
v 0.027098 -0.018740 -0.025946
v 0.120682 0.054825 0.007264
v 0.120682 0.054825 -0.014876
v -0.063855 0.141082 0.029404
v -0.063855 0.141082 -0.037016
v -0.027014 0.059452 0.018334
v -0.027014 0.059452 -0.025946
v -0.120597 0.183404 0.007264
v -0.120597 0.183404 -0.014876
v -0.033168 0.089850 0.060091
v 0.033252 0.089850 0.060091
v -0.011028 0.124258 0.116834
v 0.011112 0.124258 0.116834
v -0.022098 0.023484 0.023250
v 0.022182 0.023484 0.023250
v -0.073182 -0.041270 0.018334
v -0.073182 -0.041270 -0.025946
v -0.171529 -0.019919 0.007264
v -0.171529 -0.019919 -0.014876
v -0.120597 -0.015989 0.029404
v -0.120597 -0.015989 -0.037016
v 0.120682 -0.015989 0.029404
v 0.120682 -0.015989 -0.037016
v 0.171613 -0.019919 0.007264
v 0.171613 -0.019919 -0.014876
v 0.073266 -0.041270 0.018334
v 0.073266 -0.041270 -0.025946
v -0.022098 -0.041270 0.069418
v 0.022182 -0.041270 0.069418
v -0.033168 -0.015989 0.116834
v 0.033252 -0.015989 0.116834
v -0.011028 -0.019919 0.167765
v 0.011112 -0.019919 0.167765
v 0.022182 -0.041270 -0.077030
v -0.022098 -0.041270 -0.077030
v -0.033168 -0.015989 -0.124446
v -0.011028 -0.019919 -0.175377
v 0.033252 -0.015989 -0.124446
v 0.011112 -0.019919 -0.175377
v -0.011028 0.124258 0.116834
v 0.011112 0.124258 0.116834
v 0.011112 -0.132900 0.007264
v -0.022098 0.023484 0.023250
v 0.022182 0.023484 0.023250
v -0.033168 0.089850 0.060091
v 0.033252 0.089850 0.060091
v -0.011028 -0.132900 0.007264
v -0.011028 0.124258 0.123594
v 0.011112 0.124258 0.123594
v 0.011112 -0.117176 0.014024
v -0.022098 0.023484 0.030010
v 0.022182 0.023484 0.030010
v -0.033168 0.089850 0.066851
v 0.033252 0.089850 0.066851
v -0.011028 -0.117176 0.014024
v 0.013793 -0.129257 0.007264
v 0.013793 -0.129257 -0.014876
v 0.029779 -0.018740 0.018334
v 0.066620 0.029707 -0.037016
v 0.029779 -0.018740 -0.025946
v 0.123363 0.054825 0.007264
v 0.123363 0.054825 -0.014876
v 0.066620 0.029707 0.029404
v -0.033168 0.089850 -0.070486
v -0.011028 0.124258 -0.127229
v 0.033252 0.089850 -0.070486
v 0.022182 0.023484 -0.033645
v -0.022098 0.023484 -0.033645
v 0.011112 0.124258 -0.127229
v 0.011112 -0.125034 -0.017659
v -0.011028 -0.125034 -0.017659
v -0.067222 0.141082 0.029404
v -0.067222 0.141082 -0.037016
v -0.030381 0.059452 0.018334
v -0.123965 0.183404 0.007264
v -0.123965 0.183404 -0.014876
v -0.014395 -0.125023 -0.014876
v -0.030381 0.059452 -0.025946
v -0.014395 -0.125023 0.007264
v -0.074435 -0.043775 0.018334
v -0.074435 -0.043775 -0.025946
v -0.121851 -0.018493 0.029404
v -0.121851 -0.018493 -0.037016
v -0.012281 -0.135404 -0.014876
v -0.172782 -0.022423 0.007264
v -0.172782 -0.022423 -0.014876
v -0.012281 -0.135404 0.007264
v 0.011112 -0.135793 0.008657
v -0.022098 -0.044163 0.070811
v 0.022182 -0.044163 0.070811
v -0.033168 -0.018881 0.118227
v -0.011028 -0.022812 0.169158
v 0.011112 -0.022812 0.169158
v 0.033252 -0.018881 0.118227
v -0.011028 -0.135793 0.008657
v 0.012396 -0.135565 0.007264
v 0.012396 -0.135565 -0.014876
v 0.172897 -0.022584 0.007264
v 0.172897 -0.022584 -0.014876
v 0.074550 -0.043935 0.018334
v 0.074550 -0.043935 -0.025946
v 0.121966 -0.018653 0.029404
v 0.121966 -0.018653 -0.037016
v -0.033168 -0.018728 -0.126486
v -0.011028 -0.022659 -0.177417
v 0.033252 -0.018728 -0.126486
v 0.011112 -0.022659 -0.177417
v 0.011112 -0.135640 -0.016916
v -0.011028 -0.135640 -0.016916
v 0.022182 -0.044010 -0.079070
v -0.022098 -0.044010 -0.079070
vn -0.0000 0.8551 0.5185
vn -0.0000 -0.3335 -0.9427
vn 0.9864 -0.1645 -0.0000
vn -0.0000 0.4854 0.8743
vn -0.9864 -0.1645 -0.0000
vn -0.0000 1.0000 -0.0000
vn -0.0000 0.1017 0.9948
vn -0.8409 0.5411 -0.0000
vn 0.8409 0.5411 -0.0000
vn -0.7960 0.6053 -0.0000
vn -0.0000 0.6612 0.7502
vn 0.8054 -0.5927 -0.0000
vn -0.4048 0.9144 -0.0000
vn -0.0735 0.1082 -0.9914
vn -0.0000 -0.2228 0.9749
vn 0.0735 -0.1082 -0.9914
vn -0.9903 0.1387 -0.0000
vn 0.9903 -0.1387 -0.0000
vn 0.9115 0.4114 -0.0000
vn -0.0000 0.4635 -0.8861
vn 0.9966 0.0828 -0.0000
vn -0.0759 -0.0649 -0.9950
vn -0.0000 0.4635 0.8861
vn 0.5979 0.8016 -0.0000
vn -0.0000 -0.1344 -0.9909
vn -0.0759 -0.0649 0.9950
vn -0.0000 0.8551 -0.5185
vn -0.0000 -0.8551 0.5185
vn -0.0000 -0.0000 1.0000
vn -0.0000 0.1017 -0.9948
vn 0.8276 0.5614 -0.0000
vn -0.4035 0.2019 -0.8924
vn -0.8943 0.4474 -0.0000
vn -0.0769 0.9970 -0.0000
vn 0.1805 -0.0903 -0.9794
vn 0.1805 -0.0903 0.9794
vn 0.4705 0.8824 -0.0000
vn 0.8943 -0.4474 -0.0000
vn 0.1018 -0.0509 0.9935
vn 0.0769 0.9970 -0.0000
vn -0.1819 -0.0876 -0.9794
vn 0.4036 0.1944 0.8940
vn -0.1035 -0.0498 0.9934
vn -0.4705 0.8824 -0.0000
vn 0.4705 -0.8824 -0.0000
vn 0.4036 0.1944 -0.8940
vn -0.8276 0.5614 -0.0000
vn 0.9009 0.4340 -0.0000
vn 0.1819 0.0876 -0.9794
vn -0.0000 0.5614 -0.8276
vn -0.0000 -0.4340 -0.9009
vn -0.8940 0.1944 0.4036
vn 0.9794 0.0876 0.1819
vn -0.0000 0.8824 -0.4705
vn -0.0000 -0.8824 0.4705
vn -0.0000 0.4340 0.9009
vn -0.0000 0.9970 0.0769
vn -0.9934 -0.0498 -0.1035
vn 0.8940 0.1944 0.4036
vn -0.0000 0.5614 0.8276
vn 0.8669 0.2977 -0.3998
vn 0.9944 -0.0629 0.0844
vn -0.0000 -0.5972 0.8021
vn -0.0000 0.9970 -0.0769
vn 0.9790 -0.1218 0.1636
vn -0.0000 0.5972 -0.8021
vn 0.9790 0.1218 -0.1636
vn -0.0000 0.8824 0.4705
vn -0.0000 -0.8824 -0.4705
vn -0.9944 -0.0629 0.0844
vn -0.0000 -0.5614 0.8276
vn 0.9916 -0.0845 0.0982
vn -0.0000 -0.3950 0.9187
vn -0.9916 -0.0845 0.0982
vn -0.0000 0.4854 -0.8743
vn -0.0000 -0.4854 0.8743
vn -0.0000 -0.1129 0.9936
vn 0.7960 -0.6053 -0.0000
vn 0.4048 -0.9144 -0.0000
vn -0.9897 0.1432 -0.0000
vn 0.9897 -0.1432 -0.0000
vn -0.0000 0.6612 -0.7502
vn -0.0000 -0.2228 -0.9749
vn -0.0000 -0.8551 -0.5185
vn -0.0000 -0.4854 -0.8743
vn -0.0000 -0.1070 -0.9943
vn -0.9893 -0.0843 -0.1192
vn 0.9893 -0.0843 -0.1192
vn -0.9115 -0.4114 -0.0000
vn -0.9963 -0.0863 -0.0000
vn -0.5979 -0.8016 -0.0000
vn -0.0000 -0.1344 0.9909
vn -0.9195 -0.3931 -0.0000
vn -0.8276 -0.5614 -0.0000
vn 0.0769 -0.9970 -0.0000
vn -0.4705 -0.8824 -0.0000
vn -0.4035 0.2019 0.8924
vn 0.1018 -0.0509 -0.9935
vn -0.0000 -0.9970 -0.0769
vn 0.9794 -0.0876 -0.1819
vn 0.9934 -0.0498 -0.1035
vn -0.0769 -0.9970 -0.0000
vn 0.8276 -0.5614 -0.0000
vn -0.1035 -0.0498 -0.9934
vn -0.9009 -0.4340 -0.0000
vn -0.0000 -0.5614 -0.8276
vn -0.0000 -0.9970 0.0769
vn 0.0029 1.0000 0.0083
vt -0.435827 13.277320
vt 0.435827 15.710710
vt 0.435827 13.277320
vt -0.435827 15.730020
vt 0.435827 13.277320
vt -0.435827 13.277320
vt 0.435827 15.656310
vt -0.435827 15.710710
vt 0.435827 13.277320
vt 0.435827 15.710710
vt -0.435827 15.656310
vt -0.435827 13.277320
vt -0.435827 15.710710
vt 0.435827 15.730020
vt 0.435827 13.277320
vt -0.435827 13.277320
vt -1.307480 22.657230
vt -1.307480 14.863660
vt -0.435827 17.476250
vt 1.307480 22.657230
vt 1.307480 14.863660
vt 0.435827 17.476250
vt 0.871654 19.668800
vt 0.871654 21.899630
vt -0.871654 19.668800
vt -0.871654 21.899630
vt 1.307480 11.266140
vt 1.307480 19.153870
vt 0.871653 16.757650
vt 0.871653 20.194639
vt -1.307480 11.266140
vt -1.307480 19.153870
vt -0.871654 20.194639
vt -0.871654 16.757650
vt 0.435827 13.709180
vt -0.435827 13.709180
vt -1.307480 17.880911
vt -1.307480 25.220461
vt 1.307480 17.880911
vt 1.307480 25.220461
vt -0.871654 23.329029
vt -0.871654 21.694530
vt 0.871654 23.329029
vt 0.871654 21.694530
vt -0.435827 20.667820
vt 0.435827 20.667820
vt 1.307480 14.863660
vt -1.307480 14.863660
vt 0.435827 17.476250
vt -0.435827 17.476250
vt 0.871654 21.899630
vt -0.871654 21.899630
vt -0.871654 11.650300
vt -0.871654 17.636410
vt 0.871654 11.650300
vt 0.871654 17.636410
vt 0.435827 -5.180914
vt -0.435827 -5.180914
vt -1.307480 13.765830
vt 1.307480 -3.169789
vt -1.307480 -3.169789
vt 1.307480 13.765830
vt -1.307480 -3.169789
vt 1.307480 13.765830
vt -1.307480 13.765830
vt 1.307480 -3.169789
vt -0.435827 -5.180914
vt 0.435827 -5.180914
vt 0.871653 17.636410
vt 0.871653 11.650300
vt -0.871654 11.650300
vt -0.871654 17.636410
vt 0.871653 11.650300
vt 0.871654 17.636410
vt -0.871654 11.650300
vt -0.871654 17.636410
vt 1.307480 13.765830
vt -1.307480 -3.169789
vt 1.307480 -3.169789
vt -1.307480 13.765830
vt -0.435827 -5.180914
vt 0.435827 -5.180914
vt 0.871654 17.636410
vt 0.871654 11.650300
vt -0.871654 11.650300
vt -0.871654 17.636410
vt -1.307480 13.765830
vt 0.435827 -5.180914
vt -1.307480 -3.169789
vt 1.307480 13.765830
vt -0.435827 -5.180914
vt 0.435827 17.476250
vt -0.435827 17.476250
vt -0.435827 15.710710
vt 0.871654 21.899630
vt 0.000000 0.000000
vt 0.000000 0.000000
vt -0.871654 21.899630
vt 0.000000 0.000000
vt 1.307480 14.863660
vt -1.307480 14.863660
vt 0.000000 0.000000
vt 0.435827 15.710710
vt 0.435827 17.476250
vt -0.435827 17.476250
vt -0.435827 15.710710
vt 0.000000 0.000000
vt 0.871654 19.668800
vt 0.871654 21.899630
vt 0.000000 0.000000
vt -0.871654 19.668800
vt -0.871654 21.899630
vt 0.000000 0.000000
vt 1.307480 14.863660
vt 1.307480 22.657230
vt 0.000000 0.000000
vt -1.307480 14.863660
vt -1.307480 22.657230
vt 0.435827 15.710710
vt 0.435827 15.656310
vt -0.435827 15.656310
vt 0.871653 16.757650
vt 0.871653 20.194639
vt -1.307480 11.266140
vt -1.307480 19.153870
vt -0.871654 20.194639
vt -0.871654 16.757650
vt 0.435827 13.709180
vt -0.435827 13.709180
vt 1.307480 19.153870
vt 1.307480 11.266140
vt -1.307480 14.863660
vt -1.307480 22.657230
vt -0.435827 17.476250
vt 1.307480 14.863660
vt 1.307480 22.657230
vt 0.871654 19.668800
vt 0.871654 21.899630
vt -0.871654 19.668800
vt -0.871654 21.899630
vt 0.435827 17.476250
vt 0.435827 15.710710
vt -0.435827 15.710710
vt -1.307480 17.880911
vt -1.307480 25.220461
vt 1.307480 25.220461
vt 1.307480 17.880911
vt -0.871654 23.329029
vt -0.871654 21.694530
vt -0.435827 20.667820
vt 0.435827 20.667820
vt 0.435827 15.730020
vt 0.871654 21.694530
vt 0.871654 23.329029
vt -0.435827 15.730020
vt -0.871654 17.636410
vt -0.871654 11.650300
vt 0.871654 11.650300
vt 0.871654 17.636410
vt -1.307480 13.765830
vt 1.307480 -3.169789
vt -1.307480 -3.169789
vt 1.307480 13.765830
vt 0.435827 13.277320
vt 0.435827 15.730020
vt 0.435827 -5.180914
vt -0.435827 -5.180914
vt -0.435827 15.730020
vt -0.435827 13.277320
vt -0.435827 15.710710
vt -0.435827 13.277320
vt 0.871654 17.636410
vt 0.871653 11.650300
vt -0.871654 11.650300
vt -0.871654 17.636410
vt 1.307480 13.765830
vt -1.307480 -3.169789
vt -0.435827 -5.180914
vt 0.435827 -5.180914
vt 1.307480 -3.169789
vt -1.307480 13.765830
vt 0.435827 15.710710
vt 0.435827 13.277320
vt 0.435827 15.656310
vt 0.435827 13.277320
vt -0.435827 15.656310
vt -0.435827 13.277320
vt -0.435827 -5.180914
vt 0.435827 -5.180914
vt 0.871653 11.650300
vt 0.871653 17.636410
vt -0.871654 11.650300
vt -0.871654 17.636410
vt -1.307480 -3.169789
vt 1.307480 13.765830
vt 1.307480 -3.169789
vt -1.307480 13.765830
vt 1.307480 -3.169789
vt -1.307480 13.765830
vt 0.435827 -5.180914
vt -1.307480 -3.169789
vt 1.307480 13.765830
vt -0.435827 -5.180914
vt 0.435827 13.277320
vt 0.435827 15.710710
vt -0.435827 15.710710
vt -0.435827 13.277320
vt 0.871654 17.636410
vt 0.871654 11.650300
vt -0.871654 17.636410
vt -0.871654 11.650300
s 0
usemtl green
f 7/21/1 6/19/1 5/18/1
f 6/19/1 7/21/1 8/22/1
f 3/10/2 4/13/2 84/143/2 83/142/2
f 7/20/3 9/23/3 80/137/3 79/136/3
f 7/20/4 10/25/4 9/23/4
f 10/25/4 7/20/4 5/17/4
f 10/25/5 5/17/5 77/133/5 81/139/5
f 6/19/6 8/22/6 82/141/6 78/134/6
f 9/24/7 4/13/7 3/10/7
f 4/13/7 9/24/7 10/26/7
f 5/18/8 6/19/8 78/134/8 77/132/8
f 8/22/9 7/21/9 79/135/9 82/141/9
f 13/32/10 12/29/10 11/28/10
f 12/29/10 13/32/10 14/34/10
f 15/35/11 11/27/11 76/131/11 74/128/11
f 2/7/12 3/11/12 70/121/12 69/120/12
f 15/35/13 13/31/13 11/27/13
f 13/31/13 15/35/13 16/36/13
f 2/7/14 12/30/14 71/123/14 69/120/14
f 11/28/15 12/29/15 71/122/15 76/130/15
f 3/11/16 14/33/16 73/126/16 70/121/16
f 2/7/17 14/33/17 3/11/17
f 12/30/18 2/7/18 14/33/18
f 16/36/6 15/35/6 74/128/6 75/129/6
f 19/42/19 18/40/19 17/38/19
f 18/40/19 19/42/19 20/44/19
f 21/45/6 22/46/6 89/151/6 88/150/6
f 22/46/20 18/39/20 86/147/20 89/151/20
f 1/4/21 20/43/21 19/41/21
f 20/43/21 1/4/21 4/14/21
f 20/43/22 4/14/22 90/152/22 91/154/22
f 17/37/23 21/45/23 88/150/23 85/144/23
f 17/37/24 22/46/24 21/45/24
f 22/46/24 17/37/24 18/39/24
f 18/40/25 20/44/25 91/153/25 86/146/25
f 1/4/26 19/41/26 87/148/26 92/155/26
f 25/49/27 24/48/27 23/47/27
f 24/48/27 25/49/27 26/50/27
f 62/105/28 61/104/28 67/117/28
f 66/114/28 67/117/28 61/104/28
f 2/8/29 28/52/29 57/98/29 55/94/29
f 27/51/29 1/2/29 60/103/29 56/95/29
f 25/49/29 23/47/29 58/100/29 53/92/29
f 24/48/29 26/50/29 54/93/29 59/101/29
f 27/51/30 2/8/30 1/2/30
f 2/8/30 27/51/30 28/52/30
f 1/2/29 2/8/29 55/94/29 60/103/29
f 26/50/29 25/49/29 53/92/29 54/93/29
f 1/1/31 30/56/31 29/54/31
f 30/56/31 1/1/31 4/15/31
f 32/58/32 34/61/32 96/162/32 99/167/32
f 31/57/33 32/58/33 99/167/33 98/166/33
f 33/60/34 32/58/34 31/57/34
f 32/58/34 33/60/34 34/61/34
f 34/62/35 30/55/35 94/158/35 96/163/35
f 29/53/36 33/59/36 95/160/36 93/157/36
f 29/53/37 34/62/37 33/59/37
f 34/62/37 29/53/37 30/55/37
f 4/14/38 1/4/38 100/168/38 97/165/38
f 1/1/39 29/54/39 93/156/39 100/169/39
f 37/67/40 36/66/40 35/63/40
f 36/66/40 37/67/40 38/68/40
f 40/71/41 36/65/41 116/197/41 114/192/41
f 37/67/42 35/63/42 115/194/42 111/188/42
f 39/69/43 2/5/43 109/185/43 113/191/43
f 40/71/44 35/64/44 36/65/44
f 39/70/45 40/71/45 35/64/45
f 36/66/46 38/68/46 112/189/46 116/196/46
f 40/72/47 2/5/47 39/69/47
f 2/5/47 40/72/47 3/12/47
f 38/68/48 37/67/48 111/188/48 112/189/48
f 39/70/49 35/64/49 115/195/49 113/190/49
f 41/74/50 2/6/50 1/3/50
f 2/6/50 41/74/50 42/76/50
f 1/2/51 2/8/51 101/170/51 108/182/51
f 45/81/52 43/78/52 104/177/52 105/178/52
f 41/73/53 43/77/53 104/176/53 102/173/53
f 41/73/54 44/80/54 42/75/54
f 43/77/55 41/73/55 44/80/55
f 46/82/56 45/81/56 105/178/56 106/179/56
f 45/81/57 44/79/57 43/78/57
f 44/79/57 45/81/57 46/82/57
f 41/74/58 1/3/58 108/183/58 102/172/58
f 44/79/59 46/82/59 106/179/59 107/180/59
f 47/83/60 4/16/60 3/9/60
f 4/16/60 47/83/60 48/86/60
f 52/91/61 51/89/61 119/201/61 120/203/61
f 47/83/62 3/9/62 121/204/62 123/208/62
f 3/10/63 4/13/63 122/206/63 121/205/63
f 50/88/64 51/89/64 52/91/64
f 51/90/65 47/84/65 123/209/65 119/202/65
f 50/88/66 52/91/66 120/203/66 118/200/66
f 49/87/67 48/85/67 124/211/67 117/199/67
f 51/90/68 48/85/68 47/84/68
f 49/87/69 51/90/69 48/85/69
f 4/16/70 48/86/70 124/210/70 122/207/70
f 108/183/71 101/171/71 102/172/71
f 58/99/5 56/96/5 64/107/5 66/113/5
f 59/102/3 67/116/3 65/110/3 57/97/3
f 55/94/72 57/98/72 65/112/72 63/106/72
f 60/103/73 55/94/73 63/106/73 68/119/73
f 59/101/9 54/93/9 62/105/9 67/117/9
f 53/92/8 58/100/8 66/114/8 61/104/8
f 54/93/6 53/92/6 61/104/6 62/105/6
f 56/95/74 60/103/74 68/119/74 64/109/74
f 66/115/75 65/111/75 64/108/75
f 65/111/75 66/115/75 67/118/75
f 64/108/76 65/111/76 66/115/76
f 67/118/76 66/115/76 65/111/76
f 68/119/77 63/106/77 64/109/77
f 65/112/77 64/109/77 63/106/77
f 28/52/75 27/51/75 56/96/75 58/100/75 23/47/75 24/48/75 59/102/75 57/98/75
f 76/130/78 71/122/78 72/125/78
f 73/127/78 72/125/78 71/122/78
f 76/131/79 72/124/79 74/128/79
f 75/129/79 74/128/79 72/124/79
f 73/126/80 69/120/80 71/123/80
f 70/121/81 73/126/81 69/120/81
f 13/31/82 16/36/82 75/129/82 72/124/82
f 14/34/83 13/32/83 72/125/83 73/127/83
f 77/132/84 78/134/84 79/135/84
f 82/141/84 79/135/84 78/134/84
f 80/137/85 81/139/85 79/136/85
f 77/133/85 79/136/85 81/139/85
f 83/142/86 84/143/86 80/138/86
f 81/140/86 80/138/86 84/143/86
f 4/13/87 10/26/87 81/140/87 84/143/87
f 9/24/88 3/10/88 83/142/88 80/138/88
f 85/145/89 86/146/89 87/149/89
f 91/153/89 87/149/89 86/146/89
f 87/148/90 91/154/90 92/155/90
f 90/152/90 92/155/90 91/154/90
f 88/150/91 89/151/91 85/144/91
f 86/147/91 85/144/91 89/151/91
f 19/42/92 17/38/92 85/145/92 87/149/92
f 4/14/93 1/4/93 92/155/93 90/152/93
f 93/156/94 94/159/94 100/169/94
f 97/164/94 100/169/94 94/159/94
f 98/166/95 99/167/95 95/161/95
f 96/162/95 95/161/95 99/167/95
f 95/160/96 96/163/96 93/157/96
f 94/158/96 93/157/96 96/163/96
f 33/60/97 31/57/97 98/166/97 95/161/97
f 30/56/98 4/15/98 97/164/98 94/159/98
f 103/175/71 102/172/71 101/171/71
f 107/181/54 102/173/54 104/176/54
f 103/174/55 107/181/55 102/173/55
f 104/177/99 107/180/99 105/178/99
f 106/179/99 105/178/99 107/180/99
f 42/75/100 44/80/100 107/181/100 103/174/100
f 2/6/101 42/76/101 103/175/101 101/171/101
f 115/194/102 116/196/102 111/188/102
f 112/189/102 111/188/102 116/196/102
f 115/195/44 114/192/44 113/190/44
f 116/197/45 115/195/45 114/192/45
f 113/191/103 109/185/103 114/193/103
f 110/187/103 114/193/103 109/185/103
f 3/12/104 40/72/104 114/193/104 110/187/104
f 2/7/105 3/11/105 110/186/105 109/184/105
f 121/204/106 122/207/106 123/208/106
f 124/210/106 123/208/106 122/207/106
f 119/201/64 118/200/64 117/198/64
f 117/198/107 118/200/107 119/201/107
f 120/203/107 119/201/107 118/200/107
f 124/211/68 119/202/68 117/199/68
f 123/209/69 124/211/69 119/202/69
f 100/169/108 108/183/108 101/171/108 2/8/108 109/185/108 110/187/108 3/12/108 121/205/108 122/207/108 4/16/108 97/165/108
