# Blender 3.4.1
# www.blender.org
mtllib carrotGreenCollider.mtl
o carrotGreen.001
v 0.085806 -0.009960 0.003632
v 0.085806 -0.009960 -0.007438
v -0.005514 -0.009960 0.083883
v 0.005556 -0.009960 0.083883
v -0.005514 0.062129 0.061797
v 0.005556 0.062129 0.061797
v 0.061682 0.027413 0.003632
v 0.061682 0.027413 -0.007438
v -0.005514 0.062129 -0.063615
v 0.005556 0.062129 -0.063615
v -0.061983 0.091702 0.003632
v -0.061983 0.091702 -0.007438
v -0.006140 -0.067702 -0.007438
v -0.086391 -0.011211 0.003632
v -0.086391 -0.011211 -0.007438
v -0.006140 -0.067702 0.003632
v 0.006198 -0.067782 0.003632
v 0.006198 -0.067782 -0.007438
v 0.086448 -0.011292 0.003632
v 0.086448 -0.011292 -0.007438
v -0.005514 -0.011330 -0.088708
v 0.005556 -0.011330 -0.088708
v 0.005556 -0.067820 -0.008458
v -0.005514 -0.067820 -0.008458
v 0.005556 -0.067897 0.004329
v -0.005514 -0.067897 0.004329
vn 0.9009 0.4341 -0.0000
vn -0.0000 0.2929 0.9561
vn -0.0000 -0.8084 0.5887
vn 0.5756 -0.8177 -0.0000
vn 0.8423 0.5390 -0.0000
vn 0.4960 -0.7026 0.5102
vn 0.7171 0.2869 0.6352
vn -0.5756 -0.8177 -0.0000
vn -0.4968 -0.7026 0.5094
vn -0.0000 -0.8177 -0.5756
vn -0.5023 -0.7087 -0.4954
vn 0.5015 -0.7087 -0.4962
vn -0.9730 0.2308 -0.0000
vn -0.0000 0.3233 -0.9463
vn -0.6725 0.1947 -0.7140
vn 0.7124 0.2993 -0.6347
vn -0.6786 0.1844 0.7110
vn 0.4354 0.9003 -0.0000
vn -0.0061 -1.0000 -0.0057
vt -0.435827 -5.180914
vt 0.435827 -5.180914
vt -0.435827 -5.180914
vt 0.435827 -5.180914
vt 0.435827 17.476250
vt 0.000000 0.000000
vt -0.435827 17.476250
vt 0.000000 0.000000
vt 0.435827 13.709180
vt 0.000000 0.000000
vt -0.435827 13.709180
vt 0.000000 0.000000
vt -0.435827 17.476250
vt 0.000000 0.000000
vt 0.435827 17.476250
vt 0.000000 0.000000
vt -0.435827 20.667820
vt 0.000000 0.000000
vt 0.435827 20.667820
vt 0.000000 0.000000
vt 0.435827 15.730020
vt 0.435827 -5.180914
vt -0.435827 -5.180914
vt -0.435827 15.730020
vt 0.435827 13.277320
vt -0.435827 13.277320
vt -0.435827 -5.180914
vt 0.435827 -5.180914
vt 0.435827 -5.180914
vt -0.435827 -5.180914
vt 0.435827 15.710710
vt -0.435827 15.710710
vt -0.435827 15.710710
vt 0.435827 15.710710
s 0
usemtl green
f 2/2/1 1/1/1 19/27/1 20/28/1
f 6/7/2 5/5/2 3/3/2 4/4/2
f 4/4/3 3/3/3 26/34/3 25/33/3
f 19/27/4 17/25/4 18/26/4 20/28/4
f 20/28/5 8/11/5 7/9/5 19/27/5
f 4/4/6 25/33/6 17/25/6 19/27/6
f 4/4/7 19/27/7 7/9/7 6/7/7
f 13/21/8 16/24/8 14/22/8 15/23/8
f 26/34/9 3/3/9 14/22/9 16/24/9
f 22/30/10 23/31/10 24/32/10 21/29/10
f 13/21/11 15/23/11 21/29/11 24/32/11
f 18/26/12 23/31/12 22/30/12 20/28/12
f 12/19/13 15/23/13 14/22/13 11/17/13
f 10/15/14 22/30/14 21/29/14 9/13/14
f 21/29/15 15/23/15 12/19/15 9/13/15
f 20/28/16 22/30/16 10/15/16 8/11/16
f 3/3/17 5/5/17 11/17/17 14/22/17
f 5/6/18 6/8/18 7/10/18 8/12/18 10/16/18 9/14/18 12/20/18 11/18/18
f 13/21/19 24/32/19 23/31/19 18/26/19 17/25/19 25/33/19 26/34/19 16/24/19
