# Blender 3.4.1
# www.blender.org
mtllib carrotPeelCollider.mtl
o carrotBody.001
v -0.010127 0.050476 0.015000
v -0.010127 0.050476 -0.015000
v 0.002864 -0.119524 0.007500
v 0.002864 -0.119524 -0.007500
v -0.003743 0.049524 -0.015000
v 0.009247 -0.120476 -0.007500
v -0.003743 0.049524 0.015000
v 0.009247 -0.120476 0.007500
vn -0.9971 -0.0762 -0.0000
vn 0.9971 0.0762 -0.0000
vn -0.1475 -0.9891 -0.0000
vn -0.0066 -0.0446 -0.9990
vn -0.0066 -0.0446 0.9990
vn 0.1475 0.9891 -0.0000
vt 1.181102 14.287900
vt -1.181102 14.287900
vt 0.590551 0.863047
vt -0.590551 0.863047
vt -1.181102 14.287900
vt -0.590551 0.863047
vt 1.181102 14.287900
vt 0.590551 0.863047
s 0
usemtl orange.002
f 2/2/1 3/3/1 1/1/1
f 3/3/1 2/2/1 4/4/1
f 5/5/2 7/7/2 8/8/2
f 8/8/2 6/6/2 5/5/2
f 4/4/3 6/6/3 8/8/3 3/3/3
f 2/2/4 5/5/4 6/6/4 4/4/4
f 3/3/5 8/8/5 7/7/5 1/1/5
f 2/2/6 1/1/6 7/7/6 5/5/6
o carrotBody.002
v -0.002312 0.070476 0.010488
v -0.002312 0.070476 -0.010488
v -0.010127 0.050476 0.015000
v -0.010127 0.050476 -0.015000
v -0.003743 0.049524 -0.015000
v 0.004072 0.069524 0.010488
v 0.004072 0.069524 -0.010488
v -0.003743 0.049524 0.015000
vn -0.9314 0.3640 -0.0000
vn 0.9314 -0.3640 -0.0000
vn 0.1475 0.9891 -0.0000
vn 0.0311 0.2084 -0.9776
vn 0.0311 0.2084 0.9776
vn -0.1475 -0.9891 -0.0000
vt 0.825827 14.147410
vt -0.825827 14.147410
vt 1.181102 12.456650
vt -1.181102 12.456650
vt -1.181102 12.456650
vt 0.825827 14.147410
vt -0.825827 14.147410
vt 1.181102 12.456650
s 0
usemtl orange.002
f 9/9/7 12/12/7 11/11/7
f 12/12/7 9/9/7 10/10/7
f 14/14/8 16/16/8 13/13/8
f 13/13/8 15/15/8 14/14/8
f 9/9/9 14/14/9 15/15/9 10/10/9
f 10/10/10 15/15/10 13/13/10 12/12/10
f 11/11/11 16/16/11 14/14/11 9/9/11
f 12/12/12 13/13/12 16/16/12 11/11/12
