# Blender 3.4.1
# www.blender.org
mtllib carrotGreen2.mtl
o carrotGreen
v -0.011055 -0.120836 0.007571
v 0.011085 -0.120836 -0.014569
v -0.011055 -0.120836 -0.014569
v -0.033195 0.101914 -0.067397
v -0.011055 0.136322 -0.124139
v 0.033225 0.101914 -0.067397
v 0.011085 0.136322 -0.124139
v 0.022155 0.035548 -0.030555
v -0.022125 0.035548 -0.030555
v 0.063913 0.041771 0.029711
v 0.027071 -0.006676 0.018641
v 0.063913 0.041771 -0.036709
v 0.027071 -0.006676 -0.025639
v 0.120655 0.066889 0.007571
v 0.120655 0.066889 -0.014569
v -0.063882 0.153146 0.029711
v -0.063882 0.153146 -0.036709
v -0.027041 0.071516 0.018641
v -0.027041 0.071516 -0.025639
v -0.120624 0.195468 0.007571
v -0.120624 0.195468 -0.014569
v -0.033195 0.101914 0.060398
v 0.033225 0.101914 0.060398
v -0.011055 0.136322 0.117141
v 0.011085 0.136322 0.117141
v -0.073209 -0.029206 0.018641
v -0.073209 -0.029206 -0.025639
v -0.171556 -0.007855 0.007571
v -0.171556 -0.007855 -0.014569
v -0.120624 -0.003925 0.029711
v -0.120624 -0.003925 -0.036709
v 0.120655 -0.003925 0.029711
v 0.120655 -0.003925 -0.036709
v 0.171586 -0.007855 0.007571
v 0.171586 -0.007855 -0.014569
v 0.073239 -0.029206 0.018641
v 0.073239 -0.029206 -0.025639
v -0.022125 -0.029206 0.069725
v 0.022155 -0.029206 0.069725
v -0.033195 -0.003925 0.117141
v 0.033225 -0.003925 0.117141
v -0.011055 -0.007855 0.168072
v 0.011085 -0.007855 0.168072
v 0.022155 -0.029206 -0.076723
v -0.022125 -0.029206 -0.076723
v -0.033195 -0.003925 -0.124139
v -0.011055 -0.007855 -0.175070
v 0.033225 -0.003925 -0.124139
v 0.011085 -0.007855 -0.175070
v 0.011085 -0.120836 0.007571
v -0.022125 0.035548 0.023557
v 0.022155 0.035548 0.023557
v -0.011055 0.136322 0.123901
v 0.011085 0.136322 0.123901
v 0.011085 -0.105112 0.014331
v -0.022125 0.035548 0.030317
v 0.022155 0.035548 0.030317
v -0.033195 0.101914 0.067158
v 0.033225 0.101914 0.067158
v -0.011055 -0.105112 0.014331
v 0.013766 -0.117193 0.007571
v 0.013766 -0.117193 -0.014569
v 0.029752 -0.006676 0.018641
v 0.066593 0.041771 -0.036709
v 0.029752 -0.006676 -0.025639
v 0.123336 0.066889 0.007571
v 0.123336 0.066889 -0.014569
v 0.066593 0.041771 0.029711
v -0.033195 0.101914 -0.070179
v -0.011055 0.136322 -0.126922
v 0.033225 0.101914 -0.070179
v 0.022155 0.035548 -0.033338
v -0.022125 0.035548 -0.033338
v 0.011085 0.136322 -0.126922
v 0.011085 -0.112970 -0.017352
v -0.011055 -0.112970 -0.017352
v -0.067249 0.153146 0.029711
v -0.067249 0.153146 -0.036709
v -0.030408 0.071516 0.018641
v -0.123992 0.195468 0.007571
v -0.123992 0.195468 -0.014569
v -0.014422 -0.112959 -0.014569
v -0.030408 0.071516 -0.025639
v -0.014422 -0.112959 0.007571
v -0.074462 -0.031711 0.018641
v -0.074462 -0.031711 -0.025639
v -0.121878 -0.006429 0.029711
v -0.121878 -0.006429 -0.036709
v -0.012308 -0.123340 -0.014569
v -0.172809 -0.010359 0.007571
v -0.172809 -0.010359 -0.014569
v -0.012308 -0.123340 0.007571
v 0.011085 -0.123729 0.008964
v -0.022125 -0.032099 0.071118
v 0.022155 -0.032099 0.071118
v -0.033195 -0.006817 0.118534
v -0.011055 -0.010748 0.169465
v 0.011085 -0.010748 0.169465
v 0.033225 -0.006817 0.118534
v -0.011055 -0.123729 0.008964
v 0.012369 -0.123501 0.007571
v 0.012369 -0.123501 -0.014569
v 0.172870 -0.010520 0.007571
v 0.172870 -0.010520 -0.014569
v 0.074523 -0.031871 0.018641
v 0.074523 -0.031871 -0.025639
v 0.121939 -0.006589 0.029711
v 0.121939 -0.006589 -0.036709
v -0.033195 -0.006664 -0.126179
v -0.011055 -0.010595 -0.177110
v 0.033225 -0.006664 -0.126179
v 0.011085 -0.010595 -0.177110
v 0.011085 -0.123576 -0.016609
v -0.011055 -0.123576 -0.016609
v 0.022155 -0.031946 -0.078763
v -0.022125 -0.031946 -0.078763
vn -0.0000 0.8551 0.5185
vn -0.0000 -0.3335 -0.9427
vn 0.9864 -0.1645 -0.0000
vn -0.0000 0.4854 0.8743
vn -0.9864 -0.1645 -0.0000
vn -0.0000 1.0000 -0.0000
vn -0.0000 0.1017 0.9948
vn -0.8409 0.5411 -0.0000
vn 0.8409 0.5411 -0.0000
vn -0.7960 0.6053 -0.0000
vn -0.0000 0.6612 0.7502
vn 0.8054 -0.5927 -0.0000
vn -0.4048 0.9144 -0.0000
vn 0.0735 -0.1082 0.9914
vn -0.0000 -0.2228 0.9749
vn 0.0735 -0.1082 -0.9914
vn -0.9903 0.1387 -0.0000
vn 0.9115 0.4114 -0.0000
vn -0.0000 0.4635 -0.8861
vn 0.9966 0.0828 -0.0000
vn -0.0759 -0.0649 -0.9950
vn -0.0000 0.4635 0.8861
vn 0.5979 0.8016 -0.0000
vn -0.0000 -0.1344 -0.9909
vn -0.0759 -0.0649 0.9950
vn -0.0000 0.8551 -0.5185
vn -0.0000 -0.8551 0.5185
vn -0.0000 0.1017 -0.9948
vn 0.8276 0.5614 -0.0000
vn -0.4035 0.2020 -0.8924
vn -0.8943 0.4475 -0.0000
vn -0.0769 0.9970 -0.0000
vn 0.1805 -0.0903 -0.9794
vn 0.1805 -0.0903 0.9794
vn 0.4705 0.8824 -0.0000
vn 0.1018 -0.0509 0.9935
vn 0.0769 0.9970 -0.0000
vn -0.1819 -0.0877 -0.9794
vn 0.4036 0.1945 0.8940
vn -0.1034 -0.0498 0.9934
vn -0.4705 0.8824 -0.0000
vn 0.4036 0.1945 -0.8940
vn -0.8276 0.5614 -0.0000
vn 0.9009 0.4340 -0.0000
vn -0.1819 -0.0877 0.9794
vn -0.0000 0.5614 -0.8276
vn -0.8940 0.1944 0.4036
vn -0.9794 -0.0876 -0.1819
vn -0.0000 0.8824 -0.4705
vn -0.0000 0.4338 0.9010
vn -0.0000 0.9970 0.0769
vn -0.9934 -0.0498 -0.1035
vn 0.8940 0.1944 0.4036
vn -0.0000 0.5614 0.8276
vn 0.8669 0.2977 -0.3998
vn 0.9944 -0.0629 0.0844
vn -0.0000 0.9970 -0.0769
vn 0.9790 -0.1218 0.1636
vn -0.0000 0.5972 -0.8021
vn -0.9790 -0.1218 0.1636
vn -0.0000 0.8824 0.4705
vn -0.9944 -0.0629 0.0844
vn -0.0000 -0.5614 0.8276
vn 0.9916 -0.0845 0.0983
vn -0.0000 -0.3950 0.9187
vn -0.9916 -0.0845 0.0983
vn -0.0000 -0.4854 0.8743
vn -0.0000 -0.1129 0.9936
vn -0.0000 0.4854 -0.8743
vn 0.7960 -0.6053 -0.0000
vn 0.4048 -0.9144 -0.0000
vn 0.9897 -0.1432 -0.0000
vn -0.0000 0.6612 -0.7502
vn -0.0000 -0.2228 -0.9749
vn -0.0000 -0.8551 -0.5185
vn -0.0000 -0.4854 -0.8743
vn -0.0000 -0.1070 -0.9943
vn -0.9893 -0.0843 -0.1192
vn 0.9893 -0.0843 -0.1192
vn -0.9115 -0.4114 -0.0000
vn -0.9963 -0.0863 -0.0000
vn -0.5979 -0.8016 -0.0000
vn -0.0000 -0.1344 0.9909
vn -0.9195 -0.3930 -0.0000
vn -0.8276 -0.5614 -0.0000
vn 0.0769 -0.9970 -0.0000
vn -0.4705 -0.8824 -0.0000
vn -0.4035 0.2020 0.8924
vn 0.1018 -0.0509 -0.9935
vn -0.0000 -0.8824 0.4705
vn -0.0000 -0.9970 -0.0770
vn 0.9794 -0.0876 -0.1819
vn 0.9934 -0.0498 -0.1035
vn -0.0770 -0.9970 -0.0000
vn 0.4705 -0.8824 -0.0000
vn 0.8276 -0.5614 -0.0000
vn -0.1034 -0.0498 -0.9934
vn -0.6551 0.3278 0.6808
vn -0.0000 -0.5614 -0.8276
vn -0.0000 -0.9970 0.0770
vn -0.0000 -0.8824 -0.4705
vn 0.6691 0.3224 0.6696
vn -0.7665 0.3835 -0.5152
vn 0.7783 0.3750 -0.5036
vn -0.0061 -1.0000 -0.0057
vn -0.8669 0.2977 -0.3998
vt -0.435827 13.277320
vt 0.435827 15.710710
vt -0.435827 15.730020
vt 0.435827 13.277320
vt 0.000000 0.000000
vt -0.435827 15.656310
vt 0.435827 13.277320
vt 0.435827 15.710710
vt -0.435827 13.277320
vt 0.000000 0.000000
vt -0.435827 13.277320
vt -0.435827 15.710710
vt 0.435827 15.730020
vt 0.435827 13.277320
vt 0.000000 0.000000
vt -1.307480 22.657230
vt -1.307480 14.863660
vt -0.435827 17.476250
vt 1.307480 22.657230
vt 1.307480 14.863660
vt 0.435827 17.476250
vt 0.871654 19.668800
vt 0.871654 21.899630
vt -0.871654 19.668800
vt -0.871654 21.899630
vt 1.307480 11.266140
vt 1.307480 19.153870
vt 0.871653 16.757650
vt 0.871653 20.194639
vt -1.307480 11.266140
vt -1.307480 19.153870
vt -0.871654 20.194639
vt -0.871654 16.757650
vt 0.435827 13.709180
vt -0.435827 13.709180
vt -1.307480 17.880911
vt -1.307480 25.220461
vt 1.307480 17.880911
vt 1.307480 25.220461
vt -0.871654 23.329029
vt -0.871654 21.694530
vt 0.871654 23.329029
vt 0.871654 21.694530
vt -0.435827 20.667820
vt 0.435827 20.667820
vt 0.000000 0.000000
vt 1.307480 14.863660
vt -1.307480 14.863660
vt 0.000000 0.000000
vt 0.435827 17.476250
vt -0.435827 17.476250
vt -0.871654 11.650300
vt -0.871654 17.636410
vt 0.871654 11.650300
vt 0.871654 17.636410
vt 0.435827 -5.180914
vt -0.435827 -5.180914
vt -1.307480 13.765830
vt 1.307480 -3.169789
vt -1.307480 -3.169789
vt 1.307480 13.765830
vt -1.307480 -3.169789
vt 1.307480 13.765830
vt -1.307480 13.765830
vt 1.307480 -3.169789
vt -0.435827 -5.180914
vt 0.435827 -5.180914
vt 0.871653 17.636410
vt 0.871653 11.650300
vt -0.871654 11.650300
vt -0.871654 17.636410
vt 0.871653 11.650300
vt 0.871654 17.636410
vt -0.871654 11.650300
vt -0.871654 17.636410
vt 1.307480 13.765830
vt -1.307480 -3.169789
vt 1.307480 -3.169789
vt -1.307480 13.765830
vt -0.435827 -5.180914
vt 0.435827 -5.180914
vt 0.871654 17.636410
vt 0.871654 11.650300
vt -0.871654 11.650300
vt -0.871654 17.636410
vt -1.307480 13.765830
vt 0.000000 0.000000
vt 0.000000 0.000000
vt 0.435827 -5.180914
vt 1.307480 13.765830
vt -1.307480 -3.169789
vt -0.435827 -5.180914
vt 0.435827 15.656310
vt 0.435827 13.277320
vt -0.435827 15.710710
vt -0.435827 13.277320
vt 0.000000 0.000000
vt 0.871654 21.899630
vt 0.000000 0.000000
vt 0.000000 0.000000
vt -0.871654 21.899630
vt 0.435827 17.476250
vt -0.435827 17.476250
vt -0.435827 15.710710
vt 0.000000 0.000000
vt 0.871654 19.668800
vt 0.871654 21.899630
vt 0.000000 0.000000
vt -0.871654 19.668800
vt -0.871654 21.899630
vt 0.000000 0.000000
vt 1.307480 14.863660
vt 1.307480 22.657230
vt 0.000000 0.000000
vt -1.307480 14.863660
vt -1.307480 22.657230
vt 0.435827 15.710710
vt 0.435827 15.656310
vt -0.435827 15.656310
vt 0.871653 16.757650
vt 0.871653 20.194639
vt -1.307480 11.266140
vt -1.307480 19.153870
vt -0.871654 20.194639
vt -0.871654 16.757650
vt 0.435827 13.709180
vt -0.435827 13.709180
vt 1.307480 19.153870
vt 1.307480 11.266140
vt -1.307480 14.863660
vt -1.307480 22.657230
vt -0.435827 17.476250
vt 1.307480 14.863660
vt 1.307480 22.657230
vt 0.871654 19.668800
vt 0.871654 21.899630
vt -0.871654 19.668800
vt -0.871654 21.899630
vt 0.435827 17.476250
vt 0.435827 15.710710
vt -0.435827 15.710710
vt -1.307480 17.880911
vt -1.307480 25.220461
vt 1.307480 25.220461
vt 1.307480 17.880911
vt -0.871654 23.329029
vt -0.871654 21.694530
vt -0.435827 20.667820
vt 0.435827 20.667820
vt 0.435827 15.730020
vt 0.871654 21.694530
vt 0.871654 23.329029
vt -0.435827 15.730020
vt -0.871654 17.636410
vt -0.871654 11.650300
vt 0.871654 11.650300
vt 0.871654 17.636410
vt -1.307480 13.765830
vt 1.307480 -3.169789
vt -1.307480 -3.169789
vt 1.307480 13.765830
vt 0.000000 0.000000
vt 0.435827 13.277320
vt 0.435827 -5.180914
vt -0.435827 -5.180914
vt -0.435827 13.277320
vt 0.000000 0.000000
vt -0.435827 13.277320
vt 0.000000 0.000000
vt 0.871654 17.636410
vt 0.871653 11.650300
vt -0.871654 11.650300
vt -0.871654 17.636410
vt 1.307480 13.765830
vt -1.307480 -3.169789
vt -0.435827 -5.180914
vt 0.435827 -5.180914
vt 1.307480 -3.169789
vt -1.307480 13.765830
vt 0.000000 0.000000
vt 0.435827 13.277320
vt 0.435827 13.277320
vt 0.000000 0.000000
vt -0.435827 13.277320
vt 0.000000 0.000000
vt -0.435827 -5.180914
vt 0.435827 -5.180914
vt 0.871653 11.650300
vt 0.871653 17.636410
vt -0.871654 11.650300
vt -0.871654 17.636410
vt -1.307480 -3.169789
vt 1.307480 13.765830
vt 1.307480 -3.169789
vt -1.307480 13.765830
vt 1.307480 -3.169789
vt -1.307480 13.765830
vt 0.000000 0.000000
vt 0.435827 -5.180914
vt 0.000000 0.000000
vt -1.307480 -3.169789
vt 1.307480 13.765830
vt -0.435827 -5.180914
vt 0.000000 0.000000
vt 0.435827 13.277320
vt -0.435827 13.277320
vt 0.000000 0.000000
vt 0.871654 17.636410
vt 0.871654 11.650300
vt -0.871654 17.636410
vt -0.871654 11.650300
s 0
usemtl green.010
f 6/20/1 5/18/1 4/17/1
f 5/18/1 6/20/1 7/21/1
f 2/8/2 3/12/2 76/141/2 75/140/2
f 6/19/3 8/22/3 72/135/3 71/134/3
f 6/19/4 9/24/4 8/22/4
f 9/24/4 6/19/4 4/16/4
f 9/24/5 4/16/5 69/131/5 73/137/5
f 5/18/6 7/21/6 74/139/6 70/132/6
f 8/23/7 3/12/7 2/8/7
f 3/12/7 8/23/7 9/25/7
f 4/17/8 5/18/8 70/132/8 69/130/8
f 7/21/9 6/20/9 71/133/9 74/139/9
f 12/31/10 11/28/10 10/27/10
f 11/28/10 12/31/10 13/33/10
f 14/34/11 10/26/11 68/129/11 66/126/11
f 50/93/12 2/6/12 62/119/12 61/118/12
f 14/34/13 12/30/13 10/26/13
f 12/30/13 14/34/13 15/35/13
f 50/93/14 61/118/14 63/121/14 11/29/14
f 10/27/15 11/28/15 63/120/15 68/128/15
f 2/6/16 13/32/16 65/124/16 62/119/16
f 50/93/17 13/32/17 2/6/17
f 11/29/17 13/32/17 50/93/17
f 15/35/6 14/34/6 66/126/6 67/127/6
f 18/41/18 17/39/18 16/37/18
f 17/39/18 18/41/18 19/43/18
f 20/44/6 21/45/6 81/149/6 80/148/6
f 21/45/19 17/38/19 78/145/19 81/149/19
f 1/3/20 19/42/20 18/40/20
f 19/42/20 1/3/20 3/13/20
f 19/42/21 3/13/21 82/150/21 83/152/21
f 16/36/22 20/44/22 80/148/22 77/142/22
f 16/36/23 21/45/23 20/44/23
f 21/45/23 16/36/23 17/38/23
f 17/39/24 19/43/24 83/151/24 78/144/24
f 1/3/25 18/40/25 79/146/25 84/153/25
f 24/50/26 23/48/26 22/47/26
f 23/48/26 24/50/26 25/51/26
f 54/103/27 53/102/27 59/115/27
f 58/112/27 59/115/27 53/102/27
f 51/98/28 50/95/28 1/2/28
f 50/95/28 51/98/28 52/101/28
f 1/1/29 27/55/29 26/53/29
f 27/55/29 1/1/29 3/14/29
f 29/57/30 31/60/30 88/160/30 91/165/30
f 28/56/31 29/57/31 91/165/31 90/164/31
f 30/59/32 29/57/32 28/56/32
f 29/57/32 30/59/32 31/60/32
f 31/61/33 27/54/33 86/156/33 88/161/33
f 26/52/34 30/58/34 87/158/34 85/155/34
f 26/52/35 31/61/35 30/58/35
f 31/61/35 26/52/35 27/54/35
f 1/1/36 26/53/36 85/154/36 92/166/36
f 34/66/37 33/65/37 32/62/37
f 33/65/37 34/66/37 35/67/37
f 37/70/38 33/64/38 108/195/38 106/190/38
f 34/66/39 32/62/39 107/192/39 103/186/39
f 36/68/40 50/94/40 101/182/40 105/189/40
f 37/70/41 32/63/41 33/64/41
f 36/69/41 32/63/41 37/70/41
f 33/65/42 35/67/42 104/187/42 108/194/42
f 37/71/43 50/94/43 36/68/43
f 50/94/43 37/71/43 2/9/43
f 35/67/44 34/66/44 103/186/44 104/187/44
f 36/69/45 105/188/45 107/193/45 32/63/45
f 38/73/46 50/96/46 1/4/46
f 50/96/46 38/73/46 39/75/46
f 42/80/47 40/77/47 96/175/47 97/176/47
f 38/72/48 94/171/48 96/174/48 40/76/48
f 38/72/49 41/79/49 39/74/49
f 40/76/49 41/79/49 38/72/49
f 43/81/50 42/80/50 97/176/50 98/177/50
f 42/80/51 41/78/51 40/77/51
f 41/78/51 42/80/51 43/81/51
f 38/73/52 1/4/52 100/181/52 94/170/52
f 41/78/53 43/81/53 98/177/53 99/178/53
f 44/82/54 3/11/54 2/7/54
f 3/11/54 44/82/54 45/85/54
f 49/92/55 48/91/55 111/201/55 112/203/55
f 44/82/56 2/7/56 113/205/56 115/208/56
f 47/89/57 48/91/57 49/92/57
f 48/90/58 44/83/58 115/209/58 111/202/58
f 47/89/59 49/92/59 112/203/59 110/199/59
f 46/86/60 109/197/60 116/211/60 45/84/60
f 48/90/61 45/84/61 44/83/61
f 46/86/61 45/84/61 48/90/61
f 3/11/62 45/85/62 116/210/62 114/206/62
f 100/181/63 93/168/63 94/170/63
f 22/46/5 51/99/5 56/105/5 58/111/5
f 23/49/3 59/114/3 57/108/3 52/100/3
f 50/95/64 52/101/64 57/110/64 55/104/64
f 1/2/65 50/95/65 55/104/65 60/117/65
f 23/48/9 25/51/9 54/103/9 59/115/9
f 24/50/8 22/47/8 58/112/8 53/102/8
f 25/51/6 24/50/6 53/102/6 54/103/6
f 51/98/66 1/2/66 60/117/66 56/107/66
f 57/109/67 59/116/67 58/113/67
f 56/106/67 57/109/67 58/113/67
f 60/117/68 55/104/68 56/107/68
f 57/110/68 56/107/68 55/104/68
f 52/101/69 51/99/69 22/47/69 23/49/69
f 68/128/70 63/120/70 64/123/70
f 65/125/70 64/123/70 63/120/70
f 68/129/71 64/122/71 66/126/71
f 67/127/71 66/126/71 64/122/71
f 65/124/72 63/121/72 61/118/72
f 62/119/72 65/124/72 61/118/72
f 12/30/73 15/35/73 67/127/73 64/122/73
f 13/33/74 12/31/74 64/123/74 65/125/74
f 69/130/75 70/132/75 71/133/75
f 74/139/75 71/133/75 70/132/75
f 72/135/76 73/137/76 71/134/76
f 69/131/76 71/134/76 73/137/76
f 75/140/77 76/141/77 72/136/77
f 73/138/77 72/136/77 76/141/77
f 3/12/78 9/25/78 73/138/78 76/141/78
f 8/23/79 2/8/79 75/140/79 72/136/79
f 77/143/80 78/144/80 79/147/80
f 83/151/80 79/147/80 78/144/80
f 79/146/81 83/152/81 84/153/81
f 82/150/81 84/153/81 83/152/81
f 80/148/82 81/149/82 77/142/82
f 78/145/82 77/142/82 81/149/82
f 18/41/83 16/37/83 77/143/83 79/147/83
f 3/13/84 1/3/84 84/153/84 82/150/84
f 85/154/85 86/157/85 92/166/85
f 89/163/85 92/166/85 86/157/85
f 90/164/86 91/165/86 87/159/86
f 88/160/86 87/159/86 91/165/86
f 87/158/87 88/161/87 85/155/87
f 86/156/87 85/155/87 88/161/87
f 30/59/88 28/56/88 90/164/88 87/159/88
f 27/55/89 3/14/89 89/163/89 86/157/89
f 95/173/63 94/170/63 93/168/63
f 99/179/90 96/174/90 94/171/90
f 95/172/90 99/179/90 94/171/90
f 96/175/91 99/178/91 97/176/91
f 98/177/91 97/176/91 99/178/91
f 39/74/92 41/79/92 99/179/92 95/172/92
f 50/96/93 39/75/93 95/173/93 93/168/93
f 107/192/94 108/194/94 103/186/94
f 104/187/94 103/186/94 108/194/94
f 107/193/95 105/188/95 106/190/95
f 108/195/95 107/193/95 106/190/95
f 105/189/96 101/182/96 106/191/96
f 102/184/96 106/191/96 101/182/96
f 2/9/97 37/71/97 106/191/97 102/184/97
f 92/167/98 100/180/98 1/4/98
f 113/205/99 114/206/99 115/208/99
f 116/210/99 115/208/99 114/206/99
f 111/201/100 109/196/100 110/199/100
f 112/203/100 111/201/100 110/199/100
f 116/211/101 109/197/101 111/202/101
f 115/209/101 116/211/101 111/202/101
f 101/183/102 50/97/102 93/169/102
f 3/15/103 114/207/103 89/162/103
f 2/10/104 102/185/104 113/204/104
f 101/183/105 93/169/105 100/181/105 92/167/105 89/163/105 114/207/105 113/205/105 102/185/105
f 1/5/6 50/97/6 2/10/6 3/15/6
f 46/87/106 47/88/106 110/200/106 109/198/106
f 48/91/57 47/89/57 46/87/57
