# Blender 3.4.1
# www.blender.org
mtllib carrotPeel.mtl
o carrotBody.001
v -0.004623 0.140952 0.020976
v -0.004623 0.140952 -0.020976
v -0.020253 0.100952 0.030000
v -0.020253 0.100952 -0.030000
v 0.005728 -0.239048 0.015000
v 0.005728 -0.239048 -0.015000
v -0.007487 0.099048 -0.030000
v 0.018494 -0.240952 -0.015000
v 0.008143 0.139048 0.020976
v 0.008143 0.139048 -0.020976
v -0.007487 0.099048 0.030000
v 0.018494 -0.240952 0.015000
vn -0.9314 0.3640 -0.0000
vn -0.9971 -0.0762 -0.0000
vn 0.9314 -0.3640 -0.0000
vn 0.9971 0.0762 -0.0000
vn 0.1476 0.9891 -0.0000
vn -0.1476 -0.9891 -0.0000
vn 0.0311 0.2084 -0.9776
vn -0.0067 -0.0446 -0.9990
vn -0.0067 -0.0446 0.9990
vn 0.0311 0.2084 0.9776
vt 0.825827 14.147410
vt -0.825827 14.147410
vt 1.181102 14.287900
vt 1.181102 12.456650
vt -1.181102 12.456650
vt -1.181102 14.287900
vt 0.590551 0.863047
vt -0.590551 0.863047
vt -1.181102 12.456650
vt -1.181102 14.287900
vt -0.590551 0.863047
vt 0.825827 14.147410
vt -0.825827 14.147410
vt 1.181102 14.287900
vt 1.181102 12.456650
vt 0.590551 0.863047
s 0
usemtl orange
f 1/1/1 4/5/1 3/4/1
f 4/5/1 1/1/1 2/2/1
f 4/6/2 5/7/2 3/3/2
f 5/7/2 4/6/2 6/8/2
f 9/12/3 11/15/3 7/9/3
f 7/9/3 10/13/3 9/12/3
f 7/10/4 11/14/4 12/16/4
f 12/16/4 8/11/4 7/10/4
f 1/1/5 9/12/5 10/13/5 2/2/5
f 6/8/6 8/11/6 12/16/6 5/7/6
f 2/2/7 10/13/7 7/9/7 4/5/7
f 4/6/8 7/10/8 8/11/8 6/8/8
f 5/7/9 12/16/9 11/14/9 3/3/9
f 3/4/10 11/15/10 9/12/10 1/1/10
