# Blender 3.4.1
# www.blender.org
mtllib carrotGreen2.mtl
o carrotGreen
v -0.005528 -0.060418 0.003786
v 0.005542 -0.060418 -0.007285
v -0.005528 -0.060418 -0.007285
v -0.016598 0.050957 -0.033698
v -0.005528 0.068161 -0.062070
v 0.016612 0.050957 -0.033698
v 0.005542 0.068161 -0.062070
v 0.011077 0.017774 -0.015278
v -0.011063 0.017774 -0.015278
v 0.031957 0.020885 0.014856
v 0.013535 -0.003338 0.009321
v 0.031957 0.020885 -0.018354
v 0.013535 -0.003338 -0.012819
v 0.060328 0.033445 0.003786
v 0.060328 0.033445 -0.007285
v -0.031941 0.076573 0.014856
v -0.031941 0.076573 -0.018354
v -0.013520 0.035758 0.009321
v -0.013520 0.035758 -0.012819
v -0.060312 0.097734 0.003786
v -0.060312 0.097734 -0.007285
v -0.016598 0.050957 0.030199
v 0.016612 0.050957 0.030199
v -0.005528 0.068161 0.058571
v 0.005542 0.068161 0.058571
v -0.036605 -0.014603 0.009321
v -0.036605 -0.014603 -0.012819
v -0.085778 -0.003927 0.003786
v -0.085778 -0.003927 -0.007285
v -0.060312 -0.001962 0.014856
v -0.060312 -0.001962 -0.018354
v 0.060328 -0.001962 0.014856
v 0.060328 -0.001962 -0.018354
v 0.085793 -0.003927 0.003786
v 0.085793 -0.003927 -0.007285
v 0.036619 -0.014603 0.009321
v 0.036619 -0.014603 -0.012819
v -0.011063 -0.014603 0.034862
v 0.011077 -0.014603 0.034862
v -0.016598 -0.001962 0.058571
v 0.016612 -0.001962 0.058571
v -0.005528 -0.003927 0.084036
v 0.005542 -0.003927 0.084036
v 0.011077 -0.014603 -0.038362
v -0.011063 -0.014603 -0.038362
v -0.016598 -0.001962 -0.062070
v -0.005528 -0.003927 -0.087535
v 0.016612 -0.001962 -0.062070
v 0.005542 -0.003927 -0.087535
v 0.005542 -0.060418 0.003786
v -0.011063 0.017774 0.011778
v 0.011077 0.017774 0.011778
v -0.005528 0.068161 0.061951
v 0.005542 0.068161 0.061951
v 0.005542 -0.052556 0.007165
v -0.011063 0.017774 0.015158
v 0.011077 0.017774 0.015158
v -0.016598 0.050957 0.033579
v 0.016612 0.050957 0.033579
v -0.005528 -0.052556 0.007165
v 0.006883 -0.058596 0.003786
v 0.006883 -0.058596 -0.007285
v 0.014876 -0.003338 0.009321
v 0.033296 0.020885 -0.018354
v 0.014876 -0.003338 -0.012819
v 0.061668 0.033445 0.003786
v 0.061668 0.033445 -0.007285
v 0.033296 0.020885 0.014856
v -0.016598 0.050957 -0.035090
v -0.005528 0.068161 -0.063461
v 0.016612 0.050957 -0.035090
v 0.011077 0.017774 -0.016669
v -0.011063 0.017774 -0.016669
v 0.005542 0.068161 -0.063461
v 0.005542 -0.056485 -0.008676
v -0.005528 -0.056485 -0.008676
v -0.033625 0.076573 0.014856
v -0.033625 0.076573 -0.018354
v -0.015204 0.035758 0.009321
v -0.061996 0.097734 0.003786
v -0.061996 0.097734 -0.007285
v -0.007211 -0.056479 -0.007285
v -0.015204 0.035758 -0.012819
v -0.007211 -0.056479 0.003786
v -0.037231 -0.015856 0.009321
v -0.037231 -0.015856 -0.012819
v -0.060939 -0.003214 0.014856
v -0.060939 -0.003214 -0.018354
v -0.006154 -0.061670 -0.007285
v -0.086405 -0.005180 0.003786
v -0.086405 -0.005180 -0.007285
v -0.006154 -0.061670 0.003786
v 0.005542 -0.061864 0.004482
v -0.011063 -0.016050 0.035559
v 0.011077 -0.016050 0.035559
v -0.016598 -0.003408 0.059267
v -0.005528 -0.005374 0.084733
v 0.005542 -0.005374 0.084733
v 0.016612 -0.003408 0.059267
v -0.005528 -0.061864 0.004482
v 0.006185 -0.061751 0.003786
v 0.006185 -0.061751 -0.007285
v 0.086435 -0.005260 0.003786
v 0.086435 -0.005260 -0.007285
v 0.037262 -0.015935 0.009321
v 0.037262 -0.015935 -0.012819
v 0.060970 -0.003295 0.014856
v 0.060970 -0.003295 -0.018354
v -0.016598 -0.003332 -0.063089
v -0.005528 -0.005298 -0.088555
v 0.016612 -0.003332 -0.063089
v 0.005542 -0.005298 -0.088555
v 0.005542 -0.061788 -0.008305
v -0.005528 -0.061788 -0.008305
v 0.011077 -0.015973 -0.039382
v -0.011063 -0.015973 -0.039382
vn -0.0000 0.8551 0.5185
vn -0.0000 -0.3335 -0.9427
vn 0.9864 -0.1645 -0.0000
vn -0.0000 0.4854 0.8743
vn -0.9864 -0.1645 -0.0000
vn -0.0000 1.0000 -0.0000
vn -0.0000 0.1017 0.9948
vn -0.8410 0.5411 -0.0000
vn 0.8409 0.5411 -0.0000
vn -0.7960 0.6053 -0.0000
vn -0.0000 0.6612 0.7502
vn 0.8054 -0.5927 -0.0000
vn -0.4048 0.9144 -0.0000
vn 0.0735 -0.1082 0.9914
vn -0.0000 -0.2228 0.9749
vn 0.0735 -0.1082 -0.9914
vn -0.9903 0.1387 -0.0000
vn 0.9115 0.4114 -0.0000
vn -0.0000 0.4635 -0.8861
vn 0.9966 0.0828 -0.0000
vn -0.0759 -0.0649 -0.9950
vn -0.0000 0.4635 0.8861
vn 0.5979 0.8016 -0.0000
vn -0.0000 -0.1344 -0.9909
vn -0.0759 -0.0649 0.9950
vn -0.0000 0.8551 -0.5185
vn -0.0000 -0.8551 0.5185
vn -0.0000 0.1017 -0.9948
vn 0.8276 0.5614 -0.0000
vn -0.4035 0.2020 -0.8924
vn -0.8943 0.4475 -0.0000
vn -0.0769 0.9970 -0.0000
vn 0.1805 -0.0903 -0.9794
vn 0.1805 -0.0903 0.9794
vn 0.4705 0.8824 -0.0000
vn 0.1018 -0.0509 0.9935
vn 0.0769 0.9970 -0.0000
vn -0.1819 -0.0877 -0.9794
vn 0.4036 0.1945 0.8940
vn -0.1034 -0.0498 0.9934
vn -0.4705 0.8824 -0.0000
vn 0.4036 0.1945 -0.8940
vn -0.8276 0.5614 -0.0000
vn 0.9009 0.4340 -0.0000
vn -0.1819 -0.0877 0.9794
vn -0.0000 0.5614 -0.8276
vn -0.8940 0.1944 0.4036
vn -0.9794 -0.0876 -0.1819
vn -0.0000 0.8824 -0.4705
vn -0.0000 0.4338 0.9010
vn -0.0000 0.9970 0.0769
vn -0.9934 -0.0498 -0.1035
vn 0.8940 0.1944 0.4036
vn -0.0000 0.5614 0.8276
vn 0.8669 0.2977 -0.3998
vn 0.9944 -0.0629 0.0844
vn -0.0000 0.9970 -0.0769
vn 0.9790 -0.1218 0.1636
vn -0.0000 0.5972 -0.8021
vn -0.9790 -0.1218 0.1636
vn -0.0000 0.8824 0.4705
vn -0.9944 -0.0629 0.0844
vn -0.0000 -0.5614 0.8276
vn 0.9916 -0.0845 0.0983
vn -0.0000 -0.3950 0.9187
vn -0.8409 0.5411 -0.0000
vn -0.9916 -0.0845 0.0983
vn -0.0000 -0.4854 0.8743
vn -0.0000 -0.1129 0.9936
vn -0.0000 0.4854 -0.8743
vn 0.7960 -0.6053 -0.0000
vn 0.4048 -0.9144 -0.0000
vn 0.9897 -0.1432 -0.0000
vn -0.0000 0.6612 -0.7502
vn -0.0000 -0.2228 -0.9749
vn -0.0000 -0.8551 -0.5185
vn -0.0000 -0.4854 -0.8743
vn -0.0000 -0.1070 -0.9943
vn -0.9893 -0.0843 -0.1192
vn 0.9893 -0.0843 -0.1192
vn -0.9115 -0.4114 -0.0000
vn -0.9963 -0.0863 -0.0000
vn -0.5979 -0.8016 -0.0000
vn -0.0000 -0.1344 0.9909
vn -0.9195 -0.3930 -0.0000
vn -0.8276 -0.5614 -0.0000
vn 0.0769 -0.9970 -0.0000
vn -0.4705 -0.8824 -0.0000
vn -0.4035 0.2020 0.8924
vn 0.1018 -0.0509 -0.9935
vn -0.0000 -0.8824 0.4705
vn -0.0000 -0.9970 -0.0770
vn 0.9794 -0.0876 -0.1819
vn 0.9934 -0.0498 -0.1035
vn -0.0770 -0.9970 -0.0000
vn 0.4705 -0.8824 -0.0000
vn 0.8276 -0.5614 -0.0000
vn -0.1034 -0.0498 -0.9934
vn -0.6551 0.3278 0.6808
vn -0.0000 -0.5614 -0.8276
vn -0.0000 -0.9970 0.0770
vn -0.0000 -0.8824 -0.4705
vn 0.6691 0.3224 0.6696
vn -0.7665 0.3835 -0.5152
vn 0.7783 0.3750 -0.5036
vn -0.0061 -1.0000 -0.0057
vn -0.8669 0.2977 -0.3998
vt -0.435827 13.277320
vt 0.435827 15.710710
vt -0.435827 15.730020
vt 0.435827 13.277320
vt 0.000000 0.000000
vt -0.435827 15.656310
vt 0.435827 13.277320
vt 0.435827 15.710710
vt -0.435827 13.277320
vt 0.000000 0.000000
vt -0.435827 13.277320
vt -0.435827 15.710710
vt 0.435827 15.730020
vt 0.435827 13.277320
vt 0.000000 0.000000
vt -1.307480 22.657230
vt -1.307480 14.863660
vt -0.435827 17.476250
vt 1.307480 22.657230
vt 1.307480 14.863660
vt 0.435827 17.476250
vt 0.871654 19.668800
vt 0.871654 21.899630
vt -0.871654 19.668800
vt -0.871654 21.899630
vt 1.307480 11.266140
vt 1.307480 19.153870
vt 0.871653 16.757650
vt 0.871653 20.194639
vt -1.307480 11.266140
vt -1.307480 19.153870
vt -0.871654 20.194639
vt -0.871654 16.757650
vt 0.435827 13.709180
vt -0.435827 13.709180
vt -1.307480 17.880911
vt -1.307480 25.220461
vt 1.307480 17.880911
vt 1.307480 25.220461
vt -0.871654 23.329029
vt -0.871654 21.694530
vt 0.871654 23.329029
vt 0.871654 21.694530
vt -0.435827 20.667820
vt 0.435827 20.667820
vt 0.000000 0.000000
vt 1.307480 14.863660
vt -1.307480 14.863660
vt 0.000000 0.000000
vt 0.435827 17.476250
vt -0.435827 17.476250
vt -0.871654 11.650300
vt -0.871654 17.636410
vt 0.871654 11.650300
vt 0.871654 17.636410
vt 0.435827 -5.180914
vt -0.435827 -5.180914
vt -1.307480 13.765830
vt 1.307480 -3.169789
vt -1.307480 -3.169789
vt 1.307480 13.765830
vt -1.307480 -3.169789
vt 1.307480 13.765830
vt -1.307480 13.765830
vt 1.307480 -3.169789
vt -0.435827 -5.180914
vt 0.435827 -5.180914
vt 0.871653 17.636410
vt 0.871653 11.650300
vt -0.871654 11.650300
vt -0.871654 17.636410
vt 0.871653 11.650300
vt 0.871654 17.636410
vt -0.871654 11.650300
vt -0.871654 17.636410
vt 1.307480 13.765830
vt -1.307480 -3.169789
vt 1.307480 -3.169789
vt -1.307480 13.765830
vt -0.435827 -5.180914
vt 0.435827 -5.180914
vt 0.871654 17.636410
vt 0.871654 11.650300
vt -0.871654 11.650300
vt -0.871654 17.636410
vt -1.307480 13.765830
vt 0.000000 0.000000
vt 0.000000 0.000000
vt 0.435827 -5.180914
vt 1.307480 13.765830
vt -1.307480 -3.169789
vt -0.435827 -5.180914
vt 0.435827 15.656310
vt 0.435827 13.277320
vt -0.435827 15.710710
vt -0.435827 13.277320
vt 0.000000 0.000000
vt 0.871654 21.899630
vt 0.000000 0.000000
vt 0.000000 0.000000
vt -0.871654 21.899630
vt 0.435827 17.476250
vt -0.435827 17.476250
vt -0.435827 15.710710
vt 0.000000 0.000000
vt 0.871654 19.668800
vt 0.871654 21.899630
vt 0.000000 0.000000
vt -0.871654 19.668800
vt -0.871654 21.899630
vt 0.000000 0.000000
vt 1.307480 14.863660
vt 1.307480 22.657230
vt 0.000000 0.000000
vt -1.307480 14.863660
vt -1.307480 22.657230
vt 0.435827 15.710710
vt 0.435827 15.656310
vt -0.435827 15.656310
vt 0.871653 16.757650
vt 0.871653 20.194639
vt -1.307480 11.266140
vt -1.307480 19.153870
vt -0.871654 20.194639
vt -0.871654 16.757650
vt 0.435827 13.709180
vt -0.435827 13.709180
vt 1.307480 19.153870
vt 1.307480 11.266140
vt -1.307480 14.863660
vt -1.307480 22.657230
vt -0.435827 17.476250
vt 1.307480 14.863660
vt 1.307480 22.657230
vt 0.871654 19.668800
vt 0.871654 21.899630
vt -0.871654 19.668800
vt -0.871654 21.899630
vt 0.435827 17.476250
vt 0.435827 15.710710
vt -0.435827 15.710710
vt -1.307480 17.880911
vt -1.307480 25.220461
vt 1.307480 25.220461
vt 1.307480 17.880911
vt -0.871654 23.329029
vt -0.871654 21.694530
vt -0.435827 20.667820
vt 0.435827 20.667820
vt 0.435827 15.730020
vt 0.871654 21.694530
vt 0.871654 23.329029
vt -0.435827 15.730020
vt -0.871654 17.636410
vt -0.871654 11.650300
vt 0.871654 11.650300
vt 0.871654 17.636410
vt -1.307480 13.765830
vt 1.307480 -3.169789
vt -1.307480 -3.169789
vt 1.307480 13.765830
vt 0.000000 0.000000
vt 0.435827 13.277320
vt 0.435827 -5.180914
vt -0.435827 -5.180914
vt -0.435827 13.277320
vt 0.000000 0.000000
vt -0.435827 13.277320
vt 0.000000 0.000000
vt 0.871654 17.636410
vt 0.871653 11.650300
vt -0.871654 11.650300
vt -0.871654 17.636410
vt 1.307480 13.765830
vt -1.307480 -3.169789
vt -0.435827 -5.180914
vt 0.435827 -5.180914
vt 1.307480 -3.169789
vt -1.307480 13.765830
vt 0.000000 0.000000
vt 0.435827 13.277320
vt 0.435827 13.277320
vt 0.000000 0.000000
vt -0.435827 13.277320
vt 0.000000 0.000000
vt -0.435827 -5.180914
vt 0.435827 -5.180914
vt 0.871653 11.650300
vt 0.871653 17.636410
vt -0.871654 11.650300
vt -0.871654 17.636410
vt -1.307480 -3.169789
vt 1.307480 13.765830
vt 1.307480 -3.169789
vt -1.307480 13.765830
vt 1.307480 -3.169789
vt -1.307480 13.765830
vt 0.000000 0.000000
vt 0.435827 -5.180914
vt 0.000000 0.000000
vt -1.307480 -3.169789
vt 1.307480 13.765830
vt -0.435827 -5.180914
vt 0.000000 0.000000
vt 0.435827 13.277320
vt -0.435827 13.277320
vt 0.000000 0.000000
vt 0.871654 17.636410
vt 0.871654 11.650300
vt -0.871654 17.636410
vt -0.871654 11.650300
s 0
usemtl green.010
f 6/20/1 5/18/1 4/17/1
f 5/18/1 6/20/1 7/21/1
f 2/8/2 3/12/2 76/141/2 75/140/2
f 6/19/3 8/22/3 72/135/3 71/134/3
f 6/19/4 9/24/4 8/22/4
f 9/24/4 6/19/4 4/16/4
f 9/24/5 4/16/5 69/131/5 73/137/5
f 5/18/6 7/21/6 74/139/6 70/132/6
f 8/23/7 3/12/7 2/8/7
f 3/12/7 8/23/7 9/25/7
f 4/17/8 5/18/8 70/132/8 69/130/8
f 7/21/9 6/20/9 71/133/9 74/139/9
f 12/31/10 11/28/10 10/27/10
f 11/28/10 12/31/10 13/33/10
f 14/34/11 10/26/11 68/129/11 66/126/11
f 50/93/12 2/6/12 62/119/12 61/118/12
f 14/34/13 12/30/13 10/26/13
f 12/30/13 14/34/13 15/35/13
f 50/93/14 61/118/14 63/121/14 11/29/14
f 10/27/15 11/28/15 63/120/15 68/128/15
f 2/6/16 13/32/16 65/124/16 62/119/16
f 50/93/17 13/32/17 2/6/17
f 11/29/17 13/32/17 50/93/17
f 15/35/6 14/34/6 66/126/6 67/127/6
f 18/41/18 17/39/18 16/37/18
f 17/39/18 18/41/18 19/43/18
f 20/44/6 21/45/6 81/149/6 80/148/6
f 21/45/19 17/38/19 78/145/19 81/149/19
f 1/3/20 19/42/20 18/40/20
f 19/42/20 1/3/20 3/13/20
f 19/42/21 3/13/21 82/150/21 83/152/21
f 16/36/22 20/44/22 80/148/22 77/142/22
f 16/36/23 21/45/23 20/44/23
f 21/45/23 16/36/23 17/38/23
f 17/39/24 19/43/24 83/151/24 78/144/24
f 1/3/25 18/40/25 79/146/25 84/153/25
f 24/50/26 23/48/26 22/47/26
f 23/48/26 24/50/26 25/51/26
f 54/103/27 53/102/27 59/115/27
f 58/112/27 59/115/27 53/102/27
f 51/98/28 50/95/28 1/2/28
f 50/95/28 51/98/28 52/101/28
f 1/1/29 27/55/29 26/53/29
f 27/55/29 1/1/29 3/14/29
f 29/57/30 31/60/30 88/160/30 91/165/30
f 28/56/31 29/57/31 91/165/31 90/164/31
f 30/59/32 29/57/32 28/56/32
f 29/57/32 30/59/32 31/60/32
f 31/61/33 27/54/33 86/156/33 88/161/33
f 26/52/34 30/58/34 87/158/34 85/155/34
f 26/52/35 31/61/35 30/58/35
f 31/61/35 26/52/35 27/54/35
f 1/1/36 26/53/36 85/154/36 92/166/36
f 34/66/37 33/65/37 32/62/37
f 33/65/37 34/66/37 35/67/37
f 37/70/38 33/64/38 108/195/38 106/190/38
f 34/66/39 32/62/39 107/192/39 103/186/39
f 36/68/40 50/94/40 101/182/40 105/189/40
f 37/70/41 32/63/41 33/64/41
f 36/69/41 32/63/41 37/70/41
f 33/65/42 35/67/42 104/187/42 108/194/42
f 37/71/43 50/94/43 36/68/43
f 50/94/43 37/71/43 2/9/43
f 35/67/44 34/66/44 103/186/44 104/187/44
f 36/69/45 105/188/45 107/193/45 32/63/45
f 38/73/46 50/96/46 1/4/46
f 50/96/46 38/73/46 39/75/46
f 42/80/47 40/77/47 96/175/47 97/176/47
f 38/72/48 94/171/48 96/174/48 40/76/48
f 38/72/49 41/79/49 39/74/49
f 40/76/49 41/79/49 38/72/49
f 43/81/50 42/80/50 97/176/50 98/177/50
f 42/80/51 41/78/51 40/77/51
f 41/78/51 42/80/51 43/81/51
f 38/73/52 1/4/52 100/181/52 94/170/52
f 41/78/53 43/81/53 98/177/53 99/178/53
f 44/82/54 3/11/54 2/7/54
f 3/11/54 44/82/54 45/85/54
f 49/92/55 48/91/55 111/201/55 112/203/55
f 44/82/56 2/7/56 113/205/56 115/208/56
f 47/89/57 48/91/57 49/92/57
f 48/90/58 44/83/58 115/209/58 111/202/58
f 47/89/59 49/92/59 112/203/59 110/199/59
f 46/86/60 109/197/60 116/211/60 45/84/60
f 48/90/61 45/84/61 44/83/61
f 46/86/61 45/84/61 48/90/61
f 3/11/62 45/85/62 116/210/62 114/206/62
f 100/181/63 93/168/63 94/170/63
f 22/46/5 51/99/5 56/105/5 58/111/5
f 23/49/3 59/114/3 57/108/3 52/100/3
f 50/95/64 52/101/64 57/110/64 55/104/64
f 1/2/65 50/95/65 55/104/65 60/117/65
f 23/48/9 25/51/9 54/103/9 59/115/9
f 24/50/66 22/47/66 58/112/66 53/102/66
f 25/51/6 24/50/6 53/102/6 54/103/6
f 51/98/67 1/2/67 60/117/67 56/107/67
f 57/109/68 59/116/68 58/113/68
f 56/106/68 57/109/68 58/113/68
f 60/117/69 55/104/69 56/107/69
f 57/110/69 56/107/69 55/104/69
f 52/101/70 51/99/70 22/47/70 23/49/70
f 68/128/71 63/120/71 64/123/71
f 65/125/71 64/123/71 63/120/71
f 68/129/72 64/122/72 66/126/72
f 67/127/72 66/126/72 64/122/72
f 65/124/73 63/121/73 61/118/73
f 62/119/73 65/124/73 61/118/73
f 12/30/74 15/35/74 67/127/74 64/122/74
f 13/33/75 12/31/75 64/123/75 65/125/75
f 69/130/76 70/132/76 71/133/76
f 74/139/76 71/133/76 70/132/76
f 72/135/77 73/137/77 71/134/77
f 69/131/77 71/134/77 73/137/77
f 75/140/78 76/141/78 72/136/78
f 73/138/78 72/136/78 76/141/78
f 3/12/79 9/25/79 73/138/79 76/141/79
f 8/23/80 2/8/80 75/140/80 72/136/80
f 77/143/81 78/144/81 79/147/81
f 83/151/81 79/147/81 78/144/81
f 79/146/82 83/152/82 84/153/82
f 82/150/82 84/153/82 83/152/82
f 80/148/83 81/149/83 77/142/83
f 78/145/83 77/142/83 81/149/83
f 18/41/84 16/37/84 77/143/84 79/147/84
f 3/13/85 1/3/85 84/153/85 82/150/85
f 85/154/86 86/157/86 92/166/86
f 89/163/86 92/166/86 86/157/86
f 90/164/87 91/165/87 87/159/87
f 88/160/87 87/159/87 91/165/87
f 87/158/88 88/161/88 85/155/88
f 86/156/88 85/155/88 88/161/88
f 30/59/89 28/56/89 90/164/89 87/159/89
f 27/55/90 3/14/90 89/163/90 86/157/90
f 95/173/63 94/170/63 93/168/63
f 99/179/91 96/174/91 94/171/91
f 95/172/91 99/179/91 94/171/91
f 96/175/92 99/178/92 97/176/92
f 98/177/92 97/176/92 99/178/92
f 39/74/93 41/79/93 99/179/93 95/172/93
f 50/96/94 39/75/94 95/173/94 93/168/94
f 107/192/95 108/194/95 103/186/95
f 104/187/95 103/186/95 108/194/95
f 107/193/96 105/188/96 106/190/96
f 108/195/96 107/193/96 106/190/96
f 105/189/97 101/182/97 106/191/97
f 102/184/97 106/191/97 101/182/97
f 2/9/98 37/71/98 106/191/98 102/184/98
f 92/167/99 100/180/99 1/4/99
f 113/205/100 114/206/100 115/208/100
f 116/210/100 115/208/100 114/206/100
f 111/201/101 109/196/101 110/199/101
f 112/203/101 111/201/101 110/199/101
f 116/211/102 109/197/102 111/202/102
f 115/209/102 116/211/102 111/202/102
f 101/183/103 50/97/103 93/169/103
f 3/15/104 114/207/104 89/162/104
f 2/10/105 102/185/105 113/204/105
f 101/183/106 93/169/106 100/181/106 92/167/106 89/163/106 114/207/106 113/205/106 102/185/106
f 1/5/6 50/97/6 2/10/6 3/15/6
f 46/87/107 47/88/107 110/200/107 109/198/107
f 48/91/57 47/89/57 46/87/57
