# Blender 3.4.1
# www.blender.org
mtllib carrotPeel.mtl
o carrotBody.001
v 0.000000 0.360000 0.060000
v 0.051962 0.360000 0.030000
v 0.000000 0.020000 0.030000
v 0.025981 0.020000 0.015000
v 0.005102 0.019220 0.038837
v 0.031083 0.019220 0.023837
v 0.005102 0.359220 0.068837
v 0.057064 0.359220 0.038837
vn -0.4985 0.0762 -0.8635
vn 0.4985 -0.0762 0.8635
vn 0.0381 0.9971 0.0660
vn 0.8635 -0.0438 -0.5024
vn -0.8669 -0.0438 0.4966
vn -0.0381 -0.9971 -0.0660
vt -1.181102 14.287900
vt 1.181102 14.287900
vt -0.590551 0.863047
vt 0.590551 0.863047
vt -0.590551 0.863047
vt 0.590551 0.863047
vt -1.181102 14.287900
vt 1.181102 14.287900
s 0
usemtl orange
f 2/2/1 4/4/1 3/3/1
f 3/3/1 1/1/1 2/2/1
f 8/8/2 5/5/2 6/6/2
f 5/5/2 8/8/2 7/7/2
f 2/2/3 1/1/3 7/7/3 8/8/3
f 4/4/4 2/2/4 8/8/4 6/6/4
f 1/1/5 3/3/5 5/5/5 7/7/5
f 3/3/6 4/4/6 6/6/6 5/5/6
