# Blender v2.78 (sub 0) OBJ File: ''
# www.blender.org
mtllib back.mtl
o fridge1.001_ID5.006
v -0.780000 -0.047901 0.764770
v -0.780000 -0.047900 -0.842911
v 0.780000 -0.047900 -0.842911
v 0.780000 -0.047901 0.764770
v -0.699468 0.047901 0.764770
v 0.699468 0.047901 0.764770
v -0.699468 0.047901 -0.686628
v 0.699468 0.047901 -0.686628
vt 0.0000 0.0000
vt -20.4724 0.0000
vt 0.0000 35.1636
vt -20.4724 35.1636
vt 0.0000 0.0000
vt 0.0000 0.0000
vt 0.0000 0.0000
vt 0.0000 0.0000
vn 0.0000 -1.0000 -0.0000
vn 0.0000 1.0000 0.0000
vn -0.7655 0.6435 0.0000
vn 0.0000 0.0000 1.0000
vn 0.0000 0.8526 -0.5226
vn 0.7655 0.6435 0.0000
usemtl metalLight.006
s off
f 2/1/1 3/2/1 1/3/1
f 4/4/1 1/3/1 3/2/1
f 6/5/2 7/6/2 5/7/2
f 7/6/2 6/5/2 8/8/2
f 2/1/3 1/3/3 7/6/3
f 6/5/4 5/7/4 1/3/4
f 2/1/5 7/6/5 8/8/5
f 8/8/5 3/2/5 2/1/5
f 6/5/6 4/4/6 8/8/6
f 7/6/3 1/3/3 5/7/3
f 4/4/4 6/5/4 1/3/4
f 8/8/6 4/4/6 3/2/6
