# Blender v2.78 (sub 0) OBJ File: ''
# www.blender.org
mtllib base.mtl
o fridge1.001_ID5.012
v 0.780000 0.321934 -0.088082
v -0.780000 0.321934 -0.088082
v 0.780000 0.321934 0.019882
v -0.780000 0.321934 0.019882
v -0.780000 0.381935 0.019882
v 0.780000 0.381934 0.019882
v -0.780000 -0.703867 -0.088082
v 0.780000 -0.703867 -0.088082
v 0.780000 0.381934 0.068201
v -0.780000 0.381934 0.068201
v -0.780000 -0.703870 0.068201
v 0.780000 -0.703870 0.068201
vt 20.4724 0.0000
vt 0.0000 0.0000
vt 20.4724 2.3614
vt 0.0000 2.3614
vt 0.0000 0.0000
vt 0.0000 -0.7874
vt -20.4724 0.0000
vt -20.4724 -0.7874
vt 0.0000 13.4620
vt -20.4724 13.4620
vt -20.4724 0.0000
vt 0.0000 0.0000
vt 0.0000 2.3614
vt 13.4620 0.0000
vt 0.0000 2.3614
vt 19.4156 3.4183
vt 20.4724 2.3614
vt 1.0569 3.4183
vt 1.0569 3.4183
vt 0.0000 0.0000
vt 19.4156 3.4183
vn 0.0000 1.0000 0.0000
vn 0.0000 0.0000 -1.0000
vn 1.0000 0.0000 0.0000
vn -1.0000 0.0000 0.0000
vn 0.0000 -1.0000 -0.0000
vn 0.0000 0.0000 1.0000
usemtl metalLight.002
s 1
f 1/1/1 2/2/1 3/3/1
f 4/4/1 3/3/1 2/2/1
f 4/5/2 5/6/2 3/7/2
f 6/8/2 3/7/2 5/6/2
f 7/9/2 2/2/2 8/10/2
f 1/11/2 8/10/2 2/2/2
f 1/12/3 3/13/3 8/14/3
f 5/15/1 9/16/1 6/17/1
f 9/16/1 5/15/1 10/18/1
f 10/18/4 4/4/4 11/19/4
f 4/5/4 10/18/4 5/15/4
f 7/20/4 11/19/4 2/2/4
f 8/10/3 3/13/3 12/21/3
f 12/21/5 11/19/5 7/20/5
f 9/16/6 10/18/6 11/19/6 12/21/6
f 9/16/3 12/21/3 3/13/3
f 2/2/4 11/19/4 4/4/4
f 7/9/5 8/10/5 12/21/5
f 9/16/3 3/7/3 6/17/3
