# Blender v2.78 (sub 0) OBJ File: ''
# www.blender.org
mtllib freezer_shelf.mtl
o fridge1.001_ID5.005
v -0.256552 0.450000 0.024159
v -0.256552 -0.450000 0.024159
v 0.256552 0.450000 0.024159
v 0.256552 -0.450000 0.024159
v 0.256552 0.450000 -0.024160
v 0.256552 -0.450000 -0.024160
v -0.256552 0.450000 -0.024160
v -0.256552 -0.450000 -0.024160
vt 1.0569 0.3937
vt 1.0569 12.2047
vt 19.4156 0.3937
vt 19.4156 12.2047
vt 19.4156 27.1646
vt 1.0569 27.1646
vt 19.4156 28.2214
vt 1.0569 28.2214
vt -1.0569 12.2047
vt -1.0569 0.3937
vt -19.4156 12.2047
vt -19.4156 0.3937
vn 0.0000 0.0000 1.0000
vn 0.0000 1.0000 0.0000
vn 0.0000 0.0000 -1.0000
vn 0.0000 -1.0000 0.0000
vn -1.0000 0.0000 0.0000
vn 1.0000 0.0000 0.0000
usemtl metalLight.006
s off
f 1/1/1 2/2/1 3/3/1
f 4/4/1 3/3/1 2/2/1
f 5/5/2 7/6/2 3/7/2
f 1/8/2 3/7/2 7/6/2
f 8/9/3 7/10/3 6/11/3
f 5/12/3 6/11/3 7/10/3
f 2/2/4 6/11/4 4/4/4
f 2/2/5 1/8/5 8/9/5
f 8/9/5 1/8/5 7/10/5
f 4/4/6 6/11/6 5/12/6
f 8/9/4 6/11/4 2/2/4
f 5/5/6 3/7/6 4/4/6
