# Blender v2.78 (sub 0) OBJ File: ''
# www.blender.org
mtllib top.mtl
o fridge1.001_ID5.011
v -0.699468 0.542901 0.024160
v -0.699468 -0.542901 0.024160
v 0.699468 0.542901 0.024160
v 0.699468 -0.542901 0.024160
v 0.780000 0.542901 -0.024159
v 0.780000 -0.542901 -0.024159
v -0.780000 0.542901 -0.024159
v -0.780000 -0.542901 -0.024159
vt 1.0569 -0.7874
vt 1.0569 13.4620
vt 19.4156 -0.7874
vt 19.4156 13.4620
vt 0.0000 0.0000
vt 0.0000 0.0000
vt 0.0000 0.0000
vt 0.0000 0.0000
vn 0.0000 0.0000 1.0000
vn 0.0000 0.0000 -1.0000
vn 0.5145 0.0000 0.8575
vn -0.5145 0.0000 0.8575
vn 0.0000 1.0000 0.0000
vn 0.0000 -1.0000 0.0000
usemtl metalLight.001
s 1
f 1/1/1 2/2/1 3/3/1
f 4/4/1 3/3/1 2/2/1
f 5/5/2 6/6/2 7/7/2
f 8/8/2 7/7/2 6/6/2
f 6/6/3 5/5/3 4/4/3
f 8/8/4 2/2/4 1/1/4
f 5/5/5 7/7/5 3/3/5
f 7/7/5 1/1/5 3/3/5
f 8/8/6 6/6/6 2/2/6
f 3/3/3 4/4/3 5/5/3
f 8/8/4 1/1/4 7/7/4
f 4/4/6 2/2/6 6/6/6
