# Blender v2.78 (sub 0) OBJ File: ''
# www.blender.org
mtllib loaf_core.mtl
o loaf
v -0.108702 0.046864 -0.000709
v -0.108702 0.038004 -0.091279
v -0.108702 0.038004 -0.006734
v -0.108702 0.052101 0.012581
v -0.108702 -0.038004 -0.091279
v -0.108702 -0.038004 -0.006734
v -0.108702 -0.046864 -0.000709
v -0.108702 -0.052101 0.012581
v -0.108702 -0.046864 0.025871
v -0.108702 -0.028355 0.038458
v -0.108702 -0.000000 0.043624
v -0.108702 0.028355 0.038458
v -0.108702 0.046864 0.025872
v 0.108702 -0.052101 0.012581
v 0.108702 -0.046864 0.025871
v 0.108702 -0.028355 0.038458
v 0.108702 -0.000000 0.043624
v 0.108702 0.028355 0.038458
v 0.108702 0.046864 0.025872
v 0.108702 0.052101 0.012581
v 0.108702 0.046864 -0.000709
v 0.108702 0.038004 -0.006734
v 0.108702 0.038004 -0.091279
v 0.108702 -0.038004 -0.091279
v 0.108702 -0.038004 -0.006734
v 0.108702 -0.046864 -0.000709
vt 3.9899 1.6123
vt -3.9899 1.6123
vt 0.0000 0.0000
vt -4.9201 13.9116
vt -3.9899 10.4885
vt -2.9769 15.2330
vt -4.9201 11.1210
vt -5.4699 12.5163
vt 0.0000 15.7754
vt 2.9769 15.2330
vt 3.9899 10.4885
vt 4.9201 11.1210
vt 4.9201 13.9116
vt 5.4699 12.5163
vt 3.9899 1.6123
vt -3.9899 10.4885
vt -3.9899 1.6123
vt -2.9769 15.2330
vt 0.0000 15.7754
vt 2.9769 15.2330
vt 3.9899 10.4885
vt 4.9201 13.9116
vt 4.9201 11.1210
vt 5.4699 12.5163
vt -4.9201 13.9116
vt -4.9201 11.1210
vt -5.4699 12.5163
vn -0.6553 0.3757 -0.6553
vn -0.5774 0.5774 -0.5774
vn 0.5774 0.5774 -0.5774
vn -0.6464 0.5959 0.4765
vn -0.8290 0.4943 -0.2617
vn -0.6634 0.2836 0.6925
vn -0.6464 0.5959 -0.4765
vn -0.6331 0.7740 -0.0000
vn -0.6689 0.0000 0.7434
vn -0.6634 -0.2836 0.6925
vn -0.8290 -0.4943 -0.2617
vn -0.6464 -0.5959 -0.4765
vn -0.6464 -0.5959 0.4765
vn -0.6331 -0.7740 0.0000
vn 0.8290 -0.4943 -0.2617
vn 0.8203 0.2341 -0.5218
vn 0.6634 -0.2836 0.6925
vn 0.6689 0.0000 0.7434
vn 0.6634 0.2836 0.6925
vn 0.8290 0.4943 -0.2617
vn 0.6464 0.5959 0.4765
vn 0.6464 0.5959 -0.4765
vn 0.6331 0.7740 -0.0000
vn 0.6464 -0.5959 0.4765
vn 0.6464 -0.5959 -0.4765
vn 0.6331 -0.7740 -0.0000
usemtl brownLight.001
s 1
f 5/1/1 2/2/2 23/3/3
f 13/4/4 3/5/5 12/6/6
f 3/5/5 13/4/4 1/7/7
f 1/7/7 13/4/4 4/8/8
f 2/2/2 12/6/6 3/5/5
f 2/2/2 11/9/9 12/6/6
f 2/2/2 10/10/10 11/9/9
f 5/1/1 10/10/10 2/2/2
f 6/11/11 10/10/10 5/1/1
f 7/12/12 10/10/10 6/11/11
f 7/12/12 9/13/13 10/10/10
f 9/13/13 7/12/12 8/14/14
f 23/15/3 25/16/15 24/17/16
f 25/16/15 23/15/3 16/18/17
f 16/18/17 23/15/3 17/19/18
f 17/19/18 23/15/3 18/20/19
f 18/20/19 23/15/3 22/21/20
f 18/20/19 22/21/20 19/22/21
f 19/22/21 22/21/20 21/23/22
f 19/22/21 21/23/22 20/24/23
f 15/25/24 25/16/15 16/18/17
f 15/25/24 26/26/25 25/16/15
f 26/26/25 15/25/24 14/27/26
f 23/3/3 24/17/16 5/1/1
f 24/17/16 25/16/15 5/1/1
f 5/1/1 25/16/15 6/11/11
f 25/16/15 26/26/25 6/11/11
f 6/11/11 26/26/25 7/12/12
f 26/26/25 14/27/26 7/12/12
f 8/14/14 7/12/12 14/27/26
f 14/27/26 15/25/24 8/14/14
f 9/13/13 8/14/14 15/25/24
f 15/25/24 16/18/17 9/13/13
f 10/10/10 9/13/13 16/18/17
f 16/18/17 17/19/18 10/10/10
f 10/10/10 17/19/18 11/9/9
f 17/19/18 18/20/19 11/9/9
f 11/9/9 18/20/19 12/6/6
f 18/20/19 19/22/21 12/6/6
f 12/6/6 19/22/21 13/4/4
f 19/22/21 20/24/23 13/4/4
f 13/4/4 20/24/23 4/8/8
f 20/24/23 21/23/22 4/8/8
f 4/8/8 21/23/22 1/7/7
f 21/23/22 22/21/20 1/7/7
f 1/7/7 22/21/20 3/5/5
f 22/21/20 23/15/3 3/5/5
f 3/5/5 23/15/3 2/2/2
