# Blender v2.78 (sub 0) OBJ File: ''
# www.blender.org
mtllib slice_butter.mtl
o cheeseCut
v -0.003584 0.036071 -0.020411
v 0.003584 0.036071 -0.020411
v -0.003584 0.018123 0.065593
v 0.003584 0.018123 0.065593
v 0.003584 0.001323 0.066614
v -0.003584 0.001323 0.066614
v 0.003584 0.037844 0.054821
v -0.003584 0.037844 0.054821
v -0.003584 0.037844 0.049302
v 0.003584 0.037844 0.049302
v -0.003584 -0.054556 0.054821
v 0.003584 -0.054556 0.054821
v 0.003584 0.037844 0.029903
v -0.003584 0.037844 0.029903
v 0.003584 0.036071 -0.044660
v -0.003584 0.037844 -0.067457
v -0.003584 0.036071 -0.044660
v 0.003584 0.037844 -0.067457
v 0.003584 0.003218 -0.074004
v -0.003584 0.003218 -0.074004
v 0.003584 -0.053171 0.024671
v -0.003584 -0.053171 0.024671
v -0.003584 -0.053171 0.002271
v 0.003584 -0.053171 0.002271
v -0.003584 -0.030730 -0.074004
v 0.003584 -0.054556 -0.067457
v -0.003584 -0.054556 -0.067457
v 0.003584 -0.030730 -0.074004
vt 5.1968 0.0000
vt -1.0888 0.0000
vt 6.3112 0.0000
vt -7.0907 0.8063
vt -5.1968 0.8063
vt -2.5168 0.8063
vt -1.0208 0.8063
vt 1.3019 0.8063
vt 5.1968 0.8063
vt -4.2582 0.8063
vt -4.2582 0.0000
vt 1.3019 0.0000
vt -2.5168 0.0000
vt -7.5591 0.0000
vt -1.0208 0.0000
vt 0.0000 0.0000
vt -3.5405 0.8063
vt -5.1968 0.8063
vt -2.9785 0.0000
vt -2.9785 0.8063
vt -5.1968 0.0000
vt 7.5591 0.8063
vt 7.5591 0.0000
vt 6.3112 0.8063
vt -1.0888 0.8063
vt 5.1968 0.8063
vt 4.1291 0.8063
vt -1.5306 0.0000
vt 4.1291 0.0000
vt -1.5306 0.8063
vt -7.5591 0.8063
vt 0.0000 0.0000
vt 5.1968 0.0000
vt 0.0000 0.0000
vt -7.5591 0.0000
vt -3.5405 0.0000
vt 0.0000 0.0000
vt -7.5591 0.8063
vt -5.1968 0.0000
vt 7.5591 0.8063
vt 7.5591 0.0000
vt 0.0000 0.0000
vt -8.0356 0.0000
vt -8.0356 0.8063
vn -1.0000 0.0000 0.0000
vn -0.8774 0.0291 0.4789
vn -0.8944 0.4472 0.0000
vn -0.8646 0.0305 0.5016
vn 1.0000 0.0000 -0.0000
vn 0.8774 -0.0000 -0.4797
vn 0.8955 -0.4450 0.0000
vn 0.8830 -0.0000 -0.4694
vn 0.8987 0.4385 -0.0000
vn -0.8987 0.4385 0.0000
vn -0.8830 0.0000 -0.4694
vn -0.8774 0.0000 -0.4797
vn -0.8955 -0.4450 0.0000
vn -0.8970 -0.4420 0.0000
vn 0.8970 -0.4420 -0.0000
vn 0.0000 0.4794 0.8776
vn 0.0000 1.0000 0.0000
vn -0.0000 -0.2065 0.9784
vn 0.0000 0.9994 -0.0352
vn 0.0000 0.9970 0.0775
vn -0.8964 0.4432 0.0000
vn -0.8924 0.4513 -0.0000
vn 0.0000 0.1858 -0.9826
vn 0.8964 0.4432 0.0000
vn 0.8646 0.0305 0.5016
vn 0.8944 0.4472 -0.0000
vn 0.8924 0.4513 -0.0000
vn 0.0000 -0.9989 -0.0459
vn 0.0000 -0.2650 -0.9643
vn 0.0000 -0.9998 0.0199
vn 0.8774 0.0291 0.4789
usemtl yellow
s 1
f 11/1/1 6/2/2 9/3/3
f 6/2/2 3/4/4 9/3/3
f 26/5/5 28/6/6 24/7/7
f 19/8/8 18/9/5 15/10/9
f 17/11/10 20/12/11 25/13/12
f 20/12/11 17/11/10 16/14/1
f 23/15/13 24/7/7 22/16/14
f 24/7/7 21/17/15 22/16/14
f 7/18/16 3/19/16 4/20/16
f 3/19/16 7/18/16 8/21/16
f 7/22/17 9/3/17 8/23/17
f 9/3/17 7/22/17 10/24/17
f 5/25/18 11/1/18 12/26/18
f 11/1/18 5/25/18 6/2/18
f 13/27/19 1/28/19 14/29/19
f 1/28/19 13/27/19 2/30/19
f 15/10/20 16/14/20 17/11/20
f 16/14/20 15/10/20 18/31/20
f 17/32/10 23/15/13 1/28/21
f 14/29/22 23/15/13 22/16/14
f 16/33/23 19/8/23 20/12/23
f 19/8/23 16/33/23 18/9/23
f 1/28/21 2/30/24 17/32/10
f 4/20/25 3/19/4 6/34/2
f 14/29/22 1/28/21 23/15/13
f 11/35/1 9/3/3 22/36/14
f 9/3/3 10/24/26 14/37/22
f 7/18/5 4/20/25 10/24/26
f 2/30/24 15/10/9 17/32/10
f 14/37/22 10/24/26 13/27/27
f 14/29/22 22/16/14 9/3/3
f 15/10/9 28/6/6 19/8/8
f 21/17/28 11/35/28 22/36/28
f 11/35/28 21/17/28 12/38/28
f 25/13/29 26/5/29 27/39/29
f 26/5/29 25/13/29 28/6/29
f 26/40/30 23/15/30 27/41/30
f 23/15/30 26/40/30 24/7/30
f 28/6/6 15/10/9 24/7/7
f 10/24/26 21/17/15 13/27/27
f 24/7/7 13/27/27 21/17/15
f 13/27/27 24/7/7 2/30/24
f 28/6/6 25/13/12 20/42/11
f 4/20/25 5/25/31 10/24/26
f 12/26/5 10/24/26 5/25/31
f 2/30/24 24/7/7 15/10/9
f 9/43/3 3/4/4 8/44/1
f 6/34/2 5/25/31 4/20/25
f 20/42/11 19/8/8 28/6/6
f 12/38/5 21/17/15 10/24/26
f 27/41/1 23/15/13 25/13/12
f 17/11/10 25/13/12 23/15/13
