# Blender v2.78 (sub 0) OBJ File: ''
# www.blender.org
mtllib potato_peel_visual.mtl
o avocado.003
v -0.008767 0.016701 -0.020596
v -0.009229 0.017580 -0.021680
v 0.009546 0.059912 -0.010840
v 0.009546 0.059912 0.010840
v 0.009069 0.056915 -0.010297
v -0.009229 0.017580 0.021680
v -0.009229 -0.017581 0.021680
v -0.008767 0.016701 0.020596
v 0.009069 0.056915 0.010297
v 0.008912 -0.059910 0.011205
v -0.008767 -0.016702 0.020596
v -0.009229 -0.017581 -0.021680
v 0.008467 -0.056915 -0.010645
v 0.008912 -0.059910 -0.011205
v -0.008767 -0.016702 -0.020596
v 0.008467 -0.056915 0.010645
vt -3.2087 8.5936
vt -3.2087 8.5936
vt -1.6044 13.7653
vt 1.6044 13.7653
vt -1.6044 13.7653
vt 3.2087 8.5936
vt 3.2087 3.3895
vt 3.2087 8.5936
vt 1.6044 13.7653
vt 3.2087 5.4749
vt 2.2597 1.7079
vt 3.2087 5.4749
vt -3.2087 5.4749
vt -2.2597 1.7079
vt -2.2597 1.7079
vt -3.2087 5.4749
vt -3.2087 3.3895
vt -3.2087 6.0254
vt 2.2597 1.7079
vt 0.0000 0.0000
vt 3.2087 3.3895
vt -3.2087 3.3895
vt 3.2087 6.0254
vt -3.2087 6.0254
vt 3.2087 6.0254
vn 0.9044 -0.1187 -0.4098
vn 0.8595 -0.1509 -0.4884
vn 0.9735 -0.1804 -0.1407
vn 0.9735 -0.1804 0.1407
vn 0.9329 -0.2703 -0.2378
vn 0.4825 -0.2586 0.8368
vn -0.3239 -0.0906 0.9418
vn 0.8898 -0.0857 0.4483
vn 0.9294 -0.2462 0.2751
vn 0.2414 -0.8177 0.5226
vn 0.8908 0.0831 0.4467
vn 0.8612 0.1475 -0.4863
vn 0.9359 0.2610 -0.2364
vn 0.9752 0.1712 -0.1400
vn 0.9061 0.1164 -0.4067
vn -0.9191 -0.3939 0.0000
vn -1.0000 0.0000 0.0000
vn 0.9321 0.2373 0.2735
vn 1.0000 0.0000 0.0000
vn 0.9191 0.3939 0.0000
vn 0.9141 -0.4054 0.0000
vn -0.9141 0.4054 0.0000
usemtl brownDarkest.001
s 1
f 1/1/1 2/2/2 3/3/3
f 4/4/4 5/5/5 3/3/3
f 6/6/6 7/7/7 8/8/8
f 9/9/9 4/4/4 6/6/6
f 5/5/5 4/4/4 9/9/9
f 7/10/7 10/11/10 11/12/11
f 12/13/12 13/14/13 14/15/14
f 2/2/2 15/16/15 12/13/12
f 12/13/16 10/11/10 7/10/7
f 10/11/10 12/13/16 14/15/16
f 2/2/17 7/7/7 6/6/6
f 7/7/7 2/2/17 12/17/17
f 15/16/15 2/2/2 1/1/1
f 15/16/15 13/14/13 12/13/12
f 3/3/3 5/5/5 1/18/1
f 16/19/18 11/12/11 10/20/10
f 14/15/14 16/19/18 10/20/10
f 16/19/18 13/14/13 15/16/15
f 11/21/19 15/22/19 1/1/19
f 11/12/11 8/8/8 7/10/7
f 15/16/20 11/12/20 16/19/20
f 1/18/1 5/5/5 9/9/9
f 9/9/21 8/23/21 1/18/21
f 1/1/19 8/8/19 11/21/19
f 16/19/18 14/15/14 13/14/13
f 6/6/6 8/8/8 9/9/9
f 4/4/22 2/24/22 6/25/22
f 2/24/22 4/4/22 3/3/22
