# Blender v2.78 (sub 0) OBJ File: ''
# www.blender.org
mtllib bakingtray_visual.mtl
o bakingTray1.001_ID14.001
v -0.219698 -0.107729 -0.041192
v -0.140960 -0.167904 -0.041192
v -0.248258 -0.121733 0.041176
v -0.159284 -0.189732 0.041176
v 0.140960 0.167904 -0.041192
v 0.159284 0.189732 0.041176
v 0.219698 0.107729 -0.041192
v 0.248258 0.121733 0.041176
v 0.134736 0.155897 -0.003176
v 0.151389 0.175166 0.041176
v -0.134736 0.155897 -0.003176
v -0.151389 0.175166 0.041176
v 0.248258 -0.121733 0.041176
v 0.219698 -0.107729 -0.041192
v 0.140960 -0.167904 -0.041192
v 0.159284 -0.189732 0.041176
v -0.203987 0.102973 -0.003176
v -0.203987 -0.102973 -0.003176
v -0.134736 -0.155897 -0.003176
v 0.134736 -0.155897 -0.003176
v 0.203987 0.102973 -0.003176
v 0.203987 -0.102973 -0.003176
v -0.219698 0.107729 -0.041192
v -0.140960 0.167904 -0.041192
v 0.229199 -0.115699 0.041176
v 0.151389 -0.175166 0.041176
v 0.229199 0.115699 0.041176
v -0.151389 -0.175166 0.041176
v -0.229199 -0.115699 0.041176
v -0.159284 0.189732 0.041176
v -0.229199 0.115699 0.041176
v -0.248258 0.121733 0.041176
vt 0.0000 0.0000
vt 0.0000 0.0000
vt 0.0000 0.0000
vt 0.0000 0.0000
vt 0.0000 0.0000
vt 0.0000 0.0000
vt 0.0000 0.0000
vt 0.0000 0.0000
vt 0.0000 0.0000
vt 0.0000 0.0000
vt 0.0000 0.0000
vt 0.0000 0.0000
vt 0.0000 0.0000
vt 0.0000 0.0000
vt 0.0000 0.0000
vt 0.0000 0.0000
vt 0.0000 0.0000
vt 0.0000 0.0000
vt 0.0000 0.0000
vt 0.0000 0.0000
vt 0.0000 0.0000
vt 0.0000 0.0000
vt 0.0000 0.0000
vt 0.0000 0.0000
vt 0.0000 0.0000
vt 0.0000 0.0000
vt 0.0000 0.0000
vt 0.0000 0.0000
vt 0.0000 0.0000
vt 0.0000 0.0000
vt 0.0000 0.0000
vt 0.0000 0.0000
vn -0.5739 -0.7509 -0.3267
vn 0.5739 0.7509 -0.3267
vn 0.0000 -0.9172 0.3985
vn 0.9448 0.0000 -0.3276
vn 0.0000 -0.9666 -0.2562
vn 0.0000 0.0000 1.0000
vn 0.0000 0.0000 -1.0000
vn -0.5268 0.6893 0.4973
vn -0.8694 0.0000 0.4942
vn 0.5268 0.6893 0.4973
vn 0.5739 -0.7509 -0.3267
vn 0.0000 0.9666 -0.2562
vn -0.5268 -0.6893 0.4973
vn 0.8694 0.0000 0.4942
vn -0.9448 0.0000 -0.3276
vn -0.5739 0.7509 -0.3267
vn 0.0000 0.9172 0.3985
vn 0.5268 -0.6893 0.4973
usemtl metalMedium.007
s 1
f 1/1/1 2/2/1 3/3/1
f 4/4/1 3/3/1 2/2/1
f 5/5/2 6/6/2 7/7/2
f 8/8/2 7/7/2 6/6/2
f 9/9/3 10/10/3 11/11/3
f 12/12/3 11/11/3 10/10/3
f 8/8/4 13/13/4 7/7/4
f 14/14/4 7/7/4 13/13/4
f 15/15/5 16/16/5 2/2/5
f 4/4/5 2/2/5 16/16/5
f 17/17/6 18/18/6 11/11/6
f 19/19/6 11/11/6 18/18/6
f 9/9/6 11/11/6 19/19/6
f 20/20/6 9/9/6 19/19/6
f 21/21/6 9/9/6 20/20/6
f 22/22/6 21/21/6 20/20/6
f 1/1/7 23/23/7 2/2/7
f 24/24/7 2/2/7 23/23/7
f 15/15/7 2/2/7 24/24/7
f 5/5/7 15/15/7 24/24/7
f 14/14/7 15/15/7 5/5/7
f 7/7/7 14/14/7 5/5/7
f 22/22/8 20/20/8 25/25/8
f 26/26/8 25/25/8 20/20/8
f 27/27/9 21/21/9 25/25/9
f 22/22/9 25/25/9 21/21/9
f 19/19/10 18/18/10 28/28/10
f 29/29/10 28/28/10 18/18/10
f 15/15/11 14/14/11 16/16/11
f 13/13/11 16/16/11 14/14/11
f 5/5/12 24/24/12 6/6/12
f 30/30/12 6/6/12 24/24/12
f 3/3/6 31/31/6 32/32/6
f 30/30/6 32/32/6 31/31/6
f 12/12/6 30/30/6 31/31/6
f 6/6/6 30/30/6 12/12/6
f 10/10/6 6/6/6 12/12/6
f 27/27/6 6/6/6 10/10/6
f 8/8/6 6/6/6 27/27/6
f 25/25/6 8/8/6 27/27/6
f 31/31/6 3/3/6 29/29/6
f 4/4/6 29/29/6 3/3/6
f 28/28/6 29/29/6 4/4/6
f 16/16/6 28/28/6 4/4/6
f 26/26/6 28/28/6 16/16/6
f 25/25/6 26/26/6 16/16/6
f 13/13/6 25/25/6 16/16/6
f 8/8/6 25/25/6 13/13/6
f 9/9/13 21/21/13 10/10/13
f 27/27/13 10/10/13 21/21/13
f 31/31/14 29/29/14 17/17/14
f 18/18/14 17/17/14 29/29/14
f 32/32/15 23/23/15 3/3/15
f 1/1/15 3/3/15 23/23/15
f 23/23/16 32/32/16 24/24/16
f 30/30/16 24/24/16 32/32/16
f 20/20/17 19/19/17 26/26/17
f 28/28/17 26/26/17 19/19/17
f 17/17/18 11/11/18 31/31/18
f 12/12/18 31/31/18 11/11/18
