# Blender 3.4.1
# www.blender.org
mtllib cherryTomatoInside.mtl
o tomato.003
v -0.030260 0.028990 -0.000929
v -0.020173 0.037261 -0.000929
v 0.020173 0.037261 -0.000929
v 0.030260 0.028990 -0.000929
v 0.000000 0.012448 -0.000929
v 0.000000 0.037261 -0.000929
v 0.000000 -0.012365 -0.000929
v -0.036110 0.012448 -0.000929
v 0.036110 0.012448 -0.000929
v 0.030260 -0.004094 -0.000929
v -0.030260 -0.004094 -0.000929
v -0.020173 -0.012365 -0.000929
v 0.020173 -0.012365 -0.000929
v -0.030260 0.028990 0.001602
v -0.020173 0.037261 0.001602
v 0.020173 0.037261 0.001602
v 0.030260 0.028990 0.001602
v -0.036110 0.012448 0.001602
v -0.030260 -0.004094 0.001602
v -0.020173 -0.012365 0.001602
v 0.000000 0.037261 0.001602
v 0.000000 0.012448 0.001602
v 0.020173 -0.012365 0.001602
v 0.030260 -0.004094 0.001602
v 0.036110 0.012448 0.001602
v 0.000000 -0.012365 0.001602
vn -0.0000 -0.0000 -1.0000
vn -0.0000 -0.0000 1.0000
vn -0.0000 1.0000 -0.0000
vn -0.9428 0.3334 -0.0000
vn -0.0000 -1.0000 -0.0000
vn 0.6341 -0.7733 -0.0000
vn -0.6341 -0.7733 -0.0000
vn -0.6341 0.7733 -0.0000
vn 0.9428 -0.3334 -0.0000
vn 0.9428 0.3334 -0.0000
vn 0.6341 0.7733 -0.0000
vn -0.9428 -0.3334 -0.0000
vt -1.071212 1.530482
vt -0.714141 1.289451
vt 0.714141 1.289451
vt 1.071212 2.442068
vt 0.000000 0.000000
vt 0.000000 0.000000
vt 0.000000 0.000000
vt -1.278313 3.140330
vt -1.278313 1.223356
vt 1.278313 1.223356
vt 1.278313 3.140330
vt 1.071212 0.605286
vt 1.071212 2.833203
vt -1.071212 2.833203
vt -0.714141 1.757904
vt 0.714141 1.757904
vt -1.071212 1.530482
vt -0.714141 1.289451
vt 0.714141 1.289451
vt 1.071212 2.442068
vt -1.278313 3.140330
vt -1.278313 1.223356
vt -1.071212 2.833203
vt -0.714141 1.757904
vt 0.000000 0.000000
vt 0.000000 0.000000
vt 0.714141 1.757904
vt 1.071212 0.605286
vt 1.071212 2.833203
vt 1.278313 1.223356
vt 1.278313 3.140330
vt 0.000000 0.000000
s 0
usemtl Material.004
f 5/5/1 7/7/1 12/15/1
f 12/15/1 11/14/1 5/5/1
f 11/14/1 8/9/1 5/5/1
f 13/16/1 7/7/1 5/5/1
f 13/16/1 5/5/1 10/12/1
f 10/13/1 5/5/1 9/10/1
f 5/5/1 4/4/1 9/11/1
f 4/4/1 5/5/1 3/3/1
f 3/3/1 5/5/1 6/6/1
f 6/6/1 5/5/1 2/2/1
f 1/1/1 2/2/1 5/5/1
f 8/8/1 1/1/1 5/5/1
f 22/26/2 20/24/2 26/32/2
f 20/24/2 22/26/2 19/23/2
f 19/23/2 22/26/2 18/22/2
f 23/27/2 22/26/2 26/32/2
f 23/27/2 24/28/2 22/26/2
f 24/29/2 25/30/2 22/26/2
f 22/26/2 25/31/2 17/20/2
f 17/20/2 16/19/2 22/26/2
f 16/19/2 21/25/2 22/26/2
f 21/25/2 15/18/2 22/26/2
f 14/17/2 22/26/2 15/18/2
f 18/21/2 22/26/2 14/17/2
f 3/3/3 6/6/3 21/25/3 16/19/3
f 1/1/4 8/8/4 18/21/4 14/17/4
f 7/7/5 13/16/5 23/27/5 26/32/5
f 13/16/6 10/12/6 24/28/6 23/27/6
f 11/14/7 12/15/7 20/24/7 19/23/7
f 2/2/8 1/1/8 14/17/8 15/18/8
f 10/13/9 9/10/9 25/30/9 24/29/9
f 9/11/10 4/4/10 17/20/10 25/31/10
f 6/6/3 2/2/3 15/18/3 21/25/3
f 4/4/11 3/3/11 16/19/11 17/20/11
f 12/15/5 7/7/5 26/32/5 20/24/5
f 8/9/12 11/14/12 19/23/12 18/22/12
