# Blender 3.4.1
# www.blender.org
mtllib chopedCherryTomato.mtl
o tomato.001
v -0.035550 0.031882 0.000000
v -0.025138 0.031882 -0.025137
v -0.023700 0.041599 0.000000
v -0.016758 0.041599 -0.016758
v 0.016758 0.041599 -0.016758
v 0.025138 0.031882 -0.025137
v 0.023700 0.041599 0.000000
v 0.035550 0.031882 0.000000
v 0.000000 0.012448 0.000000
v 0.000000 0.041599 0.000000
v 0.000000 -0.016703 0.000000
v 0.000000 0.031882 -0.035550
v 0.000000 0.041599 -0.023700
v -0.042423 0.012448 0.000000
v 0.000000 0.012448 -0.042423
v -0.029997 0.012448 -0.029997
v 0.029997 0.012448 -0.029997
v 0.042423 0.012448 0.000000
v 0.025138 -0.006986 -0.025138
v 0.000000 -0.006986 -0.035550
v 0.035550 -0.006986 0.000000
v -0.025138 -0.006986 -0.025138
v -0.016758 -0.016703 -0.016759
v 0.000000 -0.016703 -0.023700
v 0.016758 -0.016703 -0.016759
v -0.035550 -0.006986 0.000000
v -0.023700 -0.016703 0.000000
v 0.023700 -0.016703 0.000000
vn -0.6133 0.7479 -0.2540
vn -0.6132 0.7479 -0.2540
vn 0.6132 0.7479 -0.2540
vn 0.6133 0.7479 -0.2540
vn -0.2540 0.7479 -0.6133
vn -0.0000 -1.0000 -0.0000
vn -0.0000 1.0000 -0.0000
vn 0.2540 0.7479 -0.6133
vn -0.3638 0.3106 -0.8782
vn -0.8782 0.3105 -0.3638
vn -0.8782 0.3106 -0.3638
vn 0.3638 0.3106 -0.8782
vn 0.8782 0.3105 -0.3638
vn 0.8782 0.3106 -0.3638
vn 0.3638 -0.3105 -0.8782
vn 0.3637 -0.3106 -0.8782
vn -0.0000 -0.0000 1.0000
vn -0.2540 -0.7479 -0.6133
vn 0.2540 -0.7479 -0.6133
vn -0.6133 -0.7479 -0.2540
vn 0.8782 -0.3105 -0.3638
vn 0.8782 -0.3106 -0.3637
vn 0.6133 -0.7479 -0.2540
vn -0.8782 -0.3105 -0.3638
vn -0.8782 -0.3106 -0.3637
vn -0.3638 -0.3106 -0.8782
vn -0.3638 -0.3105 -0.8782
vt -1.071212 2.442068
vt -1.071212 1.530482
vt 1.071212 2.442068
vt -1.071212 2.442068
vt -1.071212 1.530482
vt 1.071212 1.530482
vt -0.714141 1.289451
vt 0.714141 1.289451
vt -0.714141 1.289451
vt -0.714141 1.289451
vt 0.714141 1.289451
vt -1.071212 2.442068
vt 1.071212 2.442068
vt 1.071212 1.530482
vt -1.071212 1.530482
vt 0.714141 1.289451
vt 1.071212 1.530482
vt 1.071212 2.442068
vt 0.000000 0.000000
vt 0.000000 0.000000
vt 0.000000 0.000000
vt 1.071212 2.442068
vt -1.071212 2.442068
vt 1.071212 1.530482
vt -1.071212 1.530482
vt 0.714141 1.289451
vt -0.714141 1.289451
vt -1.278313 3.140330
vt -1.278313 1.223356
vt 1.278313 3.140330
vt -1.278313 3.140330
vt -1.278313 1.223356
vt 1.278313 1.223356
vt -1.278313 3.140330
vt 1.278313 3.140330
vt 1.278313 1.223356
vt -1.278313 1.223356
vt 1.278313 3.140330
vt -1.278313 3.140330
vt 1.278313 1.223356
vt -1.278313 1.223356
vt 1.278313 3.140330
vt 1.278313 1.223356
vt 1.071212 2.833203
vt 1.071212 0.605286
vt -1.071212 2.833203
vt -1.071212 0.605286
vt -1.071212 2.833203
vt 1.071212 0.605286
vt -1.071212 0.605286
vt 1.071212 2.833203
vt 1.071212 2.833203
vt 1.071212 0.605286
vt -1.071212 0.605286
vt 1.071212 0.605286
vt 1.071212 2.833203
vt -1.071212 2.833203
vt -0.714141 1.757904
vt 0.714141 1.757904
vt 0.714141 1.757904
vt -0.714141 1.757904
vt 0.714141 1.757904
vt -0.714141 1.757904
vt -1.071212 0.605286
vt -1.071212 2.833203
vt -0.714141 1.757904
vt 0.714141 1.757904
s 0
usemtl Material.001
f 3/7/1 2/3/1 1/1/1
f 2/3/2 3/7/2 4/8/2
f 7/16/3 6/12/3 5/10/3
f 6/12/4 7/16/4 8/18/4
f 4/9/5 12/22/5 2/4/5
f 12/22/5 4/9/5 13/26/5
f 11/21/6 23/59/6 24/60/6
f 11/21/6 27/66/6 23/59/6
f 4/9/7 3/7/7 10/20/7
f 10/20/7 13/27/7 4/9/7
f 13/27/7 10/20/7 5/10/7
f 7/16/7 5/10/7 10/20/7
f 13/27/8 6/13/8 12/23/8
f 6/13/8 13/27/8 5/11/8
f 15/30/9 2/5/9 12/24/9
f 2/5/9 15/30/9 16/34/9
f 14/28/10 2/6/10 16/35/10
f 2/6/11 14/28/11 1/2/11
f 17/38/12 12/25/12 6/14/12
f 12/25/12 17/38/12 15/31/12
f 6/15/13 18/42/13 17/39/13
f 18/42/14 6/15/14 8/17/14
f 19/44/15 15/32/15 17/40/15
f 15/32/16 19/44/16 20/48/16
f 9/19/17 27/66/17 11/21/17
f 27/66/17 9/19/17 26/65/17
f 26/65/17 9/19/17 14/29/17
f 28/67/17 9/19/17 11/21/17
f 20/49/18 23/58/18 22/54/18
f 23/58/18 20/49/18 24/60/18
f 19/45/19 24/61/19 20/50/19
f 24/61/19 19/45/19 25/62/19
f 28/67/17 21/53/17 9/19/17
f 21/52/17 18/43/17 9/19/17
f 22/55/20 27/66/20 26/64/20
f 27/66/20 22/55/20 23/59/20
f 9/19/17 18/42/17 8/18/17
f 8/18/17 7/16/17 9/19/17
f 18/43/21 19/46/21 17/41/21
f 19/46/22 18/43/22 21/52/22
f 19/47/23 28/67/23 25/63/23
f 28/67/23 19/47/23 21/53/23
f 7/16/17 10/20/17 9/19/17
f 10/20/17 3/7/17 9/19/17
f 1/2/17 9/19/17 3/7/17
f 14/28/17 9/19/17 1/2/17
f 22/56/24 14/29/24 16/36/24
f 14/29/25 22/56/25 26/65/25
f 11/21/6 24/61/6 25/63/6
f 28/67/6 11/21/6 25/63/6
f 20/51/26 16/37/26 15/33/26
f 16/37/27 20/51/27 22/57/27
