# Blender 3.4.1
# www.blender.org
mtllib smallTailCollider.mtl
o tomato.001
v 0.021573 0.000122 -0.005984
v 0.003742 0.014711 0.001780
v -0.004108 -0.014467 0.001780
v -0.000183 0.021878 -0.005984
v -0.004108 0.014711 0.001780
v 0.014406 -0.003803 0.001780
v 0.014406 0.004047 0.001780
v -0.000183 -0.021633 -0.005984
v 0.003742 -0.014467 0.001780
v 0.005742 -0.005803 0.004546
v -0.021939 0.000122 -0.005984
v -0.014772 0.004047 0.001780
v -0.014772 -0.003803 0.001780
v -0.006108 -0.005803 0.004546
v 0.005742 0.006047 0.004547
v -0.006108 0.006047 0.004547
v -0.021514 -0.000181 -0.006994
v 0.000242 -0.021936 -0.006994
v 0.021997 -0.000181 -0.006994
v 0.000242 0.021575 -0.006994
vn -0.0000 0.7348 0.6783
vn 0.3042 -0.0000 0.9526
vn 0.3041 -0.0001 0.9526
vn 0.7348 -0.0000 0.6783
vn -0.0000 -0.7348 0.6782
vn -0.7348 -0.0000 0.6783
vn -0.0000 0.3042 0.9526
vn -0.0000 -0.0001 1.0000
vn -0.0000 -0.3041 0.9526
vn -0.3042 -0.0000 0.9526
vn -0.1243 -0.9472 -0.2955
vn -0.6398 -0.3638 0.6769
vn -0.7010 -0.6587 0.2734
vn -0.6887 -0.6720 0.2721
vn -0.7045 -0.7046 -0.0851
vn -0.6962 -0.7142 -0.0721
vn -0.0000 -0.0000 -1.0000
vn 0.3580 -0.3580 0.8624
vn 0.6782 -0.6782 0.2832
vn 0.6782 -0.6782 0.2831
vn 0.6301 -0.6301 0.4538
vn -0.6300 0.6300 -0.4541
vn -0.6782 0.6782 0.2832
vn -0.3581 0.3581 0.8623
vn 0.7046 0.7046 0.0848
vn 0.3581 0.3581 0.8623
vn 0.6782 0.6782 0.2832
vn -0.5137 -0.8570 0.0409
vt -0.000000 5.144470
vt 0.000000 0.000000
vt 0.309055 4.312514
vt 0.309055 2.556851
vt 0.309055 2.556851
vt 0.309055 4.312515
vt -0.000000 5.144470
vt 0.000000 0.000000
vt -0.309055 2.556851
vt -0.309055 4.312514
vt 0.000000 0.000000
vt 0.309055 4.312515
vt 0.309055 2.556851
vt -0.309055 4.312515
vt -0.309055 2.556851
vt 0.000000 0.000000
vt -0.000000 5.144470
vt 0.000000 0.000000
vt -0.309055 2.556851
vt -0.309055 4.312515
vt 0.466535 0.466535
vt -0.466535 1.840718
vt 0.466535 1.840718
vt -0.000000 5.144470
vt 0.000000 0.000000
vt 0.309055 2.556851
vt 0.309055 4.312515
vt 0.000000 0.000000
vt -0.309055 4.312515
vt -0.309055 2.556851
vt -0.466535 0.466535
vt -0.466535 1.840718
vt 0.466535 1.840718
vt 0.466535 1.840718
vt 0.466535 -0.466535
vt -0.466535 1.840718
vt -0.466535 1.840718
vt -0.466535 -0.466535
vt 0.466535 1.840718
vt 0.000000 0.000000
vt 0.000000 0.000000
vt 0.000000 0.000000
vt 0.000000 0.000000
vt 0.000000 0.000000
s 0
usemtl green.007
f 4/7/1 5/10/1 2/3/1
f 7/15/2 15/36/2 6/13/2
f 10/23/3 6/13/3 15/36/3
f 6/12/4 1/1/4 7/14/4
f 8/17/5 9/20/5 3/6/5
f 13/29/6 12/27/6 11/24/6
f 5/9/7 16/37/7 15/34/7 2/4/7
f 14/31/8 10/21/8 15/35/8 16/38/8
f 14/33/9 3/5/9 9/19/9 10/22/9
f 12/26/10 13/30/10 14/32/10 16/39/10
f 14/33/11 13/30/11 17/41/11
f 17/41/12 3/5/12 14/33/12
f 8/17/13 3/6/14 17/41/14
f 17/41/15 18/42/15 8/17/16
f 17/41/17 20/44/17 19/43/17 18/42/17
f 10/23/18 9/19/18 6/13/18
f 1/1/19 6/13/19 9/19/19
f 1/1/20 9/20/20 8/17/20
f 8/18/21 18/42/21 19/43/21 1/2/21
f 11/25/22 4/8/22 20/44/22 17/41/22
f 11/25/23 12/27/23 4/8/23
f 5/10/23 4/8/23 12/27/23
f 12/28/24 16/40/24 5/11/24
f 4/8/25 1/2/25 19/43/25 20/44/25
f 7/15/26 2/4/26 15/36/26
f 7/15/27 4/7/27 2/4/27
f 4/8/27 7/16/27 1/2/27
f 13/30/28 11/25/28 17/41/28
