# Blender v2.78 (sub 0) OBJ File: ''
# www.blender.org
mtllib eggshell_pointy_half_visual.mtl
o egg.002
v 0.029022 0.050268 -0.015974
v 0.058044 0.000000 -0.015974
v 0.029022 -0.050268 -0.015974
v -0.029022 -0.050268 -0.015974
v -0.058044 0.000000 -0.015974
v -0.029022 0.050268 -0.015974
v -0.000000 0.067024 0.008134
v 0.058040 0.033510 0.008134
v 0.058044 -0.033512 0.029500
v 0.058044 -0.033512 0.008134
v 0.058044 0.033512 0.029500
v -0.000000 0.067024 0.029500
v -0.000000 -0.067024 0.008134
v -0.058044 -0.033512 0.008134
v -0.000000 -0.067024 0.029500
v -0.058044 0.033512 0.029500
v -0.058044 -0.033512 0.029500
v -0.058044 0.033512 0.008134
v -0.029022 -0.016756 0.088500
v -0.029022 0.016756 0.088500
v -0.000000 0.033512 0.088500
v -0.000000 -0.033512 0.088500
v 0.029022 -0.016756 0.088500
v 0.029022 0.016756 0.088500
v 0.026120 0.045241 -0.011622
v 0.052240 0.000000 -0.011622
v 0.026120 -0.045241 -0.011622
v -0.026120 -0.045241 -0.011622
v -0.052240 0.000000 -0.011622
v -0.026120 0.045241 -0.011622
v -0.000000 0.060322 0.010075
v 0.052240 0.030161 0.010075
v 0.052240 -0.030161 0.029304
v 0.052240 -0.030161 0.010075
v 0.052240 0.030161 0.029304
v -0.000000 0.060322 0.029304
v -0.000000 -0.060322 0.010075
v -0.052240 -0.030161 0.010075
v -0.000000 -0.060322 0.029304
v -0.052240 0.030161 0.029304
v -0.052240 -0.030161 0.029304
v -0.052240 0.030161 0.010075
v -0.026120 -0.015080 0.082404
v -0.026120 0.015080 0.082404
v -0.000000 0.030161 0.082404
v -0.000000 -0.030161 0.082404
v 0.026120 -0.015080 0.082404
v 0.026120 0.015080 0.082404
vt 1.3194 1.3937
vt -1.3194 4.1811
vt -1.3194 1.3937
vt 0.0000 1.3937
vt 1.3194 4.1811
vt 1.3194 4.1811
vt -1.3194 1.3937
vt 0.0000 1.3937
vt 1.3194 1.3937
vt -1.3194 4.1811
vt 1.3194 4.1811
vt -1.3194 1.3937
vt 0.0000 1.3937
vt 1.3194 1.3937
vt -1.3194 4.1811
vt -1.3194 4.1811
vt 1.3194 1.3937
vt 1.3194 4.1811
vt -1.3194 1.3937
vt 0.0000 1.3937
vt 1.3194 4.1811
vt -1.3194 1.3937
vt 0.0000 1.3937
vt 1.3194 1.3937
vt -1.3194 4.1811
vt 0.6597 5.3317
vt -1.3194 2.7431
vt 1.3194 2.7431
vt -0.6597 5.3317
vt 0.6597 5.3317
vt -1.3194 2.7431
vt 1.3194 2.7431
vt -0.6597 5.3317
vt 0.0000 -1.3194
vt -1.1426 0.6597
vt -1.1426 -0.6597
vt 0.0000 1.3194
vt 1.1426 -0.6597
vt 1.1426 0.6597
vt 1.3194 4.1811
vt -1.3194 1.3937
vt 0.0000 1.3937
vt 1.3194 1.3937
vt -1.3194 4.1811
vt 0.6597 5.3317
vt -1.3194 2.7431
vt 1.3194 2.7431
vt -0.6597 5.3317
vt 1.3194 2.7431
vt -0.6597 5.3317
vt -1.3194 2.7431
vt 0.6597 5.3317
vt 0.6597 5.3317
vt -1.3194 2.7431
vt 1.3194 2.7431
vt -0.6597 5.3317
vt 0.6597 5.3317
vt -1.3194 2.7431
vt 1.3194 2.7431
vt -0.6597 5.3317
vt 1.3194 1.3937
vt 0.0000 1.3937
vt -1.3194 1.3937
vt -1.3194 4.1811
vt 1.3194 4.1811
vt 1.3194 4.1811
vt 1.3194 1.3937
vt 0.0000 1.3937
vt -1.3194 1.3937
vt -1.3194 4.1811
vt 1.3194 4.1811
vt 1.3194 1.3937
vt 0.0000 1.3937
vt -1.3194 1.3937
vt -1.3194 4.1811
vt -1.3194 4.1811
vt 1.3194 4.1811
vt 1.3194 1.3937
vt 0.0000 1.3937
vt -1.3194 1.3937
vt 1.3194 4.1811
vt 1.3194 1.3937
vt 0.0000 1.3937
vt -1.3194 1.3937
vt -1.3194 4.1811
vt 0.6597 5.3317
vt 1.3194 2.7431
vt -1.3194 2.7431
vt -0.6597 5.3317
vt 0.6597 5.3317
vt 1.3194 2.7431
vt -1.3194 2.7431
vt -0.6597 5.3317
vt 0.0000 -1.3194
vt -1.1426 -0.6597
vt -1.1426 0.6597
vt 0.0000 1.3194
vt 1.1426 -0.6597
vt 1.1426 0.6597
vt 1.3194 4.1811
vt 1.3194 1.3937
vt 0.0000 1.3937
vt -1.3194 1.3937
vt -1.3194 4.1811
vt 0.6597 5.3317
vt 1.3194 2.7431
vt -1.3194 2.7431
vt -0.6597 5.3317
vt 1.3194 2.7431
vt -1.3194 2.7431
vt -0.6597 5.3317
vt 0.6597 5.3317
vt 0.6597 5.3317
vt 1.3194 2.7431
vt -1.3194 2.7431
vt -0.6597 5.3317
vt 0.6597 5.3317
vt 1.3194 2.7431
vt -1.3194 2.7431
vt -0.6597 5.3317
vt 0.0000 0.0000
vn 1.0000 0.0000 -0.0001
vn 1.0000 0.0001 -0.0000
vn 1.0000 0.0000 -0.0002
vn 0.5000 0.8660 -0.0000
vn 0.5000 0.8660 -0.0001
vn 0.5001 0.8660 0.0000
vn 0.5000 0.8660 -0.0002
vn 0.5000 -0.8660 0.0000
vn -1.0000 0.0000 0.0000
vn -0.5000 0.8660 0.0000
vn -0.8973 -0.0000 0.4414
vn -0.4487 0.7771 0.4414
vn 0.0000 0.0000 1.0000
vn -0.5000 -0.8660 0.0000
vn 0.4487 0.7771 0.4414
vn 0.8973 -0.0000 0.4414
vn -0.4487 -0.7771 0.4414
vn 0.4487 -0.7771 0.4414
vn 1.0000 0.0000 0.0000
vn 0.8973 0.0000 -0.4414
vn 0.4487 -0.7771 -0.4414
vn -0.0000 0.0000 -1.0000
vn -0.4487 -0.7771 -0.4414
vn -0.8973 0.0000 -0.4414
vn 0.4487 0.7771 -0.4414
vn -0.4487 0.7771 -0.4414
vn 0.2999 -0.5195 -0.8001
vn -0.0000 -0.2781 -0.9605
vn -0.2999 -0.5194 -0.8001
vn -0.2999 -0.5195 -0.8001
vn -0.2410 -0.1392 -0.9605
vn -0.2410 -0.1391 -0.9605
vn -0.5998 -0.0000 -0.8001
vn -0.2409 0.1391 -0.9605
vn -0.2999 0.5195 -0.8001
vn 0.0000 0.2781 -0.9605
vn 0.2999 0.5195 -0.8001
vn 0.2409 0.1391 -0.9605
vn 0.5998 0.0000 -0.8001
vn 0.2409 -0.1391 -0.9605
usemtl brownLight
s 1
f 8/1/1 9/2/2 10/3/2 2/4/2
f 9/2/2 8/1/1 11/5/3
f 12/6/4 8/7/5 1/8/6 7/9/6
f 8/7/5 12/6/4 11/10/7
f 9/11/8 13/12/8 3/13/8 10/14/8
f 13/12/8 9/11/8 15/15/8
f 16/16/9 14/17/9 17/18/9
f 14/17/9 16/16/9 18/19/9 5/20/9
f 16/21/10 7/22/10 6/23/10 18/24/10
f 7/22/10 16/21/10 12/25/10
f 19/26/11 16/27/11 17/28/11
f 16/27/11 19/26/11 20/29/11
f 20/30/12 12/31/12 16/32/12
f 12/31/12 20/30/12 21/33/12
f 22/34/13 20/35/13 19/36/13
f 20/35/13 22/34/13 21/37/13
f 21/37/13 22/34/13 23/38/13
f 21/37/13 23/38/13 24/39/13
f 15/40/14 14/41/14 4/42/14 13/43/14
f 14/41/14 15/40/14 17/44/14
f 21/45/15 11/46/15 12/47/15
f 11/46/15 21/45/15 24/48/15
f 11/49/16 23/50/16 9/51/16
f 23/50/16 11/49/16 24/52/16
f 22/53/17 17/54/17 15/55/17
f 17/54/17 22/53/17 19/56/17
f 23/57/18 15/58/18 9/59/18
f 15/58/18 23/57/18 22/60/18
f 32/61/9 26/62/9 34/63/9 33/64/9
f 33/64/9 35/65/9 32/61/9
f 36/66/14 31/67/14 25/68/14 32/69/14
f 32/69/14 35/70/14 36/66/14
f 33/71/10 34/72/10 27/73/10 37/74/10
f 37/74/10 39/75/10 33/71/10
f 40/76/19 41/77/19 38/78/19
f 38/78/19 29/79/19 42/80/19 40/76/19
f 40/81/8 42/82/8 30/83/8 31/84/8
f 31/84/8 36/85/8 40/81/8
f 43/86/20 41/87/20 40/88/20
f 40/88/20 44/89/20 43/86/20
f 44/90/21 40/91/21 36/92/21
f 36/92/21 45/93/21 44/90/21
f 46/94/22 43/95/22 44/96/22
f 44/96/22 45/97/22 46/94/22
f 45/97/22 47/98/22 46/94/22
f 45/97/22 48/99/22 47/98/22
f 39/100/4 37/101/4 28/102/4 38/103/4
f 38/103/4 41/104/4 39/100/4
f 45/105/23 36/106/23 35/107/23
f 35/107/23 48/108/23 45/105/23
f 35/109/24 33/110/24 47/111/24
f 47/111/24 48/112/24 35/109/24
f 46/113/25 39/114/25 41/115/25
f 41/115/25 43/116/25 46/113/25
f 47/117/26 33/118/26 39/119/26
f 39/119/26 46/120/26 47/117/26
f 30/121/27 6/23/27 7/22/28
f 30/121/27 7/22/28 31/84/28
f 7/22/28 1/8/29 31/84/28
f 31/84/28 1/8/29 25/68/30
f 1/8/29 8/7/31 25/68/30
f 25/68/30 8/7/31 32/69/32
f 8/7/31 2/4/33 32/69/32
f 32/69/32 2/4/33 26/62/33
f 2/4/33 10/3/34 26/62/33
f 26/62/33 10/3/34 34/63/34
f 10/3/34 3/13/35 34/63/34
f 34/63/34 3/13/35 27/73/35
f 3/13/35 13/12/36 27/73/35
f 27/73/35 13/12/36 37/74/36
f 13/12/36 4/42/37 37/74/36
f 37/74/36 4/42/37 28/102/37
f 4/42/37 14/41/38 28/102/37
f 28/102/37 14/41/38 38/103/38
f 14/41/38 5/20/39 38/103/38
f 38/103/38 5/20/39 29/79/39
f 5/20/39 18/19/40 29/79/39
f 29/79/39 18/19/40 42/80/40
f 18/19/40 6/23/27 42/80/40
f 30/121/27 42/80/40 6/23/27
