# Blender v2.78 (sub 0) OBJ File: ''
# www.blender.org
mtllib eggshell_sharp_half_collision.mtl
o egg.014
v 0.000000 -0.067024 0.029500
v 0.058045 -0.033512 0.029500
v 0.000000 -0.033512 0.088500
v 0.029022 -0.016756 0.088500
v 0.000000 -0.060322 0.029304
v 0.052240 -0.030161 0.029304
v 0.000000 -0.030161 0.082404
v 0.026120 -0.015080 0.082404
vt 1.3194 2.7431
vt -0.6597 5.3317
vt -1.3194 2.7431
vt 0.6597 5.3317
vt 1.3194 2.7431
vt 0.6597 5.3317
vt -0.6597 5.3317
vt -1.3194 2.7431
vt 0.0000 0.0000
vn 0.4487 -0.7771 0.4414
vn -0.0447 0.9576 0.2845
vn 0.3656 0.5912 -0.7189
vn 0.0722 0.9700 0.2323
vn 0.3744 0.6075 -0.7006
vn -0.8070 0.5175 0.2845
vn -0.8761 0.4225 0.2323
vn -0.6948 -0.0210 -0.7189
vn -0.7133 -0.0205 -0.7006
vn -0.4487 0.7771 -0.4414
usemtl brownLight
s 1
f 2/1/1 3/2/1 1/3/1
f 3/2/1 2/1/1 4/4/1
f 4/4/2 6/5/3 8/6/4
f 4/4/2 2/1/5 6/5/3
f 3/2/6 4/4/2 7/7/7
f 7/7/7 5/8/8 3/2/6
f 1/9/9 5/8/8 6/5/3
f 1/9/9 6/5/3 2/1/5
f 3/2/6 5/8/8 1/9/9
f 6/5/10 5/8/10 7/7/10
f 7/7/10 8/6/10 6/5/10
f 7/7/7 4/4/2 8/6/4
o egg.013
v -0.058044 -0.033512 0.029500
v 0.000000 -0.067024 0.029500
v -0.029022 -0.016756 0.088500
v 0.000000 -0.033512 0.088500
v -0.052240 -0.030161 0.029304
v 0.000000 -0.060322 0.029304
v -0.026120 -0.015080 0.082404
v 0.000000 -0.030161 0.082404
vt 1.3194 2.7431
vt -0.6597 5.3317
vt -1.3194 2.7431
vt 0.6597 5.3317
vt 1.3194 2.7431
vt 0.6597 5.3317
vt -0.6597 5.3317
vt -1.3194 2.7431
vt 0.0000 0.0000
vn -0.4487 -0.7771 0.4414
vn 0.8070 0.5176 0.2845
vn 0.6948 -0.0210 -0.7189
vn 0.8761 0.4225 0.2323
vn 0.7133 -0.0205 -0.7006
vn 0.0447 0.9576 0.2845
vn -0.0722 0.9700 0.2323
vn -0.3656 0.5912 -0.7189
vn -0.3744 0.6075 -0.7006
vn 0.4487 0.7771 -0.4414
usemtl brownLight
s 1
f 10/10/11 11/11/11 9/12/11
f 11/11/11 10/10/11 12/13/11
f 12/13/12 14/14/13 16/15/14
f 12/13/12 10/10/15 14/14/13
f 11/11/16 12/13/12 15/16/17
f 15/16/17 13/17/18 11/11/16
f 9/18/19 13/17/18 14/14/13
f 9/18/19 14/14/13 10/10/15
f 11/11/16 13/17/18 9/18/19
f 14/14/20 13/17/20 15/16/20
f 15/16/20 16/15/20 14/14/20
f 15/16/17 12/13/12 16/15/14
o egg.012
v -0.058044 0.033512 0.029500
v -0.058044 -0.033512 0.029500
v -0.029022 0.016756 0.088500
v -0.029022 -0.016756 0.088500
v -0.052240 0.030161 0.029304
v -0.052240 -0.030161 0.029304
v -0.026120 0.015080 0.082404
v -0.026120 -0.015080 0.082404
vt 1.3194 2.7431
vt -0.6597 5.3317
vt -1.3194 2.7431
vt 0.6597 5.3317
vt 1.3194 2.7431
vt 0.6597 5.3317
vt -0.6597 5.3317
vt -1.3194 2.7431
vt 0.0000 0.0000
vn -0.8973 -0.0000 0.4414
vn 0.8517 -0.4401 0.2845
vn 0.3292 -0.6122 -0.7189
vn 0.8039 -0.5475 0.2323
vn 0.3389 -0.6280 -0.7006
vn 0.8517 0.4401 0.2845
vn 0.8039 0.5475 0.2323
vn 0.3292 0.6122 -0.7189
vn 0.3389 0.6280 -0.7006
vn 0.8973 0.0000 -0.4414
usemtl brownLight
s 1
f 18/19/21 19/20/21 17/21/21
f 19/20/21 18/19/21 20/22/21
f 20/22/22 22/23/23 24/24/24
f 20/22/22 18/19/25 22/23/23
f 19/20/26 20/22/22 23/25/27
f 23/25/27 21/26/28 19/20/26
f 17/27/29 21/26/28 22/23/23
f 17/27/29 22/23/23 18/19/25
f 19/20/26 21/26/28 17/27/29
f 22/23/30 21/26/30 23/25/30
f 23/25/30 24/24/30 22/23/30
f 23/25/27 20/22/22 24/24/24
o egg.011
v -0.000000 0.067024 0.029500
v -0.058044 0.033512 0.029500
v -0.000000 0.033512 0.088500
v -0.029022 0.016756 0.088500
v -0.000000 0.060322 0.029304
v -0.052240 0.030161 0.029304
v -0.000000 0.030161 0.082404
v -0.026120 0.015080 0.082404
vt 1.3194 2.7431
vt -0.6597 5.3317
vt -1.3194 2.7431
vt 0.6597 5.3317
vt 1.3194 2.7431
vt 0.6597 5.3317
vt -0.6597 5.3317
vt -1.3194 2.7431
vt 0.0000 0.0000
vn -0.4487 0.7771 0.4414
vn 0.0447 -0.9576 0.2845
vn -0.3656 -0.5912 -0.7189
vn -0.0722 -0.9700 0.2323
vn -0.3744 -0.6075 -0.7006
vn 0.8070 -0.5175 0.2845
vn 0.8761 -0.4225 0.2323
vn 0.6948 0.0210 -0.7189
vn 0.7133 0.0205 -0.7006
vn 0.4487 -0.7771 -0.4414
usemtl brownLight
s 1
f 26/28/31 27/29/31 25/30/31
f 27/29/31 26/28/31 28/31/31
f 28/31/32 30/32/33 32/33/34
f 28/31/32 26/28/35 30/32/33
f 27/29/36 28/31/32 31/34/37
f 31/34/37 29/35/38 27/29/36
f 25/36/39 29/35/38 30/32/33
f 25/36/39 30/32/33 26/28/35
f 27/29/36 29/35/38 25/36/39
f 30/32/40 29/35/40 31/34/40
f 31/34/40 32/33/40 30/32/40
f 31/34/37 28/31/32 32/33/34
o egg.010
v 0.058044 0.033512 0.029500
v -0.000000 0.067024 0.029500
v 0.029022 0.016756 0.088500
v -0.000000 0.033512 0.088500
v 0.052240 0.030161 0.029304
v -0.000000 0.060322 0.029304
v 0.026120 0.015080 0.082404
v -0.000000 0.030161 0.082404
vt 1.3194 2.7431
vt -0.6597 5.3317
vt -1.3194 2.7431
vt 0.6597 5.3317
vt 1.3194 2.7431
vt 0.6597 5.3317
vt -0.6597 5.3317
vt -1.3194 2.7431
vt 0.0000 0.0000
vn 0.4487 0.7771 0.4414
vn -0.8070 -0.5176 0.2845
vn -0.6948 0.0210 -0.7189
vn -0.8761 -0.4225 0.2323
vn -0.7133 0.0205 -0.7006
vn -0.0447 -0.9576 0.2845
vn 0.0722 -0.9700 0.2323
vn 0.3656 -0.5912 -0.7189
vn 0.3744 -0.6075 -0.7006
vn -0.4487 -0.7771 -0.4414
usemtl brownLight
s 1
f 34/37/41 35/38/41 33/39/41
f 35/38/41 34/37/41 36/40/41
f 36/40/42 38/41/43 40/42/44
f 36/40/42 34/37/45 38/41/43
f 35/38/46 36/40/42 39/43/47
f 39/43/47 37/44/48 35/38/46
f 33/45/49 37/44/48 38/41/43
f 33/45/49 38/41/43 34/37/45
f 35/38/46 37/44/48 33/45/49
f 38/41/50 37/44/50 39/43/50
f 39/43/50 40/42/50 38/41/50
f 39/43/47 36/40/42 40/42/44
o egg.009
v -0.029022 -0.016756 0.088500
v -0.029022 0.016756 0.088500
v -0.000000 0.033512 0.088500
v -0.000000 -0.033512 0.088500
v 0.029022 -0.016756 0.088500
v 0.029022 0.016756 0.088500
v -0.026120 -0.015080 0.082404
v -0.026120 0.015080 0.082404
v -0.000000 0.030161 0.082404
v -0.000000 -0.030161 0.082404
v 0.026120 -0.015080 0.082404
v 0.026120 0.015080 0.082404
vt 0.0000 -1.3194
vt -1.1426 0.6597
vt -1.1426 -0.6597
vt 0.0000 1.3194
vt 1.1426 -0.6597
vt 1.1426 0.6597
vt -1.1426 0.6597
vt -1.1426 -0.6597
vt 0.0000 0.0000
vt 1.1426 -0.6597
vt 0.0000 -1.3194
vt 0.0000 1.3194
vt 1.1426 0.6597
vn 0.0000 0.0000 1.0000
vn -0.7589 0.4382 -0.4817
vn -0.7589 -0.4382 -0.4817
vn 0.7589 0.4382 -0.4817
vn 0.7589 -0.4382 -0.4817
vn 0.0000 -0.8763 -0.4817
vn -0.0000 0.8763 -0.4817
vn -0.0000 0.0000 -1.0000
usemtl brownLight
s 1
f 44/46/51 42/47/51 41/48/51
f 42/47/51 44/46/51 43/49/51
f 43/49/51 44/46/51 45/50/51
f 43/49/51 45/50/51 46/51/51
f 48/52/52 47/53/53 41/48/53
f 46/54/54 45/50/55 51/55/55
f 51/55/55 45/50/55 50/56/56
f 48/52/52 42/47/52 49/57/57
f 41/48/53 42/47/52 48/52/52
f 50/56/58 47/53/58 48/52/58
f 48/52/58 49/57/58 50/56/58
f 49/57/58 51/55/58 50/56/58
f 49/57/58 52/58/58 51/55/58
f 44/46/56 41/48/53 47/53/53
f 52/58/54 49/57/57 43/49/57
f 43/49/57 46/54/54 52/58/54
f 43/49/57 49/57/57 42/47/52
f 45/50/55 44/46/56 50/56/56
f 52/58/54 46/54/54 51/55/55
f 47/53/53 50/56/56 44/46/56
o egg.008
v 0.029022 -0.050268 -0.015974
v 0.058045 -0.033512 0.008134
v 0.000000 -0.067024 0.029500
v 0.000000 -0.067024 0.008134
v 0.058045 -0.033512 0.029500
v 0.026120 -0.045241 -0.011622
v 0.052240 -0.030161 0.010075
v 0.000000 -0.060322 0.029304
v 0.000000 -0.060322 0.010075
v 0.052240 -0.030161 0.029304
vt 1.3194 1.3937
vt -1.3194 4.1811
vt -1.3194 1.3937
vt 0.0000 1.3937
vt 1.3194 4.1811
vt 1.3194 1.3937
vt 0.0000 1.3937
vt -1.3194 1.3937
vt -1.3194 4.1811
vt 1.3194 4.1811
vt -1.3194 1.3937
vt 0.0000 0.0000
vt -1.3194 1.3937
vn 0.5000 -0.8660 0.0000
vn -0.5000 0.8660 0.0000
vn -0.8301 0.0163 0.5573
vn 0.4009 0.7271 0.5573
vn 0.2878 0.5446 0.7878
vn 0.3618 0.8493 -0.3845
vn 0.3679 0.8524 -0.3716
vn -0.6155 0.0230 0.7878
vn -0.9164 0.1113 -0.3845
vn -0.9222 0.1076 -0.3716
vn -0.2999 0.5195 -0.8001
usemtl brownLight
s 1
f 54/59/59 55/60/59 56/61/59 53/62/59
f 55/60/59 54/59/59 57/63/59
f 59/64/60 58/65/60 61/66/60 60/67/60
f 60/67/60 62/68/60 59/64/60
f 55/60/61 57/63/62 62/68/63
f 62/68/63 54/69/64 59/64/65
f 54/69/64 62/68/63 57/63/62
f 62/68/63 60/67/66 55/60/61
f 55/60/61 60/70/66 56/61/67
f 60/70/66 61/66/68 56/61/67
f 54/69/64 53/62/69 59/71/65
f 59/71/65 53/62/69 58/65/69
f 53/62/69 56/61/67 58/65/69
f 58/65/69 56/61/67 61/66/68
o egg.007
v -0.029022 -0.050268 -0.015974
v 0.000000 -0.067024 0.008134
v -0.058044 -0.033512 0.029500
v -0.058044 -0.033512 0.008134
v 0.000000 -0.067024 0.029500
v -0.026120 -0.045241 -0.011622
v 0.000000 -0.060322 0.010075
v -0.052240 -0.030161 0.029304
v -0.052240 -0.030161 0.010075
v 0.000000 -0.060322 0.029304
vt 1.3194 1.3937
vt -1.3194 4.1811
vt -1.3194 1.3937
vt 0.0000 1.3937
vt 1.3194 4.1811
vt 1.3194 1.3937
vt 0.0000 1.3937
vt -1.3194 1.3937
vt -1.3194 4.1811
vt 1.3194 4.1811
vt -1.3194 1.3937
vt 0.0000 0.0000
vt -1.3194 1.3937
vn -0.5000 -0.8660 -0.0000
vn 0.5000 0.8660 -0.0000
vn -0.4010 0.7271 0.5573
vn 0.8301 0.0163 0.5573
vn 0.6155 0.0230 0.7878
vn 0.9164 0.1113 -0.3845
vn 0.9222 0.1076 -0.3716
vn -0.2878 0.5446 0.7878
vn -0.3618 0.8493 -0.3845
vn -0.3679 0.8524 -0.3716
vn 0.2999 0.5195 -0.8001
usemtl brownLight
s 1
f 64/72/70 65/73/70 66/74/70 63/75/70
f 65/73/70 64/72/70 67/76/70
f 69/77/71 68/78/71 71/79/71 70/80/71
f 70/80/71 72/81/71 69/77/71
f 65/73/72 67/76/73 72/81/74
f 72/81/74 64/82/75 69/77/76
f 64/82/75 72/81/74 67/76/73
f 72/81/74 70/80/77 65/73/72
f 65/73/72 70/83/77 66/74/78
f 70/83/77 71/79/79 66/74/78
f 64/82/75 63/75/80 69/84/76
f 69/84/76 63/75/80 68/78/80
f 63/75/80 66/74/78 68/78/80
f 68/78/80 66/74/78 71/79/79
o egg.006
v -0.058044 -0.000000 -0.015974
v -0.058044 -0.033512 0.008134
v -0.058044 0.033512 0.029500
v -0.058044 0.033512 0.008134
v -0.058044 -0.033512 0.029500
v -0.052240 -0.000000 -0.011622
v -0.052240 -0.030161 0.010075
v -0.052240 0.030161 0.029304
v -0.052240 0.030161 0.010075
v -0.052240 -0.030161 0.029304
vt 1.3194 1.3937
vt -1.3194 4.1811
vt -1.3194 1.3937
vt 0.0000 1.3937
vt 1.3194 4.1811
vt 1.3194 1.3937
vt 0.0000 1.3937
vt -1.3194 1.3937
vt -1.3194 4.1811
vt 1.3194 4.1811
vt -1.3194 1.3937
vt 0.0000 0.0000
vt -1.3194 1.3937
vn -1.0000 -0.0000 0.0000
vn 1.0000 0.0000 -0.0000
vn 0.4292 0.7108 0.5573
vn 0.4292 -0.7108 0.5573
vn 0.3277 -0.5216 0.7878
vn 0.5546 -0.7380 -0.3845
vn 0.5542 -0.7448 -0.3716
vn 0.3277 0.5216 0.7878
vn 0.5546 0.7380 -0.3845
vn 0.5542 0.7448 -0.3716
vn 0.5998 0.0000 -0.8001
usemtl brownLight
s 1
f 74/85/81 75/86/81 76/87/81 73/88/81
f 75/86/81 74/85/81 77/89/81
f 79/90/82 78/91/82 81/92/82 80/93/82
f 80/93/82 82/94/82 79/90/82
f 75/86/83 77/89/84 82/94/85
f 82/94/85 74/95/86 79/90/87
f 74/95/86 82/94/85 77/89/84
f 82/94/85 80/93/88 75/86/83
f 75/86/83 80/96/88 76/87/89
f 80/96/88 81/92/90 76/87/89
f 74/95/86 73/88/91 79/97/87
f 79/97/87 73/88/91 78/91/91
f 73/88/91 76/87/89 78/91/91
f 78/91/91 76/87/89 81/92/90
o egg.005
v -0.029022 0.050268 -0.015974
v -0.058044 0.033512 0.008134
v -0.000000 0.067024 0.029500
v -0.000000 0.067024 0.008134
v -0.058044 0.033512 0.029500
v -0.026120 0.045241 -0.011622
v -0.052240 0.030161 0.010075
v -0.000000 0.060322 0.029304
v -0.000000 0.060322 0.010075
v -0.052240 0.030161 0.029304
vt 1.3194 1.3937
vt -1.3194 4.1811
vt -1.3194 1.3937
vt 0.0000 1.3937
vt 1.3194 4.1811
vt 1.3194 1.3937
vt 0.0000 1.3937
vt -1.3194 1.3937
vt -1.3194 4.1811
vt 1.3194 4.1811
vt -1.3194 1.3937
vt 0.0000 0.0000
vt -1.3194 1.3937
vn -0.5000 0.8660 -0.0000
vn 0.5000 -0.8660 0.0000
vn 0.8301 -0.0163 0.5573
vn -0.4009 -0.7271 0.5573
vn -0.2878 -0.5446 0.7878
vn -0.3618 -0.8493 -0.3845
vn -0.3679 -0.8524 -0.3716
vn 0.6155 -0.0230 0.7878
vn 0.9164 -0.1113 -0.3845
vn 0.9222 -0.1076 -0.3716
vn 0.2999 -0.5195 -0.8001
usemtl brownLight
s 1
f 84/98/92 85/99/92 86/100/92 83/101/92
f 85/99/92 84/98/92 87/102/92
f 89/103/93 88/104/93 91/105/93 90/106/93
f 90/106/93 92/107/93 89/103/93
f 85/99/94 87/102/95 92/107/96
f 92/107/96 84/108/97 89/103/98
f 84/108/97 92/107/96 87/102/95
f 92/107/96 90/106/99 85/99/94
f 85/99/94 90/109/99 86/100/100
f 90/109/99 91/105/101 86/100/100
f 84/108/97 83/101/102 89/110/98
f 89/110/98 83/101/102 88/104/102
f 83/101/102 86/100/100 88/104/102
f 88/104/102 86/100/100 91/105/101
o egg.004
v 0.029022 0.050268 -0.015974
v -0.000000 0.067024 0.008134
v 0.058044 0.033512 0.029500
v 0.058044 0.033512 0.008134
v -0.000000 0.067024 0.029500
v 0.026120 0.045241 -0.011622
v -0.000000 0.060322 0.010075
v 0.052240 0.030161 0.029304
v 0.052240 0.030161 0.010075
v -0.000000 0.060322 0.029304
vt 1.3194 1.3937
vt -1.3194 4.1811
vt -1.3194 1.3937
vt 0.0000 1.3937
vt 1.3194 4.1811
vt 1.3194 1.3937
vt 0.0000 1.3937
vt -1.3194 1.3937
vt -1.3194 4.1811
vt 1.3194 4.1811
vt -1.3194 1.3937
vt 0.0000 0.0000
vt -1.3194 1.3937
vn 0.5000 0.8660 0.0000
vn -0.5000 -0.8660 -0.0000
vn 0.4009 -0.7271 0.5573
vn -0.8301 -0.0163 0.5573
vn -0.6155 -0.0230 0.7878
vn -0.9164 -0.1113 -0.3845
vn -0.9222 -0.1076 -0.3716
vn 0.2878 -0.5446 0.7878
vn 0.3618 -0.8493 -0.3845
vn 0.3679 -0.8524 -0.3716
vn -0.2999 -0.5195 -0.8001
usemtl brownLight
s 1
f 94/111/103 95/112/103 96/113/103 93/114/103
f 95/112/103 94/111/103 97/115/103
f 99/116/104 98/117/104 101/118/104 100/119/104
f 100/119/104 102/120/104 99/116/104
f 95/112/105 97/115/106 102/120/107
f 102/120/107 94/121/108 99/116/109
f 94/121/108 102/120/107 97/115/106
f 102/120/107 100/119/110 95/112/105
f 95/112/105 100/122/110 96/113/111
f 100/122/110 101/118/112 96/113/111
f 94/121/108 93/114/113 99/123/109
f 99/123/109 93/114/113 98/117/113
f 93/114/113 96/113/111 98/117/113
f 98/117/113 96/113/111 101/118/112
o egg.003
v 0.058044 -0.033512 0.029500
v 0.058044 0.033512 0.029500
v 0.029022 -0.016756 0.088500
v 0.029022 0.016756 0.088500
v 0.052240 -0.030161 0.029304
v 0.052240 0.030161 0.029304
v 0.026120 -0.015080 0.082404
v 0.026120 0.015080 0.082404
vt 1.3194 2.7431
vt -0.6597 5.3317
vt -1.3194 2.7431
vt 0.6597 5.3317
vt 1.3194 2.7431
vt 0.6597 5.3317
vt -0.6597 5.3317
vt -1.3194 2.7431
vt 0.0000 0.0000
vn 0.8973 -0.0000 0.4414
vn -0.8517 0.4401 0.2845
vn -0.3292 0.6122 -0.7189
vn -0.8039 0.5475 0.2323
vn -0.3389 0.6280 -0.7006
vn -0.8517 -0.4401 0.2845
vn -0.8039 -0.5475 0.2323
vn -0.3292 -0.6122 -0.7189
vn -0.3389 -0.6280 -0.7006
vn -0.8973 0.0000 -0.4414
usemtl brownLight
s 1
f 104/124/114 105/125/114 103/126/114
f 105/125/114 104/124/114 106/127/114
f 106/127/115 108/128/116 110/129/117
f 106/127/115 104/124/118 108/128/116
f 105/125/119 106/127/115 109/130/120
f 109/130/120 107/131/121 105/125/119
f 103/132/122 107/131/121 108/128/116
f 103/132/122 108/128/116 104/124/118
f 105/125/119 107/131/121 103/132/122
f 108/128/123 107/131/123 109/130/123
f 109/130/123 110/129/123 108/128/123
f 109/130/120 106/127/115 110/129/117
o egg
v 0.058044 0.000000 -0.015974
v 0.058044 0.033512 0.008134
v 0.058044 -0.033512 0.029500
v 0.058044 -0.033512 0.008134
v 0.058044 0.033512 0.029500
v 0.052240 0.000000 -0.011622
v 0.052240 0.030161 0.010075
v 0.052240 -0.030161 0.029304
v 0.052240 -0.030161 0.010075
v 0.052240 0.030161 0.029304
vt 1.3194 1.3937
vt -1.3194 4.1811
vt -1.3194 1.3937
vt 0.0000 1.3937
vt 1.3194 4.1811
vt 1.3194 1.3937
vt 0.0000 1.3937
vt -1.3194 1.3937
vt -1.3194 4.1811
vt 1.3194 4.1811
vt -1.3194 1.3937
vt 0.0000 0.0000
vt -1.3194 1.3937
vn 1.0000 0.0000 0.0000
vn -1.0000 0.0000 0.0000
vn -0.4292 -0.7108 0.5573
vn -0.4292 0.7108 0.5573
vn -0.3277 0.5216 0.7878
vn -0.5546 0.7380 -0.3845
vn -0.5542 0.7448 -0.3716
vn -0.3277 -0.5216 0.7878
vn -0.5546 -0.7380 -0.3845
vn -0.5542 -0.7448 -0.3716
vn -0.5998 -0.0000 -0.8001
usemtl brownLight
s 1
f 112/133/124 113/134/124 114/135/124 111/136/124
f 113/134/124 112/133/124 115/137/124
f 117/138/125 116/139/125 119/140/125 118/141/125
f 118/141/125 120/142/125 117/138/125
f 113/134/126 115/137/127 120/142/128
f 120/142/128 112/143/129 117/138/130
f 112/143/129 120/142/128 115/137/127
f 120/142/128 118/141/131 113/134/126
f 113/134/126 118/144/131 114/135/132
f 118/144/131 119/140/133 114/135/132
f 112/143/129 111/136/134 117/145/130
f 117/145/130 111/136/134 116/139/134
f 111/136/134 114/135/132 116/139/134
f 116/139/134 114/135/132 119/140/133
