# Blender v2.78 (sub 0) OBJ File: ''
# www.blender.org
mtllib eggshell_flat_half_collision.mtl
o eggHalf.014_eggHalf.015
v -0.000000 0.067024 -0.041195
v -0.000000 0.047200 -0.076595
v 0.040876 0.023600 -0.076595
v 0.058044 0.033512 -0.041195
v -0.000000 0.060322 -0.038599
v -0.000000 0.042480 -0.070459
v 0.036789 0.021240 -0.070459
v 0.052240 0.030161 -0.038599
vt 1.3194 2.2512
vt -0.9291 0.7022
vt 0.9291 0.7022
vt -1.3194 2.2512
vt 0.9291 0.7022
vt 1.3194 2.2512
vt 0.0000 0.0000
vt -1.3194 2.2512
vt -0.9291 0.7022
vn 0.4499 0.7792 -0.4364
vn -0.8499 -0.4177 -0.3213
vn -0.5403 0.3039 0.7847
vn -0.8276 -0.4449 -0.3422
vn 0.0286 -0.9392 -0.3422
vn -0.7508 0.2386 0.6159
vn 0.5820 -0.5309 0.6159
vn 0.5333 -0.3159 0.7847
vn 0.0632 -0.9449 -0.3213
vn -0.4499 -0.7792 0.4364
usemtl brownLight.002
s 1
f 1/1/1 3/2/1 2/3/1
f 3/2/1 1/1/1 4/4/1
f 6/5/2 5/6/3 2/3/4
f 2/3/4 3/2/5 6/5/2
f 5/7/3 1/1/6 2/3/4
f 4/4/7 8/8/8 3/2/5
f 7/9/9 6/5/2 3/2/5
f 3/2/5 8/8/8 7/9/9
f 5/6/10 6/5/10 7/9/10
f 7/9/10 8/8/10 5/6/10
f 4/4/7 1/1/6 5/6/3
f 5/6/3 8/8/8 4/4/7
o eggHalf.013_eggHalf.014
v 0.058044 0.033512 -0.041195
v 0.040876 0.023600 -0.076595
v 0.040876 -0.023600 -0.076595
v 0.058045 -0.033512 -0.041195
v 0.052240 0.030161 -0.038599
v 0.036789 0.021240 -0.070459
v 0.036789 -0.021240 -0.070459
v 0.052240 -0.030161 -0.038599
vt 1.3194 2.2512
vt -0.9291 0.7022
vt 0.9291 0.7022
vt -1.3194 2.2512
vt 0.9291 0.7022
vt 1.3194 2.2512
vt 0.0000 0.0000
vt -1.3194 2.2512
vt -0.9291 0.7022
vn 0.8998 0.0000 -0.4364
vn -0.7867 0.5272 -0.3213
vn -0.0069 0.6198 0.7847
vn -0.7991 0.4943 -0.3422
vn -0.7991 -0.4943 -0.3422
vn -0.1688 0.7695 0.6159
vn -0.1688 -0.7695 0.6159
vn -0.0069 -0.6198 0.7847
vn -0.7867 -0.5272 -0.3213
vn -0.8998 -0.0000 0.4364
usemtl brownLight.002
s 1
f 9/10/11 11/11/11 10/12/11
f 11/11/11 9/10/11 12/13/11
f 14/14/12 13/15/13 10/12/14
f 10/12/14 11/11/15 14/14/12
f 13/16/13 9/10/16 10/12/14
f 12/13/17 16/17/18 11/11/15
f 15/18/19 14/14/12 11/11/15
f 11/11/15 16/17/18 15/18/19
f 13/15/20 14/14/20 15/18/20
f 15/18/20 16/17/20 13/15/20
f 12/13/17 9/10/16 13/15/13
f 13/15/13 16/17/18 12/13/17
o eggHalf.012_eggHalf.013
v 0.058045 -0.033512 -0.041195
v 0.040876 -0.023600 -0.076595
v 0.000000 -0.047200 -0.076595
v 0.000000 -0.067024 -0.041195
v 0.052240 -0.030161 -0.038599
v 0.036789 -0.021240 -0.070459
v 0.000000 -0.042480 -0.070459
v 0.000000 -0.060322 -0.038599
vt 1.3194 2.2512
vt -0.9291 0.7022
vt 0.9291 0.7022
vt -1.3194 2.2512
vt 0.9291 0.7022
vt 1.3194 2.2512
vt 0.0000 0.0000
vt -1.3194 2.2512
vt -0.9291 0.7022
vn 0.4499 -0.7792 -0.4364
vn 0.0632 0.9449 -0.3213
vn 0.5333 0.3159 0.7847
vn 0.0286 0.9392 -0.3422
vn -0.8276 0.4449 -0.3422
vn 0.5820 0.5309 0.6159
vn -0.7508 -0.2386 0.6159
vn -0.5403 -0.3039 0.7847
vn -0.8499 0.4177 -0.3213
vn -0.4499 0.7792 0.4364
usemtl brownLight.002
s 1
f 17/19/21 19/20/21 18/21/21
f 19/20/21 17/19/21 20/22/21
f 22/23/22 21/24/23 18/21/24
f 18/21/24 19/20/25 22/23/22
f 21/25/23 17/19/26 18/21/24
f 20/22/27 24/26/28 19/20/25
f 23/27/29 22/23/22 19/20/25
f 19/20/25 24/26/28 23/27/29
f 21/24/30 22/23/30 23/27/30
f 23/27/30 24/26/30 21/24/30
f 20/22/27 17/19/26 21/24/23
f 21/24/23 24/26/28 20/22/27
o eggHalf.011_eggHalf.012
v 0.000000 -0.067024 -0.041195
v 0.000000 -0.047200 -0.076595
v -0.040876 -0.023600 -0.076595
v -0.058044 -0.033512 -0.041195
v 0.000000 -0.060322 -0.038599
v 0.000000 -0.042480 -0.070459
v -0.036789 -0.021240 -0.070459
v -0.052240 -0.030161 -0.038599
vt 1.3194 2.2512
vt -0.9291 0.7022
vt 0.9291 0.7022
vt -1.3194 2.2512
vt 0.9291 0.7022
vt 1.3194 2.2512
vt 0.0000 0.0000
vt -1.3194 2.2512
vt -0.9291 0.7022
vn -0.4499 -0.7792 -0.4364
vn 0.8499 0.4177 -0.3213
vn 0.5403 -0.3039 0.7847
vn 0.8276 0.4449 -0.3422
vn -0.0286 0.9392 -0.3422
vn 0.7508 -0.2386 0.6159
vn -0.5820 0.5309 0.6159
vn -0.5333 0.3159 0.7847
vn -0.0632 0.9449 -0.3213
vn 0.4499 0.7792 0.4364
usemtl brownLight.002
s 1
f 25/28/31 27/29/31 26/30/31
f 27/29/31 25/28/31 28/31/31
f 30/32/32 29/33/33 26/30/34
f 26/30/34 27/29/35 30/32/32
f 29/34/33 25/28/36 26/30/34
f 28/31/37 32/35/38 27/29/35
f 31/36/39 30/32/32 27/29/35
f 27/29/35 32/35/38 31/36/39
f 29/33/40 30/32/40 31/36/40
f 31/36/40 32/35/40 29/33/40
f 28/31/37 25/28/36 29/33/33
f 29/33/33 32/35/38 28/31/37
o eggHalf.010_eggHalf.011
v -0.058044 -0.033512 -0.041195
v -0.040876 -0.023600 -0.076595
v -0.040876 0.023600 -0.076595
v -0.058044 0.033512 -0.041195
v -0.052240 -0.030161 -0.038599
v -0.036789 -0.021240 -0.070459
v -0.036789 0.021240 -0.070459
v -0.052240 0.030161 -0.038599
vt 1.3194 2.2512
vt -0.9291 0.7022
vt 0.9291 0.7022
vt -1.3194 2.2512
vt 0.9291 0.7022
vt 1.3194 2.2512
vt 0.0000 0.0000
vt -1.3194 2.2512
vt -0.9291 0.7022
vn -0.8998 -0.0000 -0.4364
vn 0.7867 -0.5272 -0.3213
vn 0.0069 -0.6198 0.7847
vn 0.7991 -0.4943 -0.3422
vn 0.7991 0.4943 -0.3422
vn 0.1688 -0.7695 0.6159
vn 0.1688 0.7695 0.6159
vn 0.0069 0.6198 0.7847
vn 0.7867 0.5272 -0.3213
vn 0.8998 0.0000 0.4364
usemtl brownLight.002
s 1
f 33/37/41 35/38/41 34/39/41
f 35/38/41 33/37/41 36/40/41
f 38/41/42 37/42/43 34/39/44
f 34/39/44 35/38/45 38/41/42
f 37/43/43 33/37/46 34/39/44
f 36/40/47 40/44/48 35/38/45
f 39/45/49 38/41/42 35/38/45
f 35/38/45 40/44/48 39/45/49
f 37/42/50 38/41/50 39/45/50
f 39/45/50 40/44/50 37/42/50
f 36/40/47 33/37/46 37/42/43
f 37/42/43 40/44/48 36/40/47
o eggHalf.009_eggHalf.010
v -0.058044 0.033512 -0.041195
v -0.040876 0.023600 -0.076595
v -0.000000 0.047200 -0.076595
v 0.000000 0.067024 -0.041195
v -0.052240 0.030161 -0.038599
v -0.036789 0.021240 -0.070459
v 0.000000 0.042480 -0.070459
v 0.000000 0.060322 -0.038599
vt 1.3194 2.2512
vt -0.9291 0.7022
vt 0.9291 0.7022
vt -1.3194 2.2512
vt 0.9291 0.7022
vt 1.3194 2.2512
vt 0.0000 0.0000
vt -1.3194 2.2512
vt -0.9291 0.7022
vn -0.4499 0.7792 -0.4364
vn -0.0632 -0.9449 -0.3213
vn -0.5333 -0.3159 0.7847
vn -0.0286 -0.9392 -0.3422
vn 0.8276 -0.4449 -0.3422
vn -0.5820 -0.5309 0.6159
vn 0.7508 0.2386 0.6159
vn 0.5403 0.3039 0.7847
vn 0.8499 -0.4177 -0.3213
vn 0.4499 -0.7792 0.4364
usemtl brownLight.002
s 1
f 41/46/51 43/47/51 42/48/51
f 43/47/51 41/46/51 44/49/51
f 46/50/52 45/51/53 42/48/54
f 42/48/54 43/47/55 46/50/52
f 45/52/53 41/46/56 42/48/54
f 44/49/57 48/53/58 43/47/55
f 47/54/59 46/50/52 43/47/55
f 43/47/55 48/53/58 47/54/59
f 45/51/60 46/50/60 47/54/60
f 47/54/60 48/53/60 45/51/60
f 44/49/57 41/46/56 45/51/53
f 45/51/53 48/53/58 44/49/57
o eggHalf.008_eggHalf.009
v -0.029022 0.050268 0.006005
v -0.058045 0.033512 0.006005
v -0.000000 0.067024 0.006005
v -0.000000 0.067024 -0.041195
v -0.058045 0.033512 -0.041195
v -0.000000 0.067024 0.029605
v -0.058045 0.033512 0.029605
v -0.026120 0.045241 0.003881
v -0.052240 0.030161 0.003881
v -0.000000 0.060322 0.003881
v -0.000000 0.060322 -0.038599
v -0.052240 0.030161 -0.038599
v -0.000000 0.060322 0.025121
v -0.052240 0.030161 0.025121
vt 0.0000 3.2520
vt 1.3194 1.3937
vt 1.3194 3.2520
vt -1.3194 1.3937
vt -1.3194 3.2520
vt 1.3194 4.1811
vt -1.3194 4.1811
vt 1.3194 1.3937
vt -1.3194 1.3937
vt 0.0000 0.0000
vt 0.0000 0.0000
vt 0.0000 0.0000
vt 1.3194 4.1811
vt 1.3194 4.1811
vt 0.0000 0.0000
vt 0.0000 3.2520
vt 1.3194 3.2520
vt -1.3194 3.2520
vt 1.3194 4.1811
vt -1.3194 4.1811
vn -0.3854 0.6675 0.6372
vn -0.5000 0.8660 -0.0000
vn -0.5524 0.0034 0.8336
vn 0.2733 0.4801 0.8336
vn -0.1775 -0.7761 -0.6051
vn 0.8012 -0.2161 -0.5581
vn 0.7609 -0.2344 -0.6051
vn -0.2134 -0.8019 -0.5581
vn 0.2494 -0.8005 0.5449
vn 0.5686 -0.6163 0.5449
vn 0.4615 -0.7994 0.3847
vn 0.5000 -0.8660 0.0000
usemtl brownLight.002
s 1
f 49/55/61 53/56/62 50/57/62
f 53/56/62 49/55/61 52/58/62
f 52/58/62 49/55/61 51/59/62
f 49/55/61 50/57/62 55/60/63
f 51/59/62 49/55/61 54/61/64
f 60/62/65 52/58/66 59/63/67
f 53/64/68 60/65/65 62/66/69
f 53/64/68 52/58/66 60/65/65
f 59/63/67 52/58/66 54/67/64
f 62/66/69 55/60/63 53/64/68
f 54/67/64 61/68/70 59/69/67
f 56/70/71 57/71/72 60/62/72
f 60/62/72 59/63/72 56/70/71
f 59/63/72 58/72/72 56/70/71
f 56/70/71 62/73/69 57/71/72
f 58/72/72 61/74/70 56/70/71
f 54/67/64 49/55/61 61/68/70
f 61/68/70 49/55/61 56/70/71
f 49/55/61 55/60/63 56/70/71
f 56/70/71 55/60/63 62/66/69
o eggHalf.007_eggHalf.008
v 0.029022 0.050268 0.006005
v -0.000000 0.067024 0.006005
v 0.058044 0.033512 0.006005
v 0.058044 0.033512 -0.041195
v -0.000000 0.067024 -0.041195
v 0.058044 0.033512 0.029605
v -0.000000 0.067024 0.029605
v 0.026120 0.045241 0.003881
v -0.000000 0.060322 0.003881
v 0.052240 0.030161 0.003881
v 0.052240 0.030161 -0.038599
v -0.000000 0.060322 -0.038599
v 0.052240 0.030161 0.025121
v -0.000000 0.060322 0.025121
vt 0.0000 3.2520
vt 1.3194 1.3937
vt 1.3194 3.2520
vt -1.3194 1.3937
vt -1.3194 3.2520
vt 1.3194 4.1811
vt -1.3194 4.1811
vt 1.3194 1.3937
vt -1.3194 1.3937
vt 0.0000 0.0000
vt 0.0000 0.0000
vt 0.0000 0.0000
vt 1.3194 4.1811
vt 1.3194 4.1811
vt 0.0000 0.0000
vt 0.0000 3.2520
vt 1.3194 3.2520
vt -1.3194 3.2520
vt 1.3194 4.1811
vt -1.3194 4.1811
vn 0.3854 0.6675 0.6372
vn 0.5000 0.8660 0.0000
vn -0.2733 0.4801 0.8336
vn 0.5524 0.0034 0.8336
vn -0.7609 -0.2344 -0.6051
vn 0.2134 -0.8019 -0.5581
vn 0.1775 -0.7761 -0.6051
vn -0.8012 -0.2161 -0.5581
vn -0.5686 -0.6163 0.5449
vn -0.2494 -0.8005 0.5449
vn -0.4615 -0.7994 0.3847
vn -0.5000 -0.8660 -0.0000
usemtl brownLight.002
s 1
f 63/75/73 67/76/74 64/77/74
f 67/76/74 63/75/73 66/78/74
f 66/78/74 63/75/73 65/79/74
f 63/75/73 64/77/74 69/80/75
f 65/79/74 63/75/73 68/81/76
f 74/82/77 66/78/78 73/83/79
f 67/84/80 74/85/77 76/86/81
f 67/84/80 66/78/78 74/85/77
f 73/83/79 66/78/78 68/87/76
f 76/86/81 69/80/75 67/84/80
f 68/87/76 75/88/82 73/89/79
f 70/90/83 71/91/84 74/82/84
f 74/82/84 73/83/84 70/90/83
f 73/83/84 72/92/84 70/90/83
f 70/90/83 76/93/81 71/91/84
f 72/92/84 75/94/82 70/90/83
f 68/87/76 63/75/73 75/88/82
f 75/88/82 63/75/73 70/90/83
f 63/75/73 69/80/75 70/90/83
f 70/90/83 69/80/75 76/86/81
o eggHalf.006_eggHalf.007
v 0.058044 0.000000 0.006005
v 0.058044 0.033512 0.006005
v 0.058045 -0.033512 0.006005
v 0.058045 -0.033512 -0.041195
v 0.058044 0.033512 -0.041195
v 0.058045 -0.033512 0.029605
v 0.058044 0.033512 0.029605
v 0.052240 0.000000 0.003881
v 0.052240 0.030161 0.003881
v 0.052240 -0.030161 0.003881
v 0.052240 -0.030161 -0.038599
v 0.052240 0.030161 -0.038599
v 0.052240 -0.030161 0.025121
v 0.052240 0.030161 0.025121
vt 0.0000 3.2520
vt 1.3194 1.3937
vt 1.3194 3.2520
vt -1.3194 1.3937
vt -1.3194 3.2520
vt 1.3194 4.1811
vt -1.3194 4.1811
vt 1.3194 1.3937
vt -1.3194 1.3937
vt 0.0000 0.0000
vt 0.0000 0.0000
vt 0.0000 0.0000
vt 1.3194 4.1811
vt 1.3194 4.1811
vt 0.0000 0.0000
vt 0.0000 3.2520
vt 1.3194 3.2520
vt -1.3194 3.2520
vt 1.3194 4.1811
vt -1.3194 4.1811
vn 0.7707 0.0000 0.6372
vn 1.0000 0.0000 0.0000
vn 0.2792 0.4767 0.8336
vn 0.2792 -0.4767 0.8336
vn -0.5834 0.5418 -0.6051
vn -0.5878 -0.5857 -0.5581
vn -0.5834 -0.5418 -0.6051
vn -0.5878 0.5857 -0.5581
vn -0.8180 0.1843 0.5449
vn -0.8180 -0.1843 0.5449
vn -0.9230 -0.0000 0.3847
vn -1.0000 -0.0000 0.0000
usemtl brownLight.002
s 1
f 77/95/85 81/96/86 78/97/86
f 81/96/86 77/95/85 80/98/86
f 80/98/86 77/95/85 79/99/86
f 77/95/85 78/97/86 83/100/87
f 79/99/86 77/95/85 82/101/88
f 88/102/89 80/98/90 87/103/91
f 81/104/92 88/105/89 90/106/93
f 81/104/92 80/98/90 88/105/89
f 87/103/91 80/98/90 82/107/88
f 90/106/93 83/100/87 81/104/92
f 82/107/88 89/108/94 87/109/91
f 84/110/95 85/111/96 88/102/96
f 88/102/96 87/103/96 84/110/95
f 87/103/96 86/112/96 84/110/95
f 84/110/95 90/113/93 85/111/96
f 86/112/96 89/114/94 84/110/95
f 82/107/88 77/95/85 89/108/94
f 89/108/94 77/95/85 84/110/95
f 77/95/85 83/100/87 84/110/95
f 84/110/95 83/100/87 90/106/93
o eggHalf.005_eggHalf.006
v 0.029022 -0.050268 0.006005
v 0.058044 -0.033512 0.006005
v 0.000000 -0.067024 0.006005
v 0.000000 -0.067024 -0.041195
v 0.058044 -0.033512 -0.041195
v 0.000000 -0.067024 0.029605
v 0.058044 -0.033512 0.029605
v 0.026120 -0.045241 0.003881
v 0.052240 -0.030161 0.003881
v 0.000000 -0.060322 0.003881
v 0.000000 -0.060322 -0.038599
v 0.052240 -0.030161 -0.038599
v 0.000000 -0.060322 0.025121
v 0.052240 -0.030161 0.025121
vt 0.0000 3.2520
vt 1.3194 1.3937
vt 1.3194 3.2520
vt -1.3194 1.3937
vt -1.3194 3.2520
vt 1.3194 4.1811
vt -1.3194 4.1811
vt 1.3194 1.3937
vt -1.3194 1.3937
vt 0.0000 0.0000
vt 0.0000 0.0000
vt 0.0000 0.0000
vt 1.3194 4.1811
vt 1.3194 4.1811
vt 0.0000 0.0000
vt 0.0000 3.2520
vt 1.3194 3.2520
vt -1.3194 3.2520
vt 1.3194 4.1811
vt -1.3194 4.1811
vn 0.3854 -0.6675 0.6372
vn 0.5000 -0.8660 -0.0000
vn 0.5524 -0.0034 0.8336
vn -0.2733 -0.4801 0.8336
vn 0.1775 0.7761 -0.6051
vn -0.8012 0.2161 -0.5581
vn -0.7609 0.2344 -0.6051
vn 0.2134 0.8019 -0.5581
vn -0.2494 0.8005 0.5449
vn -0.5686 0.6163 0.5449
vn -0.4615 0.7994 0.3847
vn -0.5000 0.8660 0.0000
usemtl brownLight.002
s 1
f 91/115/97 95/116/98 92/117/98
f 95/116/98 91/115/97 94/118/98
f 94/118/98 91/115/97 93/119/98
f 91/115/97 92/117/98 97/120/99
f 93/119/98 91/115/97 96/121/100
f 102/122/101 94/118/102 101/123/103
f 95/124/104 102/125/101 104/126/105
f 95/124/104 94/118/102 102/125/101
f 101/123/103 94/118/102 96/127/100
f 104/126/105 97/120/99 95/124/104
f 96/127/100 103/128/106 101/129/103
f 98/130/107 99/131/108 102/122/108
f 102/122/108 101/123/108 98/130/107
f 101/123/108 100/132/108 98/130/107
f 98/130/107 104/133/105 99/131/108
f 100/132/108 103/134/106 98/130/107
f 96/127/100 91/115/97 103/128/106
f 103/128/106 91/115/97 98/130/107
f 91/115/97 97/120/99 98/130/107
f 98/130/107 97/120/99 104/126/105
o eggHalf.004_eggHalf.005
v -0.029022 -0.050268 0.006005
v 0.000000 -0.067024 0.006005
v -0.058044 -0.033512 0.006005
v -0.058044 -0.033512 -0.041195
v 0.000000 -0.067024 -0.041195
v -0.058044 -0.033512 0.029605
v 0.000000 -0.067024 0.029605
v -0.026120 -0.045241 0.003881
v 0.000000 -0.060322 0.003881
v -0.052240 -0.030161 0.003881
v -0.052240 -0.030161 -0.038599
v 0.000000 -0.060322 -0.038599
v -0.052240 -0.030161 0.025121
v 0.000000 -0.060322 0.025121
vt 0.0000 3.2520
vt 1.3194 1.3937
vt 1.3194 3.2520
vt -1.3194 1.3937
vt -1.3194 3.2520
vt 1.3194 4.1811
vt -1.3194 4.1811
vt 1.3194 1.3937
vt -1.3194 1.3937
vt 0.0000 0.0000
vt 0.0000 0.0000
vt 0.0000 0.0000
vt 1.3194 4.1811
vt 1.3194 4.1811
vt 0.0000 0.0000
vt 0.0000 3.2520
vt 1.3194 3.2520
vt -1.3194 3.2520
vt 1.3194 4.1811
vt -1.3194 4.1811
vn -0.3854 -0.6675 0.6372
vn -0.5000 -0.8660 0.0000
vn 0.2733 -0.4801 0.8336
vn -0.5524 -0.0034 0.8336
vn 0.7609 0.2344 -0.6051
vn -0.2134 0.8019 -0.5581
vn -0.1775 0.7761 -0.6051
vn 0.8012 0.2161 -0.5581
vn 0.5686 0.6163 0.5449
vn 0.2494 0.8005 0.5449
vn 0.4615 0.7994 0.3847
vn 0.5000 0.8660 -0.0000
usemtl brownLight.002
s 1
f 105/135/109 109/136/110 106/137/110
f 109/136/110 105/135/109 108/138/110
f 108/138/110 105/135/109 107/139/110
f 105/135/109 106/137/110 111/140/111
f 107/139/110 105/135/109 110/141/112
f 116/142/113 108/138/114 115/143/115
f 109/144/116 116/145/113 118/146/117
f 109/144/116 108/138/114 116/145/113
f 115/143/115 108/138/114 110/147/112
f 118/146/117 111/140/111 109/144/116
f 110/147/112 117/148/118 115/149/115
f 112/150/119 113/151/120 116/142/120
f 116/142/120 115/143/120 112/150/119
f 115/143/120 114/152/120 112/150/119
f 112/150/119 118/153/117 113/151/120
f 114/152/120 117/154/118 112/150/119
f 110/147/112 105/135/109 117/148/118
f 117/148/118 105/135/109 112/150/119
f 105/135/109 111/140/111 112/150/119
f 112/150/119 111/140/111 118/146/117
o eggHalf.003_eggHalf.004
v -0.040876 -0.023600 -0.076595
v -0.040876 0.023600 -0.076595
v -0.000000 0.047200 -0.076595
v -0.000000 -0.047200 -0.076595
v 0.040876 0.023600 -0.076595
v 0.040876 -0.023600 -0.076595
v -0.036789 -0.021240 -0.070459
v -0.036789 0.021240 -0.070459
v 0.000000 0.042480 -0.070459
v 0.000000 -0.042480 -0.070459
v 0.036789 0.021240 -0.070459
v 0.036789 -0.021240 -0.070459
vt 0.0000 1.8583
vt 1.6093 -0.9291
vt 1.6093 0.9291
vt 0.0000 -1.8583
vt -1.6093 0.9291
vt -1.6093 -0.9291
vt -1.6093 0.9291
vt 0.0000 1.8583
vt 0.0000 0.0000
vt 1.6093 0.9291
vt 1.6093 -0.9291
vt 0.0000 -1.8583
vt -1.6093 -0.9291
vn -0.0000 0.0000 -1.0000
vn 0.6864 0.3963 0.6097
vn -0.0000 0.7926 0.6097
vn 0.0000 0.0000 1.0000
vn -0.6864 0.3963 0.6097
vn 0.0000 -0.7926 0.6097
vn -0.6864 -0.3963 0.6097
vn 0.6864 -0.3963 0.6097
usemtl brownLight.002
s 1
f 121/155/121 119/156/121 120/157/121
f 119/156/121 121/155/121 122/158/121
f 122/158/121 121/155/121 123/159/121
f 122/158/121 123/159/121 124/160/121
f 129/161/122 123/159/122 127/162/123
f 123/159/122 121/163/123 127/162/123
f 127/162/124 126/164/124 125/165/124
f 125/165/124 128/166/124 127/162/124
f 128/166/124 129/161/124 127/162/124
f 128/166/124 130/167/124 129/161/124
f 121/163/123 120/157/125 126/164/125
f 128/166/126 125/165/127 119/156/127
f 120/157/125 125/165/127 126/164/125
f 120/157/125 119/156/127 125/165/127
f 124/160/128 123/159/122 129/161/122
f 129/161/122 130/167/128 124/160/128
f 127/162/123 121/163/123 126/164/125
f 124/160/128 130/167/128 122/158/126
f 128/166/126 122/158/126 130/167/128
f 122/158/126 128/166/126 119/156/127
o eggHalf.002_eggHalf.003
v -0.058044 -0.000000 0.006005
v -0.058044 -0.033512 0.006005
v -0.058044 0.033512 0.006005
v -0.058044 0.033512 -0.041195
v -0.058044 -0.033512 -0.041195
v -0.058044 0.033512 0.029605
v -0.058044 -0.033512 0.029605
v -0.052240 -0.000000 0.003881
v -0.052240 -0.030161 0.003881
v -0.052240 0.030161 0.003881
v -0.052240 0.030161 -0.038599
v -0.052240 -0.030161 -0.038599
v -0.052240 0.030161 0.025121
v -0.052240 -0.030161 0.025121
vt 0.0000 3.2520
vt 1.3194 1.3937
vt 1.3194 3.2520
vt -1.3194 1.3937
vt -1.3194 3.2520
vt 1.3194 4.1811
vt -1.3194 4.1811
vt 1.3194 1.3937
vt -1.3194 1.3937
vt 0.0000 0.0000
vt 0.0000 0.0000
vt 0.0000 0.0000
vt 1.3194 4.1811
vt 1.3194 4.1811
vt 0.0000 0.0000
vt 0.0000 3.2520
vt 1.3194 3.2520
vt -1.3194 3.2520
vt 1.3194 4.1811
vt -1.3194 4.1811
vn -0.7707 -0.0000 0.6372
vn -1.0000 0.0000 0.0000
vn -0.2792 -0.4767 0.8336
vn -0.2792 0.4767 0.8336
vn 0.5834 -0.5418 -0.6051
vn 0.5878 0.5857 -0.5581
vn 0.5834 0.5418 -0.6051
vn 0.5878 -0.5857 -0.5581
vn 0.8180 -0.1843 0.5449
vn 0.8180 0.1843 0.5449
vn 0.9230 0.0000 0.3847
vn 1.0000 0.0000 0.0000
usemtl brownLight.002
s 1
f 131/168/129 135/169/130 132/170/130
f 135/169/130 131/168/129 134/171/130
f 134/171/130 131/168/129 133/172/130
f 131/168/129 132/170/130 137/173/131
f 133/172/130 131/168/129 136/174/132
f 142/175/133 134/171/134 141/176/135
f 135/177/136 142/178/133 144/179/137
f 135/177/136 134/171/134 142/178/133
f 141/176/135 134/171/134 136/180/132
f 144/179/137 137/173/131 135/177/136
f 136/180/132 143/181/138 141/182/135
f 138/183/139 139/184/140 142/175/140
f 142/175/140 141/176/140 138/183/139
f 141/176/140 140/185/140 138/183/139
f 138/183/139 144/186/137 139/184/140
f 140/185/140 143/187/138 138/183/139
f 136/180/132 131/168/129 143/181/138
f 143/181/138 131/168/129 138/183/139
f 131/168/129 137/173/131 138/183/139
f 138/183/139 137/173/131 144/179/137
