# Blender 3.4.1
# www.blender.org
mtllib mangoRed.mtl
o mangoRed
v -0.022943 0.000000 0.000000
v -0.016222 0.000000 0.016222
v -0.016222 0.000000 -0.016222
v 0.000000 0.000000 -0.022943
v 0.000000 0.000000 0.022943
v 0.016222 0.000000 -0.016222
v 0.016222 0.000000 0.016222
v 0.022943 0.000000 0.000000
v 0.000000 0.016387 -0.040486
v 0.028628 0.016387 -0.028628
v -0.028628 0.016387 -0.028628
v -0.028628 0.016387 0.028628
v 0.000000 0.016387 0.040486
v 0.028628 0.016387 0.028628
v 0.040486 0.016387 0.000000
v -0.040486 0.016387 0.000000
v -0.035585 0.035170 0.035585
v -0.050324 0.035170 0.000000
v -0.032382 0.061855 0.032382
v -0.045796 0.061855 0.000000
v -0.035585 0.035170 -0.035585
v 0.000000 0.035170 -0.050324
v -0.032382 0.061855 -0.032382
v 0.000000 0.035170 0.050324
v -0.040980 0.080509 0.000000
v -0.000247 0.048448 0.000000
v -0.020613 0.064479 0.000000
v 0.020120 0.032418 0.000000
vn -0.0000 -1.0000 -0.0000
vn 0.2721 -0.7032 -0.6569
vn 0.2721 -0.7032 -0.6568
vn -0.2721 -0.7032 -0.6569
vn -0.2721 -0.7032 0.6569
vn 0.6568 -0.7032 0.2721
vn 0.6569 -0.7032 0.2721
vn -0.6569 -0.7032 0.2721
vn -0.6568 -0.7032 0.2721
vn 0.2721 -0.7032 0.6569
vn 0.6568 -0.7032 -0.2721
vn 0.6569 -0.7032 -0.2721
vn -0.6569 -0.7032 -0.2721
vn -0.6568 -0.7032 -0.2721
vn -0.9127 0.1549 0.3781
vn -0.3781 0.1549 -0.9127
vn -0.3781 0.1549 0.9127
vn -0.9127 0.1549 -0.3781
vn -0.8316 -0.4356 0.3445
vn 0.3445 -0.4356 -0.8316
vn -0.8316 -0.4356 -0.3445
vn -0.3445 -0.4356 0.8316
vn -0.3445 -0.4356 -0.8316
vn 0.3445 -0.4356 0.8316
vn -0.8987 0.2320 -0.3723
vn -0.8987 0.2320 0.3723
vn 0.5943 0.7550 -0.2772
vn 0.5943 0.7550 0.2772
vn 0.5636 0.7931 0.2310
vn 0.5636 0.7931 -0.2310
vn 0.6263 0.7510 0.2093
vn 0.6263 0.7510 -0.2093
vn 0.5991 0.7612 0.2482
vn 0.5991 0.7612 -0.2482
vt 1.761575 0.000000
vt -0.674125 1.144478
vt 0.674125 1.144478
vt 1.245621 -1.245621
vt -0.674125 1.144478
vt 0.674125 1.144478
vt 1.245621 1.245621
vt 0.674125 1.144478
vt -0.674125 1.144478
vt -0.000000 1.761575
vt 0.674125 1.144478
vt -0.674125 1.144478
vt -0.000000 -1.761575
vt 0.674125 1.144478
vt -0.674125 1.144478
vt -1.245621 1.245621
vt -0.674125 1.144478
vt 0.674125 1.144478
vt -1.245621 -1.245621
vt -0.674125 1.144478
vt 0.674125 1.144478
vt -1.761575 0.000000
vt 0.674125 1.144478
vt -0.674125 1.144478
vt 1.189633 2.914261
vt -1.189633 2.914261
vt 1.189633 2.383674
vt -1.189633 2.383674
vt -1.189633 2.914261
vt 1.189633 2.914261
vt -1.189633 2.383674
vt 1.189633 2.914261
vt -1.189633 2.914261
vt -1.189633 2.383674
vt 1.189633 2.383674
vt -1.189633 2.914261
vt 1.189633 2.914261
vt 1.189633 2.383674
vt -1.189633 2.383674
vt 1.189633 2.914261
vt -1.189633 2.914261
vt 1.189633 2.383674
vt -1.189633 2.914261
vt 1.189633 2.914261
vt -1.189633 2.914261
vt 1.189633 2.914261
vt -1.189633 2.914261
vt 1.189633 2.914261
vt -1.189633 2.383674
vt 1.189633 2.383674
vt 1.478714 2.114796
vt 1.478714 3.985837
vt -1.478714 3.985837
vt -1.478714 2.114796
vt 1.478714 2.114796
vt -1.478714 3.985837
vt 1.478714 3.985837
vt 1.345630 4.188775
vt 1.345630 1.195508
vt -1.345630 4.188775
vt 1.345630 4.188775
vt 1.345630 1.195508
vt -1.345630 1.195508
vt 1.478714 2.114796
vt -1.478714 2.114796
vt -1.478714 3.985837
vt 1.478714 3.985837
vt 1.478714 3.985837
vt -1.478714 3.985837
vt -1.478714 2.114796
vt 1.345630 4.188775
vt -1.345630 4.188775
vt -1.345630 1.195508
vt 1.478714 3.985837
vt -0.779927 3.174611
vt 0.779927 3.174611
vt 0.000000 0.000000
vt 0.000000 0.000000
vt 0.000000 0.000000
s 0
usemtl brown.022
f 3/7/1 2/4/1 1/1/1
f 2/4/1 3/7/1 4/10/1
f 2/4/1 4/10/1 5/13/1
f 5/13/1 4/10/1 6/16/1
f 5/13/1 6/16/1 7/19/1
f 7/19/1 6/16/1 8/22/1
f 10/29/2 4/11/2 9/25/2
f 4/11/3 10/29/3 6/17/3
f 9/26/4 3/8/4 11/32/4
f 3/8/4 9/26/4 4/12/4
f 2/5/5 13/40/5 12/36/5
f 13/40/5 2/5/5 5/14/5
f 8/23/6 14/43/6 7/20/6
f 14/43/7 8/23/7 15/46/7
f 1/2/8 12/37/8 16/47/8
f 12/37/9 1/2/9 2/6/9
f 7/21/10 13/41/10 5/15/10
f 13/41/10 7/21/10 14/44/10
f 10/30/11 8/24/11 6/18/11
f 8/24/12 10/30/12 15/45/12
f 11/33/13 1/3/13 16/48/13
f 1/3/14 11/33/14 3/9/14
f 19/58/15 18/54/15 17/51/15
f 18/54/15 19/58/15 20/60/15
f 23/71/16 22/70/16 21/64/16
f 19/58/17 17/53/17 24/74/17
f 23/72/18 18/55/18 20/61/18
f 18/55/18 23/72/18 21/65/18
f 18/56/19 12/38/19 17/52/19
f 12/38/19 18/56/19 16/49/19
f 22/68/20 10/31/20 9/27/20
f 21/66/21 16/50/21 18/57/21
f 16/50/21 21/66/21 11/34/21
f 24/74/22 12/39/22 13/42/22
f 12/39/22 24/74/22 17/53/22
f 21/67/23 9/28/23 11/35/23
f 9/28/23 21/67/23 22/69/23
f 14/44/24 24/74/24 13/42/24
f 25/76/25 23/73/25 20/62/25
f 19/59/26 25/75/26 20/63/26
f 25/76/27 27/78/27 23/73/27
f 25/76/28 19/59/28 27/78/28
f 19/59/29 24/74/29 26/77/29 27/78/29
f 23/73/30 27/78/30 26/77/30 22/70/30
f 24/74/31 14/44/31 28/79/31 26/77/31
f 22/70/32 26/77/32 28/79/32 10/31/32
f 15/46/33 28/79/33 14/44/33
f 15/46/34 10/31/34 28/79/34
