# Blender 3.4.1
# www.blender.org
mtllib MangoPeel.mtl
o mangoPeel
v 0.009005 -0.059470 -0.013118
v 0.015558 -0.059470 0.002701
v 0.003460 -0.043490 0.014799
v -0.008103 -0.043490 -0.013118
v -0.003324 -0.025175 0.021583
v -0.017696 -0.025175 -0.013118
v -0.000201 0.000847 0.018460
v -0.013280 0.000847 -0.013118
v -0.008584 0.019038 -0.013118
v -0.000201 0.000847 0.018460
v -0.008584 0.019038 -0.013118
v 0.003120 0.019038 0.015139
v 0.021610 0.054038 -0.013118
v 0.024470 0.054038 -0.006211
v 0.005209 -0.059075 -0.011546
v 0.002301 0.042688 -0.013118
v 0.010817 0.042688 0.007442
v 0.011762 -0.059075 0.004273
v -0.000336 -0.043095 0.016371
v -0.011899 -0.043095 -0.011546
v -0.001495 0.043083 -0.011546
v 0.007021 0.043083 0.009014
v -0.007120 -0.024780 0.023155
v -0.021492 -0.024780 -0.011546
v -0.003997 0.001242 0.020032
v -0.017076 0.001242 -0.011546
v -0.003997 0.001242 0.020032
v -0.000676 0.019433 0.016711
v 0.017814 0.054433 -0.011546
v 0.020674 0.054433 -0.004639
v -0.012380 0.019433 -0.011546
v -0.012380 0.019433 -0.011546
vn 0.6569 0.7032 -0.2721
vn 0.6568 0.7032 -0.2721
vn 0.9127 -0.1549 -0.3780
vn 0.8316 0.4356 -0.3444
vn 0.8316 0.4356 -0.3445
vn 0.8987 -0.2320 -0.3722
vn 0.8502 -0.3913 -0.3522
vn -0.6569 -0.7032 0.2721
vn 0.4960 -0.8437 -0.2054
vn 0.4959 -0.8437 -0.2054
vn -0.6568 -0.7032 0.2721
vn -0.9127 0.1549 0.3780
vn -0.8316 -0.4356 0.3444
vn -0.8316 -0.4356 0.3445
vn -0.8987 0.2320 0.3722
vn -0.8502 0.3913 0.3522
vn -0.4960 0.8437 0.2054
vn -0.4959 0.8437 0.2054
vn 0.3561 -0.2057 0.9115
vn -0.3624 0.1668 -0.9170
vn -0.2667 -0.8641 -0.4270
vn -0.3849 -0.4121 -0.8259
vn 0.3763 0.4918 0.7852
vn -0.3927 -0.2057 -0.8964
vn -0.3762 0.0638 -0.9243
vn -0.2891 0.4918 -0.8214
vn 0.3875 0.0639 0.9196
vn -0.3723 0.0961 -0.9231
vn 0.2667 0.8641 0.4270
vn 0.3117 -0.4121 0.8561
vn 0.3894 0.0961 0.9160
vn 0.3921 0.1668 0.9047
vn -0.0883 -0.9954 0.0366
vn 0.0884 0.9954 -0.0366
vt -0.674125 1.144478
vt 0.674125 1.144478
vt 1.189633 2.383674
vt 1.189633 2.914261
vt -1.189633 2.914261
vt -1.189633 2.383674
vt 1.478714 3.985837
vt 1.478714 2.114796
vt -1.478714 3.985837
vt -1.478714 2.114796
vt 1.345630 4.188775
vt 1.345630 1.195508
vt -1.345630 4.188775
vt -1.345630 1.195508
vt -0.779927 3.174611
vt 1.345630 1.195508
vt -0.779927 5.514337
vt -0.779927 3.174611
vt 0.779927 3.174611
vt 0.779927 5.514337
vt -0.294303 6.634511
vt 0.294303 6.634511
vt -0.674125 1.144478
vt -0.580674 7.437668
vt -0.580674 5.504609
vt 0.580674 5.504609
vt 0.580674 7.437668
vt 0.674125 1.144478
vt 1.189633 2.383674
vt 1.189633 2.914261
vt -1.189633 2.914261
vt -1.189633 2.383674
vt -0.580674 7.437668
vt -0.580674 5.504609
vt 0.580674 5.504609
vt 0.580674 7.437668
vt 1.478714 3.985837
vt 1.478714 2.114796
vt -1.478714 3.985837
vt -1.478714 2.114796
vt 1.345630 4.188775
vt 1.345630 1.195508
vt -1.345630 4.188775
vt -1.345630 1.195508
vt 1.345630 1.195508
vt 0.779927 3.174611
vt 0.779927 5.514337
vt -0.294303 6.634511
vt 0.294303 6.634511
vt -0.779927 5.514337
vt -0.779927 3.174611
vt -0.779927 3.174611
s 0
usemtl green.004
f 1/1/1 4/5/1 3/4/1
f 3/4/2 2/2/2 1/1/2
f 7/11/3 5/8/3 6/10/3
f 6/10/3 8/13/3 7/11/3
f 6/9/4 5/7/4 3/3/4
f 3/3/5 4/6/5 6/9/5
f 7/12/6 8/14/6 9/15/6
f 11/18/6 12/19/6 10/16/6
f 17/27/7 12/20/7 11/17/7
f 11/17/7 16/24/7 17/27/7
f 15/23/8 19/30/8 20/31/8
f 14/22/9 17/26/9 16/25/9
f 16/25/10 13/21/10 14/22/10
f 19/30/11 15/23/11 18/28/11
f 25/41/12 24/40/12 23/38/12
f 24/40/12 25/41/12 26/43/12
f 24/39/13 19/29/13 23/37/13
f 19/29/14 24/39/14 20/32/14
f 25/42/15 32/52/15 26/44/15
f 31/51/15 27/45/15 28/46/15
f 22/36/16 31/50/16 28/47/16
f 31/50/16 22/36/16 21/33/16
f 30/49/17 21/34/17 22/35/17
f 21/34/18 30/49/18 29/48/18
f 3/3/19 5/7/19 23/37/19 19/29/19
f 16/24/20 11/17/20 31/50/20 21/33/20
f 11/18/21 10/16/21 27/45/21 31/51/21
f 4/5/22 1/1/22 15/23/22 20/31/22
f 17/26/23 14/22/23 30/49/23 22/35/23
f 6/9/24 4/6/24 20/32/24 24/39/24
f 8/13/25 6/10/25 24/40/25 26/43/25
f 13/21/26 16/25/26 21/34/26 29/48/26
f 5/8/27 7/11/27 25/41/27 23/38/27
f 9/15/28 8/14/28 26/44/28 32/52/28
f 7/12/29 9/15/29 32/52/29 25/42/29
f 2/2/30 3/4/30 19/30/30 18/28/30
f 10/16/31 12/19/31 28/46/31 27/45/31
f 12/20/32 17/27/32 22/36/32 28/47/32
f 1/1/33 2/2/33 18/28/33 15/23/33
f 14/22/34 13/21/34 29/48/34 30/49/34
