# Blender 3.4.1
# www.blender.org
mtllib BlackBeanCollider.mtl
o Cube.001
v 0.009003 0.004687 -0.004580
v 0.003864 0.004687 -0.011360
v 0.009003 -0.004921 -0.004580
v 0.003864 -0.004921 -0.011360
v -0.004940 0.003486 -0.011360
v -0.004940 -0.003382 -0.011360
v 0.009003 0.004687 0.003785
v 0.009003 -0.004921 0.003785
v 0.002128 0.003187 0.012156
v 0.002128 -0.003436 0.012156
v -0.006760 0.003486 0.012156
v -0.006760 -0.003382 0.012156
v 0.006434 -0.004921 -0.007970
v 0.002336 -0.006980 -0.004580
v -0.006900 -0.003382 -0.007970
v -0.001108 -0.004277 -0.011360
v 0.002336 -0.006980 0.003785
v -0.003198 -0.004024 0.012156
v -0.007768 -0.003382 0.007970
v 0.005566 -0.004921 0.007970
v -0.001101 -0.006980 0.007970
v -0.000233 -0.006980 -0.007970
v 0.006434 0.004687 -0.007970
v 0.002336 0.007090 -0.004580
v -0.006900 0.003486 -0.007970
v -0.001108 0.004729 -0.011360
v 0.002336 0.007090 0.003785
v -0.003198 0.003922 0.012156
v -0.007768 0.003486 0.007970
v 0.005566 0.004687 0.007970
v -0.001101 0.007090 0.007970
v -0.000233 0.007090 -0.007970
vn 0.7969 -0.0000 -0.6041
vn -0.3615 -0.8447 -0.3946
vn 0.1878 0.8941 -0.4067
vn -0.0000 -0.0000 -1.0000
vn 1.0000 -0.0000 -0.0000
vn -0.0000 -0.0000 1.0000
vn -0.3513 0.8898 0.2911
vn 0.1798 -0.8148 0.5511
vn 0.7728 -0.0000 0.6347
vn -0.3691 -0.8904 0.2664
vn 0.2868 -0.9286 0.2355
vn 0.2951 -0.9555 -0.0000
vn 0.1098 -0.9029 -0.4156
vn 0.2879 -0.9324 -0.2183
vn -0.0000 -1.0000 -0.0000
vn 0.2066 0.7900 0.5772
vn 0.3266 0.9063 0.2683
vn 0.3390 0.9408 -0.0000
vn -0.0000 1.0000 -0.0000
vn -0.3914 0.8478 -0.3579
vn -0.4754 0.8794 -0.0259
vn 0.3284 0.9112 -0.2489
vn -0.8657 -0.0000 -0.5006
vn -0.9985 -0.0000 -0.0544
vn -0.9722 -0.0000 0.2341
vn -0.4747 -0.8797 -0.0258
vt 0.375000 0.000000
vt 0.375000 1.000000
vt 0.625000 0.000000
vt 0.625000 1.000000
vt 0.875000 0.750000
vt 0.375000 0.250000
vt 0.875000 0.500000
vt 0.625000 0.250000
vt 0.625000 0.750000
vt 0.625000 0.500000
vt 0.375000 0.000000
vt 0.375000 1.000000
vt 0.375000 0.250000
vt 0.125000 0.750000
vt 0.375000 0.000000
vt 0.375000 1.000000
vt 0.125000 0.500000
vt 0.375000 0.250000
vt 0.375000 0.750000
vt 0.375000 0.500000
vt 0.500000 0.250000
vt 0.375000 0.375000
vt 0.500000 0.500000
vt 0.000000 0.000000
vt 0.750000 0.500000
vt 0.625000 0.375000
vt 0.375000 0.375000
vt 0.250000 0.500000
vt 0.375000 0.375000
vt 0.375000 0.500000
vt 0.000000 0.000000
vt 0.375000 0.250000
vt 0.375000 0.375000
vt 0.000000 0.000000
vt 0.500000 0.375000
vt 0.000000 0.000000
vt 0.500000 0.000000
vt 0.500000 1.000000
vt 0.375000 0.875000
vt 0.500000 0.750000
vt 0.750000 0.750000
vt 0.625000 0.875000
vt 0.375000 0.875000
vt 0.250000 0.750000
vt 0.375000 0.875000
vt 0.375000 0.750000
vt 0.375000 0.000000
vt 0.375000 1.000000
vt 0.375000 0.875000
vt 0.500000 0.875000
s 0
usemtl yELLOW
f 1/1/1 3/6/1 13/21/1 4/8/1 2/3/1 23/37/1
f 22/35/2 15/23/2 6/10/2 16/26/2
f 32/50/3 23/38/3 2/4/3 26/42/3
f 6/10/4 5/9/4 26/41/4 2/5/4 4/7/4 16/25/4
f 3/6/5 1/2/5 7/11/5 8/13/5
f 10/17/6 9/14/6 28/44/6 11/19/6 12/20/6 18/28/6
f 31/49/7 29/46/7 11/19/7 28/45/7
f 21/33/8 20/32/8 10/18/8 18/29/8
f 8/13/9 7/11/9 30/47/9 9/15/9 10/18/9 20/32/9
f 19/30/10 21/33/10 18/29/10 12/20/10
f 17/27/11 8/13/11 20/32/11 21/33/11
f 14/22/12 3/6/12 8/13/12 17/27/12
f 13/21/13 22/35/13 16/26/13 4/8/13
f 3/6/14 14/22/14 22/35/14 13/21/14
f 14/22/15 17/27/15 21/34/15 22/35/15
f 30/48/16 31/49/16 28/45/16 9/16/16
f 7/12/17 27/43/17 31/49/17 30/48/17
f 24/39/18 27/43/18 7/12/18 1/2/18
f 31/49/19 27/43/19 24/39/19 32/50/19
f 25/40/20 32/50/20 26/42/20 5/9/20
f 25/40/21 29/46/21 31/49/21 32/50/21
f 24/39/22 1/2/22 23/38/22 32/50/22
f 5/9/23 6/10/23 15/23/23 25/40/23
f 29/46/24 25/40/24 15/23/24 19/30/24
f 12/20/25 11/19/25 29/46/25 19/30/25
f 21/34/26 19/31/26 15/24/26 22/36/26
