# Blender v2.78 (sub 0) OBJ File: 'tmp_MSPrep.blend'
# www.blender.org
mtllib wooden_beer_mug_visual.mtl
o mug_ID7.004
v 0.148112 -0.015584 -0.006000
v 0.111908 -0.015584 0.056709
v 0.148112 0.015584 -0.006000
v 0.111908 0.015584 0.056709
v 0.075703 0.064800 0.076680
v -0.036534 0.129600 0.076680
v 0.075703 0.064800 0.112680
v -0.036534 0.129600 0.124680
v -0.036534 0.100170 0.124680
v 0.075703 -0.064800 0.112680
v 0.050216 -0.050085 0.112680
v 0.106501 0.015584 0.056709
v 0.106501 -0.015584 0.056709
v 0.086927 0.015584 0.056709
v 0.086927 -0.015584 0.056709
v 0.129689 0.015584 0.087506
v 0.075703 0.015584 0.087506
v 0.129689 -0.015584 0.087506
v 0.075703 -0.015584 0.087506
v 0.183675 -0.015584 -0.006000
v 0.183675 0.015584 -0.006000
v -0.036534 0.100170 -0.091320
v 0.050216 0.050085 -0.091320
v 0.050216 0.050085 0.112680
v -0.036534 0.129600 -0.052680
v -0.148771 0.064800 -0.052680
v -0.036534 0.129600 0.040680
v -0.148771 0.064800 0.040680
v 0.129689 0.015584 -0.099506
v 0.129689 -0.015584 -0.099506
v 0.075703 0.015584 -0.099506
v 0.075703 -0.015584 -0.099506
v 0.111908 0.015584 -0.068709
v 0.086927 0.015584 -0.088680
v 0.075703 0.015584 -0.088680
v 0.086927 0.015584 -0.068709
v 0.086927 0.015584 0.076680
v 0.075703 0.015584 0.076680
v 0.106501 0.015584 -0.068709
v 0.111908 -0.015584 -0.068709
v 0.106501 -0.015584 -0.068709
v 0.086927 -0.015584 -0.068709
v -0.148771 -0.064800 -0.052680
v -0.148771 -0.064800 0.040680
v -0.036534 -0.129600 -0.136680
v 0.075703 -0.064800 -0.136680
v -0.036534 -0.129600 -0.088680
v 0.075703 -0.064800 -0.088680
v -0.148771 -0.064800 -0.136680
v -0.148771 -0.064800 -0.088680
v -0.148771 0.064800 0.076680
v -0.148771 0.064800 0.112680
v -0.036534 -0.129600 -0.052680
v -0.036534 -0.129600 0.040680
v -0.036534 -0.129600 0.124680
v -0.036534 -0.100170 0.124680
v 0.050216 -0.050085 -0.091320
v -0.036534 -0.100170 -0.091320
v -0.123284 0.050085 -0.091320
v -0.123284 -0.050085 -0.091320
v 0.075703 0.064800 -0.136680
v -0.036534 0.129600 -0.136680
v 0.075703 0.064800 -0.088680
v -0.036534 0.129600 -0.088680
v -0.123284 -0.050085 0.112680
v -0.148771 -0.064800 0.112680
v -0.036534 -0.129600 0.076680
v 0.075703 -0.064800 0.076680
v 0.075703 -0.064800 -0.052680
v 0.075703 -0.064800 0.040680
v 0.075703 0.064800 -0.052680
v 0.075703 0.064800 0.040680
v -0.123284 0.050085 0.112680
v -0.148771 0.064800 -0.136680
v -0.148771 0.064800 -0.088680
v -0.148771 -0.064800 0.076680
v 0.075703 -0.015584 0.076680
v 0.075703 -0.015584 -0.088680
v 0.086927 -0.015584 0.076680
v 0.086927 -0.015584 -0.088680
v 0.086927 0.071280 0.040680
v -0.036534 0.142560 0.040680
v 0.086927 0.071280 0.076680
v -0.036534 0.142560 0.076680
v 0.086927 -0.071280 0.040680
v 0.086927 -0.071280 0.076680
v 0.086927 -0.071280 -0.088680
v 0.086927 -0.071280 -0.052680
v 0.086927 0.071280 -0.052680
v 0.086927 0.071280 -0.088680
v -0.159995 -0.071280 0.040680
v -0.159995 -0.071280 0.076680
v -0.159995 0.071280 0.040680
v -0.159995 0.071280 0.076680
v -0.036534 -0.142560 0.040680
v -0.036534 -0.142560 0.076680
v -0.159995 -0.071280 -0.088680
v -0.036534 -0.142560 -0.088680
v -0.159995 -0.071280 -0.052680
v -0.036534 -0.142560 -0.052680
v -0.159995 0.071280 -0.052680
v -0.036534 0.142560 -0.052680
v -0.036534 0.142560 -0.088680
v -0.159995 0.071280 -0.088680
vt 2.5512 8.4000
vt -2.5512 8.4000
vt 2.5512 9.8173
vt -2.5512 10.2898
vt 5.8442 0.6136
vt 5.8442 -0.6136
vt 5.6313 0.6136
vt 5.6313 -0.6136
vt 4.8607 0.6136
vt 4.8607 -0.6136
vt -6.5442 0.6136
vt -4.4188 0.6136
vt -6.5442 -0.6136
vt -4.4188 -0.6136
vt 0.6136 0.1208
vt -0.6136 0.1208
vt 0.6136 4.3716
vt -0.6136 4.3716
vt 1.9719 1.7858
vt -1.9719 1.7858
vt 1.9719 10.2898
vt -1.9719 9.8173
vt 2.5512 3.3071
vt -2.5512 3.3071
vt 2.5512 6.9827
vt -2.5512 6.9827
vt 6.5442 0.6136
vt 6.5442 -0.6136
vt 4.4188 0.6136
vt 4.4188 -0.6136
vt 4.4188 1.4635
vt 5.8442 2.6760
vt 6.5442 1.4635
vt 8.6696 5.1449
vt 4.8607 1.8898
vt 4.4188 1.8898
vt 4.8607 2.6760
vt 7.2695 5.1449
vt 6.5442 8.8262
vt 5.8442 7.6137
vt 5.6313 7.6137
vt 4.8607 7.6137
vt 4.8607 8.4000
vt 4.4188 8.4000
vt 4.4188 8.8262
vt 5.6313 2.6760
vt -5.8442 0.6136
vt -5.6313 0.6136
vt -5.8442 -0.6136
vt -5.6313 -0.6136
vt -4.8607 0.6136
vt -4.8607 -0.6136
vt 0.6136 8.7904
vt 0.6136 4.5396
vt -0.6136 8.7904
vt -0.6136 4.5396
vt -2.5512 3.3071
vt -2.5512 6.9827
vt 2.5512 3.3071
vt 2.5512 6.9827
vt 2.5512 0.0000
vt -2.5512 0.0000
vt 2.5512 1.8898
vt -2.5512 1.8898
vt 2.5512 0.0000
vt -2.5512 0.0000
vt 2.5512 1.8898
vt -2.5512 1.8898
vt 2.5512 8.4000
vt -2.5512 8.4000
vt 2.5512 10.2898
vt -2.5512 9.8173
vt 2.5512 3.3071
vt -2.5512 3.3071
vt 2.5512 6.9827
vt -2.5512 6.9827
vt -3.4154 1.9719
vt 0.0000 3.9437
vt -3.4154 -1.9719
vt 0.0000 -3.9437
vt 3.4154 1.9719
vt 3.4154 -1.9719
vt -1.9719 1.7858
vt -1.9719 9.8173
vt 1.9719 1.7858
vt 1.9719 9.8173
vt 2.5512 0.0000
vt -2.5512 0.0000
vt 2.5512 1.8898
vt -2.5512 1.8898
vt 1.9719 1.7858
vt -1.9719 1.7858
vt 1.9719 10.2898
vt -1.9719 9.8173
vt -4.4188 2.5512
vt -3.4154 1.9719
vt 2.5512 8.4000
vt -2.5512 8.4000
vt 2.5512 10.2898
vt -2.5512 9.8173
vt 2.5512 3.3071
vt -2.5512 3.3071
vt 2.5512 6.9827
vt -2.5512 6.9827
vt 2.5512 3.3071
vt -2.5512 3.3071
vt 2.5512 6.9827
vt -2.5512 6.9827
vt -1.9719 10.2898
vt -4.4188 -2.5512
vt 1.9719 9.8173
vt 4.4188 2.5512
vt 1.9719 9.8173
vt 3.4154 1.9719
vt 3.4154 -1.9719
vt 4.4188 -2.5512
vt 2.5512 0.0000
vt -2.5512 0.0000
vt 2.5512 1.8898
vt -2.5512 1.8898
vt 1.9719 1.7858
vt -1.9719 1.7858
vt -1.9719 10.2898
vt 2.5512 6.9827
vt 2.5512 3.3071
vt -2.5512 6.9827
vt -2.5512 3.3071
vt -2.5512 8.4000
vt -2.5512 9.8173
vt 2.5512 8.4000
vt 2.5512 9.8173
vt 1.9719 9.8173
vt 1.9719 1.7858
vt -1.9719 9.8173
vt -1.9719 1.7858
vt 1.9719 1.7858
vt -1.9719 1.7858
vt 2.5512 9.8173
vt 2.5512 8.4000
vt -2.5512 9.8173
vt 0.6136 8.8262
vt -0.6136 8.8262
vt -0.6136 8.4000
vt -2.5512 8.4000
vt 0.6136 8.4000
vt -0.6136 1.8898
vt -0.6136 1.4635
vt -2.5512 1.8898
vt -2.5512 0.0000
vt 0.6136 1.4635
vt 2.5512 0.0000
vt 0.6136 1.8898
vt 2.5512 1.8898
vt 4.4188 2.5512
vt 4.4188 -2.5512
vt 0.0000 5.1024
vt 0.0000 -5.1024
vt -4.4188 2.5512
vt -4.4188 -2.5512
vt -2.5512 0.0000
vt -2.5512 1.8898
vt 2.5512 0.0000
vt 2.5512 1.8898
vt 2.5512 8.4000
vt -2.5512 8.4000
vt 2.5512 9.8173
vt -2.5512 10.2898
vt -3.4154 -1.9719
vt -4.8607 7.6137
vt -5.6313 7.6137
vt -4.8607 8.4000
vt -5.8442 7.6137
vt -6.5442 8.8262
vt -4.4188 8.8262
vt -4.4188 8.4000
vt -8.6696 5.1449
vt -7.2695 5.1449
vt -5.8442 2.6760
vt -6.5442 1.4635
vt -4.8607 1.8898
vt -4.4188 1.8898
vt -4.4188 1.4635
vt -4.8607 2.6760
vt -5.6313 2.6760
vt 2.8063 6.9827
vt -2.8063 6.9827
vt 2.8063 8.4000
vt -2.8063 8.4000
vt -0.6136 8.4000
vt -0.6136 7.6137
vt -2.8063 8.4000
vt -2.8063 6.9827
vt 0.6136 7.6137
vt 2.8063 6.9827
vt 0.6136 8.4000
vt 2.8063 8.4000
vt 2.8063 1.8898
vt 0.6136 2.6760
vt 2.8063 3.3071
vt -2.8063 3.3071
vt -0.6136 2.6760
vt -0.6136 1.8898
vt -2.8063 1.8898
vt 0.6136 1.8898
vt -2.8063 6.9827
vt -2.8063 8.4000
vt 2.8063 6.9827
vt 2.8063 8.4000
vt 2.8063 6.9827
vt -2.8063 6.9827
vt 2.8063 8.4000
vt -2.8063 8.4000
vt 2.8063 6.9827
vt -2.8063 6.9827
vt 2.8063 8.4000
vt -2.8063 8.4000
vt 2.8063 6.9827
vt -2.8063 6.9827
vt 2.8063 8.4000
vt -2.8063 8.4000
vt 4.8607 -2.8063
vt 4.4188 2.5512
vt 4.8607 2.8063
vt 0.0000 5.6126
vt 0.0000 5.1024
vt -4.8607 2.8063
vt -4.4188 2.5512
vt -4.4188 -2.5512
vt 4.4188 -2.5512
vt 0.0000 -5.6126
vt 0.0000 -5.1024
vt -4.8607 -2.8063
vt 2.8063 1.8898
vt -2.8063 1.8898
vt 2.8063 3.3071
vt -2.8063 3.3071
vt 2.8063 1.8898
vt -2.8063 1.8898
vt 2.8063 3.3071
vt -2.8063 3.3071
vt -4.8607 0.6136
vt -4.4188 2.5512
vt -4.4188 0.6136
vt -4.8607 2.8063
vt 0.0000 5.6126
vt 0.0000 5.1024
vt 4.8607 2.8063
vt 4.4188 2.5512
vt 4.4188 -2.5512
vt 4.8607 -2.8063
vt 0.0000 -5.6126
vt 0.0000 -5.1024
vt -4.4188 -2.5512
vt -4.8607 -2.8063
vt -4.4188 -0.6136
vt -4.8607 -0.6136
vt -4.4188 2.5512
vt -4.4188 -2.5512
vt -4.8607 -2.8063
vt 0.0000 -5.6126
vt 0.0000 -5.1024
vt 4.4188 -2.5512
vt 4.8607 -2.8063
vt 4.8607 2.8063
vt -4.8607 2.8063
vt 0.0000 5.6126
vt 0.0000 5.1024
vt 4.4188 2.5512
vt 2.8063 1.8898
vt -2.8063 1.8898
vt 2.8063 3.3071
vt -2.8063 3.3071
vt 2.8063 1.8898
vt -2.8063 1.8898
vt 2.8063 3.3071
vt -2.8063 3.3071
vt -2.8063 1.8898
vt -2.8063 3.3071
vt 2.8063 1.8898
vt 2.8063 3.3071
vt 4.8607 0.6136
vt 4.4188 2.5512
vt 4.8607 2.8063
vt 0.0000 5.6126
vt 0.0000 5.1024
vt -4.8607 2.8063
vt -4.4188 2.5512
vt -4.4188 -2.5512
vt -4.8607 -2.8063
vt 0.0000 -5.6126
vt 0.0000 -5.1024
vt 4.4188 -2.5512
vt 4.8607 -2.8063
vt 4.4188 -0.6136
vt 4.8607 -0.6136
vt 4.4188 0.6136
vt -0.6136 0.8208
vt -0.6136 3.6716
vt 0.6136 0.8208
vt 0.6136 3.6716
vt -0.6136 8.0904
vt 0.6136 8.0904
vt -0.6136 5.2396
vt 0.6136 5.2396
vn 0.5000 0.8660 0.0000
vn 0.0000 0.0000 -1.0000
vn 0.0000 0.0000 1.0000
vn 0.8660 0.0000 0.5000
vn -0.5000 -0.8660 0.0000
vn -0.5000 0.8660 0.0000
vn -0.0000 1.0000 -0.0000
vn 0.8660 0.0000 -0.5000
vn -1.0000 0.0000 0.0000
vn 0.5000 -0.8660 0.0000
vn 0.0900 -0.0519 0.9946
vn 0.0900 0.0519 0.9946
vn -0.0900 -0.0519 0.9946
vn 1.0000 0.0000 0.0000
vn -0.0900 0.0519 0.9946
vn 0.0000 -1.0000 0.0000
vn -0.5447 -0.8386 0.0000
vn -0.2723 -0.8386 -0.4717
vn -0.5447 0.8386 0.0000
vn -0.2723 0.8386 -0.4717
vn -0.2723 -0.8386 0.4717
vn -0.2723 0.8386 0.4717
usemtl brownDark.005
s off
f 5/1/1 6/2/1 7/3/1
f 8/4/1 7/3/1 6/2/1
f 4/5/2 2/6/2 12/7/2
f 13/8/2 12/7/2 2/6/2
f 14/9/2 12/7/2 13/8/2
f 15/10/2 14/9/2 13/8/2
f 16/11/3 17/12/3 18/13/3
f 19/14/3 18/13/3 17/12/3
f 20/15/4 21/16/4 18/17/4
f 16/18/4 18/17/4 21/16/4
f 22/19/5 23/20/5 9/21/5
f 24/22/5 9/21/5 23/20/5
f 25/23/6 26/24/6 27/25/6
f 28/26/6 27/25/6 26/24/6
f 29/27/2 30/28/2 31/29/2
f 32/30/2 31/29/2 30/28/2
f 31/31/7 33/32/7 29/33/7
f 21/34/7 29/33/7 33/32/7
f 34/35/7 33/32/7 31/31/7
f 35/36/7 34/35/7 31/31/7
f 36/37/7 33/32/7 34/35/7
f 3/38/7 21/34/7 33/32/7
f 16/39/7 21/34/7 3/38/7
f 4/40/7 16/39/7 3/38/7
f 12/41/7 16/39/7 4/40/7
f 14/42/7 16/39/7 12/41/7
f 37/43/7 16/39/7 14/42/7
f 38/44/7 16/39/7 37/43/7
f 17/45/7 16/39/7 38/44/7
f 33/32/3 36/37/3 39/46/3
f 33/47/3 39/48/3 40/49/3
f 41/50/3 40/49/3 39/48/3
f 36/51/3 41/50/3 39/48/3
f 42/52/3 41/50/3 36/51/3
f 20/53/8 30/54/8 21/55/8
f 29/56/8 21/55/8 30/54/8
f 43/57/9 44/58/9 26/59/9
f 28/60/9 26/59/9 44/58/9
f 45/61/10 46/62/10 47/63/10
f 48/64/10 47/63/10 46/62/10
f 49/65/5 45/66/5 50/67/5
f 47/68/5 50/67/5 45/66/5
f 6/69/6 51/70/6 8/71/6
f 52/72/6 8/71/6 51/70/6
f 43/73/5 53/74/5 44/75/5
f 54/76/5 44/75/5 53/74/5
f 23/77/3 22/78/3 57/79/3
f 58/80/3 57/79/3 22/78/3
f 59/81/3 58/80/3 22/78/3
f 60/82/3 58/80/3 59/81/3
f 57/83/9 11/84/9 23/85/9
f 24/86/9 23/85/9 11/84/9
f 61/87/1 62/88/1 63/89/1
f 64/90/1 63/89/1 62/88/1
f 58/91/1 60/92/1 56/93/1
f 65/94/1 56/93/1 60/92/1
f 7/95/11 8/4/11 9/21/11 24/96/11
f 67/97/10 68/98/10 55/99/10
f 10/100/10 55/99/10 68/98/10
f 53/101/10 69/102/10 54/103/10
f 70/104/10 54/103/10 69/102/10
f 71/105/1 25/106/1 72/107/1
f 27/108/1 72/107/1 25/106/1
f 56/109/12 55/99/12 10/110/12 11/111/12
f 8/4/13 52/112/13 73/113/13 9/21/13
f 73/114/3 52/112/3 65/115/3
f 66/116/3 65/115/3 52/112/3
f 62/117/6 74/118/6 64/119/6
f 75/120/6 64/119/6 74/118/6
f 59/121/10 22/122/10 73/113/10
f 9/123/10 73/113/10 22/122/10
f 70/124/14 69/125/14 72/126/14
f 71/127/14 72/126/14 69/125/14
f 76/128/9 66/129/9 51/130/9
f 52/131/9 51/130/9 66/129/9
f 65/132/14 60/133/14 73/134/14
f 59/135/14 73/134/14 60/133/14
f 57/136/6 58/137/6 11/111/6
f 56/109/6 11/111/6 58/137/6
f 10/138/14 68/139/14 7/140/14
f 19/141/14 7/140/14 68/139/14
f 17/142/14 7/140/14 19/141/14
f 38/143/14 7/140/14 17/142/14
f 5/144/14 7/140/14 38/143/14
f 19/141/14 68/139/14 77/145/14
f 35/146/14 31/147/14 63/148/14
f 61/149/14 63/148/14 31/147/14
f 31/147/14 32/150/14 61/149/14
f 61/149/14 32/150/14 46/151/14
f 32/150/14 78/152/14 46/151/14
f 48/153/14 46/151/14 78/152/14
f 61/154/2 46/155/2 62/156/2
f 45/157/2 62/156/2 46/155/2
f 74/158/2 62/156/2 45/157/2
f 49/159/2 74/158/2 45/157/2
f 49/160/9 50/161/9 74/162/9
f 75/163/9 74/162/9 50/161/9
f 76/164/5 67/165/5 66/166/5
f 55/167/5 66/166/5 67/165/5
f 65/94/15 66/166/15 55/167/15 56/93/15
f 7/95/3 24/96/3 10/110/3
f 11/168/3 10/110/3 24/96/3
f 15/169/16 13/170/16 79/171/16
f 2/172/16 79/171/16 13/170/16
f 79/171/16 2/172/16 18/173/16
f 18/173/16 19/174/16 79/171/16
f 77/175/16 79/171/16 19/174/16
f 18/173/16 2/172/16 20/176/16
f 2/172/16 1/177/16 20/176/16
f 1/177/16 40/178/16 20/176/16
f 20/176/16 40/178/16 30/179/16
f 40/178/16 80/180/16 30/179/16
f 80/180/16 78/181/16 30/179/16
f 32/182/16 30/179/16 78/181/16
f 42/183/16 80/180/16 40/178/16
f 41/184/3 42/183/3 40/178/3
f 81/185/1 82/186/1 83/187/1
f 84/188/1 83/187/1 82/186/1
f 37/189/14 14/190/14 83/191/14
f 83/191/14 14/190/14 81/192/14
f 14/190/14 15/193/14 81/192/14
f 81/192/14 15/193/14 85/194/14
f 15/193/14 79/195/14 85/194/14
f 86/196/14 85/194/14 79/195/14
f 87/197/14 42/198/14 88/199/14
f 89/200/14 88/199/14 42/198/14
f 36/201/14 89/200/14 42/198/14
f 34/202/14 89/200/14 36/201/14
f 90/203/14 89/200/14 34/202/14
f 42/198/14 87/197/14 80/204/14
f 91/205/9 92/206/9 93/207/9
f 94/208/9 93/207/9 92/206/9
f 95/209/10 85/210/10 96/211/10
f 86/212/10 96/211/10 85/210/10
f 82/213/6 93/214/6 84/215/6
f 94/216/6 84/215/6 93/214/6
f 91/217/5 95/218/5 92/219/5
f 96/220/5 92/219/5 95/218/5
f 85/221/2 72/222/2 81/223/2
f 82/224/2 81/223/2 72/222/2
f 27/225/2 82/224/2 72/222/2
f 93/226/2 82/224/2 27/225/2
f 28/227/2 93/226/2 27/225/2
f 44/228/2 93/226/2 28/227/2
f 72/222/2 85/221/2 70/229/2
f 95/230/2 70/229/2 85/221/2
f 54/231/2 70/229/2 95/230/2
f 44/228/2 54/231/2 95/230/2
f 91/232/2 44/228/2 95/230/2
f 93/226/2 44/228/2 91/232/2
f 97/233/5 98/234/5 99/235/5
f 100/236/5 99/235/5 98/234/5
f 98/237/10 87/238/10 100/239/10
f 88/240/10 100/239/10 87/238/10
f 37/241/3 5/242/3 38/243/3
f 37/241/3 83/244/3 5/242/3
f 84/245/3 5/242/3 83/244/3
f 6/246/3 5/242/3 84/245/3
f 94/247/3 6/246/3 84/245/3
f 51/248/3 6/246/3 94/247/3
f 76/249/3 51/248/3 94/247/3
f 94/247/3 92/250/3 76/249/3
f 92/250/3 96/251/3 76/249/3
f 76/249/3 96/251/3 67/252/3
f 67/252/3 96/251/3 68/253/3
f 96/251/3 86/254/3 68/253/3
f 68/253/3 86/254/3 77/255/3
f 79/256/3 77/255/3 86/254/3
f 71/257/3 69/258/3 88/259/3
f 100/260/3 88/259/3 69/258/3
f 53/261/3 100/260/3 69/258/3
f 43/262/3 100/260/3 53/261/3
f 99/263/3 100/260/3 43/262/3
f 101/264/3 99/263/3 43/262/3
f 88/259/3 89/265/3 71/257/3
f 102/266/3 71/257/3 89/265/3
f 25/267/3 71/257/3 102/266/3
f 101/264/3 25/267/3 102/266/3
f 26/268/3 25/267/3 101/264/3
f 43/262/3 26/268/3 101/264/3
f 90/269/1 103/270/1 89/271/1
f 102/272/1 89/271/1 103/270/1
f 103/273/6 104/274/6 102/275/6
f 101/276/6 102/275/6 104/274/6
f 97/277/9 99/278/9 104/279/9
f 101/280/9 104/279/9 99/278/9
f 34/281/2 63/282/2 90/283/2
f 103/284/2 90/283/2 63/282/2
f 64/285/2 103/284/2 63/282/2
f 104/286/2 103/284/2 64/285/2
f 75/287/2 104/286/2 64/285/2
f 50/288/2 104/286/2 75/287/2
f 104/286/2 50/288/2 97/289/2
f 97/289/2 50/288/2 98/290/2
f 50/288/2 47/291/2 98/290/2
f 47/291/2 48/292/2 98/290/2
f 98/290/2 48/292/2 87/293/2
f 48/292/2 78/294/2 87/293/2
f 80/295/2 87/293/2 78/294/2
f 63/282/2 34/281/2 35/296/2
s 1
f 1/297/17 2/298/18 3/299/19
f 4/300/20 3/299/19 2/298/18
f 1/301/17 3/302/19 40/303/21
f 33/304/22 40/303/21 3/302/19
