# Blender v2.78 (sub 0) OBJ File: ''
# www.blender.org
mtllib abe_right_hand.mtl
o RightHand.001_Hand.002
v -0.110980 -0.011179 0.053097
v -0.090500 0.000618 0.040173
v -0.098086 0.021562 0.016807
v -0.115134 0.002996 0.016557
v -0.075500 -0.076016 0.042103
v -0.108546 -0.063420 0.059747
v -0.112798 -0.076671 0.022939
v -0.076576 -0.098898 0.017276
v -0.075228 -0.034996 0.039792
v -0.107955 -0.036382 0.054283
v -0.121063 -0.028623 -0.025602
v -0.085877 -0.023342 -0.012378
v -0.084849 -0.083640 -0.004138
v -0.119101 -0.068421 -0.010203
v -0.019788 -0.032283 0.034018
v -0.029109 0.005324 0.033238
v -0.103155 0.014356 -0.005049
v -0.039475 0.019498 -0.012430
v -0.028526 -0.020706 -0.018523
v -0.033263 0.026474 0.009205
v -0.030926 -0.092400 0.013402
v -0.026675 -0.072628 0.037611
v -0.121346 -0.001679 -0.016337
v 0.059640 -0.082690 -0.015801
v 0.095628 -0.075557 -0.030396
v 0.102034 -0.059622 -0.013963
v 0.064969 -0.065773 0.002789
v 0.108539 -0.027108 -0.017364
v 0.071665 -0.031255 -0.000451
v 0.060588 -0.021350 -0.040828
v 0.095123 -0.017778 -0.053091
v 0.087407 -0.065636 -0.044876
v 0.052378 -0.072158 -0.032381
v 0.057124 0.019017 -0.018922
v 0.092932 0.020246 -0.033041
v 0.084815 0.014624 -0.047418
v 0.049960 0.013049 -0.035381
v -0.037229 -0.080090 -0.008395
v -0.052363 0.038705 -0.018167
v -0.048580 0.044486 0.003811
v 0.103210 -0.025812 -0.034549
v 0.099224 0.003200 -0.016719
v 0.062347 0.000921 -0.000463
v -0.009940 -0.079385 -0.014141
v 0.017349 -0.078680 -0.019886
v 0.023652 -0.089824 -0.001206
v -0.003637 -0.091112 0.006098
v 0.007501 -0.033842 0.025240
v 0.034791 -0.035402 0.016462
v 0.025470 -0.001358 0.015793
v -0.001820 0.001983 0.024515
v -0.012185 0.015486 -0.017887
v 0.015104 0.011474 -0.023344
v 0.026053 -0.024922 -0.028566
v -0.001236 -0.022814 -0.023545
v 0.021316 0.017789 -0.004803
v -0.005973 0.022131 0.002201
v 0.000615 -0.072276 0.028576
v 0.027904 -0.071924 0.019542
v -0.085510 0.049549 0.007091
v -0.065389 0.074551 -0.005062
v -0.067667 0.070191 -0.027568
v -0.089292 0.043768 -0.014886
v -0.028360 0.099299 -0.033412
v -0.010218 0.080574 -0.030427
v -0.041798 0.043492 -0.023312
v -0.039519 0.047852 -0.000805
v -0.026762 0.098907 -0.017627
v -0.008620 0.083633 -0.014642
vn -0.0064 0.7436 0.6686
vn -0.6984 0.6369 0.3265
vn -0.1641 -0.9219 0.3509
vn -0.3215 -0.6893 0.6492
vn 0.4841 0.0460 0.8738
vn 0.3925 0.1739 0.9031
vn 0.3650 -0.1199 -0.9233
vn 0.0049 -0.3606 -0.9327
vn 0.1024 0.0445 0.9938
vn 0.1013 0.0457 0.9938
vn 0.1085 0.0374 0.9934
vn 0.1094 0.0363 0.9933
vn -0.1236 0.1157 -0.9856
vn -0.1118 0.1400 -0.9838
vn 0.0175 0.7513 0.6597
vn 0.0168 0.7520 0.6589
vn 0.0204 0.7485 0.6628
vn 0.0211 0.7479 0.6635
vn 0.1274 -0.7470 0.6525
vn 0.1623 -0.7780 0.6069
vn 0.1451 -0.7635 0.6293
vn 0.1126 -0.7331 0.6708
vn 0.2923 0.3135 -0.9035
vn 0.2898 0.3089 -0.9059
vn 0.2898 0.3091 -0.9058
vn 0.2924 0.3137 -0.9034
vn 0.3941 0.1593 0.9052
vn 0.4894 0.0995 0.8664
vn -0.2833 -0.8294 -0.4815
vn -0.5322 -0.8398 -0.1078
vn -0.7352 0.6758 -0.0523
vn -0.6682 0.7437 0.0205
vn 0.3755 -0.7348 0.5648
vn 0.3750 -0.7343 0.5658
vn 0.3761 -0.7362 0.5626
vn 0.3751 -0.7381 0.5609
vn 0.4141 0.0114 0.9102
vn 0.4100 0.0134 0.9120
vn 0.4164 0.0050 0.9092
vn 0.4129 -0.0001 0.9108
vn -0.3177 -0.1066 -0.9422
vn -0.3225 -0.1094 -0.9402
vn -0.3218 -0.1091 -0.9405
vn -0.3219 -0.1042 -0.9410
vn -0.1445 0.9472 -0.2861
vn -0.1459 0.9465 -0.2877
vn -0.1415 0.9484 -0.2837
vn -0.1401 0.9502 -0.2785
vn 0.0511 -0.8220 -0.5672
vn 0.0204 -0.8680 -0.4961
vn 0.0333 -0.8497 -0.5261
vn 0.0635 -0.8010 -0.5953
vn 0.8349 0.4796 -0.2699
vn 0.7564 0.5273 -0.3872
vn -0.0983 -0.1533 -0.9833
vn -0.0781 -0.1363 -0.9876
vn 0.0863 0.0738 0.9935
vn 0.1008 0.0553 0.9934
vn 0.9086 0.3332 -0.2519
vn 0.8176 0.2001 -0.5399
vn 0.7723 -0.2264 -0.5936
vn 0.8738 -0.1712 -0.4553
vn 0.9625 -0.1647 -0.2155
vn 0.9275 -0.2174 -0.3040
vn 0.9367 0.2180 -0.2740
vn 0.9538 0.2944 -0.0602
vn 0.2440 0.7162 0.6539
vn 0.2303 0.7267 0.6472
vn 0.2380 0.7264 0.6448
vn 0.2314 0.7266 0.6469
vn -0.3283 0.0606 -0.9426
vn -0.3384 0.0443 -0.9400
vn -0.3299 0.0474 -0.9428
vn -0.3365 0.0450 -0.9406
vn 0.4048 0.1051 0.9083
vn 0.3948 0.1147 0.9116
vn 0.3979 0.1247 0.9089
vn 0.3954 0.1150 0.9113
vn -0.0404 -0.8348 -0.5490
vn -0.0430 -0.8517 -0.5222
vn -0.0808 -0.8677 -0.4904
vn -0.0870 -0.8735 -0.4790
vn -0.0798 -0.8766 -0.4745
vn -0.0859 -0.8734 -0.4793
vn 0.3134 0.1015 0.9442
vn 0.3099 0.1034 0.9451
vn 0.3102 0.1032 0.9450
vn 0.3105 0.0994 0.9454
vn -0.1833 0.0854 -0.9793
vn -0.1730 0.0954 -0.9803
vn -0.1802 0.0965 -0.9789
vn -0.1750 0.0946 -0.9800
vn 0.2876 0.7297 0.6204
vn 0.2755 0.7384 0.6155
vn 0.2844 0.7373 0.6128
vn 0.2770 0.7382 0.6150
vn 0.0657 0.9384 -0.3393
vn 0.0619 0.9383 -0.3403
vn 0.0709 0.9399 -0.3339
vn 0.0695 0.9429 -0.3258
vn -0.1974 -0.1297 -0.9717
vn -0.1890 -0.1266 -0.9738
vn -0.1911 -0.1273 -0.9733
vn -0.1929 -0.1329 -0.9722
vn 0.3087 0.0240 0.9509
vn 0.3140 0.0208 0.9492
vn 0.3135 0.0214 0.9494
vn 0.3126 0.0289 0.9494
vn 0.2008 -0.7617 0.6160
vn 0.2100 -0.7686 0.6043
vn 0.2003 -0.7693 0.6067
vn 0.2085 -0.7687 0.6046
vn -0.7877 0.6148 -0.0394
vn -0.7805 0.6244 -0.0299
vn -0.1211 -0.2630 -0.9572
vn -0.0817 -0.3352 -0.9386
vn 0.1341 0.3872 0.9122
vn 0.0897 0.2904 0.9527
vn -0.9053 0.4223 0.0447
vn -0.8947 0.4423 0.0617
vn -0.0176 -0.1740 -0.9846
vn -0.1677 -0.3116 -0.9353
vn -0.1487 -0.5530 -0.8198
vn 0.2860 0.4148 0.8638
vn 0.1300 0.3468 0.9289
vn 0.4590 -0.8798 0.1239
vn 0.4158 -0.8946 0.1638
vn 0.6992 0.7067 -0.1084
vn 0.6498 0.7312 -0.2075
vn 0.6784 0.7187 -0.1526
vn 0.7215 0.6901 -0.0559
vn 0.1192 0.2837 0.9515
vn 0.0888 0.2916 0.9524
vn 0.1063 0.2871 0.9520
vn 0.1326 0.2801 0.9508
vn 0.7649 -0.6424 0.0470
vn 0.7649 -0.6424 0.0471
vn -0.5859 0.8082 -0.0598
vn -0.5148 0.8542 0.0733
vn -0.5425 0.8397 0.0244
vn -0.6014 0.7935 -0.0928
vn -0.9850 -0.0151 0.1717
vn -0.9808 0.0264 0.1931
vn -0.9776 -0.0775 0.1956
vn -0.9941 0.0419 0.0998
vn -0.9883 -0.0168 0.1516
vn -0.9910 -0.1158 0.0678
vn -0.0297 -0.8496 -0.5267
vn -0.0332 -0.8632 -0.5038
vn 0.4027 0.1178 0.9077
vn 0.3937 0.1257 0.9106
vn -0.3280 0.0481 -0.9435
vn -0.3375 0.0335 -0.9407
vn 0.2392 0.7263 0.6444
vn 0.2264 0.7357 0.6383
vn -0.1428 0.9491 -0.2808
vn -0.1387 0.9507 -0.2773
vn -0.3181 -0.1012 -0.9426
vn -0.3176 -0.1008 -0.9429
vn 0.4114 0.0054 0.9114
vn 0.4171 -0.0020 0.9089
vn 0.3746 -0.7369 0.5627
vn 0.3757 -0.7384 0.5600
vn 0.1988 -0.7694 0.6071
vn 0.2075 -0.7752 0.5967
vn 0.3084 0.0318 0.9507
vn 0.3077 0.0322 0.9509
vn -0.1987 -0.1354 -0.9707
vn -0.2008 -0.1360 -0.9701
vn 0.0652 0.9414 -0.3309
vn 0.0736 0.9428 -0.3251
vn 0.2860 0.7371 0.6123
vn 0.2746 0.7449 0.6081
vn -0.1731 0.1005 -0.9798
vn -0.1725 0.1015 -0.9798
vn 0.3134 0.0975 0.9446
vn 0.3138 0.0974 0.9445
vn -0.0791 -0.8732 -0.4808
vn -0.0847 -0.8779 -0.4713
usemtl Material.001
s 1
f 1//1 2//1 3//1
f 3//2 4//2 1//2
f 5//3 6//3 7//3
f 7//4 8//4 5//4
f 6//5 5//5 9//5
f 9//6 10//6 6//6
f 11//7 12//7 13//7
f 13//8 14//8 11//8
f 9//9 15//10 16//11
f 16//11 2//12 9//9
f 17//13 18//13 19//13
f 19//14 12//14 17//14
f 2//15 16//16 20//17
f 20//17 3//18 2//15
f 8//19 21//20 22//21
f 22//21 5//22 8//19
f 23//23 17//24 12//25
f 12//25 11//26 23//23
f 10//27 9//27 2//27
f 2//28 1//28 10//28
f 14//29 13//29 8//29
f 8//30 7//30 14//30
f 4//31 3//31 17//31
f 17//32 23//32 4//32
f 24//33 25//34 26//35
f 26//35 27//36 24//33
f 27//37 26//38 28//39
f 28//39 29//40 27//37
f 30//41 31//42 32//43
f 32//43 33//44 30//41
f 34//45 35//46 36//47
f 36//47 37//48 34//45
f 13//49 38//50 21//51
f 21//51 8//52 13//49
f 18//53 39//53 40//53
f 40//54 20//54 18//54
f 12//55 19//55 38//55
f 38//56 13//56 12//56
f 5//57 22//57 15//57
f 15//58 9//58 5//58
f 41//59 31//59 36//59
f 36//60 35//60 41//60
f 25//61 32//61 31//61
f 31//62 41//62 25//62
f 26//63 25//63 41//63
f 41//64 28//64 26//64
f 28//65 41//65 35//65
f 35//66 42//66 28//66
f 43//67 42//67 35//67
f 35//68 34//69 43//70
f 37//71 36//71 31//71
f 31//72 30//73 37//74
f 29//75 28//75 42//75
f 42//76 43//77 29//78
f 33//79 32//79 25//79
f 25//80 24//80 33//80
f 44//81 45//81 46//81
f 46//82 47//83 44//84
f 48//85 49//86 50//87
f 50//87 51//88 48//85
f 52//89 53//89 54//89
f 54//90 55//91 52//92
f 51//93 50//93 56//93
f 56//94 57//95 51//96
f 57//97 56//98 53//99
f 53//99 52//100 57//97
f 55//101 54//102 45//103
f 45//103 44//104 55//101
f 58//105 59//106 49//107
f 49//107 48//108 58//105
f 47//109 46//109 59//109
f 59//110 58//111 47//112
f 60//113 61//113 62//113
f 62//114 63//114 60//114
f 17//115 63//115 39//115
f 39//116 18//116 17//116
f 20//117 40//117 60//117
f 60//118 3//118 20//118
f 3//119 60//119 63//119
f 63//120 17//120 3//120
f 62//121 64//121 65//121
f 65//121 66//121 62//121
f 63//122 62//122 66//122
f 66//123 39//123 63//123
f 40//124 67//124 61//124
f 61//125 60//125 40//125
f 39//126 66//126 67//126
f 67//127 40//127 39//127
f 68//128 69//129 65//130
f 65//130 64//131 68//128
f 67//132 69//133 68//134
f 68//134 61//135 67//132
f 66//136 65//137 69//136
f 69//136 67//136 66//136
f 61//138 68//139 64//140
f 64//140 62//141 61//138
f 10//142 4//142 7//142
f 7//143 11//143 14//143
f 11//144 4//144 23//144
f 10//145 7//145 6//145
f 4//146 11//146 7//146
f 10//147 1//147 4//147
f 45//148 33//148 24//148
f 24//149 46//149 45//149
f 49//150 29//78 43//77
f 43//77 50//151 49//150
f 53//152 37//74 30//73
f 30//153 54//153 53//153
f 50//154 43//70 34//69
f 34//155 56//155 50//155
f 56//156 34//45 37//48
f 37//48 53//157 56//156
f 54//158 30//41 33//44
f 33//44 45//159 54//158
f 59//160 27//37 29//40
f 29//40 49//161 59//160
f 46//162 24//33 27//36
f 27//36 59//163 46//162
f 21//164 47//112 58//111
f 58//165 22//165 21//165
f 22//166 58//105 48//108
f 48//108 15//167 22//166
f 19//168 55//101 44//104
f 44//104 38//169 19//168
f 20//170 57//97 52//100
f 52//100 18//171 20//170
f 16//172 51//96 57//95
f 57//173 20//173 16//173
f 18//174 52//92 55//91
f 55//91 19//175 18//174
f 15//176 48//85 51//88
f 51//88 16//177 15//176
f 38//178 44//84 47//83
f 47//83 21//179 38//178
