# Blender 3.4.1
# www.blender.org
mtllib GreenOnionLeafCollider.mtl
o leek
v -0.043524 -0.005535 0.218588
v -0.043524 0.005535 0.218588
v -0.005535 -0.043524 0.195106
v 0.005535 -0.043524 0.195106
v 0.043524 -0.005535 0.218588
v 0.043524 0.005535 0.218588
v 0.007330 0.016251 0.000480
v -0.007330 0.016251 0.000480
v -0.005535 0.071036 0.174776
v 0.005535 0.071036 0.174776
v -0.005535 -0.071910 0.147978
v -0.007330 -0.017125 -0.000173
v 0.007330 -0.017125 -0.000173
v 0.005535 -0.071910 0.147978
v -0.071420 -0.005535 0.148244
v -0.071420 0.005535 0.148244
v -0.016635 -0.007330 0.000092
v -0.016635 0.007330 0.000092
v 0.016984 -0.007330 -0.000097
v 0.071769 -0.005535 0.148055
v 0.016984 0.007330 -0.000097
v 0.071769 0.005535 0.148055
v 0.045524 -0.005535 0.217829
v 0.045524 0.005535 0.217829
v -0.046734 -0.005535 0.217370
v -0.046734 0.005535 0.217370
v -0.005535 -0.045914 0.194060
v 0.005535 -0.045914 0.194060
v 0.000000 -0.005535 0.218588
v 0.000000 0.005535 0.218588
vn 0.6870 -0.6840 -0.2452
vn 0.6395 0.7349 -0.2259
vn -0.3548 -0.0000 0.9349
vn 0.7299 0.6260 0.2745
vn -0.0000 -0.4009 0.9161
vn -0.6908 -0.6802 -0.2452
vn 0.3548 -0.0000 0.9349
vn -0.0000 0.5560 0.8312
vn -0.6432 0.7316 -0.2259
vn -0.7314 0.6299 0.2612
vn 0.2729 0.6392 0.7190
vn 0.0684 -0.5642 0.8228
vn -0.1184 -0.5945 0.7953
vn -0.6406 -0.7081 0.2970
vn 0.6407 -0.7053 0.3034
vn -0.0048 0.0167 -0.9998
vn -0.9379 -0.0000 -0.3468
vn -0.0000 -0.9379 -0.3468
vn 0.9379 -0.0000 -0.3468
vn -0.0000 0.9540 -0.2999
vn -0.9417 -0.0000 0.3363
vn 0.9360 -0.0000 0.3521
vn -0.0000 -0.8710 0.4913
vn -0.0000 -0.0000 1.0000
vn -0.0000 -0.5258 0.8506
vn -0.2729 0.6392 0.7190
vt -0.435827 26.980150
vt 0.435827 26.980150
vt 0.435827 23.891550
vt -0.435827 23.891550
vt 0.435827 26.980150
vt -0.435827 26.980150
vt 0.000000 0.000000
vt 0.577198 16.328779
vt 0.000000 0.000000
vt -0.577198 16.328779
vt -0.435827 23.212910
vt 0.435827 23.212910
vt 0.435827 20.418680
vt 0.000000 0.000000
vt 0.577198 16.325109
vt 0.000000 0.000000
vt -0.577198 16.325109
vt -0.435827 20.418680
vt -0.435827 20.418680
vt 0.435827 20.418680
vt 0.000000 0.000000
vt -0.577198 16.325109
vt 0.000000 0.000000
vt 0.577198 16.325109
vt 0.000000 0.000000
vt 0.577198 16.325109
vt 0.435827 20.418680
vt 0.000000 0.000000
vt -0.577198 16.325109
vt -0.435827 20.418680
vt 0.435827 26.980150
vt -0.435827 26.980150
vt -0.435827 26.980150
vt 0.435827 26.980150
vt 0.435827 23.891550
vt -0.435827 23.891550
vt 0.000000 26.980150
vt 0.000000 0.000000
vt 0.000000 0.000000
vt 0.000000 26.980150
s 0
usemtl green
f 19/26/1 20/27/1 14/18/1 13/17/1
f 1/1/3 2/2/3 26/34/3 25/33/3
f 4/4/5 3/3/5 27/35/5 28/36/5
f 15/19/6 17/22/6 12/14/6 11/13/6
f 6/6/7 5/5/7 23/31/7 24/32/7
f 16/20/9 9/11/9 8/9/9 18/24/9
f 9/11/10 16/20/10 26/34/10
f 5/5/12 4/4/12 28/36/12 23/31/12
f 27/35/13 3/3/13 1/1/13 25/33/13
f 11/13/14 27/35/14 25/33/14 15/19/14
f 23/31/15 28/36/15 14/18/15 20/27/15
f 21/28/16 19/25/16 13/16/16 12/14/16 17/21/16 18/23/16 8/9/16 7/7/16
f 18/24/17 17/22/17 15/19/17 16/20/17
f 13/17/18 14/18/18 11/13/18 12/15/18
f 21/29/19 22/30/19 20/27/19 19/26/19
f 7/8/20 8/10/20 9/11/20 10/12/20
f 16/20/21 15/19/21 25/33/21 26/34/21
f 22/30/22 24/32/22 23/31/22 20/27/22
f 27/35/23 11/13/23 14/18/23 28/36/23
f 30/40/24 29/37/24 5/5/24 6/6/24
f 2/2/24 1/1/24 29/37/24 30/40/24
f 29/38/25 3/3/25 4/4/25
f 26/34/26 2/2/26 9/11/26
f 5/5/25 29/38/25 4/4/25
f 29/38/25 1/1/25 3/3/25
usemtl greenDark
f 22/30/2 21/29/2 7/7/2 10/12/2
f 22/30/4 10/12/4 24/32/4
f 6/6/8 10/12/8 30/39/8
f 2/2/8 30/39/8 9/11/8
f 9/11/8 30/39/8 10/12/8
f 6/6/11 24/32/11 10/12/11
