# Blender 3.4.1
# www.blender.org
mtllib GreenOnionRoot.mtl
o leek.001
v 0.013450 -0.007330 0.206950
v 0.013450 0.007330 0.206950
v 0.007330 0.013450 0.206950
v -0.007330 0.013450 0.206950
v -0.007330 -0.013450 0.206950
v 0.007330 -0.013450 0.206950
v -0.013450 -0.007330 0.206950
v -0.013450 0.007330 0.206950
v -0.008425 0.015458 0.076538
v 0.008425 0.015458 0.076538
v -0.008425 -0.015458 0.076538
v -0.015458 -0.008425 0.076538
v -0.015458 0.008425 0.076538
v 0.015458 0.008425 0.076538
v 0.015458 -0.008425 0.076538
v 0.008425 -0.015458 0.076538
v -0.011540 -0.021175 0.016401
v -0.009232 -0.016940 -0.000000
v -0.021175 -0.011540 0.016401
v -0.016940 -0.009232 -0.000000
v 0.009232 -0.016940 -0.000000
v 0.011540 -0.021175 0.016401
v 0.021175 -0.011540 0.016401
v 0.021175 0.011540 0.016401
v 0.016940 -0.009232 -0.000000
v 0.016940 0.009232 0.000000
v -0.016940 0.009232 0.000000
v -0.009232 0.016940 0.000000
v -0.021175 0.011540 0.016401
v -0.011540 0.021175 0.016401
v 0.009232 0.016940 0.000000
v 0.011540 0.021175 0.016401
vn -0.0000 0.9999 0.0154
vn -0.7070 -0.7070 0.0168
vn -0.9999 -0.0000 0.0154
vn -0.7070 0.7070 0.0168
vn 0.7070 0.7070 0.0168
vn 0.9999 -0.0000 0.0154
vn -0.0000 -0.9999 0.0154
vn 0.7070 -0.7070 0.0168
vn -0.6805 -0.6805 -0.2715
vn -0.0000 -0.9682 -0.2500
vn 0.9682 -0.0000 -0.2500
vn -0.6805 0.6805 -0.2715
vn -0.0000 0.9682 -0.2500
vn -0.0000 -0.0000 -1.0000
vn -0.0000 0.9955 0.0946
vn -0.7033 -0.7033 0.1033
vn -0.9682 -0.0000 -0.2500
vn -0.7033 0.7033 0.1033
vn 0.9955 -0.0000 0.0946
vn 0.6805 0.6805 -0.2715
vn -0.9955 -0.0000 0.0946
vn 0.6805 -0.6805 -0.2715
vn 0.7033 -0.7033 0.1033
vn 0.7033 0.7033 0.1033
vn -0.0000 -0.9955 0.0946
vn -0.0000 -0.0000 1.0000
vt -0.386636 21.812420
vt 0.386636 21.812420
vt 0.871654 28.851250
vt 0.386636 21.812420
vt 0.386636 21.812420
vt 0.871654 28.851250
vt -0.386636 21.812420
vt -0.386636 21.812420
vt 0.871654 28.851250
vt 0.871654 28.851250
vt -0.386636 21.812420
vt 0.386636 21.812420
vt -0.386636 21.812420
vt 0.871654 28.851250
vt 0.871654 28.851250
vt -0.386636 21.812420
vt 0.386636 21.812420
vt 0.386636 21.812420
vt 0.386636 21.812420
vt 0.871654 23.447029
vt -0.577198 16.325109
vt -0.386636 21.812420
vt 0.871654 28.851250
vt 0.386636 21.812420
vt 0.577198 16.325109
vt 0.709422 -0.386636
vt 0.386636 0.709422
vt 0.386636 21.812420
vt -0.386636 21.812420
vt 0.871654 28.851250
vt 0.871654 23.447029
vt -0.577198 16.325109
vt 0.709422 0.386636
vt -0.386636 21.812420
vt 0.871654 28.851250
vt 0.386636 21.812420
vt 0.577198 16.325109
vt 0.871654 23.447029
vt -0.577198 16.325109
vt -0.386636 21.812420
vt 0.871654 28.851250
vt 0.577198 16.325109
vt 0.871654 28.851250
vt -0.386636 21.812420
vt 0.577198 16.325109
vt 0.709422 0.386636
vt 0.386636 21.812420
vt 0.871654 28.851250
vt -0.386636 21.812420
vt -0.577198 16.325109
vt 0.871654 23.447029
vt 0.577198 16.325109
vt 0.386636 21.812420
vt -0.577198 16.325109
vt 0.871654 23.447029
vt 0.386636 0.709422
vt 0.709422 -0.386636
vt -0.435827 26.980150
vt 0.577198 16.325109
vt 0.709422 -0.386636
vt 0.386636 0.709422
vt 0.435827 26.980150
vt -1.307480 24.889299
vt 0.577198 16.325109
vt 0.871654 23.447029
vt -1.307480 24.889299
vt 0.435827 26.980150
vt -0.577198 16.325109
vt 0.871654 23.447029
vt 0.577198 16.325109
vt -0.435827 26.980150
vt -0.577198 16.325109
vt 0.871654 23.447029
vt -0.435827 26.980150
vt 0.577198 16.325109
vt 0.871654 23.447029
vt -0.577198 16.325109
vt -1.307480 24.889299
vt 0.435827 26.980150
vt 0.577198 16.325109
vt 0.709422 0.386636
vt -0.435827 26.980150
vt 0.577198 16.325109
vt 0.871654 23.447029
vt -0.577198 16.325109
vt 0.435827 26.980150
vt -1.307480 24.889299
vt -0.577198 16.325109
vt 0.871654 23.447029
vt 0.386636 0.709422
vt 0.709422 -0.386636
vt -1.307480 24.889299
vt 0.435827 26.980150
vt 0.577198 16.325109
vt -0.435827 26.980150
vt -0.577198 16.325109
vt 0.577198 16.325109
vt -0.435827 26.980150
vt 0.577198 16.325109
vt 0.435827 26.980150
vt -1.307480 24.889299
vt -0.435827 26.980150
vt 0.871654 23.447029
vt -0.577198 16.325109
vt -1.307480 24.889299
vt 0.435827 26.980150
vt -0.577198 16.325109
vt 0.871654 23.447029
vt -0.435827 26.980150
vt -1.307480 24.889299
vt 0.435827 26.980150
vt 0.577198 16.325109
vt 0.435827 26.980150
vt -1.307480 24.889299
vt 0.577198 16.325109
vt 0.871654 23.447029
vt -0.577198 16.325109
vt -0.435827 26.980150
vt -0.577198 16.325109
vt 0.871654 23.447029
vt 0.577198 16.325109
vt 0.709422 0.386636
s 0
usemtl _defaultMat.009
f 4/9/1 10/22/1 9/19/1
f 10/23/1 4/8/1 3/5/1
f 5/10/2 12/34/2 11/28/2
f 12/35/2 5/11/2 7/17/2
f 7/15/3 13/40/3 12/36/3
f 13/41/3 7/16/3 8/18/3
f 4/9/4 13/40/4 8/18/4
f 13/41/4 4/8/4 9/19/4
f 14/43/5 3/7/5 2/4/5
f 3/6/5 14/44/5 10/24/5
f 14/43/6 1/1/6 15/47/6
f 1/3/6 14/44/6 2/4/6
f 6/14/7 11/29/7 16/53/7
f 11/30/7 6/13/7 5/12/7
f 15/48/8 6/13/8 16/53/8
f 6/14/8 15/49/8 1/2/8
f 19/66/9 18/62/9 17/58/9
f 18/63/9 19/67/9 20/71/9
f 22/78/10 18/62/10 21/74/10
f 18/63/10 22/79/10 17/58/10
f 25/92/11 24/86/11 23/82/11
f 24/87/11 25/93/11 26/95/11
f 29/105/12 28/100/12 27/98/12
f 28/101/12 29/106/12 30/109/12
f 30/110/13 31/113/13 28/102/13
f 31/114/13 30/111/13 32/118/13
f 28/103/14 20/72/14 27/99/14
f 20/73/14 28/104/14 18/64/14
f 18/65/14 28/104/14 31/115/14
f 18/65/14 31/117/14 21/75/14
f 21/76/14 31/117/14 26/97/14
f 21/76/14 26/96/14 25/94/14
f 9/20/15 32/119/15 30/112/15
f 32/120/15 9/21/15 10/25/15
f 11/31/16 19/68/16 17/59/16
f 19/69/16 11/32/16 12/37/16
f 29/108/17 20/72/17 19/70/17
f 20/73/17 29/107/17 27/99/17
f 9/20/18 29/107/18 13/42/18
f 29/108/18 9/21/18 30/112/18
f 24/89/19 15/50/19 23/83/19
f 15/51/19 24/88/19 14/45/19
f 31/116/20 24/88/20 26/97/20
f 24/89/20 31/117/20 32/121/20
f 12/38/21 29/107/21 19/70/21
f 29/108/21 12/39/21 13/42/21
f 21/76/22 23/85/22 22/80/22
f 23/84/22 21/77/22 25/94/22
f 23/84/23 16/54/23 22/80/23
f 16/55/23 23/85/23 15/52/23
f 24/90/24 10/26/24 14/46/24
f 10/27/24 24/91/24 32/122/24
f 16/56/25 17/60/25 22/81/25
f 17/61/25 16/57/25 11/33/25
f 3/7/26 4/9/26 8/18/26 7/17/26 5/12/26 6/14/26 1/3/26 2/4/26
