# Blender 3.4.1
# www.blender.org
mtllib GreenOnionSlice.mtl
o leek.003
v 0.013450 -0.007330 0.003074
v 0.013450 0.007330 0.003074
v 0.007330 0.013450 0.003074
v -0.007330 0.013450 0.003074
v -0.007330 -0.013450 0.003074
v 0.007330 -0.013450 0.003074
v -0.013450 -0.007330 0.003074
v -0.013450 0.007330 0.003074
v 0.007330 0.013450 -0.003074
v -0.007330 0.013450 -0.003074
v -0.007330 -0.013450 -0.003074
v 0.007330 -0.013450 -0.003074
v -0.013450 -0.007330 -0.003074
v 0.013450 -0.007330 -0.003074
v 0.013450 0.007330 -0.003074
v -0.013450 0.007330 -0.003074
vn -0.0000 -0.0000 1.0000
vn -0.0000 -0.0000 -1.0000
vn -0.0000 1.0000 -0.0000
vn 0.7071 0.7071 -0.0000
vn -0.7071 0.7071 -0.0000
vn 1.0000 -0.0000 -0.0000
vn -0.0000 -1.0000 -0.0000
vn -1.0000 -0.0000 -0.0000
vn 0.7071 -0.7071 -0.0000
vn -0.7071 -0.7071 -0.0000
vt 0.871654 28.851250
vt 0.386636 21.812420
vt -0.386636 21.812420
vt 0.871654 28.851250
vt 0.386636 21.812420
vt 0.871654 28.851250
vt 0.386636 21.812420
vt 0.386636 21.812420
vt -0.386636 21.812420
vt 0.871654 28.851250
vt 0.386636 21.812420
vt 0.871654 28.851250
vt 0.386636 21.812420
vt 0.871654 28.851250
vt 0.386636 21.812420
vt 0.386636 21.812420
s 0
usemtl _defaultMat.009
f 3/3/1 4/4/1 8/8/1 7/7/1 5/5/1 6/6/1 1/1/1 2/2/1
f 9/9/2 15/15/2 14/14/2 12/12/2 11/11/2 13/13/2 16/16/2 10/10/2
f 3/3/3 9/9/3 10/10/3 4/4/3
f 2/2/4 15/15/4 9/9/4 3/3/4
f 4/4/5 10/10/5 16/16/5 8/8/5
f 1/1/6 14/14/6 15/15/6 2/2/6
f 5/5/7 11/11/7 12/12/7 6/6/7
f 8/8/8 16/16/8 13/13/8 7/7/8
f 6/6/9 12/12/9 14/14/9 1/1/9
f 7/7/10 13/13/10 11/11/10 5/5/10
