# Blender 3.4.1
# www.blender.org
mtllib GreenCabbageOuter.mtl
o cabbage.004
v 0.111870 -0.088765 0.087100
v 0.020938 -0.141265 0.087100
v 0.088726 -0.090679 0.135659
v 0.034167 -0.122179 0.135659
v 0.000000 -0.063000 0.000000
v 0.054559 -0.031500 0.000000
v 0.000000 -0.074824 -0.008971
v 0.064799 -0.037412 -0.008971
v 0.021899 -0.147757 0.087352
v 0.117011 -0.092844 0.087352
v 0.092804 -0.094846 0.138144
v 0.035737 -0.127793 0.138144
v 0.132807 -0.052500 0.081402
v 0.122893 -0.031500 0.126785
v 0.132807 0.052500 0.081402
v 0.122893 0.031500 0.126785
v 0.054559 0.031500 0.000000
v 0.054559 -0.031500 0.000000
v 0.138912 0.054913 0.081392
v 0.064799 0.037412 -0.008971
v 0.128541 0.032948 0.128861
v 0.064799 -0.037412 -0.008971
v 0.138912 -0.054913 0.081392
v 0.128541 -0.032948 0.128861
v 0.000000 -0.063000 0.000000
v -0.054559 -0.031500 0.000000
v 0.000000 0.063000 0.000000
v 0.054559 0.031500 0.000000
v 0.054559 -0.031500 0.000000
v -0.054559 0.031500 0.000000
v 0.064799 0.037412 -0.008971
v 0.000000 -0.074824 -0.008971
v -0.064799 -0.037412 -0.008971
v 0.000000 0.074824 -0.008971
v -0.064799 0.037412 -0.008971
v 0.064799 -0.037412 -0.008971
v -0.020938 -0.141265 0.072447
v -0.111870 -0.088765 0.072447
v -0.034167 -0.122179 0.112839
v -0.088726 -0.090679 0.112839
v 0.000000 -0.063000 0.000000
v -0.054559 -0.031500 0.000000
v -0.035737 -0.127793 0.114274
v -0.092804 -0.094846 0.114274
v -0.021899 -0.147757 0.072026
v 0.000000 -0.074824 -0.008971
v -0.064799 -0.037412 -0.008971
v -0.117011 -0.092844 0.072026
v -0.132807 -0.052500 0.081402
v -0.132807 0.052500 0.081402
v -0.122893 -0.031500 0.126785
v -0.122893 0.031500 0.126785
v -0.054559 -0.031500 0.000000
v -0.054559 0.031500 0.000000
v -0.138912 0.054913 0.081392
v -0.128541 -0.032948 0.128861
v -0.128541 0.032948 0.128861
v -0.064799 -0.037412 -0.008971
v -0.064799 0.037412 -0.008971
v -0.138912 -0.054913 0.081392
v -0.111870 0.088765 0.088728
v -0.020938 0.141265 0.088728
v -0.088726 0.090679 0.138195
v -0.034167 0.122179 0.138195
v 0.000000 0.063000 0.000000
v -0.054559 0.031500 0.000000
v 0.000000 0.074824 -0.008971
v -0.064799 0.037412 -0.008971
v -0.117011 0.092844 0.089055
v -0.021899 0.147757 0.089055
v -0.092804 0.094846 0.140796
v -0.035737 0.127793 0.140796
v 0.020938 0.141265 0.067563
v 0.111870 0.088765 0.067563
v 0.034167 0.122179 0.105231
v 0.088726 0.090679 0.105231
v 0.000000 0.063000 0.000000
v 0.054559 0.031500 0.000000
v 0.064799 0.037412 -0.008971
v 0.021899 0.147757 0.066918
v 0.117011 0.092844 0.066918
v 0.035737 0.127793 0.106317
v 0.000000 0.074824 -0.008971
v 0.092804 0.094846 0.106317
vn -0.4899 0.8485 -0.2000
vn -0.3719 0.6442 0.6683
vn 0.4899 -0.8485 0.2000
vn 0.3963 -0.6864 -0.6098
vn 0.5822 0.7528 0.3071
vn -0.2013 0.3487 0.9154
vn -0.9430 -0.1278 0.3071
vn 0.5923 0.7944 0.1344
vn -0.9841 -0.1157 0.1345
vn -0.9770 -0.0000 -0.2134
vn -0.7209 -0.0000 0.6930
vn 0.9770 -0.0000 0.2134
vn 0.7732 -0.0000 -0.6342
vn -0.3465 0.8779 0.3305
vn -0.3465 -0.8779 0.3305
vn -0.3450 -0.0000 0.9386
vn -0.3875 -0.9112 0.1395
vn -0.3875 0.9112 0.1395
vn -0.0000 -0.0000 -1.0000
vn -0.0000 -0.0000 1.0000
vn 0.4856 0.8411 -0.2384
vn 0.3397 0.5884 0.7338
vn -0.4856 -0.8411 0.2384
vn -0.3689 -0.6389 -0.6751
vn 0.1231 0.2133 0.9692
vn 0.9807 -0.1275 0.1482
vn 0.9134 -0.1596 0.3746
vn -0.5949 0.7112 0.3746
vn -0.6008 0.7856 0.1481
vn 0.9770 -0.0000 -0.2134
vn 0.7209 -0.0000 0.6930
vn -0.9770 -0.0000 0.2134
vn -0.7732 -0.0000 -0.6342
vn 0.3450 -0.0000 0.9386
vn 0.3875 0.9112 0.1395
vn 0.3465 -0.8779 0.3305
vn 0.3875 -0.9112 0.1395
vn 0.3465 0.8779 0.3305
vn 0.4903 -0.8491 -0.1965
vn 0.3750 -0.6495 0.6614
vn -0.4903 0.8491 0.1965
vn -0.3988 0.6908 -0.6031
vn 0.9845 0.1145 0.1331
vn -0.5809 -0.7563 0.3010
vn 0.2091 -0.3622 0.9083
vn 0.9454 0.1249 0.3010
vn -0.5914 -0.7953 0.1331
vn -0.4835 -0.8375 -0.2545
vn -0.3268 -0.5660 0.7569
vn 0.4835 0.8375 0.2545
vn 0.4835 0.8375 0.2546
vn 0.3577 0.6196 -0.6987
vn -0.8985 0.1732 0.4033
vn 0.5993 -0.6915 0.4033
vn -0.9793 0.1319 0.1534
vn -0.0944 -0.1635 0.9820
vn 0.6040 -0.7821 0.1533
vt 2.952756 3.305503
vt 2.952756 8.635981
vt -2.952756 3.305503
vt -2.952756 8.635981
vt 1.771654 6.093000
vt -1.771654 6.093000
vt -1.771654 2.050728
vt 1.771654 2.050728
vt -1.771654 2.050728
vt 1.771654 2.050728
vt -2.952756 3.305503
vt -2.952756 8.635981
vt 2.952756 3.305503
vt 2.952756 8.635981
vt 1.771654 6.093000
vt -1.771654 6.093000
vt -2.952756 2.878573
vt -2.952756 8.477011
vt -1.771654 5.491253
vt 2.952756 2.878573
vt 2.952756 8.477011
vt 1.771654 5.491253
vt 1.771654 2.126548
vt -1.771654 2.126548
vt 2.952756 2.878573
vt 2.952756 8.477011
vt 1.771654 2.126548
vt 1.771654 5.491253
vt -1.771654 2.126548
vt -2.952756 2.878573
vt -2.952756 8.477011
vt -1.771654 5.491253
vt 0.000000 0.000000
vt 0.000000 0.000000
vt 0.000000 0.000000
vt 0.000000 0.000000
vt 0.000000 0.000000
vt 0.000000 0.000000
vt 0.000000 0.000000
vt 0.000000 0.000000
vt 0.000000 0.000000
vt 0.000000 0.000000
vt 0.000000 0.000000
vt 0.000000 0.000000
vt 2.952756 8.249234
vt 2.952756 2.176559
vt -2.952756 2.176559
vt -2.952756 8.249234
vt 1.771654 4.515703
vt -1.771654 4.515703
vt 1.771654 2.251677
vt -1.771654 2.251677
vt 1.771654 4.515703
vt -1.771654 4.515703
vt 2.952756 8.249234
vt 2.952756 2.176559
vt 1.771654 2.251677
vt -1.771654 2.251677
vt -2.952756 2.176559
vt -2.952756 8.249234
vt 2.952756 2.878573
vt 2.952756 8.477011
vt -2.952756 8.477011
vt -2.952756 2.878573
vt 1.771654 5.491253
vt -1.771654 5.491253
vt 1.771654 2.126548
vt -1.771654 2.126548
vt -2.952756 8.477011
vt -2.952756 2.878573
vt 1.771654 5.491253
vt -1.771654 5.491253
vt 1.771654 2.126548
vt -1.771654 2.126548
vt 2.952756 2.878573
vt 2.952756 8.477011
vt 2.952756 3.425127
vt 2.952756 8.683296
vt -2.952756 8.683296
vt -2.952756 3.425127
vt 1.771654 6.262661
vt -1.771654 6.262661
vt -1.771654 2.029648
vt 1.771654 2.029648
vt -1.771654 2.029648
vt 1.771654 2.029648
vt 2.952756 3.425127
vt 2.952756 8.683296
vt -2.952756 8.683296
vt -2.952756 3.425127
vt 1.771654 6.262661
vt -1.771654 6.262661
vt 2.952756 1.773530
vt 2.952756 8.137023
vt -2.952756 1.773530
vt -2.952756 8.137023
vt 1.771654 3.964245
vt -1.771654 3.964245
vt 1.771654 2.322596
vt -1.771654 2.322596
vt -1.771654 2.322596
vt 2.952756 1.773530
vt 2.952756 8.137023
vt -2.952756 1.773530
vt -2.952756 8.137023
vt 1.771654 3.964245
vt 1.771654 2.322596
vt -1.771654 3.964245
s 0
usemtl green.009
f 1/1/1 2/3/1 3/5/1
f 4/6/1 3/5/1 2/3/1
f 5/7/2 2/4/2 6/8/2
f 1/2/2 6/8/2 2/4/2
f 10/13/3 11/15/3 9/11/3
f 12/16/3 9/11/3 11/15/3
f 7/9/4 8/10/4 9/12/4
f 10/14/4 9/12/4 8/10/4
f 3/5/5 11/15/5 10/13/5 1/1/5
f 4/6/6 12/16/6 11/15/6 3/5/6
f 2/3/7 9/11/7 12/16/7 4/6/7
f 1/2/8 10/14/8 8/10/8 6/8/8
f 5/7/9 7/9/9 9/12/9 2/4/9
f 13/17/10 14/19/10 15/20/10
f 16/22/10 15/20/10 14/19/10
f 13/18/11 15/21/11 18/24/11
f 17/23/11 18/24/11 15/21/11
f 23/30/12 19/25/12 24/32/12
f 21/28/12 24/32/12 19/25/12
f 23/31/13 22/29/13 19/26/13
f 20/27/13 19/26/13 22/29/13
f 16/22/14 21/28/14 19/25/14 15/20/14
f 13/17/15 23/30/15 24/32/15 14/19/15
f 14/19/16 24/32/16 21/28/16 16/22/16
f 18/24/17 22/29/17 23/31/17 13/18/17
f 15/21/18 19/26/18 20/27/18 17/23/18
f 32/40/19 33/41/19 35/43/19 34/42/19 31/39/19 36/44/19
f 30/38/20 26/34/20 25/33/20 29/37/20 28/36/20 27/35/20
f 37/46/21 38/47/21 39/49/21
f 40/50/21 39/49/21 38/47/21
f 38/48/22 37/45/22 42/52/22
f 41/51/22 42/52/22 37/45/22
f 45/56/23 43/53/23 48/59/23
f 44/54/23 48/59/23 43/53/23
f 48/60/24 47/58/24 45/55/24
f 46/57/24 45/55/24 47/58/24
f 40/50/25 44/54/25 43/53/25 39/49/25
f 37/45/26 45/55/26 46/57/26 41/51/26
f 39/49/27 43/53/27 45/56/27 37/46/27
f 38/47/28 48/59/28 44/54/28 40/50/28
f 42/52/29 47/58/29 48/60/29 38/48/29
f 49/61/30 50/64/30 51/65/30
f 52/66/30 51/65/30 50/64/30
f 49/62/31 53/67/31 50/63/31
f 54/68/31 50/63/31 53/67/31
f 60/75/32 56/71/32 55/70/32
f 57/72/32 55/70/32 56/71/32
f 60/76/33 55/69/33 58/73/33
f 59/74/33 58/73/33 55/69/33
f 52/66/34 57/72/34 56/71/34 51/65/34
f 54/68/35 59/74/35 55/69/35 50/63/35
f 51/65/36 56/71/36 60/75/36 49/61/36
f 49/62/37 60/76/37 58/73/37 53/67/37
f 50/64/38 55/70/38 57/72/38 52/66/38
f 61/77/39 62/80/39 63/81/39
f 64/82/39 63/81/39 62/80/39
f 61/78/40 66/84/40 62/79/40
f 65/83/40 62/79/40 66/84/40
f 69/87/41 71/91/41 70/90/41
f 72/92/41 70/90/41 71/91/41
f 69/88/42 70/89/42 68/86/42
f 67/85/42 68/86/42 70/89/42
f 65/83/43 67/85/43 70/89/43 62/79/43
f 63/81/44 71/91/44 69/87/44 61/77/44
f 64/82/45 72/92/45 71/91/45 63/81/45
f 62/80/46 70/90/46 72/92/46 64/82/46
f 61/78/47 69/88/47 68/86/47 66/84/47
f 73/93/48 74/95/48 75/97/48
f 76/98/48 75/97/48 74/95/48
f 77/99/49 78/100/49 73/94/49
f 74/96/49 73/94/49 78/100/49
f 80/102/50 82/106/50 81/104/50
f 84/108/51 81/104/51 82/106/51
f 83/107/52 80/103/52 79/101/52
f 81/105/52 79/101/52 80/103/52
f 75/97/53 82/106/53 80/102/53 73/93/53
f 74/95/54 81/104/54 84/108/54 76/98/54
f 73/94/55 80/103/55 83/107/55 77/99/55
f 76/98/56 84/108/56 82/106/56 75/97/56
f 78/100/57 79/101/57 81/105/57 74/96/57
