# Blender 3.4.1
# www.blender.org
mtllib GreenCabbageMiddleCollider.mtl
o cabbage
v -0.108528 -0.059500 0.087914
v 0.057824 -0.033385 -0.006974
v 0.087304 -0.058535 0.186007
v 0.002899 -0.131142 0.092722
v 0.112123 -0.068082 0.092722
v 0.105792 -0.064238 0.094067
v 0.002736 -0.123738 0.094067
v 0.082375 -0.055231 0.182086
v 0.006644 -0.098954 0.182086
v 0.041280 -0.071499 0.211226
v -0.115022 -0.063060 0.086200
v 0.000000 -0.063000 0.000000
v -0.054559 -0.031500 0.000000
v 0.054559 -0.031500 0.000000
v 0.007041 -0.104875 0.186007
v 0.000000 -0.066769 -0.006974
v -0.057824 -0.033385 -0.006974
v 0.043750 -0.075777 0.216891
vn -0.4882 0.8455 -0.2164
vn 0.4882 -0.8455 0.2164
vn 0.0867 0.8128 0.5760
vn 0.4337 -0.7512 -0.4976
vn -0.4337 0.7512 0.4976
vn -0.7473 0.3313 0.5761
vn -0.4528 0.7843 -0.4240
vn 0.4779 -0.8783 0.0137
vn -0.9996 -0.0245 0.0132
vn -0.9981 -0.0318 0.0533
vn 0.5265 0.8485 0.0533
vn 0.5210 0.8534 0.0132
vt 0.000000 0.000000
vt 1.771654 1.527040
vt 0.000000 0.000000
vt 2.459123 8.914949
vt -3.346457 7.626560
vt 0.000000 0.000000
vt -3.346457 3.844400
vt 3.346457 7.626560
vt 3.346457 3.844400
vt 0.000000 0.000000
vt 3.346457 7.626560
vt 3.346457 3.844400
vt 0.000000 0.000000
vt -3.346457 3.844400
vt -3.346457 7.626560
vt 0.000000 0.000000
vt 2.459123 8.914949
vt -2.459123 8.914949
vt -0.000000 10.593650
vt 0.000000 0.000000
vt -1.771654 1.527040
vt 0.000000 0.000000
vt 0.000000 0.000000
vt 1.771654 1.527040
vt 0.000000 0.000000
vt -2.459123 8.914949
vt -1.771654 1.527040
vt 0.000000 0.000000
vt 0.000000 0.000000
vt -0.000000 10.593650
s 0
usemtl Material.010
f 8/17/1 6/12/1 7/14/1 9/18/1 10/19/1
f 4/7/2 5/9/2 3/4/2 18/30/2 15/26/2
f 10/19/3 18/30/3 3/4/3 8/17/3
f 2/2/4 5/8/4 4/5/4 16/27/4
f 6/11/5 14/24/5 12/21/5 7/15/5
f 9/18/6 15/26/6 18/30/6 10/19/6
f 14/24/7 2/2/7 16/27/7 12/21/7
f 1/1/8 11/20/8 17/29/8 13/23/8
f 4/6/9 7/16/9 12/22/9 16/28/9
f 9/18/10 7/16/10 4/7/10 15/26/10
f 8/17/11 3/4/11 5/9/11 6/12/11
f 6/13/12 5/10/12 2/3/12 14/25/12
o cabbage.002
v -0.002736 -0.123738 0.078243
v -0.105792 -0.064238 0.078243
v -0.006644 -0.098954 0.151455
v -0.082375 -0.055231 0.151455
v -0.041280 -0.071499 0.175692
v -0.043750 -0.075777 0.179232
v -0.087304 -0.058535 0.153543
v -0.007041 -0.104875 0.153543
v 0.000000 -0.063000 0.000000
v -0.054559 -0.031500 0.000000
v 0.000000 -0.066769 -0.006974
v -0.057824 -0.033385 -0.006974
v -0.002899 -0.131142 0.075951
v -0.112123 -0.068082 0.075951
vn 0.4116 0.7129 0.5678
vn 0.4831 0.8368 -0.2575
vn 0.4528 0.7843 -0.4240
vn -0.4116 -0.7129 -0.5678
vn -0.1530 0.6808 0.7163
vn -0.4831 -0.8368 0.2575
vn 0.6661 0.2079 0.7163
vn -0.5228 0.8524 0.0143
vn -0.5356 0.8417 0.0678
vn 0.9968 -0.0430 0.0678
vn 0.9995 -0.0265 0.0143
vt 3.346457 7.088217
vt 3.346457 2.680520
vt 0.000000 0.000000
vt -3.346457 7.088217
vt -3.346457 2.680520
vt 0.000000 0.000000
vt 2.459123 6.941836
vt -2.459123 6.941836
vt 0.000000 8.352628
vt 0.000000 8.352628
vt -2.459123 6.941836
vt 2.459123 6.941836
vt 1.771654 1.742306
vt 0.000000 0.000000
vt -1.771654 1.742306
vt 0.000000 0.000000
vt 1.771654 1.742306
vt 0.000000 0.000000
vt -1.771654 1.742306
vt 0.000000 0.000000
vt 3.346457 7.088217
vt 3.346457 2.680520
vt 0.000000 0.000000
vt -3.346457 7.088217
vt 0.000000 0.000000
vt -3.346457 2.680520
s 0
usemtl Material.010
f 19/31/13 27/43/13 28/45/13 20/34/13
f 21/37/14 19/32/14 20/35/14 22/38/14 23/39/14
f 27/43/15 29/47/15 30/49/15 28/45/15
f 29/47/16 31/51/16 32/54/16 30/49/16
f 22/38/17 25/41/17 24/40/17 23/39/17
f 32/56/18 31/52/18 26/42/18 24/40/18 25/41/18
f 23/39/19 24/40/19 26/42/19 21/37/19
f 32/55/20 20/36/20 28/46/20 30/50/20
f 22/38/21 20/36/21 32/56/21 25/41/21
f 26/42/22 31/52/22 19/32/22 21/37/22
f 19/33/23 31/53/23 29/48/23 27/44/23
o cabbage.003
v -0.094345 0.046339 0.173382
v -0.087500 0.000000 0.202245
v -0.057824 0.033385 -0.006974
v -0.108528 -0.059500 0.087914
v -0.108528 0.059500 0.087914
v -0.089019 -0.043723 0.170173
v -0.082559 0.000000 0.197408
v -0.089019 0.043723 0.170173
v -0.094345 -0.046339 0.173382
v -0.115022 0.063060 0.086200
v -0.115022 -0.063060 0.086200
v -0.054559 -0.031500 0.000000
v -0.054559 0.031500 0.000000
v -0.057824 -0.033385 -0.006974
vn 0.4779 0.8783 0.0137
vn 0.9730 -0.0000 -0.2308
vn 0.6135 0.4808 0.6265
vn 0.8522 -0.0000 0.5232
vn 0.9057 -0.0000 -0.4240
vn -0.9730 -0.0000 0.2308
vn 0.6135 -0.4808 0.6265
vn -0.8522 -0.0000 -0.5232
vn 0.4681 0.8818 0.0581
vn 0.4681 -0.8818 0.0581
vt -2.459123 8.157380
vt 0.000000 9.731576
vt 0.000000 0.000000
vt -1.771654 1.605384
vt 3.346457 7.407244
vt 3.346457 3.402499
vt -3.346457 3.402499
vt -3.346457 7.407244
vt 0.000000 0.000000
vt 2.459123 8.157380
vt 0.000000 9.731576
vt -2.459123 8.157380
vt 2.459123 8.157380
vt 0.000000 0.000000
vt -3.346457 7.407244
vt -3.346457 3.402499
vt 3.346457 7.407244
vt 3.346457 3.402499
vt 1.771654 1.605384
vt 0.000000 0.000000
vt -1.771654 1.605384
vt 1.771654 1.605384
s 0
usemtl Material.010
f 42/70/24 37/65/24 45/76/24 35/59/24
f 39/67/25 38/66/25 36/62/25 37/63/25 40/68/25
f 40/68/26 33/57/26 34/58/26 39/67/26
f 37/64/27 36/61/27 44/75/27 45/77/27
f 44/75/28 46/78/28 35/60/28 45/77/28
f 34/58/29 33/57/29 42/72/29 43/74/29 41/69/29
f 39/67/30 34/58/30 41/69/30 38/66/30
f 43/73/31 42/71/31 35/60/31 46/78/31
f 40/68/32 37/65/32 42/72/32 33/57/32
f 38/66/33 41/69/33 43/74/33 36/62/33
o cabbage.004
v -0.057824 0.033385 -0.006974
v -0.043750 0.075777 0.221075
v -0.007041 0.104875 0.189615
v 0.000000 0.066769 -0.006974
v -0.112123 0.068082 0.094585
v -0.105792 0.064238 0.095826
v -0.002736 0.123738 0.095826
v -0.082375 0.055231 0.185489
v -0.006644 0.098954 0.185489
v -0.041280 0.071499 0.215174
v 0.000000 0.063000 0.000000
v -0.054559 0.031500 0.000000
v -0.002899 0.131142 0.094585
v -0.087304 0.058535 0.189615
vn -0.5257 -0.8491 0.0520
vn -0.5209 -0.8535 0.0131
vn 0.9996 0.0243 0.0131
vn 0.4886 -0.8462 -0.2126
vn -0.0807 -0.8227 0.5627
vn -0.4357 0.7546 -0.4907
vn 0.4357 -0.7546 0.4907
vn 0.9982 0.0308 0.0520
vn 0.4528 -0.7843 -0.4240
vn -0.4886 0.8462 0.2126
vn 0.7529 -0.3414 0.5627
vt 0.000000 0.000000
vt 1.771654 1.505816
vt 0.000000 10.838120
vt 0.000000 0.000000
vt -2.459123 9.129490
vt 0.000000 0.000000
vt -1.771654 1.505816
vt 0.000000 0.000000
vt 3.346457 3.968564
vt 3.346457 7.691308
vt 0.000000 0.000000
vt 3.346457 7.691308
vt 3.346457 3.968564
vt -3.346457 7.691308
vt 0.000000 0.000000
vt -3.346457 3.968564
vt 2.459123 9.129490
vt 0.000000 0.000000
vt -2.459123 9.129490
vt 0.000000 10.838120
vt 0.000000 0.000000
vt -1.771654 1.505816
vt 0.000000 0.000000
vt 1.771654 1.505816
vt -3.346457 3.968564
vt -3.346457 7.691308
vt 0.000000 0.000000
vt 2.459123 9.129490
s 0
usemtl Material.010
f 60/106/34 51/87/34 52/91/34 54/95/34
f 52/89/35 51/86/35 47/79/35 58/101/35
f 59/105/36 53/93/36 57/99/36 50/84/36
f 51/87/37 59/103/37 49/83/37 48/81/37 60/106/37
f 56/98/38 48/81/38 60/106/38 54/95/38
f 47/80/39 51/88/39 59/104/39 50/85/39
f 52/90/40 58/102/40 57/100/40 53/92/40
f 53/93/41 59/105/41 49/82/41 55/96/41
f 58/102/42 47/80/42 50/85/42 57/100/42
f 54/95/43 56/98/43 55/97/43 53/94/43 52/91/43
f 55/97/44 49/83/44 48/81/44 56/98/44
o cabbage.005
v 0.057824 0.033385 -0.006974
v 0.000000 0.066769 -0.006974
v 0.002736 0.123738 0.072968
v 0.105792 0.064238 0.072968
v 0.006644 0.098954 0.141244
v 0.082375 0.055231 0.141244
v 0.041280 0.071499 0.163848
v 0.087304 0.058535 0.142722
v 0.007041 0.104875 0.142722
v 0.112123 0.068082 0.070360
v 0.000000 0.063000 0.000000
v 0.054559 0.031500 0.000000
v 0.043750 0.075777 0.166678
v 0.002899 0.131142 0.070360
vn 0.5234 -0.8520 0.0147
vn 0.5398 -0.8385 0.0745
vn -0.9960 0.0483 0.0745
vn -0.4020 -0.6963 0.5946
vn 0.4020 0.6963 -0.5946
vn -0.4528 -0.7843 -0.4240
vn -0.9995 0.0273 0.0147
vn -0.4808 -0.8327 -0.2747
vn -0.6211 -0.1502 0.7692
vn 0.4808 0.8327 0.2747
vn 0.1804 -0.6130 0.7692
vt 0.000000 0.000000
vt -1.771654 1.824714
vt 1.771654 1.824714
vt 0.000000 0.000000
vt 3.346457 6.929193
vt 0.000000 0.000000
vt 3.346457 2.268994
vt 0.000000 0.000000
vt -3.346457 6.929193
vt -3.346457 2.268994
vt 0.000000 0.000000
vt 2.459123 6.262718
vt -2.459123 6.262718
vt 0.000000 7.584918
vt -2.459123 6.262718
vt 0.000000 0.000000
vt 2.459123 6.262718
vt 0.000000 0.000000
vt -3.346457 6.929193
vt -3.346457 2.268994
vt 1.771654 1.824714
vt 0.000000 0.000000
vt 0.000000 0.000000
vt -1.771654 1.824714
vt 0.000000 7.584918
vt 3.346457 6.929193
vt 0.000000 0.000000
vt 3.346457 2.268994
s 0
usemtl Material.010
f 70/124/45 64/114/45 72/129/45 61/107/45
f 66/119/46 64/116/46 70/124/46 68/121/46
f 74/133/47 63/112/47 65/117/47 69/122/47
f 63/111/48 71/127/48 72/130/48 64/115/48
f 62/109/49 74/132/49 70/125/49 61/108/49
f 71/127/50 62/109/50 61/108/50 72/130/50
f 63/112/51 74/133/51 62/110/51 71/128/51
f 66/119/52 67/120/52 65/118/52 63/113/52 64/116/52
f 67/120/53 73/131/53 69/123/53 65/118/53
f 74/134/54 69/123/54 73/131/54 68/121/54 70/126/54
f 66/119/55 68/121/55 73/131/55 67/120/55
o cabbage.006
v 0.115022 -0.063060 0.086200
v 0.108528 -0.059500 0.087914
v 0.089019 -0.043723 0.170173
v 0.108528 0.059500 0.087914
v 0.082559 0.000000 0.197408
v 0.089019 0.043723 0.170173
v 0.057824 -0.033385 -0.006974
v 0.057824 0.033385 -0.006974
v 0.094345 0.046339 0.173382
v 0.087500 0.000000 0.202245
v 0.054559 0.031500 0.000000
v 0.054559 -0.031500 0.000000
v 0.094345 -0.046339 0.173382
v 0.115022 0.063060 0.086200
vn -0.6135 0.4808 0.6265
vn 0.8522 -0.0000 -0.5232
vn -0.9730 -0.0000 -0.2308
vn -0.8522 -0.0000 0.5232
vn -0.6135 -0.4808 0.6265
vn -0.4779 0.8783 0.0137
vn -0.9057 -0.0000 -0.4240
vn 0.9730 -0.0000 0.2308
vn -0.4681 -0.8818 0.0581
vn -0.4779 -0.8783 0.0137
vn -0.4681 0.8818 0.0581
vt -3.346457 7.407244
vt -3.346457 3.402499
vt 0.000000 0.000000
vt -3.346457 7.407244
vt -3.346457 3.402499
vt 0.000000 0.000000
vt -2.459123 8.157380
vt 3.346457 3.402499
vt 3.346457 7.407244
vt 0.000000 0.000000
vt -0.000000 9.731576
vt 2.459123 8.157380
vt -1.771654 1.605384
vt 0.000000 0.000000
vt 1.771654 1.605384
vt 2.459123 8.157380
vt -0.000000 9.731576
vt -1.771654 1.824714
vt 1.771654 1.605384
vt -1.771654 1.605384
vt 0.000000 0.000000
vt -2.459123 8.157380
vt 3.346457 7.407244
vt 3.346457 3.402499
s 0
usemtl Material.010
f 79/145/56 84/151/56 83/150/56 80/146/56
f 75/135/57 81/147/57 82/149/57 88/157/57
f 78/142/58 76/139/58 77/141/58 79/145/58 80/146/58
f 86/154/59 76/138/59 78/143/59 85/153/59
f 77/141/60 87/156/60 84/151/60 79/145/60
f 78/144/61 88/158/61 82/149/61 85/152/61
f 85/153/62 82/149/62 81/147/62 86/154/62
f 75/136/63 88/158/63 83/150/63 84/151/63 87/156/63
f 77/141/64 76/139/64 75/136/64 87/156/64
f 75/137/65 76/140/65 86/155/65 81/148/65
f 80/146/66 83/150/66 88/158/66 78/144/66
