# Blender 3.4.1
# www.blender.org
mtllib GreenCabbageOuterCollider.mtl
o cabbage.002
v 0.132807 -0.052500 0.081402
v 0.122893 -0.031500 0.126785
v 0.132807 0.052500 0.081402
v 0.122893 0.031500 0.126785
v 0.054559 0.031500 0.000000
v 0.054559 -0.031500 0.000000
v 0.138912 0.054913 0.081392
v 0.064799 0.037412 -0.008971
v 0.128541 0.032948 0.128861
v 0.064799 -0.037412 -0.008971
v 0.138912 -0.054913 0.081392
v 0.128541 -0.032948 0.128861
vn -0.9770 -0.0000 -0.2134
vn -0.7209 -0.0000 0.6930
vn 0.9770 -0.0000 0.2134
vn 0.7732 -0.0000 -0.6342
vn -0.3465 0.8779 0.3305
vn -0.3465 -0.8779 0.3305
vn -0.3450 -0.0000 0.9386
vn -0.6590 -0.0000 -0.7522
vn -0.3875 -0.9112 0.1395
vn -0.3875 0.9112 0.1395
vt -2.952756 2.878573
vt -2.952756 8.477011
vt -1.771654 5.491253
vt 2.952756 2.878573
vt 2.952756 8.477011
vt 1.771654 5.491253
vt 1.771654 2.126548
vt -1.771654 2.126548
vt 2.952756 2.878573
vt 2.952756 8.477011
vt 1.771654 2.126548
vt 1.771654 5.491253
vt -1.771654 2.126548
vt -2.952756 2.878573
vt -2.952756 8.477011
vt -1.771654 5.491253
s 0
usemtl green.011
f 1/1/1 2/3/1 3/4/1
f 4/6/1 3/4/1 2/3/1
f 1/2/2 3/5/2 6/8/2
f 5/7/2 6/8/2 3/5/2
f 11/14/3 7/9/3 12/16/3
f 9/12/3 12/16/3 7/9/3
f 11/15/4 10/13/4 7/10/4
f 8/11/4 7/10/4 10/13/4
f 4/6/5 9/12/5 7/9/5 3/4/5
f 1/1/6 11/14/6 12/16/6 2/3/6
f 2/3/7 12/16/7 9/12/7 4/6/7
f 5/7/8 8/11/8 10/13/8 6/8/8
f 6/8/9 10/13/9 11/15/9 1/2/9
f 3/5/10 7/10/10 8/11/10 5/7/10
o cabbage.003
v 0.000000 -0.063000 0.000000
v -0.054559 -0.031500 0.000000
v 0.000000 0.063000 0.000000
v 0.054559 0.031500 0.000000
v 0.054559 -0.031500 0.000000
v -0.054559 0.031500 0.000000
v 0.064799 0.037412 -0.008971
v 0.000000 -0.074824 -0.008971
v -0.064799 -0.037412 -0.008971
v 0.000000 0.074824 -0.008971
v -0.064799 0.037412 -0.008971
v 0.064799 -0.037412 -0.008971
vn -0.0000 -0.0000 -1.0000
vn -0.0000 -0.0000 1.0000
vn 0.3295 0.5707 0.7522
vn -0.3295 0.5707 0.7522
vn -0.6590 -0.0000 0.7522
vn -0.3295 -0.5707 0.7522
vn 0.3295 -0.5707 0.7522
vn 0.6590 -0.0000 0.7522
vt 0.000000 0.000000
vt 0.000000 0.000000
vt 0.000000 0.000000
vt 0.000000 0.000000
vt 0.000000 0.000000
vt 0.000000 0.000000
vt 0.000000 0.000000
vt 0.000000 0.000000
vt 0.000000 0.000000
vt 0.000000 0.000000
vt 0.000000 0.000000
vt 0.000000 0.000000
s 0
usemtl green.011
f 20/24/11 21/25/11 23/27/11 22/26/11 19/23/11 24/28/11
f 18/22/12 14/18/12 13/17/12 17/21/12 16/20/12 15/19/12
f 15/19/13 16/20/13 19/23/13 22/26/13
f 23/27/14 18/22/14 15/19/14 22/26/14
f 18/22/15 23/27/15 21/25/15 14/18/15
f 21/25/16 20/24/16 13/17/16 14/18/16
f 17/21/17 13/17/17 20/24/17 24/28/17
f 17/21/18 24/28/18 19/23/18 16/20/18
o cabbage.004
v 0.111870 -0.088765 0.087100
v 0.020938 -0.141265 0.087100
v 0.088726 -0.090679 0.135659
v 0.034167 -0.122179 0.135659
v 0.000000 -0.063000 0.000000
v 0.054559 -0.031500 0.000000
v 0.000000 -0.074824 -0.008971
v 0.064799 -0.037412 -0.008971
v 0.021899 -0.147757 0.087352
v 0.117011 -0.092844 0.087352
v 0.092804 -0.094846 0.138144
v 0.035737 -0.127793 0.138144
vn -0.4899 0.8485 -0.2000
vn -0.3719 0.6442 0.6683
vn 0.4899 -0.8485 0.2000
vn 0.3963 -0.6864 -0.6098
vn 0.5822 0.7528 0.3071
vn -0.2013 0.3487 0.9154
vn -0.9430 -0.1278 0.3071
vn 0.5923 0.7944 0.1344
vn -0.3295 0.5707 -0.7522
vn -0.9841 -0.1157 0.1345
vt 2.952756 3.305503
vt 2.952756 8.635981
vt -2.952756 3.305503
vt -2.952756 8.635981
vt 1.771654 6.093000
vt -1.771654 6.093000
vt -1.771654 2.050728
vt 1.771654 2.050728
vt -1.771654 2.050728
vt 1.771654 2.050728
vt -2.952756 3.305503
vt -2.952756 8.635981
vt 2.952756 3.305503
vt 2.952756 8.635981
vt 1.771654 6.093000
vt -1.771654 6.093000
s 0
usemtl green.011
f 25/29/19 26/31/19 27/33/19
f 28/34/19 27/33/19 26/31/19
f 29/35/20 26/32/20 30/36/20
f 25/30/20 30/36/20 26/32/20
f 34/41/21 35/43/21 33/39/21
f 36/44/21 33/39/21 35/43/21
f 31/37/22 32/38/22 33/40/22
f 34/42/22 33/40/22 32/38/22
f 27/33/23 35/43/23 34/41/23 25/29/23
f 28/34/24 36/44/24 35/43/24 27/33/24
f 26/31/25 33/39/25 36/44/25 28/34/25
f 25/30/26 34/42/26 32/38/26 30/36/26
f 30/36/27 32/38/27 31/37/27 29/35/27
f 29/35/28 31/37/28 33/40/28 26/32/28
o cabbage.005
v -0.020938 -0.141265 0.072447
v -0.111870 -0.088765 0.072447
v -0.034167 -0.122179 0.112839
v -0.088726 -0.090679 0.112839
v 0.000000 -0.063000 0.000000
v -0.054559 -0.031500 0.000000
v -0.035737 -0.127793 0.114274
v -0.092804 -0.094846 0.114274
v -0.021899 -0.147757 0.072026
v 0.000000 -0.074824 -0.008971
v -0.064799 -0.037412 -0.008971
v -0.117011 -0.092844 0.072026
vn 0.4856 0.8411 -0.2384
vn 0.3397 0.5884 0.7338
vn -0.4856 -0.8411 0.2384
vn -0.3689 -0.6389 -0.6751
vn 0.1231 0.2133 0.9692
vn 0.9807 -0.1275 0.1482
vn 0.9134 -0.1596 0.3746
vn -0.5949 0.7112 0.3746
vn -0.6008 0.7856 0.1481
vn 0.3295 0.5707 -0.7522
vt 2.952756 8.249234
vt 2.952756 2.176559
vt -2.952756 2.176559
vt -2.952756 8.249234
vt 1.771654 4.515703
vt -1.771654 4.515703
vt 1.771654 2.251677
vt -1.771654 2.251677
vt 1.771654 4.515703
vt -1.771654 4.515703
vt 2.952756 8.249234
vt 2.952756 2.176559
vt 1.771654 2.251677
vt -1.771654 2.251677
vt -2.952756 2.176559
vt -2.952756 8.249234
s 0
usemtl green.011
f 37/46/29 38/47/29 39/49/29
f 40/50/29 39/49/29 38/47/29
f 38/48/30 37/45/30 42/52/30
f 41/51/30 42/52/30 37/45/30
f 45/56/31 43/53/31 48/59/31
f 44/54/31 48/59/31 43/53/31
f 48/60/32 47/58/32 45/55/32
f 46/57/32 45/55/32 47/58/32
f 40/50/33 44/54/33 43/53/33 39/49/33
f 37/45/34 45/55/34 46/57/34 41/51/34
f 39/49/35 43/53/35 45/56/35 37/46/35
f 38/47/36 48/59/36 44/54/36 40/50/36
f 42/52/37 47/58/37 48/60/37 38/48/37
f 41/51/38 46/57/38 47/58/38 42/52/38
o cabbage.006
v -0.132807 -0.052500 0.081402
v -0.132807 0.052500 0.081402
v -0.122893 -0.031500 0.126785
v -0.122893 0.031500 0.126785
v -0.054559 -0.031500 0.000000
v -0.054559 0.031500 0.000000
v -0.138912 0.054913 0.081392
v -0.128541 -0.032948 0.128861
v -0.128541 0.032948 0.128861
v -0.064799 -0.037412 -0.008971
v -0.064799 0.037412 -0.008971
v -0.138912 -0.054913 0.081392
vn 0.9770 -0.0000 -0.2134
vn 0.7209 -0.0000 0.6930
vn -0.9770 -0.0000 0.2134
vn -0.7732 -0.0000 -0.6342
vn 0.3450 -0.0000 0.9386
vn 0.3875 0.9112 0.1395
vn 0.3465 -0.8779 0.3305
vn 0.6590 -0.0000 -0.7522
vn 0.3875 -0.9112 0.1395
vn 0.3465 0.8779 0.3305
vt 2.952756 2.878573
vt 2.952756 8.477011
vt -2.952756 8.477011
vt -2.952756 2.878573
vt 1.771654 5.491253
vt -1.771654 5.491253
vt 1.771654 2.126548
vt -1.771654 2.126548
vt -2.952756 8.477011
vt -2.952756 2.878573
vt 1.771654 5.491253
vt -1.771654 5.491253
vt 1.771654 2.126548
vt -1.771654 2.126548
vt 2.952756 2.878573
vt 2.952756 8.477011
s 0
usemtl green.011
f 49/61/39 50/64/39 51/65/39
f 52/66/39 51/65/39 50/64/39
f 49/62/40 53/67/40 50/63/40
f 54/68/40 50/63/40 53/67/40
f 60/75/41 56/71/41 55/70/41
f 57/72/41 55/70/41 56/71/41
f 60/76/42 55/69/42 58/73/42
f 59/74/42 58/73/42 55/69/42
f 52/66/43 57/72/43 56/71/43 51/65/43
f 54/68/44 59/74/44 55/69/44 50/63/44
f 51/65/45 56/71/45 60/75/45 49/61/45
f 53/67/46 58/73/46 59/74/46 54/68/46
f 49/62/47 60/76/47 58/73/47 53/67/47
f 50/64/48 55/70/48 57/72/48 52/66/48
o cabbage.007
v -0.111870 0.088765 0.088728
v -0.020938 0.141265 0.088728
v -0.088726 0.090679 0.138195
v -0.034167 0.122179 0.138195
v 0.000000 0.063000 0.000000
v -0.054559 0.031500 0.000000
v 0.000000 0.074824 -0.008971
v -0.064799 0.037412 -0.008971
v -0.117011 0.092844 0.089055
v -0.021899 0.147757 0.089055
v -0.092804 0.094846 0.140796
v -0.035737 0.127793 0.140796
vn 0.4903 -0.8491 -0.1965
vn 0.3750 -0.6495 0.6614
vn -0.4903 0.8491 0.1965
vn -0.3988 0.6908 -0.6031
vn 0.9845 0.1145 0.1331
vn 0.3295 -0.5707 -0.7522
vn -0.5809 -0.7563 0.3010
vn 0.2091 -0.3622 0.9083
vn 0.9454 0.1249 0.3010
vn -0.5914 -0.7953 0.1331
vt 2.952756 3.425127
vt 2.952756 8.683296
vt -2.952756 8.683296
vt -2.952756 3.425127
vt 1.771654 6.262661
vt -1.771654 6.262661
vt -1.771654 2.029648
vt 1.771654 2.029648
vt -1.771654 2.029648
vt 1.771654 2.029648
vt 2.952756 3.425127
vt 2.952756 8.683296
vt -2.952756 8.683296
vt -2.952756 3.425127
vt 1.771654 6.262661
vt -1.771654 6.262661
s 0
usemtl green.011
f 61/77/49 62/80/49 63/81/49
f 64/82/49 63/81/49 62/80/49
f 61/78/50 66/84/50 62/79/50
f 65/83/50 62/79/50 66/84/50
f 69/87/51 71/91/51 70/90/51
f 72/92/51 70/90/51 71/91/51
f 69/88/52 70/89/52 68/86/52
f 67/85/52 68/86/52 70/89/52
f 65/83/53 67/85/53 70/89/53 62/79/53
f 66/84/54 68/86/54 67/85/54 65/83/54
f 63/81/55 71/91/55 69/87/55 61/77/55
f 64/82/56 72/92/56 71/91/56 63/81/56
f 62/80/57 70/90/57 72/92/57 64/82/57
f 61/78/58 69/88/58 68/86/58 66/84/58
o cabbage.008
v 0.020938 0.141265 0.067563
v 0.111870 0.088765 0.067563
v 0.034167 0.122179 0.105231
v 0.088726 0.090679 0.105231
v 0.000000 0.063000 0.000000
v 0.054559 0.031500 0.000000
v 0.064799 0.037412 -0.008971
v 0.021899 0.147757 0.066918
v 0.117011 0.092844 0.066918
v 0.035737 0.127793 0.106317
v 0.000000 0.074824 -0.008971
v 0.092804 0.094846 0.106317
vn -0.4835 -0.8375 -0.2545
vn -0.3268 -0.5660 0.7569
vn 0.4835 0.8375 0.2545
vn 0.4835 0.8375 0.2546
vn 0.3577 0.6196 -0.6987
vn -0.8985 0.1732 0.4033
vn 0.5993 -0.6915 0.4033
vn -0.9793 0.1319 0.1534
vn -0.0944 -0.1635 0.9820
vn -0.3295 -0.5707 -0.7522
vn 0.6040 -0.7821 0.1533
vt 2.952756 1.773530
vt 2.952756 8.137023
vt -2.952756 1.773530
vt -2.952756 8.137023
vt 1.771654 3.964245
vt -1.771654 3.964245
vt 1.771654 2.322596
vt -1.771654 2.322596
vt -1.771654 2.322596
vt 2.952756 1.773530
vt 2.952756 8.137023
vt -2.952756 1.773530
vt -2.952756 8.137023
vt 1.771654 3.964245
vt 1.771654 2.322596
vt -1.771654 3.964245
s 0
usemtl green.011
f 73/93/59 74/95/59 75/97/59
f 76/98/59 75/97/59 74/95/59
f 77/99/60 78/100/60 73/94/60
f 74/96/60 73/94/60 78/100/60
f 80/102/61 82/106/61 81/104/61
f 84/108/62 81/104/62 82/106/62
f 83/107/63 80/103/63 79/101/63
f 81/105/63 79/101/63 80/103/63
f 75/97/64 82/106/64 80/102/64 73/93/64
f 74/95/65 81/104/65 84/108/65 76/98/65
f 73/94/66 80/103/66 83/107/66 77/99/66
f 76/98/67 84/108/67 82/106/67 75/97/67
f 77/99/68 83/107/68 79/101/68 78/100/68
f 78/100/69 79/101/69 81/105/69 74/96/69
