# Blender v2.78 (sub 0) OBJ File: ''
# www.blender.org
mtllib cookie.mtl
o cookie
v -0.016337 0.000879 0.004562
v -0.011882 0.005334 0.002074
v -0.016337 0.000879 0.002074
v -0.011882 0.005334 0.004562
v -0.011882 -0.003576 0.002074
v -0.007427 0.000879 0.002074
v 0.006503 -0.005394 0.002074
v 0.009653 -0.010849 0.004562
v 0.009653 -0.010849 0.002074
v 0.006133 0.013407 0.002074
v 0.010588 0.008952 0.004562
v 0.010588 0.008952 0.002074
v 0.006133 0.013407 0.004562
v 0.004197 -0.013999 0.002074
v 0.004197 -0.013999 0.004562
v 0.001047 -0.008544 0.002074
v 0.006133 0.004497 0.002074
v 0.001678 0.008952 0.002074
v -0.011441 -0.019981 0.002074
v -0.022840 -0.000237 0.002074
v 0.011357 -0.019981 0.002074
v -0.011441 0.019507 0.002074
v 0.011357 0.019507 0.002074
v 0.022757 -0.000237 0.002074
v -0.027510 -0.000237 -0.002903
v -0.012642 -0.022061 -0.007880
v -0.013776 -0.024025 -0.002903
v -0.025242 -0.000237 -0.007880
v -0.013776 0.023551 -0.002903
v -0.012642 0.021587 -0.007880
v 0.027426 -0.000237 -0.002903
v 0.013692 -0.024025 -0.002903
v 0.012558 0.021587 -0.007880
v 0.013692 0.023551 -0.002903
v 0.025158 -0.000237 -0.007880
v 0.012558 -0.022061 -0.007880
vt -1.7952 -3.1093
vt -2.5661 0.1757
vt -3.5903 0.0000
vt -1.8646 -0.5258
vt -1.1631 0.1757
vt 0.6675 -2.1673
vt 1.7952 -3.1093
vt 0.1715 -1.3081
vt 1.5267 -1.6713
vt 1.6740 1.4471
vt -1.7952 3.1093
vt -1.8646 0.8773
vt 1.7952 3.1093
vt 0.2709 1.4471
vt 0.9724 2.1486
vt 3.5903 0.0000
vt 1.0307 -0.8121
vt 0.9724 0.7456
vt -2.1628 2.1042
vt 1.9843 1.2616
vt 2.1628 2.1042
vt -1.9843 1.2616
vt -2.1628 2.1042
vt 1.9843 1.2616
vt 2.1628 2.1042
vt -1.9843 1.2616
vt 2.1628 -1.7540
vt -1.7952 -0.7442
vt -2.1628 -1.7540
vt 1.7952 -0.7442
vt 2.1628 2.1042
vt -1.9843 1.2616
vt 1.9843 1.2616
vt -2.1628 2.1042
vt 1.9843 1.2616
vt -2.1628 2.1042
vt -1.9843 1.2616
vt 2.1628 2.1042
vt 1.7952 -0.7442
vt -2.1628 -1.7540
vt 2.1628 -1.7540
vt -1.7952 -0.7442
vt 2.1628 2.1042
vt -1.9843 1.2616
vt 1.9843 1.2616
vt -2.1628 2.1042
vt 2.1628 -1.7540
vt -1.7952 -0.7442
vt -2.1628 -1.7540
vt 1.7952 -0.7442
vt 1.9843 3.4368
vt 1.9843 -3.4368
vt 3.9685 0.0000
vt -1.9843 3.4368
vt -1.9843 -3.4368
vt -3.9685 0.0000
vt 1.7952 -0.7442
vt -2.1628 -1.7540
vt 2.1628 -1.7540
vt -1.7952 -0.7442
vt 1.7952 -0.7442
vt -2.1628 -1.7540
vt 2.1628 -1.7540
vt -1.7952 -0.7442
vt -1.9843 1.2616
vt 2.1628 2.1042
vt -2.1628 2.1042
vt 1.9843 1.2616
vt -1.7952 -0.7442
vt 2.1628 -1.7540
vt 1.7952 -0.7442
vt -2.1628 -1.7540
vt 1.6903 1.9594
vt 0.6981 1.5676
vt 1.6903 1.5676
vt 0.6981 1.9594
vt -1.6903 1.4564
vt -0.6981 2.5231
vt -1.6903 2.5231
vt -0.6981 1.4564
vt -1.2186 1.5676
vt -2.2107 1.9594
vt -2.2107 1.5676
vt 1.9388 1.9594
vt 0.9467 1.5676
vt 1.9388 1.5676
vt 0.8317 1.5676
vt -0.1604 1.9594
vt -0.1604 1.5676
vt 0.8317 1.9594
vt 0.4865 1.9594
vt -0.5056 1.5676
vt 0.4865 1.5676
vt -0.5056 1.9594
vt 1.2186 1.5676
vt 2.2107 1.5676
vt 2.2107 1.9594
vt 0.5056 2.7760
vt -0.4865 1.7093
vt 0.5056 1.7093
vt -0.4865 2.7760
vt 0.1604 1.7057
vt -0.8317 2.7725
vt -0.8317 1.7057
vt 0.1604 2.7725
vt -2.2069 1.9594
vt -2.2069 1.5676
vt -1.2148 1.5676
vt 2.2069 1.9594
vt 1.2148 1.5676
vt 2.2069 1.5676
vt -1.9388 1.5676
vt -0.9467 1.5676
vt -1.9388 1.9594
vn 0.0000 -0.0000 1.0000
vn -0.8056 -0.4651 -0.3671
vn -0.8056 0.4651 -0.3671
vn 0.6721 -0.3881 0.6306
vn 0.0000 0.9302 -0.3671
vn 0.8056 0.4651 -0.3671
vn 0.0000 -0.7761 0.6306
vn 0.0000 -0.9302 -0.3671
vn 0.6721 0.3881 0.6306
vn 0.0000 0.0000 -1.0000
vn 0.0000 0.7761 0.6306
vn -0.6721 -0.3881 0.6306
vn 0.8056 -0.4651 -0.3671
vn -0.6721 0.3881 0.6306
vn -0.7071 0.7071 0.0000
vn 0.2598 -0.2598 0.9301
vn 0.8660 0.5000 0.0000
vn 0.7071 0.7071 0.0000
vn 0.5000 -0.8660 0.0000
vn -0.8660 -0.5000 0.0000
vn -0.1837 0.3182 0.9301
vn -0.2598 -0.2598 0.9301
vn 0.7071 -0.7071 0.0000
vn -0.7071 -0.7071 0.0000
usemtl brown
s 1
f 19/1/1 3/2/1 20/3/1
f 3/2/1 19/1/1 5/4/1
f 5/4/1 19/1/1 6/5/1
f 6/5/1 19/1/1 14/6/1
f 14/6/1 19/1/1 21/7/1
f 6/5/1 14/6/1 16/8/1
f 14/6/1 21/7/1 9/9/1
f 9/9/1 21/7/1 12/10/1
f 3/2/1 22/11/1 20/3/1
f 22/11/1 3/2/1 2/12/1
f 22/11/1 2/12/1 6/5/1
f 22/11/1 6/5/1 23/13/1
f 23/13/1 12/10/1 21/7/1
f 23/13/1 6/5/1 18/14/1
f 18/14/1 6/5/1 16/8/1
f 23/13/1 18/14/1 10/15/1
f 23/13/1 10/15/1 12/10/1
f 23/13/1 21/7/1 24/16/1
f 7/17/1 18/14/1 16/8/1
f 12/10/1 7/17/1 9/9/1
f 18/14/1 7/17/1 17/18/1
f 17/18/1 7/17/1 12/10/1
f 25/19/2 26/20/2 27/21/2
f 26/20/2 25/19/2 28/22/2
f 29/23/3 28/24/3 25/25/3
f 28/24/3 29/23/3 30/26/3
f 31/27/4 21/28/4 32/29/4
f 21/28/4 31/27/4 24/30/4
f 29/31/5 33/32/5 30/33/5
f 33/32/5 29/31/5 34/34/5
f 33/35/6 31/36/6 35/37/6
f 31/36/6 33/35/6 34/38/6
f 21/39/7 27/40/7 32/41/7
f 27/40/7 21/39/7 19/42/7
f 32/43/8 26/44/8 36/45/8
f 26/44/8 32/43/8 27/46/8
f 34/47/9 24/48/9 31/49/9
f 24/48/9 34/47/9 23/50/9
f 30/51/10 26/52/10 28/53/10
f 26/52/10 30/51/10 33/54/10
f 26/52/10 33/54/10 36/55/10
f 36/55/10 33/54/10 35/56/10
f 22/57/11 34/58/11 29/59/11
f 34/58/11 22/57/11 23/60/11
f 19/61/12 25/62/12 27/63/12
f 25/62/12 19/61/12 20/64/12
f 36/65/13 31/66/13 32/67/13
f 31/66/13 36/65/13 35/68/13
f 22/69/14 25/70/14 20/71/14
f 25/70/14 22/69/14 29/72/14
usemtl brownDark
f 1/73/15 2/74/15 3/75/15
f 2/74/15 1/73/15 4/76/15
f 5/77/16 4/78/16 1/79/16
f 4/78/16 5/77/16 6/80/16
f 7/81/17 8/82/17 9/83/17
f 4/84/18 6/85/18 2/86/18
f 10/87/18 11/88/18 12/89/18
f 11/88/18 10/87/18 13/90/18
f 8/91/19 14/92/19 9/93/19
f 14/92/19 8/91/19 15/94/19
f 16/95/20 14/96/20 15/97/20
f 15/98/21 7/99/21 16/100/21
f 7/99/21 15/98/21 8/101/21
f 17/102/22 13/103/22 18/104/22
f 13/103/22 17/102/22 11/105/22
f 13/106/15 10/107/15 18/108/15
f 11/109/23 17/110/23 12/111/23
f 3/112/24 5/113/24 1/114/24
