# Blender 4.1.1
# www.blender.org
mtllib flattened_dough_clump.mtl
o cookie.001
v 0.034323 -0.059943 -0.001037
v 0.049011 0.002637 -0.001037
v 0.068520 -0.000711 -0.001037
v 0.035646 -0.010728 -0.001037
v 0.022281 0.002637 -0.001037
v -0.012591 -0.041997 -0.001037
v -0.034071 -0.059943 -0.001037
v -0.003141 -0.025632 -0.001037
v -0.028959 -0.032547 -0.001037
v -0.031764 0.026856 -0.001037
v 0.034323 0.058521 -0.001037
v 0.035646 0.016002 -0.001037
v -0.034071 0.058521 -0.001037
v -0.005034 0.026856 -0.001037
v -0.018399 0.040221 -0.001037
v -0.068271 -0.000711 -0.001037
v -0.019509 -0.016182 -0.001037
v -0.018399 0.013491 -0.001037
v 0.082530 -0.000711 0.001452
v 0.037926 -0.066183 0.003940
v 0.041328 -0.072075 0.001452
v 0.075726 -0.000711 0.003940
v 0.041328 0.070653 0.001452
v 0.037926 0.064761 0.003940
v -0.082278 -0.000711 0.001452
v -0.041076 -0.072075 0.001452
v -0.037674 0.064761 0.003940
v -0.041076 0.070653 0.001452
v -0.075474 -0.000711 0.003940
v -0.037674 -0.066183 0.003940
v 0.049011 0.002637 -0.002281
v 0.035646 0.016002 -0.002281
v -0.028959 -0.032547 -0.002281
v -0.031764 0.026856 -0.002281
v -0.018399 0.040221 -0.002281
v -0.012591 -0.041997 -0.002281
vn -0.0000 -0.0000 -1.0000
vn 0.3369 -0.1945 0.9212
vn 0.3369 0.1945 0.9212
vn -0.1740 -0.1005 -0.9796
vn -0.0000 0.3891 0.9212
vn -0.3369 0.1945 0.9212
vn -0.0000 -0.2009 -0.9796
vn -0.0000 -0.3891 0.9212
vn -0.1740 0.1005 -0.9796
vn -0.0000 -0.0000 1.0000
vn -0.0000 0.2009 -0.9796
vn 0.1740 -0.1005 -0.9796
vn -0.3369 -0.1945 0.9212
vn 0.1740 0.1005 -0.9796
vn 0.7071 0.7071 -0.0000
vn -0.0464 -0.0464 -0.9978
vn -0.8660 0.5001 -0.0000
vn -0.7071 0.7071 -0.0000
vn -0.5000 -0.8660 -0.0000
vn 0.8660 -0.5001 -0.0000
vn 0.0328 0.0569 -0.9978
vn 0.0464 -0.0464 -0.9978
vn -0.7071 -0.7071 -0.0000
vn 0.7071 -0.7071 -0.0000
vt -1.795200 -3.109300
vt -2.566100 0.175700
vt -3.590300 0.000000
vt -1.864600 -0.525800
vt -1.163100 0.175700
vt 0.667500 -2.167300
vt 1.795200 -3.109300
vt 0.171500 -1.308100
vt 1.526700 -1.671300
vt 1.674000 1.447100
vt -1.795200 3.109300
vt -1.864600 0.877300
vt 1.795200 3.109300
vt 0.270900 1.447100
vt 0.972400 2.148600
vt 3.590300 0.000000
vt 1.030700 -0.812100
vt 0.972400 0.745600
vt -2.162800 2.104200
vt 1.984300 1.261600
vt 2.162800 2.104200
vt -1.984300 1.261600
vt 2.162800 -1.754000
vt -1.795200 -0.744200
vt -2.162800 -1.754000
vt 1.795200 -0.744200
vt 1.984300 3.436800
vt 1.984300 -3.436800
vt 3.968500 0.000000
vt -1.984300 3.436800
vt -1.984300 -3.436800
vt -3.968500 0.000000
vt 1.690300 1.959400
vt 0.698100 1.567600
vt 1.690300 1.567600
vt 0.698100 1.959400
vt -1.690300 1.456400
vt -0.698100 2.523100
vt -1.690300 2.523100
vt -0.698100 1.456400
vt -1.218600 1.567600
vt -2.210700 1.959400
vt -2.210700 1.567600
vt 1.938800 1.959400
vt 0.946700 1.567600
vt 1.938800 1.567600
vt 0.831700 1.567600
vt -0.160400 1.959400
vt -0.160400 1.567600
vt 0.831700 1.959400
vt 0.486500 1.959400
vt -0.505600 1.567600
vt 0.486500 1.567600
vt -0.505600 1.959400
vt 1.218600 1.567600
vt 2.210700 1.567600
vt 2.210700 1.959400
vt 0.505600 2.776000
vt -0.486500 1.709300
vt 0.505600 1.709300
vt -0.486500 2.776000
vt 0.160400 1.705700
vt -0.831700 2.772500
vt -0.831700 1.705700
vt 0.160400 2.772500
vt -2.206900 1.959400
vt -2.206900 1.567600
vt -1.214800 1.567600
vt 2.206900 1.959400
vt 1.214800 1.567600
vt 2.206900 1.567600
vt -1.938800 1.567600
vt -0.946700 1.567600
vt -1.938800 1.959400
s 1
usemtl brownDark.003
f 1/1/1 2/2/1 3/3/1
f 2/2/1 1/1/1 4/4/1
f 4/4/1 1/1/1 5/5/1
f 5/5/1 1/1/1 6/6/1
f 6/6/1 1/1/1 7/7/1
f 5/5/1 6/6/1 8/8/1
f 6/6/1 7/7/1 9/9/1
f 9/9/1 7/7/1 10/10/1
f 2/2/1 11/11/1 3/3/1
f 11/11/1 2/2/1 12/12/1
f 11/11/1 12/12/1 5/5/1
f 11/11/1 5/5/1 13/13/1
f 13/13/1 10/10/1 7/7/1
f 13/13/1 5/5/1 14/14/1
f 14/14/1 5/5/1 8/8/1
f 13/13/1 14/14/1 15/15/1
f 13/13/1 15/15/1 10/10/1
f 13/13/1 7/7/1 16/16/1
f 17/17/1 14/14/1 8/8/1
f 10/10/1 17/17/1 9/9/1
f 14/14/1 17/17/1 18/18/1
f 18/18/1 17/17/1 10/10/1
f 19/19/2 20/20/2 21/21/2
f 20/20/2 19/19/2 22/22/2
f 23/19/3 22/20/3 19/21/3
f 22/20/3 23/19/3 24/22/3
f 25/23/4 7/24/4 26/25/4
f 7/24/4 25/23/4 16/26/4
f 23/21/5 27/22/5 24/20/5
f 27/22/5 23/21/5 28/19/5
f 27/20/6 25/19/6 29/22/6
f 25/19/6 27/20/6 28/21/6
f 7/26/7 21/25/7 26/23/7
f 21/25/7 7/26/7 1/24/7
f 26/21/8 20/22/8 30/20/8
f 20/22/8 26/21/8 21/19/8
f 28/23/9 16/24/9 25/25/9
f 16/24/9 28/23/9 13/26/9
f 24/27/10 20/28/10 22/29/10
f 20/28/10 24/27/10 27/30/10
f 20/28/10 27/30/10 30/31/10
f 30/31/10 27/30/10 29/32/10
f 11/26/11 28/25/11 23/23/11
f 28/25/11 11/26/11 13/24/11
f 1/26/12 19/25/12 21/23/12
f 19/25/12 1/26/12 3/24/12
f 30/22/13 25/21/13 26/19/13
f 25/21/13 30/22/13 29/20/13
f 11/24/14 19/23/14 3/26/14
f 19/23/14 11/24/14 23/25/14
f 31/33/15 12/34/15 2/35/15
f 12/34/15 31/33/15 32/36/15
f 4/37/16 32/38/16 31/39/16
f 32/38/16 4/37/16 5/40/16
f 17/41/17 33/42/17 9/43/17
f 32/44/18 5/45/18 12/46/18
f 15/47/18 34/48/18 10/49/18
f 34/48/18 15/47/18 35/50/18
f 33/51/19 6/52/19 9/53/19
f 6/52/19 33/51/19 36/54/19
f 8/55/20 6/56/20 36/57/20
f 36/58/21 17/59/21 8/60/21
f 17/59/21 36/58/21 33/61/21
f 18/62/22 35/63/22 14/64/22
f 35/63/22 18/62/22 34/65/22
f 35/66/15 15/67/15 14/68/15
f 34/69/23 18/70/23 10/71/23
f 2/72/24 4/73/24 31/74/24
