# Blender v2.78 (sub 0) OBJ File: ''
# www.blender.org
mtllib sugar_sprinkle.mtl
o cookie
v -0.010859 0.013431 0.002074
v -0.011170 0.006598 0.002074
v -0.005408 0.002913 0.002074
v 0.000664 0.006060 0.002074
v 0.000975 0.012893 0.002074
v -0.004787 0.016578 0.002074
v -0.010859 0.013431 0.003074
v -0.004787 0.016578 0.003074
v 0.000975 0.012893 0.003074
v 0.000664 0.006060 0.003074
v -0.005408 0.002913 0.003074
v -0.011170 0.006598 0.003074
v -0.006202 -0.016120 0.002074
v -0.000129 -0.012973 0.002074
v 0.000182 -0.006140 0.002074
v -0.005580 -0.002455 0.002074
v -0.011653 -0.005602 0.002074
v -0.011963 -0.012435 0.002074
v -0.006202 -0.016120 0.003074
v -0.011963 -0.012435 0.003074
v -0.011653 -0.005602 0.003074
v -0.005580 -0.002455 0.003074
v 0.000182 -0.006140 0.003074
v -0.000129 -0.012973 0.003074
v 0.017061 0.002689 0.002074
v 0.011299 0.006374 0.002074
v 0.005227 0.003227 0.002074
v 0.004916 -0.003605 0.002074
v 0.010678 -0.007291 0.002074
v 0.016750 -0.004143 0.002074
v 0.017061 0.002689 0.003074
v 0.016750 -0.004143 0.003074
v 0.010678 -0.007291 0.003074
v 0.004916 -0.003605 0.003074
v 0.005227 0.003227 0.003074
v 0.011299 0.006374 0.003074
vt 0.0000 0.0000
vt 0.0000 0.0000
vt 0.0000 0.0000
vt 0.0000 0.0000
vt 0.0000 0.0000
vt 0.0000 0.0000
vt 0.0000 0.0000
vt 0.0000 0.0000
vt 0.0000 0.0000
vt 0.0000 0.0000
vt 0.0000 0.0000
vt 0.0000 0.0000
vt 0.0000 0.0000
vt 0.0000 0.0000
vt 0.0000 0.0000
vt 0.0000 0.0000
vt 0.0000 0.0000
vt 0.0000 0.0000
vt 0.0000 0.0000
vt 0.0000 0.0000
vt 0.0000 0.0000
vt 0.0000 0.0000
vt 0.0000 0.0000
vt 0.0000 0.0000
vt 0.0000 0.0000
vt 0.0000 0.0000
vt 0.0000 0.0000
vt 0.0000 0.0000
vt 0.0000 0.0000
vt 0.0000 0.0000
vt 0.0000 0.0000
vt 0.0000 0.0000
vt 0.0000 0.0000
vt 0.0000 0.0000
vt 0.0000 0.0000
vt 0.0000 0.0000
vn -0.0000 0.0000 -1.0000
vn -0.0000 0.0000 1.0000
vn 0.4602 -0.8878 0.0000
vn 0.9990 -0.0455 0.0000
vn -0.4602 0.8878 0.0000
vn -0.5388 -0.8424 0.0000
vn -0.9990 0.0455 0.0000
vn 0.5388 0.8424 0.0000
vn -0.4601 0.8879 0.0000
vn 0.4601 -0.8879 0.0000
vn -0.9990 0.0453 0.0000
vn -0.5389 -0.8424 0.0000
vn 0.4603 -0.8878 0.0000
usemtl Material.001
s 1
f 1/1/1 6/2/1 5/3/1 4/4/1 3/5/1 2/6/1
f 7/7/2 12/8/2 11/9/2 10/10/2 9/11/2 8/12/2
f 4/4/3 10/10/3 11/9/3 3/5/3
f 5/3/4 9/11/4 10/10/4 4/4/4
f 1/1/5 7/7/5 8/12/5 6/2/5
f 3/5/6 11/9/6 12/8/6 2/6/6
f 2/6/7 12/8/7 7/7/7 1/1/7
f 6/2/8 8/12/8 9/11/8 5/3/8
f 13/13/1 18/14/1 17/15/1 16/16/1 15/17/1 14/18/1
f 19/19/2 24/20/2 23/21/2 22/22/2 21/23/2 20/24/2
f 16/16/8 22/22/8 23/21/8 15/17/8
f 17/15/9 21/23/9 22/22/9 16/16/9
f 13/13/6 19/19/6 20/24/6 18/14/6
f 15/17/4 23/21/4 24/20/4 14/18/4
f 14/18/10 24/20/10 19/19/10 13/13/10
f 18/14/11 20/24/11 21/23/11 17/15/11
f 25/25/1 30/26/1 29/27/1 28/28/1 27/29/1 26/30/1
f 31/31/2 36/32/2 35/33/2 34/34/2 33/35/2 32/36/2
f 28/28/7 34/34/7 35/33/7 27/29/7
f 29/27/12 33/35/12 34/34/12 28/28/12
f 25/25/4 31/31/4 32/36/4 30/26/4
f 27/29/5 35/33/5 36/32/5 26/30/5
f 26/30/8 36/32/8 31/31/8 25/25/8
f 30/26/13 32/36/13 33/35/13 29/27/13
