# Blender v2.78 (sub 0) OBJ File: ''
# www.blender.org
mtllib pantry_collision.mtl
o bookcaseClosedWide.002_ID5.005
v -1.062873 0.374581 1.143577
v -1.062873 0.374581 -0.954021
v -1.062873 -0.289570 1.143577
v -1.062873 -0.289570 -0.954021
v -0.955660 0.374581 1.143577
v -0.955660 -0.289570 1.143577
v -0.955660 0.374581 -0.954021
v -0.955660 -0.289570 -0.954021
vt 0.0000 0.0000
vt 31.4961 0.0000
vt 0.0000 9.8425
vt 31.4961 9.8425
vt 0.0000 0.0000
vt 0.0000 9.8425
vt 31.4961 0.0000
vt 31.4961 9.8425
vn -1.0000 0.0000 0.0000
vn 1.0000 0.0000 0.0000
vn 0.0000 0.0000 1.0000
vn 0.0000 1.0000 0.0000
vn 0.0000 0.0000 -1.0000
vn 0.0000 -1.0000 0.0000
usemtl wood.003
s 1
f 1/1/1 2/2/1 3/3/1
f 4/4/1 3/3/1 2/2/1
f 5/5/2 6/6/2 7/7/2
f 8/8/2 7/7/2 6/6/2
f 1/1/3 3/3/3 6/6/3 5/5/3
f 2/2/4 1/1/4 5/5/4 7/7/4
f 4/4/5 2/2/5 7/7/5 8/8/5
f 3/3/6 4/4/6 8/8/6 6/6/6
o bookcaseClosedWide.002_ID5.004
v 0.956076 0.374581 1.143577
v 0.956076 0.374581 -0.954021
v 0.956076 -0.289570 1.143577
v 0.956076 -0.289570 -0.954021
v 1.063288 0.374581 1.143577
v 1.063288 -0.289570 1.143577
v 1.063288 0.374581 -0.954021
v 1.063288 -0.289570 -0.954021
vt 0.0000 0.0000
vt 31.4961 0.0000
vt 0.0000 9.8425
vt 31.4961 9.8425
vt 0.0000 0.0000
vt 0.0000 9.8425
vt 31.4961 0.0000
vt 31.4961 9.8425
vn -1.0000 0.0000 0.0000
vn 1.0000 0.0000 0.0000
vn 0.0000 0.0000 1.0000
vn 0.0000 1.0000 0.0000
vn 0.0000 0.0000 -1.0000
vn 0.0000 -1.0000 0.0000
usemtl wood.003
s 1
f 9/9/7 10/10/7 11/11/7
f 12/12/7 11/11/7 10/10/7
f 13/13/8 14/14/8 15/15/8
f 16/16/8 15/15/8 14/14/8
f 9/9/9 11/11/9 14/14/9 13/13/9
f 10/10/10 9/9/10 13/13/10 15/15/10
f 12/12/11 10/10/11 15/15/11 16/16/11
f 11/11/12 12/12/12 16/16/12 14/14/12
o bookcaseClosedWide.002_ID5.003
v -0.949292 0.380391 -0.846964
v 0.949292 0.380391 -0.846964
v -0.949292 -0.186513 -0.846964
v 0.949292 -0.186513 -0.846964
v -0.949292 0.380391 -0.768046
v -0.949292 -0.186513 -0.768046
v 0.949292 0.380391 -0.768046
v 0.949292 -0.186513 -0.768046
vt 0.0000 0.0000
vt 31.4961 0.0000
vt 0.0000 9.8425
vt 31.4961 9.8425
vt 0.0000 0.0000
vt 0.0000 9.8425
vt 31.4961 0.0000
vt 31.4961 9.8425
vn 0.0000 0.0000 -1.0000
vn 0.0000 0.0000 1.0000
vn -1.0000 0.0000 0.0000
vn 0.0000 1.0000 0.0000
vn 1.0000 0.0000 0.0000
vn 0.0000 -1.0000 0.0000
usemtl wood.003
s 1
f 17/17/13 18/18/13 19/19/13
f 20/20/13 19/19/13 18/18/13
f 21/21/14 22/22/14 23/23/14
f 24/24/14 23/23/14 22/22/14
f 17/17/15 19/19/15 22/22/15 21/21/15
f 18/18/16 17/17/16 21/21/16 23/23/16
f 20/20/17 18/18/17 23/23/17 24/24/17
f 19/19/18 20/20/18 24/24/18 22/22/18
o bookcaseClosedWide.002_ID5.002
v -0.949292 0.380391 -0.209946
v 0.949292 0.380391 -0.209946
v -0.949292 -0.186513 -0.209946
v 0.949292 -0.186513 -0.209946
v -0.949292 0.380391 -0.131029
v -0.949292 -0.186513 -0.131029
v 0.949292 0.380391 -0.131029
v 0.949292 -0.186513 -0.131029
vt 0.0000 0.0000
vt 31.4961 0.0000
vt 0.0000 9.8425
vt 31.4961 9.8425
vt 0.0000 0.0000
vt 0.0000 9.8425
vt 31.4961 0.0000
vt 31.4961 9.8425
vn 0.0000 0.0000 -1.0000
vn 0.0000 0.0000 1.0000
vn -1.0000 0.0000 0.0000
vn 0.0000 1.0000 0.0000
vn 1.0000 0.0000 0.0000
vn 0.0000 -1.0000 0.0000
usemtl wood.003
s 1
f 25/25/19 26/26/19 27/27/19
f 28/28/19 27/27/19 26/26/19
f 29/29/20 30/30/20 31/31/20
f 32/32/20 31/31/20 30/30/20
f 25/25/21 27/27/21 30/30/21 29/29/21
f 26/26/22 25/25/22 29/29/22 31/31/22
f 28/28/23 26/26/23 31/31/23 32/32/23
f 27/27/24 28/28/24 32/32/24 30/30/24
o bookcaseClosedWide.002_ID5.001
v -0.949292 0.380391 0.427888
v 0.949292 0.380391 0.427888
v -0.949292 -0.186513 0.427888
v 0.949292 -0.186513 0.427888
v -0.949292 0.380391 0.506806
v -0.949292 -0.186513 0.506806
v 0.949292 0.380391 0.506806
v 0.949292 -0.186513 0.506806
vt 0.0000 0.0000
vt 31.4961 0.0000
vt 0.0000 9.8425
vt 31.4961 9.8425
vt 0.0000 0.0000
vt 0.0000 9.8425
vt 31.4961 0.0000
vt 31.4961 9.8425
vn 0.0000 0.0000 -1.0000
vn 0.0000 0.0000 1.0000
vn -1.0000 0.0000 0.0000
vn 0.0000 1.0000 0.0000
vn 1.0000 0.0000 0.0000
vn 0.0000 -1.0000 0.0000
usemtl wood.003
s 1
f 33/33/25 34/34/25 35/35/25
f 36/36/25 35/35/25 34/34/25
f 37/37/26 38/38/26 39/39/26
f 40/40/26 39/39/26 38/38/26
f 33/33/27 35/35/27 38/38/27 37/37/27
f 34/34/28 33/33/28 37/37/28 39/39/28
f 36/36/29 34/34/29 39/39/29 40/40/29
f 35/35/30 36/36/30 40/40/30 38/38/30
o bookcaseClosedWide.002_ID5.000
v -0.949292 0.380391 1.064709
v 0.949292 0.380391 1.064709
v -0.949292 -0.186513 1.064709
v 0.949292 -0.186513 1.064709
v -0.949292 0.380391 1.143626
v -0.949292 -0.186513 1.143626
v 0.949292 0.380391 1.143626
v 0.949292 -0.186513 1.143626
vt 0.0000 0.0000
vt 31.4961 0.0000
vt 0.0000 9.8425
vt 31.4961 9.8425
vt 0.0000 0.0000
vt 0.0000 9.8425
vt 31.4961 0.0000
vt 31.4961 9.8425
vn 0.0000 0.0000 -1.0000
vn 0.0000 0.0000 1.0000
vn -1.0000 0.0000 0.0000
vn 0.0000 1.0000 0.0000
vn 1.0000 0.0000 0.0000
vn 0.0000 -1.0000 0.0000
usemtl wood.003
s 1
f 41/41/31 42/42/31 43/43/31
f 44/44/31 43/43/31 42/42/31
f 45/45/32 46/46/32 47/47/32
f 48/48/32 47/47/32 46/46/32
f 41/41/33 43/43/33 46/46/33 45/45/33
f 42/42/34 41/41/34 45/45/34 47/47/34
f 44/44/35 42/42/35 47/47/35 48/48/35
f 43/43/36 44/44/36 48/48/36 46/46/36
o bookcaseClosedWide.002_ID5.024
v -1.062831 -0.289385 1.143577
v -1.062831 -0.289385 -0.954021
v 1.063437 -0.289385 1.143577
v 1.063437 -0.289385 -0.954021
v -1.062831 -0.182173 1.143577
v 1.063437 -0.182173 1.143577
v -1.062831 -0.182173 -0.954021
v 1.063437 -0.182173 -0.954021
vt 0.0000 0.0000
vt 31.4961 0.0000
vt 0.0000 9.8425
vt 31.4961 9.8425
vt 0.0000 0.0000
vt 0.0000 9.8425
vt 31.4961 0.0000
vt 31.4961 9.8425
vn 0.0000 -1.0000 0.0000
vn 0.0000 1.0000 0.0000
vn 0.0000 0.0000 1.0000
vn -1.0000 0.0000 0.0000
vn 0.0000 0.0000 -1.0000
vn 1.0000 0.0000 0.0000
usemtl wood.003
s 1
f 49/49/37 50/50/37 51/51/37
f 52/52/37 51/51/37 50/50/37
f 53/53/38 54/54/38 55/55/38
f 56/56/38 55/55/38 54/54/38
f 49/49/39 51/51/39 54/54/39 53/53/39
f 50/50/40 49/49/40 53/53/40 55/55/40
f 52/52/41 50/50/41 55/55/41 56/56/41
f 51/51/42 52/52/42 56/56/42 54/54/42
