# Blender v2.78 (sub 0) OBJ File: ''
# www.blender.org
mtllib BaconStripe.mtl
o bacon.002
v 0.007556 0.065000 -0.007387
v -0.007556 0.130000 0.007613
v -0.007556 0.065000 -0.007387
v 0.007556 0.130000 0.007613
v 0.007556 -0.130000 0.007612
v -0.007556 -0.065000 -0.007388
v -0.007556 -0.130000 0.007612
v 0.007556 -0.065000 -0.007388
v 0.007556 -0.000000 0.007612
v -0.007556 -0.000000 0.007612
v 0.007556 0.065000 -0.010612
v -0.007556 0.065000 -0.010612
v -0.007556 0.130000 0.004388
v 0.007556 0.130000 0.004388
v 0.007556 -0.130000 0.004387
v -0.007556 -0.130000 0.004387
v -0.007556 -0.065000 -0.010613
v 0.007556 -0.065000 -0.010613
v 0.007556 0.000000 0.004388
v -0.007556 0.000000 0.004388
vt -0.5374 4.9870
vt -1.7274 10.2397
vt -1.7274 4.9870
vt -0.5374 10.2397
vt 0.5374 10.2397
vt 1.7274 4.9870
vt 1.7274 10.2397
vt 0.5374 4.9870
vt 0.5374 0.2656
vt 1.7274 -4.9870
vt 1.7274 0.2656
vt 0.5374 -4.9870
vt -0.5374 -4.9870
vt -1.7274 0.2656
vt -1.7274 -4.9870
vt -0.5374 0.2656
vt -0.5374 4.9870
vt -1.7274 4.9870
vt -1.7274 10.2397
vt -0.5374 10.2397
vt 0.5374 10.2397
vt 1.7274 10.2397
vt 1.7274 4.9870
vt 0.5374 4.9870
vt 0.5374 0.2656
vt 1.7274 0.2656
vt 1.7274 -4.9870
vt 0.5374 -4.9870
vt -0.5374 -4.9870
vt -1.7274 -4.9870
vt -1.7274 0.2656
vt -0.5374 0.2656
vn 0.0000 -0.2249 0.9744
vn 0.0000 0.2249 0.9744
vn 0.0000 0.2249 -0.9744
vn 0.0000 -0.2249 -0.9744
vn 0.0000 -1.0000 0.0000
vn 0.0000 1.0000 0.0000
vn -1.0000 0.0000 0.0000
vn 1.0000 0.0000 0.0000
usemtl brownDark.003
s 1
f 1/1/1 2/2/1 3/3/1
f 2/2/1 1/1/1 4/4/1
f 5/5/2 6/6/2 7/7/2
f 6/6/2 5/5/2 8/8/2
f 9/9/2 3/10/2 10/11/2
f 3/10/2 9/9/2 1/12/2
f 8/13/1 10/14/1 6/15/1
f 10/14/1 8/13/1 9/16/1
f 11/17/3 12/18/3 13/19/3
f 13/19/3 14/20/3 11/17/3
f 15/21/4 16/22/4 17/23/4
f 17/23/4 18/24/4 15/21/4
f 19/25/4 20/26/4 12/27/4
f 12/27/4 11/28/4 19/25/4
f 18/29/3 17/30/3 20/31/3
f 20/31/3 19/32/3 18/29/3
f 7/7/5 16/22/5 15/21/5 5/5/5
f 4/4/6 14/20/6 13/19/6 2/2/6
f 6/6/7 17/23/7 16/22/7 7/7/7
f 10/14/7 20/31/7 17/30/7 6/6/7
f 3/10/7 12/27/7 20/26/7 10/14/7
f 2/2/7 13/19/7 12/18/7 3/10/7
f 4/4/8 1/1/8 11/17/8 14/20/8
f 1/1/8 9/9/8 19/25/8 11/17/8
f 9/9/8 8/13/8 18/29/8 19/25/8
f 8/13/8 5/5/8 15/21/8 18/29/8
