# Blender 3.4.1
# www.blender.org
mtllib choppedBacon.mtl
o bacon.001
v -0.015113 -0.011775 0.065000
v -0.015113 0.018225 -0.065000
v 0.015112 -0.011775 0.065000
v 0.015112 0.018225 -0.065000
v -0.015113 -0.018225 0.065000
v -0.015113 0.011775 -0.065000
v 0.015112 -0.018225 0.065000
v 0.015112 0.011775 -0.065000
vn -0.0000 0.9744 0.2249
vn -0.0000 -0.9744 -0.2249
vn -1.0000 -0.0000 -0.0000
vn 1.0000 -0.0000 -0.0000
vt -1.727362 -4.987041
vt 1.727362 4.987041
vt -1.727362 0.265582
vt -0.537402 -4.987041
vt -0.537402 0.265582
vt 0.537402 0.265582
vt -1.727362 -4.987041
vt -1.727362 0.265582
vt -0.537402 -4.987041
vt -0.537402 0.265582
vt 0.537402 0.265582
s 0
usemtl brownDark
f 3/4/1 2/3/1 1/1/1
f 2/3/1 3/4/1 4/5/1
f 7/9/2 5/7/2 6/8/2
f 6/8/2 8/10/2 7/9/2
f 2/3/3 6/8/3 5/7/3 1/2/3
f 4/6/4 3/4/4 7/9/4 8/11/4
