# Blender v2.78 (sub 0) OBJ File: ''
# www.blender.org
mtllib stripeCollider.mtl
o bacon.006_bacon.012
v 0.007556 -0.065000 -0.007387
v -0.007556 -0.130000 0.007613
v -0.007556 -0.065000 -0.007387
v 0.007556 -0.130000 0.007613
v 0.007556 -0.065000 -0.010612
v -0.007556 -0.065000 -0.010612
v -0.007556 -0.130000 0.004388
v 0.007556 -0.130000 0.004388
vt -0.5374 4.9870
vt -1.7274 4.9870
vt -1.7274 10.2397
vt -0.5374 10.2397
vt -0.5374 4.9870
vt -1.7274 10.2397
vt -1.7274 4.9870
vt -0.5374 10.2397
vt 1.7274 -4.9870
vn 0.0000 0.2249 0.9744
vn 0.0000 -0.2249 -0.9744
vn 0.6501 0.7598 0.0000
vn -0.6501 0.7598 0.0000
vn -0.7530 0.6580 0.0000
vn 0.7530 0.6580 0.0000
vn 0.0000 -1.0000 0.0000
vn -1.0000 0.0000 0.0000
vn 1.0000 -0.0000 0.0000
usemtl brownDark.003
s 1
f 1/1/1 3/2/1 2/3/1
f 2/3/1 4/4/1 1/1/1
f 5/5/2 7/6/2 6/7/2
f 7/6/2 5/5/2 8/8/2
f 5/5/3 6/7/4 3/9/5
f 3/2/5 1/1/6 5/5/3
f 4/4/7 2/3/7 7/6/7 8/8/7
f 2/3/8 3/9/5 6/7/4 7/6/8
f 4/4/9 8/8/9 5/5/3 1/1/6
o bacon.005_bacon.011
v 0.007556 -0.065000 -0.007387
v -0.007556 -0.065000 -0.007387
v 0.007556 0.000000 0.007612
v -0.007556 0.000000 0.007612
v 0.007556 -0.065000 -0.010612
v -0.007556 -0.065000 -0.010612
v 0.007556 0.000000 0.004388
v -0.007556 0.000000 0.004388
vt 0.5374 0.2656
vt 1.7274 0.2656
vt 1.7274 -4.9870
vt 0.5374 -4.9870
vt 1.7274 -4.9870
vt 0.5374 -4.9870
vt -0.5374 4.9870
vt 0.5374 0.2656
vt 1.7274 0.2656
vt -1.7274 0.2656
vt -0.5374 4.9870
vn 0.0000 -0.2249 0.9744
vn -0.6501 -0.7598 0.0000
vn 0.7530 -0.6580 0.0000
vn -0.7530 -0.6580 0.0000
vn 0.6501 -0.7598 0.0000
vn 0.0000 0.2249 -0.9744
vn 0.7530 0.6580 -0.0000
vn -0.6501 0.7598 -0.0000
vn 0.6501 0.7598 -0.0000
vn -0.7530 0.6580 -0.0000
usemtl brownDark.003
s 1
f 11/10/10 12/11/10 10/12/10
f 10/12/10 9/13/10 11/10/10
f 14/14/11 9/13/12 10/12/13
f 14/14/11 13/15/14 9/16/12
f 15/17/15 14/14/15 16/18/15
f 14/14/15 15/17/15 13/15/15
f 15/17/16 12/19/17 11/10/18
f 16/18/19 12/19/17 15/17/16
f 10/12/13 12/19/17 16/18/19 14/14/11
f 9/16/12 13/20/14 15/17/16 11/10/18
o bacon.004_bacon.010
v 0.007556 0.065000 -0.007387
v -0.007556 0.065000 -0.007387
v 0.007556 -0.000000 0.007612
v -0.007556 -0.000000 0.007612
v 0.007556 0.065000 -0.010612
v -0.007556 0.065000 -0.010612
v 0.007556 0.000000 0.004388
v -0.007556 0.000000 0.004388
vt 0.5374 0.2656
vt 1.7274 -4.9870
vt 1.7274 0.2656
vt 0.5374 -4.9870
vt 1.7274 -4.9870
vt -0.5374 4.9870
vt 0.5374 -4.9870
vt 0.5374 0.2656
vt 1.7274 0.2656
vt -1.7274 0.2656
vt -0.5374 4.9870
vn 0.0000 0.2249 0.9744
vn -0.6501 0.7598 0.0000
vn -0.7530 0.6580 0.0000
vn 0.7530 0.6580 0.0000
vn 0.6501 0.7598 0.0000
vn 0.0000 -0.2249 -0.9744
vn 0.7530 -0.6580 -0.0000
vn 0.6501 -0.7598 -0.0000
vn -0.6501 -0.7598 -0.0000
vn -0.7530 -0.6580 -0.0000
usemtl brownDark.003
s 1
f 19/21/20 18/22/20 20/23/20
f 18/22/20 19/21/20 17/24/20
f 22/25/21 18/22/22 17/24/23
f 22/25/21 17/26/23 21/27/24
f 23/28/25 24/29/25 22/25/25
f 22/25/25 21/27/25 23/28/25
f 23/28/26 19/21/27 20/30/28
f 24/29/29 23/28/26 20/30/28
f 18/22/22 22/25/21 24/29/29 20/30/28
f 17/26/23 19/21/27 23/28/26 21/31/24
o bacon.001_bacon.004
v 0.007556 0.065000 -0.007387
v -0.007556 0.130000 0.007613
v -0.007556 0.065000 -0.007387
v 0.007556 0.130000 0.007613
v 0.007556 0.065000 -0.010612
v -0.007556 0.065000 -0.010612
v -0.007556 0.130000 0.004388
v 0.007556 0.130000 0.004388
vt -0.5374 4.9870
vt -1.7274 10.2397
vt -1.7274 4.9870
vt -0.5374 10.2397
vt -0.5374 4.9870
vt -1.7274 4.9870
vt -1.7274 10.2397
vt -0.5374 10.2397
vt 1.7274 -4.9870
vn 0.0000 -0.2249 0.9744
vn 0.0000 0.2249 -0.9744
vn 0.6501 -0.7598 0.0000
vn -0.7530 -0.6580 0.0000
vn -0.6501 -0.7598 0.0000
vn 0.7530 -0.6580 0.0000
vn 0.0000 1.0000 0.0000
vn -1.0000 0.0000 0.0000
vn 1.0000 0.0000 0.0000
usemtl brownDark.003
s 1
f 25/32/30 26/33/30 27/34/30
f 26/33/30 25/32/30 28/35/30
f 29/36/31 30/37/31 31/38/31
f 31/38/31 32/39/31 29/36/31
f 29/36/32 27/40/33 30/37/34
f 27/34/33 29/36/32 25/32/35
f 28/35/36 32/39/36 31/38/36 26/33/36
f 26/33/37 31/38/37 30/37/34 27/40/33
f 28/35/38 25/32/35 29/36/32 32/39/38
