# Blender 3.4.1
# www.blender.org
mtllib smallLidCollider.mtl
o lidCollider
v -0.053409 0.017353 0.011763
v -0.053409 -0.017353 0.011763
v -0.062712 -0.020376 0.011763
v -0.038758 -0.053346 0.011763
v -0.033008 -0.045432 0.011763
v 0.000000 -0.065939 0.011763
v 0.000000 -0.056157 0.011763
v 0.033008 -0.045432 0.011763
v 0.038758 -0.053346 0.011763
v 0.053409 -0.017353 0.011763
v 0.062712 -0.020376 0.011763
v 0.062712 0.020376 0.011763
v -0.062712 0.020376 0.011763
v -0.038758 0.053346 0.011763
v -0.033008 0.045432 0.011763
v -0.000000 0.065939 0.011763
v -0.000000 0.056157 0.011763
v 0.038758 0.053346 0.011763
v 0.033008 0.045432 0.011763
v 0.053409 0.017353 0.011763
v -0.074657 -0.024258 0.001406
v -0.046141 -0.063507 0.001406
v -0.074657 0.024258 0.001406
v -0.046141 0.063507 0.001406
v 0.046141 0.063507 0.001406
v 0.074657 0.024258 0.001406
v -0.000000 0.078499 0.001406
v 0.000000 -0.078499 0.001406
v 0.046141 -0.063507 0.001406
v 0.074657 -0.024258 0.001406
v 0.000000 -0.056157 0.001406
v 0.033008 -0.045432 0.001406
v 0.053409 -0.017353 0.001406
v 0.053409 0.017353 0.001406
v 0.033008 0.045432 0.001406
v -0.000000 0.056157 0.001406
v -0.033008 0.045432 0.001406
v -0.053409 0.017353 0.001406
v -0.053409 -0.017353 0.001406
v -0.033008 -0.045432 0.001406
v 0.000000 0.000000 0.001406
v 0.000000 -0.000000 0.011763
vn -0.2024 0.6230 0.7556
vn -0.0000 -0.0000 1.0000
vn 0.5300 0.3850 0.7556
vn -0.0000 -0.0000 -1.0000
vn -0.6551 -0.0000 0.7556
vn 0.5300 -0.3850 0.7556
vn -0.5300 0.3850 0.7556
vn -0.2024 -0.6230 0.7556
vn 0.2024 -0.6230 0.7556
vn -0.5300 -0.3850 0.7556
vn 0.2024 0.6230 0.7556
vn 0.6551 -0.0000 0.7556
vt 8.121179 2.638731
vt 0.000000 0.000000
vt 0.000000 0.000000
vt 0.000000 0.000000
vt 3.098387 -6.173280
vt -3.098387 -6.173280
vt -3.098387 -6.173280
vt 3.098387 -6.173280
vt 0.000000 0.000000
vt 0.000000 0.000000
vt 3.098387 -6.173280
vt -3.098387 -6.173280
vt 0.000000 0.000000
vt 0.000000 0.000000
vt 0.000000 0.000000
vt -3.098387 -6.173280
vt 3.098387 -6.173280
vt 0.000000 0.000000
vt 0.000000 0.000000
vt 3.098387 -6.173280
vt -3.098387 -6.173280
vt 0.000000 0.000000
vt -3.098387 -6.173280
vt 3.098387 -6.173280
vt 0.000000 0.000000
vt -3.098387 -6.173280
vt 3.098387 -6.173280
vt 0.000000 0.000000
vt 3.098387 -6.173280
vt -3.098387 -6.173280
vt 0.000000 0.000000
vt 0.000000 0.000000
vt -3.098387 -6.173280
vt 3.098387 -6.173280
vt 0.000000 0.000000
vt 0.000000 0.000000
vt 3.098387 -6.173280
vt -3.098387 -6.173280
vt 0.000000 0.000000
vt 0.000000 0.000000
vt 0.000000 0.000000
vt 3.688555 -8.577265
vt 0.000000 0.000000
vt -3.688555 -8.577265
vt -3.688555 -8.577265
vt 3.688555 -8.577265
vt 0.000000 0.000000
vt -3.688555 -8.577265
vt 3.688555 -8.577265
vt 0.000000 0.000000
vt 3.688555 -8.577265
vt -3.688555 -8.577265
vt 0.000000 0.000000
vt 3.688555 -8.577265
vt -3.688555 -8.577265
vt 0.000000 0.000000
vt -3.688555 -8.577265
vt 3.688555 -8.577265
vt 0.000000 0.000000
vt -3.688555 -8.577265
vt 3.688555 -8.577265
vt 0.000000 0.000000
vt 3.688555 -8.577265
vt -3.688555 -8.577265
vt 0.000000 0.000000
vt -3.688555 -8.577265
vt 3.688555 -8.577265
vt 0.000000 0.000000
vt 3.688555 -8.577265
vt -3.688555 -8.577265
vt 0.000000 0.000000
vt 0.000000 0.000000
vt 0.000000 0.000000
vt 0.000000 0.000000
vt 0.000000 0.000000
vt 0.000000 0.000000
vt 0.000000 0.000000
vt 0.000000 0.000000
vt 8.121179 2.638731
vt 0.000000 0.000000
vt 0.000000 0.000000
vt 8.121179 -2.638731
vt 0.000000 0.000000
vt 0.000000 0.000000
vt 0.000000 0.000000
s 0
usemtl greyDark.002
f 14/29/1 16/33/1 27/60/1 24/51/1
f 13/26/2 3/5/2 2/3/2 1/1/2
f 2/3/2 3/4/2 4/9/2 5/10/2
f 12/23/3 26/57/3 25/54/3 18/37/3
f 21/42/4 23/48/4 38/79/4 39/82/4
f 21/42/5 3/5/5 13/26/5 23/48/5
f 29/66/6 30/69/6 11/20/6 9/16/6
f 13/27/7 14/30/7 24/52/7 23/49/7
f 28/63/8 6/11/8 4/7/8 22/45/8
f 21/43/4 39/81/4 40/83/4 22/47/4
f 28/64/9 29/67/9 9/17/9 6/12/9
f 22/46/10 4/8/10 3/6/10 21/44/10
f 28/65/4 31/72/4 32/73/4 29/68/4
f 7/14/2 42/85/2 5/10/2
f 5/10/2 42/85/2 2/3/2
f 41/84/4 32/73/4 31/72/4
f 2/3/2 42/85/2 1/2/2
f 15/32/2 1/2/2 42/85/2
f 40/83/4 39/82/4 41/84/4
f 39/82/4 38/80/4 41/84/4
f 42/85/2 17/36/2 15/32/2
f 17/36/2 42/85/2 19/40/2
f 42/85/2 20/41/2 19/40/2
f 41/84/4 31/72/4 40/83/4
f 20/41/2 42/85/2 10/19/2
f 42/85/2 8/15/2 10/19/2
f 38/80/4 37/78/4 41/84/4
f 36/77/4 41/84/4 37/78/4
f 8/15/2 42/85/2 7/14/2
f 36/77/4 35/76/4 41/84/4
f 35/76/4 34/75/4 41/84/4
f 16/34/11 18/38/11 25/55/11 27/61/11
f 11/21/12 30/70/12 26/58/12 12/24/12
f 22/47/4 40/83/4 31/72/4 28/65/4
f 33/74/4 41/84/4 34/75/4
f 33/74/4 32/73/4 41/84/4
f 29/68/4 32/73/4 33/74/4 30/71/4
f 30/71/4 33/74/4 34/75/4 26/59/4
f 35/76/4 25/56/4 26/59/4 34/75/4
f 25/56/4 35/76/4 36/77/4 27/62/4
f 27/62/4 36/77/4 37/78/4 24/53/4
f 24/53/4 37/78/4 38/80/4 23/50/4
f 5/10/2 4/9/2 6/13/2 7/14/2
f 7/14/2 6/13/2 9/18/2 8/15/2
f 8/15/2 9/18/2 11/22/2 10/19/2
f 10/19/2 11/22/2 12/25/2 20/41/2
f 18/39/2 19/40/2 20/41/2 12/25/2
f 16/35/2 17/36/2 19/40/2 18/39/2
f 14/31/2 15/32/2 17/36/2 16/35/2
f 13/28/2 1/2/2 15/32/2 14/31/2
o lidCollider.001
v -0.021391 -0.005068 0.024092
v -0.021758 -0.005068 0.023012
v -0.021391 0.005068 0.024092
v -0.021758 0.005068 0.023012
v -0.020254 -0.005068 0.026062
v -0.020254 0.005068 0.026062
v -0.019502 -0.005068 0.026920
v -0.019502 0.005068 0.026920
v 0.020254 -0.005068 0.026062
v 0.020254 0.005068 0.026062
v 0.020887 -0.005068 0.025114
v 0.020887 0.005068 0.025114
v -0.016674 0.005068 0.028809
v -0.015595 0.005068 0.029175
v -0.016674 -0.005068 0.028809
v -0.015595 -0.005068 0.029175
v -0.014476 0.005068 0.029398
v -0.014476 -0.005068 0.029398
v -0.014899 -0.005068 0.020522
v -0.014899 0.005068 0.020522
v -0.022055 -0.005068 0.020756
v -0.022055 0.005068 0.020756
v -0.017697 0.005068 0.028305
v -0.017697 -0.005068 0.028305
v 0.014476 0.005068 0.029398
v 0.015595 0.005068 0.029175
v 0.014476 -0.005068 0.029398
v 0.015595 -0.005068 0.029175
v 0.013339 0.005068 0.029472
v 0.013339 -0.005068 0.029472
v 0.014899 -0.005068 0.020522
v 0.022055 -0.005068 0.020756
v 0.021980 -0.005068 0.021894
v 0.021758 -0.005068 0.023012
v 0.021391 -0.005068 0.024092
v -0.020887 -0.005068 0.025114
v 0.019502 -0.005068 0.026920
v -0.018645 -0.005068 0.027671
v 0.018645 -0.005068 0.027671
v 0.017697 -0.005068 0.028305
v 0.016674 -0.005068 0.028809
v -0.013339 -0.005068 0.029472
v -0.021980 -0.005068 0.021894
v 0.017697 0.005068 0.028305
v 0.018645 0.005068 0.027671
v -0.021980 0.005068 0.021894
v 0.021391 0.005068 0.024092
v 0.021758 0.005068 0.023012
v -0.020887 0.005068 0.025114
v 0.016674 0.005068 0.028809
v 0.022055 0.005068 0.020756
v -0.013339 0.005068 0.029472
v 0.019502 0.005068 0.026920
v -0.018645 0.005068 0.027671
v 0.021980 0.005068 0.021894
v 0.014899 0.005068 0.020522
vn -0.9239 -0.0000 0.3827
vn -0.9659 -0.0000 0.2588
vn -0.7071 -0.0000 0.7071
vn -0.7933 -0.0000 0.6088
vn 0.8660 -0.0000 0.5000
vn 0.7934 -0.0000 0.6087
vn -0.3827 -0.0000 0.9239
vn -0.2588 -0.0000 0.9659
vn -0.1305 -0.0000 0.9914
vn -0.5000 -0.0000 0.8660
vn 0.1305 -0.0000 0.9914
vn 0.2588 -0.0000 0.9659
vn 0.0654 -0.0000 0.9979
vn -0.0000 -1.0000 -0.0000
vn -0.0014 -0.9979 0.0654
vn -0.0033 -0.9979 0.0653
vn 0.0641 -0.9979 0.0130
vn -0.0648 -0.9979 0.0085
vn -0.0653 -0.9979 0.0036
vn 0.0648 -0.9979 0.0085
vn -0.0000 -0.0000 -1.0000
vn 0.5000 -0.0000 0.8660
vn 0.6087 -0.0000 0.7934
vn -0.9914 -0.0000 0.1305
vn 0.9659 -0.0000 0.2588
vn 0.9239 -0.0000 0.3827
vn -0.7934 -0.0000 0.6087
vn -0.8660 -0.0000 0.5000
vn 0.3827 -0.0000 0.9239
vn -0.0000 1.0000 -0.0000
vn -0.0650 0.9979 0.0075
vn 0.0033 0.9979 0.0653
vn 0.0653 0.9979 0.0036
vn -0.0648 0.9979 0.0085
vn -0.0641 0.9979 0.0130
vn -0.0000 -0.0000 1.0000
vn 0.7933 -0.0000 0.6088
vn 0.7071 -0.0000 0.7071
vn -0.6088 -0.0000 0.7933
vn 0.9979 -0.0000 0.0654
vn 0.9914 -0.0000 0.1305
vn 0.0327 -0.0000 -0.9995
vn -0.0327 -0.0000 -0.9995
vn -0.9979 -0.0000 0.0654
vn -0.0654 -0.0000 0.9979
vn -0.6087 -0.0000 0.7934
vn 0.6088 -0.0000 0.7933
vt -5.019165 -6.908288
vt -8.121179 -2.638731
vt -8.121179 2.638731
vt -5.019165 -6.908288
vt -8.121179 -2.638731
vt -8.121179 -2.638731
vt -8.121179 2.638731
vt -5.019165 -6.908288
vt -8.121179 -2.638731
vt -5.019165 -6.908288
vt -8.121179 2.638731
vt -5.019165 -6.908288
vt -8.121179 -2.638731
vt -5.019165 -6.908288
vt -8.121179 -2.638731
vt -8.121179 2.638731
vt -8.121179 -2.638731
vt -5.019165 -6.908288
vt -8.121179 2.638731
vt -8.121179 -2.638731
vt -8.121179 2.638731
vt -8.121179 2.638731
vt -8.121179 -2.638731
vt -8.121179 2.638731
vt -8.121179 -2.638731
vt -5.019165 -6.908288
vt -8.121179 -2.638731
vt -8.121179 2.638731
vt -5.019165 -6.908288
vt -5.019165 -6.908288
vt -8.121179 -2.638731
vt -5.019165 -6.908288
vt -8.121179 -2.638731
vt -8.121179 2.638731
vt -5.019165 -6.908288
vt -8.121179 -2.638731
vt -8.121179 2.638731
vt -8.121179 2.638731
vt -8.121179 -2.638731
vt -5.019165 -6.908288
vt -8.121179 2.638731
vt -8.121179 -2.638731
vt -5.019165 -6.908288
vt -5.019165 -6.908288
vt -8.121179 2.638731
vt -8.121179 -2.638731
vt -8.121179 -2.638731
vt -5.019165 -6.908288
vt -8.121179 2.638731
vt -5.019165 -6.908288
vt -8.121179 -2.638731
vt -8.121179 2.638731
vt -5.019165 -6.908288
vt -8.121179 -2.638731
vt -8.121179 -2.638731
vt -8.121179 2.638731
vt -5.019165 -6.908288
vt -8.121179 2.638731
vt -5.019165 -6.908288
vt -8.121179 -2.638731
vt -8.121179 2.638731
vt -8.121179 -2.638731
vt -5.019165 -6.908288
vt -8.121179 2.638731
vt -8.121179 -2.638731
vt -5.019165 -6.908288
vt -5.019165 -6.908288
vt -8.121179 -2.638731
vt -8.121179 2.638731
vt -8.121179 -2.638731
vt -5.019165 -6.908288
vt -8.121179 2.638731
vt -8.121179 2.638731
vt -5.019165 -6.908288
vt -8.121179 -2.638731
vt -5.019165 -6.908288
vt -8.121179 2.638731
vt -8.121179 -2.638731
vt -8.121179 -2.638731
vt -8.121179 -2.638731
vt -8.121179 2.638731
vt -5.019165 -6.908288
vt -8.121179 -2.638731
vt -8.121179 2.638731
vt -5.019165 -6.908288
vt -8.121179 2.638731
vt -8.121179 -2.638731
vt -8.121179 -2.638731
vt -5.019165 -6.908288
vt -8.121179 2.638731
vt -8.121179 2.638731
vt -5.019165 -6.908288
vt -8.121179 -2.638731
vt -8.121179 -2.638731
vt -5.019165 -6.908288
vt -8.121179 2.638731
vt -8.121179 -2.638731
vt -5.019165 -6.908288
vt -8.121179 2.638731
vt -5.019165 -6.908288
vt -8.121179 2.638731
vt -8.121179 -2.638731
vt -5.019165 -6.908288
vt -8.121179 2.638731
vt -8.121179 -2.638731
vt -5.019165 -6.908288
vt -8.121179 2.638731
vt -8.121179 -2.638731
vt -8.121179 2.638731
vt -5.019165 -6.908288
vt -8.121179 -2.638731
vt -8.121179 2.638731
vt -8.121179 -2.638731
vt -5.019165 -6.908288
vt -8.121179 2.638731
vt -5.019165 -6.908288
vt -8.121179 -2.638731
vt -8.121179 -2.638731
vt -5.019165 -6.908288
vt -8.121179 2.638731
vt -8.121179 -2.638731
vt -5.019165 -6.908288
vt -8.121179 2.638731
vt -5.019165 -6.908288
vt -8.121179 -2.638731
vt -8.121179 2.638731
vt -8.121179 -2.638731
vt -8.121179 2.638731
vt -8.121179 -2.638731
vt -5.019165 -6.908288
vt -8.121179 2.638731
vt -5.019165 -6.908288
vt -8.121179 -2.638731
vt -8.121179 2.638731
vt -5.019165 -6.908288
vt -8.121179 -2.638731
vt -8.121179 2.638731
vt -5.019165 -6.908288
vt -5.019165 -6.908288
vt -8.121179 2.638731
vt -8.121179 -2.638731
vt -8.121179 -2.638731
vt -5.019165 -6.908288
vt -8.121179 2.638731
vt -5.019165 -6.908288
s 0
usemtl _defaultMat.001
f 45/93/13 44/88/14 43/87/13
f 44/89/14 45/92/13 46/94/14
f 49/103/15 48/101/16 47/98/16
f 48/99/16 49/104/15 50/105/15
f 53/114/17 52/109/18 51/108/18
f 52/111/18 53/113/17 54/116/17
f 57/125/19 56/122/20 55/118/19
f 56/120/20 57/123/19 58/127/20
f 58/128/20 59/130/21 56/121/20
f 59/129/21 58/126/20 60/132/21
f 66/144/22 55/119/19 65/140/22
f 55/117/19 66/143/22 57/124/19
f 69/152/23 68/149/24 67/147/23
f 68/151/24 69/154/23 70/155/24
f 72/161/25 67/146/23 71/160/25
f 67/148/23 72/162/25 69/153/23
f 44/89/26 76/169/26 43/87/26
f 43/86/26 76/169/26 77/172/26
f 43/86/26 77/171/26 78/173/26
f 78/174/26 77/171/26 53/112/26
f 78/174/26 53/113/26 47/98/26
f 47/97/26 53/113/26 51/108/26
f 47/97/26 51/107/26 49/102/26
f 49/103/26 51/107/26 79/178/26
f 49/103/26 79/176/26 80/179/26
f 80/180/26 79/176/26 81/182/26
f 80/180/26 81/184/26 66/145/26
f 66/144/26 81/184/26 82/187/26
f 66/144/26 82/186/26 57/124/26
f 57/125/26 82/186/26 83/190/26
f 57/125/26 83/189/26 58/127/26
f 58/128/26 83/189/26 70/155/26
f 58/128/26 70/157/26 60/132/26
f 60/133/26 70/157/26 69/153/26
f 60/133/26 69/154/26 84/193/26
f 84/191/26 69/154/26 72/163/26
f 75/168/27 85/194/28 63/137/26 74/165/26
f 76/169/29 44/90/30 85/194/31 75/168/32
f 62/136/33 98/230/33 73/164/33 61/135/33
f 82/185/34 87/200/35 86/198/34
f 87/201/35 82/186/34 81/182/35
f 46/95/14 85/194/36 44/90/14
f 85/195/36 46/96/14 88/203/36
f 76/170/37 89/208/38 77/172/38
f 89/207/38 76/169/37 90/210/37
f 48/99/39 78/175/40 47/98/39
f 78/174/40 48/101/39 91/212/40
f 83/188/41 86/197/34 92/214/41
f 86/199/34 83/189/41 82/187/34
f 64/139/42 88/205/43 97/229/44 93/216/42
f 97/229/45 88/203/46 46/96/47 90/209/42
f 84/191/48 71/158/48 94/218/48
f 71/159/48 84/192/48 72/163/48
f 70/156/24 92/213/41 68/150/24
f 92/215/41 70/157/24 83/190/41
f 52/111/49 79/176/50 51/108/49
f 79/177/50 52/109/49 95/221/50
f 49/103/15 96/225/51 50/105/15
f 96/224/51 49/104/15 80/179/51
f 93/217/52 75/166/53 74/165/52
f 75/167/53 93/216/52 97/227/53
f 93/217/54 74/165/54 73/164/54 98/230/54
f 64/139/55 62/136/55 61/135/55 63/138/55
f 90/209/42 46/96/42 45/91/42
f 90/209/42 45/92/42 89/206/42
f 89/207/42 45/92/42 91/212/42
f 89/207/42 91/211/42 54/116/42
f 54/115/42 91/211/42 48/100/42
f 54/115/42 48/101/42 52/110/42
f 52/111/42 48/101/42 50/105/42
f 52/111/42 50/106/42 95/221/42
f 95/223/42 50/106/42 96/226/42
f 95/223/42 96/225/42 87/202/42
f 87/201/42 96/225/42 65/140/42
f 87/201/42 65/141/42 86/198/42
f 86/199/42 65/141/42 55/118/42
f 86/199/42 55/119/42 92/214/42
f 92/215/42 55/119/42 56/121/42
f 92/215/42 56/122/42 68/150/42
f 68/151/42 56/122/42 59/131/42
f 68/151/42 59/130/42 67/147/42
f 67/148/42 59/130/42 94/218/42
f 67/148/42 94/219/42 71/160/42
f 89/207/38 53/113/17 77/172/38
f 53/114/17 89/208/38 54/116/17
f 78/174/40 45/92/13 43/87/13
f 45/93/13 78/175/40 91/212/40
f 88/204/36 63/137/56 85/196/36
f 63/138/56 88/205/36 64/139/56
f 97/228/53 76/169/37 75/168/53
f 76/170/37 97/229/53 90/210/37
f 60/133/21 94/219/57 59/131/21
f 94/220/57 60/134/21 84/193/57
f 80/180/58 65/141/22 96/226/58
f 65/142/22 80/181/58 66/145/22
f 81/183/59 95/222/50 87/202/59
f 95/223/50 81/184/59 79/178/50
o lidCollider.002
v 0.014899 0.005068 0.011763
v 0.022055 0.005068 0.011763
v 0.022055 -0.005068 0.011763
v 0.014899 -0.005068 0.011763
v 0.014899 -0.005068 0.020522
v 0.022055 -0.005068 0.020756
v 0.022055 0.005068 0.020756
v 0.014899 0.005068 0.020522
vn -0.0000 -1.0000 -0.0000
vn 1.0000 -0.0000 -0.0000
vn -0.0000 1.0000 -0.0000
vn -1.0000 -0.0000 -0.0000
vn -0.0327 -0.0000 0.9995
vn -0.0000 -0.0000 -1.0000
vt -8.121179 -2.638731
vt -8.121179 2.638731
vt -5.019165 -6.908288
vt -5.019165 -6.908288
vt -8.121179 2.638731
vt -8.121179 -2.638731
vt -8.121179 -2.638731
vt -8.121179 2.638731
vt -5.019165 -6.908288
vt -8.121179 2.638731
vt -5.019165 -6.908288
vt -8.121179 -2.638731
vt -8.121179 2.638731
vt -5.019165 -6.908288
vt -8.121179 -2.638731
vt -8.121179 -2.638731
vt -5.019165 -6.908288
vt -8.121179 2.638731
s 0
usemtl _defaultMat.001
f 101/234/60 103/240/60 102/237/60
f 103/241/60 101/235/60 104/245/60
f 100/233/61 104/243/61 101/236/61
f 104/244/61 100/232/61 105/246/61
f 106/247/62 100/232/62 99/231/62
f 100/233/62 106/248/62 105/246/62
f 106/247/63 102/238/63 103/242/63
f 102/239/63 106/248/63 99/231/63
f 105/246/64 106/248/64 103/242/64 104/245/64
f 101/236/65 102/239/65 99/231/65 100/233/65
o lidCollider.003
v -0.022055 0.005068 0.010959
v -0.014899 0.005068 0.010959
v -0.014899 -0.005068 0.010959
v -0.022055 -0.005068 0.010959
v -0.014899 -0.005068 0.019719
v -0.014899 0.005068 0.019719
v -0.022055 -0.005068 0.019953
v -0.022055 0.005068 0.019953
vn -1.0000 -0.0000 -0.0000
vn -0.0000 -1.0000 -0.0000
vn 1.0000 -0.0000 -0.0000
vn -0.0000 1.0000 -0.0000
vn 0.0327 -0.0000 0.9995
vn -0.0000 -0.0000 -1.0000
vt -8.121179 -2.638731
vt -8.121179 2.638731
vt -5.019165 -6.908288
vt -8.121179 2.638731
vt -8.121179 -2.638731
vt -5.019165 -6.908288
vt -8.121179 2.638731
vt -8.121179 -2.638731
vt -5.019165 -6.908288
vt -8.121179 -2.638731
vt -8.121179 2.638731
vt -5.019165 -6.908288
vt -8.121179 -2.638731
vt -8.121179 -2.638731
vt -8.121179 2.638731
vt -5.019165 -6.908288
vt -5.019165 -6.908288
vt -8.121179 2.638731
s 0
usemtl _defaultMat.001
f 114/265/66 110/255/66 113/262/66
f 110/257/66 114/266/66 107/249/66
f 109/254/67 113/263/67 110/256/67
f 113/264/67 109/252/67 111/258/67
f 108/251/68 111/259/68 109/253/68
f 111/260/68 108/250/68 112/261/68
f 114/265/69 108/250/69 107/249/69
f 108/251/69 114/266/69 112/261/69
f 114/266/70 113/264/70 111/260/70 112/261/70
f 107/249/71 108/251/71 109/254/71 110/257/71
