# Blender 3.4.1
# www.blender.org
mtllib VanillaParticle.mtl
o Cube_Cube.001
v -0.005000 -0.005000 0.000000
v -0.005000 0.005000 0.000000
v 0.005000 -0.005000 0.000000
v 0.005000 0.005000 0.000000
v 0.000000 0.000000 0.007000
v 0.000000 0.000000 -0.007000
vn 0.8137 -0.0000 -0.5812
vn -0.0000 -0.8137 0.5812
vn -0.8137 -0.0000 0.5812
vn 0.8137 -0.0000 0.5812
vn -0.0000 0.8137 0.5812
vn -0.0000 -0.8137 -0.5812
vn -0.8137 -0.0000 -0.5812
vn -0.0000 0.8137 -0.5812
s 0
usemtl Material.010
f 4//1 3//1 6//1
f 5//2 1//2 3//2
f 1//3 5//3 2//3
f 3//4 4//4 5//4
f 4//5 2//5 5//5
f 3//6 1//6 6//6
f 2//7 6//7 1//7
f 4//8 6//8 2//8
