# Blender 3.4.1
# www.blender.org
mtllib lightbulb.mtl
o lampWall.001
v 0.149225 -0.218480 -0.107694
v 0.149225 -0.000000 -0.107694
v -0.149225 -0.218480 -0.107694
v -0.149225 -0.000000 -0.107694
v -0.149225 -0.218480 0.000000
v 0.149225 -0.218480 0.000000
v 0.149225 0.000000 0.000000
v -0.149225 -0.000000 0.000000
v -0.149225 0.218480 -0.107694
v -0.149225 -0.000000 -0.107694
v 0.149225 0.218480 -0.107694
v 0.149225 -0.000000 -0.107694
v 0.149225 0.218480 -0.000000
v -0.149225 0.218480 -0.000000
v -0.149225 0.000000 0.000000
v 0.149225 -0.000000 -0.000000
vn -0.0000 -0.0000 -1.0000
vn -0.0000 -1.0000 -0.0000
vn 1.0000 -0.0000 -0.0000
vn -1.0000 -0.0000 -0.0000
vn -0.0000 -0.0000 1.0000
vn -0.0000 1.0000 -0.0000
vt -2.727639 -3.993541
vt -2.727639 1.968504
vt 3.993541 1.968504
vt -2.727639 0.000000
vt 0.000000 1.968504
vt 2.727639 -3.993541
vt 2.727639 1.968504
vt -3.993541 1.968504
vt 2.727639 -0.000000
vt -0.000000 1.968504
vt 2.727639 0.000000
vt -3.993541 0.000000
vt -2.727639 -3.993541
vt -2.727639 0.000000
vt 3.993541 0.000000
vt 2.727639 -3.993541
vt 0.000000 0.000000
vt 2.727639 0.000000
vt -0.000000 0.000000
vt -2.727639 -0.000000
vt -2.727639 -3.993541
vt -2.727639 1.968504
vt 3.993541 1.968504
vt -2.727639 0.000000
vt 0.000000 1.968504
vt 2.727639 -3.993541
vt 2.727639 1.968504
vt -3.993541 1.968504
vt 2.727639 -0.000000
vt -0.000000 1.968504
vt 2.727639 0.000000
vt -3.993541 0.000000
vt -2.727639 -3.993541
vt -2.727639 0.000000
vt 3.993541 0.000000
vt 2.727639 -3.993541
vt 0.000000 0.000000
vt 2.727639 0.000000
vt -0.000000 0.000000
vt -2.727639 -0.000000
s 0
usemtl metal
f 2/4/1 1/1/1 3/6/1
f 3/6/1 4/9/1 2/4/1
f 6/14/2 5/11/2 3/7/2
f 3/7/2 1/2/2 6/14/2
f 6/15/3 1/3/3 2/5/3
f 2/5/3 7/17/3 6/15/3
f 3/8/4 5/12/4 8/19/4
f 8/19/4 4/10/4 3/8/4
f 6/16/5 7/18/5 8/20/5
f 8/20/5 5/13/5 6/16/5
f 10/24/1 9/21/1 11/26/1
f 11/26/1 12/29/1 10/24/1
f 14/34/6 13/31/6 11/27/6
f 11/27/6 9/22/6 14/34/6
f 14/35/4 9/23/4 10/25/4
f 10/25/4 15/37/4 14/35/4
f 11/28/3 13/32/3 16/39/3
f 16/39/3 12/30/3 11/28/3
f 14/36/5 15/38/5 16/40/5
f 16/40/5 13/33/5 14/36/5
