# Blender 3.4.1
# www.blender.org
mtllib lettuceLeaf.mtl
o cabbage.001
v 0.019170 0.019295 0.037500
v 0.012089 0.088103 0.022500
v 0.019170 0.019295 -0.037500
v 0.012089 0.088103 -0.022500
v -0.036721 -0.104125 -0.022500
v -0.036721 -0.104125 0.022500
v 0.022812 0.017112 -0.037500
v -0.033079 -0.106308 -0.022500
v 0.015730 0.085921 -0.022500
v -0.033079 -0.106308 0.022500
v 0.022812 0.017112 0.037500
v 0.015730 0.085921 0.022500
vn -0.9947 -0.1024 -0.0000
vn 0.1344 0.2242 -0.9652
vn -0.9109 0.4125 -0.0000
vn -0.0569 -0.0950 0.9938
vn 0.1344 0.2242 0.9652
vn 0.9947 0.1024 -0.0000
vn 0.9109 -0.4125 -0.0000
vn 0.5140 0.8578 -0.0000
vn -0.0569 -0.0950 -0.9938
vn -0.5141 -0.8577 -0.0000
vt -2.952756 8.477011
vt -2.952756 2.878573
vt -1.771654 5.491253
vt 2.952756 2.878573
vt 2.952756 8.477011
vt 1.771654 5.491253
vt 1.771654 2.126548
vt -1.771654 2.126548
vt 2.952756 2.878573
vt 2.952756 8.477011
vt 1.771654 2.126548
vt 1.771654 5.491253
vt -1.771654 2.126548
vt -2.952756 2.878573
vt -2.952756 8.477011
vt -1.771654 5.491253
s 0
usemtl green.007
f 3/4/1 1/2/1 2/3/1
f 2/3/1 4/6/1 3/4/1
f 4/6/2 9/12/2 7/9/2 3/4/2
f 6/8/3 1/1/3 3/5/3
f 3/5/3 5/7/3 6/8/3
f 6/8/4 10/13/4 11/15/4 1/1/4
f 1/2/5 11/14/5 12/16/5 2/3/5
f 11/14/6 7/9/6 12/16/6
f 9/12/6 12/16/6 7/9/6
f 11/15/7 10/13/7 7/10/7
f 8/11/7 7/10/7 10/13/7
f 2/3/8 12/16/8 9/12/8 4/6/8
f 3/5/9 7/10/9 8/11/9 5/7/9
f 8/11/10 10/13/10 6/8/10 5/7/10
