# Blender 3.4.1
# www.blender.org
mtllib lettuceHeart.mtl
o cabbage.001
v -0.047545 0.547747 0.027450
v -0.047545 0.547747 -0.027450
v -0.000000 0.547747 0.054900
v -0.000000 0.547747 -0.054900
v 0.047545 0.547747 0.027450
v 0.047545 0.547747 -0.027450
v 0.110429 0.363772 0.063756
v 0.110429 0.363772 -0.063756
v -0.110429 0.363772 -0.063756
v -0.000000 0.363772 -0.127512
v -0.110429 0.363772 0.063756
v -0.000000 0.363772 0.127512
v -0.000000 0.000000 0.090000
v -0.077942 0.000000 0.045000
v 0.000000 0.000000 -0.090000
v 0.077942 0.000000 -0.045000
v 0.077942 0.000000 0.045000
v -0.077942 0.000000 -0.045000
v 0.000000 0.000000 0.000000
vn -0.0000 1.0000 -0.0000
vn 0.9463 0.3234 -0.0000
vn -0.4731 0.3234 -0.8195
vn -0.9463 0.3234 -0.0000
vn 0.4731 0.3234 0.8195
vn -0.4731 0.3234 0.8195
vn 0.4731 0.3234 -0.8195
vn -0.4980 -0.0890 0.8626
vn 0.4980 -0.0890 -0.8626
vn 0.4980 -0.0890 0.8626
vn 0.9960 -0.0890 -0.0000
vn -0.4980 -0.0890 -0.8626
vn -0.9960 -0.0890 -0.0000
vn -0.0000 -1.0000 -0.0000
vt -1.871842 -1.080709
vt 1.080709 7.123784
vt -1.080709 7.123784
vt -1.871842 1.080709
vt 1.080709 7.123784
vt -1.080709 7.123784
vt -0.000000 -2.161417
vt -1.080709 7.123784
vt 1.080709 7.123784
vt -0.000000 2.161417
vt -1.080709 7.123784
vt 1.080709 7.123784
vt 1.871842 -1.080709
vt -1.080709 7.123784
vt 1.080709 7.123784
vt 1.871842 1.080709
vt 1.080709 7.123784
vt -1.080709 7.123784
vt -2.510079 2.907983
vt 2.510079 2.907983
vt 2.510079 7.438751
vt -2.510079 7.438751
vt 2.510079 2.907983
vt -2.510079 2.907983
vt -2.510079 7.438751
vt 2.510079 7.438751
vt 2.510079 2.907983
vt -2.510079 2.907983
vt 2.510079 7.438751
vt -2.510079 7.438751
vt -2.510079 2.907983
vt 2.510079 2.907983
vt 2.510079 7.438751
vt -2.510079 7.438751
vt 2.510079 2.907983
vt -2.510079 2.907983
vt -2.510079 7.438751
vt 2.510079 7.438751
vt -2.510079 2.907983
vt 2.510079 2.907983
vt 2.510079 7.438751
vt -2.510079 7.438751
vt -1.771654 0.571511
vt 1.771654 0.571511
vt 1.771654 0.571511
vt -1.771654 0.571511
vt -1.771654 0.571511
vt 1.771654 0.571511
vt -1.771654 0.571511
vt 1.771654 0.571511
vt -1.771654 0.571511
vt 1.771654 0.571511
vt -1.771654 0.571511
vt 1.771654 0.571511
vt 0.000000 0.000000
s 0
usemtl white
f 3/7/1 2/4/1 1/1/1
f 2/4/1 3/7/1 4/10/1
f 4/10/1 3/7/1 5/13/1
f 4/10/1 5/13/1 6/16/1
f 8/23/2 5/14/2 7/19/2
f 5/14/2 8/23/2 6/17/2
f 2/5/3 10/31/3 9/27/3
f 10/31/3 2/5/3 4/11/3
f 1/2/4 9/28/4 11/35/4
f 9/28/4 1/2/4 2/6/4
f 5/15/5 12/39/5 7/20/5
f 12/39/5 5/15/5 3/8/5
f 3/9/6 11/36/6 12/40/6
f 11/36/6 3/9/6 1/3/6
f 4/12/7 8/24/7 10/32/7
f 8/24/7 4/12/7 6/18/7
f 12/41/8 14/46/8 13/44/8
f 14/46/8 12/41/8 11/37/8
f 10/33/9 16/49/9 15/48/9
f 16/49/9 10/33/9 8/25/9
f 7/21/10 13/43/10 17/52/10
f 13/43/10 7/21/10 12/42/10
f 17/51/11 8/26/11 7/22/11
f 8/26/11 17/51/11 16/50/11
f 9/29/12 15/47/12 18/54/12
f 15/47/12 9/29/12 10/34/12
f 9/30/13 14/45/13 11/38/13
f 14/45/13 9/30/13 18/53/13
f 14/46/14 19/55/14 13/44/14
f 17/52/14 13/44/14 19/55/14
f 17/52/14 19/55/14 16/50/14
f 15/48/14 16/50/14 19/55/14
f 15/48/14 19/55/14 18/54/14
f 18/54/14 19/55/14 14/46/14
