# Blender 3.4.1
# www.blender.org
mtllib lettuceCollider.mtl
o cabbage.002
v -0.001235 -0.004626 -0.047141
v -0.040207 -0.004626 -0.024641
v -0.081143 0.129901 -0.065544
v -0.016191 0.129901 -0.103043
v -0.064612 0.204902 -0.066910
v -0.025641 0.204902 -0.089410
v -0.098508 0.125110 -0.037500
v -0.091426 0.193919 0.022500
v -0.091426 0.193919 -0.022500
v -0.098508 0.125110 0.037500
v -0.042617 0.001690 0.022500
v -0.042617 0.001690 -0.022500
v -0.026845 0.167974 0.091498
v -0.065816 0.167974 0.068998
v -0.017396 0.106734 0.105131
v -0.002441 -0.003110 0.049227
v -0.041412 -0.003110 0.026727
v -0.082348 0.106734 0.067631
v 0.016293 0.130516 0.103221
v 0.001338 -0.001543 0.047318
v 0.040309 -0.001543 0.024818
v 0.081245 0.130516 0.065720
v 0.064714 0.204141 0.067088
v 0.025742 0.204141 0.089588
v 0.098504 0.121237 -0.037500
v 0.042613 -0.002183 -0.022500
v 0.091422 0.190046 -0.022500
v 0.042613 -0.002183 0.022500
v 0.098504 0.121237 0.037500
v 0.091422 0.190046 0.022500
v 0.016182 0.100824 -0.103028
v 0.081133 0.100824 -0.065527
v 0.025632 0.157936 -0.089395
v 0.001227 -0.001614 -0.047125
v 0.040197 -0.001614 -0.024625
v 0.064603 0.157936 -0.066895
v -0.006238 0.280282 -0.073266
v -0.030978 0.325289 -0.053656
v -0.060332 0.280282 -0.042036
v -0.066805 0.257490 0.031231
v -0.062192 0.298782 0.000000
v -0.066805 0.257490 -0.031231
v -0.006130 0.229163 0.073079
v -0.060224 0.229163 0.041848
v -0.030870 0.265913 0.053468
v 0.060740 0.275476 0.042743
v 0.006646 0.275476 0.073974
v 0.031386 0.319658 0.054363
v 0.062609 0.298714 0.000000
v 0.067222 0.257423 -0.031231
v 0.067222 0.257423 0.031231
vn -0.8942 -0.4127 0.1735
vn -0.4978 0.0940 -0.8622
vn 0.4978 -0.0940 0.8622
vn 0.4617 0.3837 0.7998
vn 0.9947 -0.1024 -0.0000
vn -0.9109 -0.4125 -0.0000
vn 0.9109 0.4125 -0.0000
vn 0.4967 -0.1149 -0.8603
vn 0.4456 0.4535 -0.7719
vn -0.4977 -0.0957 -0.8620
vn -0.4605 0.3898 -0.7975
vn -0.9947 -0.1024 -0.0000
vn -0.9109 0.4125 -0.0000
vn -0.4962 -0.1231 0.8594
vn -0.4389 0.4790 0.7602
vn 0.4974 -0.1020 0.8615
vn 0.4961 -0.1246 -0.8593
vn -0.4973 -0.1039 -0.8613
vn -0.4757 -0.3077 -0.8240
vn 0.0939 -0.1973 -0.9758
vn 0.4593 -0.3950 -0.7956
vn -0.8049 0.2045 0.5570
vn 0.9325 -0.3611 -0.0000
vn 0.9938 -0.1110 -0.0000
vn -0.8564 0.1863 -0.4816
vn -0.1811 -0.1988 0.9632
vn 0.7600 0.2091 -0.6154
vn -0.8663 -0.1879 -0.4628
vn -0.9440 -0.1524 -0.2925
vn -0.8631 -0.2534 -0.4369
vn 0.9411 0.3380 -0.0000
vn 0.9626 0.2235 0.1533
vn 0.9197 0.2970 -0.2569
vn 0.7693 0.1976 -0.6076
vn 0.4793 0.2850 -0.8301
vn -0.1548 -0.1686 0.9734
vn 0.5380 0.2464 -0.8061
vn -0.5429 -0.4073 0.7344
vn 0.4770 -0.2997 0.8262
vn 0.8892 -0.2308 0.3949
vn 0.9681 -0.2107 0.1356
vn 0.8393 -0.4829 0.2497
vn 0.7374 -0.3291 -0.5898
vn 0.6308 -0.1395 -0.7633
vn 0.5477 -0.1791 -0.8173
vn 0.5291 -0.5487 -0.6473
vn 0.2039 -0.3448 -0.9163
vn 0.3996 -0.0926 -0.9120
vn -0.9570 -0.2353 -0.1698
vn -0.8299 -0.4741 -0.2940
vn 0.4997 -0.1213 -0.8577
vn -0.3508 -0.9236 0.1544
vn 0.5012 -0.5697 -0.6513
vn 0.5036 -0.5726 -0.6470
vn 0.3452 -0.9056 -0.2465
vn 0.7767 0.3975 0.4887
vn 0.3034 0.4066 0.8617
vn -0.8569 0.4356 0.2756
vn -0.7092 0.3964 -0.5830
vn -0.3523 0.3927 -0.8495
vn 0.9506 0.3103 0.0070
vn -0.0313 0.9995 -0.0108
vt -1.771654 2.029648
vt 1.771654 2.029648
vt 2.952756 8.683296
vt 2.952756 3.425127
vt -2.952756 8.683296
vt -2.952756 3.425127
vt 1.771654 6.262661
vt -1.771654 6.262661
vt -2.952756 2.878573
vt -2.952756 8.477011
vt 1.771654 5.491253
vt -1.771654 5.491253
vt 2.952756 8.477011
vt 2.952756 2.878573
vt 1.771654 2.126548
vt -1.771654 2.126548
vt 1.771654 4.515703
vt -1.771654 4.515703
vt 2.952756 8.249234
vt 2.952756 2.176559
vt 1.771654 2.251677
vt -1.771654 2.251677
vt -2.952756 8.249234
vt -2.952756 2.176559
vt -2.952756 3.305503
vt -2.952756 8.635981
vt -1.771654 2.050728
vt 1.771654 2.050728
vt 2.952756 8.635981
vt 2.952756 3.305503
vt 1.771654 6.093000
vt -1.771654 6.093000
vt 2.952756 8.477011
vt 2.952756 2.878573
vt 1.771654 2.126548
vt 1.771654 5.491253
vt -1.771654 2.126548
vt -2.952756 2.878573
vt -2.952756 8.477011
vt -1.771654 5.491253
vt 2.952756 1.773530
vt 2.952756 8.137023
vt -2.952756 1.773530
vt -2.952756 8.137023
vt 1.771654 3.964245
vt 1.771654 2.322596
vt -1.771654 2.322596
vt -1.771654 3.964245
vt 0.000000 0.000000
vt -2.459123 9.129490
vt 0.000000 10.838120
vt 2.459123 9.129490
vt 0.000000 0.000000
vt 0.000000 0.000000
vt 0.000000 9.731576
vt 0.000000 0.000000
vt -2.459123 8.157380
vt 2.459123 6.941836
vt -2.459123 6.941836
vt 0.000000 8.352628
vt 2.459123 8.914949
vt -2.459123 8.914949
vt -0.000000 10.593650
vt -0.000000 9.731576
vt 2.459123 8.157380
vt 0.000000 0.000000
vt -2.459123 8.157380
s 0
usemtl green.016
f 11/15/1 17/22/1 18/23/1 10/14/1
f 5/7/2 4/6/2 3/4/2
f 6/8/3 5/7/3 4/6/3
f 3/3/4 2/2/4 4/5/4
f 1/1/4 4/5/4 2/2/4
f 10/14/5 7/9/5 8/11/5
f 9/12/5 8/11/5 7/9/5
f 7/10/6 11/15/6 10/13/6
f 12/16/7 7/10/7 11/15/7
f 15/20/8 18/24/8 13/17/8
f 14/18/8 13/17/8 18/24/8
f 18/23/9 15/19/9 17/22/9
f 16/21/9 17/22/9 15/19/9
f 22/30/10 19/25/10 23/31/10
f 24/32/10 23/31/10 19/25/10
f 20/27/11 19/26/11 21/28/11
f 22/29/11 21/28/11 19/26/11
f 29/38/12 30/40/12 25/34/12
f 27/36/12 25/34/12 30/40/12
f 29/39/13 25/33/13 28/37/13
f 26/35/13 28/37/13 25/33/13
f 31/41/14 32/43/14 33/45/14
f 36/48/14 33/45/14 32/43/14
f 34/46/15 35/47/15 31/42/15
f 32/44/15 31/42/15 35/47/15
f 38/51/16 39/52/16 37/50/16
f 45/60/17 43/58/17 44/59/17
f 48/63/18 46/61/18 47/62/18
f 47/62/19 46/61/19 23/31/19 24/32/19
f 13/17/20 24/32/20 19/25/20 15/20/20
f 44/59/21 43/58/21 13/17/21 14/18/21
f 14/18/22 8/11/22 10/14/22 18/24/22
f 42/56/23 40/53/23 8/11/23 9/12/23
f 40/53/24 42/56/24 41/54/24
f 9/12/25 5/7/25 3/4/25 7/9/25
f 33/45/26 6/8/26 4/6/26 31/41/26
f 36/48/27 27/36/27 25/34/27 32/43/27
f 23/31/28 30/40/28 29/38/28 22/30/28
f 51/66/29 23/31/29 46/61/29
f 23/31/30 51/66/30 30/40/30
f 30/40/31 27/36/31 51/66/31
f 51/66/32 27/36/32 49/64/32
f 49/64/33 27/36/33 50/65/33
f 27/36/34 36/48/34 50/65/34
f 33/45/35 50/65/35 36/48/35
f 6/8/36 33/45/36 37/49/36
f 50/65/37 33/45/37 37/49/37
f 49/64/38 38/51/38 37/50/38 33/45/38 50/65/38
f 37/50/39 39/52/39 6/8/39
f 6/8/39 39/52/39 5/7/39
f 42/56/40 9/12/40 5/7/40 39/52/40
f 41/55/41 42/57/41 39/52/41
f 41/55/42 39/52/42 38/51/42
f 14/18/43 8/11/43 44/59/43
f 8/11/44 40/53/44 44/59/44
f 45/60/45 44/59/45 40/53/45
f 41/55/46 45/60/46 40/53/46
f 24/32/47 13/17/47 43/58/47
f 47/62/48 24/32/48 43/58/48
f 46/61/49 49/64/49 51/67/49
f 48/63/50 49/64/50 46/61/50
f 43/58/51 45/60/51 47/62/51
f 49/64/52 48/63/52 38/51/52
f 47/62/53 45/60/53 48/63/53
f 45/60/54 41/55/54 48/63/54
f 41/55/55 38/51/55 48/63/55
f 2/2/56 3/4/56 7/10/56 12/16/56
f 34/46/57 31/42/57 4/6/57 1/1/57
f 26/35/58 25/34/58 32/44/58 35/47/58
f 21/28/59 22/30/59 29/39/59 28/37/59
f 16/21/60 15/20/60 19/26/60 20/27/60
f 11/15/61 17/22/61 2/2/61 12/16/61
f 34/46/62 1/1/62 2/2/62 17/22/62 16/21/62 20/27/62 21/28/62 28/37/62 26/35/62 35/47/62
