# Blender v2.78 (sub 0) OBJ File: ''
# www.blender.org
mtllib MayonnaiseJar.mtl
o glass.001
v -0.059860 0.034560 0.142571
v 0.000000 0.057600 0.000000
v -0.049883 0.028800 0.000000
v 0.000000 0.069120 0.142571
v 0.000000 -0.069120 0.142571
v -0.049883 -0.028800 0.000000
v 0.000000 -0.057600 0.000000
v -0.059860 -0.034560 0.142571
v 0.049883 -0.028800 0.000000
v 0.059860 0.034560 0.142571
v 0.059860 -0.034560 0.142571
v 0.049883 0.028800 0.000000
v 0.048348 0.027913 0.142571
v 0.000000 -0.055827 0.142571
v 0.048348 -0.027913 0.142571
v -0.048348 -0.027913 0.142571
v 0.000000 0.055827 0.142571
v -0.048348 0.027913 0.142571
vt 0.0000 0.0000
vt 0.0000 0.0000
vt 0.0000 0.0000
vt 0.0000 0.0000
vt 0.0000 0.0000
vt 0.0000 0.0000
vt 0.0000 0.0000
vt 0.0000 0.0000
vt 0.0000 0.0000
vt 0.0000 0.0000
vt 0.0000 0.0000
vt 0.0000 0.0000
vt 0.0000 0.0000
vt 0.0000 0.0000
vt 0.0000 0.0000
vt 0.0000 0.0000
vt 0.0000 0.0000
vt 0.0000 0.0000
vn -0.4988 0.8639 -0.0698
vn -0.4988 -0.8639 -0.0698
vn 0.9976 0.0000 -0.0698
vn 0.4988 -0.8639 -0.0698
vn 0.4988 0.8639 -0.0698
vn -0.9976 0.0000 -0.0698
vn 0.0000 0.0000 -1.0000
vn -0.0000 0.0000 1.0000
usemtl _defaultMat.001
s 1
f 1/1/1 2/2/1 3/3/1
f 2/2/1 1/1/1 4/4/1
f 5/5/2 6/6/2 7/7/2
f 6/6/2 5/5/2 8/8/2
f 9/9/3 10/10/3 11/11/3
f 10/10/3 9/9/3 12/12/3
f 11/11/4 7/7/4 9/9/4
f 7/7/4 11/11/4 5/5/4
f 4/4/5 12/12/5 2/2/5
f 12/12/5 4/4/5 10/10/5
f 1/1/6 6/6/6 8/8/6
f 6/6/6 1/1/6 3/3/6
f 2/2/7 6/6/7 3/3/7
f 6/6/7 2/2/7 7/7/7
f 7/7/7 2/2/7 12/12/7
f 7/7/7 12/12/7 9/9/7
f 13/13/8 14/14/8 15/15/8
f 16/16/8 14/14/8 13/13/8
f 17/17/8 18/18/8 13/13/8
f 16/16/8 13/13/8 18/18/8
f 8/8/8 16/16/8 1/1/8
f 16/16/8 8/8/8 5/5/8
f 16/16/8 5/5/8 14/14/8
f 14/14/8 5/5/8 11/11/8
f 14/14/8 11/11/8 15/15/8
f 15/15/8 11/11/8 13/13/8
f 18/18/8 1/1/8 16/16/8
f 1/1/8 18/18/8 4/4/8
f 4/4/8 18/18/8 17/17/8
f 4/4/8 17/17/8 13/13/8
f 4/4/8 13/13/8 10/10/8
f 10/10/8 13/13/8 11/11/8
