# Blender v2.78 (sub 0) OBJ File: ''
# www.blender.org
mtllib mayonnaiseParticle.mtl
o Cube.006
v 0.007715 0.007715 0.007715
v 0.007715 -0.007715 0.007715
v 0.007715 -0.007715 -0.007715
v 0.007715 0.007715 -0.007715
v -0.007715 -0.007715 0.007715
v -0.007715 -0.007715 -0.007715
v -0.007715 0.007715 0.007715
v -0.007715 0.007715 -0.007715
vt 0.3750 0.0000
vt 0.3750 0.2500
vt 0.6250 0.2500
vt 0.6250 0.0000
vt 0.3750 0.5000
vt 0.6250 0.5000
vt 0.3750 0.7500
vt 0.6250 0.7500
vt 0.3750 1.0000
vt 0.6250 1.0000
vt 0.1250 0.5000
vt 0.1250 0.7500
vt 0.8750 0.7500
vt 0.8750 0.5000
vn 1.0000 0.0000 0.0000
vn 0.0000 -1.0000 0.0000
vn -1.0000 0.0000 0.0000
vn 0.0000 1.0000 0.0000
vn 0.0000 0.0000 1.0000
vn 0.0000 0.0000 -1.0000
usemtl Material.003
s 1
f 1/1/1 2/2/1 3/3/1 4/4/1
f 2/2/2 5/5/2 6/6/2 3/3/2
f 5/5/3 7/7/3 8/8/3 6/6/3
f 7/7/4 1/9/4 4/10/4 8/8/4
f 2/11/5 1/12/5 7/7/5 5/5/5
f 6/6/6 8/8/6 4/13/6 3/14/6
