# Blender v2.78 (sub 0) OBJ File: ''
# www.blender.org
mtllib mayonnaiseBottle.mtl
o bottleMusterd
v 0.036027 0.020800 -0.092810
v 0.036027 -0.020800 0.037190
v 0.036027 -0.020800 -0.092810
v 0.036027 0.020800 0.037190
v 0.000000 0.041600 0.037190
v 0.000000 0.041600 -0.092810
v -0.029768 0.017187 -0.092810
v 0.000000 0.034373 -0.103210
v -0.029768 0.017187 -0.103210
v 0.000000 0.034373 -0.092810
v -0.036027 0.020800 0.037190
v -0.036027 -0.020800 -0.092810
v -0.036027 -0.020800 0.037190
v -0.036027 0.020800 -0.092810
v -0.032063 -0.018512 0.045510
v -0.024618 -0.014213 0.045510
v -0.032063 0.018512 0.045510
v 0.000000 -0.037024 0.045510
v 0.000000 -0.028427 0.045510
v 0.032063 -0.018512 0.045510
v 0.024618 -0.014213 0.045510
v 0.024618 0.014213 0.045510
v -0.024618 0.014213 0.045510
v 0.000000 0.037024 0.045510
v 0.000000 0.028427 0.045510
v 0.032063 0.018512 0.045510
v 0.029768 0.017187 -0.103210
v 0.029768 0.017187 -0.092810
v 0.003494 -0.003494 0.093350
v -0.003494 0.003494 0.093350
v -0.003494 -0.003494 0.093350
v 0.003494 0.003494 0.093350
v 0.029768 -0.017187 -0.092810
v 0.029768 -0.017187 -0.103210
v -0.029768 -0.017187 -0.103210
v 0.000000 -0.034373 -0.103210
v 0.000000 -0.034373 -0.092810
v -0.029768 -0.017187 -0.092810
v 0.000000 -0.041600 -0.092810
v 0.000000 -0.041600 0.037190
v -0.024618 0.014213 0.059030
v 0.000000 0.028427 0.059030
v 0.024618 -0.014213 0.059030
v 0.000000 -0.028427 0.059030
v 0.024618 0.014213 0.059030
v -0.024618 -0.014213 0.059030
v -0.006240 -0.006240 0.059030
v 0.006240 -0.006240 0.059030
v 0.006240 0.006240 0.059030
v -0.006240 0.006240 0.059030
vt 7.8740 3.9370
vt -7.8740 53.1496
vt -7.8740 3.9370
vt 7.8740 53.1496
vt 7.8740 53.1496
vt -7.8740 3.9370
vt 7.8740 3.9370
vt -7.8740 53.1496
vt 6.5062 3.9370
vt -6.5062 0.0000
vt 6.5062 0.0000
vt -6.5062 3.9370
vt -7.8740 53.1496
vt 7.8740 3.9370
vt 7.8740 53.1496
vt -7.8740 3.9370
vt -12.1380 -7.0079
vt -9.3194 -5.3806
vt -12.1380 7.0079
vt 0.0000 -14.0157
vt 0.0000 -10.7612
vt 12.1380 -7.0079
vt 9.3194 -5.3806
vt 9.3194 5.3806
vt -9.3194 5.3806
vt 0.0000 14.0157
vt 0.0000 10.7612
vt 12.1380 7.0079
vt 7.8740 53.1496
vt -7.8740 3.9370
vt 7.8740 3.9370
vt -7.8740 53.1496
vt 6.5062 3.9370
vt -6.5062 0.0000
vt 6.5062 0.0000
vt -6.5062 3.9370
vt 1.3228 -1.3228
vt -1.3228 1.3228
vt -1.3228 -1.3228
vt 1.3228 1.3228
vt 6.5062 0.0000
vt -6.5062 3.9370
vt -6.5062 0.0000
vt 6.5062 3.9370
vt 0.0000 13.0123
vt 11.2690 -6.5062
vt 11.2690 6.5062
vt 0.0000 -13.0123
vt -11.2690 6.5062
vt -11.2690 -6.5062
vt 6.5062 3.9370
vt -6.5062 0.0000
vt 6.5062 0.0000
vt -6.5062 3.9370
vt 13.6382 7.8740
vt 11.2690 6.5062
vt 13.6382 -7.8740
vt 0.0000 15.7480
vt 0.0000 13.0123
vt -13.6382 7.8740
vt -11.2690 6.5062
vt -11.2690 -6.5062
vt 11.2690 -6.5062
vt 0.0000 -15.7480
vt 0.0000 -13.0123
vt -13.6382 -7.8740
vt -6.5062 3.9370
vt 6.5062 0.0000
vt 6.5062 3.9370
vt -6.5062 0.0000
vt 6.5062 3.9370
vt -6.5062 0.0000
vt 6.5062 0.0000
vt -6.5062 3.9370
vt 7.8740 53.1496
vt -7.8740 3.9370
vt 7.8740 3.9370
vt -7.8740 53.1496
vt 7.8740 53.1496
vt -7.8740 3.9370
vt 7.8740 3.9370
vt -7.8740 53.1496
vt 7.0079 45.6083
vt -7.8740 42.1196
vt 7.8740 42.1196
vt -7.0079 45.6083
vt 7.0079 45.6083
vt -7.8740 42.1196
vt 7.8740 42.1196
vt -7.0079 45.6083
vt 5.3806 61.4173
vt -5.3806 56.2992
vt 5.3806 56.2992
vt -5.3806 61.4173
vt 5.3806 61.4173
vt -5.3806 56.2992
vt 5.3806 56.2992
vt -5.3806 61.4173
vt 5.3806 56.2992
vt -5.3806 61.4173
vt -5.3806 56.2992
vt 5.3806 61.4173
vt 7.0079 45.6083
vt -7.8740 42.1196
vt 7.8740 42.1196
vt -7.0079 45.6083
vt 7.0079 45.6083
vt -7.8740 42.1196
vt 7.8740 42.1196
vt -7.0079 45.6083
vt -5.3806 61.4173
vt 5.3806 56.2992
vt 5.3806 61.4173
vt -5.3806 56.2992
vt 7.8740 42.1196
vt -7.0079 45.6083
vt -7.8740 42.1196
vt 7.0079 45.6083
vt 0.0000 -10.7612
vt -9.3194 5.3806
vt -9.3194 -5.3806
vt -2.3622 -2.3622
vt 2.3622 -2.3622
vt 9.3194 -5.3806
vt 2.3622 2.3622
vt -2.3622 2.3622
vt 0.0000 10.7612
vt 9.3194 5.3806
vt 5.3806 61.4173
vt -5.3806 56.2992
vt 5.3806 56.2992
vt -5.3806 61.4173
vt 5.3806 61.4173
vt -5.3806 56.2992
vt 5.3806 56.2992
vt -5.3806 61.4173
vt 7.0079 45.6083
vt -7.8740 42.1196
vt 7.8740 42.1196
vt -7.0079 45.6083
vt 1.3228 74.0670
vt -2.3622 61.0334
vt 2.3622 61.0334
vt -1.3228 74.0670
vt 1.3228 74.0670
vt -2.3622 61.0334
vt 2.3622 61.0334
vt -1.3228 74.0670
vt 1.3228 74.0670
vt -2.3622 61.0334
vt 2.3622 61.0334
vt -1.3228 74.0670
vt 2.3622 61.0334
vt -1.3228 74.0670
vt -2.3622 61.0334
vt 1.3228 74.0670
vn 1.0000 0.0000 0.0000
vn 0.5000 0.8660 0.0000
vn -0.5000 0.8660 0.0000
vn -1.0000 0.0000 0.0000
vn 0.0000 0.0000 1.0000
vn -0.0000 0.0000 -1.0000
vn 0.5000 -0.8660 0.0000
vn -0.5000 -0.8660 0.0000
vn -0.9028 0.0000 0.4300
vn -0.4514 -0.7819 0.4300
vn -0.4514 0.7819 0.4300
vn 0.4514 -0.7819 0.4300
vn 0.9028 0.0000 0.4300
vn 0.4514 0.7819 0.4300
vn -0.9968 0.0000 0.0797
vn 0.0000 0.9968 0.0797
vn 0.0000 -0.9968 0.0797
vn 0.9968 0.0000 0.0797
usemtl yellow.010
s 1
f 1/1/1 2/2/1 3/3/1
f 2/2/1 1/1/1 4/4/1
f 5/5/2 1/6/2 6/7/2
f 1/6/2 5/5/2 4/8/2
f 7/9/3 8/10/3 9/11/3
f 8/10/3 7/9/3 10/12/3
f 11/13/4 12/14/4 13/15/4
f 12/14/4 11/13/4 14/16/4
f 15/17/5 16/18/5 17/19/5
f 16/18/5 15/17/5 18/20/5
f 16/18/5 18/20/5 19/21/5
f 19/21/5 18/20/5 20/22/5
f 19/21/5 20/22/5 21/23/5
f 21/23/5 20/22/5 22/24/5
f 23/25/5 17/19/5 16/18/5
f 17/19/5 23/25/5 24/26/5
f 24/26/5 23/25/5 25/27/5
f 24/26/5 25/27/5 22/24/5
f 24/26/5 22/24/5 26/28/5
f 26/28/5 22/24/5 20/22/5
f 11/29/3 6/30/3 14/31/3
f 6/30/3 11/29/3 5/32/3
f 10/33/2 27/34/2 8/35/2
f 27/34/2 10/33/2 28/36/2
f 29/37/5 30/38/5 31/39/5
f 30/38/5 29/37/5 32/40/5
f 27/41/1 33/42/1 34/43/1
f 33/42/1 27/41/1 28/44/1
f 8/45/6 35/46/6 9/47/6
f 35/46/6 8/45/6 36/48/6
f 36/48/6 8/45/6 27/49/6
f 36/48/6 27/49/6 34/50/6
f 33/51/7 36/52/7 34/53/7
f 36/52/7 33/51/7 37/54/7
f 14/55/6 7/56/6 12/57/6
f 7/56/6 14/55/6 6/58/6
f 7/56/6 6/58/6 10/59/6
f 10/59/6 6/58/6 1/60/6
f 10/59/6 1/60/6 28/61/6
f 28/61/6 1/60/6 33/62/6
f 38/63/6 12/57/6 7/56/6
f 12/57/6 38/63/6 39/64/6
f 39/64/6 38/63/6 37/65/6
f 39/64/6 37/65/6 33/62/6
f 39/64/6 33/62/6 3/66/6
f 3/66/6 33/62/6 1/60/6
f 7/67/4 35/68/4 38/69/4
f 35/68/4 7/67/4 9/70/4
f 37/71/8 35/72/8 36/73/8
f 35/72/8 37/71/8 38/74/8
f 2/75/7 39/76/7 3/77/7
f 39/76/7 2/75/7 40/78/7
f 40/79/8 12/80/8 39/81/8
f 12/80/8 40/79/8 13/82/8
f 15/83/9 11/84/9 13/85/9
f 11/84/9 15/83/9 17/86/9
f 18/87/10 13/88/10 40/89/10
f 13/88/10 18/87/10 15/90/10
f 41/91/3 25/92/3 23/93/3
f 25/92/3 41/91/3 42/94/3
f 43/95/7 19/96/7 21/97/7
f 19/96/7 43/95/7 44/98/7
f 22/99/1 43/100/1 21/101/1
f 43/100/1 22/99/1 45/102/1
f 17/103/11 5/104/11 11/105/11
f 5/104/11 17/103/11 24/106/11
f 20/107/12 40/108/12 2/109/12
f 40/108/12 20/107/12 18/110/12
f 41/111/4 16/112/4 46/113/4
f 16/112/4 41/111/4 23/114/4
f 4/115/13 20/116/13 2/117/13
f 20/116/13 4/115/13 26/118/13
f 44/119/5 41/120/5 46/121/5
f 41/120/5 44/119/5 47/122/5
f 47/122/5 44/119/5 48/123/5
f 48/123/5 44/119/5 43/124/5
f 48/123/5 43/124/5 49/125/5
f 50/126/5 41/120/5 47/122/5
f 41/120/5 50/126/5 42/127/5
f 42/127/5 50/126/5 49/125/5
f 42/127/5 49/125/5 45/128/5
f 45/128/5 49/125/5 43/124/5
f 44/129/8 16/130/8 19/131/8
f 16/130/8 44/129/8 46/132/8
f 42/133/2 22/134/2 25/135/2
f 22/134/2 42/133/2 45/136/2
f 24/137/14 4/138/14 5/139/14
f 4/138/14 24/137/14 26/140/14
f 31/141/15 50/142/15 47/143/15
f 50/142/15 31/141/15 30/144/15
f 30/145/16 49/146/16 50/147/16
f 49/146/16 30/145/16 32/148/16
f 29/149/17 47/150/17 48/151/17
f 47/150/17 29/149/17 31/152/17
f 49/153/18 29/154/18 48/155/18
f 29/154/18 49/153/18 32/156/18
