# Blender v2.78 (sub 0) OBJ File: ''
# www.blender.org
mtllib edge.mtl
o cuttingBoard.003_cuttingBoard.004
v 0.177608 -0.267608 0.022168
v 0.177608 0.267608 0.022168
v 0.217500 -0.271797 0.022168
v 0.181797 0.307500 0.022168
v 0.217500 0.271797 0.022168
v -0.177608 -0.267608 0.022168
v -0.181797 -0.307500 0.022168
v -0.177608 0.267608 0.022168
v -0.217500 0.271797 0.022168
v -0.217500 -0.271797 0.022168
v 0.181797 -0.307500 0.022168
v 0.207043 -0.297044 0.022168
v -0.181797 0.307500 0.022168
v -0.207043 -0.297044 0.022168
v 0.207043 0.297044 0.022168
v -0.207043 0.297044 0.022168
v 0.177608 -0.267608 -0.022168
v 0.217500 -0.271797 -0.022168
v 0.177608 0.267608 -0.022168
v 0.217500 0.271797 -0.022168
v 0.181797 0.307500 -0.022168
v -0.177608 -0.267608 -0.022168
v -0.181797 -0.307500 -0.022168
v -0.177608 0.267608 -0.022168
v -0.217500 0.271797 -0.022168
v -0.217500 -0.271797 -0.022168
v 0.181797 -0.307500 -0.022168
v 0.207043 -0.297044 -0.022168
v -0.181797 0.307500 -0.022168
v -0.207043 -0.297044 -0.022168
v 0.207043 0.297044 -0.022168
v -0.207043 0.297044 -0.022168
vt 0.0000 0.0000
vt 0.0000 0.0000
vt 0.0000 0.0000
vt 9.3233 14.0477
vt 9.5432 16.1417
vt 14.2676 1.5748
vt -9.3233 -14.0477
vt -9.5432 -16.1417
vt 0.0000 0.0000
vt 0.0000 0.0000
vt -14.2676 1.5748
vt 14.2676 1.5748
vt 9.5432 1.5748
vt 0.0000 0.0000
vt 0.0000 0.0000
vt 0.0000 0.0000
vt 0.0000 0.0000
vt 0.0000 0.0000
vt 0.0000 0.0000
vt 0.0000 0.0000
vt 9.5432 1.5748
vt 0.0000 0.0000
vt 0.0000 0.0000
vt 0.0000 0.0000
vt 0.0000 0.0000
vt 9.3233 14.0477
vt 14.2676 1.5748
vt 9.5432 16.1417
vt -9.3233 -14.0477
vt -9.5432 -16.1417
vt 0.0000 0.0000
vt -14.2676 1.5748
vt 0.0000 0.0000
vt 14.2676 1.5748
vt 9.5432 1.5748
vt 0.0000 0.0000
vt 0.0000 0.0000
vt 0.0000 0.0000
vt 0.0000 0.0000
vt 0.0000 0.0000
vt 0.0000 0.0000
vt 0.0000 0.0000
vt 9.5432 1.5748
vt 0.0000 0.0000
vn 0.3015 -0.3015 -0.9045
vn 0.3015 0.3015 -0.9045
vn -0.7319 0.1456 -0.6657
vn -0.1456 -0.7319 -0.6657
vn -0.7319 -0.1456 -0.6657
vn -0.3015 -0.3015 -0.9045
vn 0.1456 0.7319 -0.6657
vn -0.3015 0.3015 -0.9045
vn 0.7319 -0.1456 -0.6657
vn 0.7319 0.1456 -0.6657
vn -0.1456 0.7319 -0.6657
vn -0.5490 0.5490 -0.6303
vn 0.1456 -0.7319 -0.6657
vn 0.5490 0.5490 -0.6303
vn -0.5490 -0.5490 -0.6303
vn 0.5490 -0.5490 -0.6303
vn 0.3015 -0.3015 0.9045
vn -0.7319 0.1456 0.6657
vn 0.3015 0.3015 0.9045
vn -0.7319 -0.1456 0.6657
vn -0.1456 -0.7319 0.6657
vn -0.3015 -0.3015 0.9045
vn 0.1456 0.7319 0.6657
vn -0.3015 0.3015 0.9045
vn 0.7319 -0.1456 0.6657
vn 0.7319 0.1456 0.6657
vn -0.1456 0.7319 0.6657
vn -0.5490 0.5490 0.6303
vn 0.1456 -0.7319 0.6657
vn 0.5490 0.5490 0.6303
vn -0.5490 -0.5490 0.6303
vn 0.5490 -0.5490 0.6303
usemtl brownLight.001
s 1
f 1/1/1 2/2/2 3/3/3
f 2/4/2 4/5/4 5/6/5
f 6/7/6 1/1/1 7/8/7
f 8/9/8 6/10/6 9/11/9
f 6/10/6 10/12/10 9/11/9
f 2/2/2 5/6/5 3/3/3
f 6/7/6 7/8/7 10/12/10
f 11/13/11 3/3/3 12/14/12
f 13/15/13 4/16/4 8/9/8
f 2/4/2 8/9/8 4/5/4
f 11/17/11 7/18/7 1/1/1
f 14/19/14 10/12/10 7/18/7
f 5/6/5 4/16/4 15/20/15
f 9/11/9 13/15/13 8/9/8
f 11/17/11 1/1/1 3/3/3
f 13/21/13 9/11/9 16/22/16
f 17/23/17 18/24/18 19/25/19
f 19/26/19 20/27/20 21/28/21
f 22/29/22 23/30/23 17/23/17
f 24/31/24 25/32/25 22/33/22
f 22/33/22 25/32/25 26/34/26
f 19/25/19 18/24/18 20/27/20
f 22/29/22 26/34/26 23/30/23
f 27/35/27 28/36/28 18/24/18
f 29/37/29 24/31/24 21/38/21
f 19/26/19 21/28/21 24/31/24
f 27/39/27 17/23/17 23/40/23
f 30/41/30 23/40/23 26/34/26
f 20/27/20 31/42/31 21/38/21
f 25/32/25 24/31/24 29/37/29
f 27/39/27 18/24/18 17/23/17
f 29/43/29 32/44/32 25/32/25
f 2/2/2 1/1/1 17/23/17 19/25/19
f 1/1/1 6/7/6 22/29/22 17/23/17
f 3/3/3 5/6/5 20/27/20 18/24/18
f 8/9/8 2/4/2 19/26/19 24/31/24
f 13/21/13 16/22/16 32/44/32 29/43/29
f 16/22/16 9/11/9 25/32/25 32/44/32
f 10/12/10 14/19/14 30/41/30 26/34/26
f 5/6/5 15/20/15 31/42/31 20/27/20
f 14/19/14 7/18/7 23/40/23 30/41/30
f 15/20/15 4/16/4 21/38/21 31/42/31
f 7/18/7 11/17/11 27/39/27 23/40/23
f 11/13/11 12/14/12 28/36/28 27/35/27
f 4/16/4 13/15/13 29/37/29 21/38/21
f 9/11/9 10/12/10 26/34/26 25/32/25
f 6/10/6 8/9/8 24/31/24 22/33/22
f 12/14/12 3/3/3 18/24/18 28/36/28
