# Blender v2.78 (sub 0) OBJ File: ''
# www.blender.org
mtllib edgeCollider.mtl
o cuttingBoard.003_cuttingBoard.002
v 0.177608 0.267608 0.039636
v 0.181797 0.307500 0.039636
v -0.177608 0.267608 0.039636
v -0.181797 0.307500 0.039636
v 0.177608 0.267608 -0.022168
v 0.181797 0.307500 -0.022168
v -0.177608 0.267608 -0.022168
v -0.181797 0.307500 -0.022168
vt 0.0000 0.0000
vt 0.0000 0.0000
vt 0.0000 0.0000
vt 9.3233 14.0477
vt 9.5432 16.1417
vt 0.0000 0.0000
vt 0.0000 0.0000
vt 0.0000 0.0000
vt 9.3233 14.0477
vt 9.5432 16.1417
vn -0.6095 0.5489 0.5720
vn -0.5437 -0.6037 0.5831
vn 0.6095 0.5489 0.5720
vn 0.5437 -0.6037 0.5831
vn -0.6095 0.5489 -0.5720
vn 0.6095 0.5489 -0.5720
vn -0.5437 -0.6037 -0.5831
vn 0.5437 -0.6037 -0.5831
usemtl brownLight.001
s 1
f 4/1/1 3/2/2 2/3/3
f 1/4/4 2/5/3 3/2/2
f 8/6/5 3/2/2 4/1/1
f 8/6/5 6/7/6 7/8/7
f 5/9/8 7/8/7 6/10/6
f 7/8/7 3/2/2 8/6/5
f 5/9/8 6/7/6 2/5/3
f 2/5/3 1/4/4 5/9/8
f 3/2/2 7/8/7 5/9/8 1/4/4
f 2/3/3 6/7/6 8/6/5 4/1/1
o cuttingBoard.003_cuttingBoard.001
v 0.177608 -0.267608 0.039636
v -0.177608 -0.267608 0.039636
v -0.181797 -0.307500 0.039636
v 0.181797 -0.307500 0.039636
v 0.177608 -0.267608 -0.022168
v -0.177608 -0.267608 -0.022168
v -0.181797 -0.307500 -0.022168
v 0.181797 -0.307500 -0.022168
vt -9.3233 -14.0477
vt -9.5432 -16.1417
vt 0.0000 0.0000
vt 0.0000 0.0000
vt 0.0000 0.0000
vt -9.3233 -14.0477
vt 0.0000 0.0000
vt -9.5432 -16.1417
vt 0.0000 0.0000
vt 0.0000 0.0000
vn -0.5437 0.6037 0.5831
vn -0.6095 -0.5489 0.5720
vn 0.5437 0.6037 0.5831
vn 0.6095 -0.5489 0.5720
vn -0.5437 0.6037 -0.5831
vn 0.5437 0.6037 -0.5831
vn -0.6095 -0.5489 -0.5720
vn 0.6095 -0.5489 -0.5720
usemtl brownLight.001
s 1
f 10/11/9 11/12/10 9/13/11
f 12/14/12 9/13/11 11/15/10
f 14/16/13 13/17/14 15/18/15
f 15/19/15 11/15/10 14/16/13
f 16/20/16 13/17/14 9/13/11
f 16/20/16 15/19/15 13/17/14
f 16/20/16 9/13/11 12/14/12
f 14/16/13 11/12/10 10/11/9
f 9/13/11 13/17/14 14/16/13 10/11/9
f 11/15/10 15/19/15 16/20/16 12/14/12
o cuttingBoard.003_cuttingBoard.000
v -0.177608 -0.267608 0.039636
v -0.181797 -0.307500 0.039636
v -0.177608 0.267608 0.039636
v -0.217500 0.271797 0.039636
v -0.217500 -0.271797 0.039636
v -0.181797 0.307500 0.039636
v -0.207043 -0.297044 0.039636
v -0.207043 0.297044 0.039636
v -0.177608 -0.267608 -0.022168
v -0.181797 -0.307500 -0.022168
v -0.177608 0.267608 -0.022168
v -0.217500 0.271797 -0.022168
v -0.217500 -0.271797 -0.022168
v -0.181797 0.307500 -0.022168
v -0.207043 -0.297044 -0.022168
v -0.207043 0.297044 -0.022168
vt 0.0000 0.0000
vt -14.2676 1.5748
vt 0.0000 0.0000
vt 14.2676 1.5748
vt -9.3233 -14.0477
vt -9.5432 -16.1417
vt 0.0000 0.0000
vt 0.0000 0.0000
vt 0.0000 0.0000
vt 9.5432 1.5748
vt 0.0000 0.0000
vt 0.0000 0.0000
vt 0.0000 0.0000
vt 0.0000 0.0000
vt -14.2676 1.5748
vt 14.2676 1.5748
vt -9.3233 -14.0477
vt -9.5432 -16.1417
vt 9.5432 1.5748
vt 0.0000 0.0000
vt 0.0000 0.0000
vt 0.0000 0.0000
vn 0.7175 0.0376 0.6955
vn -0.7319 0.1456 0.6657
vn 0.7175 -0.0376 0.6955
vn -0.7319 -0.1456 0.6657
vn 0.4224 -0.7098 0.5637
vn -0.5490 -0.5490 0.6303
vn 0.4224 0.7098 0.5637
vn -0.5490 0.5490 0.6303
vn 0.7175 0.0376 -0.6955
vn 0.4224 0.7098 -0.5637
vn 0.7175 -0.0376 -0.6955
vn -0.7319 0.1456 -0.6657
vn -0.7319 -0.1456 -0.6657
vn 0.4224 -0.7098 -0.5637
vn -0.5490 -0.5490 -0.6303
vn -0.5490 0.5490 -0.6303
usemtl brownLight.001
s 1
f 19/21/17 20/22/18 17/23/19
f 17/23/19 20/22/18 21/24/20
f 17/25/19 21/24/20 18/26/21
f 23/27/22 18/28/21 21/24/20
f 20/22/18 19/21/17 22/29/23
f 22/30/23 24/31/24 20/22/18
f 27/32/25 30/33/26 19/21/17
f 27/32/25 25/34/27 28/35/28
f 25/34/27 29/36/29 28/35/28
f 25/37/27 26/38/30 29/36/29
f 25/37/27 17/23/19 26/38/30
f 30/39/26 22/30/23 19/21/17
f 31/40/31 29/36/29 26/41/30
f 26/41/30 17/25/19 18/28/21
f 28/35/28 30/33/26 27/32/25
f 30/39/26 28/35/28 32/42/32
f 22/30/23 30/39/26 32/42/32 24/31/24
f 24/31/24 32/42/32 28/35/28 20/22/18
f 21/24/20 29/36/29 31/40/31 23/27/22
f 23/27/22 31/40/31 26/41/30 18/28/21
f 20/22/18 28/35/28 29/36/29 21/24/20
f 17/23/19 25/34/27 27/32/25 19/21/17
o cuttingBoard.003_cuttingBoard.004
v 0.177608 -0.267608 0.039636
v 0.177608 0.267608 0.039636
v 0.217500 -0.271797 0.039636
v 0.181797 0.307500 0.039636
v 0.217500 0.271797 0.039636
v 0.181797 -0.307500 0.039636
v 0.207043 -0.297044 0.039636
v 0.207043 0.297044 0.039636
v 0.177608 -0.267608 -0.022168
v 0.217500 -0.271797 -0.022168
v 0.177608 0.267608 -0.022168
v 0.217500 0.271797 -0.022168
v 0.181797 0.307500 -0.022168
v 0.181797 -0.307500 -0.022168
v 0.207043 -0.297044 -0.022168
v 0.207043 0.297044 -0.022168
vt 0.0000 0.0000
vt 0.0000 0.0000
vt 0.0000 0.0000
vt 9.3233 14.0477
vt 14.2676 1.5748
vt 9.5432 16.1417
vt 9.5432 1.5748
vt 0.0000 0.0000
vt 0.0000 0.0000
vt 0.0000 0.0000
vt 0.0000 0.0000
vt 0.0000 0.0000
vt 0.0000 0.0000
vt 0.0000 0.0000
vt 9.3233 14.0477
vt 9.5432 16.1417
vt 14.2676 1.5748
vt 9.5432 1.5748
vt 0.0000 0.0000
vt 0.0000 0.0000
vt 0.0000 0.0000
vt 0.0000 0.0000
vn -0.7175 -0.0376 0.6955
vn 0.7319 -0.1456 0.6657
vn -0.7175 0.0376 0.6955
vn 0.7319 0.1456 0.6657
vn -0.4224 0.7098 0.5637
vn -0.4224 -0.7098 0.5637
vn 0.5490 -0.5490 0.6303
vn 0.5490 0.5490 0.6303
vn -0.7175 -0.0376 -0.6955
vn -0.7175 0.0376 -0.6955
vn 0.7319 -0.1456 -0.6657
vn -0.4224 0.7098 -0.5637
vn 0.7319 0.1456 -0.6657
vn -0.4224 -0.7098 -0.5637
vn 0.5490 -0.5490 -0.6303
vn 0.5490 0.5490 -0.6303
usemtl brownLight.001
s 1
f 33/43/33 35/44/34 34/45/35
f 34/46/35 37/47/36 36/48/37
f 34/45/35 35/44/34 37/47/36
f 38/49/38 39/50/39 35/44/34
f 37/47/36 40/51/40 36/52/37
f 38/53/38 35/44/34 33/43/33
f 41/54/41 43/55/42 42/56/43
f 43/57/42 45/58/44 44/59/45
f 43/55/42 44/59/45 42/56/43
f 46/60/46 42/56/43 47/61/47
f 44/59/45 45/62/44 48/63/48
f 46/64/46 41/54/41 42/56/43
f 43/55/42 34/45/35 45/58/44
f 34/45/35 43/55/42 41/54/41 33/43/33
f 35/44/34 42/56/43 44/59/45 37/47/36
f 37/47/36 44/59/45 48/63/48 40/51/40
f 40/51/40 48/63/48 45/62/44 36/52/37
f 38/49/38 46/60/46 47/61/47 39/50/39
f 39/50/39 47/61/47 42/56/43 35/44/34
f 36/48/37 45/58/44 34/46/35
f 46/64/46 38/49/38 41/54/41
f 38/49/38 33/43/33 41/54/41
