# Blender 3.4.1
# www.blender.org
mtllib CookieSheetCollider.mtl
o bakingTray1.001_ID14.000
v -0.219698 -0.107729 -0.041192
v -0.140960 -0.167904 -0.041192
v 0.140960 0.167904 -0.041192
v 0.219698 0.107729 -0.041192
v 0.134736 0.155897 -0.032085
v -0.134736 0.155897 -0.032085
v 0.219698 -0.107729 -0.041192
v 0.140960 -0.167904 -0.041192
v -0.203987 0.102973 -0.032085
v -0.203987 -0.102973 -0.032085
v -0.134736 -0.155897 -0.032085
v 0.134736 -0.155897 -0.032085
v 0.203987 0.102973 -0.032085
v 0.203987 -0.102973 -0.032085
v -0.219698 0.107729 -0.041192
v -0.140960 0.167904 -0.041192
vn -0.2797 0.1613 0.9464
vn -0.2797 -0.1613 0.9464
vn -0.1007 0.3349 0.9368
vn -0.1007 -0.3349 0.9368
vn 0.1007 0.3349 0.9368
vn 0.1007 -0.3349 0.9368
vn 0.2797 0.1613 0.9464
vn 0.2797 -0.1613 0.9464
vn -0.8902 -0.4073 -0.2039
vn -0.8902 0.4073 -0.2039
vn -0.3292 -0.9104 -0.2505
vn -0.3292 0.9104 -0.2505
vn 0.3292 -0.9104 -0.2505
vn 0.3292 0.9104 -0.2505
vn 0.8902 -0.4073 -0.2039
vn 0.8902 0.4073 -0.2039
vt 0.000000 0.000000
vt 0.000000 0.000000
vt 0.000000 0.000000
vt 0.000000 0.000000
vt 0.000000 0.000000
vt 0.000000 0.000000
vt 0.000000 0.000000
vt 0.000000 0.000000
vt 0.000000 0.000000
vt 0.000000 0.000000
vt 0.000000 0.000000
vt 0.000000 0.000000
vt 0.000000 0.000000
vt 0.000000 0.000000
vt 0.000000 0.000000
vt 0.000000 0.000000
s 1
usemtl metalMedium.000
f 9/9/1 10/10/2 6/6/3
f 11/11/4 6/6/3 10/10/2
f 5/5/5 6/6/3 11/11/4
f 12/12/6 5/5/5 11/11/4
f 13/13/7 5/5/5 12/12/6
f 14/14/8 13/13/7 12/12/6
f 1/1/9 15/15/10 2/2/11
f 16/16/12 2/2/11 15/15/10
f 8/8/13 2/2/11 16/16/12
f 3/3/14 8/8/13 16/16/12
f 7/7/15 8/8/13 3/3/14
f 4/4/16 7/7/15 3/3/14
f 14/14/8 7/7/15 4/4/16 13/13/7
f 4/4/16 3/3/14 5/5/5 13/13/7
f 8/8/13 12/12/6 11/11/4 2/2/11
f 12/12/6 8/8/13 7/7/15 14/14/8
f 6/6/3 5/5/5 3/3/14 16/16/12
f 6/6/3 16/16/12 15/15/10 9/9/1
f 9/9/1 15/15/10 1/1/9 10/10/2
f 2/2/11 11/11/4 10/10/2 1/1/9
o bakingTray1.001_ID14.001
v -0.219698 -0.107729 -0.041192
v -0.248258 -0.121733 -0.003386
v -0.203987 0.102973 -0.032085
v -0.203987 -0.102973 -0.032085
v -0.219698 0.107729 -0.041192
v -0.229199 -0.115699 -0.003386
v -0.229199 0.115699 -0.003386
v -0.248258 0.121733 -0.003386
vn -0.6296 -0.7036 0.3295
vn 0.4590 0.5956 0.6592
vn -0.6296 0.7036 0.3295
vn 0.4590 -0.5956 0.6592
vn 0.9018 0.4020 -0.1585
vn 0.9018 -0.4020 -0.1585
vn -0.0865 0.5544 -0.8277
vn -0.0865 -0.5544 -0.8277
vt 0.000000 0.000000
vt 0.000000 0.000000
vt 0.000000 0.000000
vt 0.000000 0.000000
vt 0.000000 0.000000
vt 0.000000 0.000000
vt 0.000000 0.000000
vt 0.000000 0.000000
s 1
usemtl metalMedium.000
f 18/18/17 23/23/18 24/24/19
f 23/23/18 18/18/17 22/22/20
f 23/23/18 22/22/20 19/19/21
f 20/20/22 19/19/21 22/22/20
f 24/24/19 21/21/23 18/18/17
f 17/17/24 18/18/17 21/21/23
f 24/24/19 23/23/18 19/19/21 21/21/23
f 18/18/17 17/17/24 20/20/22 22/22/20
f 19/19/21 20/20/22 17/17/24 21/21/23
o bakingTray1.001_ID14.002
v -0.219698 -0.107729 -0.041192
v -0.140960 -0.167904 -0.041192
v -0.248258 -0.121733 -0.003386
v -0.159284 -0.189732 -0.003386
v -0.203987 -0.102973 -0.032085
v -0.134736 -0.155897 -0.032085
v -0.151389 -0.175166 -0.003386
v -0.229199 -0.115699 -0.003386
vn -0.4870 0.4072 -0.7727
vn 0.4520 -0.4647 -0.7614
vn -0.9513 0.0160 0.3078
vn 0.0172 -0.9305 0.3659
vn 0.9332 0.3517 -0.0734
vn 0.3295 0.9392 -0.0966
vn 0.6514 -0.0446 0.7575
vn -0.0406 0.6661 0.7448
vt 0.000000 0.000000
vt 0.000000 0.000000
vt 0.000000 0.000000
vt 0.000000 0.000000
vt 0.000000 0.000000
vt 0.000000 0.000000
vt 0.000000 0.000000
vt 0.000000 0.000000
s 1
usemtl metalMedium.000
f 25/25/25 26/26/26 27/27/27
f 28/28/28 27/27/27 26/26/26
f 30/30/29 29/29/30 31/31/31
f 32/32/32 31/31/31 29/29/30
f 28/28/28 32/32/32 27/27/27
f 31/31/31 32/32/32 28/28/28
f 27/27/27 32/32/32 29/29/30 25/25/25
f 28/28/28 26/26/26 30/30/29 31/31/31
f 26/26/26 25/25/25 29/29/30 30/30/29
o bakingTray1.001_ID14.003
v -0.140960 -0.167904 -0.041192
v -0.159284 -0.189732 -0.003386
v 0.140960 -0.167904 -0.041192
v 0.159284 -0.189732 -0.003386
v -0.134736 -0.155897 -0.032085
v 0.134736 -0.155897 -0.032085
v 0.151389 -0.175166 -0.003386
v -0.151389 -0.175166 -0.003386
vn 0.5382 -0.0718 -0.8398
vn 0.7766 -0.5271 0.3449
vn -0.5382 -0.0718 -0.8398
vn -0.7766 -0.5271 0.3449
vn -0.5248 0.5596 0.6415
vn 0.5248 0.5596 0.6415
vn 0.3220 0.9321 -0.1661
vn -0.3220 0.9321 -0.1661
vt 0.000000 0.000000
vt 0.000000 0.000000
vt 0.000000 0.000000
vt 0.000000 0.000000
vt 0.000000 0.000000
vt 0.000000 0.000000
vt 0.000000 0.000000
vt 0.000000 0.000000
s 1
usemtl metalMedium.000
f 35/35/33 36/36/34 33/33/35
f 34/34/36 33/33/35 36/36/34
f 36/36/34 40/40/37 34/34/36
f 39/39/38 40/40/37 36/36/34
f 38/38/39 37/37/40 39/39/38
f 40/40/37 39/39/38 37/37/40
f 34/34/36 40/40/37 37/37/40 33/33/35
f 35/35/33 33/33/35 37/37/40 38/38/39
f 36/36/34 35/35/33 38/38/39 39/39/38
o bakingTray1.001_ID14.004
v 0.248258 -0.121733 -0.003386
v 0.219698 -0.107729 -0.041192
v 0.140960 -0.167904 -0.041192
v 0.159284 -0.189732 -0.003386
v 0.134736 -0.155897 -0.032085
v 0.203987 -0.102973 -0.032085
v 0.229199 -0.115699 -0.003386
v 0.151389 -0.175166 -0.003386
vn -0.3295 0.9392 -0.0966
vn -0.9332 0.3517 -0.0734
vn 0.0406 0.6661 0.7448
vn -0.6514 -0.0446 0.7575
vn -0.4520 -0.4647 -0.7614
vn 0.4870 0.4072 -0.7727
vn -0.0172 -0.9305 0.3659
vn 0.9513 0.0160 0.3078
vt 0.000000 0.000000
vt 0.000000 0.000000
vt 0.000000 0.000000
vt 0.000000 0.000000
vt 0.000000 0.000000
vt 0.000000 0.000000
vt 0.000000 0.000000
vt 0.000000 0.000000
s 1
usemtl metalMedium.000
f 46/46/41 45/45/42 47/47/43
f 48/48/44 47/47/43 45/45/42
f 43/43/45 42/42/46 44/44/47
f 41/41/48 44/44/47 42/42/46
f 47/47/43 48/48/44 44/44/47
f 41/41/48 47/47/43 44/44/47
f 44/44/47 48/48/44 45/45/42 43/43/45
f 45/45/42 46/46/41 42/42/46 43/43/45
f 41/41/48 42/42/46 46/46/41 47/47/43
o bakingTray1.001_ID14.005
v 0.219698 0.107729 -0.041192
v 0.248258 0.121733 -0.003386
v 0.248258 -0.121733 -0.003386
v 0.219698 -0.107729 -0.041192
v 0.203987 0.102973 -0.032085
v 0.203987 -0.102973 -0.032085
v 0.229199 -0.115699 -0.003386
v 0.229199 0.115699 -0.003386
vn 0.6296 0.7036 0.3295
vn 0.6296 -0.7036 0.3295
vn 0.0865 0.5544 -0.8277
vn 0.0865 -0.5544 -0.8277
vn -0.4590 0.5956 0.6592
vn -0.9018 0.4020 -0.1585
vn -0.4590 -0.5956 0.6592
vn -0.9018 -0.4020 -0.1585
vt 0.000000 0.000000
vt 0.000000 0.000000
vt 0.000000 0.000000
vt 0.000000 0.000000
vt 0.000000 0.000000
vt 0.000000 0.000000
vt 0.000000 0.000000
vt 0.000000 0.000000
s 1
usemtl metalMedium.000
f 50/50/49 51/51/50 49/49/51
f 52/52/52 49/49/51 51/51/50
f 56/56/53 53/53/54 55/55/55
f 54/54/56 55/55/55 53/53/54
f 55/55/55 50/50/49 56/56/53
f 50/50/49 55/55/55 51/51/50
f 51/51/50 55/55/55 54/54/56 52/52/52
f 54/54/56 53/53/54 49/49/51 52/52/52
f 56/56/53 50/50/49 49/49/51 53/53/54
o bakingTray1.001_ID14.006
v 0.140960 0.167904 -0.041192
v 0.159284 0.189732 -0.003386
v 0.219698 0.107729 -0.041192
v 0.248258 0.121733 -0.003386
v 0.134736 0.155897 -0.032085
v 0.151389 0.175166 -0.003386
v 0.203987 0.102973 -0.032085
v 0.229199 0.115699 -0.003386
vn -0.4520 0.4647 -0.7614
vn -0.0172 0.9305 0.3659
vn 0.4870 -0.4072 -0.7727
vn 0.9513 -0.0160 0.3078
vn 0.0406 -0.6661 0.7448
vn -0.6514 0.0446 0.7575
vn -0.9332 -0.3517 -0.0734
vn -0.3295 -0.9392 -0.0966
vt 0.000000 0.000000
vt 0.000000 0.000000
vt 0.000000 0.000000
vt 0.000000 0.000000
vt 0.000000 0.000000
vt 0.000000 0.000000
vt 0.000000 0.000000
vt 0.000000 0.000000
s 1
usemtl metalMedium.000
f 57/57/57 58/58/58 59/59/59
f 60/60/60 59/59/59 58/58/58
f 64/64/61 58/58/58 62/62/62
f 60/60/60 58/58/58 64/64/61
f 61/61/63 63/63/64 62/62/62
f 64/64/61 62/62/62 63/63/64
f 58/58/58 57/57/57 61/61/63 62/62/62
f 64/64/61 63/63/64 59/59/59 60/60/60
f 59/59/59 63/63/64 61/61/63 57/57/57
o bakingTray1.001_ID14.007
v 0.140960 0.167904 -0.041192
v 0.159284 0.189732 -0.003386
v 0.134736 0.155897 -0.032085
v 0.151389 0.175166 -0.003386
v -0.134736 0.155897 -0.032085
v -0.151389 0.175166 -0.003386
v -0.140960 0.167904 -0.041192
v -0.159284 0.189732 -0.003386
vn 0.3220 -0.9321 -0.1661
vn 0.5248 -0.5596 0.6415
vn -0.3220 -0.9321 -0.1661
vn -0.5248 -0.5596 0.6415
vn 0.5382 0.0718 -0.8398
vn -0.5382 0.0718 -0.8398
vn 0.7766 0.5271 0.3449
vn -0.7766 0.5271 0.3449
vt 0.000000 0.000000
vt 0.000000 0.000000
vt 0.000000 0.000000
vt 0.000000 0.000000
vt 0.000000 0.000000
vt 0.000000 0.000000
vt 0.000000 0.000000
vt 0.000000 0.000000
s 1
usemtl metalMedium.000
f 67/67/65 68/68/66 69/69/67
f 70/70/68 69/69/67 68/68/66
f 65/65/69 71/71/70 66/66/71
f 72/72/72 66/66/71 71/71/70
f 66/66/71 72/72/72 70/70/68
f 68/68/66 66/66/71 70/70/68
f 66/66/71 68/68/66 67/67/65 65/65/69
f 72/72/72 71/71/70 69/69/67 70/70/68
f 69/69/67 71/71/70 65/65/69 67/67/65
o bakingTray1.001_ID14.008
v -0.134736 0.155897 -0.032085
v -0.151389 0.175166 -0.003386
v -0.203987 0.102973 -0.032085
v -0.219698 0.107729 -0.041192
v -0.140960 0.167904 -0.041192
v -0.159284 0.189732 -0.003386
v -0.229199 0.115699 -0.003386
v -0.248258 0.121733 -0.003386
vn 0.0172 0.9305 0.3659
vn -0.9513 -0.0160 0.3078
vn -0.0406 -0.6661 0.7448
vn 0.6514 0.0446 0.7575
vn -0.4870 -0.4072 -0.7727
vn 0.4520 0.4647 -0.7614
vn 0.3295 -0.9392 -0.0966
vn 0.9332 -0.3517 -0.0734
vt 0.000000 0.000000
vt 0.000000 0.000000
vt 0.000000 0.000000
vt 0.000000 0.000000
vt 0.000000 0.000000
vt 0.000000 0.000000
vt 0.000000 0.000000
vt 0.000000 0.000000
s 1
usemtl metalMedium.000
f 78/78/73 80/80/74 79/79/75
f 74/74/76 78/78/73 79/79/75
f 76/76/77 80/80/74 77/77/78
f 78/78/73 77/77/78 80/80/74
f 75/75/79 73/73/80 79/79/75
f 74/74/76 79/79/75 73/73/80
f 80/80/74 76/76/77 75/75/79 79/79/75
f 78/78/73 74/74/76 73/73/80 77/77/78
f 73/73/80 75/75/79 76/76/77 77/77/78
