# Blender 3.4.1
# www.blender.org
mtllib CookieSheet.mtl
o bakingTray1.001_ID14.000
v -0.219698 -0.107729 -0.041192
v -0.140960 -0.167904 -0.041192
v -0.248258 -0.121733 -0.003386
v -0.159284 -0.189732 -0.003386
v 0.140960 0.167904 -0.041192
v 0.159284 0.189732 -0.003386
v 0.219698 0.107729 -0.041192
v 0.248258 0.121733 -0.003386
v 0.134736 0.155897 -0.032085
v 0.151389 0.175166 -0.003386
v -0.134736 0.155897 -0.032085
v -0.151389 0.175166 -0.003386
v 0.248258 -0.121733 -0.003386
v 0.219698 -0.107729 -0.041192
v 0.140960 -0.167904 -0.041192
v 0.159284 -0.189732 -0.003386
v -0.203987 0.102973 -0.032085
v -0.203987 -0.102973 -0.032085
v -0.134736 -0.155897 -0.032085
v 0.134736 -0.155897 -0.032085
v 0.203987 0.102973 -0.032085
v 0.203987 -0.102973 -0.032085
v -0.219698 0.107729 -0.041192
v -0.140960 0.167904 -0.041192
v 0.229199 -0.115699 -0.003386
v 0.151389 -0.175166 -0.003386
v 0.229199 0.115699 -0.003386
v -0.151389 -0.175166 -0.003386
v -0.229199 -0.115699 -0.003386
v -0.159284 0.189732 -0.003386
v -0.229199 0.115699 -0.003386
v -0.248258 0.121733 -0.003386
vn -0.4591 -0.2274 -0.8588
vn -0.1437 -0.5152 -0.8449
vn -0.8407 -0.4151 0.3476
vn -0.3273 -0.8574 0.3972
vn 0.1437 0.5152 -0.8449
vn 0.3273 0.8574 0.3972
vn 0.4591 0.2274 -0.8588
vn 0.8407 0.4151 0.3476
vn -0.1301 -0.4837 0.8655
vn -0.1252 -0.3230 0.9381
vn 0.1301 -0.4837 0.8655
vn 0.1252 -0.3230 0.9381
vn 0.8407 -0.4151 0.3476
vn 0.4591 -0.2274 -0.8588
vn 0.1437 -0.5152 -0.8449
vn 0.3273 -0.8574 0.3972
vn 0.4249 -0.2088 0.8808
vn 0.4249 0.2088 0.8808
vn 0.1301 0.4837 0.8655
vn -0.1301 0.4837 0.8655
vn -0.4249 -0.2088 0.8808
vn -0.4249 0.2088 0.8808
vn -0.4591 0.2274 -0.8588
vn -0.1437 0.5152 -0.8449
vn -0.2534 0.1257 0.9592
vn -0.1252 0.3230 0.9381
vn -0.2534 -0.1257 0.9592
vn 0.1252 0.3230 0.9381
vn 0.2534 0.1257 0.9592
vn -0.3273 0.8574 0.3972
vn 0.2534 -0.1257 0.9592
vn -0.8407 0.4151 0.3476
vt 0.000000 0.000000
vt 0.000000 0.000000
vt 0.000000 0.000000
vt 0.000000 0.000000
vt 0.000000 0.000000
vt 0.000000 0.000000
vt 0.000000 0.000000
vt 0.000000 0.000000
vt 0.000000 0.000000
vt 0.000000 0.000000
vt 0.000000 0.000000
vt 0.000000 0.000000
vt 0.000000 0.000000
vt 0.000000 0.000000
vt 0.000000 0.000000
vt 0.000000 0.000000
vt 0.000000 0.000000
vt 0.000000 0.000000
vt 0.000000 0.000000
vt 0.000000 0.000000
vt 0.000000 0.000000
vt 0.000000 0.000000
vt 0.000000 0.000000
vt 0.000000 0.000000
vt 0.000000 0.000000
vt 0.000000 0.000000
vt 0.000000 0.000000
vt 0.000000 0.000000
vt 0.000000 0.000000
vt 0.000000 0.000000
vt 0.000000 0.000000
vt 0.000000 0.000000
s 1
usemtl metalMedium.000
f 1/1/1 2/2/2 3/3/3
f 4/4/4 3/3/3 2/2/2
f 5/5/5 6/6/6 7/7/7
f 8/8/8 7/7/7 6/6/6
f 9/9/9 10/10/10 11/11/11
f 12/12/12 11/11/11 10/10/10
f 8/8/8 13/13/13 7/7/7
f 14/14/14 7/7/7 13/13/13
f 15/15/15 16/16/16 2/2/2
f 4/4/4 2/2/2 16/16/16
f 17/17/17 18/18/18 11/11/11
f 19/19/19 11/11/11 18/18/18
f 9/9/9 11/11/11 19/19/19
f 20/20/20 9/9/9 19/19/19
f 21/21/21 9/9/9 20/20/20
f 22/22/22 21/21/21 20/20/20
f 1/1/1 23/23/23 2/2/2
f 24/24/24 2/2/2 23/23/23
f 15/15/15 2/2/2 24/24/24
f 5/5/5 15/15/15 24/24/24
f 14/14/14 15/15/15 5/5/5
f 7/7/7 14/14/14 5/5/5
f 22/22/22 20/20/20 25/25/25
f 26/26/26 25/25/25 20/20/20
f 27/27/27 21/21/21 25/25/25
f 22/22/22 25/25/25 21/21/21
f 19/19/19 18/18/18 28/28/28
f 29/29/29 28/28/28 18/18/18
f 15/15/15 14/14/14 16/16/16
f 13/13/13 16/16/16 14/14/14
f 5/5/5 24/24/24 6/6/6
f 30/30/30 6/6/6 24/24/24
f 3/3/3 31/31/31 32/32/32
f 30/30/30 32/32/32 31/31/31
f 12/12/12 30/30/30 31/31/31
f 6/6/6 30/30/30 12/12/12
f 10/10/10 6/6/6 12/12/12
f 27/27/27 6/6/6 10/10/10
f 8/8/8 6/6/6 27/27/27
f 25/25/25 8/8/8 27/27/27
f 31/31/31 3/3/3 29/29/29
f 4/4/4 29/29/29 3/3/3
f 28/28/28 29/29/29 4/4/4
f 16/16/16 28/28/28 4/4/4
f 26/26/26 28/28/28 16/16/16
f 25/25/25 26/26/26 16/16/16
f 13/13/13 25/25/25 16/16/16
f 8/8/8 25/25/25 13/13/13
f 9/9/9 21/21/21 10/10/10
f 27/27/27 10/10/10 21/21/21
f 31/31/31 29/29/29 17/17/17
f 18/18/18 17/17/17 29/29/29
f 32/32/32 23/23/23 3/3/3
f 1/1/1 3/3/3 23/23/23
f 23/23/23 32/32/32 24/24/24
f 30/30/30 24/24/24 32/32/32
f 20/20/20 19/19/19 26/26/26
f 28/28/28 26/26/26 19/19/19
f 17/17/17 11/11/11 31/31/31
f 12/12/12 31/31/31 11/11/11
