# Blender v2.78 (sub 0) OBJ File: ''
# www.blender.org
mtllib handle.mtl
o whisk.001
v -0.041822 0.016244 0.007588
v -0.054422 0.000000 -0.007588
v -0.054422 0.000000 0.007588
v -0.041822 0.016244 -0.007588
v 0.069033 0.012670 -0.005918
v -0.041822 -0.016244 -0.007588
v 0.069033 -0.012671 -0.005918
v 0.069033 -0.012671 0.005918
v -0.041822 -0.016244 0.007588
v 0.069033 0.012670 0.005918
vt 7.1213 3.4964
vt 8.7400 2.7090
vt 8.7400 3.4964
vt 7.1213 2.7090
vt 0.9977 -4.5112
vt -1.2791 -13.2404
vt 1.2791 -13.2404
vt -0.9977 -4.5112
vt 13.2679 -1.2791
vt 14.2600 -0.0000
vt 13.2679 1.2791
vt -0.9977 4.5728
vt 1.2791 13.3020
vt -1.2791 13.3020
vt 0.9977 4.5728
vt 13.3022 3.4964
vt 4.5690 2.7956
vt 13.3022 2.7090
vt 4.5690 3.4098
vt 0.9977 2.7956
vt -0.9977 3.4098
vt -0.9977 2.7956
vt 0.9977 3.4098
vt -4.5690 2.7956
vt -13.3022 3.4964
vt -13.3022 2.7090
vt -4.5690 3.4098
vt -13.2679 1.2791
vt -14.2600 -0.0000
vt -13.2679 -1.2791
vt -8.7400 3.4964
vt -7.1213 2.7090
vt -7.1213 3.4964
vt -8.7400 2.7090
vn -0.7902 0.6129 0.0000
vn 0.0151 0.0000 -0.9999
vn 0.0058 0.0000 -1.0000
vn 0.0052 -0.0000 -1.0000
vn 0.0000 0.0000 -1.0000
vn 0.0151 -0.0000 0.9999
vn 0.0058 -0.0000 1.0000
vn 0.0052 0.0000 1.0000
vn 0.0322 0.9995 0.0000
vn 1.0000 -0.0000 0.0000
vn 0.0322 -0.9995 0.0000
vn -0.0000 -0.0000 1.0000
vn -0.7902 -0.6129 -0.0000
usemtl brownDark
s 1
f 1/1/1 2/2/1 3/3/1
f 2/2/1 1/1/1 4/4/1
f 5/5/2 6/6/3 4/7/4
f 6/6/3 5/5/2 7/8/2
f 6/9/3 2/10/5 4/11/4
f 8/12/6 1/13/7 9/14/8
f 1/13/7 8/12/6 10/15/6
f 1/16/9 5/17/9 4/18/9
f 5/17/9 1/16/9 10/19/9
f 5/20/10 8/21/10 7/22/10
f 8/21/10 5/20/10 10/23/10
f 7/24/11 9/25/11 6/26/11
f 9/25/11 7/24/11 8/27/11
f 1/28/7 3/29/12 9/30/8
f 3/31/13 6/32/13 9/33/13
f 6/32/13 3/31/13 2/34/13
