# Blender v2.78 (sub 0) OBJ File: ''
# www.blender.org
mtllib shaft.mtl
o whisk.002
v 0.031929 0.006682 0.001988
v -0.031929 0.007321 0.001988
v -0.031929 -0.007321 0.001988
v 0.031929 -0.006683 0.001988
v -0.031929 0.007321 -0.001988
v 0.031929 0.006682 -0.001988
v 0.031929 -0.006683 -0.001988
v -0.031929 -0.007321 -0.001988
vt -0.4890 0.5262
vt 4.5392 0.8854
vt 4.5392 -0.8854
vt -0.4890 -0.5262
vt 4.5392 0.8854
vt -0.4890 0.5262
vt -0.4890 -0.5262
vt 4.5392 -0.8854
vn 0.5800 0.5742 0.5779
vn -0.5747 0.5805 0.5768
vn -0.5747 -0.5805 0.5768
vn 0.5800 -0.5742 0.5779
vn -0.5747 0.5805 -0.5768
vn 0.5800 0.5742 -0.5779
vn 0.5800 -0.5742 -0.5779
vn -0.5747 -0.5805 -0.5768
usemtl white
s 1
f 1/1/1 2/2/2 3/3/3
f 3/3/3 4/4/4 1/1/1
f 5/5/5 2/2/2 1/1/1 6/6/6
f 6/6/6 1/1/1 4/4/4 7/7/7
f 7/7/7 4/4/4 3/3/3 8/8/8
f 8/8/8 3/3/3 2/2/2 5/5/5
f 6/6/6 8/8/8 5/5/5
f 8/8/8 6/6/6 7/7/7
