# Blender v2.78 (sub 0) OBJ File: ''
# www.blender.org
mtllib whisk.mtl
o whisk.003
v -0.023850 0.000666 0.000865
v -0.023850 0.000666 -0.000721
v -0.020976 0.000666 -0.000721
v -0.020976 0.000666 0.000865
v -0.017774 -0.000760 0.018111
v -0.020976 -0.000760 0.000791
v -0.015853 -0.000760 0.015450
v -0.017774 0.000826 0.018111
v -0.015853 0.000826 0.015450
v -0.020976 0.000826 0.000791
v -0.023850 0.000826 0.000791
v 0.017813 0.000776 -0.018255
v 0.015892 0.000776 -0.015594
v 0.021015 0.000776 -0.000935
v 0.023889 0.000776 -0.000935
v 0.023889 -0.000811 -0.000935
v 0.017813 -0.000811 -0.018255
v 0.015892 -0.000811 -0.015594
v 0.021015 -0.000811 -0.000935
v -0.017774 -0.000811 -0.018255
v -0.017774 0.000776 -0.018255
v -0.023850 -0.000811 -0.000935
v -0.023850 0.000776 -0.000935
v -0.020976 -0.000811 -0.000935
v -0.015853 0.000776 -0.015594
v -0.015853 -0.000811 -0.015594
v -0.023928 -0.000682 -0.000721
v -0.023928 -0.000682 0.000865
v -0.021054 -0.000682 0.000865
v -0.021054 -0.000682 -0.000721
v -0.017852 -0.018002 0.000865
v -0.015931 -0.015341 0.000865
v 0.017813 0.017986 -0.000721
v 0.023889 0.000666 -0.000721
v 0.021015 0.000666 -0.000721
v 0.017813 0.000826 0.018111
v 0.015892 0.000826 0.015450
v -0.017774 0.017986 -0.000721
v -0.015853 0.015325 -0.000721
v -0.017774 0.017986 0.000865
v -0.015853 0.015325 0.000865
v 0.015892 0.015325 -0.000721
v 0.015892 0.015325 0.000865
v 0.021015 0.000666 0.000865
v 0.023889 0.000666 0.000865
v 0.023889 0.000826 0.000791
v 0.021015 0.000826 0.000791
v 0.020937 -0.000682 -0.000721
v 0.020937 -0.000682 0.000865
v 0.023811 -0.000682 0.000865
v 0.023811 -0.000682 -0.000721
v -0.017852 -0.018002 -0.000721
v -0.015931 -0.015341 -0.000721
v 0.017735 -0.018002 0.000865
v 0.015813 -0.015341 0.000865
v -0.023850 -0.000760 0.000791
v 0.017813 0.017986 0.000865
v 0.017735 -0.018002 -0.000721
v 0.015813 -0.015341 -0.000721
v 0.015892 -0.000760 0.015450
v 0.021015 -0.000760 0.000791
v 0.023889 -0.000760 0.000791
v -0.020976 0.000776 -0.000935
v 0.017813 -0.000760 0.018111
v -0.023850 -0.000141 0.001083
v -0.023850 0.000981 -0.000039
v -0.020976 0.000981 -0.000039
v -0.020976 -0.000141 0.001083
v -0.017774 -0.013343 0.012269
v -0.020976 -0.001096 0.000022
v -0.015853 -0.011462 0.010387
v -0.017774 -0.012222 0.013390
v -0.015853 -0.010340 0.011509
v -0.020976 0.000025 0.001143
v -0.023850 0.000025 0.001143
v 0.017813 0.013456 -0.012359
v 0.015892 0.011575 -0.010478
v 0.021015 0.001209 -0.000112
v 0.023889 0.001209 -0.000112
v 0.023889 0.000088 -0.001234
v 0.017813 0.012335 -0.013481
v 0.015892 0.010454 -0.011600
v 0.021015 0.000088 -0.001234
v -0.017774 0.012335 -0.013481
v -0.017774 0.013456 -0.012359
v -0.023850 0.000088 -0.001234
v -0.023850 0.001209 -0.000112
v -0.020976 0.000088 -0.001234
v -0.015853 0.011575 -0.010478
v -0.015853 0.010454 -0.011600
v -0.023928 0.000028 -0.000992
v -0.023928 -0.001094 0.000129
v -0.021054 -0.001094 0.000129
v -0.021054 0.000028 -0.000992
v -0.017852 -0.013341 -0.012118
v -0.015931 -0.011460 -0.010236
v 0.017813 0.013228 0.012208
v 0.023889 0.000981 -0.000039
v 0.021015 0.000981 -0.000039
v 0.017813 -0.012222 0.013390
v 0.015892 -0.010340 0.011509
v -0.017774 0.013228 0.012208
v -0.015853 0.011347 0.010327
v -0.017774 0.012106 0.013330
v -0.015853 0.010225 0.011449
v 0.015892 0.011347 0.010327
v 0.015892 0.010225 0.011449
v 0.021015 -0.000141 0.001083
v 0.023889 -0.000141 0.001083
v 0.023889 0.000025 0.001143
v 0.021015 0.000025 0.001143
v 0.020937 0.000028 -0.000992
v 0.020937 -0.001094 0.000129
v 0.023811 -0.001094 0.000129
v 0.023811 0.000028 -0.000992
v -0.017852 -0.012219 -0.013239
v -0.015931 -0.010338 -0.011358
v 0.017735 -0.013341 -0.012118
v 0.015813 -0.011460 -0.010236
v -0.023850 -0.001096 0.000022
v 0.017813 0.012106 0.013330
v 0.017735 -0.012219 -0.013239
v 0.015813 -0.010338 -0.011358
v 0.015892 -0.011462 0.010387
v 0.021015 -0.001096 0.000022
v 0.023889 -0.001096 0.000022
v -0.020976 0.001209 -0.000112
v 0.017813 -0.013343 0.012269
vt -0.1852 2.1939
vt -0.1852 2.1939
vt -1.3181 2.1939
vt -1.3181 2.1939
vt -1.9766 -0.9088
vt -1.3181 2.1939
vt -2.5430 0.0723
vt -1.9766 -0.9088
vt -2.5430 0.0723
vt -1.3181 2.1939
vt -0.1852 2.1939
vt -12.4687 -0.9088
vt -11.9023 0.0723
vt -13.1272 2.1939
vt -14.2600 2.1939
vt -14.2600 2.1939
vt -12.4687 -0.9088
vt -11.9023 0.0723
vt -13.1272 2.1939
vt -1.9766 -0.9088
vt -1.9766 -0.9088
vt -0.1852 2.1939
vt -0.1852 2.1939
vt -1.3181 2.1939
vt -2.5430 0.0723
vt -2.5430 0.0723
vt -0.1852 2.1939
vt -0.1852 2.1939
vt -1.3181 2.1939
vt -1.3181 2.1939
vt -1.9766 -0.9088
vt -2.5430 0.0723
vt -12.4687 -0.9088
vt -14.2600 2.1939
vt -13.1272 2.1939
vt -12.4687 -0.9088
vt -11.9023 0.0723
vt -1.9766 -0.9088
vt -2.5430 0.0723
vt -1.9766 -0.9088
vt -2.5430 0.0723
vt -11.9023 0.0723
vt -11.9023 0.0723
vt -13.1272 2.1939
vt -14.2600 2.1939
vt -14.2600 2.1939
vt -13.1272 2.1939
vt -13.1272 2.1939
vt -13.1272 2.1939
vt -14.2600 2.1939
vt -14.2600 2.1939
vt -1.9766 -0.9088
vt -2.5430 0.0723
vt -12.4687 -0.9088
vt -11.9023 0.0723
vt -0.1852 2.1939
vt -12.4687 -0.9088
vt -12.4687 -0.9088
vt -11.9023 0.0723
vt -11.9023 0.0723
vt -13.1272 2.1939
vt -14.2600 2.1939
vt -1.3181 2.1939
vt -12.4687 -0.9088
vt -0.1852 2.1939
vt -0.1852 2.1939
vt -1.3181 2.1939
vt -1.3181 2.1939
vt -1.9766 -0.9088
vt -1.3181 2.1939
vt -2.5430 0.0723
vt -1.9766 -0.9088
vt -2.5430 0.0723
vt -1.3181 2.1939
vt -0.1852 2.1939
vt -12.4687 -0.9088
vt -11.9023 0.0723
vt -13.1272 2.1939
vt -14.2600 2.1939
vt -14.2600 2.1939
vt -12.4687 -0.9088
vt -11.9023 0.0723
vt -13.1272 2.1939
vt -1.9766 -0.9088
vt -1.9766 -0.9088
vt -0.1852 2.1939
vt -0.1852 2.1939
vt -1.3181 2.1939
vt -2.5430 0.0723
vt -2.5430 0.0723
vt -0.1852 2.1939
vt -0.1852 2.1939
vt -1.3181 2.1939
vt -1.3181 2.1939
vt -1.9766 -0.9088
vt -2.5430 0.0723
vt -12.4687 -0.9088
vt -14.2600 2.1939
vt -13.1272 2.1939
vt -12.4687 -0.9088
vt -11.9023 0.0723
vt -1.9766 -0.9088
vt -2.5430 0.0723
vt -1.9766 -0.9088
vt -2.5430 0.0723
vt -11.9023 0.0723
vt -11.9023 0.0723
vt -13.1272 2.1939
vt -14.2600 2.1939
vt -14.2600 2.1939
vt -13.1272 2.1939
vt -13.1272 2.1939
vt -13.1272 2.1939
vt -14.2600 2.1939
vt -14.2600 2.1939
vt -1.9766 -0.9088
vt -2.5430 0.0723
vt -12.4687 -0.9088
vt -11.9023 0.0723
vt -0.1852 2.1939
vt -12.4687 -0.9088
vt -12.4687 -0.9088
vt -11.9023 0.0723
vt -11.9023 0.0723
vt -13.1272 2.1939
vt -14.2600 2.1939
vt -1.3181 2.1939
vt -12.4687 -0.9088
vn -0.6750 -0.4785 0.5617
vn -0.6750 -0.4785 -0.5617
vn 0.4643 -0.6541 -0.5971
vn 0.4643 -0.6541 0.5971
vn -0.4639 -0.5972 0.6543
vn 0.4643 -0.5971 -0.6541
vn 0.2924 -0.8630 -0.4120
vn -0.4639 0.5972 0.6543
vn 0.2924 0.8630 -0.4120
vn 0.4643 0.5971 -0.6541
vn -0.6750 0.5617 -0.4785
vn 0.4639 0.5972 -0.6543
vn -0.2924 0.8630 0.4120
vn -0.4643 0.5971 0.6541
vn 0.6750 0.5617 0.4785
vn 0.6750 -0.5617 0.4785
vn 0.4639 -0.5972 -0.6543
vn -0.2924 -0.8630 0.4120
vn -0.4643 -0.5971 0.6541
vn -0.4639 -0.5972 -0.6543
vn -0.4639 0.5972 -0.6543
vn -0.6750 -0.5617 0.4785
vn -0.6750 0.5617 0.4785
vn 0.4643 -0.5971 0.6541
vn 0.2924 0.8630 0.4120
vn 0.2924 -0.8630 0.4120
vn -0.6750 0.4785 -0.5617
vn -0.6750 0.4785 0.5617
vn 0.4643 0.6541 0.5971
vn 0.4643 0.6541 -0.5971
vn -0.4639 -0.6543 0.5972
vn 0.2924 0.4120 0.8630
vn 0.4639 0.6543 -0.5972
vn 0.6750 -0.4785 -0.5617
vn -0.4643 -0.6541 -0.5971
vn 0.4639 0.5972 0.6543
vn -0.2924 0.8630 -0.4120
vn -0.4639 0.6543 -0.5972
vn 0.2924 -0.4120 -0.8630
vn -0.4639 0.6543 0.5972
vn 0.2924 -0.4120 0.8630
vn -0.2924 -0.4120 -0.8630
vn -0.2924 -0.4120 0.8630
vn -0.4643 -0.6541 0.5971
vn 0.6750 -0.4785 0.5617
vn 0.6750 0.5617 -0.4785
vn -0.4643 0.5971 -0.6541
vn -0.4643 0.6541 -0.5971
vn -0.4643 0.6541 0.5971
vn 0.6750 0.4785 0.5617
vn 0.6750 0.4785 -0.5617
vn -0.4639 -0.6543 -0.5972
vn 0.2924 0.4120 -0.8630
vn 0.4639 -0.6543 0.5972
vn -0.2924 0.4120 0.8630
vn -0.6750 -0.5617 -0.4785
vn 0.4639 0.6543 0.5972
vn 0.4639 -0.6543 -0.5972
vn -0.2924 0.4120 -0.8630
vn -0.2924 -0.8630 -0.4120
vn -0.4643 -0.5971 -0.6541
vn 0.6750 -0.5617 -0.4785
vn 0.4643 0.5971 0.6541
vn 0.4639 -0.5972 0.6543
vn -0.6750 -0.7355 0.0588
vn -0.6750 0.0588 -0.7355
vn 0.4643 -0.0403 -0.8848
vn 0.4643 -0.8848 -0.0403
vn -0.4639 -0.8850 0.0404
vn 0.4643 0.0403 -0.8848
vn 0.2924 -0.3189 -0.9015
vn -0.4639 -0.0404 0.8850
vn 0.2924 0.9015 0.3189
vn 0.4643 0.8848 -0.0403
vn -0.6750 0.7355 0.0588
vn 0.4639 0.8850 -0.0404
vn -0.2924 0.3189 0.9015
vn -0.4643 -0.0403 0.8848
vn 0.6750 0.0588 0.7355
vn 0.6750 -0.7355 -0.0588
vn 0.4639 0.0404 -0.8850
vn -0.2924 -0.9015 -0.3189
vn -0.4643 -0.8848 0.0403
vn -0.4639 0.0404 -0.8850
vn -0.4639 0.8850 -0.0404
vn -0.6750 -0.7355 -0.0588
vn -0.6750 0.0588 0.7355
vn 0.4643 -0.8848 0.0403
vn 0.2924 0.3189 0.9015
vn 0.2924 -0.9015 -0.3189
vn -0.6750 0.7355 -0.0588
vn -0.6750 -0.0588 0.7355
vn 0.4643 0.0403 0.8848
vn 0.4643 0.8848 0.0403
vn -0.4639 -0.8850 -0.0404
vn 0.2924 -0.3189 0.9015
vn 0.4639 0.8850 0.0404
vn 0.6750 0.0588 -0.7355
vn -0.4643 -0.0403 -0.8848
vn 0.4639 -0.0404 0.8850
vn -0.2924 0.9015 0.3189
vn -0.4639 0.8850 0.0404
vn 0.2924 0.3189 -0.9015
vn -0.4639 0.0404 0.8850
vn 0.2924 -0.9015 0.3189
vn -0.2924 0.3189 -0.9015
vn -0.2924 -0.9015 0.3189
vn -0.4643 -0.8848 -0.0403
vn 0.6750 -0.7355 0.0588
vn 0.6750 0.7355 0.0588
vn -0.4643 0.8848 -0.0403
vn -0.4643 0.8848 0.0403
vn -0.4643 0.0403 0.8848
vn 0.6750 -0.0588 0.7355
vn 0.6750 0.7355 -0.0588
vn -0.4639 -0.0404 -0.8850
vn 0.2924 0.9015 -0.3189
vn 0.4639 -0.8850 -0.0404
vn -0.2924 -0.3189 0.9015
vn -0.6750 -0.0588 -0.7355
vn 0.4639 0.0404 0.8850
vn 0.4639 -0.0404 -0.8850
vn -0.2924 0.9015 -0.3189
vn -0.2924 -0.3189 -0.9015
vn -0.4643 0.0403 -0.8848
vn 0.6750 -0.0588 -0.7355
vn 0.4643 -0.0403 0.8848
vn 0.4639 -0.8850 0.0404
usemtl white.000
s 1
f 1/1/1 2/2/2 3/3/3 4/4/4
f 5/5/5 6/6/6 7/7/7
f 8/8/8 9/9/9 10/10/10
f 10/10/10 11/11/11 8/8/8
f 12/12/12 13/13/13 14/14/14
f 12/12/12 14/14/14 15/15/15
f 15/15/15 16/16/16 17/17/17 12/12/12
f 13/13/13 18/18/18 19/19/19 14/14/14
f 12/12/12 17/17/17 20/20/20 21/21/21
f 21/21/21 20/20/20 22/22/22 23/23/23
f 24/24/24 22/22/22 20/20/20
f 25/25/25 26/26/26 18/18/18 13/13/13
f 14/14/14 19/19/19 16/16/16 15/15/15
f 27/27/27 28/28/28 29/29/29 30/30/30
f 31/31/31 32/32/32 29/29/29
f 29/29/29 28/28/28 31/31/31
f 33/33/33 34/34/34 35/35/35
f 8/8/8 36/36/36 37/37/37 9/9/9
f 38/38/38 39/39/39 3/3/3
f 40/40/40 4/4/4 41/41/41
f 4/4/4 40/40/40 1/1/1
f 3/3/3 2/2/2 38/38/38
f 41/41/41 39/39/39 42/42/42 43/43/43
f 44/44/44 35/35/35 34/34/34 45/45/45
f 38/38/38 33/33/33 42/42/42 39/39/39
f 36/36/36 46/46/46 47/47/47
f 48/48/48 49/49/49 50/50/50 51/51/51
f 20/20/20 26/26/26 24/24/24
f 52/52/52 31/31/31 28/28/28 27/27/27
f 30/30/30 29/29/29 32/32/32 53/53/53
f 54/54/54 50/50/50 49/49/49
f 54/54/54 49/49/49 55/55/55
f 31/31/31 54/54/54 55/55/55 32/32/32
f 4/4/4 3/3/3 39/39/39 41/41/41
f 56/56/56 11/11/11 10/10/10 6/6/6
f 43/43/43 42/42/42 35/35/35 44/44/44
f 57/57/57 33/33/33 38/38/38 40/40/40
f 40/40/40 38/38/38 2/2/2 1/1/1
f 45/45/45 34/34/34 33/33/33 57/57/57
f 57/57/57 43/43/43 44/44/44
f 57/57/57 44/44/44 45/45/45
f 33/33/33 35/35/35 42/42/42
f 6/6/6 10/10/10 9/9/9 7/7/7
f 51/51/51 50/50/50 54/54/54 58/58/58
f 59/59/59 55/55/55 49/49/49 48/48/48
f 7/7/7 9/9/9 37/37/37 60/60/60
f 61/61/61 47/47/47 46/46/46 62/62/62
f 6/6/6 5/5/5 56/56/56
f 40/40/40 41/41/41 43/43/43 57/57/57
f 21/21/21 63/63/63 25/25/25
f 63/63/63 21/21/21 23/23/23
f 17/17/17 19/19/19 18/18/18
f 20/20/20 17/17/17 18/18/18 26/26/26
f 17/17/17 16/16/16 19/19/19
f 63/63/63 24/24/24 26/26/26 25/25/25
f 23/23/23 22/22/22 24/24/24 63/63/63
f 58/58/58 54/54/54 31/31/31 52/52/52
f 53/53/53 32/32/32 55/55/55 59/59/59
f 21/21/21 25/25/25 13/13/13 12/12/12
f 30/30/30 52/52/52 27/27/27
f 52/52/52 30/30/30 53/53/53
f 52/52/52 53/53/53 59/59/59 58/58/58
f 64/64/64 36/36/36 8/8/8 5/5/5
f 5/5/5 8/8/8 11/11/11 56/56/56
f 60/60/60 37/37/37 47/47/47 61/61/61
f 58/58/58 59/59/59 48/48/48
f 58/58/58 48/48/48 51/51/51
f 62/62/62 46/46/46 36/36/36 64/64/64
f 64/64/64 60/60/60 61/61/61
f 64/64/64 61/61/61 62/62/62
f 36/36/36 47/47/47 37/37/37
f 5/5/5 7/7/7 60/60/60 64/64/64
f 65/65/65 66/66/66 67/67/67 68/68/68
f 69/69/69 70/70/70 71/71/71
f 72/72/72 73/73/73 74/74/74
f 74/74/74 75/75/75 72/72/72
f 76/76/76 77/77/77 78/78/78
f 76/76/76 78/78/78 79/79/79
f 79/79/79 80/80/80 81/81/81 76/76/76
f 77/77/77 82/82/82 83/83/83 78/78/78
f 76/76/76 81/81/81 84/84/84 85/85/85
f 85/85/85 84/84/84 86/86/86 87/87/87
f 88/88/88 86/86/86 84/84/84
f 89/89/89 90/90/90 82/82/82 77/77/77
f 78/78/78 83/83/83 80/80/80 79/79/79
f 91/91/91 92/92/92 93/93/93 94/94/94
f 95/95/95 96/96/96 93/93/93
f 93/93/93 92/92/92 95/95/95
f 97/97/97 98/98/98 99/99/99
f 72/72/72 100/100/100 101/101/101 73/73/73
f 102/102/102 103/103/103 67/67/67
f 104/104/104 68/68/68 105/105/105
f 68/68/68 104/104/104 65/65/65
f 67/67/67 66/66/66 102/102/102
f 105/105/105 103/103/103 106/106/106 107/107/107
f 108/108/108 99/99/99 98/98/98 109/109/109
f 102/102/102 97/97/97 106/106/106 103/103/103
f 100/100/100 110/110/110 111/111/111
f 112/112/112 113/113/113 114/114/114 115/115/115
f 84/84/84 90/90/90 88/88/88
f 116/116/116 95/95/95 92/92/92 91/91/91
f 94/94/94 93/93/93 96/96/96 117/117/117
f 118/118/118 114/114/114 113/113/113
f 118/118/118 113/113/113 119/119/119
f 95/95/95 118/118/118 119/119/119 96/96/96
f 68/68/68 67/67/67 103/103/103 105/105/105
f 120/120/120 75/75/75 74/74/74 70/70/70
f 107/107/107 106/106/106 99/99/99 108/108/108
f 121/121/121 97/97/97 102/102/102 104/104/104
f 104/104/104 102/102/102 66/66/66 65/65/65
f 109/109/109 98/98/98 97/97/97 121/121/121
f 121/121/121 107/107/107 108/108/108
f 121/121/121 108/108/108 109/109/109
f 97/97/97 99/99/99 106/106/106
f 70/70/70 74/74/74 73/73/73 71/71/71
f 115/115/115 114/114/114 118/118/118 122/122/122
f 123/123/123 119/119/119 113/113/113 112/112/112
f 71/71/71 73/73/73 101/101/101 124/124/124
f 125/125/125 111/111/111 110/110/110 126/126/126
f 70/70/70 69/69/69 120/120/120
f 104/104/104 105/105/105 107/107/107 121/121/121
f 85/85/85 127/127/127 89/89/89
f 127/127/127 85/85/85 87/87/87
f 81/81/81 83/83/83 82/82/82
f 84/84/84 81/81/81 82/82/82 90/90/90
f 81/81/81 80/80/80 83/83/83
f 127/127/127 88/88/88 90/90/90 89/89/89
f 87/87/87 86/86/86 88/88/88 127/127/127
f 122/122/122 118/118/118 95/95/95 116/116/116
f 117/117/117 96/96/96 119/119/119 123/123/123
f 85/85/85 89/89/89 77/77/77 76/76/76
f 94/94/94 116/116/116 91/91/91
f 116/116/116 94/94/94 117/117/117
f 116/116/116 117/117/117 123/123/123 122/122/122
f 128/128/128 100/100/100 72/72/72 69/69/69
f 69/69/69 72/72/72 75/75/75 120/120/120
f 124/124/124 101/101/101 111/111/111 125/125/125
f 122/122/122 123/123/123 112/112/112
f 122/122/122 112/112/112 115/115/115
f 126/126/126 110/110/110 100/100/100 128/128/128
f 128/128/128 124/124/124 125/125/125
f 128/128/128 125/125/125 126/126/126
f 100/100/100 111/111/111 101/101/101
f 69/69/69 71/71/71 124/124/124 128/128/128
