# Blender 3.4.1
# www.blender.org
mtllib wall_south.mtl
o Wall_South.001
v 0.169786 -5.346864 -1.195607
v 0.169794 5.512187 -1.195607
v -0.169794 -5.346864 -1.195607
v -0.169786 5.512187 -1.195607
v 0.169786 -5.346864 2.337489
v 0.169794 5.512187 2.337489
v -0.169794 -5.346864 2.337489
v -0.169786 5.512187 2.337489
vn -0.0000 -0.0000 -1.0000
vn -1.0000 -0.0000 -0.0000
vn -0.0000 1.0000 -0.0000
vn -0.0000 -1.0000 -0.0000
vn -0.0000 -0.0000 1.0000
vn 1.0000 -0.0000 -0.0000
vt 2.680300 2.680300
vt 2.680300 -1.680300
vt 2.680300 2.680300
vt 2.680300 -1.680300
vt 2.680300 2.680300
vt 2.680300 -1.680300
vt 2.680300 2.680300
vt 2.680300 -1.680300
s 0
usemtl _defaultMat.005
f 1/1/1 3/3/1 4/4/1 2/2/1
f 4/4/2 3/3/2 7/7/2 8/8/2
f 2/2/3 4/4/3 8/8/3 6/6/3
f 3/3/4 1/1/4 5/5/4 7/7/4
f 6/6/5 8/8/5 7/7/5 5/5/5
f 1/1/6 2/2/6 6/6/6 5/5/6
