# Blender 3.4.1
# www.blender.org
mtllib wall_east.mtl
o Wall_West.005
v 9.988965 -0.153747 -1.195607
v -4.877189 -0.153741 -1.195607
v 9.988965 0.153742 -1.195607
v -4.877189 0.153748 -1.195607
v 9.988965 -0.153747 2.337489
v -4.877189 -0.153741 2.337489
v 9.988965 0.153742 2.337489
v -4.877189 0.153748 2.337489
vn -1.0000 -0.0000 -0.0000
vn 1.0000 -0.0000 -0.0000
vn -0.0000 -0.0000 -1.0000
vn -0.0000 1.0000 -0.0000
vn -0.0000 -0.0000 1.0000
vn -0.0000 -1.0000 -0.0000
vt -1.680300 -1.680300
vt 2.680300 -1.680300
vt -1.680300 -1.680300
vt 2.680300 -1.680300
vt -1.680300 -1.680300
vt 2.680300 -1.680300
vt -1.680300 -1.680300
vt 2.680300 -1.680300
s 0
usemtl _defaultMat.006
f 4/4/1 2/2/1 6/6/1 8/8/1
f 1/1/2 3/3/2 7/7/2 5/5/2
f 2/2/3 4/4/3 3/3/3 1/1/3
f 4/4/4 8/8/4 7/7/4 3/3/4
f 5/5/5 7/7/5 8/8/5 6/6/5
f 2/2/6 1/1/6 5/5/6 6/6/6
