# Blender 3.4.1
# www.blender.org
mtllib windowFrameCollider.mtl
o Wall_West.001
v 2.204684 0.160181 -0.735772
v 2.204684 0.160181 1.137408
v 2.204684 -0.361294 1.137408
v 2.204684 -0.361294 -0.735772
v 2.349684 0.160181 -0.735772
v 2.349684 0.160181 1.137408
v 2.349684 -0.361294 1.137408
v 2.349684 -0.361294 -0.735772
vn -0.0000 1.0000 -0.0000
vn 1.0000 -0.0000 -0.0000
vn -0.0000 -1.0000 -0.0000
vn -1.0000 -0.0000 -0.0000
vn -0.0000 -0.0000 1.0000
vn -0.0000 -0.0000 -1.0000
vt 0.000000 0.000000
vt 0.000000 0.000000
vt 0.000000 0.000000
vt 0.000000 0.000000
vt -1.300933 -1.680300
vt 0.000000 0.000000
vt -1.300933 -1.680300
vt 0.000000 0.000000
vt -1.300933 -1.680300
vt 0.000000 0.000000
vt 0.000000 0.000000
vt -1.300933 -1.680300
s 0
usemtl Material.004
f 2/2/1 6/8/1 5/6/1 1/1/1
f 5/5/2 6/7/2 7/9/2 8/12/2
f 4/4/3 8/11/3 7/10/3 3/3/3
f 1/1/4 4/4/4 3/3/4 2/2/4
f 7/10/5 6/8/5 2/2/5 3/3/5
f 1/1/6 5/6/6 8/12/6 4/4/6
o Wall_West.002
v -2.204682 0.160181 -0.735772
v -2.204682 -0.361294 -0.735772
v 2.204684 0.160181 -0.735772
v 2.204684 -0.361294 -0.735772
v 2.204684 -0.361294 -0.880772
v -2.204682 -0.361294 -0.880772
v -2.204682 0.160181 -0.880772
v 2.204684 0.160181 -0.880772
v -2.349682 0.160181 -0.735772
v -2.349682 -0.361294 -0.735772
v -2.349682 -0.361294 -0.880772
v -2.349682 0.160181 -0.880772
v 2.349684 0.160181 -0.735772
v 2.349684 -0.361294 -0.735772
v 2.349684 -0.361294 -0.880772
v 2.349684 0.160181 -0.880772
v -2.204682 0.402226 -0.735772
v 2.204684 0.402226 -0.735772
v -2.204682 0.402226 -0.880772
v 2.204684 0.402226 -0.880772
v -2.349682 0.402226 -0.880772
v -2.349682 0.402226 -0.735772
v 2.349684 0.402226 -0.735772
v 2.349684 0.402226 -0.880772
vn -0.0000 -1.0000 -0.0000
vn -0.0000 -0.0000 -1.0000
vn -0.0000 -0.0000 1.0000
vn -1.0000 -0.0000 -0.0000
vn 1.0000 -0.0000 -0.0000
vn -0.0000 1.0000 -0.0000
vt 0.000000 0.000000
vt 0.000000 0.000000
vt 0.000000 0.000000
vt 0.000000 0.000000
vt -1.300933 -1.680300
vt 0.000000 0.000000
vt 0.000000 0.000000
vt -1.300933 -1.680300
vt -1.300933 -1.680300
vt -1.300933 -1.680300
vt -1.300933 -1.680300
vt 0.000000 0.000000
vt 0.000000 0.000000
vt -1.300933 -1.680300
vt 0.000000 0.000000
vt -1.300933 -1.680300
vt -1.300933 -1.680300
vt -1.300933 -1.680300
vt 0.000000 0.000000
vt 0.000000 0.000000
vt -1.300933 -1.680300
vt -1.300933 -1.680300
vt 0.000000 0.000000
vt -1.300933 -1.680300
vt 0.000000 0.000000
vt 0.000000 0.000000
vt 0.000000 0.000000
vt -1.300933 -1.680300
vt 0.000000 0.000000
vt -1.300933 -1.680300
vt -1.300933 -1.680300
vt 0.000000 0.000000
vt -1.300933 -1.680300
vt 0.000000 0.000000
vt 0.000000 0.000000
vt -1.300933 -1.680300
vt 0.000000 0.000000
vt -1.300933 -1.680300
s 0
usemtl Material.004
f 10/14/7 18/25/7 19/27/7 14/19/7
f 15/21/8 20/29/8 29/43/8 27/40/8
f 13/17/8 14/20/8 15/21/8 16/22/8
f 10/14/7 14/19/7 13/18/7 12/16/7
f 11/15/9 21/31/9 31/47/9 26/38/9
f 11/15/9 9/13/9 10/14/9 12/16/9
f 17/23/10 20/29/10 19/28/10 18/26/10
f 20/29/10 17/23/10 30/45/10 29/43/10
f 14/20/8 19/28/8 20/29/8 15/21/8
f 22/33/11 23/34/11 24/36/11 21/30/11
f 16/22/8 24/36/8 23/34/8 13/17/8
f 13/18/7 23/35/7 22/32/7 12/16/7
f 26/38/12 31/47/12 32/49/12 28/41/12
f 26/38/12 28/41/12 27/39/12 25/37/12
f 27/39/12 29/44/12 30/46/12 25/37/12
f 21/30/11 24/36/11 32/50/11 31/48/11
f 9/13/9 11/15/9 26/38/9 25/37/9
f 24/36/8 16/22/8 28/42/8 32/50/8
f 16/22/8 15/21/8 27/40/8 28/42/8
f 17/24/9 9/13/9 25/37/9 30/46/9
f 11/15/9 12/16/9 22/33/9 21/31/9
f 9/13/9 17/24/9 18/26/9 10/14/9
o Wall_West.003
v -2.204682 0.160181 1.137408
v -2.204682 -0.361294 1.137408
v 2.204684 0.160181 1.137408
v 2.204684 -0.361294 1.137408
v -2.204682 -0.361294 1.287408
v 2.204684 -0.361294 1.287408
v 2.204684 0.160181 1.287408
v -2.204682 0.160181 1.287408
v -2.349682 0.160181 1.137408
v -2.349682 -0.361294 1.137408
v -2.349682 0.160181 1.287408
v -2.349682 -0.361294 1.287408
v 2.349684 0.160181 1.137408
v 2.349684 -0.361294 1.137408
v 2.349684 0.160181 1.287408
v 2.349684 -0.361294 1.287408
vn -0.0000 1.0000 -0.0000
vn -0.0000 -0.0000 1.0000
vn -0.0000 -1.0000 -0.0000
vn 1.0000 -0.0000 -0.0000
vn -0.0000 -0.0000 -1.0000
vn -1.0000 -0.0000 -0.0000
vt 0.000000 0.000000
vt 0.000000 0.000000
vt 0.000000 0.000000
vt 0.000000 0.000000
vt 0.000000 0.000000
vt -1.300933 -1.680300
vt -1.300933 -1.680300
vt 0.000000 0.000000
vt -1.300933 -1.680300
vt 0.000000 0.000000
vt 0.000000 0.000000
vt -1.300933 -1.680300
vt 0.000000 0.000000
vt 0.000000 0.000000
vt -1.300933 -1.680300
vt 0.000000 0.000000
vt -1.300933 -1.680300
vt 0.000000 0.000000
vt -1.300933 -1.680300
vt 0.000000 0.000000
vt -1.300933 -1.680300
vt 0.000000 0.000000
vt -1.300933 -1.680300
vt 0.000000 0.000000
vt -1.300933 -1.680300
vt 0.000000 0.000000
s 0
usemtl Material.004
f 33/51/13 40/61/13 39/60/13 35/53/13
f 37/56/14 38/57/14 39/59/14 40/62/14
f 38/57/14 48/75/14 47/73/14 39/59/14
f 36/54/15 38/58/15 37/55/15 34/52/15
f 33/51/13 41/63/13 43/66/13 40/61/13
f 37/55/15 44/68/15 42/64/15 34/52/15
f 40/62/14 43/65/14 44/67/14 37/56/14
f 45/69/16 47/73/16 48/75/16 46/71/16
f 36/54/15 46/72/15 48/76/15 38/58/15
f 39/60/13 47/74/13 45/70/13 35/53/13
f 34/52/17 33/51/17 35/53/17 36/54/17
f 44/68/18 43/66/18 41/63/18 42/64/18
f 34/52/17 42/64/17 41/63/17 33/51/17
f 46/72/17 36/54/17 35/53/17 45/70/17
o Wall_West.004
v -2.204682 0.160181 -0.735772
v -2.204682 0.160181 1.137408
v -2.204682 -0.361294 1.137408
v -2.204682 -0.361294 -0.735772
v -2.349682 0.160181 -0.735772
v -2.349682 0.160181 1.137408
v -2.349682 -0.361294 1.137408
v -2.349682 -0.361294 -0.735772
vn -1.0000 -0.0000 -0.0000
vn -0.0000 -0.0000 1.0000
vn -0.0000 1.0000 -0.0000
vn -0.0000 -1.0000 -0.0000
vn 1.0000 -0.0000 -0.0000
vn -0.0000 -0.0000 -1.0000
vt 0.000000 0.000000
vt 0.000000 0.000000
vt 0.000000 0.000000
vt 0.000000 0.000000
vt -1.300933 -1.680300
vt 0.000000 0.000000
vt -1.300933 -1.680300
vt 0.000000 0.000000
vt -1.300933 -1.680300
vt 0.000000 0.000000
vt 0.000000 0.000000
vt -1.300933 -1.680300
s 0
usemtl Material.004
f 53/81/19 56/88/19 55/85/19 54/83/19
f 51/79/20 50/78/20 54/84/20 55/85/20
f 49/77/21 53/82/21 54/84/21 50/78/21
f 51/79/22 55/86/22 56/87/22 52/80/22
f 49/77/23 50/78/23 51/79/23 52/80/23
f 49/77/24 52/80/24 56/88/24 53/82/24
