# Blender 3.4.1
# www.blender.org
mtllib vegetableOilBottle.mtl
o bottle
v 0.017500 -0.017500 0.225000
v 0.014525 -0.014525 0.240000
v 0.017500 0.017500 0.225000
v 0.014525 0.014525 0.240000
v -0.017500 -0.017500 0.225000
v -0.014525 -0.014525 0.240000
v -0.017500 0.017500 0.225000
v -0.014525 0.014525 0.240000
v -0.035000 -0.035000 0.210000
v 0.035000 -0.035000 0.210000
v 0.035000 -0.035000 0.015000
v -0.035000 -0.035000 0.015000
v -0.035000 0.035000 0.015000
v 0.035000 0.035000 0.015000
v -0.035000 0.035000 0.210000
v 0.035000 0.035000 0.210000
v -0.028700 0.028700 0.000000
v -0.028700 -0.028700 0.000000
v 0.028700 0.028700 0.000000
v 0.028700 -0.028700 0.000000
vn 0.9809 -0.0000 0.1945
vn -0.0000 -0.9809 0.1945
vn -0.9809 -0.0000 0.1945
vn -0.0000 0.9809 0.1945
vn -0.0000 -0.6508 0.7593
vn -0.0000 -1.0000 -0.0000
vn -0.0000 1.0000 -0.0000
vn 1.0000 -0.0000 -0.0000
vn -0.0000 0.6508 0.7593
vn -0.6508 -0.0000 0.7593
vn 0.6508 -0.0000 0.7593
vn -0.0000 -0.0000 -1.0000
vn -0.0000 -0.9220 -0.3872
vn -0.0000 0.9220 -0.3872
vn 0.9220 -0.0000 -0.3872
vn -0.9220 -0.0000 -0.3872
vn -1.0000 -0.0000 -0.0000
vn -0.0000 -0.0000 1.0000
vt -1.377953 17.109970
vt 1.377953 17.109970
vt 1.377953 10.483550
vt -1.377953 10.483550
vt -1.143701 18.314079
vt 1.143701 18.314079
vt 1.377953 17.109970
vt -1.377953 17.109970
vt -1.377953 10.483550
vt 1.377953 10.483550
vt 1.143701 18.314079
vt -1.143701 18.314079
vt -1.377953 17.109970
vt 1.377953 17.109970
vt -1.377953 10.483550
vt 1.377953 10.483550
vt -1.143701 18.314079
vt 1.143701 18.314079
vt -1.377953 17.109970
vt 1.377953 17.109970
vt 1.377953 10.483550
vt -1.377953 10.483550
vt -1.143701 18.314079
vt 1.143701 18.314079
vt -2.755906 8.668677
vt 2.755906 8.668677
vt -2.755906 16.535431
vt 2.755906 8.668677
vt 2.755906 16.535431
vt -2.755906 16.535431
vt -2.755906 8.668677
vt 2.755906 1.181102
vt -2.755906 1.181102
vt 2.755906 2.156131
vt -2.755906 2.156131
vt -2.755906 1.181102
vt -2.755906 2.156131
vt 2.755906 2.156131
vt 2.755906 1.181102
vt 2.755906 2.156131
vt -2.755906 2.156131
vt -2.755906 1.181102
vt 2.755906 1.181102
vt -2.755906 2.156131
vt 2.755906 2.156131
vt 2.755906 16.535431
vt 2.755906 8.668677
vt -2.755906 8.668677
vt -2.755906 16.535431
vt 2.755906 16.535431
vt -2.755906 8.668677
vt 2.755906 8.668677
vt 2.259843 2.259843
vt 2.259843 0.875085
vt -2.259843 0.875085
vt 2.259843 -2.259843
vt -2.259843 0.875085
vt 2.259843 0.875085
vt -2.259843 2.259843
vt -2.259843 0.875085
vt 2.259843 0.875085
vt -2.259843 -2.259843
vt 2.259843 0.875085
vt -2.259843 0.875085
s 0
usemtl green.002
f 3/7/1 2/5/1 1/1/1
f 2/5/1 3/7/1 4/11/1
f 2/6/2 5/13/2 1/2/2
f 5/13/2 2/6/2 6/17/2
f 6/18/3 7/19/3 5/14/3
f 7/19/3 6/18/3 8/23/3
f 8/24/4 3/8/4 7/20/4
f 3/8/4 8/24/4 4/12/4
f 10/28/5 5/15/5 9/25/5
f 5/15/5 10/28/5 1/3/5
f 10/29/6 12/36/6 11/32/6
f 12/36/6 10/29/6 9/27/6
f 15/46/7 14/42/7 13/39/7
f 14/42/7 15/46/7 16/49/7
f 14/43/8 10/30/8 11/33/8
f 10/30/8 14/43/8 16/50/8
f 7/21/9 16/51/9 15/47/9
f 16/51/9 7/21/9 3/9/9
f 5/16/10 15/48/10 9/26/10
f 15/48/10 5/16/10 7/22/10
f 10/31/11 3/10/11 1/4/11
f 3/10/11 10/31/11 16/52/11
f 19/59/12 18/56/12 17/53/12
f 18/56/12 19/59/12 20/62/12
f 11/34/13 18/57/13 20/63/13
f 18/57/13 11/34/13 12/37/13
f 13/40/14 19/60/14 17/54/14
f 19/60/14 13/40/14 14/44/14
f 20/64/15 14/45/15 11/35/15
f 14/45/15 20/64/15 19/61/15
f 13/41/16 18/58/16 12/38/16
f 18/58/16 13/41/16 17/55/16
f 12/38/17 9/27/17 13/41/17
f 13/41/17 9/27/17 15/48/17
f 6/18/18 2/6/18 8/23/18
f 4/12/18 8/24/18 2/6/18
