# Blender 3.4.1
# www.blender.org
mtllib RosemaryCollider.mtl
o leek.002
v 0.005499 -0.002381 -0.088175
v 0.005499 0.002521 -0.088175
v 0.002455 0.005597 -0.088269
v -0.002447 0.005597 -0.088269
v -0.006095 -0.002381 -0.088404
v -0.006095 0.002521 -0.088404
v -0.002447 -0.005620 -0.088318
v 0.002455 -0.005620 -0.088318
v 0.022755 -0.008753 -0.045714
v 0.022755 0.009067 -0.045714
v 0.010365 0.020250 -0.045998
v -0.009582 0.020250 -0.045998
v -0.024429 -0.008753 -0.046405
v -0.024429 0.009067 -0.046405
v -0.009582 -0.020528 -0.046146
v 0.010365 -0.020528 -0.046146
v 0.022755 -0.008753 0.062811
v 0.022755 0.009067 0.062811
v 0.010365 0.020250 0.062528
v -0.009582 0.020250 0.062528
v -0.024429 -0.008753 0.062120
v -0.024429 0.009067 0.062120
v -0.009582 -0.020528 0.062379
v 0.010365 -0.020528 0.062379
vn -0.0146 -0.0000 0.9999
vn -0.0000 -0.0367 0.9993
vn -0.0146 0.0092 0.9999
vn -0.0146 0.0035 0.9999
vn -0.0000 -0.0364 0.9993
vn -0.0000 0.0443 -0.9990
vn 0.0158 -0.0000 -0.9999
vn -0.0000 0.0439 -0.9990
vn 0.0231 -0.0078 -0.9997
vn 0.0198 -0.0042 -0.9998
vn 0.0198 -0.0000 -0.9998
vn 0.6378 0.6810 -0.3598
vn -0.0000 -0.9428 -0.3333
vn 0.9264 -0.0000 -0.3765
vn 0.6570 -0.6615 -0.3617
vn -0.0000 0.9448 -0.3275
vn -0.5636 0.7446 -0.3576
vn -0.9165 -0.0000 -0.4001
vn -0.5838 -0.7274 -0.3606
vn -0.6016 0.7988 -0.0000
vn -1.0000 -0.0000 -0.0000
vn 1.0000 -0.0000 -0.0000
vn 0.6889 -0.7249 -0.0000
vn -0.6214 -0.7835 -0.0000
vn -0.0000 1.0000 -0.0000
vn -0.0000 -1.0000 -0.0000
vn 0.6700 0.7424 -0.0000
vt 0.000000 0.000000
vt 0.000000 0.000000
vt 0.000000 0.000000
vt 0.000000 0.000000
vt 0.000000 0.000000
vt 0.000000 0.000000
vt 0.000000 0.000000
vt 0.000000 0.000000
vt 0.000000 0.000000
vt 0.000000 0.000000
vt -0.386636 21.812420
vt 0.386636 21.802259
vt -0.386636 21.802259
vt -0.386636 21.812420
vt 0.386636 21.812420
vt 0.386636 21.805599
vt -0.386636 21.805599
vt 0.000000 0.000000
vt 0.000000 0.000000
vt -0.386636 21.812420
vt 0.386636 21.802259
vt -0.386636 21.802259
vt -0.386636 21.812420
vt 0.386636 21.812420
vt 0.386636 21.805599
vt -0.386636 21.805599
s 0
usemtl green.011
f 18/19/1 22/24/1 21/23/1
f 17/18/2 23/25/2 24/26/2
f 22/24/3 18/19/3 19/21/3
f 17/18/4 21/23/4 23/25/4
f 22/24/5 19/21/5 20/22/5
f 1/1/6 8/8/6 7/7/6
f 3/3/7 5/5/7 6/6/7
f 4/4/8 3/3/8 6/6/8
f 5/5/9 3/3/9 2/2/9
f 5/5/10 1/1/10 7/7/10
f 2/2/11 1/1/11 5/5/11
f 3/3/12 11/12/12 10/11/12 2/2/12
f 8/8/13 16/17/13 15/16/13 7/7/13
f 2/2/14 10/11/14 9/9/14 1/1/14
f 8/8/15 1/1/15 9/9/15 16/17/15
f 4/4/16 12/13/16 11/12/16 3/3/16
f 6/6/17 14/15/17 12/13/17 4/4/17
f 21/23/1 17/18/1 18/19/1
f 13/14/18 14/15/18 6/6/18 5/5/18
f 13/14/19 5/5/19 7/7/19 15/16/19
f 12/13/20 14/15/20 22/24/20 20/22/20
f 14/15/21 13/14/21 21/23/21 22/24/21
f 9/9/22 10/10/22 18/19/22 17/18/22
f 16/17/23 9/9/23 17/18/23 24/26/23
f 15/16/24 23/25/24 21/23/24 13/14/24
f 11/12/25 12/13/25 20/22/25 19/21/25
f 15/16/26 16/17/26 24/26/26 23/25/26
f 11/12/27 19/21/27 18/20/27 10/11/27
