# Blender 3.4.1
# www.blender.org
mtllib kitchenSinkCupboardCollider.mtl
o sinkCupboard
v -0.390908 0.233705 -0.363397
v -0.390908 0.233705 0.220550
v -0.447280 0.233705 0.276923
v -0.447280 0.233705 -0.419770
v 0.399347 0.233705 -0.363397
v 0.455720 0.233705 -0.419770
v 0.399347 0.233705 0.220550
v 0.455720 0.233705 0.276923
v 0.399347 0.233705 -0.363397
v -0.390908 0.233705 -0.363397
v 0.399347 0.233705 0.220550
v -0.390908 0.233705 0.220550
v 0.356629 0.233705 -0.320679
v -0.348190 0.233705 -0.320679
v -0.348190 0.233705 0.177832
v 0.356629 0.233705 0.177832
v -0.447280 0.233705 0.276922
v 0.455720 0.233705 0.276922
v 0.364417 0.094357 0.220550
v -0.355978 0.094357 0.220550
v -0.330375 0.075902 0.106281
v 0.338814 0.075902 0.106281
vn -0.0000 1.0000 -0.0000
vn -0.0000 -0.9872 0.1594
vn -0.0000 -0.3750 0.9270
vn 0.8364 -0.5481 -0.0000
vn 0.7180 -0.6943 -0.0487
vn -0.7180 -0.6943 -0.0487
vn -0.8364 -0.5481 -0.0000
vn -0.0000 -0.9578 -0.2873
vt 15.872280 3.349844
vt 15.872280 14.297470
vt 16.929131 15.354330
vt 16.929131 2.292987
vt 0.000000 0.000000
vt 1.056858 3.349844
vt 0.000000 2.292987
vt 0.000000 0.000000
vt 1.056858 14.297470
vt 0.000000 15.354330
vt 0.000000 0.000000
vt 14.815420 0.000000
vt 0.000000 10.947630
vt 14.815420 10.947630
vt 0.800864 0.800864
vt 14.014550 0.800864
vt 14.014550 10.146770
vt 0.800864 10.146770
vt 0.000000 0.000000
vt 0.000000 0.000000
vt 0.000000 0.000000
vt 0.000000 0.000000
vt 0.000000 0.000000
vt 0.000000 0.000000
s 0
usemtl wood
f 1/1/1 6/7/1 4/4/1
f 4/4/1 3/3/1 1/1/1
f 3/3/1 2/2/1 1/1/1
f 3/3/1 7/9/1 2/2/1
f 6/7/1 1/1/1 5/6/1
f 5/6/1 8/10/1 6/7/1
f 5/6/1 7/9/1 8/10/1
f 7/9/1 3/3/1 8/10/1
f 19/21/2 20/22/2 21/23/2 22/24/2
f 18/20/3 17/19/3 20/22/3 19/21/3
f 19/21/4 6/8/4 18/20/4
f 22/24/5 6/8/5 19/21/5
f 4/5/6 21/23/6 20/22/6
f 20/22/7 17/19/7 4/5/7
f 4/5/8 6/8/8 22/24/8 21/23/8
usemtl woodDark
f 13/15/1 14/16/1 15/17/1 16/18/1
f 14/16/1 9/11/1 10/12/1
f 10/12/1 12/14/1 14/16/1
f 12/14/1 15/17/1 14/16/1
f 12/14/1 16/18/1 15/17/1
f 9/11/1 14/16/1 13/15/1
f 13/15/1 11/13/1 9/11/1
f 13/15/1 16/18/1 11/13/1
f 16/18/1 12/14/1 11/13/1
o sinkCupboard.001
v -0.447280 0.191705 -0.419771
v -0.447280 -0.669294 0.276923
v -0.447280 0.233705 0.276923
v -0.447280 0.233705 -0.419770
v -0.447280 -0.669294 -0.419771
v -0.447280 -0.669294 0.276922
v -0.447280 0.233705 0.276922
v -0.355978 -0.424946 0.220550
v -0.355978 0.094357 0.220550
v -0.330375 0.075902 0.106281
v -0.330375 -0.406491 0.106281
vn -1.0000 -0.0000 -0.0000
vn 0.9758 -0.0000 0.2186
vn 0.5254 -0.0000 0.8509
vn 0.9363 -0.3131 0.1592
vn 0.9137 -0.4064 -0.0000
vn 0.8510 0.5140 0.1076
vn 0.8035 0.5953 -0.0000
vn 0.9762 -0.0000 -0.2169
vt 1.574803 2.292987
vt 0.000000 0.000000
vt 17.716539 15.354330
vt 0.787402 15.354330
vt 0.787402 2.292987
vt 0.000000 0.000000
vt 0.000000 0.000000
vt 0.000000 0.000000
vt 0.000000 0.000000
vt 0.000000 0.000000
vt 0.000000 0.000000
vt 0.000000 0.000000
vt 0.000000 0.000000
s 0
usemtl wood
f 23/25/9 24/27/9 25/28/9
f 25/28/9 26/29/9 23/25/9
f 23/26/9 27/31/9 24/27/9
f 31/35/10 30/34/10 33/37/10 32/36/10
f 29/33/11 28/32/11 30/34/11 31/35/11
f 30/34/12 28/32/12 33/37/12
f 27/31/13 33/37/13 28/32/13
f 31/35/14 32/36/14 29/33/14
f 32/36/15 26/30/15 29/33/15
f 26/30/16 32/36/16 33/37/16 27/31/16 23/26/16
o sinkCupboard.002
v -0.447280 -0.669294 0.276923
v 0.455720 -0.669294 0.276923
v 0.455720 -0.669294 -0.419771
v -0.447280 -0.669294 -0.419771
v -0.447280 -0.669294 0.276922
v 0.364417 -0.424946 0.220550
v -0.355978 -0.424946 0.220550
v -0.330375 -0.406491 0.106281
v 0.338814 -0.406491 0.106281
vn -0.0000 -1.0000 -0.0000
vn -0.0000 0.2248 0.9744
vn -0.0000 0.9872 0.1594
vn -0.9367 0.3500 -0.0000
vn -0.8251 0.5570 -0.0949
vn 0.8251 0.5570 -0.0949
vn 0.9367 0.3500 -0.0000
vn -0.0000 0.8946 -0.4469
vt 0.000000 0.000000
vt 0.000000 0.000000
vt 0.000000 0.000000
vt 0.000000 0.000000
vt 0.000000 0.000000
vt 0.000000 0.000000
vt 0.000000 0.000000
vt 0.000000 0.000000
vt 0.000000 0.000000
s 0
usemtl wood
f 34/38/17 37/41/17 36/40/17 35/39/17
f 35/39/18 39/43/18 40/44/18 38/42/18
f 40/44/19 39/43/19 42/46/19 41/45/19
f 37/41/20 38/42/20 40/44/20
f 40/44/21 41/45/21 37/41/21
f 36/40/22 42/46/22 39/43/22
f 36/40/23 39/43/23 35/39/23
f 37/41/24 41/45/24 42/46/24 36/40/24
o sinkCupboard.003
v 0.455720 0.191705 -0.419770
v 0.455720 -0.669294 0.276923
v 0.455720 0.233705 -0.419770
v 0.455720 0.233705 0.276923
v 0.455720 -0.669294 -0.419771
v 0.455720 0.233705 0.276922
v 0.364417 -0.424946 0.220550
v 0.364417 0.094357 0.220550
v 0.338814 0.075902 0.106281
v 0.338814 -0.406491 0.106281
vn 1.0000 -0.0000 -0.0000
vn -0.5254 -0.0000 0.8509
vn -0.9758 -0.0000 0.2186
vn -0.9363 -0.3131 0.1592
vn -0.9137 -0.4064 -0.0000
vn -0.8510 0.5140 0.1076
vn -0.8035 0.5953 -0.0000
vn -0.9762 -0.0000 -0.2169
vt -1.574803 2.292987
vt 0.000000 0.000000
vt -17.716539 15.354330
vt 0.000000 0.000000
vt -0.787402 2.292987
vt 0.000000 2.292987
vt 0.000000 0.000000
vt 0.000000 15.354330
vt 0.000000 0.000000
vt 0.000000 0.000000
vt 0.000000 0.000000
vt 0.000000 0.000000
vt 0.000000 0.000000
vt 0.000000 0.000000
s 0
usemtl wood
f 44/49/25 43/47/25 45/51/25
f 47/55/25 43/48/25 44/50/25
f 45/52/25 46/54/25 44/49/25
f 49/57/26 44/50/26 48/56/26 50/58/26
f 49/57/27 50/58/27 51/59/27 52/60/27
f 49/57/28 52/60/28 44/50/28
f 44/50/29 52/60/29 47/55/29
f 50/58/30 48/56/30 51/59/30
f 45/53/31 51/59/31 48/56/31
f 45/53/32 43/48/32 47/55/32 52/60/32 51/59/32
o sinkCupboard.004
v -0.447280 0.233705 -0.419770
v 0.455720 0.233705 -0.419770
v 0.455720 -0.669294 -0.419771
v -0.447280 -0.669294 -0.419771
v -0.330375 0.075902 0.106281
v -0.330375 -0.406491 0.106281
v 0.338814 0.075902 0.106281
v 0.338814 -0.406491 0.106281
vn -0.0000 -0.0000 1.0000
vn -0.0000 -0.9578 -0.2873
vn 0.9762 -0.0000 -0.2169
vn -0.0000 0.8946 -0.4469
vn -0.9762 -0.0000 -0.2169
vt 0.000000 0.000000
vt 0.000000 0.000000
vt 0.000000 0.000000
vt 0.000000 0.000000
vt 0.000000 0.000000
vt 0.000000 0.000000
vt 0.000000 0.000000
vt 0.000000 0.000000
s 0
usemtl wood
f 54/62/33 53/61/33 56/64/33 55/63/33
f 57/65/33 58/66/33 60/68/33 59/67/33
f 59/67/34 57/65/34 53/61/34 54/62/34
f 57/65/35 58/66/35 56/64/35 53/61/35
f 56/64/36 58/66/36 60/68/36 55/63/36
f 59/67/37 54/62/37 55/63/37 60/68/37
