# Blender 3.4.1
# www.blender.org
mtllib kitchenSinkCollider.mtl
o sink.001
v 0.029623 -0.143505 0.077386
v -0.033484 -0.143505 0.077386
v 0.029623 -0.137299 0.082829
v -0.033484 -0.137299 0.082829
v 0.029623 -0.130435 0.087415
v -0.033484 -0.130435 0.087415
v -0.033484 0.090441 0.032762
v -0.033484 0.089901 0.040999
v -0.033484 -0.098881 0.032762
v -0.033484 0.088291 0.049096
v -0.033484 0.085637 0.056912
v -0.033484 0.081986 0.064316
v -0.033484 0.077400 0.071180
v -0.033484 0.071957 0.077386
v -0.033484 0.065751 0.082829
v -0.033484 0.058887 0.087415
v -0.033484 0.051484 0.091066
v -0.033484 0.043667 0.093719
v -0.033484 0.035571 0.095330
v -0.033484 0.027334 0.095870
v -0.033484 -0.098881 0.095870
v -0.033484 -0.161989 0.032762
v -0.033484 -0.107119 0.095330
v -0.033484 -0.115215 0.093719
v -0.033484 -0.123032 0.091066
v -0.033484 -0.148948 0.071180
v -0.033484 -0.153534 0.064316
v -0.033484 -0.157185 0.056912
v -0.033484 -0.159839 0.049096
v -0.033484 -0.161449 0.040999
v 0.029623 -0.115215 0.093719
v 0.029623 -0.107119 0.095330
v 0.029623 -0.161449 0.040999
v 0.029623 -0.159839 0.049096
v 0.029623 -0.123032 0.091066
v 0.029623 -0.161989 0.032762
v 0.029623 0.090441 0.032762
v 0.029623 -0.098881 0.032762
v 0.029623 0.027334 0.095870
v 0.029623 -0.098881 0.095870
v 0.029623 -0.157185 0.056912
v 0.029623 -0.153534 0.064316
v 0.029623 -0.148948 0.071180
v 0.029623 0.089901 0.040999
v 0.029623 0.088291 0.049096
v 0.029623 0.085637 0.056912
v 0.029623 0.081986 0.064316
v 0.029623 0.077400 0.071180
v 0.029623 0.071957 0.077386
v 0.029623 0.065751 0.082829
v 0.029623 0.058887 0.087415
v 0.029623 0.051484 0.091066
v 0.029623 0.043667 0.093719
v 0.029623 0.035571 0.095330
vn -0.0000 -0.7071 0.7071
vn -0.0000 -0.6088 0.7934
vn -0.0000 -0.6087 0.7934
vn -0.0000 -0.5000 0.8660
vn -1.0000 -0.0000 -0.0000
vn -0.0000 -0.2588 0.9659
vn -0.0000 -0.1306 0.9914
vn -0.0000 -0.1305 0.9914
vn -0.0000 -0.3827 0.9239
vn -0.0000 -0.0000 -1.0000
vn -0.0000 -0.0000 1.0000
vn -0.0000 -0.0654 0.9979
vn 1.0000 -0.0000 -0.0000
vn -0.0000 -0.7934 0.6088
vn -0.0000 0.7934 0.6088
vn -0.0000 0.8660 0.5000
vn -0.0000 0.1306 0.9914
vn -0.0000 0.2588 0.9659
vn -0.0000 0.1305 0.9914
vn -0.0000 0.9239 0.3827
vn -0.0000 0.0654 0.9979
vn -0.0000 0.3827 0.9239
vn -0.0000 0.5000 0.8660
vn -0.0000 0.6088 0.7933
vn -0.0000 0.7071 0.7071
vn -0.0000 0.7933 0.6088
vn -0.0000 0.9659 0.2588
vn -0.0000 0.9914 0.1305
vn -0.0000 0.9979 0.0654
vn -0.0000 -0.8315 0.5556
vn -0.0375 -0.8595 0.5098
vn -0.0653 -0.8281 0.5567
vn -0.0000 -0.8969 0.4423
vn -0.0000 -0.9469 0.3214
vn -0.0000 -0.9808 0.1951
vn -0.0000 -0.9979 0.0654
vt -8.000472 1.158394
vt -15.073930 18.945400
vt -8.000472 4.304978
vt -9.181575 1.158394
vt 15.073930 18.945400
vt -9.181575 4.304978
vt -8.000472 1.312890
vt -8.000472 -1.854835
vt -14.957770 19.047270
vt -9.181575 1.312890
vt -9.181575 -1.854835
vt 14.957770 19.047270
vt -8.000472 -1.700340
vt -14.829310 19.133101
vt -8.000472 -4.837650
vt -9.181575 -1.700340
vt 14.829310 19.133101
vt -9.181575 -4.837650
vt 10.695450 18.110241
vt 9.181575 18.770981
vt -9.181575 10.695450
vt 10.705560 18.264400
vt 9.181575 20.002010
vt 9.181575 18.925470
vt -9.181575 14.238760
vt 14.238760 18.110241
vt 10.735700 18.415930
vt 9.181575 20.889469
vt 9.181575 20.156500
vt 10.785360 18.562229
vt 9.181575 21.418200
vt 9.181575 21.043970
vt 10.853690 18.700790
vt 9.181575 21.579121
vt 9.181575 21.572689
vt 10.939520 18.829250
vt 9.181575 21.733620
vt 9.181575 21.369499
vt 11.041390 18.945400
vt 9.181575 20.792931
vt 9.181575 21.524000
vt 11.157550 19.047270
vt 9.181575 19.859249
vt 9.181575 20.947420
vt 11.286000 19.133101
vt 9.181575 18.584459
vt 9.181575 20.013750
vt 11.424570 19.201429
vt 9.181575 16.990360
vt 9.181575 18.738960
vt 11.570860 19.251089
vt 9.181575 15.104230
vt 9.181575 17.144859
vt 11.722390 19.281231
vt 9.181575 15.258730
vt 9.181575 12.958340
vt 11.876550 19.291340
vt 9.181575 11.876550
vt 9.181575 13.112840
vt 14.238760 19.291340
vt 9.181575 14.238760
vt -9.181575 -12.946560
vt 15.419860 18.110241
vt 14.392920 19.281231
vt -9.181575 -10.354790
vt -9.181575 -13.101060
vt 14.544450 19.251089
vt -9.181575 -10.509280
vt -9.181575 -7.584518
vt 14.690750 19.201429
vt -9.181575 -7.739014
vt -9.181575 -4.683155
vt 15.175790 18.829250
vt -9.181575 4.150482
vt 15.261620 18.700790
vt 15.329960 18.562229
vt 15.379620 18.415930
vt 15.409760 18.264400
vt -8.000472 -10.509280
vt -8.000472 -7.584518
vt -14.544450 19.251089
vt -8.000472 -10.354790
vt -8.000472 -13.101060
vt -14.392920 19.281231
vt -15.409760 18.264400
vt -15.379620 18.415930
vt -8.000472 -7.739014
vt -14.690750 19.201429
vt -8.000472 -4.683155
vt -15.419860 18.110241
vt 8.000472 18.770981
vt -10.695450 18.110241
vt -14.238760 18.110241
vt -8.000472 14.238760
vt 8.000472 11.876550
vt -11.876550 19.291340
vt 8.000472 13.112840
vt 8.000472 14.238760
vt -8.000472 -12.946560
vt -14.238760 19.291340
vt -15.329960 18.562229
vt -15.261620 18.700790
vt -8.000472 4.150482
vt -15.175790 18.829250
vt -10.705560 18.264400
vt 8.000472 20.002010
vt 8.000472 18.925470
vt -10.735700 18.415930
vt 8.000472 20.889469
vt 8.000472 20.156500
vt -10.785360 18.562229
vt 8.000472 21.418200
vt 8.000472 21.043970
vt -10.853690 18.700790
vt 8.000472 21.579121
vt 8.000472 21.572689
vt -10.939520 18.829250
vt 8.000472 21.733620
vt 8.000472 21.369499
vt -11.041390 18.945400
vt 8.000472 20.792931
vt 8.000472 21.524000
vt -11.157550 19.047270
vt 8.000472 19.859249
vt 8.000472 20.947420
vt -11.286000 19.133101
vt 8.000472 18.584459
vt 8.000472 20.013750
vt -11.424570 19.201429
vt 8.000472 16.990360
vt 8.000472 18.738960
vt -11.570860 19.251089
vt 8.000472 15.104230
vt 8.000472 17.144859
vt -11.722390 19.281231
vt 8.000472 15.258730
vt 8.000472 12.958340
s 0
usemtl metalLight
f 2/4/1 1/1/1 3/7/2
f 3/7/2 4/10/2 2/4/1
f 3/8/3 5/13/4 6/16/4
f 6/16/4 4/11/3 3/8/3
f 8/22/5 7/19/5 9/26/5
f 9/26/5 10/27/5 8/22/5
f 9/26/5 11/30/5 10/27/5
f 9/26/5 12/33/5 11/30/5
f 9/26/5 13/36/5 12/33/5
f 9/26/5 14/39/5 13/36/5
f 9/26/5 15/42/5 14/39/5
f 9/26/5 16/45/5 15/42/5
f 9/26/5 17/48/5 16/45/5
f 9/26/5 18/51/5 17/48/5
f 9/26/5 19/54/5 18/51/5
f 9/26/5 20/57/5 19/54/5
f 9/26/5 21/60/5 20/57/5
f 9/26/5 22/63/5 21/60/5
f 22/63/5 23/64/5 21/60/5
f 22/63/5 24/67/5 23/64/5
f 22/63/5 25/70/5 24/67/5
f 22/63/5 6/17/5 25/70/5
f 22/63/5 4/12/5 6/17/5
f 22/63/5 2/5/5 4/12/5
f 22/63/5 26/73/5 2/5/5
f 22/63/5 27/75/5 26/73/5
f 22/63/5 28/76/5 27/75/5
f 22/63/5 29/77/5 28/76/5
f 24/68/6 31/79/6 32/82/7
f 32/82/8 23/65/8 24/68/6
f 35/87/9 31/80/6 24/69/6
f 24/69/6 25/71/9 35/87/9
f 38/94/10 9/25/10 7/21/10
f 40/98/11 39/95/11 20/58/11
f 20/58/11 21/61/11 40/98/11
f 23/66/8 32/83/8 40/99/12
f 40/99/12 21/62/12 23/66/8
f 38/93/13 37/92/13 44/105/13
f 44/105/13 45/108/13 38/93/13
f 45/108/13 46/111/13 38/93/13
f 46/111/13 47/114/13 38/93/13
f 47/114/13 48/117/13 38/93/13
f 48/117/13 49/120/13 38/93/13
f 49/120/13 50/123/13 38/93/13
f 50/123/13 51/126/13 38/93/13
f 51/126/13 52/129/13 38/93/13
f 52/129/13 53/132/13 38/93/13
f 53/132/13 54/135/13 38/93/13
f 54/135/13 39/96/13 38/93/13
f 39/96/13 40/100/13 38/93/13
f 40/100/13 32/84/13 38/93/13
f 32/84/13 36/90/13 38/93/13
f 32/84/13 31/81/13 36/90/13
f 31/81/13 35/88/13 36/90/13
f 35/88/13 5/14/13 36/90/13
f 5/14/13 3/9/13 36/90/13
f 3/9/13 1/2/13 36/90/13
f 1/2/13 43/104/13 36/90/13
f 43/104/13 42/102/13 36/90/13
f 42/102/13 41/101/13 36/90/13
f 41/101/13 34/86/13 36/90/13
f 6/18/4 5/15/4 35/89/9
f 35/89/9 25/72/9 6/18/4
f 2/6/1 26/74/14 43/103/14
f 43/103/14 1/3/1 2/6/1
f 48/118/15 47/115/16 12/34/16
f 12/34/16 13/37/15 48/118/15
f 54/136/17 53/133/18 18/52/18
f 18/52/18 19/55/19 54/136/19
f 47/116/16 46/112/20 11/31/20
f 11/31/20 12/35/16 47/116/16
f 39/97/21 54/137/19 19/56/19
f 19/56/19 20/59/21 39/97/21
f 53/134/18 52/130/22 17/49/22
f 17/49/22 18/53/18 53/134/18
f 52/131/22 51/127/23 16/46/23
f 16/46/23 17/50/22 52/131/22
f 51/128/23 50/124/24 15/43/24
f 15/43/24 16/47/23 51/128/23
f 50/125/24 49/121/25 14/40/25
f 14/40/25 15/44/24 50/125/24
f 49/122/25 48/119/26 13/38/26
f 13/38/26 14/41/25 49/122/25
f 46/113/20 45/109/27 10/28/27
f 10/28/27 11/32/20 46/113/20
f 45/110/27 44/106/28 8/23/28
f 8/23/28 10/29/27 45/110/27
f 37/91/29 7/20/29 8/24/28
f 8/24/28 44/107/28 37/91/29
f 43/104/30 26/74/31 42/102/30
f 27/75/30 42/102/30 26/74/32
f 42/102/33 27/75/33 41/101/33
f 27/75/33 28/76/33 41/101/33
f 41/101/34 28/76/34 34/86/34
f 28/76/34 29/77/34 34/86/34
f 34/86/35 29/77/35 33/85/35
f 29/77/35 30/78/35 33/85/35
f 33/85/36 30/78/36 36/90/36
f 30/78/36 22/63/36 36/90/36
f 37/92/10 38/93/10 7/21/10
f 36/90/10 22/63/10 9/26/10 38/94/10
o sink.002
v -0.033484 -0.098881 -0.009310
v -0.033484 -0.161989 -0.009310
v -0.033484 -0.098881 0.032762
v -0.033484 -0.161989 0.032762
v 0.029623 -0.161989 -0.009310
v -0.096592 -0.161989 0.032762
v -0.096592 -0.161989 -0.009310
v 0.092731 -0.161989 -0.009310
v 0.092731 -0.161989 0.032762
v 0.029623 -0.161989 0.032762
v 0.029623 -0.098881 0.032762
v -0.096592 -0.098881 0.032762
v -0.096592 -0.098881 -0.009310
v 0.092731 -0.098881 -0.009310
v 0.092731 -0.098881 0.032762
v 0.029623 -0.098881 -0.009310
vn -0.0000 -0.0000 1.0000
vn -1.0000 -0.0000 -0.0000
vn -0.0000 -0.0000 -1.0000
vn 1.0000 -0.0000 -0.0000
vn -0.0000 1.0000 -0.0000
vn -0.0000 -1.0000 -0.0000
vt 9.181575 17.322830
vt -9.181575 14.238760
vt 15.419860 17.322830
vt 9.181575 14.238760
vt 9.181575 15.419860
vt 15.419860 18.110241
vt -15.419860 17.322830
vt 0.000000 0.000000
vt 15.419860 18.110241
vt 10.362680 15.419860
vt 15.419860 17.322830
vt -10.362680 15.419860
vt -15.419860 17.322830
vt -15.419860 18.110241
vt 6.819370 15.419860
vt 8.000472 15.419860
vt 8.000472 18.110241
vt 8.000472 14.238760
vt 10.362680 14.238760
vt 14.238760 18.110241
vt 10.362680 18.110241
vt 14.238760 17.322830
vt -10.362680 14.238760
vt 10.362680 17.322830
vt -14.238760 17.322830
vt 6.819370 17.322830
vt -14.238760 18.110241
vt 6.819370 14.238760
vt 6.819370 18.110241
vt 8.000472 17.322830
s 0
usemtl metal
f 59/145/42 58/143/42 56/140/42
usemtl metalLight
f 60/147/37 58/142/37 57/141/37
f 57/141/37 66/156/37 60/147/37
f 66/157/38 67/159/38 61/148/38
f 61/148/38 60/146/38 66/157/38
f 61/149/39 67/160/39 55/139/39
f 62/150/40 68/162/40 69/164/40
f 69/164/40 63/151/40 62/150/40
f 64/153/37 63/152/37 69/165/37
f 69/165/37 65/155/37 64/153/37
f 55/138/41 67/161/41 66/158/41
f 66/158/41 70/167/41 55/138/41
f 66/158/41 68/163/41 70/167/41
f 66/158/41 65/154/41 68/163/41
f 65/154/41 69/166/41 68/163/41
f 56/140/39 61/149/39 55/139/39
f 68/163/39 62/150/39 70/167/39
f 70/167/39 62/150/39 59/144/39
f 59/145/42 63/152/42 64/153/42
f 62/150/42 63/152/42 59/144/42
f 64/153/42 58/143/42 59/145/42
f 58/143/42 60/147/42 56/140/42
f 61/149/42 56/140/42 60/147/42
f 64/153/37 65/155/37 57/141/37 58/143/37
f 59/145/39 56/140/39 55/139/39 70/167/39
o sink.003
v 0.029623 -0.098881 -0.051381
v -0.033484 -0.098881 -0.051381
v -0.033484 -0.161989 -0.051381
v 0.029623 -0.161989 -0.051381
v -0.033484 -0.098881 -0.009310
v -0.033484 -0.161989 -0.009310
v 0.029623 -0.161989 -0.009310
v 0.029623 -0.098881 -0.009310
vn -1.0000 -0.0000 -0.0000
vn -0.0000 1.0000 -0.0000
vn 1.0000 -0.0000 -0.0000
vn -0.0000 -1.0000 -0.0000
vn -0.0000 -0.0000 1.0000
vn -0.0000 -0.0000 -1.0000
vt 8.000472 16.535431
vt -14.238760 16.535431
vt 9.181575 16.535431
vt 14.238760 16.535431
vt 15.419860 16.535431
vt -15.419860 16.535431
vt 9.181575 17.322830
vt 14.238760 17.322830
vt 15.419860 17.322830
vt -15.419860 17.322830
vt -14.238760 17.322830
vt 8.000472 17.322830
s 0
usemtl metal
f 74/173/46 77/177/46 76/176/46 73/172/46
usemtl metalLight
f 76/176/43 75/175/43 72/171/43
f 72/171/43 73/172/43 76/176/43
f 75/174/44 78/179/44 71/168/44
f 71/168/44 72/170/44 75/174/44
f 71/169/45 78/178/45 77/177/45
f 77/177/45 74/173/45 71/169/45
f 77/177/47 78/179/47 75/175/47 76/176/47
f 71/169/48 74/173/48 73/172/48 72/171/48
o sink.004
v -0.447444 -0.284703 -0.114489
v 0.457097 -0.284703 -0.114489
v -0.447444 -0.221595 -0.051381
v -0.447444 -0.221595 0.011726
v -0.447444 -0.284703 0.011726
v 0.457097 -0.284703 0.011726
v 0.457097 -0.221595 0.011726
v 0.457097 -0.221595 -0.051381
vn -1.0000 -0.0000 -0.0000
vn -0.0000 -1.0000 -0.0000
vn -0.0000 -0.0000 1.0000
vn 1.0000 -0.0000 -0.0000
vn -0.0000 1.0000 -0.0000
vn -0.0000 0.7071 -0.7071
vt 17.716539 15.354330
vt -16.929131 15.354330
vt 0.000000 15.354330
vt -17.716539 15.354330
vt 16.929131 16.535431
vt 16.535431 16.535431
vt 16.535431 17.716539
vt 16.929131 16.535431
vt 16.929131 17.716539
vt 17.716539 17.716539
vt -16.929131 17.716539
vt 16.929131 17.716539
vt 0.000000 17.716539
vt -17.716539 17.716539
vt 0.000000 16.535431
vt -16.535431 17.716539
vt 0.000000 17.716539
vt 0.000000 16.535431
vt -16.535431 16.535431
s 0
usemtl metal
f 79/180/49 82/186/49 81/185/49
f 79/180/49 83/189/49 82/186/49
f 79/181/50 80/182/50 84/192/50
f 84/192/50 83/190/50 79/181/50
f 83/191/51 84/192/51 85/194/51
f 85/194/51 82/187/51 83/191/51
f 86/198/52 85/195/52 84/193/52
f 86/198/52 84/193/52 80/183/52
f 86/197/53 81/184/53 82/188/53
f 82/188/53 85/196/53 86/197/53
f 86/198/54 80/183/54 79/181/54 81/185/54
o sink.005
v -0.447444 -0.284703 -0.114489
v 0.457097 -0.284703 -0.114489
v 0.343904 -0.024271 -0.170958
v -0.334252 -0.024271 -0.170958
v -0.447444 -0.221595 -0.051381
v 0.457097 -0.221595 -0.051381
v -0.334252 -0.024271 -0.051381
v 0.343904 -0.024271 -0.051381
v 0.029623 -0.098881 -0.051381
v -0.033484 -0.098881 -0.051381
v -0.033484 -0.161989 -0.051381
v 0.029623 -0.161989 -0.051381
vn -0.0000 1.0000 -0.0000
vn -0.0000 -0.7071 0.7071
vn -0.0000 -0.0000 1.0000
vn -0.0000 -0.2119 -0.9773
vn -0.8938 0.4239 -0.1465
vn 0.8938 0.4239 -0.1465
vt 0.000000 0.000000
vt -17.716539 15.354330
vt 2.118477 14.297470
vt 14.810660 14.297470
vt 16.929131 16.535431
vt 0.000000 16.535431
vt -16.535431 16.535431
vt 14.810660 12.842360
vt 14.810660 16.535431
vt 2.118477 12.842360
vt 2.118477 16.535431
vt 8.000472 14.238760
vt 9.181575 14.238760
vt 9.181575 15.419860
vt 8.000472 15.419860
s 0
usemtl metal
f 89/201/55 90/202/55 93/207/55
f 93/207/55 94/209/55 89/201/55
f 92/205/56 91/203/56 87/199/56 88/200/56
f 95/210/57 96/211/57 97/212/57 98/213/57
f 95/210/57 94/208/57 93/206/57
f 93/206/57 96/211/57 95/210/57
f 93/206/57 97/212/57 96/211/57
f 94/208/57 95/210/57 98/213/57
f 92/204/57 94/208/57 98/213/57
f 98/213/57 91/203/57 92/204/57
f 98/213/57 97/212/57 91/203/57
f 97/212/57 93/206/57 91/203/57
f 89/201/58 88/200/58 87/199/58 90/202/58
f 93/207/59 90/202/59 87/199/59 91/203/59
f 92/205/60 88/200/60 89/201/60 94/209/60
o sink.006
v 0.313387 0.464585 -0.261740
v 0.313387 -0.024271 -0.261740
v -0.303735 -0.024271 -0.261740
v -0.303735 0.464585 -0.261740
v -0.303735 0.464585 -0.279795
v -0.303735 -0.024271 -0.279795
v 0.313387 -0.024271 -0.279795
v 0.313387 0.464585 -0.279795
vn -0.0000 -0.0000 -1.0000
vn -0.0000 -0.0000 1.0000
vn -0.0000 1.0000 -0.0000
vn -1.0000 -0.0000 -0.0000
vn -0.0000 -1.0000 -0.0000
vn 1.0000 -0.0000 -0.0000
vt -2.689625 12.598420
vt 2.689625 12.598420
vt -12.842360 16.478979
vt -14.239510 12.598420
vt -14.239510 12.598420
vt -12.842360 16.478979
vt 2.689625 12.598420
vt -2.689625 12.598420
s 0
usemtl metal
f 106/221/61 105/220/61 104/219/61 103/218/61
f 99/214/62 102/217/62 101/216/62 100/215/62
f 102/217/63 99/214/63 106/221/63 103/218/63
f 103/218/64 104/219/64 101/216/64 102/217/64
f 101/216/65 104/219/65 105/220/65 100/215/65
f 100/215/66 105/220/66 106/221/66 99/214/66
o sink.007
v -0.447444 -0.284703 -0.114489
v -0.334252 -0.024271 -0.170958
v -0.334252 0.464585 -0.170958
v -0.447444 0.661910 -0.114489
v -0.303735 -0.024271 -0.261740
v -0.303735 0.464585 -0.261740
v -0.303735 0.464585 -0.279795
v -0.303735 -0.024271 -0.279795
vn 0.9479 -0.0000 0.3186
vn -0.7547 -0.0000 -0.6561
vn 1.0000 -0.0000 -0.0000
vn 0.8755 -0.4831 -0.0000
vn 0.8966 -0.3244 0.3014
vn 0.8083 0.5887 -0.0000
vn 0.8636 0.4123 0.2903
vn 0.4464 -0.0000 0.8948
vt 17.716539 15.354330
vt -12.842360 18.271460
vt -3.693070 18.271460
vt 16.929131 15.354330
vt -12.842360 16.478979
vt -3.693070 16.478979
vt -14.239510 12.598420
vt -12.842360 16.478979
s 0
usemtl metal
f 112/227/67 109/224/67 108/223/67
f 108/223/67 111/226/67 112/227/67
f 107/222/68 110/225/68 113/228/68 114/229/68
f 113/228/69 112/227/69 111/226/69 114/229/69
f 114/229/70 111/226/70 107/222/70
f 111/226/71 108/223/71 107/222/71
f 113/228/72 110/225/72 112/227/72
f 112/227/73 110/225/73 109/224/73
f 110/225/74 107/222/74 108/223/74 109/224/74
o sink.008
v 0.343904 0.464585 -0.170958
v -0.334252 0.464585 -0.170958
v 0.457097 0.661910 -0.114489
v -0.447444 0.661910 -0.114489
v 0.313387 0.464585 -0.261740
v -0.303735 0.464585 -0.261740
v -0.303735 0.464585 -0.279795
v 0.313387 0.464585 -0.279795
vn -0.0000 -1.0000 -0.0000
vn -0.0000 0.6422 -0.7666
vn -0.8083 -0.5887 -0.0000
vn -0.8636 -0.4123 -0.2903
vn 0.8083 -0.5887 -0.0000
vn 0.8636 -0.4123 -0.2903
vn -0.0000 -0.2751 0.9614
vt -2.118477 14.297470
vt -14.810660 14.297470
vt 0.000000 0.000000
vt 0.000000 0.000000
vt -2.689625 12.598420
vt -14.239510 12.598420
vt 0.000000 0.000000
vt 0.000000 0.000000
s 0
usemtl metal
f 120/235/75 119/234/75 115/230/75
f 115/230/75 116/231/75 120/235/75
f 117/232/76 122/237/76 121/236/76 118/233/76
f 120/235/75 121/236/75 122/237/75 119/234/75
f 121/236/77 120/235/77 118/233/77
f 120/235/78 116/231/78 118/233/78
f 122/237/79 117/232/79 119/234/79
f 119/234/80 117/232/80 115/230/80
f 118/233/81 116/231/81 115/230/81 117/232/81
o sink.009
v 0.457097 -0.284703 -0.114489
v 0.457097 0.661910 -0.114489
v 0.313387 -0.024271 -0.279795
v 0.313387 0.464586 -0.279795
v 0.343904 -0.024271 -0.170958
v 0.343904 0.464585 -0.170958
v 0.313387 0.464585 -0.261740
v 0.313387 -0.024271 -0.261740
vn 0.7547 -0.0000 -0.6561
vn -0.9479 -0.0000 0.3186
vn -1.0000 -0.0000 -0.0000
vn -0.8083 0.5887 -0.0000
vn -0.8636 0.4123 0.2903
vn -0.8755 -0.4831 -0.0000
vn -0.8966 -0.3244 0.3014
vn -0.4464 -0.0000 0.8948
vt 0.000000 0.000000
vt 0.000000 0.000000
vt 0.000000 0.000000
vt 0.000000 0.000000
vt 12.842360 12.877220
vt 3.693070 12.877220
vt 3.693070 11.084750
vt 12.842360 11.084750
s 0
usemtl metal
f 123/238/82 125/240/82 126/241/82 124/239/82
f 128/243/83 129/244/83 130/245/83
f 130/245/83 127/242/83 128/243/83
f 125/240/84 130/245/84 129/244/84 126/241/84
f 126/241/85 129/244/85 124/239/85
f 129/244/86 128/243/86 124/239/86
f 125/240/87 123/238/87 130/245/87
f 130/245/88 123/238/88 127/242/88
f 124/239/89 128/243/89 127/242/89 123/238/89
o sink.010
v -0.447444 -0.284703 -0.114489
v 0.457097 -0.284703 -0.114489
v 0.343904 -0.024271 -0.170958
v -0.334252 -0.024271 -0.170958
v 0.313387 -0.024271 -0.261740
v -0.303735 -0.024271 -0.261740
v -0.303735 -0.024271 -0.279795
v 0.313387 -0.024271 -0.279795
vn -0.0000 1.0000 -0.0000
vn -0.0000 -0.5359 -0.8443
vn -0.8755 0.4831 -0.0000
vn -0.8966 0.3244 -0.3014
vn 0.8755 0.4831 -0.0000
vn 0.8966 0.3244 -0.3014
vn -0.0000 0.2119 0.9773
vt 0.000000 0.000000
vt 0.000000 0.000000
vt 2.118477 14.297470
vt 14.810660 14.297470
vt 2.689625 12.598420
vt 14.239510 12.598420
vt 0.000000 0.000000
vt 0.000000 0.000000
s 0
usemtl metal
f 135/250/90 136/251/90 134/249/90
f 134/249/90 133/248/90 135/250/90
f 131/246/91 137/252/91 138/253/91 132/247/91
f 136/251/90 135/250/90 138/253/90 137/252/90
f 137/252/92 131/246/92 136/251/92
f 136/251/93 131/246/93 134/249/93
f 138/253/94 135/250/94 132/247/94
f 135/250/95 133/248/95 132/247/95
f 133/248/96 134/249/96 131/246/96 132/247/96
o sink.011
v 0.457097 -0.284703 -0.114489
v 0.343904 -0.024271 -0.170958
v 0.343904 0.464586 -0.170958
v 0.457097 0.661910 -0.114489
v 0.457097 0.661910 -0.051381
v 0.457097 -0.221595 -0.051381
v 0.343904 -0.024271 -0.051381
v 0.343904 0.464586 -0.051381
vn 1.0000 -0.0000 -0.0000
vn -0.0000 -0.0000 1.0000
vn -1.0000 -0.0000 -0.0000
vn -0.8938 -0.4239 0.1465
vn -0.8674 0.4976 -0.0000
vn 0.4464 -0.0000 -0.8948
vt -17.716539 15.354330
vt 12.842360 14.297470
vt 3.693070 14.297470
vt 0.000000 0.000000
vt 0.000000 0.000000
vt 0.000000 16.535431
vt -16.535431 16.535431
vt 2.118477 12.842360
vt 12.842360 16.535431
vt 3.693070 16.535431
vt 2.118477 3.693070
s 0
usemtl metal
f 139/254/97 142/257/97 144/260/97
f 143/258/97 144/259/97 142/257/97
f 144/259/98 146/264/98 145/261/98
f 146/264/98 144/259/98 143/258/98
f 146/263/99 141/256/99 140/255/99
f 140/255/99 145/262/99 146/263/99
f 144/260/100 145/262/100 140/255/100 139/254/100
f 143/258/101 142/257/101 141/256/101 146/264/101
f 142/257/102 139/254/102 140/255/102 141/256/102
o sink.012
v 0.343904 0.464585 -0.170958
v -0.334252 0.464585 -0.170958
v 0.457097 0.661910 -0.114489
v -0.447444 0.661910 -0.114489
v -0.447444 0.661910 -0.051381
v 0.457097 0.661910 -0.051381
v 0.343904 0.464585 -0.051381
v -0.334252 0.464585 -0.051381
vn -0.0000 1.0000 -0.0000
vn -0.0000 -1.0000 -0.0000
vn -0.0000 -0.0000 1.0000
vn 0.8674 -0.4976 -0.0000
vn -0.8674 -0.4976 -0.0000
vn -0.0000 0.2751 -0.9614
vt -2.118477 14.297470
vt -14.810660 14.297470
vt 0.000000 15.354330
vt 16.929131 15.354330
vt 16.929131 16.535431
vt 16.929131 0.000000
vt 0.000000 16.535431
vt 0.000000 0.000000
vt -2.118477 16.535431
vt 2.118477 3.693070
vt -14.810660 16.535431
vt 14.810660 3.693070
s 0
usemtl metal
f 149/267/103 150/268/103 151/269/103
f 151/269/103 152/271/103 149/267/103
f 148/266/104 147/265/104 153/273/104
f 153/273/104 154/275/104 148/266/104
f 152/272/105 151/270/105 153/274/105
f 151/270/105 154/276/105 153/274/105
f 152/272/106 153/274/106 147/265/106 149/267/106
f 151/270/107 150/268/107 148/266/107 154/276/107
f 150/268/108 149/267/108 147/265/108 148/266/108
o sink.013
v -0.447444 -0.284703 -0.114489
v -0.334252 -0.024271 -0.170958
v -0.334252 0.464585 -0.170958
v -0.447444 0.661910 -0.114489
v -0.447444 0.661910 -0.051381
v -0.447444 -0.221595 -0.051381
v -0.334252 -0.024271 -0.051381
v -0.334252 0.464585 -0.051381
vn -1.0000 -0.0000 -0.0000
vn -0.0000 -0.0000 1.0000
vn 1.0000 -0.0000 -0.0000
vn 0.8938 -0.4239 0.1465
vn 0.8674 0.4976 -0.0000
vn -0.4464 -0.0000 -0.8948
vt 17.716539 15.354330
vt -12.842360 14.297470
vt -3.693070 14.297470
vt 16.929131 15.354330
vt 16.929131 0.000000
vt 16.929131 16.535431
vt 14.810660 12.842360
vt -12.842360 16.535431
vt -3.693070 16.535431
vt 14.810660 3.693070
s 0
usemtl metal
f 158/280/109 155/277/109 160/282/109
f 159/281/109 158/280/109 160/282/109
f 161/283/110 159/281/110 160/282/110
f 159/281/110 161/283/110 162/286/110
f 157/279/111 162/285/111 161/284/111
f 161/284/111 156/278/111 157/279/111
f 161/284/112 160/282/112 155/277/112 156/278/112
f 159/281/113 162/286/113 157/279/113 158/280/113
f 158/280/114 157/279/114 156/278/114 155/277/114
