# Blender 3.4.1
# www.blender.org
mtllib MixedGreen.mtl
o leek.002
v -0.016605 0.004487 0.001926
v 0.016605 0.004487 0.001926
v -0.005535 -0.033829 0.001698
v 0.005535 -0.033829 0.001698
v -0.003997 0.038564 0.002463
v 0.003997 0.038564 0.002463
v -0.016605 0.004744 -0.002247
v 0.016605 0.004744 -0.002247
v -0.005535 -0.033572 -0.002477
v -0.003997 0.038821 -0.001711
v 0.003997 0.038821 -0.001711
v 0.005535 -0.033572 -0.002477
v -0.018265 -0.018850 0.002152
v -0.018265 -0.018594 -0.002022
v -0.004908 0.017603 -0.001979
v 0.018265 -0.018850 0.002152
v 0.004908 0.017603 -0.001979
v 0.018265 -0.018594 -0.002022
v -0.004908 0.017346 0.002195
v 0.004908 0.017346 0.002195
vn -0.0000 -0.0209 0.9998
vn -0.0000 -0.0126 0.9999
vn -0.0000 -0.9981 -0.0614
vn -0.9975 0.0710 0.0044
vn -0.9991 0.0429 0.0026
vn -0.7620 -0.6464 -0.0397
vn -0.7395 0.6718 0.0414
vn 0.7395 0.6718 0.0414
vn -0.0000 0.0209 -0.9998
vn -0.0000 0.0126 -0.9999
vn 0.9991 0.0429 0.0026
vn 0.9975 0.0710 0.0044
vn 0.7620 -0.6464 -0.0397
vn -0.0000 -0.0097 -1.0000
vn -0.0000 0.0303 -0.9995
vn -0.0000 -0.0303 0.9995
vn -0.0000 0.0097 1.0000
vn -0.0000 0.9981 0.0615
vt 1.307480 25.145929
vt 1.307480 17.693460
vt -1.307480 17.693460
vt -1.307480 25.145929
vt 0.435827 20.418680
vt -0.435827 20.418680
vt 0.871654 21.804171
vt 0.871654 23.447029
vt -0.871654 23.447029
vt -0.871654 21.804171
vt 1.307480 17.693460
vt 1.307480 25.145929
vt -1.307480 25.145929
vt -1.307480 17.693460
vt 0.435827 20.418680
vt 0.871654 23.447029
vt 0.871654 21.804171
vt -0.871654 23.447029
vt -0.871654 21.804171
vt -0.435827 20.418680
vt 0.871653 19.056070
vt 0.871653 19.056070
vt 1.089567 23.475050
vt -0.871653 19.056070
vt -1.089567 23.475050
vt -0.871653 19.056070
vt 1.089567 23.475050
vt -1.089567 23.475050
s 0
usemtl green.001
f 19/27/1 1/1/1 2/4/1 20/28/1
f 5/8/2 19/27/2 20/28/2 6/9/2
f 4/6/3 3/5/3 9/15/3 12/20/3
f 13/21/4 1/2/4 7/11/4 14/22/4
f 19/27/5 5/7/5 10/17/5 15/23/5
f 3/5/6 13/21/6 14/22/6 9/15/6
f 1/1/7 19/27/7 15/23/7 7/12/7
f 20/28/8 2/4/8 8/13/8 17/25/8
f 15/23/9 17/25/9 8/13/9 7/12/9
f 10/16/10 11/18/10 17/25/10 15/23/10
f 6/10/11 20/28/11 17/25/11 11/19/11
f 2/3/12 16/24/12 18/26/12 8/14/12
f 16/24/13 4/6/13 12/20/13 18/26/13
f 14/22/14 7/12/14 8/14/14 18/26/14
f 9/15/15 14/22/15 18/26/15 12/20/15
f 3/5/16 4/6/16 16/24/16 13/21/16
f 16/24/17 2/4/17 1/2/17 13/21/17
f 11/19/18 10/17/18 5/8/18 6/10/18
