# Blender 3.4.1
# www.blender.org
mtllib MixedGreenCollider.mtl
o leek.002
v -0.016605 0.004487 0.001926
v 0.016605 0.004487 0.001926
v -0.005535 -0.033829 0.001698
v 0.005535 -0.033829 0.001698
v -0.016605 0.004744 -0.002247
v 0.016605 0.004744 -0.002247
v -0.005535 -0.033572 -0.002477
v 0.005535 -0.033572 -0.002477
v -0.018265 -0.018850 0.002152
v -0.018265 -0.018594 -0.002022
v -0.004908 0.017603 -0.001979
v 0.018265 -0.018850 0.002152
v 0.004908 0.017603 -0.001979
v 0.018265 -0.018594 -0.002022
v -0.004908 0.017346 0.002195
v 0.004908 0.017346 0.002195
vn -0.0000 -0.0209 0.9998
vn -0.0000 -0.9981 -0.0614
vn -0.9975 0.0710 0.0044
vn -0.7620 -0.6464 -0.0397
vn -0.7395 0.6718 0.0414
vn 0.7395 0.6718 0.0414
vn -0.0000 0.0209 -0.9998
vn 0.9975 0.0710 0.0044
vn 0.7620 -0.6464 -0.0397
vn -0.0000 -0.0097 -1.0000
vn -0.0000 0.0303 -0.9995
vn -0.0000 -0.0303 0.9995
vn -0.0000 0.0097 1.0000
vn -0.0000 0.9981 0.0615
vt 1.307480 25.145929
vt 1.307480 17.693460
vt -1.307480 17.693460
vt -1.307480 25.145929
vt 0.435827 20.418680
vt -0.435827 20.418680
vt 1.307480 17.693460
vt 1.307480 25.145929
vt -1.307480 25.145929
vt -1.307480 17.693460
vt 0.435827 20.418680
vt -0.435827 20.418680
vt 0.871653 19.056070
vt 0.871653 19.056070
vt 1.089567 23.475050
vt -0.871653 19.056070
vt -1.089567 23.475050
vt -0.871653 19.056070
vt 1.089567 23.475050
vt -1.089567 23.475050
s 0
usemtl green.001
f 15/19/1 1/1/1 2/4/1 16/20/1
f 4/6/2 3/5/2 7/11/2 8/12/2
f 9/13/3 1/2/3 5/7/3 10/14/3
f 3/5/4 9/13/4 10/14/4 7/11/4
f 1/1/5 15/19/5 11/15/5 5/8/5
f 16/20/6 2/4/6 6/9/6 13/17/6
f 11/15/7 13/17/7 6/9/7 5/8/7
f 2/3/8 12/16/8 14/18/8 6/10/8
f 12/16/9 4/6/9 8/12/9 14/18/9
f 10/14/10 5/8/10 6/10/10 14/18/10
f 7/11/11 10/14/11 14/18/11 8/12/11
f 3/5/12 4/6/12 12/16/12 9/13/12
f 12/16/13 2/4/13 1/2/13 9/13/13
f 16/20/14 13/17/14 11/15/14 15/19/14
o leek.001
v -0.003997 0.038564 0.002463
v 0.003997 0.038564 0.002463
v -0.003997 0.038821 -0.001711
v 0.003997 0.038821 -0.001711
v -0.004908 0.017603 -0.001979
v 0.004908 0.017603 -0.001979
v -0.004908 0.017346 0.002195
v 0.004908 0.017346 0.002195
vn -0.0000 -0.0126 0.9999
vn -0.9991 0.0429 0.0026
vn -0.0000 0.0126 -0.9999
vn 0.9991 0.0429 0.0026
vn -0.0000 0.9981 0.0615
vn -0.0000 -0.9981 -0.0615
vt 0.871654 21.804171
vt 0.871654 23.447029
vt -0.871654 23.447029
vt -0.871654 21.804171
vt 0.871654 23.447029
vt 0.871654 21.804171
vt -0.871654 23.447029
vt -0.871654 21.804171
vt 1.089567 23.475050
vt -1.089567 23.475050
vt 1.089567 23.475050
vt -1.089567 23.475050
s 0
usemtl green.001
f 17/22/15 23/31/15 24/32/15 18/23/15
f 23/31/16 17/21/16 19/26/16 21/29/16
f 19/25/17 20/27/17 22/30/17 21/29/17
f 18/24/18 24/32/18 22/30/18 20/28/18
f 20/28/19 19/26/19 17/22/19 18/24/19
f 24/32/20 23/31/20 21/29/20 22/30/20
