# Blender 3.4.1
# www.blender.org
mtllib cornLeaf.mtl
o corn
v -0.096331 0.212708 0.144710
v -0.086930 0.193080 0.084148
v -0.077157 0.212708 0.155780
v -0.029409 0.193080 0.117358
v -0.043301 0.033099 0.025000
v -0.000000 0.033099 0.050000
v -0.073822 0.147624 0.043584
v -0.000834 0.147624 0.085724
v 0.043301 0.033099 -0.025000
v -0.000000 0.033099 -0.050000
v 0.071356 0.119326 -0.039313
v -0.001632 0.119326 -0.081453
v 0.024997 0.152973 -0.109716
v 0.082519 0.152973 -0.076507
v -0.082518 0.237331 -0.120786
v -0.063344 0.237331 -0.131856
v -0.080841 0.213106 -0.073601
v -0.023320 0.213106 -0.106811
v -0.071233 0.127026 0.042140
v -0.071233 0.127026 -0.042140
v -0.043301 0.033099 -0.025000
v 0.000495 0.161030 -0.083423
v -0.072494 0.161030 -0.041283
v -0.110465 0.163851 0.033210
v -0.110465 0.163851 -0.033210
v 0.118120 0.185413 0.033210
v 0.118120 0.185413 -0.033210
v 0.178127 0.203570 0.011070
v 0.178127 0.203570 -0.011070
v 0.074783 0.142366 0.042140
v 0.043301 0.033099 0.025000
v 0.074783 0.142366 -0.042140
v -0.165092 0.179143 0.011070
v -0.165092 0.179143 -0.011070
v 0.070611 0.166727 -0.144441
v 0.089784 0.166727 -0.133371
v -0.000495 0.161030 0.083423
v 0.072494 0.161030 0.041283
v 0.023320 0.213106 0.106811
v 0.080841 0.213106 0.073601
v 0.063344 0.237331 0.131856
v 0.082518 0.237331 0.120786
v -0.096331 0.206976 0.144710
v -0.086930 0.187349 0.084148
v -0.077157 0.206976 0.155780
v -0.029409 0.187349 0.117358
v -0.043301 0.027367 0.025000
v -0.000000 0.027367 0.050000
v -0.073822 0.141892 0.043584
v -0.000834 0.141892 0.085724
v 0.043301 0.027367 -0.025000
v -0.000000 0.027367 -0.050000
v 0.071356 0.113594 -0.039313
v -0.001632 0.113594 -0.081453
v 0.024997 0.147241 -0.109716
v 0.082519 0.147241 -0.076507
v -0.082518 0.231599 -0.120786
v -0.063344 0.231599 -0.131856
v -0.080841 0.207374 -0.073601
v -0.023320 0.207374 -0.106811
v -0.071233 0.121294 0.042140
v -0.071233 0.121294 -0.042140
v -0.043301 0.027367 -0.025000
v 0.000495 0.155298 -0.083423
v -0.072494 0.155298 -0.041283
v -0.110465 0.158119 0.033210
v -0.110465 0.158119 -0.033210
v 0.118120 0.179681 -0.033210
v 0.178127 0.197838 0.011070
v 0.178127 0.197838 -0.011070
v 0.043301 0.027367 0.025000
v 0.074783 0.136634 -0.042140
v -0.030861 -0.005732 0.017818
v -0.165092 0.173411 0.011070
v -0.165092 0.173411 -0.011070
v 0.030861 -0.005732 0.017818
v 0.000000 -0.005732 0.035636
v 0.070611 0.160996 -0.144441
v 0.089784 0.160996 -0.133371
v -0.000495 0.155298 0.083423
v 0.072494 0.155298 0.041283
v 0.023320 0.207374 0.106811
v 0.080841 0.207374 0.073601
v 0.063344 0.231599 0.131856
v 0.082518 0.231599 0.120786
v -0.030861 -0.005732 -0.017818
v 0.000000 -0.005732 -0.035636
v 0.030861 -0.005732 -0.017818
v 0.118120 0.179681 0.033210
v 0.074783 0.136634 0.042140
vn 0.1624 0.9458 -0.2813
vn 0.4823 0.2641 -0.8353
vn 0.3685 0.6759 -0.6383
vn -0.5000 -0.0000 0.8660
vn -1.0000 -0.0000 -0.0000
vn -0.4781 0.2930 0.8280
vn -0.5000 -0.0000 -0.8660
vn -0.3325 0.7469 0.5759
vn 0.2512 0.8647 0.4350
vn -0.5304 -0.0000 0.8477
vn -0.9999 -0.0000 -0.0148
vn 0.9585 0.2850 -0.0000
vn -0.3756 -0.0000 -0.9268
vn 0.9999 -0.0000 0.0148
vn 0.4879 0.2189 0.8450
vn 0.4544 -0.0000 0.8908
vn 0.9919 -0.0000 0.1267
vn 0.4254 0.5255 0.7368
vn 0.5230 -0.0000 -0.8523
vn -0.7007 -0.0000 0.7135
vn 0.6844 0.7291 -0.0000
vn -0.9682 -0.0000 0.2501
vn -0.2219 -0.0000 0.9751
vn -0.2896 0.9571 -0.0000
vn 0.7421 -0.0000 0.6703
vn 0.5304 -0.0000 -0.8477
vn -0.9609 0.2769 -0.0000
vn -0.4871 -0.0000 0.8733
vn -0.5201 -0.0000 -0.8541
vn -0.7047 0.7095 -0.0000
vn -0.4782 -0.0000 -0.8783
vn -0.7278 -0.0000 -0.6858
vn 0.2696 0.9630 -0.0000
vn 0.5000 -0.0000 -0.8660
vn -0.3756 -0.0000 0.9268
vn 0.9578 -0.0000 0.2874
vn -0.9987 -0.0000 0.0518
vn -0.1259 0.9678 0.2180
vn -0.6057 -0.0000 -0.7957
vn 0.7007 -0.0000 -0.7135
vn -0.4254 0.5255 -0.7368
vn 0.6269 -0.0000 0.7791
vn 0.4254 -0.5255 0.7368
vn -0.2512 0.8647 -0.4350
vn -0.4782 -0.0000 0.8783
vn -0.2219 -0.0000 -0.9751
vn 0.5230 -0.0000 0.8523
vn 0.9997 -0.0000 0.0233
vn -0.9882 -0.0000 -0.1534
vn 0.2018 -0.0000 0.9794
vn 0.9994 -0.0000 -0.0355
vn -0.4879 0.2189 -0.8450
vn 0.4871 -0.0000 -0.8733
vn 1.0000 -0.0000 -0.0000
vn -0.9994 -0.0000 0.0355
vn 0.3461 -0.0000 0.9382
vn 0.5000 -0.0000 0.8660
vn -0.9516 -0.0000 -0.3075
vn 0.3461 -0.0000 -0.9382
vn 0.2018 -0.0000 -0.9794
vn -0.1624 -0.9458 0.2813
vn -0.4823 -0.2641 0.8353
vn -0.3685 -0.6759 0.6383
vn 0.4781 -0.2930 -0.8280
vn 0.3325 -0.7469 -0.5759
vn -0.2512 -0.8647 -0.4350
vn -0.9585 -0.2850 -0.0000
vn -0.4879 -0.2189 -0.8450
vn -0.4254 -0.5255 -0.7368
vn -0.6844 -0.7291 -0.0000
vn 0.2896 -0.9571 -0.0000
vn 0.9609 -0.2769 -0.0000
vn 0.7047 -0.7095 -0.0000
vn -0.2696 -0.9630 -0.0000
vn 0.4680 -0.3518 0.8107
vn 0.1259 -0.9678 -0.2180
vn 0.2512 -0.8647 0.4350
vn -0.9361 -0.3518 -0.0000
vn 0.4680 -0.3518 -0.8107
vn 0.9361 -0.3518 -0.0000
vn 0.4879 -0.2189 0.8450
vn -0.0000 -1.0000 -0.0000
vn -0.4680 -0.3518 -0.8107
vn -0.4680 -0.3518 0.8107
vt 0.435827 9.180054
vt 1.307480 6.801096
vt 1.307480 8.698238
vt -0.435827 9.180054
vt -1.307480 8.698238
vt -1.307480 6.801096
vt 0.984252 1.707026
vt -0.984252 1.734990
vt -0.984252 1.707026
vt 0.984252 1.644657
vt 1.659055 6.381812
vt 1.659055 6.270095
vt -1.659055 6.270095
vt -1.659055 6.381812
vt 0.984252 1.745403
vt -0.984252 1.724158
vt 0.984252 1.644657
vt -0.984252 1.745403
vt 1.659055 5.295979
vt 1.659055 5.174112
vt -1.659055 5.174112
vt -1.659055 5.295979
vt -1.307480 7.166225
vt -1.307480 5.612692
vt 1.307480 7.166225
vt 1.307480 5.612692
vt -0.435827 9.659012
vt 0.435827 9.659012
vt -1.307480 9.293175
vt -1.307480 7.760303
vt 1.307480 7.760303
vt 1.307480 9.293175
vt -1.659055 5.467425
vt -1.659055 5.592933
vt 1.659055 5.592933
vt 1.659055 5.467425
vt 0.984252 1.734990
vt -0.984252 1.644657
vt 1.659055 6.806468
vt 1.659055 6.883439
vt -1.659055 6.883439
vt -1.659055 6.806468
vt -1.307480 7.585832
vt -1.307480 5.926965
vt 1.307480 5.926965
vt 1.307480 7.585832
vt 1.307480 8.443686
vt 1.307480 6.565138
vt -1.307480 6.565138
vt -1.307480 8.443686
vt 0.435827 9.033432
vt -0.435827 9.033432
vt 1.659055 6.200982
vt 1.659055 6.038850
vt 0.984252 1.724158
vt -0.984252 1.644657
vt -1.659055 6.200982
vt -1.659055 6.038850
vt -0.435827 8.160290
vt 0.435827 8.160290
vt -0.435827 7.763815
vt 0.435827 7.763815
vt 1.659055 6.883439
vt 1.659055 6.806468
vt -1.659055 6.806468
vt -1.659055 6.883439
vt 1.307480 9.293175
vt 1.307480 7.760303
vt -1.307480 7.760303
vt -1.307480 9.293175
vt 0.435827 9.659012
vt -0.435827 9.659012
vt 0.435827 9.180054
vt 1.307480 6.801096
vt 1.307480 8.698238
vt -0.435827 9.180054
vt -1.307480 6.801096
vt -1.307480 8.698238
vt 0.984252 1.707026
vt -0.984252 1.734990
vt 0.984252 1.819567
vt -0.984252 1.819567
vt -0.984252 1.707026
vt -0.984252 1.819567
vt 0.984252 1.644657
vt 0.984252 1.819567
vt 1.659055 6.381812
vt 1.659055 6.270095
vt -1.659055 6.381812
vt -1.659055 6.270095
vt 0.984252 1.745403
vt -0.984252 1.724158
vt -0.984252 1.819567
vt 0.984252 1.819567
vt -0.984252 1.745403
vt 0.984252 1.644657
vt 0.984252 1.819567
vt -0.984252 1.819567
vt 1.659055 5.295979
vt 1.659055 5.174112
vt -1.659055 5.295979
vt -1.659055 5.174112
vt -1.307480 7.166225
vt -1.307480 5.612692
vt 1.307480 7.166225
vt 1.307480 5.612692
vt -0.435827 9.659012
vt 0.435827 9.659012
vt -1.307480 7.760303
vt -1.307480 9.293175
vt 1.307480 7.760303
vt 1.307480 9.293175
vt -1.659055 5.592933
vt -1.659055 5.467425
vt 1.659055 5.592933
vt 1.659055 5.467425
vt 0.984252 1.734990
vt -0.984252 1.644657
vt -0.984252 1.819567
vt 0.984252 1.819567
vt 1.659055 6.806468
vt 1.659055 6.883439
vt -1.659055 6.806468
vt -1.659055 6.883439
vt -1.307480 7.585832
vt -1.307480 5.926965
vt 1.307480 7.585832
vt 1.307480 5.926965
vt -1.307480 6.565138
vt -1.307480 8.443686
vt 0.435827 9.033432
vt -0.435827 9.033432
vt 0.984252 1.724158
vt 0.984252 1.819567
vt -0.984252 1.819567
vt -0.984252 1.644657
vt -1.659055 6.200982
vt -1.659055 6.038850
vt 0.701488 0.427456
vt 1.215013 -0.701488
vt -0.701488 0.427456
vt -0.435827 8.160290
vt 0.435827 8.160290
vt 0.701488 0.427456
vt -0.701488 0.427456
vt -1.215013 -0.701488
vt -0.701488 0.427456
vt 0.000000 -1.402976
vt 0.701488 0.427456
vt -0.435827 7.763815
vt 0.435827 7.763815
vt 1.659055 6.883439
vt 1.659055 6.806468
vt -1.659055 6.883439
vt -1.659055 6.806468
vt 1.307480 9.293175
vt 1.307480 7.760303
vt -1.307480 9.293175
vt -1.307480 7.760303
vt 0.435827 9.659012
vt -0.435827 9.659012
vt -0.701488 0.427456
vt 1.215013 0.701488
vt 0.701488 0.427456
vt 0.701488 0.427456
vt 0.000000 1.402976
vt -0.701488 0.427456
vt -0.701488 0.427456
vt 0.701488 0.427456
vt -1.215013 0.701488
vt 1.307480 6.565138
vt 1.307480 8.443686
vt 1.659055 6.200982
vt 1.659055 6.038850
s 0
usemtl green.005
f 3/4/1 2/2/1 1/1/1
f 2/2/1 3/4/1 4/6/1
f 7/11/2 6/9/2 5/7/2
f 6/9/2 7/11/2 8/14/2
f 4/5/3 7/12/3 2/3/3
f 7/12/3 4/5/3 8/13/3
f 6/9/4 5/7/4 47/80/4 48/83/4
f 5/8/5 21/37/5 63/118/5 47/80/5
f 11/19/6 10/18/6 9/15/6
f 10/18/6 11/19/6 12/22/6
f 63/118/7 21/38/7 10/17/7 52/95/7
f 51/92/4 9/16/4 10/18/4 52/95/4
f 11/20/8 13/23/8 12/21/8
f 13/23/8 11/20/8 14/25/8
f 6/10/7 31/56/7 71/136/7 48/84/7
f 31/55/5 9/16/5 51/92/5 71/133/5
f 17/30/9 16/28/9 15/27/9
f 16/28/9 17/30/9 18/31/9
f 41/71/10 39/68/10 82/157/10 84/160/10
f 37/64/11 6/10/11 48/85/11 80/153/11
f 5/8/12 20/35/12 19/34/12
f 20/35/12 5/8/12 21/37/12
f 34/60/13 25/45/13 67/128/13 75/143/13
f 22/39/14 10/17/14 52/96/14 64/121/14
f 22/39/15 21/38/15 10/17/15
f 21/38/15 22/39/15 23/42/15
f 11/19/16 9/15/16 51/91/16 53/99/16
f 36/62/17 14/26/17 56/106/17 79/151/17
f 18/32/18 23/41/18 22/40/18
f 23/41/18 18/32/18 17/29/18
f 20/35/19 21/37/19 63/117/19 62/115/19
f 39/67/20 37/63/20 80/152/20 82/156/20
f 19/33/21 25/46/21 24/43/21
f 25/46/21 19/33/21 20/36/21
f 23/41/22 17/29/22 59/110/22 65/124/22
f 19/33/23 24/43/23 66/125/23 61/114/23
f 28/51/24 27/49/24 26/48/24
f 27/49/24 28/51/24 29/52/24
f 8/13/25 4/5/25 46/78/25 50/90/25
f 16/28/26 18/31/26 60/111/26 58/108/26
f 32/57/27 31/55/27 30/53/27
f 31/55/27 32/57/27 9/16/27
f 21/38/28 23/42/28 65/123/28 63/118/28
f 7/11/29 5/7/29 47/79/29 49/87/29
f 26/47/30 32/58/30 30/54/30
f 32/58/30 26/47/30 27/50/30
f 9/16/31 32/57/31 72/137/31 51/92/31
f 12/21/32 13/23/32 55/103/32 54/102/32
f 24/44/33 34/60/33 33/59/33
f 34/60/33 24/44/33 25/45/33
f 35/61/34 36/62/34 79/151/34 78/150/34
f 24/44/35 33/59/35 74/142/35 66/126/35
f 14/25/36 11/20/36 53/100/36 56/105/36
f 10/18/37 12/22/37 54/101/37 52/95/37
f 14/26/38 35/61/38 13/24/38
f 35/61/38 14/26/38 36/62/38
f 13/24/39 35/61/39 78/150/39 55/104/39
f 18/32/40 22/40/40 64/122/40 60/112/40
f 39/67/41 38/66/41 37/63/41
f 4/6/42 3/4/42 45/76/42 46/77/42
f 3/4/4 1/1/4 43/73/4 45/76/4
f 40/70/43 39/67/43 38/66/43
f 41/71/44 40/69/44 39/68/44
f 40/69/44 41/71/44 42/72/44
f 30/53/45 31/55/45 71/133/45 90/173/45
f 25/46/46 20/36/46 62/116/46 67/127/46
f 5/8/47 19/34/47 61/113/47 47/80/47
f 6/9/48 8/14/48 50/89/48 48/83/48
f 1/1/49 2/2/49 44/74/49 43/73/49
f 26/47/50 30/54/50 90/174/50 89/172/50
f 40/69/51 42/72/51 85/161/51 83/159/51
f 33/59/5 34/60/5 75/143/5 74/142/5
f 37/64/52 31/56/52 6/10/52
f 31/56/52 37/64/52 38/65/52
f 31/56/53 38/65/53 81/155/53 71/136/53
f 29/52/54 28/51/54 69/131/54 70/132/54
f 17/30/55 15/27/55 57/107/55 59/109/55
f 28/51/56 26/48/56 89/171/56 69/131/56
f 15/27/7 16/28/7 58/108/7 57/107/7
f 40/70/22 38/66/22 81/154/22 83/158/22
f 42/72/57 41/71/57 84/160/57 85/161/57
f 2/3/58 7/12/58 49/88/58 44/75/58
f 27/49/59 29/52/59 70/132/59 68/129/59
f 32/58/60 27/50/60 68/130/60 72/138/60
f 43/73/61 44/74/61 45/76/61
f 46/77/61 45/76/61 44/74/61
f 47/79/62 48/83/62 49/87/62
f 50/89/62 49/87/62 48/83/62
f 44/75/63 49/88/63 46/78/63
f 50/90/63 46/78/63 49/88/63
f 51/91/64 52/95/64 53/99/64
f 54/101/64 53/99/64 52/95/64
f 54/102/65 55/103/65 53/100/65
f 56/105/65 53/100/65 55/103/65
f 57/107/66 58/108/66 59/109/66
f 60/111/66 59/109/66 58/108/66
f 61/113/67 62/115/67 47/80/67
f 63/117/67 47/80/67 62/115/67
f 52/96/68 63/118/68 64/121/68
f 65/123/68 64/121/68 63/118/68
f 64/122/69 65/124/69 60/112/69
f 59/110/69 60/112/69 65/124/69
f 66/125/70 67/127/70 61/114/70
f 62/116/70 61/114/70 67/127/70
f 89/171/71 68/129/71 69/131/71
f 70/132/71 69/131/71 68/129/71
f 90/173/72 71/133/72 72/137/72
f 51/92/72 72/137/72 71/133/72
f 90/174/73 72/138/73 89/172/73
f 68/130/73 89/172/73 72/138/73
f 74/142/74 75/143/74 66/126/74
f 67/128/74 66/126/74 75/143/74
f 71/134/75 77/147/75 76/144/75
f 77/147/75 71/134/75 48/84/75
f 55/104/76 78/150/76 56/106/76
f 79/151/76 56/106/76 78/150/76
f 81/154/41 82/156/41 83/158/41
f 80/152/43 81/154/43 82/156/43
f 82/157/77 83/159/77 84/160/77
f 85/161/77 84/160/77 83/159/77
f 63/119/78 73/139/78 47/81/78
f 73/139/78 63/119/78 86/162/78
f 52/97/79 88/168/79 87/165/79
f 88/168/79 52/97/79 51/93/79
f 76/145/80 51/94/80 71/135/80
f 51/94/80 76/145/80 88/169/80
f 48/85/81 71/136/81 80/153/81
f 81/155/81 80/153/81 71/136/81
f 87/166/82 73/140/82 86/163/82
f 73/140/82 87/166/82 77/148/82
f 77/148/82 87/166/82 88/170/82
f 77/148/82 88/170/82 76/146/82
f 63/120/83 87/167/83 86/164/83
f 87/167/83 63/120/83 52/98/83
f 48/86/84 73/141/84 77/149/84
f 73/141/84 48/86/84 47/82/84
