# Blender 3.4.1
# www.blender.org
mtllib bananaStem.mtl
o stem
v -0.006326 0.018607 -0.019350
v 0.006326 0.018607 -0.019350
v -0.004686 0.000684 0.019350
v 0.004686 0.000684 0.019350
v 0.009372 -0.007525 0.019350
v 0.012652 0.007525 -0.019350
v -0.009372 -0.007525 0.019350
v -0.004686 -0.015734 0.019350
v -0.012652 0.007525 -0.019350
v -0.006326 -0.003557 -0.019350
v 0.006326 -0.003557 -0.019350
v 0.004686 -0.015734 0.019350
vn -0.0000 0.9074 0.4202
vn 0.8392 0.4790 0.2574
vn 0.8392 0.4791 0.2574
vn -0.8624 -0.4923 -0.1183
vn -0.8623 -0.4923 -0.1184
vn -0.0000 -0.0000 -1.0000
vn -0.0000 -0.9539 -0.3001
vn 0.8624 -0.4923 -0.1183
vn 0.8623 -0.4923 -0.1184
vn -0.8392 0.4790 0.2574
vn -0.8392 0.4791 0.2574
vn -0.0000 -0.0000 1.0000
vt -0.498129 14.490560
vt 0.498129 7.708677
vt -11.999920 8.280418
vt 0.498129 14.490560
vt 11.999920 8.280418
vt -0.498129 7.708677
vt -0.368985 11.132380
vt -9.048794 6.672655
vt 0.368985 11.132380
vt 9.048794 6.672655
vt 9.164611 5.904738
vt 9.157008 5.936296
vt 12.146010 7.286334
vt -0.996259 6.836088
vt 12.148440 7.266172
vt -9.157008 5.936296
vt -9.164611 5.904738
vt -9.214781 5.162163
vt 0.368985 10.422740
vt -12.148440 7.266172
vt 0.996259 6.836088
vt -12.146010 7.286334
vt -12.216170 6.263696
vt 0.498129 5.963498
vt 0.498129 13.617270
vt -0.498129 5.963498
vt -0.498129 13.617270
vt 12.216170 6.263696
vt -0.368985 10.422740
vt 9.214781 5.162163
s 0
usemtl brownDark
f 3/7/1 2/4/1 1/1/1
f 2/4/1 3/7/1 4/9/1
f 6/13/2 4/10/2 5/12/2
f 4/10/3 6/13/3 2/5/3
f 9/20/4 8/18/4 7/17/4
f 8/18/5 9/20/5 10/23/5
f 10/24/6 6/14/6 11/26/6
f 6/14/6 10/24/6 9/21/6
f 6/14/6 9/21/6 2/6/6
f 2/6/6 9/21/6 1/2/6
f 11/27/7 8/19/7 10/25/7
f 8/19/7 11/27/7 12/29/7
f 12/30/8 6/15/8 5/11/8
f 6/15/9 12/30/9 11/28/9
f 1/3/10 7/16/10 3/8/10
f 7/16/11 1/3/11 9/22/11
f 4/10/12 3/8/12 7/17/12 8/19/12 12/30/12 5/12/12
