# Blender 3.4.1
# www.blender.org
mtllib bananaSlice.mtl
o banana
v 0.034400 0.029792 0.013624
v 0.017200 0.059583 0.013624
v 0.030272 0.033069 0.000345
v -0.017200 0.059583 0.013624
v -0.034400 0.029792 0.013624
v 0.015136 0.059583 0.000345
v -0.015136 0.059583 0.000345
v -0.030272 0.033069 0.000345
v -0.017200 0.000000 0.013624
v -0.015136 0.006554 0.000345
v 0.017200 0.000000 0.013624
v 0.015136 0.006554 0.000345
vn 0.8587 0.4922 -0.1429
vn 0.8579 0.4935 -0.1432
vn 0.8570 0.4948 -0.1443
vn 0.8596 0.4928 -0.1350
vn 0.8606 0.4913 -0.1338
vn 0.8589 0.4938 -0.1358
vn 0.0012 -0.0014 1.0000
vn -0.0000 -0.0000 1.0000
vn 0.0018 0.0008 1.0000
vn -0.0012 -0.0014 1.0000
vn -0.8596 0.4928 -0.1350
vn -0.8589 0.4938 -0.1358
vn -0.8606 0.4913 -0.1338
vn -0.0000 -0.8967 -0.4426
vn -0.8085 -0.4615 -0.3652
vn -0.8084 -0.4630 -0.3635
vn -0.8084 -0.4639 -0.3624
vn -0.8094 -0.4649 -0.3588
vn -0.8092 -0.4672 -0.3564
vn -0.8092 -0.4660 -0.3578
vn 0.8085 -0.4615 -0.3652
vn 0.8084 -0.4639 -0.3624
vn 0.8084 -0.4630 -0.3635
vn -0.8587 0.4922 -0.1429
vn -0.8570 0.4948 -0.1443
vn -0.8579 0.4935 -0.1432
vn 0.8094 -0.4649 -0.3588
vn 0.8092 -0.4660 -0.3578
vn 0.8092 -0.4672 -0.3564
vn -0.0000 1.0000 -0.0000
vn -0.0000 -0.0000 -1.0000
vn 0.0022 -0.0004 -1.0000
vt -1.195410 0.704669
vt -1.394753 3.301845
vt -1.386971 3.309272
vt -1.133507 3.412623
vt -1.128920 3.427322
vt 1.354331 -1.072725
vt 2.663321 1.002544
vt 2.672115 1.023882
vt 2.464079 3.598422
vt 1.128920 3.427322
vt 1.133507 3.412623
vt -1.354331 -1.072725
vt 1.394753 3.301845
vt 1.386971 3.309272
vt 1.195410 0.704669
vt 2.722408 3.427322
vt 1.191811 2.775172
vt -1.191811 2.775172
vt -2.722408 3.427322
vt -2.672115 1.023882
vt -2.663321 1.002544
vt -2.464079 3.598422
vt 1.354331 -1.063205
vt 1.226048 0.605395
vt -2.609288 1.198846
vt -2.613900 1.200248
vt 1.191811 2.819144
vt -1.354331 -1.063205
vt -1.226048 0.605395
vt -1.191811 2.819144
vt 2.613900 1.200248
vt 2.609288 1.198846
s 0
usemtl yellow.008
f 3/7/1 2/4/2 1/1/3
f 3/8/4 6/16/5 2/5/6
f 1/3/7 2/6/8 4/11/9 5/14/10 9/23/8 11/29/8
f 8/20/11 4/10/12 7/19/13
f 10/27/14 11/28/14 9/23/14
f 11/28/14 10/27/14 12/30/14
f 8/22/15 10/25/16 5/13/17
f 10/26/18 9/24/19 5/14/20
f 3/9/21 1/2/22 12/32/23
f 8/21/24 5/15/25 4/11/26
f 12/31/27 1/3/28 11/29/29
f 2/6/30 7/18/30 4/12/30
f 7/18/30 2/6/30 6/17/30
f 3/9/31 12/32/32 10/27/31 8/22/31 7/19/31 6/17/31
