# Blender 3.4.1
# www.blender.org
mtllib bananaStem.mtl
o stem
v -0.012652 0.037214 -0.038700
v 0.012652 0.037214 -0.038700
v -0.009372 0.001368 0.038700
v 0.009372 0.001368 0.038700
v 0.018744 -0.015050 0.038700
v 0.025305 0.015050 -0.038700
v -0.018744 -0.015050 0.038700
v -0.009372 -0.031468 0.038700
v -0.025305 0.015050 -0.038700
v -0.012652 -0.007114 -0.038700
v 0.012652 -0.007114 -0.038700
v 0.009372 -0.031468 0.038700
vn -0.0000 0.9074 0.4202
vn 0.8392 0.4791 0.2574
vn -0.8624 -0.4923 -0.1183
vn -0.8624 -0.4923 -0.1184
vn -0.0000 -0.0000 -1.0000
vn -0.0000 -0.9539 -0.3001
vn 0.8624 -0.4923 -0.1183
vn 0.8624 -0.4923 -0.1184
vn -0.8392 0.4791 0.2574
vn -0.0000 -0.0000 1.0000
vt -0.498129 14.490560
vt 0.498129 7.708677
vt -11.999920 8.280418
vt 0.498129 14.490560
vt 11.999920 8.280418
vt -0.498129 7.708677
vt -0.368985 11.132380
vt -9.048794 6.672655
vt 0.368985 11.132380
vt 9.048794 6.672655
vt 9.164611 5.904738
vt 9.157008 5.936296
vt 12.146010 7.286334
vt -0.996259 6.836088
vt 12.148440 7.266172
vt -9.157008 5.936296
vt -9.164611 5.904738
vt -9.214781 5.162163
vt 0.368985 10.422740
vt -12.148440 7.266172
vt 0.996259 6.836088
vt -12.146010 7.286334
vt -12.216170 6.263696
vt 0.498129 5.963498
vt 0.498129 13.617270
vt -0.498129 5.963498
vt -0.498129 13.617270
vt 12.216170 6.263696
vt -0.368985 10.422740
vt 9.214781 5.162163
s 0
usemtl brownDark
f 3/7/1 2/4/1 1/1/1
f 2/4/1 3/7/1 4/9/1
f 6/13/2 4/10/2 5/12/2
f 4/10/2 6/13/2 2/5/2
f 9/20/3 8/18/3 7/17/3
f 8/18/4 9/20/4 10/23/4
f 10/24/5 6/14/5 11/26/5
f 6/14/5 10/24/5 9/21/5
f 6/14/5 9/21/5 2/6/5
f 2/6/5 9/21/5 1/2/5
f 11/27/6 8/19/6 10/25/6
f 8/19/6 11/27/6 12/29/6
f 12/30/7 6/15/7 5/11/7
f 6/15/8 12/30/8 11/28/8
f 1/3/9 7/16/9 3/8/9
f 7/16/9 1/3/9 9/22/9
f 4/10/10 3/8/10 7/17/10 8/19/10 12/30/10 5/12/10
