# Blender 3.4.1
# www.blender.org
mtllib bananaPeel.mtl
o banana.002
v -0.032336 0.012175 0.130447
v 0.023282 0.062257 0.234181
v -0.023282 0.062257 0.234181
v 0.032336 0.012175 0.130447
v 0.023282 0.074161 0.234178
v -0.023282 0.074161 0.234178
v -0.032336 0.024079 0.130444
v 0.032336 0.024079 0.130444
v -0.030272 0.013108 -0.070489
v -0.021796 0.066656 -0.179685
v 0.021796 0.066656 -0.179685
v 0.030272 0.013108 -0.070489
v -0.021796 0.078560 -0.179688
v 0.021796 0.078560 -0.179688
v 0.030272 0.025012 -0.070492
v -0.030272 0.025012 -0.070492
v -0.032336 0.012175 0.130447
v -0.034400 0.000000 0.027247
v 0.034400 0.000000 0.027247
v 0.032336 0.012175 0.130447
v 0.034400 0.011904 0.027244
v -0.032336 0.024079 0.130444
v 0.032336 0.024079 0.130444
v -0.034400 0.011904 0.027244
v -0.034400 0.000000 0.027247
v -0.030272 0.013108 -0.070489
v 0.034400 0.000000 0.027247
v 0.030272 0.013108 -0.070489
v 0.034400 0.011904 0.027244
v 0.030272 0.025012 -0.070492
v -0.034400 0.011904 0.027244
v -0.030272 0.025012 -0.070492
vn -0.0000 -0.9005 0.4348
vn -0.0000 0.9005 -0.4348
vn -0.9962 -0.0000 0.0869
vn 0.9962 -0.0000 0.0869
vn -0.0000 0.0003 1.0000
vn -0.0000 -0.8979 -0.4403
vn -0.0000 0.8979 0.4403
vn 0.9970 -0.0000 -0.0774
vn -0.9970 -0.0000 -0.0774
vn -0.0000 -0.0003 -1.0000
vn -0.0000 -0.9931 0.1172
vn -0.0000 0.9931 -0.1172
vn 0.9998 -0.0000 0.0200
vn -0.9998 -0.0000 0.0200
vn -0.0000 -0.9911 -0.1329
vn -0.0000 0.9911 0.1329
vn -0.9991 -0.0000 -0.0422
vn 0.9991 -0.0000 -0.0422
vt -1.273071 4.833312
vt 0.916611 9.368377
vt -0.916611 9.368377
vt 1.273071 4.833312
vt 0.916611 9.368377
vt -0.916611 9.368377
vt -1.273071 4.833312
vt 1.273071 4.833312
vt 1.191811 2.718920
vt 0.858104 7.507041
vt -0.858104 7.507041
vt -1.191811 2.718920
vt 0.858104 7.507041
vt -0.858104 7.507041
vt -1.191811 2.718920
vt 1.191811 2.718920
vt -1.273071 5.156505
vt -1.354331 1.065337
vt 1.354331 1.065337
vt 1.273071 5.156505
vt 1.354331 1.065337
vt -1.273071 5.156505
vt 1.273071 5.156505
vt -1.354331 1.065337
vt 1.354331 -1.063205
vt 1.191811 2.819144
vt -1.354331 -1.063205
vt -1.191811 2.819144
vt -1.354331 -1.063205
vt -1.191811 2.819144
vt 1.354331 -1.063205
vt 1.191811 2.819144
s 0
usemtl yellow.003
f 4/4/1 3/3/1 1/1/1
f 3/3/1 4/4/1 2/2/1
f 8/8/2 7/7/2 6/6/2
f 6/6/2 5/5/2 8/8/2
f 3/3/3 6/6/3 7/7/3 1/1/3
f 4/4/4 8/8/4 5/5/4 2/2/4
f 3/3/5 2/2/5 5/5/5 6/6/5
f 10/10/6 12/12/6 9/9/6
f 12/12/6 10/10/6 11/11/6
f 13/13/7 16/16/7 15/15/7
f 15/15/7 14/14/7 13/13/7
f 11/11/8 14/14/8 15/15/8 12/12/8
f 9/9/9 16/16/9 13/13/9 10/10/9
f 11/11/10 10/10/10 13/13/10 14/14/10
f 19/19/11 17/17/11 18/18/11
f 17/17/11 19/19/11 20/20/11
f 21/21/12 24/24/12 22/22/12
f 22/22/12 23/23/12 21/21/12
f 19/19/13 21/21/13 23/23/13 20/20/13
f 17/17/14 22/22/14 24/24/14 18/18/14
f 26/26/15 27/27/15 25/25/15
f 27/27/15 26/26/15 28/28/15
f 32/32/16 31/31/16 29/29/16
f 29/29/16 30/30/16 32/32/16
f 25/25/17 31/31/17 32/32/17 26/26/17
f 28/28/18 30/30/18 29/29/18 27/27/18
