# Blender 3.4.1
# www.blender.org
mtllib bodyCollider.mtl
o banana
v -0.004686 0.079977 -0.118768
v 0.004686 0.079977 -0.118768
v 0.009372 0.071768 -0.118768
v -0.009372 0.071768 -0.118768
v -0.004686 0.063560 -0.118768
v 0.004686 0.063560 -0.118768
v -0.010898 0.071508 -0.089842
v -0.021796 0.052419 -0.089842
v -0.010898 0.033328 -0.089842
v 0.010898 0.033328 -0.089842
v 0.010898 0.071508 -0.089842
v 0.021796 0.052419 -0.089842
vn -0.0000 -0.0000 -1.0000
vn -0.0000 -0.6913 -0.7225
vn -0.7099 -0.4053 -0.5760
vn -0.7099 -0.4052 -0.5760
vn -0.0000 0.9597 0.2810
vn 0.8677 0.4954 -0.0413
vn -0.0000 -0.0000 1.0000
vn -0.8677 0.4954 -0.0413
vn 0.7099 -0.4053 -0.5760
vn 0.7099 -0.4052 -0.5760
vt -0.368985 10.744480
vt -9.323660 5.067626
vt 0.368985 10.744480
vt 9.323660 5.067626
vt 9.306108 4.323565
vt 6.797028 7.786360
vt -6.797028 7.786360
vt -9.306108 4.323565
vt 0.368985 10.081250
vt -7.029515 7.079336
vt -0.368985 10.081250
vt 7.029515 7.079336
vt -0.858104 8.371283
vt -7.025377 4.300021
vt -4.412032 6.119744
vt -6.984560 2.569647
vt -4.952701 4.475501
vt 0.858104 6.786726
vt -0.858104 6.786726
vt 4.952701 4.475501
vt 7.025377 4.300021
vt 0.858104 8.371283
vt 6.984560 2.569647
vt 4.412032 6.119744
s 0
usemtl yellow
f 2/4/1 3/5/1 6/12/1 5/9/1 4/7/1 1/2/1
f 9/18/2 6/11/2 10/19/2
f 6/11/2 9/18/2 5/9/2
f 4/7/3 9/17/3 8/15/3
f 9/17/4 4/7/4 5/10/4
f 11/22/5 1/1/5 7/13/5
f 1/1/5 11/22/5 2/3/5
f 3/5/6 11/21/6 12/23/6
f 11/21/6 3/5/6 2/4/6
f 7/13/7 8/15/7 9/18/7 10/20/7 12/23/7 11/22/7
f 7/14/8 4/8/8 8/16/8
f 4/8/8 7/14/8 1/2/8
f 10/20/9 3/6/9 12/24/9
f 3/6/10 10/20/10 6/12/10
o banana.001
v 0.006636 0.063449 0.146018
v 0.013271 0.074941 0.146018
v -0.013271 0.074941 0.146018
v -0.006636 0.086434 0.146018
v 0.006636 0.086434 0.146018
v -0.006636 0.063449 0.146018
v 0.011641 0.031128 0.117091
v -0.011641 0.031128 0.117091
v -0.011641 0.071454 0.117091
v 0.011641 0.071454 0.117091
v 0.023282 0.051291 0.117091
v -0.023282 0.051291 0.117091
vn -0.0000 -0.0000 1.0000
vn -0.0000 -0.6669 0.7451
vn -0.0000 0.8880 -0.4598
vn 0.8609 0.4970 -0.1084
vn 0.7067 -0.4080 0.5781
vn 0.7066 -0.4080 0.5781
vn -0.7067 -0.4080 0.5781
vn -0.7066 -0.4080 0.5781
vn -0.8609 0.4970 -0.1084
vn -0.0000 -0.0000 -1.0000
vt 0.522468 11.390490
vt -8.568068 7.696415
vt -11.537920 5.319089
vt -8.237240 8.687599
vt 8.237240 8.687599
vt 11.537920 5.319089
vt 0.522468 13.339370
vt 11.472640 6.361984
vt -0.522468 13.339370
vt -11.472640 6.361984
vt -0.522468 11.390490
vt 8.568068 7.696415
vt -6.555548 4.909004
vt 0.916611 7.975152
vt 6.555548 4.909004
vt -0.916611 7.975152
vt 0.916611 10.774330
vt 9.261993 5.002642
vt -9.261993 5.002642
vt -0.916611 10.774330
vt -5.975149 6.647923
vt -9.376526 3.173001
vt 9.376526 3.173001
vt 5.975149 6.647923
s 0
usemtl yellow
f 14/27/11 17/34/11 16/31/11 15/30/11 18/36/11 13/25/11
f 13/25/12 20/40/12 19/38/12
f 20/40/12 13/25/12 18/35/12
f 16/31/13 22/44/13 21/41/13
f 22/44/13 16/31/13 17/33/13
f 23/46/14 17/34/14 14/27/14
f 17/34/14 23/46/14 22/43/14
f 19/37/15 14/28/15 13/26/15
f 14/28/16 19/37/16 23/45/16
f 15/29/17 20/39/17 18/36/17
f 20/39/18 15/29/18 24/48/18
f 21/42/19 15/30/19 16/32/19
f 15/30/19 21/42/19 24/47/19
f 19/38/20 20/40/20 24/48/20 21/42/20 22/44/20 23/46/20
o banana.002
v -0.016168 0.062095 0.065224
v -0.032336 0.034091 0.065224
v -0.016168 0.006088 0.065224
v 0.016168 0.062095 0.065224
v 0.011641 0.031128 0.117091
v -0.011641 0.031128 0.117091
v 0.016168 0.006088 0.065224
v -0.011641 0.071454 0.117091
v 0.011641 0.071454 0.117091
v 0.023282 0.051291 0.117091
v 0.032336 0.034091 0.065224
v -0.023282 0.051291 0.117091
vn -0.0000 0.9841 -0.1776
vn 0.8255 -0.4766 0.3022
vn 0.8659 0.4999 -0.0146
vn 0.8659 0.5000 -0.0146
vn -0.0000 -0.9005 0.4348
vn -0.8255 -0.4766 0.3022
vn -0.8659 0.4999 -0.0146
vn -0.8659 0.5000 -0.0146
vn -0.0000 -0.0000 1.0000
vn -0.0000 -0.0000 -1.0000
vt 5.156491 3.641474
vt 1.273071 5.922323
vt 3.947637 4.340821
vt 5.177998 1.095423
vt 4.385221 1.832563
vt -1.273071 4.833312
vt -1.273071 5.922323
vt -5.156491 3.641474
vt -8.342912 4.075453
vt 0.916611 9.368377
vt 8.342912 4.075453
vt -0.916611 9.368377
vt -4.385221 1.832563
vt 1.273071 4.833312
vt 0.916611 10.072280
vt 9.233887 4.492370
vt -9.233887 4.492370
vt -0.916611 10.072280
vt -8.027851 5.881399
vt -9.249372 2.659214
vt -5.177998 1.095423
vt -3.947637 4.340821
vt 9.249372 2.659214
vt 8.027851 5.881399
s 0
usemtl yellow
f 32/63/21 28/55/21 25/50/21
f 28/55/21 32/63/21 33/66/21
f 29/57/22 35/70/22 34/67/22
f 35/70/22 29/57/22 31/61/22
f 35/69/23 33/65/23 34/68/23
f 33/65/24 35/69/24 28/56/24
f 31/62/25 30/60/25 27/54/25
f 30/60/25 31/62/25 29/58/25
f 26/51/26 30/59/26 36/72/26
f 30/59/26 26/51/26 27/53/26
f 32/64/27 26/52/27 36/71/27
f 26/52/28 32/64/28 25/49/28
f 29/58/29 34/68/29 33/66/29 32/64/29 36/72/29 30/60/29
f 27/54/30 26/52/30 25/50/30 28/56/30 35/70/30 31/62/30
o banana.003
v 0.034400 0.029792 0.013624
v 0.017200 0.059583 0.013624
v -0.016168 0.062095 0.065224
v -0.032336 0.034091 0.065224
v -0.017200 0.059583 0.013624
v -0.034400 0.029792 0.013624
v -0.016168 0.006088 0.065224
v -0.017200 0.000000 0.013624
v 0.016168 0.062095 0.065224
v 0.017200 0.000000 0.013624
v 0.016168 0.006088 0.065224
v 0.032336 0.034091 0.065224
vn -0.8660 0.5000 -0.0070
vn -0.8635 -0.4985 0.0761
vn -0.0000 0.9988 -0.0486
vn -0.0000 -0.9931 0.1172
vn 0.8635 -0.4985 0.0761
vn 0.8660 0.5000 -0.0070
vn -0.0000 -0.0000 1.0000
vn -0.0000 -0.0000 -1.0000
vt -1.094663 0.681611
vt -0.830839 3.425590
vt -1.083676 3.390250
vt -1.354331 1.299627
vt 5.145875 3.618690
vt 1.273071 5.367433
vt 4.892415 3.816175
vt 5.156203 1.072569
vt 1.354331 1.299627
vt 1.083676 3.390250
vt 1.094663 0.681611
vt 0.830839 3.425590
vt 5.004155 1.272486
vt -1.273071 5.156505
vt 0.949712 0.719538
vt -1.354331 1.065337
vt -1.273071 5.367433
vt -5.145875 3.618690
vt 1.354331 1.065337
vt -0.949712 0.719538
vt -5.004155 1.272486
vt 1.273071 5.156505
vt -5.156203 1.072569
vt -4.892415 3.816175
s 0
usemtl yellow
f 41/82/31 40/80/31 39/77/31
f 40/80/31 41/82/31 42/83/31
f 40/79/32 44/87/32 43/85/32
f 44/87/32 40/79/32 42/84/32
f 39/78/33 38/76/33 41/81/33
f 38/76/33 39/78/33 45/89/33
f 46/91/34 43/86/34 44/88/34
f 43/86/34 46/91/34 47/94/34
f 46/92/35 48/96/35 47/93/35
f 48/96/35 46/92/35 37/74/35
f 48/95/36 38/75/36 45/90/36
f 38/75/36 48/95/36 37/73/36
f 43/86/37 47/94/37 48/96/37 45/90/37 39/78/37 40/80/37
f 37/74/38 46/92/38 44/88/38 42/84/38 41/82/38 38/76/38
o banana.004
v 0.034400 0.029792 0.013624
v 0.017200 0.059583 0.013624
v 0.030272 0.033069 -0.035244
v -0.017200 0.059583 0.013624
v -0.034400 0.029792 0.013624
v 0.015136 0.059583 -0.035244
v -0.015136 0.059583 -0.035244
v -0.030272 0.033069 -0.035244
v -0.017200 0.000000 0.013624
v -0.015136 0.006554 -0.035244
v 0.017200 0.000000 0.013624
v 0.015136 0.006554 -0.035244
vn 0.8669 0.4971 -0.0378
vn 0.8662 0.4982 -0.0386
vn 0.8653 0.4996 -0.0396
vn 0.8669 0.4970 -0.0378
vn 0.8679 0.4954 -0.0367
vn 0.8662 0.4981 -0.0386
vn -0.8669 0.4970 -0.0378
vn -0.8662 0.4981 -0.0386
vn -0.8679 0.4954 -0.0367
vn -0.0000 -0.9911 -0.1329
vn -0.8636 -0.4930 -0.1060
vn -0.8627 -0.4947 -0.1049
vn -0.8622 -0.4958 -0.1041
vn -0.8627 -0.4947 -0.1048
vn -0.8614 -0.4973 -0.1031
vn -0.8621 -0.4959 -0.1040
vn 0.8636 -0.4930 -0.1060
vn 0.8622 -0.4958 -0.1041
vn 0.8627 -0.4947 -0.1049
vn -0.8669 0.4971 -0.0378
vn -0.8653 0.4996 -0.0396
vn -0.8662 0.4982 -0.0386
vn 0.8627 -0.4947 -0.1048
vn 0.8621 -0.4959 -0.1040
vn 0.8614 -0.4973 -0.1031
vn -0.0000 1.0000 -0.0000
vn 0.0012 -0.0013 1.0000
vn -0.0000 -0.0000 1.0000
vn 0.0017 0.0008 1.0000
vn -0.0012 -0.0013 1.0000
vn -0.0000 -0.0000 -1.0000
vn 0.0022 -0.0005 -1.0000
vt -1.195410 0.704669
vt -1.394753 3.301845
vt -1.386971 3.309272
vt -1.133507 3.412623
vt -1.128920 3.427322
vt 1.354331 -1.072725
vt 2.663321 1.002544
vt 2.672115 1.023882
vt 2.464079 3.598422
vt 1.128920 3.427322
vt -1.354331 -1.072725
vt 1.133507 3.412623
vt 1.394753 3.301845
vt 1.195410 0.704669
vt 1.386971 3.309272
vt 2.722408 3.427322
vt 1.191811 2.775172
vt -1.191811 2.775172
vt -2.722408 3.427322
vt -2.672115 1.023882
vt -2.663321 1.002544
vt -2.464079 3.598422
vt 1.226048 0.605395
vt 1.354331 -1.063205
vt -2.609288 1.198846
vt -2.613900 1.200248
vt 1.191811 2.819144
vt -1.354331 -1.063205
vt -1.226048 0.605395
vt -1.191811 2.819144
vt 2.613900 1.200248
vt 2.609288 1.198846
s 0
usemtl yellow
f 51/103/39 50/100/40 49/97/41
f 51/104/42 54/112/43 50/101/44
f 56/116/45 52/106/46 55/115/47
f 58/123/48 59/124/48 57/120/48
f 59/124/48 58/123/48 60/126/48
f 56/118/49 58/121/50 53/109/51
f 58/122/52 57/119/53 53/111/54
f 51/105/55 49/98/56 60/128/57
f 56/117/58 53/110/59 52/108/60
f 60/127/61 49/99/62 59/125/63
f 50/102/64 55/114/64 52/107/64
f 55/114/64 50/102/64 54/113/64
f 49/99/65 50/102/66 52/108/67 53/111/68 57/120/66 59/125/66
f 51/105/69 60/128/70 58/123/69 56/118/69 55/115/69 54/113/69
o banana.005
v 0.030272 0.033069 -0.035244
v 0.015136 0.059583 -0.035244
v -0.015136 0.059583 -0.035244
v -0.030272 0.033069 -0.035244
v -0.010898 0.071508 -0.089842
v -0.021796 0.052419 -0.089842
v -0.015136 0.006554 -0.035244
v -0.010898 0.033328 -0.089842
v 0.010898 0.033328 -0.089842
v 0.015136 0.006554 -0.035244
v 0.010898 0.071508 -0.089842
v 0.021796 0.052419 -0.089842
vn -0.8677 0.4954 0.0408
vn -0.8677 0.4954 0.0409
vn -0.8294 -0.4735 -0.2966
vn -0.0000 0.9770 0.2134
vn -0.0000 -0.8979 -0.4403
vn 0.8677 0.4954 0.0408
vn 0.8677 0.4954 0.0409
vn 0.8294 -0.4735 -0.2966
vn -0.0000 -0.0000 1.0000
vn -0.0000 -0.0000 -1.0000
vt 2.884181 1.147106
vt 1.810600 3.798530
vt 2.828142 3.550418
vt 1.191811 3.712431
vt -1.191811 3.712431
vt -2.828142 3.550418
vt -2.884181 1.147106
vt -1.810600 3.798530
vt -7.106725 4.631420
vt -0.858104 8.112826
vt -7.147073 2.901035
vt -6.083343 5.528323
vt -2.211872 1.428292
vt 1.191811 2.718920
vt -6.372259 3.821751
vt 0.858104 7.507041
vt -0.858104 7.507041
vt 6.372259 3.821751
vt -1.191811 2.718920
vt 2.211872 1.428292
vt 7.106725 4.631420
vt 0.858104 8.112826
vt 6.083343 5.528323
vt 7.147073 2.901035
s 0
usemtl yellow
f 65/137/71 64/135/71 63/134/71
f 64/135/72 65/137/72 66/139/72
f 64/136/73 68/143/73 67/141/73
f 68/143/73 64/136/73 66/140/73
f 62/132/74 65/138/74 63/133/74
f 65/138/74 62/132/74 71/150/74
f 68/144/75 70/147/75 67/142/75
f 70/147/75 68/144/75 69/145/75
f 61/129/76 71/149/76 62/131/76
f 71/149/77 61/129/77 72/152/77
f 69/146/78 61/130/78 70/148/78
f 61/130/78 69/146/78 72/151/78
f 61/130/79 62/132/79 63/134/79 64/136/79 67/142/79 70/148/79
f 65/138/80 71/150/80 72/152/80 69/146/80 68/144/80 66/140/80
