# Blender 3.4.1
# www.blender.org
mtllib bodyCollider.mtl
o banana
v -0.009372 0.159954 -0.237536
v 0.009372 0.159954 -0.237536
v 0.018744 0.143537 -0.237536
v -0.018744 0.143537 -0.237536
v -0.009372 0.127119 -0.237536
v 0.009372 0.127119 -0.237536
v 0.013271 0.126897 0.292036
v 0.026541 0.149882 0.292036
v -0.026541 0.149882 0.292036
v -0.013271 0.172868 0.292036
v 0.013271 0.172868 0.292036
v -0.013271 0.126897 0.292036
v 0.068800 0.059583 0.027247
v 0.034400 0.119165 0.027247
v 0.060544 0.066137 -0.070489
v -0.032336 0.124190 0.130447
v -0.064672 0.068183 0.130447
v -0.034400 0.119165 0.027247
v -0.068800 0.059583 0.027247
v 0.030272 0.119165 -0.070489
v -0.030272 0.119165 -0.070489
v -0.060544 0.066137 -0.070489
v -0.021796 0.143017 -0.179685
v -0.043592 0.104837 -0.179685
v -0.032336 0.012175 0.130447
v -0.034400 0.000000 0.027247
v 0.032336 0.124190 0.130447
v -0.030272 0.013108 -0.070489
v -0.021796 0.066656 -0.179685
v 0.021796 0.066656 -0.179685
v 0.034400 0.000000 0.027247
v 0.030272 0.013108 -0.070489
v 0.021796 0.143017 -0.179685
v 0.043592 0.104837 -0.179685
v 0.023282 0.062257 0.234181
v -0.023282 0.062257 0.234181
v 0.032336 0.012175 0.130447
v -0.032954 0.142908 0.234181
v 0.031113 0.142908 0.234181
v 0.046564 0.102582 0.234181
v 0.064672 0.068183 0.130447
v -0.046564 0.102582 0.234181
v 0.010022 0.162106 -0.149274
v 0.010672 0.164259 -0.061012
v 0.011321 0.166411 0.027250
v 0.011971 0.168563 0.115512
v 0.012621 0.170716 0.203774
v -0.010022 0.162106 -0.149274
v -0.010672 0.164259 -0.061012
v -0.011321 0.166411 0.027250
v -0.011971 0.168563 0.115512
v -0.012621 0.170716 0.203774
vn -0.0000 -0.0000 -1.0000
vn -0.0000 -0.0000 1.0000
vn 0.8669 0.4971 -0.0378
vn 0.8662 0.4982 -0.0386
vn 0.8653 0.4996 -0.0396
vn -0.8660 0.5000 -0.0070
vn 0.8670 0.4969 -0.0377
vn 0.8679 0.4954 -0.0367
vn 0.8662 0.4981 -0.0386
vn -0.8677 0.4954 0.0408
vn -0.8677 0.4954 0.0409
vn -0.8635 -0.4985 0.0761
vn -0.8174 0.5757 -0.0201
vn -0.8844 0.4633 -0.0562
vn -0.8294 -0.4735 -0.2966
vn -0.0000 -0.6913 -0.7225
vn -0.7099 -0.4053 -0.5760
vn -0.7099 -0.4052 -0.5760
vn -0.8669 0.4970 -0.0378
vn -0.8662 0.4981 -0.0386
vn -0.8679 0.4954 -0.0367
vn -0.0000 -0.9911 -0.1329
vn -0.9041 0.4272 -0.0093
vn -0.9052 0.4248 -0.0067
vn -0.9063 0.4218 -0.0282
vn -0.9053 0.4241 -0.0254
vn -0.8636 -0.4930 -0.1060
vn -0.8627 -0.4947 -0.1049
vn -0.8622 -0.4958 -0.1041
vn -0.8627 -0.4947 -0.1048
vn -0.8614 -0.4973 -0.1031
vn -0.8621 -0.4960 -0.1040
vn 0.8636 -0.4930 -0.1060
vn 0.8622 -0.4958 -0.1041
vn 0.8627 -0.4947 -0.1049
vn 0.8677 0.4954 -0.0413
vn -0.8999 0.4360 0.0063
vn -0.8368 0.5472 -0.0195
vn -0.0000 -0.8979 -0.4403
vn -0.8668 0.4972 -0.0379
vn -0.8653 0.4996 -0.0396
vn -0.8662 0.4982 -0.0386
vn 0.8627 -0.4947 -0.1048
vn 0.8621 -0.4960 -0.1039
vn 0.8614 -0.4973 -0.1031
vn 0.8422 0.5389 -0.0193
vn 0.8368 0.5472 -0.0195
vn 0.8677 0.4954 0.0408
vn 0.8677 0.4954 0.0409
vn 0.8294 -0.4735 -0.2966
vn -0.8677 0.4954 -0.0413
vn 0.7099 -0.4053 -0.5760
vn 0.7099 -0.4052 -0.5760
vn -0.0000 -0.6669 0.7451
vn -0.0000 -0.9931 0.1172
vn 0.8999 0.4360 0.0063
vn 0.9063 0.4218 -0.0282
vn 0.8914 0.4508 -0.0463
vn 0.9041 0.4272 -0.0093
vn 0.8255 -0.4766 0.3022
vn 0.8609 0.4970 -0.1084
vn 0.9289 0.3559 0.1022
vn 0.9329 0.3574 0.0443
vn 0.8633 0.4984 -0.0798
vn -0.0000 -0.9005 0.4348
vn 0.8635 -0.4985 0.0761
vn 0.7067 -0.4080 0.5781
vn 0.7066 -0.4080 0.5781
vn -0.8255 -0.4766 0.3022
vn -0.9458 0.3192 0.0593
vn -0.8621 0.4977 -0.0950
vn 0.8660 0.5000 -0.0070
vn -0.7067 -0.4080 0.5781
vn -0.7066 -0.4080 0.5781
vn -0.8655 0.4997 0.0357
vn -0.9454 0.3191 0.0663
vn -0.0000 -0.9997 0.0244
vt -9.323660 5.067626
vt 9.323660 5.067626
vt 9.306108 4.323565
vt 6.797028 7.786360
vt -6.797028 7.786360
vt -9.306108 4.323565
vt 0.368985 10.081250
vt -7.029515 7.079336
vt -0.368985 10.081250
vt 7.029515 7.079336
vt 0.522468 11.390490
vt -8.568068 7.696415
vt -11.537920 5.319089
vt -8.237240 8.687599
vt 8.237240 8.687599
vt 11.537920 5.319089
vt 11.472640 6.361984
vt 0.522468 13.339370
vt -11.472640 6.361984
vt -0.522468 11.390490
vt 8.568068 7.696415
vt -1.195410 0.704669
vt -1.394753 3.301845
vt -1.386971 3.309272
vt -0.830839 3.425590
vt -1.094663 0.681611
vt -1.133507 3.412623
vt -1.128920 3.427322
vt -1.083676 3.390250
vt 2.663321 1.002544
vt 2.672115 1.023882
vt 2.464079 3.598422
vt 2.884181 1.147106
vt 1.810600 3.798530
vt 5.145875 3.618690
vt 5.156491 3.641474
vt 5.156203 1.072569
vt 4.892415 3.816175
vt 3.947637 4.340821
vt 5.177998 1.095423
vt 1.083676 3.390250
vt 1.128920 3.427322
vt 1.133507 3.412623
vt 1.094663 0.681611
vt 0.830839 3.425590
vt 1.394753 3.301845
vt 1.386971 3.309272
vt 1.195410 0.704669
vt 2.828142 3.550418
vt 2.722408 3.427322
vt -2.722408 3.427322
vt -2.828142 3.550418
vt -2.884181 1.147106
vt -1.810600 3.798530
vt -2.672115 1.023882
vt -2.464079 3.598422
vt -2.663321 1.002544
vt -7.106725 4.631420
vt -7.025377 4.300021
vt -7.147073 2.901035
vt -6.083343 5.528323
vt -4.412032 6.119744
vt -6.984560 2.569647
vt 5.004155 1.272486
vt -1.273071 5.156505
vt -1.273071 4.833312
vt 4.385221 1.832563
vt 0.949712 0.719538
vt 1.354331 -1.063205
vt 1.226048 0.605395
vt -1.354331 1.065337
vt -5.156491 3.641474
vt -5.145875 3.618690
vt -2.211872 1.428292
vt 1.191811 2.819144
vt -2.609288 1.198846
vt -2.613900 1.200248
vt 1.191811 2.718920
vt -6.372259 3.821751
vt 0.858104 6.786726
vt -4.952701 4.475501
vt 0.858104 7.507041
vt -0.858104 6.786726
vt -0.858104 7.507041
vt 6.372259 3.821751
vt 4.952701 4.475501
vt -1.354331 -1.063205
vt -1.226048 0.605395
vt 1.354331 1.065337
vt -0.949712 0.719538
vt -1.191811 2.819144
vt 2.609288 1.198846
vt -1.191811 2.718920
vt 2.613900 1.200248
vt 2.211872 1.428292
vt 7.025377 4.300021
vt 7.106725 4.631420
vt 6.984560 2.569647
vt 7.147073 2.901035
vt 6.083343 5.528323
vt 4.412032 6.119744
vt 0.916611 7.975152
vt -8.342912 4.075453
vt 0.916611 9.368377
vt -6.555548 4.909004
vt -0.916611 7.975152
vt -0.916611 9.368377
vt 8.342912 4.075453
vt 6.555548 4.909004
vt 1.273071 5.156505
vt -4.385221 1.832563
vt 1.273071 4.833312
vt -5.004155 1.272486
vt 9.233887 4.492370
vt 9.261993 5.002642
vt -9.261993 5.002642
vt -9.233887 4.492370
vt -8.027851 5.881399
vt -9.376526 3.173001
vt -9.249372 2.659214
vt -5.975149 6.647923
vt -3.947637 4.340821
vt -5.177998 1.095423
vt -4.892415 3.816175
vt -5.156203 1.072569
vt 8.027851 5.881399
vt 9.249372 2.659214
vt 5.975149 6.647923
vt 9.376526 3.173001
vt 5.857610 5.283352
vt 2.391560 5.499079
vt -1.074490 5.714805
vt -4.540540 5.930531
vt -8.006590 6.146257
vt -7.682638 6.446250
vt -6.041617 7.824874
vt -4.400596 9.203498
vt -2.759574 10.582122
vt -1.118553 11.960746
s 0
usemtl yellow.001
f 2/2/1 3/3/1 6/10/1 5/7/1 4/5/1 1/1/1
f 8/13/2 11/19/2 10/18/2 9/16/2 12/21/2 7/11/2
f 15/30/3 14/27/4 13/22/5
f 18/41/6 17/37/6 16/35/6
f 17/37/6 18/41/6 19/44/6
f 15/31/7 20/50/8 14/28/9
f 23/58/10 22/53/10 21/52/10
f 22/53/11 23/58/11 24/60/11
f 17/38/12 26/68/12 25/64/12
f 26/68/12 17/38/12 19/45/12
f 38/115/13 10/17/13 52/139/13
f 52/139/14 51/138/14 16/35/14 38/114/14
f 22/54/15 29/79/15 28/74/15
f 29/79/15 22/54/15 24/61/15
f 29/80/16 6/9/16 30/83/16
f 6/9/16 29/80/16 5/7/16
f 4/5/17 29/81/17 24/62/17
f 29/81/18 4/5/18 5/8/18
f 22/55/19 18/42/20 21/51/21
f 28/75/22 31/87/22 26/69/22
f 31/87/22 28/75/22 32/91/22
f 51/138/23 50/137/23 18/42/24 16/35/23
f 50/137/25 49/136/25 21/52/25 18/42/26
f 22/56/27 28/76/28 19/46/29
f 28/77/30 26/70/31 19/47/32
f 15/32/33 13/23/34 32/92/35
f 3/3/36 33/96/36 34/98/36
f 33/96/36 3/3/36 2/2/36
f 21/52/37 49/136/37 48/135/37 23/59/37
f 23/59/38 48/135/38 1/1/38
f 29/82/39 32/93/39 28/78/39
f 32/93/39 29/82/39 30/84/39
f 22/57/40 19/48/41 18/43/42
f 32/94/43 13/24/44 31/88/45
f 11/19/46 39/117/46 47/134/46
f 33/97/47 2/2/47 43/130/47
f 15/33/48 33/97/48 20/49/48
f 33/97/49 15/33/49 34/99/49
f 30/85/50 15/34/50 32/95/50
f 15/34/50 30/85/50 34/100/50
f 23/59/51 4/6/51 24/63/51
f 4/6/51 23/59/51 1/1/51
f 30/86/52 3/4/52 34/101/52
f 3/4/53 30/86/53 6/10/53
f 7/11/54 36/106/54 35/102/54
f 36/106/54 7/11/54 12/20/54
f 31/89/55 25/65/55 26/71/55
f 25/65/55 31/89/55 37/110/55
f 43/130/56 44/131/56 20/50/56 33/97/56
f 14/29/57 20/50/57 44/131/57 45/132/57
f 39/117/58 27/73/58 46/133/58 47/134/58
f 27/73/59 14/29/59 45/132/59 46/133/59
f 35/103/60 41/122/60 40/118/60
f 41/122/60 35/103/60 37/111/60
f 40/119/61 11/19/61 8/13/61
f 11/19/62 40/119/62 39/116/62
f 41/123/63 39/117/63 40/120/63
f 39/117/64 41/123/64 27/72/64
f 37/112/65 36/107/65 25/66/65
f 36/107/65 37/112/65 35/104/65
f 31/90/66 41/124/66 37/113/66
f 41/124/66 31/90/66 13/25/66
f 35/105/67 8/14/67 7/12/67
f 8/14/68 35/105/68 40/121/68
f 17/39/69 36/108/69 42/126/69
f 36/108/69 17/39/69 25/67/69
f 38/114/70 17/40/70 42/127/70
f 17/40/71 38/114/71 16/36/71
f 41/125/72 14/29/72 27/73/72
f 14/29/72 41/125/72 13/26/72
f 9/15/73 36/109/73 12/21/73
f 36/109/74 9/15/74 42/128/74
f 38/115/75 9/16/75 10/17/75
f 9/16/76 38/115/76 42/129/76
f 11/19/77 10/18/77 52/139/77 51/138/77 50/137/77 49/136/77 48/135/77 1/1/77 2/2/77 43/130/77 44/131/77 45/132/77 46/133/77 47/134/77
