# Blender 3.4.1
# www.blender.org
mtllib peeledBanana.mtl
o banana
v -0.008879 0.151535 -0.225034
v 0.008879 0.151535 -0.225034
v 0.017758 0.135982 -0.225034
v -0.017758 0.135982 -0.225034
v -0.008879 0.120428 -0.225034
v 0.008879 0.120428 -0.225034
v 0.012572 0.120218 0.276665
v 0.025144 0.141994 0.276665
v -0.025144 0.141994 0.276665
v -0.012572 0.163770 0.276665
v 0.012572 0.163770 0.276665
v -0.012572 0.120218 0.276665
v 0.065179 0.056447 0.025813
v 0.032589 0.112893 0.025813
v 0.057357 0.062656 -0.066779
v -0.030634 0.117654 0.123581
v -0.061268 0.064594 0.123581
v -0.032589 0.112893 0.025813
v -0.065179 0.056447 0.025813
v 0.028679 0.112893 -0.066779
v -0.028679 0.112893 -0.066779
v -0.057357 0.062656 -0.066779
v -0.020649 0.135490 -0.170227
v -0.041297 0.099319 -0.170227
v -0.030634 0.011534 0.123581
v -0.032589 0.000000 0.025813
v 0.030634 0.117654 0.123581
v -0.028679 0.012418 -0.066779
v -0.020649 0.063148 -0.170227
v 0.020649 0.063148 -0.170227
v 0.032589 0.000000 0.025813
v 0.028679 0.012418 -0.066779
v 0.020649 0.135490 -0.170227
v 0.041297 0.099319 -0.170227
v 0.022057 0.058980 0.221855
v -0.022057 0.058980 0.221855
v 0.030634 0.011534 0.123581
v -0.022057 0.135386 0.221855
v 0.022057 0.135386 0.221855
v 0.044113 0.097183 0.221855
v 0.061268 0.064594 0.123581
v -0.044113 0.097183 0.221855
vn -0.0000 -0.0000 -1.0000
vn -0.0000 -0.0000 1.0000
vn 0.8669 0.4971 -0.0378
vn 0.8662 0.4982 -0.0386
vn 0.8653 0.4996 -0.0396
vn -0.8660 0.5000 -0.0070
vn 0.8669 0.4970 -0.0378
vn 0.8679 0.4954 -0.0367
vn 0.8662 0.4981 -0.0386
vn -0.8677 0.4954 0.0408
vn -0.8635 -0.4986 0.0761
vn -0.0000 0.9988 -0.0486
vn -0.8294 -0.4735 -0.2966
vn -0.0000 -0.6913 -0.7225
vn -0.7099 -0.4053 -0.5760
vn -0.8669 0.4970 -0.0378
vn -0.8662 0.4981 -0.0386
vn -0.8679 0.4954 -0.0367
vn -0.0000 -0.9911 -0.1329
vn -0.0000 0.9597 0.2810
vn -0.8636 -0.4930 -0.1060
vn -0.8627 -0.4947 -0.1049
vn -0.8622 -0.4958 -0.1041
vn -0.8627 -0.4947 -0.1048
vn -0.8614 -0.4973 -0.1031
vn -0.8621 -0.4959 -0.1040
vn 0.8636 -0.4930 -0.1060
vn 0.8622 -0.4958 -0.1041
vn 0.8627 -0.4947 -0.1049
vn 0.8677 0.4953 -0.0413
vn -0.0000 0.9770 0.2134
vn -0.0000 -0.8979 -0.4403
vn -0.8669 0.4971 -0.0378
vn -0.8653 0.4996 -0.0396
vn -0.8662 0.4982 -0.0386
vn 0.8627 -0.4947 -0.1048
vn 0.8621 -0.4959 -0.1040
vn 0.8614 -0.4973 -0.1031
vn -0.0000 1.0000 -0.0000
vn 0.8677 0.4954 0.0408
vn 0.8294 -0.4735 -0.2966
vn -0.8677 0.4953 -0.0413
vn 0.7099 -0.4053 -0.5760
vn -0.0000 -0.6669 0.7451
vn -0.0000 -0.9931 0.1172
vn -0.0000 0.8880 -0.4598
vn -0.0000 0.9841 -0.1776
vn 0.8255 -0.4766 0.3022
vn 0.8609 0.4971 -0.1084
vn 0.8659 0.4999 -0.0146
vn -0.0000 -0.9005 0.4348
vn 0.8635 -0.4986 0.0761
vn 0.7066 -0.4080 0.5781
vn -0.8255 -0.4766 0.3022
vn -0.8659 0.4999 -0.0146
vn 0.8660 0.5000 -0.0070
vn -0.7066 -0.4080 0.5781
vn -0.8609 0.4971 -0.1084
vt -0.368985 10.744480
vt -9.323660 5.067626
vt 0.368985 10.744480
vt 9.323660 5.067626
vt 9.306108 4.323565
vt 6.797028 7.786360
vt -6.797028 7.786360
vt -9.306108 4.323565
vt 0.368985 10.081250
vt -7.029515 7.079336
vt -0.368985 10.081250
vt 7.029515 7.079336
vt 0.522468 11.390490
vt -8.568068 7.696415
vt -11.537920 5.319089
vt -8.237240 8.687599
vt 8.237240 8.687599
vt 11.537920 5.319089
vt 0.522468 13.339370
vt 11.472640 6.361984
vt -0.522468 13.339370
vt -11.472640 6.361984
vt -0.522468 11.390490
vt 8.568068 7.696415
vt -1.195410 0.704669
vt -1.394753 3.301845
vt -1.386971 3.309272
vt -0.830839 3.425590
vt -1.094663 0.681611
vt -1.133507 3.412623
vt -1.128920 3.427322
vt -1.354331 1.299627
vt 1.354331 -1.072725
vt -1.083676 3.390250
vt 2.663321 1.002544
vt 2.672115 1.023882
vt 2.464079 3.598422
vt 2.884181 1.147106
vt 1.810600 3.798530
vt 5.145875 3.618690
vt 1.273071 5.367433
vt 1.273071 5.922323
vt 5.156491 3.641474
vt 5.156203 1.072569
vt 4.892415 3.816175
vt 3.947637 4.340821
vt 5.177998 1.095423
vt 1.083676 3.390250
vt 1.354331 1.299627
vt 1.128920 3.427322
vt 1.133507 3.412623
vt -1.354331 -1.072725
vt 1.094663 0.681611
vt 0.830839 3.425590
vt 1.394753 3.301845
vt 1.386971 3.309272
vt 1.195410 0.704669
vt 2.722408 3.427322
vt 1.191811 3.712431
vt 1.191811 2.775172
vt 2.828142 3.550418
vt -2.828142 3.550418
vt -2.722408 3.427322
vt -1.191811 3.712431
vt -1.191811 2.775172
vt -2.884181 1.147106
vt -1.810600 3.798530
vt -2.672115 1.023882
vt -2.464079 3.598422
vt -2.663321 1.002544
vt -7.106725 4.631420
vt -0.858104 8.371283
vt -0.858104 8.112826
vt -7.025377 4.300021
vt -7.147073 2.901035
vt -6.083343 5.528323
vt -4.412032 6.119744
vt -6.984560 2.569647
vt 5.004155 1.272486
vt -1.273071 5.156505
vt -1.273071 4.833312
vt 4.385221 1.832563
vt 0.949712 0.719538
vt 1.354331 -1.063205
vt 1.226048 0.605395
vt -1.354331 1.065337
vt -1.273071 5.367433
vt -1.273071 5.922323
vt -5.156491 3.641474
vt -5.145875 3.618690
vt -2.211872 1.428292
vt 1.191811 2.819144
vt -2.609288 1.198846
vt -2.613900 1.200248
vt 1.191811 2.718920
vt -6.372259 3.821751
vt 0.858104 6.786726
vt -4.952701 4.475501
vt 0.858104 7.507041
vt -0.858104 6.786726
vt -0.858104 7.507041
vt 6.372259 3.821751
vt 4.952701 4.475501
vt -1.354331 -1.063205
vt -1.226048 0.605395
vt 1.354331 1.065337
vt -0.949712 0.719538
vt -1.191811 2.819144
vt 2.609288 1.198846
vt -1.191811 2.718920
vt 2.613900 1.200248
vt 2.211872 1.428292
vt 0.858104 8.371283
vt 7.025377 4.300021
vt 0.858104 8.112826
vt 7.106725 4.631420
vt 6.984560 2.569647
vt 7.147073 2.901035
vt 6.083343 5.528323
vt 4.412032 6.119744
vt 0.916611 7.975152
vt -8.342912 4.075453
vt 0.916611 9.368377
vt -6.555548 4.909004
vt -0.916611 7.975152
vt -0.916611 9.368377
vt 8.342912 4.075453
vt 6.555548 4.909004
vt 1.273071 5.156505
vt -4.385221 1.832563
vt 1.273071 4.833312
vt -5.004155 1.272486
vt 0.916611 10.774330
vt 0.916611 10.072280
vt 9.233887 4.492370
vt 9.261993 5.002642
vt -0.916611 10.774330
vt -0.916611 10.072280
vt -9.261993 5.002642
vt -9.233887 4.492370
vt -8.027851 5.881399
vt -9.376526 3.173001
vt -9.249372 2.659214
vt -5.975149 6.647923
vt -3.947637 4.340821
vt -5.177998 1.095423
vt -4.892415 3.816175
vt -5.156203 1.072569
vt 8.027851 5.881399
vt 9.249372 2.659214
vt 5.975149 6.647923
vt 9.376526 3.173001
s 0
usemtl yellow
f 2/4/1 3/5/1 6/12/1 5/9/1 4/7/1 1/2/1
f 8/15/2 11/22/2 10/19/2 9/18/2 12/24/2 7/13/2
f 15/35/3 14/30/4 13/25/5
f 18/48/6 17/44/6 16/40/6
f 17/44/6 18/48/6 19/53/6
f 15/36/7 20/58/8 14/31/9
f 23/71/10 22/66/10 21/62/10
f 22/66/10 23/71/10 24/75/10
f 17/45/11 26/83/11 25/79/11
f 26/83/11 17/45/11 19/54/11
f 16/41/12 14/32/12 18/49/12
f 14/32/12 16/41/12 27/87/12
f 22/67/13 29/96/13 28/91/13
f 29/96/13 22/67/13 24/76/13
f 29/97/14 6/11/14 30/100/14
f 6/11/14 29/97/14 5/9/14
f 4/7/15 29/98/15 24/77/15
f 29/98/15 4/7/15 5/10/15
f 22/68/16 18/50/17 21/63/18
f 28/92/19 31/104/19 26/84/19
f 31/104/19 28/92/19 32/108/19
f 33/113/20 1/1/20 23/72/20
f 1/1/20 33/113/20 2/3/20
f 22/69/21 28/93/22 19/55/23
f 28/94/24 26/85/25 19/56/26
f 15/37/27 13/26/28 32/109/29
f 3/5/30 33/114/30 34/117/30
f 33/114/30 3/5/30 2/4/30
f 20/59/31 23/73/31 21/64/31
f 23/73/31 20/59/31 33/115/31
f 29/99/32 32/110/32 28/95/32
f 32/110/32 29/99/32 30/101/32
f 22/70/33 19/57/34 18/51/35
f 32/111/36 13/27/37 31/105/38
f 14/33/39 21/65/39 18/52/39
f 21/65/39 14/33/39 20/60/39
f 15/38/40 33/116/40 20/61/40
f 33/116/40 15/38/40 34/118/40
f 30/102/41 15/39/41 32/112/41
f 15/39/41 30/102/41 34/119/41
f 23/74/42 4/8/42 24/78/42
f 4/8/42 23/74/42 1/2/42
f 30/103/43 3/6/43 34/120/43
f 3/6/43 30/103/43 6/12/43
f 7/13/44 36/125/44 35/121/44
f 36/125/44 7/13/44 12/23/44
f 31/106/45 25/80/45 26/86/45
f 25/80/45 31/106/45 37/129/45
f 10/19/46 39/137/46 38/133/46
f 39/137/46 10/19/46 11/21/46
f 38/134/47 27/88/47 16/42/47
f 27/88/47 38/134/47 39/138/47
f 35/122/48 41/145/48 40/141/48
f 41/145/48 35/122/48 37/130/48
f 40/142/49 11/22/49 8/15/49
f 11/22/49 40/142/49 39/139/49
f 41/146/50 39/140/50 40/143/50
f 39/140/50 41/146/50 27/89/50
f 37/131/51 36/126/51 25/81/51
f 36/126/51 37/131/51 35/123/51
f 31/107/52 41/147/52 37/132/52
f 41/147/52 31/107/52 13/28/52
f 35/124/53 8/16/53 7/14/53
f 8/16/53 35/124/53 40/144/53
f 17/46/54 36/127/54 42/149/54
f 36/127/54 17/46/54 25/82/54
f 38/135/55 17/47/55 42/150/55
f 17/47/55 38/135/55 16/43/55
f 41/148/56 14/34/56 27/90/56
f 14/34/56 41/148/56 13/29/56
f 9/17/57 36/128/57 12/24/57
f 36/128/57 9/17/57 42/151/57
f 38/136/58 9/18/58 10/20/58
f 9/18/58 38/136/58 42/152/58
