# Blender 3.4.1
# www.blender.org
mtllib peelCollider.mtl
o banana.001
v -0.015136 0.006554 -0.035244
v -0.010898 0.033328 -0.089842
v 0.010898 0.033328 -0.089842
v 0.015136 0.006554 -0.035244
v -0.010898 0.039280 -0.089844
v 0.010898 0.039280 -0.089844
v 0.015136 0.012506 -0.035246
v -0.015136 0.012506 -0.035246
vn -0.0000 -0.8979 -0.4403
vn -0.0000 0.8979 0.4403
vn 0.9970 -0.0000 -0.0774
vn -0.9970 -0.0000 -0.0774
vn -0.0000 0.0003 1.0000
vn -0.0000 -0.0003 -1.0000
vt 1.191811 2.718920
vt 0.858104 7.507041
vt -0.858104 7.507041
vt -1.191811 2.718920
vt 0.858104 7.507041
vt -0.858104 7.507041
vt -1.191811 2.718920
vt 1.191811 2.718920
s 0
usemtl yellow.001
f 2/2/1 4/4/1 1/1/1
f 4/4/1 2/2/1 3/3/1
f 5/5/2 8/8/2 7/7/2
f 7/7/2 6/6/2 5/5/2
f 3/3/3 6/6/3 7/7/3 4/4/3
f 1/1/4 8/8/4 5/5/4 2/2/4
f 4/4/5 7/7/5 8/8/5 1/1/5
f 3/3/6 2/2/6 5/5/6 6/6/6
o banana.002
v -0.016168 0.006088 0.065224
v 0.011641 0.031128 0.117091
v -0.011641 0.031128 0.117091
v 0.016168 0.006088 0.065224
v 0.011641 0.037081 0.117089
v -0.011641 0.037081 0.117089
v -0.016168 0.012040 0.065222
v 0.016168 0.012040 0.065222
vn -0.0000 -0.9005 0.4348
vn -0.0000 0.9005 -0.4348
vn -0.9962 -0.0000 0.0869
vn 0.9962 -0.0000 0.0869
vn -0.0000 0.0003 1.0000
vn -0.0000 -0.0003 -1.0000
vt -1.273071 4.833312
vt 0.916611 9.368377
vt -0.916611 9.368377
vt 1.273071 4.833312
vt 0.916611 9.368377
vt -0.916611 9.368377
vt -1.273071 4.833312
vt 1.273071 4.833312
s 0
usemtl yellow.001
f 12/12/7 11/11/7 9/9/7
f 11/11/7 12/12/7 10/10/7
f 16/16/8 15/15/8 14/14/8
f 14/14/8 13/13/8 16/16/8
f 11/11/9 14/14/9 15/15/9 9/9/9
f 12/12/10 16/16/10 13/13/10 10/10/10
f 11/11/11 10/10/11 13/13/11 14/14/11
f 12/12/12 9/9/12 15/15/12 16/16/12
o banana.003
v -0.016168 0.006088 0.065224
v -0.017200 0.000000 0.013624
v 0.017200 0.000000 0.013624
v 0.016168 0.006088 0.065224
v 0.017200 0.005952 0.013622
v -0.016168 0.012040 0.065222
v 0.016168 0.012040 0.065222
v -0.017200 0.005952 0.013622
vn -0.0000 -0.9931 0.1172
vn -0.0000 0.9931 -0.1172
vn 0.9998 -0.0000 0.0200
vn -0.9998 -0.0000 0.0200
vn -0.0000 -0.0003 -1.0000
vn -0.0000 0.0003 1.0000
vt -1.273071 5.156505
vt -1.354331 1.065337
vt 1.354331 1.065337
vt 1.273071 5.156505
vt 1.354331 1.065337
vt -1.273071 5.156505
vt 1.273071 5.156505
vt -1.354331 1.065337
s 0
usemtl yellow.001
f 19/19/13 17/17/13 18/18/13
f 17/17/13 19/19/13 20/20/13
f 21/21/14 24/24/14 22/22/14
f 22/22/14 23/23/14 21/21/14
f 19/19/15 21/21/15 23/23/15 20/20/15
f 17/17/16 22/22/16 24/24/16 18/18/16
f 19/19/17 18/18/17 24/24/17 21/21/17
f 20/20/18 23/23/18 22/22/18 17/17/18
o banana.004
v -0.017200 0.000000 0.013624
v -0.015136 0.006554 -0.035244
v 0.017200 0.000000 0.013624
v 0.015136 0.006554 -0.035244
v 0.017200 0.005952 0.013622
v 0.015136 0.012506 -0.035246
v -0.017200 0.005952 0.013622
v -0.015136 0.012506 -0.035246
vn -0.0000 -0.9911 -0.1329
vn -0.0000 0.9911 0.1329
vn -0.9991 -0.0000 -0.0422
vn 0.9991 -0.0000 -0.0422
vn -0.0000 0.0003 1.0000
vn -0.0000 -0.0003 -1.0000
vt 1.354331 -1.063205
vt 1.191811 2.819144
vt -1.354331 -1.063205
vt -1.191811 2.819144
vt -1.354331 -1.063205
vt -1.191811 2.819144
vt 1.354331 -1.063205
vt 1.191811 2.819144
s 0
usemtl yellow.001
f 26/26/19 27/27/19 25/25/19
f 27/27/19 26/26/19 28/28/19
f 32/32/20 31/31/20 29/29/20
f 29/29/20 30/30/20 32/32/20
f 25/25/21 31/31/21 32/32/21 26/26/21
f 28/28/22 30/30/22 29/29/22 27/27/22
f 27/27/23 29/29/23 31/31/23 25/25/23
f 28/28/24 26/26/24 32/32/24 30/30/24
