# Blender v2.78 (sub 0) OBJ File: 'tmp_MSPrep.blend'
# www.blender.org
mtllib gas_stove_door_visual.mtl
o door_ID22
v -0.347545 -0.075471 0.133990
v -0.347545 -0.024069 0.133990
v 0.397775 -0.075471 0.133990
v 0.397775 -0.024069 0.133990
v -0.347545 -0.024069 -0.118029
v -0.347545 -0.075471 -0.118029
v 0.397775 -0.024069 -0.118029
v 0.397775 -0.075471 -0.118029
v 0.397775 0.027332 0.172555
v -0.347545 0.027332 0.172555
v 0.397775 0.027332 0.188195
v -0.347545 0.027332 0.188195
v -0.347545 0.001631 0.203835
v -0.347545 -0.024069 0.203835
v 0.397775 0.001631 0.203835
v 0.397775 -0.024069 0.203835
v 0.514307 -0.075471 -0.184146
v -0.452840 -0.075471 -0.184146
v -0.452840 -0.075471 0.250755
v 0.514307 -0.075471 0.250755
v -0.452840 -0.024069 -0.184146
v 0.514307 -0.024069 -0.184146
v 0.514307 -0.024069 0.250755
v 0.397775 -0.024069 0.172555
v -0.452840 -0.024069 0.250755
v -0.347545 -0.024069 0.172555
vt -1.6130 0.3937
vt -1.6130 -0.3937
vt -13.0303 0.3937
vt -13.0303 -0.3937
vt 1.6130 -0.3937
vt 1.6130 0.3937
vt 13.0303 -0.3937
vt 13.0303 0.3937
vt 0.3937 8.0083
vt 0.3937 1.6643
vt -0.3937 8.0083
vt -0.3937 1.6643
vt -0.3937 1.6643
vt -0.3937 8.0083
vt 0.3937 1.6643
vt 0.3937 8.0083
vt 13.0303 8.9791
vt 1.6130 8.9791
vt 13.0303 9.3728
vt 1.6130 9.3728
vt 1.6130 -0.7874
vt 1.6130 -0.3937
vt 13.0303 -0.7874
vt 13.0303 -0.3937
vt -14.8154 0.0000
vt -1.6130 1.6643
vt 0.0000 0.0000
vt 0.0000 10.9476
vt -1.6130 8.0083
vt -13.0303 8.0083
vt -13.0303 1.6643
vt -14.8154 10.9476
vt 0.0000 0.3937
vt 0.0000 -0.3937
vt -14.8154 0.3937
vt -14.8154 -0.3937
vt 0.0000 0.0000
vt 13.0303 1.6643
vt 14.8154 0.0000
vt 14.8154 10.9476
vt 13.0303 8.0083
vt 13.0303 8.9791
vt 1.6130 8.0083
vt 13.0303 9.7665
vt 1.6130 9.7665
vt 1.6130 1.6643
vt 0.0000 10.9476
vt 1.6130 8.9791
vt -1.6130 -0.3937
vt -1.6130 -1.1811
vt -13.0303 -0.3937
vt -13.0303 -1.1811
vt 0.0000 -0.3937
vt 0.0000 0.3937
vt 14.8154 -0.3937
vt 14.8154 0.3937
vt 0.3937 10.9476
vt 0.3937 0.0000
vt -0.3937 10.9476
vt -0.3937 0.0000
vt -1.1811 8.9791
vt -1.1811 9.3728
vt -0.3937 8.9791
vt -0.7874 9.7665
vt -0.3937 9.7665
vt 1.1811 9.3728
vt 1.1811 8.9791
vt 0.7874 9.7665
vt 0.3937 8.9791
vt 0.3937 9.7665
vt 13.0303 5.7924
vt 1.6130 5.7924
vt 13.0303 6.3492
vt 1.6130 6.3492
vt -0.3937 0.0000
vt -0.3937 10.9476
vt 0.3937 0.0000
vt 0.3937 10.9476
vn 0.0000 0.0000 -1.0000
vn 0.0000 0.0000 1.0000
vn -1.0000 0.0000 0.0000
vn 1.0000 0.0000 0.0000
vn 0.0000 1.0000 0.0000
vn 0.0000 -1.0000 -0.0000
vn 0.0000 0.5199 0.8543
usemtl metal.001
s off
f 1/1/1 2/2/1 3/3/1
f 4/4/1 3/3/1 2/2/1
f 5/5/2 6/6/2 7/7/2
f 8/8/2 7/7/2 6/6/2
f 4/9/3 7/10/3 3/11/3
f 8/12/3 3/11/3 7/10/3
f 5/13/4 2/14/4 6/15/4
f 1/16/4 6/15/4 2/14/4
f 9/17/5 10/18/5 11/19/5
f 12/20/5 11/19/5 10/18/5
f 13/21/2 14/22/2 15/23/2
f 16/24/2 15/23/2 14/22/2
f 17/25/6 6/26/6 18/27/6
f 19/28/6 18/27/6 6/26/6
f 1/29/6 19/28/6 6/26/6
f 3/30/6 19/28/6 1/29/6
f 6/26/6 17/25/6 8/31/6
f 20/32/6 8/31/6 17/25/6
f 3/30/6 8/31/6 20/32/6
f 19/28/6 3/30/6 20/32/6
f 18/33/1 21/34/1 17/35/1
f 22/36/1 17/35/1 21/34/1
f 21/37/5 7/38/5 22/39/5
f 23/40/5 22/39/5 7/38/5
f 4/41/5 23/40/5 7/38/5
f 24/42/5 23/40/5 4/41/5
f 2/43/5 24/42/5 4/41/5
f 16/44/5 23/40/5 24/42/5
f 14/45/5 23/40/5 16/44/5
f 7/38/5 21/37/5 5/46/5
f 25/47/5 5/46/5 21/37/5
f 2/43/5 5/46/5 25/47/5
f 23/40/5 14/45/5 25/47/5
f 26/48/5 2/43/5 25/47/5
f 24/42/5 2/43/5 26/48/5
f 14/45/5 26/48/5 25/47/5
f 26/49/1 10/50/1 24/51/1
f 9/52/1 24/51/1 10/50/1
f 25/53/2 19/54/2 23/55/2
f 20/56/2 23/55/2 19/54/2
f 25/57/3 21/58/3 19/59/3
f 18/60/3 19/59/3 21/58/3
f 9/61/4 11/62/4 24/63/4
f 15/64/4 24/63/4 11/62/4
f 16/65/4 24/63/4 15/64/4
f 12/66/3 10/67/3 13/68/3
f 26/69/3 13/68/3 10/67/3
f 14/70/3 13/68/3 26/69/3
f 11/71/7 12/72/7 15/73/7
f 13/74/7 15/73/7 12/72/7
f 22/75/4 23/76/4 17/77/4
f 20/78/4 17/77/4 23/76/4
usemtl glass
f 6/26/6 8/31/6 1/29/6
f 3/30/6 1/29/6 8/31/6
