# Blender v2.78 (sub 0) OBJ File: 'abe_simkitchen_default.blend'
# www.blender.org
mtllib freezer_door_collision.mtl
o freezerDoor1.001_ID16.001
v 0.340907 0.046318 -0.754298
v 0.340907 0.046318 0.697100
v 0.340907 -0.013682 -0.754298
v 0.340907 -0.013682 0.697100
v -0.238561 -0.013682 0.697100
v -0.220987 0.028744 0.697100
v -0.178561 0.046318 0.697100
v -0.238561 -0.013682 -0.754298
v -0.220987 0.028744 -0.754298
v -0.178561 0.046318 -0.754298
v 0.242507 0.117166 -0.028599
v 0.291707 0.117166 -0.028599
v 0.242507 0.115168 0.018276
v 0.291707 0.115168 0.018276
v 0.291707 0.046318 0.244461
v 0.291707 0.046318 -0.301659
v 0.242507 0.046318 0.244461
v 0.242507 0.046318 -0.301659
vt -0.7874 -15.8727
vt -0.7874 15.8727
vt 0.0000 -15.8727
vt 0.0000 15.8727
vt 7.6046 -0.7874
vt 0.7874 -0.7874
vt 7.6046 0.0000
vt -7.6046 0.0000
vt 0.0000 -15.8727
vt 0.0000 0.0000
vt -0.7874 -0.7874
vt 0.0000 0.0000
vt 0.0000 0.0000
vt 0.8372 -15.8727
vt -7.6046 -0.7874
vt -0.7874 -5.9724
vt -0.7874 5.9724
vt 6.3132 5.5027
vt 0.7874 -5.9724
vt 6.3132 0.9817
vt 6.3132 -0.0439
vt 6.9589 0.9817
vt 6.9589 -0.0439
vn 1.0000 0.0000 0.0000
vn 0.0000 0.0000 1.0000
vn 0.0000 0.0000 -1.0000
vn -0.9239 0.3827 -0.0000
vn -0.3827 0.9239 0.0000
vn 0.0000 1.0000 0.0000
vn -0.0000 -1.0000 -0.0000
vn 0.5380 -0.1067 -0.8361
vn 0.5384 -0.1240 0.8335
vn -0.5384 -0.1240 0.8335
vn -0.5380 -0.1067 -0.8361
vn -0.6798 0.7229 0.1234
vn -0.6753 0.7334 -0.0777
vn 0.6798 0.7229 0.1234
vn 0.6753 0.7334 -0.0777
usemtl metalLight.003
s off
f 1/1/1 2/2/1 3/3/1
f 4/4/1 3/3/1 2/2/1
f 2/5/2 7/6/2 4/7/2
f 3/8/3 8/9/3 9/10/3
f 9/10/3 10/11/3 3/8/3
f 5/12/4 6/13/4 9/10/4 8/9/4
f 10/14/5 9/10/5 6/13/5 7/6/5
f 6/13/2 4/7/2 7/6/2
f 1/15/3 3/8/3 10/11/3
f 6/13/2 5/12/2 4/7/2
f 2/5/6 1/15/6 10/14/6 7/6/6
f 4/7/7 5/12/7 8/9/7 3/8/7
usemtl metalMedium.001
s 1
f 16/16/8 15/17/9 17/18/10 18/19/11
f 13/20/12 11/21/13 18/19/11 17/18/10
f 14/22/14 15/17/9 16/16/8 12/23/15
f 13/20/12 14/22/14 11/21/13
f 18/19/11 11/21/13 12/23/15 16/16/8
f 12/23/15 11/21/13 14/22/14
f 17/18/10 15/17/9 14/22/14 13/20/12
