# Blender v2.78 (sub 0) OBJ File: 'abe_simkitchen_default.blend'
# www.blender.org
mtllib freezer_door_visual.mtl
o freezerDoor1.001_ID16.002
v 0.340907 0.046318 -0.754298
v 0.340907 0.046318 0.697100
v 0.340907 -0.013682 -0.754298
v 0.340907 -0.013682 0.697100
v -0.238561 -0.013682 0.697100
v -0.238048 -0.005849 0.697100
v -0.236518 0.001846 0.697100
v -0.233995 0.009280 0.697100
v -0.230524 0.016318 0.697100
v -0.226162 0.022843 0.697100
v -0.220987 0.028744 0.697100
v -0.215086 0.033919 0.697100
v -0.208561 0.038281 0.697100
v -0.201523 0.041752 0.697100
v -0.194089 0.044275 0.697100
v -0.186394 0.045805 0.697100
v -0.178561 0.046318 0.697100
v -0.238561 -0.013682 -0.754298
v -0.238048 -0.005849 -0.754298
v -0.236518 0.001846 -0.754298
v -0.233995 0.009280 -0.754298
v -0.230524 0.016318 -0.754298
v -0.226162 0.022843 -0.754298
v -0.220987 0.028744 -0.754298
v -0.215086 0.033919 -0.754298
v -0.208561 0.038281 -0.754298
v -0.201523 0.041752 -0.754298
v -0.194089 0.044275 -0.754298
v -0.186394 0.045805 -0.754298
v -0.178561 0.046318 -0.754298
v 0.242507 0.046318 -0.301659
v 0.242507 0.046318 0.244461
v 0.291707 0.046318 -0.301659
v 0.291707 0.046318 0.244461
v 0.291707 0.115168 0.018276
v 0.242507 0.115168 0.018276
v 0.291707 0.109186 0.064916
v 0.242507 0.109186 0.064916
v 0.291707 0.109186 -0.122115
v 0.242507 0.109186 -0.122115
v 0.291707 0.115168 -0.075475
v 0.242507 0.115168 -0.075475
v 0.291707 0.099253 -0.168285
v 0.242507 0.099253 -0.168285
v 0.291707 0.117166 -0.028599
v 0.242507 0.117166 -0.028599
v 0.242507 0.099253 0.111086
v 0.242507 0.085411 0.156551
v 0.242507 0.085411 -0.213749
v 0.242507 0.067738 0.201084
v 0.242507 0.067738 -0.258283
v 0.291707 0.067738 -0.258283
v 0.291707 0.085411 -0.213749
v 0.291707 0.067738 0.201084
v 0.291707 0.099253 0.111086
v 0.291707 0.085411 0.156551
vt -0.7874 -15.8727
vt -0.7874 15.8727
vt 0.0000 -15.8727
vt 0.0000 15.8727
vt 0.0000 0.0000
vt 7.6046 0.0000
vt 0.0067 -0.1028
vt 0.0268 -0.2038
vt 0.0599 -0.3013
vt 0.1055 -0.3937
vt 0.1627 -0.4793
vt 0.2306 -0.5568
vt 0.3081 -0.6247
vt 0.3937 -0.6819
vt 0.4861 -0.7275
vt 0.5836 -0.7606
vt 0.6846 -0.7807
vt 0.7874 -0.7874
vt 7.6046 -0.7874
vt 0.0000 0.0000
vt -0.0067 -0.1028
vt -7.6046 0.0000
vt -0.0268 -0.2038
vt -0.0599 -0.3013
vt -0.1055 -0.3937
vt -0.1627 -0.4793
vt -0.2306 -0.5568
vt -0.3081 -0.6247
vt -0.3937 -0.6819
vt -0.4861 -0.7275
vt -0.5836 -0.7606
vt -0.6846 -0.7807
vt -0.7874 -0.7874
vt -7.6046 -0.7874
vt 0.0000 -15.8727
vt 0.8372 -15.8727
vt 0.8372 15.8727
vt 6.3132 5.9724
vt 0.7874 -5.9724
vt 6.3132 -5.9724
vt 6.9589 -5.9724
vt 7.6046 -15.8727
vt 7.6046 15.8727
vt 0.7874 15.8727
vt 6.9589 5.9724
vt 0.7342 -15.8727
vt 0.7342 15.8727
vt 0.8238 -15.8727
vt 0.7208 -15.8727
vt 0.8238 15.8727
vt 0.7208 15.8727
vt 0.7971 -15.8727
vt 0.6941 -15.8727
vt 0.7971 15.8727
vt 0.6941 15.8727
vt 0.7577 -15.8727
vt 0.6547 -15.8727
vt 0.7577 15.8727
vt 0.6547 15.8727
vt 0.7062 -15.8727
vt 0.6032 -15.8727
vt 0.7062 15.8727
vt 0.6032 15.8727
vt 0.6435 -15.8727
vt 0.5405 -15.8727
vt 0.6435 15.8727
vt 0.5405 15.8727
vt 0.5707 15.8727
vt 0.5707 -15.8727
vt 0.4677 15.8727
vt 0.4677 -15.8727
vt 0.4890 15.8727
vt 0.4890 -15.8727
vt 0.3860 15.8727
vt 0.3860 -15.8727
vt 0.3998 15.8727
vt 0.3998 -15.8727
vt 0.2968 15.8727
vt 0.2968 -15.8727
vt 0.3046 15.8727
vt 0.3046 -15.8727
vt 0.2016 15.8727
vt 0.2016 -15.8727
vt 0.2051 15.8727
vt 0.2051 -15.8727
vt 0.1021 15.8727
vt 0.1021 -15.8727
vt 0.0000 15.8727
vt 1.7172 0.0000
vt 1.6910 -1.0253
vt 1.6910 1.0253
vt 1.6125 2.0454
vt 1.6125 -2.0454
vt 1.4821 3.0552
vt 1.4821 -3.0552
vt 1.3004 4.0497
vt 1.3004 -4.0497
vt 1.0685 5.0237
vt 1.0685 -5.0237
vt 0.7874 5.9724
vt -1.7172 0.0000
vt -1.6910 1.0253
vt -1.6910 -1.0253
vt -1.6125 -2.0454
vt -1.6125 2.0454
vt -1.4821 -3.0552
vt -1.4821 3.0552
vt -1.3004 -4.0497
vt -1.3004 4.0497
vt -1.0685 -5.0237
vt -1.0685 5.0237
vt -0.7874 -5.9724
vt -0.7874 5.9724
vt 6.9589 0.8925
vt 6.3132 0.8925
vt 6.9589 1.9157
vt 6.3132 1.9157
vt 6.9589 -1.9157
vt 6.3132 -1.9157
vt 6.9589 -0.8925
vt 6.3132 -0.8925
vt 6.9589 -2.8403
vt 6.3132 -2.8403
vt 6.9589 -1.8221
vt 6.3132 -1.8221
vt 6.9589 -0.9817
vt 6.3132 -0.9817
vt 6.9589 0.0439
vt 6.3132 0.0439
vt 6.9589 -4.6395
vt 6.3132 -4.6395
vt 6.9589 -3.6383
vt 6.3132 -3.6383
vt 6.9589 -3.7501
vt 6.3132 -3.7501
vt 6.9589 -2.7392
vt 6.3132 -2.7392
vt 6.9589 4.5132
vt 6.3132 4.5132
vt 6.9589 5.5027
vt 6.3132 5.5027
vt 6.9589 1.8221
vt 6.3132 1.8221
vt 6.9589 2.8403
vt 6.3132 2.8403
vt 6.9589 2.7392
vt 6.3132 2.7392
vt 6.9589 3.7501
vt 6.3132 3.7501
vt 6.9589 -0.0439
vt 6.3132 -0.0439
vt 6.9589 0.9817
vt 6.3132 0.9817
vt 6.9589 3.6383
vt 6.3132 3.6383
vt 6.9589 4.6395
vt 6.3132 4.6395
vt 6.9589 -5.5027
vt 6.3132 -5.5027
vt 6.9589 -4.5132
vt 6.3132 -4.5132
vn 1.0000 0.0000 0.0000
vn 0.0000 0.0000 1.0000
vn 0.0000 0.0000 -1.0000
vn -0.0000 -1.0000 -0.0000
vn 0.0000 1.0000 0.0000
vn -0.0233 0.7139 -0.6998
vn -0.0941 0.7151 -0.6927
vn -0.0233 0.7139 0.6998
vn -0.0941 0.7150 0.6927
vn -0.1866 0.6967 -0.6926
vn -0.1866 0.6967 0.6926
vn -0.2760 0.6663 -0.6926
vn -0.2760 0.6663 0.6926
vn -0.3607 0.6246 -0.6926
vn -0.3607 0.6246 0.6926
vn -0.4391 0.5721 -0.6927
vn -0.4391 0.5721 0.6927
vn -0.5100 0.5100 -0.6926
vn -0.5100 0.5100 0.6926
vn -0.5721 0.4391 0.6927
vn -0.5721 0.4391 -0.6927
vn -0.6246 0.3607 0.6926
vn -0.6246 0.3607 -0.6926
vn -0.6663 0.2760 0.6926
vn -0.6663 0.2760 -0.6926
vn -0.6967 0.1866 0.6926
vn -0.6967 0.1866 -0.6926
vn -0.7151 0.0941 0.6927
vn -0.7151 0.0941 -0.6927
vn -0.5976 -0.5598 0.5740
vn -0.5976 -0.5598 -0.5740
vn -1.0000 0.0000 0.0000
vn 0.6977 0.7138 0.0609
vn -0.6977 0.7138 0.0609
vn 0.6977 0.7060 0.1210
vn -0.6977 0.7060 0.1210
vn 0.6977 0.7060 -0.1210
vn -0.6977 0.7060 -0.1210
vn 0.6977 0.7138 -0.0609
vn -0.6977 0.7138 -0.0609
vn 0.6978 0.6933 -0.1798
vn -0.6978 0.6933 -0.1798
vn 0.6976 0.7164 0.0000
vn -0.6976 0.7164 0.0000
vn 0.6981 0.6543 -0.2908
vn -0.6981 0.6543 -0.2908
vn 0.6980 0.6759 -0.2365
vn -0.6980 0.6759 -0.2365
vn 0.6981 0.6543 0.2908
vn -0.6981 0.6543 0.2908
vn 0.0743 0.9908 0.1126
vn -0.0743 0.9908 0.1126
vn 0.6978 0.6933 0.1798
vn -0.6978 0.6933 0.1798
vn 0.6980 0.6759 0.2365
vn -0.6980 0.6759 0.2365
vn 0.0743 0.9908 -0.1126
vn -0.0743 0.9908 -0.1126
usemtl metalLight.003
s off
f 1/1/1 2/2/1 3/3/1
f 4/4/1 3/3/1 2/2/1
f 5/5/2 4/6/2 6/7/2
f 7/8/2 6/7/2 4/6/2
f 8/9/2 7/8/2 4/6/2
f 9/10/2 8/9/2 4/6/2
f 10/11/2 9/10/2 4/6/2
f 11/12/2 10/11/2 4/6/2
f 12/13/2 11/12/2 4/6/2
f 13/14/2 12/13/2 4/6/2
f 14/15/2 13/14/2 4/6/2
f 15/16/2 14/15/2 4/6/2
f 16/17/2 15/16/2 4/6/2
f 17/18/2 16/17/2 4/6/2
f 2/19/2 17/18/2 4/6/2
f 18/20/3 19/21/3 3/22/3
f 20/23/3 3/22/3 19/21/3
f 21/24/3 3/22/3 20/23/3
f 22/25/3 3/22/3 21/24/3
f 23/26/3 3/22/3 22/25/3
f 24/27/3 3/22/3 23/26/3
f 25/28/3 3/22/3 24/27/3
f 26/29/3 3/22/3 25/28/3
f 27/30/3 3/22/3 26/29/3
f 28/31/3 3/22/3 27/30/3
f 29/32/3 3/22/3 28/31/3
f 30/33/3 3/22/3 29/32/3
f 1/34/3 3/22/3 30/33/3
f 4/6/4 5/5/4 18/35/4 3/22/4
f 30/36/5 17/37/5 32/38/5 31/39/5
f 30/33/5 31/40/5 1/34/5
f 33/41/5 1/42/5 31/40/5
f 1/42/5 33/41/5 2/43/5
f 2/43/5 32/38/5 17/44/5
f 34/45/5 2/43/5 33/41/5
f 32/38/5 2/43/5 34/45/5
s 1
f 30/36/6 29/46/7 17/37/8
f 16/47/9 17/37/8 29/46/7
f 29/48/7 28/49/10 16/50/9
f 15/51/11 16/50/9 28/49/10
f 28/52/10 27/53/12 15/54/11
f 14/55/13 15/54/11 27/53/12
f 27/56/12 26/57/14 14/58/13
f 13/59/15 14/58/13 26/57/14
f 26/60/14 25/61/16 13/62/15
f 12/63/17 13/62/15 25/61/16
f 25/64/16 24/65/18 12/66/17
f 11/67/19 12/66/17 24/65/18
f 11/68/19 24/69/18 10/70/20
f 23/71/21 10/70/20 24/69/18
f 10/72/20 23/73/21 9/74/22
f 22/75/23 9/74/22 23/73/21
f 9/76/22 22/77/23 8/78/24
f 21/79/25 8/78/24 22/77/23
f 8/80/24 21/81/25 7/82/26
f 20/83/27 7/82/26 21/81/25
f 7/84/26 20/85/27 6/86/28
f 19/87/29 6/86/28 20/85/27
f 6/86/28 19/87/29 5/88/30
f 18/35/31 5/88/30 19/87/29
usemtl metalMedium.001
s off
f 46/89/32 42/90/32 36/91/32
f 38/92/32 36/91/32 42/90/32
f 40/93/32 38/92/32 42/90/32
f 47/94/32 38/92/32 40/93/32
f 44/95/32 47/94/32 40/93/32
f 48/96/32 47/94/32 44/95/32
f 49/97/32 48/96/32 44/95/32
f 50/98/32 48/96/32 49/97/32
f 51/99/32 50/98/32 49/97/32
f 32/100/32 50/98/32 51/99/32
f 31/39/32 32/100/32 51/99/32
f 45/101/1 35/102/1 41/103/1
f 39/104/1 41/103/1 35/102/1
f 37/105/1 39/104/1 35/102/1
f 43/106/1 39/104/1 37/105/1
f 55/107/1 43/106/1 37/105/1
f 53/108/1 43/106/1 55/107/1
f 56/109/1 53/108/1 55/107/1
f 52/110/1 53/108/1 56/109/1
f 54/111/1 52/110/1 56/109/1
f 33/112/1 52/110/1 54/111/1
f 34/113/1 33/112/1 54/111/1
s 1
f 35/114/33 36/115/34 37/116/35
f 38/117/36 37/116/35 36/115/34
f 39/118/37 40/119/38 41/120/39
f 42/121/40 41/120/39 40/119/38
f 43/122/41 44/123/42 39/124/37
f 40/125/38 39/124/37 44/123/42
f 41/126/39 42/127/40 45/128/43
f 46/129/44 45/128/43 42/127/40
f 52/130/45 51/131/46 53/132/47
f 49/133/48 53/132/47 51/131/46
f 53/134/47 49/135/48 43/136/41
f 44/137/42 43/136/41 49/135/48
f 54/138/49 50/139/50 34/140/51
f 32/141/52 34/140/51 50/139/50
f 37/142/35 38/143/36 55/144/53
f 47/145/54 55/144/53 38/143/36
f 55/146/53 47/147/54 56/148/55
f 48/149/56 56/148/55 47/147/54
f 45/150/43 46/151/44 35/152/33
f 36/153/34 35/152/33 46/151/44
f 56/154/55 48/155/56 54/156/49
f 50/157/50 54/156/49 48/155/56
f 33/158/57 31/159/58 52/160/45
f 51/161/46 52/160/45 31/159/58
