# Blender v2.78 (sub 0) OBJ File: ''
# www.blender.org
mtllib fridge_collision.mtl
o fridge1.001_ID5.008_fridge1.001_ID5.000
v 0.959468 0.719526 -0.064232
v 0.098422 0.719526 -0.064232
v 0.959468 0.719526 -0.015912
v 0.959468 -0.180474 -0.015912
v 0.098422 -0.180474 -0.015912
v 0.098422 0.719526 -0.015912
v 0.098422 -0.180474 -0.064232
v 0.959468 -0.180474 -0.064232
vt 19.4156 27.1646
vt 1.0569 27.1646
vt 19.4156 28.2214
vt 19.4156 12.2047
vt 19.4156 0.3937
vt 1.0569 12.2047
vt 1.0569 0.3937
vt 1.0569 28.2214
vt -1.0569 12.2047
vt -1.0569 0.3937
vt -19.4156 12.2047
vt -19.4156 0.3937
vn 0.0000 1.0000 0.0000
vn 0.0000 0.0000 1.0000
vn 0.0000 0.0000 -1.0000
vn -1.0000 0.0000 0.0000
vn 0.0000 -1.0000 0.0000
vn 1.0000 0.0000 0.0000
usemtl metalLight.005
s 1
f 1/1/1 2/2/1 3/3/1
f 4/4/2 3/5/2 5/6/2
f 6/7/2 5/6/2 3/5/2
f 6/8/1 3/3/1 2/2/1
f 7/9/3 2/10/3 8/11/3
f 1/12/3 8/11/3 2/10/3
f 7/9/4 5/6/4 6/7/4 2/2/4
f 8/11/5 4/4/5 5/6/5 7/9/5
f 4/4/6 8/11/6 1/12/6 3/3/6
o fridge1.001_ID5.003_fridge1.001_ID5.000
v 0.958577 0.813184 -0.484456
v 0.958577 0.813183 0.972928
v 1.047297 0.813184 -0.484456
v 1.047297 -0.225820 -0.484456
v 1.047297 -0.225820 0.972928
v 1.047297 0.813183 0.972928
v 0.958577 -0.225820 0.972928
v 0.958577 -0.225820 -0.484456
vt 19.4156 27.1646
vt 1.0569 27.1646
vt 19.4156 28.2214
vt 19.4156 12.2047
vt 19.4156 0.3937
vt 1.0569 12.2047
vt 1.0569 0.3937
vt 1.0569 28.2214
vt -1.0569 12.2047
vt -1.0569 0.3937
vt -19.4156 12.2047
vt -19.4156 0.3937
vn 0.0000 1.0000 0.0000
vn 1.0000 0.0000 0.0000
vn -1.0000 0.0000 0.0000
vn 0.0000 0.0000 1.0000
vn 0.0000 -1.0000 0.0000
vn 0.0000 0.0000 -1.0000
usemtl metalLight.005
s 1
f 9/13/7 10/14/7 11/15/7
f 12/16/8 11/17/8 13/18/8
f 14/19/8 13/18/8 11/17/8
f 14/20/7 11/15/7 10/14/7
f 15/21/9 10/22/9 16/23/9
f 9/24/9 16/23/9 10/22/9
f 15/21/10 13/18/10 14/19/10 10/14/10
f 16/23/11 12/16/11 13/18/11 15/21/11
f 12/16/12 16/23/12 9/24/12 11/15/12
o fridge1.001_ID5.001
v 0.959468 0.719526 0.459583
v 0.098672 0.719526 0.459583
v 0.959468 0.719526 0.507902
v 0.959468 -0.180474 0.507902
v 0.098672 -0.180474 0.507902
v 0.098672 0.719526 0.507902
v 0.098672 -0.180474 0.459583
v 0.959468 -0.180474 0.459583
vt 19.4156 27.1646
vt 1.0569 27.1646
vt 19.4156 28.2214
vt 19.4156 12.2047
vt 19.4156 0.3937
vt 1.0569 12.2047
vt 1.0569 0.3937
vt 1.0569 28.2214
vt -1.0569 12.2047
vt -1.0569 0.3937
vt -19.4156 12.2047
vt -19.4156 0.3937
vn 0.0000 1.0000 0.0000
vn 0.0000 0.0000 1.0000
vn 0.0000 0.0000 -1.0000
vn -1.0000 0.0000 0.0000
vn 0.0000 -1.0000 0.0000
vn 1.0000 0.0000 0.0000
usemtl metalLight.005
s 1
f 17/25/13 18/26/13 19/27/13
f 20/28/14 19/29/14 21/30/14
f 22/31/14 21/30/14 19/29/14
f 22/32/13 19/27/13 18/26/13
f 23/33/15 18/34/15 24/35/15
f 17/36/15 24/35/15 18/34/15
f 23/33/16 21/30/16 22/31/16 18/26/16
f 24/35/17 20/28/17 21/30/17 23/33/17
f 20/28/18 24/35/18 17/36/18 19/27/18
o fridge1.001_ID5.006_fridge1.001_ID5.000
v 0.982022 0.807692 0.976692
v 0.093051 0.807692 0.976692
v 0.982022 0.807692 1.005455
v 0.982022 -0.268640 1.005456
v 0.093051 -0.268640 1.005456
v 0.093051 0.807692 1.005455
v 0.093051 -0.268639 0.976692
v 0.982022 -0.268640 0.976692
vt 19.4156 27.1646
vt 1.0569 27.1646
vt 19.4156 28.2214
vt 19.4156 12.2047
vt 19.4156 0.3937
vt 1.0569 12.2047
vt 1.0569 0.3937
vt 1.0569 28.2214
vt -1.0569 12.2047
vt -1.0569 0.3937
vt -19.4156 12.2047
vt -19.4156 0.3937
vn 0.0000 1.0000 0.0000
vn 0.0000 0.0000 1.0000
vn 0.0000 0.0000 -1.0000
vn -1.0000 -0.0000 0.0000
vn -0.0000 -1.0000 -0.0000
vn 1.0000 0.0000 0.0000
usemtl metalLight.005
s 1
f 25/37/19 26/38/19 27/39/19
f 28/40/20 27/41/20 29/42/20
f 30/43/20 29/42/20 27/41/20
f 30/44/19 27/39/19 26/38/19
f 31/45/21 26/46/21 32/47/21
f 25/48/21 32/47/21 26/46/21
f 31/45/22 29/42/22 30/43/22 26/38/22
f 32/47/23 28/40/23 29/42/23 31/45/23
f 28/40/24 32/47/24 25/48/24 27/39/24
o fridge1.001_ID5.007_fridge1.001_ID5.000
v 0.155254 0.763000 -0.493031
v 0.155254 0.762999 0.973690
v 0.155254 -0.267378 -0.493031
v 0.155254 -0.267378 0.973690
v 0.076544 0.763000 -0.493031
v 0.076544 -0.267378 -0.493031
v 0.076544 0.762999 0.973690
v 0.076544 -0.267378 0.973690
vt 1.0569 -0.7874
vt 19.4156 -0.7874
vt 1.0569 13.4620
vt 19.4156 13.4620
vt 1.0569 -0.7874
vt 1.0569 13.4620
vt 19.4156 -0.7874
vt 19.4156 13.4620
vn 1.0000 0.0000 0.0000
vn -1.0000 0.0000 0.0000
vn 0.0000 0.0000 1.0000
vn 0.0000 0.0000 -1.0000
vn 0.0000 -1.0000 0.0000
vn 0.0000 1.0000 0.0000
usemtl metalLight.005
s 1
f 33/49/25 34/50/25 35/51/25
f 36/52/25 35/51/25 34/50/25
f 37/53/26 38/54/26 39/55/26
f 40/56/26 39/55/26 38/54/26
f 36/52/27 34/50/27 39/55/27 40/56/27
f 33/49/28 35/51/28 38/54/28 37/53/28
f 35/51/29 36/52/29 40/56/29 38/54/29
f 34/50/30 33/49/30 37/53/30 39/55/30
o fridge1.001_ID5.005_fridge1.001_ID5.000
v 1.034820 0.807693 -0.630818
v 0.083153 0.807693 -0.630818
v 1.034820 0.807693 -0.461898
v 1.034820 -0.268640 -0.461898
v 0.083153 -0.268640 -0.461898
v 0.083153 0.807693 -0.461898
v 0.083153 -0.268639 -0.630819
v 1.034820 -0.268640 -0.630818
vt 19.4156 27.1646
vt 1.0569 27.1646
vt 19.4156 28.2214
vt 19.4156 12.2047
vt 19.4156 0.3937
vt 1.0569 12.2047
vt 1.0569 0.3937
vt 1.0569 28.2214
vt -1.0569 12.2047
vt -1.0569 0.3937
vt -19.4156 12.2047
vt -19.4156 0.3937
vn 0.0000 1.0000 0.0000
vn 0.0000 0.0000 1.0000
vn 0.0000 0.0000 -1.0000
vn -1.0000 0.0000 0.0000
vn -0.0000 -1.0000 -0.0000
vn 1.0000 0.0000 0.0000
usemtl metalLight.005
s 1
f 41/57/31 42/58/31 43/59/31
f 44/60/32 43/61/32 45/62/32
f 46/63/32 45/62/32 43/61/32
f 46/64/31 43/59/31 42/58/31
f 47/65/33 42/66/33 48/67/33
f 41/68/33 48/67/33 42/66/33
f 47/65/34 45/62/34 46/63/34 42/58/34
f 48/67/35 44/60/35 45/62/35 47/65/35
f 44/60/36 48/67/36 41/68/36 43/59/36
o fridge1.001_ID5.002_fridge1.001_ID5.000
v 0.982022 -0.182230 0.981857
v 0.083895 -0.182230 0.981858
v 0.982022 -0.266165 0.981857
v 0.982022 -0.266164 -0.618940
v 0.083895 -0.266164 -0.618940
v 0.083895 -0.266164 0.981858
v 0.083895 -0.182229 -0.618940
v 0.982022 -0.182230 -0.618940
vt 19.4156 27.1646
vt 1.0569 27.1646
vt 19.4156 28.2214
vt 19.4156 12.2047
vt 19.4156 0.3937
vt 1.0569 12.2047
vt 1.0569 0.3937
vt 1.0569 28.2214
vt -1.0569 12.2047
vt -1.0569 0.3937
vt -19.4156 12.2047
vt -19.4156 0.3937
vn 0.0000 0.0000 1.0000
vn 0.0000 -1.0000 -0.0000
vn 0.0000 1.0000 0.0000
vn -1.0000 0.0000 0.0000
vn 0.0000 0.0000 -1.0000
vn 1.0000 0.0000 0.0000
usemtl metalLight.005
s 1
f 49/69/37 50/70/37 51/71/37
f 52/72/38 51/73/38 53/74/38
f 54/75/38 53/74/38 51/73/38
f 54/76/37 51/71/37 50/70/37
f 55/77/39 50/78/39 56/79/39
f 49/80/39 56/79/39 50/78/39
f 55/77/40 53/74/40 54/75/40 50/70/40
f 56/79/41 52/72/41 53/74/41 55/77/41
f 52/72/42 56/79/42 49/80/42 51/71/42
