# Blender v2.78 (sub 0) OBJ File: ''
# www.blender.org
mtllib fridge_door_collision.mtl
o fridgeDoor1.001_ID25.001_fridgeDoor1.001_ID25.002
v -0.390594 -0.005424 0.690341
v 0.368874 -0.005424 0.690341
v 0.368874 -0.005424 -0.761056
v -0.390594 -0.005424 -0.761056
v -0.390594 -0.065424 0.690341
v -0.390594 -0.065424 -0.761056
v 0.428874 -0.065424 -0.761056
v 0.428874 -0.065424 0.690341
v 0.411300 -0.022998 0.690341
v 0.411300 -0.022998 -0.761056
vt -10.7542 -0.7874
vt -0.7874 -0.7874
vt -0.8372 -15.8727
vt 10.7542 -0.7874
vt 0.7874 15.8727
vt 0.7874 -15.8727
vt 0.0000 15.8727
vt 0.0000 -15.8727
vt 10.7542 0.0000
vt 0.0000 0.0000
vt 0.7874 -0.7874
vt -10.7542 0.0000
vt 0.0000 0.0000
vt 0.0000 0.0000
vt 0.0000 0.0000
vt 0.0000 15.8727
vt 10.7542 -15.8727
vt 0.0000 -15.8727
vt 10.7542 15.8727
vn 0.0000 1.0000 0.0000
vn -1.0000 0.0000 0.0000
vn 0.0000 0.0000 -1.0000
vn 0.0000 0.0000 1.0000
vn 0.3827 0.9239 0.0000
vn 0.9239 0.3827 0.0000
vn 0.0000 -1.0000 0.0000
usemtl metalLight.002
s off
f 1/1/1 2/2/1 3/3/1 4/4/1
f 1/5/2 4/6/2 5/7/2
f 6/8/2 5/7/2 4/6/2
f 6/9/3 4/4/3 7/10/3
f 3/11/3 7/10/3 4/4/3
f 1/1/4 5/12/4 2/2/4
f 8/13/4 2/2/4 5/12/4
f 2/2/5 9/14/5 10/15/5 3/3/5
f 9/14/4 2/2/4 8/16/4
f 10/15/6 9/14/6 8/16/6 7/10/6
f 6/17/7 7/18/7 5/19/7
f 8/16/7 5/19/7 7/18/7
f 10/15/3 7/10/3 3/11/3
o fridgeDoor1.001_ID25.000
v -0.341394 -0.005424 -0.308418
v -0.292194 -0.005424 -0.308418
v -0.292194 -0.005424 0.237702
v -0.341394 -0.005424 0.237702
v -0.292194 0.065424 -0.035358
v -0.341394 0.065424 -0.035358
v -0.292194 0.063426 0.011518
v -0.341394 0.063426 0.011518
vt 0.7874 -5.9724
vt -0.7874 -5.9724
vt -9.4628 5.5027
vt 0.7874 5.9724
vt -9.4628 -0.0439
vt -10.1085 -0.0439
vt -9.4628 0.9817
vt -10.1085 0.9817
vn -0.5381 -0.1067 -0.8361
vn 0.5381 -0.1067 -0.8361
vn 0.5384 -0.1240 0.8335
vn -0.5384 -0.1240 0.8335
vn 0.6753 0.7334 -0.0778
vn -0.6753 0.7334 -0.0778
vn 0.6798 0.7229 0.1234
vn -0.6798 0.7229 0.1234
usemtl metalMedium.003
s 1
f 11/20/8 12/21/9 13/22/10 14/23/11
f 15/24/12 16/25/13 17/26/14
f 18/27/15 17/26/14 16/25/13
f 16/25/13 11/20/8 14/23/11 18/27/15
f 16/25/13 15/24/12 12/21/9 11/20/8
f 14/23/11 13/22/10 17/26/14 18/27/15
f 17/26/14 13/22/10 12/21/9 15/24/12
