# Blender v2.78 (sub 0) OBJ File: 'abe_simkitchen_default.blend'
# www.blender.org
mtllib fridge_door_visual.mtl
o fridgeDoor1.001_ID25.001
v -0.292194 -0.005424 -0.308418
v -0.341394 -0.005424 -0.308418
v -0.292194 0.015996 -0.265041
v -0.341394 0.015996 -0.265041
v -0.292194 0.065424 -0.035358
v -0.341394 0.065424 -0.035358
v -0.292194 0.063426 0.011518
v -0.341394 0.063426 0.011518
v -0.292194 0.057444 0.058158
v -0.341394 0.057444 0.058158
v -0.292194 0.063426 -0.082233
v -0.341394 0.063426 -0.082233
v -0.292194 0.015996 0.194326
v -0.341394 0.015996 0.194326
v -0.292194 -0.005424 0.237702
v -0.341394 -0.005424 0.237702
v -0.292194 0.057444 -0.128873
v -0.292194 0.047511 -0.175043
v -0.292194 0.047511 0.104328
v -0.292194 0.033669 -0.220508
v -0.292194 0.033669 0.149792
v -0.341394 0.057444 -0.128873
v -0.341394 0.033669 -0.220508
v -0.341394 0.033669 0.149792
v -0.341394 0.047511 -0.175043
v -0.341394 0.047511 0.104328
v -0.390594 -0.005424 0.690341
v -0.390594 -0.005424 -0.761056
v -0.390594 -0.065424 0.690341
v -0.390594 -0.065424 -0.761056
v 0.428874 -0.065424 -0.761056
v 0.368874 -0.005424 -0.761056
v 0.376707 -0.005937 -0.761056
v 0.384402 -0.007467 -0.761056
v 0.391836 -0.009990 -0.761056
v 0.398874 -0.013461 -0.761056
v 0.405399 -0.017823 -0.761056
v 0.411300 -0.022998 -0.761056
v 0.416475 -0.028899 -0.761056
v 0.420837 -0.035424 -0.761056
v 0.424308 -0.042462 -0.761056
v 0.426831 -0.049896 -0.761056
v 0.428361 -0.057591 -0.761056
v 0.368874 -0.005424 0.690341
v 0.428874 -0.065424 0.690341
v 0.376707 -0.005937 0.690341
v 0.384402 -0.007467 0.690341
v 0.391836 -0.009990 0.690341
v 0.398874 -0.013461 0.690341
v 0.405399 -0.017823 0.690341
v 0.411300 -0.022998 0.690341
v 0.416475 -0.028899 0.690341
v 0.420837 -0.035424 0.690341
v 0.424308 -0.042462 0.690341
v 0.426831 -0.049896 0.690341
v 0.428361 -0.057591 0.690341
vt 0.7874 15.8727
vt 0.7874 -15.8727
vt 0.0000 15.8727
vt 0.0000 -15.8727
vt 10.7542 0.0000
vt 10.7542 -0.7874
vt 0.0000 0.0000
vt 0.7874 -0.7874
vt 0.6846 -0.7807
vt 0.5836 -0.7606
vt 0.4861 -0.7275
vt 0.3937 -0.6819
vt 0.3081 -0.6247
vt 0.2306 -0.5568
vt 0.1627 -0.4793
vt 0.1055 -0.3937
vt 0.0599 -0.3013
vt 0.0268 -0.2038
vt 0.0067 -0.1028
vt -10.7542 -0.7874
vt -10.7542 0.0000
vt -0.7874 -0.7874
vt 0.0000 0.0000
vt -0.6846 -0.7807
vt -0.5836 -0.7606
vt -0.4861 -0.7275
vt -0.3937 -0.6819
vt -0.3081 -0.6247
vt -0.2306 -0.5568
vt -0.1627 -0.4793
vt -0.1055 -0.3937
vt -0.0599 -0.3013
vt -0.0268 -0.2038
vt -0.0067 -0.1028
vt -0.7874 -15.8727
vt -9.4628 -5.9724
vt -0.7874 15.8727
vt -9.4628 5.9724
vt -10.1085 5.9724
vt -10.1085 -5.9724
vt -10.7542 -15.8727
vt -10.7542 15.8727
vt 10.7542 -15.8727
vt 0.0000 -15.8727
vt 10.7542 15.8727
vt 0.0000 15.8727
vt -0.1030 -15.8727
vt -0.1030 15.8727
vt -0.2051 15.8727
vt -0.2051 -15.8727
vt -0.3046 -15.8727
vt -0.3046 15.8727
vt -0.2016 -15.8727
vt -0.2016 15.8727
vt -0.3998 -15.8727
vt -0.3998 15.8727
vt -0.2968 -15.8727
vt -0.2968 15.8727
vt -0.4890 -15.8727
vt -0.4890 15.8727
vt -0.3860 -15.8727
vt -0.3860 15.8727
vt -0.5707 -15.8727
vt -0.5707 15.8727
vt -0.4677 -15.8727
vt -0.4677 15.8727
vt -0.5405 -15.8727
vt -0.6435 -15.8727
vt -0.5405 15.8727
vt -0.6435 15.8727
vt -0.6032 -15.8727
vt -0.7062 -15.8727
vt -0.6032 15.8727
vt -0.7062 15.8727
vt -0.6547 -15.8727
vt -0.7577 -15.8727
vt -0.6547 15.8727
vt -0.7577 15.8727
vt -0.6941 -15.8727
vt -0.7971 -15.8727
vt -0.6941 15.8727
vt -0.7971 15.8727
vt -0.7208 -15.8727
vt -0.8238 -15.8727
vt -0.7208 15.8727
vt -0.8238 15.8727
vt -0.7342 -15.8727
vt -0.8372 -15.8727
vt -0.7342 15.8727
vt -0.8372 15.8727
vt -1.7172 0.0000
vt -1.6910 1.0253
vt -1.6910 -1.0253
vt -1.6125 -2.0454
vt -1.6125 2.0454
vt -1.4821 -3.0552
vt -1.4821 3.0552
vt -1.3004 -4.0497
vt -1.3004 4.0497
vt -1.0685 5.0237
vt -1.0685 -5.0237
vt -0.7874 -5.9724
vt -0.7874 5.9724
vt 1.7172 0.0000
vt 1.6910 -1.0253
vt 1.6910 1.0253
vt 1.6125 2.0454
vt 1.6125 -2.0454
vt 1.4821 3.0552
vt 1.4821 -3.0552
vt 1.3004 4.0497
vt 1.3004 -4.0497
vt 1.0685 5.0237
vt 1.0685 -5.0237
vt 0.7874 5.9724
vt 0.7874 -5.9724
vt -9.4628 -5.5027
vt -10.1085 -5.5027
vt -9.4628 -4.5132
vt -10.1085 -4.5132
vt -9.4628 -0.0439
vt -10.1085 -0.0439
vt -9.4628 0.9817
vt -10.1085 0.9817
vt -9.4628 0.8925
vt -10.1085 0.8925
vt -9.4628 1.9157
vt -10.1085 1.9157
vt -9.4628 -0.9817
vt -10.1085 -0.9817
vt -9.4628 0.0439
vt -10.1085 0.0439
vt -9.4628 4.5132
vt -10.1085 4.5132
vt -9.4628 5.5027
vt -10.1085 5.5027
vt -9.4628 -1.9157
vt -10.1085 -1.9157
vt -9.4628 -0.8925
vt -10.1085 -0.8925
vt -9.4628 -4.6395
vt -10.1085 -4.6395
vt -9.4628 -3.6383
vt -10.1085 -3.6383
vt -9.4628 3.6383
vt -10.1085 3.6383
vt -9.4628 4.6395
vt -10.1085 4.6395
vt -9.4628 -3.7501
vt -10.1085 -3.7501
vt -9.4628 -2.7392
vt -10.1085 -2.7392
vt -9.4628 -2.8403
vt -10.1085 -2.8403
vt -9.4628 -1.8221
vt -10.1085 -1.8221
vt -9.4628 1.8221
vt -10.1085 1.8221
vt -9.4628 2.8403
vt -10.1085 2.8403
vt -9.4628 2.7392
vt -10.1085 2.7392
vt -9.4628 3.7501
vt -10.1085 3.7501
vn -1.0000 0.0000 -0.0000
vn 0.0000 0.0000 -1.0000
vn -0.0001 0.0000 -1.0000
vn 0.0000 0.0000 1.0000
vn 0.0000 1.0000 0.0000
vn -0.0000 -1.0000 -0.0000
vn 0.7151 0.0941 -0.6927
vn 0.7150 0.0941 0.6927
vn 0.5976 -0.5598 -0.5740
vn 0.5976 -0.5598 0.5740
vn 0.6967 0.1866 0.6926
vn 0.6967 0.1866 -0.6926
vn 0.6663 0.2760 -0.6927
vn 0.6663 0.2760 0.6926
vn 0.6246 0.3607 -0.6926
vn 0.6246 0.3607 0.6926
vn 0.5721 0.4391 -0.6927
vn 0.5721 0.4391 0.6927
vn 0.5100 0.5100 -0.6926
vn 0.5100 0.5100 0.6926
vn 0.4391 0.5721 -0.6927
vn 0.4391 0.5721 0.6927
vn 0.3607 0.6246 -0.6926
vn 0.3607 0.6246 0.6926
vn 0.2760 0.6663 -0.6926
vn 0.2760 0.6663 0.6926
vn 0.1866 0.6967 -0.6926
vn 0.1866 0.6967 0.6926
vn 0.0941 0.7151 -0.6927
vn 0.0941 0.7151 0.6927
vn 0.0233 0.7139 -0.6998
vn 0.0233 0.7139 0.6998
vn 1.0000 0.0000 0.0000
vn 0.0743 0.9908 -0.1126
vn -0.0743 0.9908 -0.1126
vn 0.6981 0.6543 -0.2908
vn -0.6981 0.6543 -0.2908
vn 0.6976 0.7164 0.0000
vn -0.6976 0.7164 0.0000
vn 0.6977 0.7138 0.0609
vn -0.6977 0.7138 0.0609
vn 0.6977 0.7060 0.1210
vn -0.6977 0.7060 0.1210
vn 0.6977 0.7138 -0.0609
vn -0.6977 0.7138 -0.0609
vn 0.6981 0.6543 0.2908
vn -0.6981 0.6543 0.2908
vn 0.0743 0.9908 0.1126
vn -0.0743 0.9908 0.1126
vn 0.6977 0.7060 -0.1210
vn -0.6977 0.7060 -0.1210
vn 0.6980 0.6759 -0.2365
vn -0.6980 0.6759 -0.2365
vn 0.6980 0.6759 0.2365
vn -0.6980 0.6759 0.2365
vn 0.6978 0.6933 -0.1798
vn -0.6978 0.6933 -0.1798
vn 0.6978 0.6933 0.1798
vn -0.6978 0.6933 0.1798
usemtl metalLight.003
s off
f 27/1/1 28/2/1 29/3/1
f 30/4/1 29/3/1 28/2/1
f 30/5/2 28/6/2 31/7/2
f 32/8/2 31/7/2 28/6/2
f 33/9/2 31/7/2 32/8/2
f 34/10/2 31/7/2 33/9/2
f 35/11/2 31/7/2 34/10/2
f 36/12/2 31/7/2 35/11/2
f 37/13/2 31/7/2 36/12/2
f 38/14/2 31/7/2 37/13/2
f 39/15/2 31/7/2 38/14/2
f 40/16/2 31/7/2 39/15/2
f 41/17/3 31/7/3 40/16/3
f 42/18/2 31/7/2 41/17/2
f 43/19/2 31/7/2 42/18/2
f 27/20/4 29/21/4 44/22/4
f 45/23/4 44/22/4 29/21/4
f 46/24/4 44/22/4 45/23/4
f 47/25/4 46/24/4 45/23/4
f 48/26/4 47/25/4 45/23/4
f 49/27/4 48/26/4 45/23/4
f 50/28/4 49/27/4 45/23/4
f 51/29/4 50/28/4 45/23/4
f 52/30/4 51/29/4 45/23/4
f 53/31/4 52/30/4 45/23/4
f 54/32/4 53/31/4 45/23/4
f 55/33/4 54/32/4 45/23/4
f 56/34/4 55/33/4 45/23/4
f 32/35/5 1/36/5 44/37/5
f 15/38/5 44/37/5 1/36/5
f 16/39/5 44/37/5 15/38/5
f 1/36/5 32/35/5 2/40/5
f 32/35/5 28/41/5 2/40/5
f 27/42/5 2/40/5 28/41/5
f 16/39/5 2/40/5 27/42/5
f 44/37/5 16/39/5 27/42/5
f 30/43/6 31/44/6 29/45/6
f 45/46/6 29/45/6 31/44/6
s 1
f 43/47/7 56/48/8 31/44/9
f 45/46/10 31/44/9 56/48/8
f 56/48/8 43/47/7 55/49/11
f 42/50/12 55/49/11 43/47/7
f 41/51/13 54/52/14 42/53/12
f 55/54/11 42/53/12 54/52/14
f 40/55/15 53/56/16 41/57/13
f 54/58/14 41/57/13 53/56/16
f 39/59/17 52/60/18 40/61/15
f 53/62/16 40/61/15 52/60/18
f 38/63/19 51/64/20 39/65/17
f 52/66/18 39/65/17 51/64/20
f 38/67/19 37/68/21 51/69/20
f 50/70/22 51/69/20 37/68/21
f 37/71/21 36/72/23 50/73/22
f 49/74/24 50/73/22 36/72/23
f 36/75/23 35/76/25 49/77/24
f 48/78/26 49/77/24 35/76/25
f 35/79/25 34/80/27 48/81/26
f 47/82/28 48/81/26 34/80/27
f 34/83/27 33/84/29 47/85/28
f 46/86/30 47/85/28 33/84/29
f 33/87/29 32/88/31 46/89/30
f 44/90/32 46/89/30 32/88/31
usemtl metalMedium.001
s off
f 5/91/33 7/92/33 11/93/33
f 17/94/33 11/93/33 7/92/33
f 9/95/33 17/94/33 7/92/33
f 18/96/33 17/94/33 9/95/33
f 19/97/33 18/96/33 9/95/33
f 20/98/33 18/96/33 19/97/33
f 21/99/33 20/98/33 19/97/33
f 13/100/33 20/98/33 21/99/33
f 3/101/33 20/98/33 13/100/33
f 1/102/33 3/101/33 13/100/33
f 15/103/33 1/102/33 13/100/33
f 6/104/1 12/105/1 8/106/1
f 10/107/1 8/106/1 12/105/1
f 22/108/1 10/107/1 12/105/1
f 26/109/1 10/107/1 22/108/1
f 25/110/1 26/109/1 22/108/1
f 24/111/1 26/109/1 25/110/1
f 23/112/1 24/111/1 25/110/1
f 14/113/1 24/111/1 23/112/1
f 4/114/1 14/113/1 23/112/1
f 16/115/1 14/113/1 4/114/1
f 2/116/1 16/115/1 4/114/1
s 1
f 1/117/34 2/118/35 3/119/36
f 4/120/37 3/119/36 2/118/35
f 5/121/38 6/122/39 7/123/40
f 8/124/41 7/123/40 6/122/39
f 7/125/40 8/126/41 9/127/42
f 10/128/43 9/127/42 8/126/41
f 11/129/44 12/130/45 5/131/38
f 6/132/39 5/131/38 12/130/45
f 13/133/46 14/134/47 15/135/48
f 16/136/49 15/135/48 14/134/47
f 17/137/50 22/138/51 11/139/44
f 12/140/45 11/139/44 22/138/51
f 3/141/36 4/142/37 20/143/52
f 23/144/53 20/143/52 4/142/37
f 21/145/54 24/146/55 13/147/46
f 14/148/47 13/147/46 24/146/55
f 20/149/52 23/150/53 18/151/56
f 25/152/57 18/151/56 23/150/53
f 18/153/56 25/154/57 17/155/50
f 22/156/51 17/155/50 25/154/57
f 9/157/42 10/158/43 19/159/58
f 26/160/59 19/159/58 10/158/43
f 19/161/58 26/162/59 21/163/54
f 24/164/55 21/163/54 26/162/59
