# Blender v2.78 (sub 0) OBJ File: ''
# www.blender.org
mtllib fridge_collision.mtl
o fridge1.001_ID5.008_fridge1.001_ID5.015
v 0.959468 0.719526 -0.164232
v -0.439468 0.719526 -0.164232
v 0.959468 0.719526 -0.115912
v 0.959468 -0.180474 -0.115912
v -0.439468 -0.180474 -0.115912
v -0.439468 0.719526 -0.115912
v -0.439468 -0.180474 -0.164232
v 0.959468 -0.180474 -0.164232
vt 19.4156 27.1646
vt 1.0569 27.1646
vt 19.4156 28.2214
vt 19.4156 12.2047
vt 19.4156 0.3937
vt 1.0569 12.2047
vt 1.0569 0.3937
vt 1.0569 28.2214
vt -1.0569 12.2047
vt -1.0569 0.3937
vt -19.4156 12.2047
vt -19.4156 0.3937
vn 0.0000 1.0000 0.0000
vn 0.0000 -0.0000 1.0000
vn 0.0000 0.0000 -1.0000
vn -1.0000 0.0000 0.0000
vn 0.0000 -1.0000 0.0000
vn 1.0000 -0.0000 0.0000
usemtl metalLight.004
s 1
f 1/1/1 2/2/1 3/3/1
f 4/4/2 3/5/2 5/6/2
f 6/7/2 5/6/2 3/5/2
f 6/8/1 3/3/1 2/2/1
f 7/9/3 2/10/3 8/11/3
f 1/12/3 8/11/3 2/10/3
f 7/9/4 5/6/4 6/7/4 2/2/4
f 8/11/5 4/4/5 5/6/5 7/9/5
f 4/4/6 8/11/6 1/12/6 3/3/6
o fridge1.001_ID5.007_fridge1.001_ID5.014
v 0.155254 0.763000 -0.493031
v 0.155254 0.762999 0.973690
v 0.155254 -0.267378 -0.493031
v 0.155254 -0.267378 0.973690
v 0.076544 0.763000 -0.493031
v 0.076544 -0.267378 -0.493031
v 0.076544 0.762999 0.973690
v 0.076544 -0.267378 0.973690
vt 1.0569 -0.7874
vt 19.4156 -0.7874
vt 1.0569 13.4620
vt 19.4156 13.4620
vt 1.0569 -0.7874
vt 1.0569 13.4620
vt 19.4156 -0.7874
vt 19.4156 13.4620
vn 1.0000 0.0000 0.0000
vn -1.0000 -0.0000 0.0000
vn 0.0000 -0.0000 1.0000
vn 0.0000 -0.0000 -1.0000
vn 0.0000 -1.0000 -0.0000
vn 0.0000 1.0000 0.0000
usemtl metalLight.004
s 1
f 9/13/7 10/14/7 11/15/7
f 12/16/7 11/15/7 10/14/7
f 13/17/8 14/18/8 15/19/8
f 16/20/8 15/19/8 14/18/8
f 12/16/9 10/14/9 15/19/9 16/20/9
f 9/13/10 11/15/10 14/18/10 13/17/10
f 11/15/11 12/16/11 16/20/11 14/18/11
f 10/14/12 9/13/12 13/17/12 15/19/12
o fridge1.001_ID5.006_fridge1.001_ID5.013
v 0.982022 0.807692 0.976692
v -0.462023 0.807692 0.976692
v 0.982022 0.807692 1.005455
v 0.982022 -0.268640 1.005456
v -0.462023 -0.268640 1.005456
v -0.462023 0.807692 1.005455
v -0.462023 -0.268639 0.976692
v 0.982022 -0.268640 0.976692
vt 19.4156 27.1646
vt 1.0569 27.1646
vt 19.4156 28.2214
vt 19.4156 12.2047
vt 19.4156 0.3937
vt 1.0569 12.2047
vt 1.0569 0.3937
vt 1.0569 28.2214
vt -1.0569 12.2047
vt -1.0569 0.3937
vt -19.4156 12.2047
vt -19.4156 0.3937
vn 0.0000 1.0000 0.0000
vn 0.0000 0.0000 1.0000
vn 0.0000 -0.0000 -1.0000
vn -1.0000 0.0000 0.0000
vn -0.0000 -1.0000 -0.0000
vn 1.0000 0.0000 0.0000
usemtl metalLight.004
s 1
f 17/21/13 18/22/13 19/23/13
f 20/24/14 19/25/14 21/26/14
f 22/27/14 21/26/14 19/25/14
f 22/28/13 19/23/13 18/22/13
f 23/29/15 18/30/15 24/31/15
f 17/32/15 24/31/15 18/30/15
f 23/29/16 21/26/16 22/27/16 18/22/16
f 24/31/17 20/24/17 21/26/17 23/29/17
f 20/24/18 24/31/18 17/32/18 19/23/18
o fridge1.001_ID5.005_fridge1.001_ID5.012
v 1.034820 0.807693 -0.630818
v -0.514820 0.807693 -0.630818
v 1.034820 0.807693 -0.461898
v 1.034820 -0.268640 -0.461898
v -0.514820 -0.268640 -0.461898
v -0.514820 0.807693 -0.461898
v -0.514820 -0.268639 -0.630819
v 1.034820 -0.268640 -0.630818
vt 19.4156 27.1646
vt 1.0569 27.1646
vt 19.4156 28.2214
vt 19.4156 12.2047
vt 19.4156 0.3937
vt 1.0569 12.2047
vt 1.0569 0.3937
vt 1.0569 28.2214
vt -1.0569 12.2047
vt -1.0569 0.3937
vt -19.4156 12.2047
vt -19.4156 0.3937
vn 0.0000 1.0000 0.0000
vn 0.0000 0.0000 1.0000
vn 0.0000 0.0000 -1.0000
vn -1.0000 0.0000 0.0000
vn -0.0000 -1.0000 -0.0000
vn 1.0000 0.0000 0.0000
usemtl metalLight.004
s 1
f 25/33/19 26/34/19 27/35/19
f 28/36/20 27/37/20 29/38/20
f 30/39/20 29/38/20 27/37/20
f 30/40/19 27/35/19 26/34/19
f 31/41/21 26/42/21 32/43/21
f 25/44/21 32/43/21 26/42/21
f 31/41/22 29/38/22 30/39/22 26/34/22
f 32/43/23 28/36/23 29/38/23 31/41/23
f 28/36/24 32/43/24 25/44/24 27/35/24
o fridge1.001_ID5.004_fridge1.001_ID5.011
v -0.441775 -0.225820 -0.484456
v -0.530495 -0.225820 -0.484456
v -0.530495 0.813184 -0.484456
v -0.441775 0.813184 -0.484456
v -0.530495 0.813183 0.972928
v -0.441775 -0.225820 0.972928
v -0.530495 -0.225820 0.972928
v -0.441775 0.813183 0.972928
vt 19.4156 12.2047
vt -19.4156 12.2047
vt -19.4156 0.3937
vt 19.4156 28.2214
vt 19.4156 27.1646
vt 1.0569 27.1646
vt 19.4156 0.3937
vt 1.0569 12.2047
vt -1.0569 12.2047
vt -1.0569 0.3937
vt 1.0569 28.2214
vt 1.0569 0.3937
vn 0.0000 0.0000 -1.0000
vn 0.0000 1.0000 0.0000
vn 1.0000 0.0000 0.0000
vn -1.0000 0.0000 0.0000
vn 0.0000 -0.0000 1.0000
vn 0.0000 -1.0000 0.0000
usemtl metalLight.004
s 1
f 33/45/25 34/46/25 35/47/25 36/48/25
f 35/49/26 37/50/26 36/48/26
f 33/45/27 36/51/27 38/52/27
f 39/53/28 37/54/28 34/46/28
f 35/47/28 34/46/28 37/54/28
f 40/55/26 36/48/26 37/50/26
f 39/53/29 38/52/29 40/56/29 37/50/29
f 34/46/30 33/45/30 38/52/30 39/53/30
f 40/56/27 38/52/27 36/51/27
o fridge1.001_ID5.003_fridge1.001_ID5.010
v 0.958577 0.813184 -0.484456
v 0.958577 0.813183 0.972928
v 1.047297 0.813184 -0.484456
v 1.047297 -0.225820 -0.484456
v 1.047297 -0.225820 0.972928
v 1.047297 0.813183 0.972928
v 0.958577 -0.225820 0.972928
v 0.958577 -0.225820 -0.484456
vt 19.4156 27.1646
vt 1.0569 27.1646
vt 19.4156 28.2214
vt 19.4156 12.2047
vt 19.4156 0.3937
vt 1.0569 12.2047
vt 1.0569 0.3937
vt 1.0569 28.2214
vt -1.0569 12.2047
vt -1.0569 0.3937
vt -19.4156 12.2047
vt -19.4156 0.3937
vn 0.0000 1.0000 0.0000
vn 1.0000 0.0000 0.0000
vn -1.0000 0.0000 0.0000
vn 0.0000 -0.0000 1.0000
vn 0.0000 -1.0000 0.0000
vn 0.0000 0.0000 -1.0000
usemtl metalLight.004
s 1
f 41/57/31 42/58/31 43/59/31
f 44/60/32 43/61/32 45/62/32
f 46/63/32 45/62/32 43/61/32
f 46/64/31 43/59/31 42/58/31
f 47/65/33 42/66/33 48/67/33
f 41/68/33 48/67/33 42/66/33
f 47/65/34 45/62/34 46/63/34 42/58/34
f 48/67/35 44/60/35 45/62/35 47/65/35
f 44/60/36 48/67/36 41/68/36 43/59/36
o fridge1.001_ID5.002_fridge1.001_ID5.009
v 0.982022 -0.182230 0.981857
v -0.462023 -0.182230 0.981858
v 0.982022 -0.266165 0.981857
v 0.982022 -0.266164 -0.618940
v -0.462023 -0.266164 -0.618940
v -0.462023 -0.266164 0.981858
v -0.462023 -0.182229 -0.618940
v 0.982022 -0.182230 -0.618940
vt 19.4156 27.1646
vt 1.0569 27.1646
vt 19.4156 28.2214
vt 19.4156 12.2047
vt 19.4156 0.3937
vt 1.0569 12.2047
vt 1.0569 0.3937
vt 1.0569 28.2214
vt -1.0569 12.2047
vt -1.0569 0.3937
vt -19.4156 12.2047
vt -19.4156 0.3937
vn 0.0000 0.0000 1.0000
vn 0.0000 -1.0000 -0.0000
vn 0.0000 1.0000 0.0000
vn -1.0000 0.0000 0.0000
vn 0.0000 0.0000 -1.0000
vn 1.0000 0.0000 0.0000
usemtl metalLight.004
s 1
f 49/69/37 50/70/37 51/71/37
f 52/72/38 51/73/38 53/74/38
f 54/75/38 53/74/38 51/73/38
f 54/76/37 51/71/37 50/70/37
f 55/77/39 50/78/39 56/79/39
f 49/80/39 56/79/39 50/78/39
f 55/77/40 53/74/40 54/75/40 50/70/40
f 56/79/41 52/72/41 53/74/41 55/77/41
f 52/72/42 56/79/42 49/80/42 51/71/42
o fridge1.001_ID5.001_fridge1.001_ID5.008
v 0.959468 0.719527 0.213091
v -0.439468 0.719527 0.213091
v 0.959468 0.719526 0.261411
v 0.959468 -0.180474 0.261411
v -0.439468 -0.180474 0.261411
v -0.439468 0.719526 0.261411
v -0.439468 -0.180474 0.213091
v 0.959468 -0.180474 0.213091
vt 19.4156 27.1646
vt 1.0569 27.1646
vt 19.4156 28.2214
vt 19.4156 12.2047
vt 19.4156 0.3937
vt 1.0569 12.2047
vt 1.0569 0.3937
vt 1.0569 28.2214
vt -1.0569 12.2047
vt -1.0569 0.3937
vt -19.4156 12.2047
vt -19.4156 0.3937
vn 0.0000 1.0000 0.0000
vn 0.0000 -0.0000 1.0000
vn 0.0000 0.0000 -1.0000
vn -1.0000 0.0000 0.0000
vn 0.0000 -1.0000 0.0000
vn 1.0000 0.0000 0.0000
usemtl metalLight.004
s 1
f 57/81/43 58/82/43 59/83/43
f 60/84/44 59/85/44 61/86/44
f 62/87/44 61/86/44 59/85/44
f 62/88/43 59/83/43 58/82/43
f 63/89/45 58/90/45 64/91/45
f 57/92/45 64/91/45 58/90/45
f 63/89/46 61/86/46 62/87/46 58/82/46
f 64/91/47 60/84/47 61/86/47 63/89/47
f 60/84/48 64/91/48 57/92/48 59/83/48
o fridge1.001_ID5.000
v 0.959468 0.719526 0.609583
v -0.439468 0.719526 0.609583
v 0.959468 0.719526 0.657902
v 0.959468 -0.180474 0.657902
v -0.439468 -0.180474 0.657902
v -0.439468 0.719526 0.657902
v -0.439468 -0.180474 0.609583
v 0.959468 -0.180474 0.609583
vt 19.4156 27.1646
vt 1.0569 27.1646
vt 19.4156 28.2214
vt 19.4156 12.2047
vt 19.4156 0.3937
vt 1.0569 12.2047
vt 1.0569 0.3937
vt 1.0569 28.2214
vt -1.0569 12.2047
vt -1.0569 0.3937
vt -19.4156 12.2047
vt -19.4156 0.3937
vn 0.0000 1.0000 0.0000
vn 0.0000 0.0000 1.0000
vn 0.0000 0.0000 -1.0000
vn -1.0000 0.0000 0.0000
vn 0.0000 -1.0000 0.0000
vn 1.0000 0.0000 0.0000
usemtl metalLight.004
s 1
f 65/93/49 66/94/49 67/95/49
f 68/96/50 67/97/50 69/98/50
f 70/99/50 69/98/50 67/97/50
f 70/100/49 67/95/49 66/94/49
f 71/101/51 66/102/51 72/103/51
f 65/104/51 72/103/51 66/102/51
f 71/101/52 69/98/52 70/99/52 66/94/52
f 72/103/53 68/96/53 69/98/53 71/101/53
f 68/96/54 72/103/54 65/104/54 67/95/54
