# Blender 3.4.1
# www.blender.org
mtllib Sift.mtl
o pot.002
v 0.066486 -0.021133 -0.012069
v 0.066486 -0.021133 0.037370
v 0.082181 0.027172 -0.012069
v 0.082181 0.027172 0.037370
v -0.013303 -0.013771 -0.044630
v -0.034828 0.001868 -0.044630
v -0.043050 0.027172 -0.044630
v -0.066486 0.075477 -0.012069
v -0.025395 0.105331 -0.012069
v -0.066486 0.075477 0.037370
v -0.025395 0.105331 0.037370
v 0.025395 0.105331 -0.012069
v 0.025395 0.105331 0.037370
v 0.066486 0.075477 -0.012069
v 0.066486 0.075477 0.037370
v 0.013303 -0.013771 -0.044630
v -0.034828 0.052476 -0.044630
v -0.013303 0.068115 -0.044630
v 0.034828 0.001868 -0.044630
v 0.043050 0.027172 -0.044630
v 0.025395 -0.050987 -0.012069
v 0.025395 -0.050987 0.037370
v -0.082181 0.027172 0.037370
v -0.082181 0.027172 -0.012069
v 0.034828 0.052476 -0.044630
v -0.025395 -0.050987 -0.012069
v -0.014385 -0.170828 0.033270
v 0.014385 -0.170828 0.033270
v 0.014385 -0.050987 0.033270
v -0.014385 -0.050987 0.033270
v -0.014385 -0.170828 0.023484
v 0.014385 -0.170828 0.023484
v -0.025395 -0.050987 0.037370
v 0.014385 -0.050987 0.023484
v -0.014385 -0.050987 0.023484
v 0.013303 0.068115 -0.044630
v -0.066486 -0.021133 -0.012069
v -0.066486 -0.021133 0.037370
v 0.057838 -0.014850 0.033270
v 0.071492 0.027172 0.033270
v 0.022092 0.095165 0.033270
v 0.057838 0.069194 0.033270
v -0.071492 0.027172 0.033270
v -0.057838 0.069194 0.033270
v -0.057838 -0.014850 0.033270
v -0.022092 -0.040820 0.033270
v -0.022092 0.095165 0.033270
v 0.022092 -0.040820 0.033270
v -0.009274 -0.185770 0.025223
v -0.009274 -0.185770 0.031532
v 0.009274 -0.185770 0.025223
v 0.009274 -0.185770 0.031532
v 0.057838 -0.014850 -0.010014
v 0.071492 0.027172 -0.010014
v 0.022092 0.095165 -0.010014
v 0.057838 0.069194 -0.010014
v -0.071492 0.027172 -0.010014
v -0.057838 0.069194 -0.010014
v -0.057838 -0.014850 -0.010014
v -0.022092 -0.040820 -0.010014
v -0.022092 0.095165 -0.010014
v 0.022092 -0.040820 -0.010014
v 0.031204 0.004502 -0.037980
v 0.038569 0.027172 -0.037980
v 0.011919 0.063854 -0.037980
v 0.031204 0.049843 -0.037980
v -0.038569 0.027172 -0.037980
v -0.031204 0.049843 -0.037980
v -0.031204 0.004502 -0.037980
v -0.011919 -0.009509 -0.037980
v -0.011919 0.063854 -0.037980
v 0.011919 -0.009509 -0.037980
vn 0.9511 -0.3090 -0.0000
vn -0.5878 0.8090 -0.0000
vn -0.0000 1.0000 -0.0000
vn 0.9511 0.3090 -0.0000
vn 0.5878 0.8090 -0.0000
vn 0.5878 -0.8090 -0.0000
vn -0.9511 0.3090 -0.0000
vn -0.0000 -0.0000 -1.0000
vn -0.0000 -1.0000 -0.0000
vn 1.0000 -0.0000 -0.0000
vn -1.0000 -0.0000 -0.0000
vn -0.0000 -0.1156 0.9933
vn -0.0000 -0.0000 1.0000
vn -0.6262 0.2035 -0.7526
vn -0.3870 0.5327 -0.7526
vn -0.0000 0.6585 -0.7526
vn 0.3870 0.5327 -0.7526
vn 0.6262 0.2035 -0.7526
vn -0.6262 -0.2035 -0.7526
vn -0.3870 -0.5327 -0.7526
vn -0.0000 -0.6585 -0.7526
vn 0.3870 -0.5327 -0.7526
vn 0.6262 -0.2035 -0.7526
vn -0.5878 -0.8090 -0.0000
vn -0.9511 -0.3090 -0.0000
vn -0.3557 0.1156 0.9274
vn -0.2198 -0.3026 0.9274
vn -0.2198 0.3026 0.9274
vn -0.0000 0.3740 0.9274
vn -0.3557 -0.1156 0.9274
vn 0.2198 0.3026 0.9274
vn -0.0000 -0.3740 0.9274
vn 0.3557 0.1156 0.9274
vn 0.3557 -0.1156 0.9274
vn 0.2198 -0.3026 0.9274
vn -0.0000 -0.6661 0.7458
vn -0.3915 0.5389 0.7458
vn 0.3915 0.5389 0.7458
vn 0.6335 -0.2058 0.7458
vn -0.6335 -0.2058 0.7458
vn -0.0000 0.6661 0.7458
vn 0.6335 0.2058 0.7458
vn -0.3915 -0.5389 0.7458
vn -0.6335 0.2058 0.7458
vn 0.3915 -0.5389 0.7458
vn -0.9462 -0.3237 -0.0000
vn 0.9462 -0.3237 -0.0000
vn -0.0000 -0.1156 -0.9933
vt -3.999273 1.291339
vt 3.999273 1.291339
vt -10.470230 -7.607069
vt -3.999273 14.204720
vt 3.999273 14.204720
vt 3.999273 16.728020
vt -3.999273 16.728020
vt 3.999273 1.291339
vt -3.999273 1.291339
vt -12.941920 0.000000
vt 3.999273 14.204720
vt -3.999273 14.204720
vt -3.999273 16.728020
vt 3.999273 16.728020
vt 3.479079 -10.707500
vt 0.000000 0.000000
vt 9.108347 -6.617601
vt 0.000000 0.000000
vt 11.258540 0.000000
vt 0.000000 0.000000
vt 3.999273 1.291339
vt -3.999273 1.291339
vt 10.470230 7.607069
vt -3.999273 1.291339
vt 3.999273 12.308500
vt 3.999273 14.204720
vt -3.999273 14.204720
vt 3.999273 16.728020
vt -3.999273 16.728020
vt -3.999273 14.204720
vt -3.999273 16.728020
vt 3.999273 16.728020
vt 3.999273 1.291339
vt -3.999273 12.308500
vt 3.999273 14.204720
vt -3.999273 16.728020
vt 3.999273 16.728020
vt 3.999273 1.291339
vt -3.999273 1.291339
vt -10.470230 7.607069
vt 3.999273 14.204720
vt -3.999273 14.204720
vt 3.999273 16.728020
vt -3.999273 16.728020
vt -3.479079 -10.707500
vt 0.000000 0.000000
vt 9.108347 6.617601
vt 0.000000 0.000000
vt 3.479079 10.707500
vt 0.000000 0.000000
vt -9.108347 -6.617601
vt 0.000000 0.000000
vt -11.258540 0.000000
vt 0.000000 0.000000
vt -3.999273 1.291339
vt -3.999273 -12.308500
vt 3.999273 14.204720
vt -3.999273 14.204720
vt 3.999273 16.728020
vt -3.999273 16.728020
vt 3.999273 14.204720
vt -3.999273 14.204720
vt 3.999273 16.728020
vt -3.999273 16.728020
vt 3.999273 1.291339
vt 12.941920 0.000000
vt -3.999273 1.291339
vt -9.108347 6.617601
vt 0.000000 0.000000
vt 3.999273 -12.308500
vt 3.999273 1.291339
vt -2.265469 13.559060
vt 2.265469 13.559060
vt 2.265469 13.559060
vt -2.265469 13.559060
vt -2.265469 12.017940
vt 2.265469 12.017940
vt 3.999273 14.204720
vt 3.999273 16.728020
vt -3.999273 16.728020
vt 2.265469 12.017940
vt -2.265469 12.017940
vt -3.479079 10.707500
vt 0.000000 0.000000
vt 10.470230 -7.607069
vt -3.999273 1.291339
vt 3.999273 1.291339
vt -3.999273 14.204720
vt 3.999273 14.204720
vt 3.999273 16.728020
vt -3.999273 16.728020
vt -3.479079 15.001740
vt 3.479079 15.001740
vt 3.479079 15.001740
vt -3.479079 15.001740
vt -3.479079 15.001740
vt 3.479079 15.001740
vt 3.479079 15.001740
vt -3.479079 15.001740
vt 3.479079 15.001740
vt -3.479079 15.001740
vt -3.479079 15.001740
vt 3.479079 15.001740
vt 3.479079 15.001740
vt -3.479079 15.001740
vt -3.479079 15.001740
vt 3.479079 15.001740
vt -3.479079 15.001740
vt 3.479079 15.001740
vt -3.479079 15.001740
vt 3.479079 15.001740
vt -2.265469 12.017940
vt -2.265469 13.559060
vt 2.265469 12.017940
vt 2.265469 13.559060
vt -3.479079 15.001740
vt 3.479079 15.001740
vt 3.479079 15.001740
vt -3.479079 15.001740
vt 3.479079 15.001740
vt -3.479079 15.001740
vt -3.479079 15.001740
vt 3.479079 15.001740
vt -3.479079 15.001740
vt 3.479079 15.001740
vt 3.479079 15.001740
vt -3.479079 15.001740
vt 3.479079 15.001740
vt -3.479079 15.001740
vt -3.479079 15.001740
vt 3.479079 15.001740
vt -3.479079 15.001740
vt 3.479079 15.001740
vt 3.479079 15.001740
vt -3.479079 15.001740
vt 3.479079 15.001740
vt -3.479079 15.001740
vt -3.479079 15.001740
vt 3.479079 15.001740
vt 3.479079 15.001740
vt -3.479079 15.001740
vt 3.479079 15.001740
vt -3.479079 15.001740
vt 3.479079 15.001740
vt -3.479079 15.001740
vt 3.479079 15.001740
vt -3.479079 15.001740
vt 3.479079 15.001740
vt -3.479079 15.001740
vt 3.479079 15.001740
vt -3.479079 15.001740
vt 3.479079 15.001740
vt -3.479079 15.001740
vt 3.479079 15.001740
vt -3.479079 15.001740
s 0
usemtl greyDark.003
f 3/8/1 2/4/1 1/1/1
f 2/4/1 3/8/1 4/11/1
f 10/26/2 9/24/2 8/21/2
f 9/24/2 10/26/2 11/30/2
f 11/31/3 13/37/3 12/33/3 9/25/3
f 14/38/4 4/12/4 3/9/4
f 4/12/4 14/38/4 15/41/4
f 13/35/5 14/39/5 12/33/5
f 14/39/5 13/35/5 15/42/5
f 2/5/6 21/55/6 1/2/6
f 21/55/6 2/5/6 22/58/6
f 10/27/7 24/65/7 23/61/7
f 24/65/7 10/27/7 8/22/7
f 35/82/8 34/81/8 32/77/8 31/76/8
f 49/112/9 51/114/9 52/115/9 50/113/9
f 34/81/10 29/74/10 28/73/10 32/77/10
f 35/82/9 26/71/9 34/81/9
f 29/74/9 22/57/9 30/75/9
f 33/79/9 35/82/9 30/75/9
f 30/75/11 35/82/11 31/76/11 27/72/11
f 34/81/9 22/57/9 29/74/9
f 22/58/9 34/81/9 21/55/9
f 35/82/9 33/79/9 26/71/9
f 21/55/9 34/81/9 26/71/9
f 30/75/9 22/60/9 33/79/9
f 28/73/12 27/72/12 50/113/12 52/115/12
f 29/74/13 30/75/13 27/72/13 28/73/13
f 8/23/14 7/19/14 24/66/14
f 7/19/14 8/23/14 17/47/14
f 17/47/15 8/23/15 9/25/15
f 17/47/15 9/25/15 18/49/15
f 18/49/16 9/25/16 12/34/16
f 18/49/16 12/34/16 36/83/16
f 36/83/17 12/34/17 25/68/17
f 25/68/17 12/34/17 14/40/17
f 25/68/18 14/40/18 20/53/18
f 20/53/18 14/40/18 3/10/18
f 7/19/19 37/85/19 24/66/19
f 37/85/19 7/19/19 6/17/19
f 37/85/20 6/17/20 26/70/20
f 26/70/20 6/17/20 5/15/20
f 26/70/21 5/15/21 21/56/21
f 21/56/21 5/15/21 16/45/21
f 21/56/22 16/45/22 19/51/22
f 21/56/22 19/51/22 1/3/22
f 1/3/23 19/51/23 20/53/23
f 1/3/23 20/53/23 3/10/23
f 33/78/24 37/86/24 26/71/24
f 37/86/24 33/78/24 38/88/24
f 23/62/25 37/87/25 38/89/25
f 37/87/25 23/62/25 24/67/25
f 2/6/26 40/95/26 39/93/26
f 40/95/26 2/6/26 4/13/26
f 42/98/27 13/36/27 41/96/27
f 13/36/27 42/98/27 15/43/27
f 22/59/28 39/92/28 48/111/28
f 39/92/28 22/59/28 2/7/28
f 22/60/29 46/107/29 33/79/29
f 46/107/29 22/60/29 48/110/29
f 40/94/30 15/44/30 42/99/30
f 15/44/30 40/94/30 4/14/30
f 33/80/31 45/104/31 38/90/31
f 45/104/31 33/80/31 46/106/31
f 47/108/32 13/37/32 11/31/32
f 13/37/32 47/108/32 41/97/32
f 38/91/33 43/100/33 23/63/33
f 43/100/33 38/91/33 45/105/33
f 43/101/34 10/28/34 23/64/34
f 10/28/34 43/101/34 44/103/34
f 44/102/35 11/32/35 10/29/35
f 11/32/35 44/102/35 47/109/35
f 19/52/8 16/46/8 5/16/8 6/18/8 7/20/8 17/48/8 18/50/8 36/84/8 25/69/8 20/54/8
f 45/104/5 46/106/5 60/130/5 59/128/5
f 42/98/24 41/96/24 55/121/24 56/123/24
f 40/94/25 42/99/25 56/122/25 54/118/25
f 46/107/3 48/110/3 62/135/3 60/131/3
f 43/100/4 45/105/4 59/129/4 57/125/4
f 41/97/9 47/108/9 61/132/9 55/120/9
f 48/111/2 39/92/2 53/116/2 62/134/2
f 47/109/6 44/102/6 58/127/6 61/133/6
f 39/93/7 40/95/7 54/119/7 53/117/7
f 44/103/1 43/101/1 57/124/1 58/126/1
f 55/120/36 61/132/36 71/153/36 65/140/36
f 62/134/37 53/116/37 63/137/37 72/154/37
f 59/128/38 60/130/38 70/151/38 69/148/38
f 58/126/39 57/124/39 67/145/39 68/146/39
f 54/118/40 56/122/40 66/143/40 64/139/40
f 60/131/41 62/135/41 72/155/41 70/150/41
f 57/125/42 59/129/42 69/149/42 67/144/42
f 56/123/43 55/121/43 65/141/43 66/142/43
f 53/117/44 54/119/44 64/138/44 63/136/44
f 61/133/45 58/127/45 68/147/45 71/152/45
f 64/139/13 66/143/13 65/141/13 71/153/13 68/147/13 67/145/13 69/149/13 70/151/13 72/155/13 63/137/13
f 27/72/46 31/76/46 49/112/46 50/113/46
f 32/77/47 28/73/47 52/115/47 51/114/47
f 31/76/48 32/77/48 51/114/48 49/112/48
