# Blender v2.78 (sub 0) OBJ File: ''
# www.blender.org
mtllib breadS1_visual.mtl
o loaf_ID7.005
v -0.175283 -0.098318 0.030750
v 0.175283 -0.098318 0.030750
v -0.175283 -0.109473 0.038335
v 0.175283 -0.109473 0.038335
v -0.175283 -0.109473 0.124293
v 0.175283 -0.109473 0.124293
v -0.175283 -0.063204 0.155755
v 0.175283 -0.063204 0.155755
v 0.153457 -0.063204 0.155755
v 0.151445 -0.066163 0.153743
v 0.149432 -0.063204 0.155755
v 0.175283 0.098317 -0.110048
v -0.175283 0.098317 -0.110048
v 0.175283 0.098317 0.030750
v -0.175283 0.098317 0.030750
v -0.175283 0.063204 0.155755
v -0.175283 0.000000 0.167272
v 0.148667 0.059004 0.156520
v 0.149432 0.063204 0.155755
v 0.175283 0.000000 0.167272
v 0.175283 0.063204 0.155755
v 0.154067 0.059856 0.156365
v 0.164974 0.000000 0.167272
v 0.175283 -0.098317 -0.110048
v -0.175283 -0.098317 -0.110048
v 0.175283 0.109472 0.038335
v -0.175283 0.109472 0.038335
v 0.175283 0.126408 0.081314
v -0.175283 0.126408 0.081314
v -0.175283 -0.070022 -0.138344
v -0.175283 0.070022 -0.138344
v 0.175283 -0.070022 -0.138344
v 0.175283 0.070022 -0.138344
v 0.148667 -0.059004 0.156520
v 0.154067 -0.059856 0.156365
v -0.175283 0.109472 0.124293
v 0.175283 0.109472 0.124293
v 0.151445 0.066163 0.153743
v 0.153457 0.063204 0.155755
v -0.175283 -0.070022 0.045726
v -0.175283 -0.070022 -0.110048
v -0.175283 -0.086346 0.056826
v -0.175283 -0.077346 -0.137380
v -0.175283 -0.084170 -0.134553
v -0.175283 -0.090030 -0.130056
v -0.175283 -0.095996 0.081314
v -0.175283 -0.094527 -0.124196
v -0.175283 -0.097354 -0.117372
v -0.175283 0.070022 -0.110048
v -0.175283 0.070022 0.045726
v -0.175283 0.077345 -0.137380
v -0.175283 0.084169 -0.134553
v -0.175283 0.086346 0.056826
v -0.175283 0.090030 -0.130056
v -0.175283 0.094527 -0.124196
v -0.175283 0.095996 0.081314
v -0.175283 0.097353 -0.117372
v -0.175283 0.086346 0.105801
v -0.175283 0.052243 0.128992
v -0.175283 0.000000 0.138511
v -0.175283 -0.052243 0.128992
v -0.175283 -0.086346 0.105801
v -0.175283 -0.126408 0.081314
v 0.175283 0.097353 -0.117372
v 0.175283 0.095996 0.081314
v 0.175283 0.086346 0.105801
v 0.175283 0.052243 0.128992
v 0.175283 0.000000 0.138511
v 0.175283 -0.052243 0.128992
v 0.175283 -0.086346 0.105801
v 0.175283 -0.095996 0.081314
v 0.175283 -0.097354 -0.117372
v 0.175283 -0.094527 -0.124196
v 0.175283 -0.090030 -0.130056
v 0.175283 -0.086346 0.056826
v 0.175283 -0.084170 -0.134553
v 0.175283 -0.077346 -0.137380
v 0.175283 -0.070022 0.045726
v 0.175283 -0.070022 -0.110048
v 0.175283 0.070022 -0.110048
v 0.175283 -0.126408 0.081314
v 0.175283 0.070022 0.045726
v 0.175283 0.077345 -0.137380
v 0.175283 0.084169 -0.134553
v 0.175283 0.086346 0.056826
v 0.175283 0.090030 -0.130056
v 0.175283 0.094527 -0.124196
v 0.137915 0.000000 0.167272
vt 11.4123 10.0505
vt -11.4123 10.0505
vt 11.4123 10.8192
vt -11.4123 10.8192
vt 11.4123 3.2569
vt -11.4123 3.2569
vt 11.4123 6.4451
vt -11.4123 6.4451
vt -10.1686 6.4451
vt -10.0540 6.2412
vt -9.9393 6.4451
vt 11.4123 1.6123
vt -11.4123 1.6123
vt 11.4123 9.6351
vt -11.4123 9.6351
vt -11.4123 -0.5391
vt -11.4123 3.1216
vt 9.8957 -0.2959
vt 9.9393 -0.5391
vt 11.4123 3.1216
vt 11.4123 -0.5391
vt 10.2034 -0.3452
vt 10.8249 3.1216
vt -11.4123 1.6123
vt -11.4123 9.6351
vt 11.4123 1.6123
vt 11.4123 9.6351
vt 11.4123 11.6532
vt -11.4123 11.6532
vt 11.4123 14.2854
vt -11.4123 14.2854
vt 11.4123 3.9899
vt 11.4123 -3.9899
vt -11.4123 3.9899
vt -11.4123 -3.9899
vt 11.4123 -0.5391
vt -9.9393 -0.5391
vt -9.8957 -0.2959
vt 11.4123 3.1216
vt -11.4123 3.1216
vt -10.8249 3.1216
vt -10.2034 -0.3452
vt -11.4123 -0.5391
vt -11.4123 3.2569
vt -11.4123 6.4451
vt 11.4123 3.2569
vt 11.4123 6.4451
vt 9.9393 6.4451
vt 10.0540 6.2412
vt 10.1686 6.4451
vt 11.4123 9.0042
vt -11.4123 9.0042
vt 11.4123 11.6364
vt -11.4123 11.6364
vt -3.9899 10.4884
vt -3.9899 1.6123
vt -4.9201 11.1210
vt -3.9899 0.0000
vt -4.4072 0.0549
vt -4.7961 0.2160
vt -5.1300 0.4722
vt -5.4699 12.5163
vt -5.3862 0.8061
vt -5.5473 1.1950
vt 3.9899 0.0000
vt 3.9899 1.6123
vt 3.9899 10.4884
vt 4.4072 0.0549
vt 4.7961 0.2160
vt 4.9201 11.1210
vt 5.1300 0.4722
vt 5.3862 0.8061
vt 5.4699 12.5163
vt 5.5473 1.1950
vt 5.6022 1.6123
vt 5.6022 9.6351
vt 6.2378 10.0673
vt 6.2378 14.9652
vt 7.2028 12.5163
vt 4.9201 13.9116
vt 3.6014 16.7580
vt 2.9769 15.2330
vt 0.0000 17.4142
vt 0.0000 15.7754
vt -3.6014 16.7580
vt -2.9769 15.2330
vt -4.9201 13.9116
vt -6.2378 14.9652
vt -5.6022 9.6351
vt -6.2378 10.0673
vt -7.2028 12.5163
vt -5.6022 1.6123
vt -11.4123 10.0505
vt -11.4123 10.8192
vt 11.4123 10.0505
vt 11.4123 10.8192
vt -5.6022 1.6123
vt -5.6022 9.6351
vt -5.5473 1.1950
vt -5.4699 12.5163
vt -6.2378 14.9652
vt -6.2378 10.0673
vt -7.2028 12.5163
vt -4.9201 13.9116
vt -3.6014 16.7580
vt -2.9769 15.2330
vt 0.0000 17.4142
vt 0.0000 15.7754
vt 2.9769 15.2330
vt 3.6014 16.7580
vt 4.9201 13.9116
vt 6.2378 14.9652
vt 5.4699 12.5163
vt 5.6022 9.6351
vt 5.5473 1.1950
vt 5.3862 0.8061
vt 5.1300 0.4722
vt 4.9201 11.1210
vt 4.7961 0.2160
vt 4.4072 0.0549
vt 3.9899 10.4884
vt 3.9899 1.6123
vt 3.9899 0.0000
vt -3.9899 1.6123
vt -3.9899 0.0000
vt 5.6022 1.6123
vt 6.2378 10.0673
vt 7.2028 12.5163
vt -3.9899 10.4884
vt -4.4072 0.0549
vt -4.7961 0.2160
vt -4.9201 11.1210
vt -5.1300 0.4722
vt -5.3862 0.8061
vt -11.4123 9.0042
vt -11.4123 11.6364
vt 11.4123 9.0042
vt 11.4123 11.6364
vt -11.4123 11.6532
vt -11.4123 14.2854
vt 11.4123 11.6532
vt 11.4123 14.2854
vt 0.0000 0.0000
vt 0.0000 0.0000
vt 0.0000 0.0000
vt 0.0000 0.0000
vt 0.0000 0.0000
vt 0.0000 0.0000
vt 0.0000 0.0000
vt 10.1686 -0.5391
vt -10.1686 -0.5391
vt 0.0000 0.0000
vt 0.0000 0.0000
vt 0.0000 0.0000
vt 0.0000 0.0000
vt 0.0000 0.0000
vt 9.2831 3.1216
vt -9.2831 3.1216
vt -11.4123 4.5137
vt 11.4123 4.5137
vt -11.4123 4.0928
vt 11.4123 4.0928
vt -11.4123 3.9558
vt -11.4123 4.3767
vt 11.4123 3.9558
vt 11.4123 4.3767
vt 11.4123 3.9558
vt -11.4123 3.9558
vt 11.4123 4.3767
vt -11.4123 4.3767
vt 11.4123 4.5137
vt 11.4123 4.0928
vt -11.4123 4.5137
vt -11.4123 4.0928
vt 11.4123 3.9365
vt -11.4123 3.9365
vt 11.4123 4.3574
vt -11.4123 4.3574
vt -11.4123 3.4976
vt -11.4123 3.9185
vt 11.4123 3.4976
vt 11.4123 3.9185
vt -11.4123 2.8060
vt -11.4123 3.2269
vt 11.4123 2.8060
vt 11.4123 3.2269
vt -11.4123 1.9088
vt -11.4123 2.3297
vt 11.4123 1.9088
vt 11.4123 2.3297
vt 11.4123 2.8060
vt -11.4123 2.8060
vt 11.4123 3.2269
vt -11.4123 3.2269
vt 11.4123 3.4976
vt -11.4123 3.4976
vt 11.4123 3.9185
vt -11.4123 3.9185
vt 11.4123 1.9088
vt -11.4123 1.9088
vt 11.4123 2.3297
vt -11.4123 2.3297
vt -11.4123 3.9365
vt -11.4123 4.3574
vt 11.4123 3.9365
vt 11.4123 4.3574
vn 0.0000 -0.5623 -0.8269
vn 0.0000 -0.5623 0.8269
vn 0.0000 1.0000 0.0000
vn 0.0000 0.1793 0.9838
vn 0.0000 -1.0000 -0.0000
vn 0.0000 0.9304 -0.3666
vn 0.0000 0.0000 -1.0000
vn 0.0000 -0.1793 0.9838
vn 0.0000 0.5623 0.8269
vn 0.0000 0.9304 0.3666
vn -1.0000 0.0000 0.0000
vn 0.0000 0.0000 0.0000
vn 0.0000 0.5623 -0.8269
vn 1.0000 -0.0000 0.0000
vn -0.2706 0.9239 0.2706
vn 0.0000 0.9239 0.3827
vn 0.0000 0.9239 -0.3827
vn 0.0000 -0.9304 0.3666
vn 0.0000 -0.9304 -0.3666
vn -0.7071 0.0000 0.7071
vn 0.7071 -0.0000 0.7072
vn -0.6789 0.3670 -0.6359
vn 0.6789 0.3671 -0.6358
vn -0.6789 0.1900 -0.7092
vn 0.6789 0.1899 -0.7092
vn -0.6927 0.0472 -0.7197
vn 0.6927 0.0472 -0.7197
vn -0.6927 -0.0472 -0.7197
vn 0.6927 -0.0472 -0.7197
vn -0.6790 -0.1900 -0.7092
vn 0.6789 -0.1900 -0.7092
vn -0.6789 -0.3672 -0.6359
vn 0.6789 -0.3670 -0.6359
vn -0.6790 -0.5192 -0.5191
vn 0.6789 -0.5189 -0.5194
vn 0.6789 -0.6358 -0.3672
vn -0.6789 -0.6358 -0.3672
vn 0.6789 -0.7091 -0.1901
vn -0.6789 -0.7092 -0.1899
vn 0.6927 -0.7197 -0.0472
vn -0.6927 -0.7197 -0.0472
vn 0.6789 0.6357 -0.3673
vn -0.6789 0.6359 -0.3671
vn 0.6789 0.7092 -0.1900
vn -0.6790 0.7092 -0.1898
vn 0.6789 0.5192 -0.5192
vn -0.6789 0.5192 -0.5191
vn 0.6927 0.7197 -0.0472
vn -0.6927 0.7197 -0.0472
usemtl brown.006
s off
f 1/1/1 2/2/1 3/3/1
f 4/4/1 3/3/1 2/2/1
f 5/5/2 6/6/2 7/7/2
f 8/8/2 9/9/2 10/10/2 11/11/2 7/7/2 6/6/2
f 12/12/3 13/13/3 14/14/3
f 15/15/3 14/14/3 13/13/3
f 16/16/4 17/17/4 18/18/4 19/19/4
f 20/20/4 21/21/4 22/22/4 23/23/4
f 24/24/5 2/25/5 25/26/5
f 1/27/5 25/26/5 2/25/5
f 26/28/6 27/29/6 28/30/6
f 29/31/6 28/30/6 27/29/6
f 30/32/7 31/33/7 32/34/7
f 33/35/7 32/34/7 31/33/7
f 7/36/8 11/37/8 34/38/8 17/39/8
f 20/40/8 23/41/8 35/42/8 8/43/8
f 36/44/9 16/45/9 37/46/9
f 21/47/9 37/46/9 16/45/9 19/48/9 38/49/9 39/50/9
f 28/51/10 29/52/10 37/53/10
f 36/54/10 37/53/10 29/52/10
f 40/55/11 41/56/11 42/57/11
f 30/58/11 42/57/11 41/56/11
f 43/59/11 42/57/11 30/58/11
f 44/60/11 42/57/11 43/59/11
f 45/61/11 42/57/11 44/60/11
f 46/62/11 42/57/11 45/61/11
f 47/63/11 46/62/11 45/61/11
f 48/64/11 46/62/11 47/63/11
f 30/58/11 41/56/11 31/65/11
f 41/56/11 49/66/11 31/65/11
f 49/66/12 50/67/12 31/65/12
f 31/65/11 50/67/11 51/68/11
f 51/68/11 50/67/11 52/69/11
f 50/67/11 53/70/11 52/69/11
f 52/69/11 53/70/11 54/71/11
f 54/71/11 53/70/11 55/72/11
f 53/70/11 56/73/11 55/72/11
f 57/74/11 55/72/11 56/73/11
f 57/74/11 56/73/11 13/75/11
f 13/75/11 56/73/11 15/76/11
f 15/76/11 56/73/11 27/77/11
f 56/73/11 36/78/11 27/77/11
f 29/79/11 27/77/11 36/78/11
f 58/80/11 36/78/11 56/73/11
f 16/81/11 36/78/11 58/80/11
f 59/82/11 16/81/11 58/80/11
f 17/83/11 16/81/11 59/82/11
f 60/84/11 17/83/11 59/82/11
f 7/85/11 17/83/11 60/84/11
f 61/86/11 7/85/11 60/84/11
f 62/87/11 7/85/11 61/86/11
f 5/88/11 7/85/11 62/87/11
f 46/62/11 5/88/11 62/87/11
f 1/89/11 5/88/11 46/62/11
f 48/64/11 1/89/11 46/62/11
f 3/90/11 5/88/11 1/89/11
f 63/91/11 5/88/11 3/90/11
f 1/89/11 48/64/11 25/92/11
f 15/93/13 27/94/13 14/95/13
f 26/96/13 14/95/13 27/94/13
f 12/97/14 14/98/14 64/99/14
f 64/99/14 14/98/14 65/100/14
f 65/100/14 14/98/14 37/101/14
f 14/98/14 26/102/14 37/101/14
f 28/103/14 37/101/14 26/102/14
f 66/104/14 65/100/14 37/101/14
f 21/105/14 66/104/14 37/101/14
f 67/106/14 66/104/14 21/105/14
f 20/107/14 67/106/14 21/105/14
f 68/108/14 67/106/14 20/107/14
f 69/109/14 68/108/14 20/107/14
f 8/110/14 69/109/14 20/107/14
f 70/111/14 69/109/14 8/110/14
f 6/112/14 70/111/14 8/110/14
f 71/113/14 70/111/14 6/112/14
f 2/114/14 71/113/14 6/112/14
f 72/115/14 71/113/14 2/114/14
f 72/115/14 73/116/14 71/113/14
f 73/116/14 74/117/14 71/113/14
f 71/113/14 74/117/14 75/118/14
f 74/117/14 76/119/14 75/118/14
f 76/119/14 77/120/14 75/118/14
f 75/118/14 77/120/14 78/121/14
f 78/121/14 77/120/14 79/122/14
f 77/120/14 32/123/14 79/122/14
f 79/122/14 32/123/14 80/124/14
f 33/125/14 80/124/14 32/123/14
f 24/126/14 72/115/14 2/114/14
f 4/127/14 2/114/14 6/112/14
f 81/128/14 4/127/14 6/112/14
f 80/124/15 33/125/16 82/129/17
f 33/125/14 83/130/14 82/129/14
f 83/130/14 84/131/14 82/129/14
f 82/129/14 84/131/14 85/132/14
f 84/131/14 86/133/14 85/132/14
f 86/133/14 87/134/14 85/132/14
f 85/132/14 87/134/14 65/100/14
f 64/99/14 65/100/14 87/134/14
f 81/135/18 6/136/18 63/137/18
f 5/138/18 63/137/18 6/136/18
f 4/139/19 81/140/19 3/141/19
f 63/142/19 3/141/19 81/140/19
f 38/143/20 10/144/20 9/145/20 35/146/20 23/147/20 22/148/20 39/149/20
f 39/150/4 22/22/4 21/21/4
f 35/42/8 9/151/8 8/43/8
f 10/144/21 38/143/21 19/152/21 18/153/21 88/154/21 34/155/21 11/156/21
f 88/157/4 18/18/4 17/17/4
f 34/38/8 88/158/8 17/39/8
s 1
f 52/159/22 84/160/23 51/161/24
f 83/162/25 51/161/24 84/160/23
f 31/163/26 51/164/24 33/165/27
f 83/166/25 33/165/27 51/164/24
f 30/167/28 32/168/29 43/169/30
f 77/170/31 43/169/30 32/168/29
f 44/171/32 43/172/30 76/173/33
f 77/174/31 76/173/33 43/172/30
f 44/175/32 76/176/33 45/177/34
f 74/178/35 45/177/34 76/176/33
f 74/179/35 73/180/36 45/181/34
f 47/182/37 45/181/34 73/180/36
f 73/183/36 72/184/38 47/185/37
f 48/186/39 47/185/37 72/184/38
f 72/187/38 24/188/40 48/189/39
f 25/190/41 48/189/39 24/188/40
f 87/191/42 55/192/43 64/193/44
f 57/194/45 64/193/44 55/192/43
f 86/195/46 54/196/47 87/197/42
f 55/198/43 87/197/42 54/196/47
f 64/199/44 57/200/45 12/201/48
f 13/202/49 12/201/48 57/200/45
f 52/203/22 54/204/47 84/205/23
f 86/206/46 84/205/23 54/204/47
usemtl brownLight.006
s off
f 61/86/11 40/55/11 62/87/11
f 42/57/11 62/87/11 40/55/11
f 46/62/11 62/87/11 42/57/11
f 40/55/11 61/86/11 41/56/11
f 61/86/11 60/84/11 41/56/11
f 60/84/11 59/82/11 41/56/11
f 41/56/11 59/82/11 49/66/11
f 49/66/11 59/82/11 50/67/11
f 50/67/11 59/82/11 53/70/11
f 59/82/11 58/80/11 53/70/11
f 56/73/11 53/70/11 58/80/11
f 80/124/14 82/129/14 79/122/14
f 67/106/14 79/122/14 82/129/14
f 68/108/14 79/122/14 67/106/14
f 69/109/14 79/122/14 68/108/14
f 78/121/14 79/122/14 69/109/14
f 70/111/14 78/121/14 69/109/14
f 75/118/14 78/121/14 70/111/14
f 71/113/14 75/118/14 70/111/14
f 67/106/14 82/129/14 66/104/14
f 82/129/14 85/132/14 66/104/14
f 65/100/14 66/104/14 85/132/14
