# Blender v2.78 (sub 0) OBJ File: 'abe_simkitchen_default.blend'
# www.blender.org
mtllib bread_slice_fn_cutting_radar.mtl
o bread.001_ID7.027
v -0.216270 0.000000 -0.015318
v -0.203422 0.070513 -0.015318
v -0.203422 -0.070513 -0.015318
v -0.168322 -0.122132 -0.015318
v -0.120373 -0.141025 -0.015318
v 0.093119 -0.109686 -0.015318
v 0.101289 -0.108611 -0.015318
v 0.093119 0.109686 -0.015318
v 0.101289 0.108611 -0.015318
v 0.108901 -0.105458 -0.015318
v 0.108901 0.105458 -0.015318
v 0.115440 -0.100441 -0.015318
v 0.115440 0.100441 -0.015318
v 0.120456 -0.093903 -0.015318
v 0.120456 0.093903 -0.015318
v 0.123610 -0.086289 -0.015318
v 0.123610 0.086289 -0.015318
v 0.124685 -0.078119 -0.015318
v 0.124685 0.078119 -0.015318
v -0.120373 0.141025 -0.015318
v -0.168322 0.122132 -0.015318
v -0.216270 0.000000 0.015318
v -0.203422 -0.070513 0.015318
v -0.168322 -0.122132 0.015318
v -0.120373 -0.141025 0.015318
v 0.124685 0.078119 0.015318
v 0.124685 -0.078119 0.015318
v 0.093119 -0.109686 0.015318
v -0.120373 0.141025 0.015318
v 0.123610 -0.086289 0.015318
v 0.120456 -0.093903 0.015318
v 0.115440 -0.100441 0.015318
v -0.168322 0.122132 0.015318
v -0.203422 0.070513 0.015318
v 0.093119 0.109686 0.015318
v 0.101289 0.108611 0.015318
v 0.101289 -0.108611 0.015318
v 0.108901 0.105458 0.015318
v 0.108901 -0.105458 0.015318
v 0.115440 0.100441 0.015318
v 0.120456 0.093903 0.015318
v 0.123610 0.086289 0.015318
vt 8.7071 0.0000
vt 8.0509 -3.6014
vt 8.0509 3.6014
vt 6.2581 6.2378
vt -7.5121 -5.5473
vt -7.5121 5.5473
vt -7.0948 -5.6022
vt -7.9010 5.3862
vt -7.9010 -5.3862
vt -8.2349 5.1300
vt -8.2349 -5.1300
vt -8.4911 4.7961
vt -8.4911 -4.7961
vt -8.6522 4.4072
vt -8.6522 -4.4072
vt -8.7071 3.9899
vt -8.7071 -3.9899
vt 1.6392 0.0000
vt -0.9033 0.0000
vt 0.0000 0.0000
vt 6.3029 0.0000
vt 1.5608 1.5647
vt 1.5608 0.0000
vt -2.0999 1.5647
vt -2.0999 0.0000
vt 3.5356 0.0000
vt 0.9033 0.0000
vt 3.5356 1.5647
vt 0.9033 1.5647
vt -3.9899 0.0000
vt -3.9899 1.5647
vt 3.9899 0.0000
vt 3.9899 1.5647
vt 1.6392 1.5647
vt -1.5490 1.5647
vt -1.5490 0.0000
vt 2.0999 1.5647
vt 2.0999 0.0000
vt -1.5608 1.5647
vt -1.5608 0.0000
vt 1.5490 1.5647
vt 1.5490 0.0000
vt -1.6392 1.5647
vt -1.6392 0.0000
vt -0.9033 1.5647
vt 6.3029 1.5647
vt -6.3029 0.0000
vt -6.3029 1.5647
vt -6.2581 6.2378
vt -8.0509 -3.6014
vt -8.0509 3.6014
vt -8.7071 0.0000
vt 7.0948 -5.6022
vt -3.5356 1.5647
vt 7.5121 -5.5473
vt 7.0948 5.6022
vt 7.5121 5.5473
vt 7.9010 -5.3862
vt 7.9010 5.3862
vt 8.2349 -5.1300
vt 8.2349 5.1300
vt 8.4911 -4.7961
vt 8.4911 4.7961
vt 8.6522 4.4072
vt 8.6522 -4.4072
vt 8.7071 -3.9899
vt 8.7071 3.9899
vt -3.5356 0.0000
vt 2.8193 0.0000
vt 2.8193 1.5647
vt 3.2402 0.0000
vt 3.2402 1.5647
vt 0.7607 0.0000
vt 0.7607 1.5647
vt 1.1816 0.0000
vt 1.1816 1.5647
vt -1.3641 0.0000
vt -1.3641 1.5647
vt -0.9432 0.0000
vt -0.9432 1.5647
vt 4.8174 0.0000
vt 4.8174 1.5647
vt 5.2383 0.0000
vt 5.2383 1.5647
vt 0.9432 0.0000
vt 0.9432 1.5647
vt 1.3641 0.0000
vt 1.3641 1.5647
vt 6.7238 0.0000
vt 6.7238 1.5647
vt -1.1816 0.0000
vt -1.1816 1.5647
vt -0.7607 0.0000
vt -0.7607 1.5647
vt -2.9893 0.0000
vt -3.4102 0.0000
vt -2.9893 1.5647
vt -3.4102 1.5647
vt 2.9893 0.0000
vt 2.9893 1.5647
vt 3.4102 0.0000
vt 3.4102 1.5647
vt -4.8174 0.0000
vt -5.2383 0.0000
vt -4.8174 1.5647
vt -5.2383 1.5647
vt -3.2402 0.0000
vt -3.2402 1.5647
vt -2.8193 0.0000
vt -2.8193 1.5647
vt -6.7238 0.0000
vt -6.7238 1.5647
vn -0.0000 0.0000 -1.0000
vn -0.9838 -0.1792 0.0000
vn -0.3666 -0.9304 0.0000
vn 1.0000 0.0000 0.0000
vn -0.8269 0.5623 0.0000
vn -0.9838 0.1792 0.0000
vn -0.8269 -0.5623 0.0000
vn 0.1452 0.9894 0.0000
vn 0.1452 -0.9894 0.0000
vn 0.0000 -0.0000 1.0000
vn -0.3666 0.9304 0.0000
vn 0.7197 -0.0472 -0.6927
vn 0.7197 -0.0472 0.6927
vn 0.7092 -0.1900 -0.6789
vn 0.7092 -0.1900 0.6789
vn 0.6359 -0.3671 -0.6789
vn 0.6359 -0.3671 0.6789
vn 0.5192 -0.5192 -0.6789
vn 0.5192 -0.5192 0.6789
vn 0.1900 0.7092 -0.6789
vn 0.1900 0.7092 0.6789
vn 0.3671 0.6359 -0.6789
vn 0.3671 0.6359 0.6789
vn 0.5192 0.5192 -0.6789
vn 0.5192 0.5192 0.6789
vn 0.6359 0.3671 -0.6789
vn 0.6359 0.3671 0.6789
vn 0.0972 0.6987 -0.7088
vn 0.0972 0.6987 0.7088
vn 0.7092 0.1900 -0.6789
vn 0.7092 0.1900 0.6789
vn 0.3671 -0.6359 -0.6789
vn 0.3671 -0.6359 0.6789
vn 0.1896 -0.7076 -0.6807
vn 0.1900 -0.7092 0.6789
vn 0.7197 0.0472 -0.6927
vn 0.7197 0.0472 0.6927
vn 0.1379 -0.9904 0.0000
vn 0.0972 -0.6987 0.7088
usemtl brown.010
s off
f 1/1/1 2/2/1 3/3/1
f 4/4/1 3/3/1 2/2/1
f 9/5/1 7/6/1 8/7/1
f 10/8/1 7/6/1 9/5/1
f 11/9/1 10/8/1 9/5/1
f 12/10/1 10/8/1 11/9/1
f 13/11/1 12/10/1 11/9/1
f 14/12/1 12/10/1 13/11/1
f 15/13/1 14/12/1 13/11/1
f 16/14/1 14/12/1 15/13/1
f 17/15/1 16/14/1 15/13/1
f 18/16/1 16/14/1 17/15/1
f 19/17/1 18/16/1 17/15/1
f 4/4/1 21/18/1 20/19/1 5/20/1
f 5/20/1 20/19/1 8/21/1 7/6/1
f 21/18/1 4/4/1 2/2/1
f 22/22/2 1/23/2 23/24/2
f 3/25/2 23/24/2 1/23/2
f 4/26/3 5/27/3 24/28/3
f 25/29/3 24/28/3 5/27/3
f 19/30/4 26/31/4 18/32/4
f 27/33/4 18/32/4 26/31/4
f 33/34/5 21/18/5 34/35/5
f 2/36/5 34/35/5 21/18/5
f 34/37/6 2/38/6 22/39/6
f 1/40/6 22/39/6 2/38/6
f 23/41/7 3/42/7 24/43/7
f 4/44/7 24/43/7 3/42/7
f 8/21/8 20/19/8 29/45/8 35/46/8
f 6/47/9 28/48/9 25/29/9 5/27/9
f 24/49/10 34/50/10 23/51/10
f 22/52/10 23/51/10 34/50/10
f 25/29/10 28/48/10 35/53/10 29/45/10
f 25/29/10 29/45/10 33/54/10 24/49/10
f 34/50/10 24/49/10 33/34/10
f 36/55/10 35/53/10 28/56/10
f 37/57/10 36/55/10 28/56/10
f 38/58/10 36/55/10 37/57/10
f 39/59/10 38/58/10 37/57/10
f 40/60/10 38/58/10 39/59/10
f 32/61/10 40/60/10 39/59/10
f 41/62/10 40/60/10 32/61/10
f 31/63/10 41/62/10 32/61/10
f 30/64/10 41/62/10 31/63/10
f 42/65/10 41/62/10 30/64/10
f 26/66/10 42/65/10 30/64/10
f 27/67/10 26/66/10 30/64/10
f 21/68/11 33/54/11 20/19/11
f 29/45/11 20/19/11 33/54/11
s 1
f 18/69/12 27/70/13 16/71/14
f 30/72/15 16/71/14 27/70/13
f 16/73/14 30/74/15 14/75/16
f 31/76/17 14/75/16 30/74/15
f 14/77/16 31/78/17 12/79/18
f 32/80/19 12/79/18 31/78/17
f 9/81/20 36/82/21 11/83/22
f 38/84/23 11/83/22 36/82/21
f 13/85/24 40/86/25 15/87/26
f 41/88/27 15/87/26 40/86/25
f 8/21/28 35/46/29 9/89/20
f 36/90/21 9/89/20 35/46/29
f 15/91/26 41/92/27 17/93/30
f 42/94/31 17/93/30 41/92/27
f 10/95/32 12/96/18 39/97/33
f 32/98/19 39/97/33 12/96/18
f 11/99/22 38/100/23 13/101/24
f 40/102/25 13/101/24 38/100/23
f 7/103/34 10/104/32 37/105/35
f 39/106/33 37/105/35 10/104/32
f 17/107/30 42/108/31 19/109/36
f 26/110/37 19/109/36 42/108/31
f 6/47/38 7/111/34 28/48/39
f 37/112/35 28/48/39 7/111/34
