# Blender v2.78 (sub 0) OBJ File: 'abe_simkitchen_default.blend'
# www.blender.org
mtllib bread_collision.mtl
o loaf_ID7.002
v -0.200283 -0.052243 0.128992
v -0.200283 -0.070022 0.045726
v -0.200283 -0.086346 0.105801
v -0.200283 -0.086346 0.056826
v -0.200283 -0.095996 0.081314
v -0.200283 -0.070022 -0.110048
v -0.200283 0.000000 0.138511
v -0.200283 0.052243 0.128992
v -0.200283 0.070022 -0.110048
v -0.200283 0.070022 0.045726
v -0.200283 0.086346 0.056826
v -0.200283 0.086346 0.105801
v -0.200283 0.095996 0.081314
v 0.200283 0.070022 -0.110048
v 0.200283 0.070022 0.045726
v 0.200283 -0.070022 -0.110048
v 0.200283 0.052243 0.128992
v 0.200283 0.000000 0.138511
v 0.200283 -0.052243 0.128992
v 0.200283 -0.070022 0.045726
v 0.200283 -0.086346 0.105801
v 0.200283 -0.086346 0.056826
v 0.200283 -0.095996 0.081314
v 0.200283 0.086346 0.105801
v 0.200283 0.086346 0.056826
v 0.200283 0.095996 0.081314
v -0.200283 -0.109473 0.124293
v 0.200283 -0.109473 0.124293
v -0.200283 -0.063204 0.155755
v 0.200283 -0.063204 0.155755
v 0.200283 0.098317 -0.110048
v -0.200283 0.098317 -0.110048
v -0.200283 0.063204 0.155755
v -0.200283 0.000000 0.167272
v 0.200283 0.063204 0.155755
v 0.200283 0.000000 0.167272
v 0.200283 -0.098317 -0.110048
v -0.200283 -0.098317 -0.110048
v 0.200283 0.126408 0.081314
v -0.200283 0.126408 0.081314
v -0.200283 -0.070022 -0.138344
v -0.200283 0.070022 -0.138344
v 0.200283 -0.070022 -0.138344
v 0.200283 0.070022 -0.138344
v -0.200283 0.109472 0.124293
v 0.200283 0.109472 0.124293
v -0.200283 -0.077346 -0.137380
v -0.200283 -0.084170 -0.134553
v -0.200283 -0.090030 -0.130056
v -0.200283 -0.094527 -0.124196
v -0.200283 -0.097354 -0.117372
v -0.200283 0.077345 -0.137380
v -0.200283 0.084169 -0.134553
v -0.200283 0.090030 -0.130056
v -0.200283 0.094527 -0.124196
v -0.200283 0.097353 -0.117372
v -0.200283 -0.126408 0.081314
v 0.200283 0.097353 -0.117372
v 0.200283 -0.097354 -0.117372
v 0.200283 -0.094527 -0.124196
v 0.200283 -0.090030 -0.130056
v 0.200283 -0.084170 -0.134553
v 0.200283 -0.077346 -0.137380
v 0.200283 -0.126408 0.081314
v 0.200283 0.077345 -0.137380
v 0.200283 0.084169 -0.134553
v 0.200283 0.090030 -0.130056
v 0.200283 0.094527 -0.124196
vt 11.4123 3.2569
vt -11.4123 3.2569
vt 11.4123 6.4451
vt -11.4123 6.4451
vt -11.4123 -0.5391
vt -11.4123 3.1216
vt 11.4123 -0.5391
vt 11.4123 3.1216
vt -11.4123 9.0042
vt 11.4123 9.0042
vt 0.0000 0.0000
vt -11.4123 2.3297
vt 11.4123 3.9899
vt 11.4123 -3.9899
vt -11.4123 3.9899
vt -11.4123 -3.9899
vt 11.4123 -0.5391
vt -11.4123 -0.5391
vt 11.4123 3.1216
vt -11.4123 3.1216
vt -11.4123 3.2569
vt -11.4123 6.4451
vt 11.4123 3.2569
vt 11.4123 6.4451
vt 11.4123 11.6364
vt -11.4123 11.6364
vt -3.9899 10.4884
vt -3.9899 1.6123
vt -4.9201 11.1210
vt -3.9899 0.0000
vt -4.4072 0.0549
vt -4.7961 0.2160
vt -5.1300 0.4722
vt -5.4699 12.5163
vt -5.3862 0.8061
vt -5.5473 1.1950
vt 3.9899 0.0000
vt 3.9899 1.6123
vt 3.9899 10.4884
vt 4.4072 0.0549
vt 4.7961 0.2160
vt 4.9201 11.1210
vt 5.1300 0.4722
vt 5.3862 0.8061
vt 5.4699 12.5163
vt 5.5473 1.1950
vt 5.6022 1.6123
vt 4.9201 13.9116
vt 6.2378 14.9652
vt 3.6014 16.7580
vt 2.9769 15.2330
vt 0.0000 17.4142
vt 0.0000 15.7754
vt -3.6014 16.7580
vt -2.9769 15.2330
vt -4.9201 13.9116
vt -6.2378 14.9652
vt -4.9201 13.9116
vt -5.4699 12.5163
vt -6.2378 14.9652
vt -3.6014 16.7580
vt -2.9769 15.2330
vt 0.0000 17.4142
vt 0.0000 15.7754
vt 2.9769 15.2330
vt 3.6014 16.7580
vt 4.9201 13.9116
vt 6.2378 14.9652
vt 5.4699 12.5163
vt 5.5473 1.1950
vt 5.3862 0.8061
vt 5.1300 0.4722
vt 4.9201 11.1210
vt 4.7961 0.2160
vt 4.4072 0.0549
vt 3.9899 10.4884
vt 3.9899 1.6123
vt 3.9899 0.0000
vt -3.9899 1.6123
vt -3.9899 0.0000
vt 0.0000 0.0000
vt -11.4123 11.6364
vt -11.4123 9.0042
vt -3.9899 10.4884
vt -4.4072 0.0549
vt -4.7961 0.2160
vt -4.9201 11.1210
vt -5.1300 0.4722
vt -5.3862 0.8061
vt -5.5473 1.1950
vt 11.4123 9.0042
vt 11.4123 11.6364
vt 0.0000 0.0000
vt -11.4123 4.5137
vt 11.4123 4.5137
vt -11.4123 4.0928
vt 11.4123 4.0928
vt -11.4123 3.9558
vt -11.4123 4.3767
vt 11.4123 3.9558
vt 11.4123 4.3767
vt 11.4123 3.9558
vt -11.4123 3.9558
vt 11.4123 4.3767
vt -11.4123 4.3767
vt 11.4123 4.5137
vt 11.4123 4.0928
vt -11.4123 4.5137
vt -11.4123 4.0928
vt 11.4123 3.9365
vt -11.4123 3.9365
vt 11.4123 4.3574
vt -11.4123 4.3574
vt -11.4123 3.4976
vt -11.4123 3.9185
vt 11.4123 3.4976
vt 11.4123 3.9185
vt -11.4123 2.8060
vt -11.4123 3.2269
vt 11.4123 2.8060
vt 11.4123 3.2269
vt -11.4123 1.9088
vt -11.4123 2.3297
vt 11.4123 1.9088
vt 11.4123 2.3297
vt 11.4123 2.8060
vt -11.4123 2.8060
vt 11.4123 3.2269
vt -11.4123 3.2269
vt 11.4123 3.4976
vt -11.4123 3.4976
vt 11.4123 3.9185
vt -11.4123 3.9185
vt 11.4123 1.9088
vt -11.4123 1.9088
vt 11.4123 2.3297
vt -11.4123 3.9365
vt -11.4123 4.3574
vt 11.4123 3.9365
vt 11.4123 4.3574
vn 0.0000 -0.5623 0.8269
vn 0.0000 0.1793 0.9838
vn 0.0000 0.9894 -0.1452
vn -0.0472 0.6114 -0.7899
vn 0.0000 0.0000 -1.0000
vn 0.0000 -0.1793 0.9838
vn 0.0000 0.5623 0.8269
vn 0.0000 0.9304 0.3666
vn -1.0000 0.0000 0.0000
vn 0.0000 0.0000 0.0000
vn 1.0000 -0.0000 0.0000
vn 0.0000 -0.9304 0.3666
vn 0.0000 -0.9894 -0.1452
vn -0.6789 0.3671 -0.6359
vn 0.6789 0.3672 -0.6358
vn -0.6789 0.1901 -0.7092
vn 0.6789 0.1899 -0.7092
vn -0.6927 0.0472 -0.7197
vn 0.6927 0.0472 -0.7197
vn -0.6927 -0.0472 -0.7197
vn 0.6927 -0.0472 -0.7197
vn -0.6789 -0.1900 -0.7092
vn 0.6789 -0.1900 -0.7092
vn -0.6789 -0.3672 -0.6359
vn 0.6789 -0.3670 -0.6360
vn -0.6789 -0.5193 -0.5190
vn 0.6789 -0.5190 -0.5193
vn 0.6789 -0.6359 -0.3671
vn -0.6789 -0.6359 -0.3671
vn 0.6789 -0.7092 -0.1901
vn -0.6789 -0.7092 -0.1900
vn 0.6927 -0.7197 -0.0472
vn -0.6927 -0.7197 -0.0472
vn 0.6789 0.6358 -0.3672
vn -0.6789 0.6359 -0.3671
vn 0.6789 0.7093 -0.1899
vn -0.6789 0.7092 -0.1899
vn 0.6789 0.5192 -0.5192
vn -0.6789 0.5192 -0.5192
vn 0.6927 0.7197 -0.0472
vn -0.6927 0.7197 -0.0472
usemtl brown.007
s off
f 27/1/1 28/2/1 29/3/1
f 30/4/1 29/3/1 28/2/1
f 33/5/2 34/6/2 35/7/2
f 36/8/2 35/7/2 34/6/2
f 40/9/3 39/10/3 31/11/3 32/12/4
f 41/13/5 42/14/5 43/15/5
f 44/16/5 43/15/5 42/14/5
f 29/17/6 30/18/6 34/19/6
f 36/20/6 34/19/6 30/18/6
f 45/21/7 33/22/7 46/23/7
f 35/24/7 46/23/7 33/22/7
f 39/10/8 40/9/8 46/25/8
f 45/26/8 46/25/8 40/9/8
f 2/27/9 6/28/9 4/29/9
f 41/30/9 4/29/9 6/28/9
f 47/31/9 4/29/9 41/30/9
f 48/32/9 4/29/9 47/31/9
f 49/33/9 4/29/9 48/32/9
f 5/34/9 4/29/9 49/33/9
f 50/35/9 5/34/9 49/33/9
f 51/36/9 5/34/9 50/35/9
f 41/30/9 6/28/9 42/37/9
f 6/28/9 9/38/9 42/37/9
f 9/38/10 10/39/10 42/37/10
f 42/37/9 10/39/9 52/40/9
f 52/40/9 10/39/9 53/41/9
f 10/39/9 11/42/9 53/41/9
f 53/41/9 11/42/9 54/43/9
f 54/43/9 11/42/9 55/44/9
f 11/42/9 13/45/9 55/44/9
f 56/46/9 55/44/9 13/45/9
f 56/46/9 13/45/9 32/47/9
f 12/48/9 45/49/9 13/45/9
f 33/50/9 45/49/9 12/48/9
f 8/51/9 33/50/9 12/48/9
f 34/52/9 33/50/9 8/51/9
f 7/53/9 34/52/9 8/51/9
f 29/54/9 34/52/9 7/53/9
f 1/55/9 29/54/9 7/53/9
f 3/56/9 29/54/9 1/55/9
f 27/57/9 29/54/9 3/56/9
f 5/34/9 27/57/9 3/56/9
f 24/58/11 26/59/11 46/60/11
f 35/61/11 24/58/11 46/60/11
f 17/62/11 24/58/11 35/61/11
f 36/63/11 17/62/11 35/61/11
f 18/64/11 17/62/11 36/63/11
f 19/65/11 18/64/11 36/63/11
f 30/66/11 19/65/11 36/63/11
f 21/67/11 19/65/11 30/66/11
f 28/68/11 21/67/11 30/66/11
f 23/69/11 21/67/11 28/68/11
f 59/70/11 60/71/11 23/69/11
f 60/71/11 61/72/11 23/69/11
f 23/69/11 61/72/11 22/73/11
f 61/72/11 62/74/11 22/73/11
f 62/74/11 63/75/11 22/73/11
f 22/73/11 63/75/11 20/76/11
f 20/76/11 63/75/11 16/77/11
f 63/75/11 43/78/11 16/77/11
f 16/77/11 43/78/11 14/79/11
f 44/80/11 14/79/11 43/78/11
f 40/9/9 32/47/9 13/45/9 45/26/9
f 37/81/11 23/69/11 28/82/11 64/83/11
f 14/79/10 44/80/10 15/84/10
f 44/80/11 65/85/11 15/84/11
f 65/85/11 66/86/11 15/84/11
f 15/84/11 66/86/11 25/87/11
f 66/86/11 67/88/11 25/87/11
f 67/88/11 68/89/11 25/87/11
f 25/87/11 68/89/11 26/59/11
f 58/90/11 26/59/11 68/89/11
f 64/83/12 28/82/12 57/91/12
f 27/92/12 57/91/12 28/82/12
f 39/10/11 46/25/11 26/59/11 31/11/11
f 27/92/9 5/34/9 38/93/9 57/91/9
s 1
f 37/81/13 64/83/13 57/91/13 38/93/13
f 53/94/14 66/95/15 52/96/16
f 65/97/17 52/96/16 66/95/15
f 42/98/18 52/99/16 44/100/19
f 65/101/17 44/100/19 52/99/16
f 41/102/20 43/103/21 47/104/22
f 63/105/23 47/104/22 43/103/21
f 48/106/24 47/107/22 62/108/25
f 63/109/23 62/108/25 47/107/22
f 48/110/24 62/111/25 49/112/26
f 61/113/27 49/112/26 62/111/25
f 61/114/27 60/115/28 49/116/26
f 50/117/29 49/116/26 60/115/28
f 60/118/28 59/119/30 50/120/29
f 51/121/31 50/120/29 59/119/30
f 59/122/30 37/123/32 51/124/31
f 38/125/33 51/124/31 37/123/32
f 68/126/34 55/127/35 58/128/36
f 56/129/37 58/128/36 55/127/35
f 67/130/38 54/131/39 68/132/34
f 55/133/35 68/132/34 54/131/39
f 58/134/36 56/135/37 31/136/40
f 32/12/41 31/136/40 56/135/37
f 53/137/14 54/138/39 66/139/15
f 67/140/38 66/139/15 54/138/39
usemtl brownLight.008
s off
f 1/55/9 2/27/9 3/56/9
f 4/29/9 3/56/9 2/27/9
f 5/34/9 3/56/9 4/29/9
f 2/27/9 1/55/9 6/28/9
f 1/55/9 7/53/9 6/28/9
f 7/53/9 8/51/9 6/28/9
f 6/28/9 8/51/9 9/38/9
f 9/38/9 8/51/9 10/39/9
f 10/39/9 8/51/9 11/42/9
f 8/51/9 12/48/9 11/42/9
f 13/45/9 11/42/9 12/48/9
f 14/79/11 15/84/11 16/77/11
f 17/62/11 16/77/11 15/84/11
f 18/64/11 16/77/11 17/62/11
f 19/65/11 16/77/11 18/64/11
f 20/76/11 16/77/11 19/65/11
f 21/67/11 20/76/11 19/65/11
f 22/73/11 20/76/11 21/67/11
f 23/69/11 22/73/11 21/67/11
f 17/62/11 15/84/11 24/58/11
f 15/84/11 25/87/11 24/58/11
f 26/59/11 24/58/11 25/87/11
