# Blender 3.4.1
# www.blender.org
mtllib CookedChicken.mtl
o Cylinder
v 0.029121 0.070395 -0.006103
v 0.030352 -0.080325 -0.006477
v 0.007452 0.070874 -0.024209
v 0.008564 -0.079721 -0.022506
v 0.020304 0.070914 -0.001834
v 0.028808 -0.004285 0.014371
v -0.048773 -0.002835 -0.022701
v -0.025009 -0.004285 0.029591
v 0.000863 -0.006307 0.045383
v -0.034752 0.043267 -0.023604
v -0.020432 0.043998 0.016185
v 0.004170 0.043451 0.033172
v -0.033852 -0.052071 -0.024227
v -0.027198 -0.052211 0.006850
v 0.003634 -0.052150 0.033672
v 0.028806 0.070876 -0.024203
v 0.027939 -0.079584 -0.023359
vn 0.7613 0.1439 0.6322
vn -0.5458 -0.8302 0.1131
vn -0.3381 -0.8563 0.3906
vn -0.9045 0.2814 0.3204
vn 0.7691 -0.1544 0.6202
vn -0.5193 -0.2409 0.8199
vn -0.9015 -0.1512 0.4055
vn -0.3151 -0.8626 0.3957
vn -0.5175 0.2550 0.8168
vn -0.8902 0.1983 0.4101
vn -0.5038 0.8380 0.2098
vn -0.3197 0.8114 0.4892
vn 0.3636 0.6442 0.6729
vn 0.7412 -0.1238 0.6598
vn -0.6233 -0.3118 0.7171
vn -0.9361 -0.2899 0.1991
vn 0.9995 0.0037 -0.0324
vn 0.0178 0.9998 0.0051
vn 0.0051 -0.9990 -0.0446
vn -0.0059 -0.0049 -1.0000
vt 0.293351 0.503085
vt 0.259956 0.998896
vt 0.250084 0.500000
vt 0.240961 1.000000
vt 0.053583 0.500000
vt 0.000000 0.750000
vt 0.247466 0.750000
vt 0.124901 0.750000
vt 0.061854 0.750000
vt 0.248647 0.625000
vt 0.140626 0.625000
vt 0.062489 0.625000
vt 0.250000 0.875000
vt 0.169358 0.875000
vt 0.065174 0.875000
vt 0.500039 0.500000
vt 0.495473 1.000000
s 0
usemtl Material.009
f 6/6/1 1/1/1 12/12/1 9/9/1
f 4/4/2 14/14/2 13/13/2
f 4/4/3 15/15/3 14/14/3
f 10/10/4 7/7/4 11/11/4
f 6/6/5 15/15/5 2/2/5
f 15/15/6 9/9/6 8/8/6
f 14/14/7 8/8/7 7/7/7
f 4/4/8 2/2/8 15/15/8
f 12/12/9 11/11/9 8/8/9 9/9/9
f 7/7/10 8/8/10 11/11/10
f 11/11/11 5/5/11 3/3/11 10/10/11
f 11/11/12 12/12/12 5/5/12
f 5/5/13 12/12/13 1/1/13
f 9/9/14 15/15/14 6/6/14
f 14/14/15 15/15/15 8/8/15
f 13/13/16 14/14/16 7/7/16
f 1/1/17 6/6/17 2/2/17 17/17/17 16/16/17
f 3/3/18 5/5/18 1/1/18 16/16/18
f 4/4/19 17/17/19 2/2/19
f 7/7/20 10/10/20 3/3/20 16/16/20 17/17/20 4/4/20 13/13/20
