# Blender 3.4.1
# www.blender.org
mtllib limeBottle.mtl
o sodaBottle.004
v -0.034876 0.000000 0.000000
v -0.017438 -0.030203 0.000000
v -0.017438 0.030203 0.000000
v 0.017438 0.030203 0.000000
v 0.017438 -0.030203 0.000000
v 0.034876 0.000000 0.000000
v 0.022561 -0.039078 0.004589
v -0.022561 -0.039078 0.004589
v 0.045123 0.000000 0.004589
v 0.022561 0.039078 0.004589
v -0.045123 0.000000 0.004589
v -0.022561 0.039078 0.004589
v 0.025323 0.000000 0.093194
v 0.015157 0.000000 0.124225
v 0.012661 0.021930 0.093194
v 0.007579 0.013126 0.124225
v -0.012661 0.021930 0.093194
v -0.007579 0.013126 0.124225
v 0.012661 -0.021930 0.093194
v -0.012661 -0.021930 0.093194
v 0.007579 -0.013126 0.124225
v -0.007579 -0.013126 0.124225
v -0.025323 0.000000 0.093194
v -0.015157 0.000000 0.124225
v -0.038146 0.000000 0.035904
v -0.019073 0.033036 0.035904
v -0.019073 -0.033036 0.035904
v 0.038146 0.000000 0.035904
v 0.019073 0.033036 0.035904
v 0.019073 -0.033036 0.035904
v 0.041707 0.000000 0.076484
v 0.020854 0.036119 0.076484
v -0.020854 -0.036119 0.076484
v -0.041707 0.000000 0.076484
v -0.020854 0.036119 0.076484
v 0.020854 -0.036119 0.076484
vn -0.0000 -0.0000 -1.0000
vn -0.0000 -0.4593 -0.8883
vn 0.3978 -0.2297 -0.8883
vn 0.3978 0.2297 -0.8883
vn -0.3978 -0.2297 -0.8883
vn -0.0000 0.4593 -0.8883
vn -0.3978 0.2297 -0.8883
vn 0.8331 0.4810 0.2730
vn 0.8332 0.4810 0.2729
vn -0.0000 0.9620 0.2729
vn -0.0000 -0.9620 0.2729
vn -0.8331 -0.4810 0.2729
vn -0.8331 -0.4810 0.2730
vn 0.8331 -0.4810 0.2729
vn 0.8331 -0.4810 0.2730
vn -0.8331 0.4810 0.2730
vn -0.8332 0.4810 0.2729
vn -0.8503 0.4909 0.1894
vn -0.8503 -0.4909 0.1894
vn 0.8503 0.4909 0.1894
vn -0.0000 -0.9819 0.1894
vn -0.0000 0.9819 0.1894
vn 0.8503 -0.4909 0.1894
vn 0.6601 0.3811 0.6473
vn -0.6601 -0.3811 0.6473
vn -0.6601 0.3811 0.6473
vn 0.6601 -0.3811 0.6473
vn -0.0000 -0.7622 0.6473
vn -0.0000 0.7622 0.6473
vn -0.0000 -0.0000 1.0000
vn 0.8635 -0.4986 -0.0758
vn -0.8635 0.4986 -0.0758
vn -0.8635 -0.4986 -0.0758
vn -0.0000 0.9971 -0.0758
vn 0.8635 0.4986 -0.0758
vn -0.0000 -0.9971 -0.0758
vt 2.746116 -0.000000
vt -1.373058 1.613270
vt 1.373058 1.613270
vt 1.373058 -2.378206
vt -1.373058 1.613270
vt 1.373058 1.613270
vt 1.373058 2.378206
vt 1.373058 1.613270
vt -1.373058 1.613270
vt -1.373058 2.378206
vt 1.373058 1.613270
vt -1.373058 1.613270
vt -1.373058 -2.378206
vt 1.373058 1.613270
vt -1.373058 1.613270
vt -2.746116 -0.000000
vt 1.373058 1.613270
vt -1.373058 1.613270
vt 1.776496 2.643371
vt -1.776496 2.643371
vt 1.776496 0.471443
vt -1.776496 0.471443
vt -1.776496 2.643371
vt 1.776496 2.643371
vt 1.776496 0.471443
vt -1.776496 0.471443
vt 1.776496 2.643371
vt -1.776496 2.643371
vt -1.776496 0.471443
vt 1.776496 0.471443
vt 1.776496 2.643371
vt -1.776496 2.643371
vt 1.776496 0.471443
vt -1.776496 0.471443
vt -1.776496 2.643371
vt 1.776496 2.643371
vt 1.776496 0.471443
vt -1.776496 0.471443
vt 1.776496 2.643371
vt -1.776496 2.643371
vt -1.776496 0.471443
vt 1.776496 0.471443
vt -0.996961 14.999690
vt 0.996961 14.999690
vt -0.996961 13.595740
vt 0.996961 13.595740
vt 0.596721 20.164539
vt -0.596721 20.164539
vt 0.996961 14.999690
vt -0.996961 14.999690
vt 0.996961 13.595740
vt -0.996961 13.595740
vt 0.596721 20.164539
vt -0.596721 20.164539
vt 0.996961 14.999690
vt -0.996961 14.999690
vt -0.996961 13.595740
vt 0.996961 13.595740
vt 0.596721 20.164539
vt -0.596721 20.164539
vt 0.996961 14.999690
vt -0.996961 14.999690
vt -0.996961 13.595740
vt 0.996961 13.595740
vt -0.996961 14.999690
vt 0.996961 14.999690
vt 0.996961 13.595740
vt -0.996961 13.595740
vt 0.596721 20.164539
vt -0.596721 20.164539
vt -0.596721 20.164539
vt 0.596721 20.164539
vt -0.996961 14.999690
vt 0.996961 14.999690
vt -0.996961 13.595740
vt 0.996961 13.595740
vt 0.596721 20.164539
vt -0.596721 20.164539
vt 1.501838 5.658187
vt -1.501838 5.658187
vt 1.501838 6.012138
vt -1.501838 6.012138
vt -1.501838 5.658187
vt 1.501838 5.658187
vt -1.501838 6.012138
vt 1.501838 6.012138
vt 1.501838 5.658187
vt -1.501838 5.658187
vt 1.501838 6.012138
vt -1.501838 6.012138
vt -1.501838 5.658187
vt 1.501838 5.658187
vt 1.501838 6.012138
vt -1.501838 6.012138
vt 1.501838 5.658187
vt -1.501838 5.658187
vt -1.501838 6.012138
vt 1.501838 6.012138
vt 1.501838 5.658187
vt -1.501838 5.658187
vt -1.501838 6.012138
vt 1.501838 6.012138
vt -1.642009 10.621970
vt 1.642009 10.621970
vt 1.642009 12.709450
vt -1.642009 12.709450
vt 1.642009 10.621970
vt -1.642009 10.621970
vt -1.642009 12.709450
vt 1.642009 12.709450
vt 1.642009 10.621970
vt -1.642009 10.621970
vt 1.642009 12.709450
vt -1.642009 12.709450
vt -1.642009 10.621970
vt 1.642009 10.621970
vt 1.642009 12.709450
vt -1.642009 12.709450
vt -1.642009 10.621970
vt 1.642009 10.621970
vt -1.642009 12.709450
vt 1.642009 12.709450
vt -1.642009 10.621970
vt 1.642009 10.621970
vt -1.642009 12.709450
vt 1.642009 12.709450
s 0
usemtl brownDark.005
f 3/7/1 2/4/1 1/1/1
f 2/4/1 3/7/1 4/10/1
f 2/4/1 4/10/1 5/13/1
f 5/13/1 4/10/1 6/16/1
f 7/19/2 2/5/2 5/14/2
f 2/5/2 7/19/2 8/23/2
f 6/17/3 7/20/3 5/15/3
f 7/20/3 6/17/3 9/27/3
f 10/31/4 6/18/4 4/11/4
f 6/18/4 10/31/4 9/28/4
f 1/2/5 8/24/5 11/35/5
f 8/24/5 1/2/5 2/6/5
f 12/39/6 4/12/6 3/8/6
f 4/12/6 12/39/6 10/32/6
f 12/40/7 1/3/7 11/36/7
f 1/3/7 12/40/7 3/9/7
f 15/49/8 14/48/8 13/43/8
f 14/48/9 15/49/9 16/53/9
f 18/59/10 15/50/10 17/55/10
f 15/50/10 18/59/10 16/54/10
f 21/69/11 20/65/11 19/61/11
f 20/65/11 21/69/11 22/71/11
f 22/72/12 23/73/12 20/66/12
f 23/73/13 22/72/13 24/78/13
f 13/44/14 21/70/14 19/62/14
f 21/70/15 13/44/15 14/47/15
f 24/77/16 17/56/16 23/74/16
f 17/56/17 24/77/17 18/60/17
f 25/79/18 12/41/18 11/37/18
f 12/41/18 25/79/18 26/83/18
f 27/87/19 11/38/19 8/25/19
f 11/38/19 27/87/19 25/80/19
f 10/33/20 28/91/20 9/29/20
f 28/91/20 10/33/20 29/95/20
f 30/99/21 8/26/21 7/21/21
f 8/26/21 30/99/21 27/88/21
f 26/84/22 10/34/22 12/42/22
f 10/34/22 26/84/22 29/96/22
f 9/30/23 30/100/23 7/22/23
f 30/100/23 9/30/23 28/92/23
f 31/103/24 15/51/24 13/45/24
f 15/51/24 31/103/24 32/107/24
f 20/67/25 34/115/25 33/111/25
f 34/115/25 20/67/25 23/75/25
f 17/57/26 34/116/26 23/76/26
f 34/116/26 17/57/26 35/119/26
f 31/104/27 19/63/27 36/123/27
f 19/63/27 31/104/27 13/46/27
f 19/64/28 33/112/28 36/124/28
f 33/112/28 19/64/28 20/68/28
f 17/58/29 32/108/29 35/120/29
f 32/108/29 17/58/29 15/52/29
f 22/72/30 21/70/30 14/48/30 16/54/30 18/60/30 24/78/30
f 30/101/31 31/105/31 36/125/31
f 31/105/31 30/101/31 28/93/31
f 34/117/32 26/85/32 25/81/32
f 26/85/32 34/117/32 35/121/32
f 34/118/33 27/89/33 33/113/33
f 27/89/33 34/118/33 25/82/33
f 35/122/34 29/97/34 26/86/34
f 29/97/34 35/122/34 32/109/34
f 29/98/35 31/106/35 28/94/35
f 31/106/35 29/98/35 32/110/35
f 36/126/36 27/90/36 30/102/36
f 27/90/36 36/126/36 33/114/36
