# Blender 3.4.1
# www.blender.org
mtllib Marshmallow.mtl
o Cylinder
v 0.000645 0.025936 0.025632
v 0.011735 0.022913 -0.025632
v 0.012532 0.022487 0.025632
v 0.018125 0.018125 -0.025632
v 0.018125 0.018125 0.025632
v 0.022487 0.012532 -0.025632
v 0.022913 0.011735 0.025632
v 0.025936 0.000645 -0.025632
v 0.025936 -0.000645 0.025632
v 0.022913 -0.011735 -0.025632
v 0.022487 -0.012532 0.025632
v 0.018125 -0.018125 -0.025632
v 0.018125 -0.018125 0.025632
v 0.012532 -0.022487 -0.025632
v 0.011735 -0.022913 0.025632
v 0.000645 -0.025936 -0.025632
v 0.002074 -0.025660 0.025632
v -0.005001 -0.025140 0.025632
v -0.011735 -0.022913 -0.025632
v -0.012532 -0.022487 0.025632
v -0.018125 -0.018125 -0.025632
v -0.018125 -0.018125 0.025632
v -0.022487 -0.012532 -0.025632
v -0.022913 -0.011735 0.025632
v -0.025936 -0.000645 -0.025632
v -0.025936 0.000645 0.025632
v -0.022913 0.011735 -0.025632
v -0.022487 0.012532 0.025632
v -0.018125 0.018125 -0.025632
v -0.018125 0.018125 0.025632
v -0.012532 0.022487 -0.025632
v -0.011735 0.022913 0.025632
v -0.000645 0.025936 -0.025632
vn 0.6069 0.7948 -0.0014
vn 0.7948 0.6069 0.0014
vn 0.9662 0.2577 0.0012
vn 0.9662 -0.2577 -0.0012
vn 0.7948 -0.6069 -0.0014
vn 0.6069 -0.7948 0.0014
vn 0.2763 -0.9611 -0.0031
vn -0.2741 -0.9617 -0.0058
vn -0.0733 -0.9973 0.0074
vn -0.6069 -0.7948 -0.0014
vn -0.7948 -0.6069 0.0014
vn -0.9662 -0.2577 0.0012
vn -0.9662 0.2577 -0.0012
vn 0.2577 0.9662 -0.0012
vn -0.7948 0.6069 -0.0014
vn -0.6069 0.7948 0.0014
vn -0.2577 0.9662 0.0012
vn -0.0000 -0.0000 1.0000
vn -0.0000 -0.0000 -1.0000
vt 0.988143 1.000000
vt 0.012817 1.000000
vt 0.255848 0.487077
vt 0.924683 0.500000
vt 0.858863 0.462634
vt 0.919067 1.000000
vt 0.366318 0.458649
vt 0.875000 0.500000
vt 0.919706 0.419706
vt 0.875000 1.000000
vt 0.419706 0.419706
vt 0.830933 0.500000
vt 0.958649 0.366318
vt 0.825317 1.000000
vt 0.462634 0.358863
vt 0.753903 0.500000
vt 0.987076 0.255848
vt 0.746097 1.000000
vt 0.487077 0.244152
vt 0.674683 0.500000
vt 0.962634 0.141137
vt 0.669067 1.000000
vt 0.458649 0.133682
vt 0.625000 0.500000
vt 0.919706 0.080294
vt 0.625000 1.000000
vt 0.419706 0.080294
vt 0.580933 0.500000
vt 0.866318 0.041351
vt 0.575317 1.000000
vt 0.358863 0.037366
vt 0.503903 0.500000
vt 0.755848 0.012924
vt 0.512817 1.000000
vt 0.269204 0.011891
vt 0.468750 1.000000
vt 0.203178 0.014612
vt 0.424683 0.500000
vt 0.641137 0.037366
vt 0.419067 1.000000
vt 0.133682 0.041351
vt 0.375000 0.500000
vt 0.580294 0.080294
vt 0.375000 1.000000
vt 0.080294 0.080294
vt 0.330933 0.500000
vt 0.541351 0.133682
vt 0.325317 1.000000
vt 0.037366 0.141137
vt 0.253903 0.500000
vt 0.512923 0.244152
vt 0.246097 1.000000
vt 0.012924 0.255848
vt 0.174683 0.500000
vt 0.537366 0.358863
vt 0.169067 1.000000
vt 0.041351 0.366318
vt 0.125000 0.500000
vt 0.580294 0.419706
vt 0.125000 1.000000
vt 0.080294 0.419706
vt 0.080933 0.500000
vt 0.633682 0.458649
vt 0.075317 1.000000
vt 0.141137 0.462634
vt 0.987183 0.500000
vt 0.011857 0.500000
vt 0.744152 0.487077
s 0
usemtl Material.002
f 4/8/1 2/4/1 3/6/1 5/10/1
f 6/12/2 4/8/2 5/10/2 7/14/2
f 8/16/3 6/12/3 7/14/3 9/18/3
f 10/20/4 8/16/4 9/18/4 11/22/4
f 12/24/5 10/20/5 11/22/5 13/26/5
f 14/28/6 12/24/6 13/26/6 15/30/6
f 16/32/7 14/28/7 15/30/7 17/34/7
f 19/38/8 16/32/8 18/36/8 20/40/8
f 17/34/9 18/36/9 16/32/9
f 21/42/10 19/38/10 20/40/10 22/44/10
f 23/46/11 21/42/11 22/44/11 24/48/11
f 25/50/12 23/46/12 24/48/12 26/52/12
f 27/54/13 25/50/13 26/52/13 28/56/13
f 2/4/14 33/66/14 1/1/14 3/6/14
f 29/58/15 27/54/15 28/56/15 30/60/15
f 31/62/16 29/58/16 30/60/16 32/64/16
f 33/67/17 31/62/17 32/64/17 1/2/17
f 7/15/18 5/11/18 3/7/18 1/3/18 32/65/18 30/61/18 28/57/18 26/53/18 24/49/18 22/45/18 20/41/18 18/37/18 17/35/18 15/31/18 13/27/18 11/23/18 9/19/18
f 16/33/19 19/39/19 21/43/19 23/47/19 25/51/19 27/55/19 29/59/19 31/63/19 33/68/19 2/5/19 4/9/19 6/13/19 8/17/19 10/21/19 12/25/19 14/29/19
