# Blender 3.4.1
# www.blender.org
mtllib radish.mtl
o radish.001
v 0.006531 0.051521 0.006531
v -0.006531 0.051521 0.006531
v 0.006531 0.051521 -0.006531
v -0.006531 0.051521 -0.006531
v -0.026522 0.051521 0.015312
v -0.026522 0.051521 -0.015312
v 0.000000 0.051521 0.030625
v 0.026522 0.051521 0.015312
v 0.000000 0.051521 -0.030625
v 0.026522 0.051521 -0.015312
v 0.000000 0.031521 -0.045937
v 0.039783 0.031521 -0.022969
v -0.039783 0.031521 0.022969
v -0.039783 0.031521 -0.022969
v 0.000000 0.031521 0.045937
v 0.039783 0.031521 0.022969
v 0.000000 -0.078740 0.013322
v -0.011537 -0.078740 0.006661
v 0.000000 -0.040170 0.049720
v -0.043059 -0.040170 0.024860
v 0.051320 0.001521 0.029630
v 0.000000 0.001521 0.059259
v -0.011537 -0.078740 -0.006661
v 0.000000 -0.078740 -0.013322
v -0.043059 -0.040170 -0.024860
v 0.000000 -0.040170 -0.049720
v 0.011537 -0.078740 0.006661
v 0.043059 -0.040170 0.024860
v -0.051320 0.001521 0.029630
v 0.043059 -0.040170 -0.024860
v 0.000000 0.001521 -0.059259
v 0.051320 0.001521 -0.029630
v -0.051320 0.001521 -0.029630
v 0.011537 -0.078740 -0.006661
vn -0.0000 1.0000 -0.0000
vn 0.4167 0.5526 -0.7218
vn -0.8334 0.5526 -0.0000
vn -0.4167 0.5526 0.7218
vn -0.4167 0.5526 -0.7218
vn 0.8334 0.5526 -0.0000
vn 0.4167 0.5526 0.7218
vn -0.3872 -0.6328 0.6706
vn 0.4667 0.3589 0.8083
vn -0.3872 -0.6328 -0.6706
vn 0.3872 -0.6328 0.6706
vn -0.7743 -0.6328 -0.0000
vn -0.4667 0.3589 0.8083
vn 0.4905 -0.1944 -0.8495
vn 0.4905 -0.1944 0.8495
vn -0.9809 -0.1944 -0.0000
vn 0.7743 -0.6328 -0.0000
vn -0.4905 -0.1944 0.8495
vn -0.4905 -0.1944 -0.8495
vn -0.4667 0.3589 -0.8083
vn -0.9334 0.3589 -0.0000
vn 0.9334 0.3589 -0.0000
vn 0.4667 0.3589 -0.8083
vn -0.0000 -1.0000 -0.0000
vn 0.9809 -0.1944 -0.0000
vn 0.3872 -0.6328 -0.6706
vt 0.257138 -0.257138
vt -0.257138 -0.257138
vt 0.257138 0.257138
vt -0.257138 0.257138
vt -1.044173 -0.602853
vt 0.602853 5.985489
vt -0.602853 5.985489
vt -1.044173 0.602853
vt -0.602853 5.985489
vt 0.602853 5.985489
vt 0.000000 -1.205707
vt 0.602853 5.985489
vt -0.602853 5.985489
vt 1.044173 -0.602853
vt -0.602853 5.985489
vt 0.602853 5.985489
vt 0.000000 1.205707
vt 0.602853 5.985489
vt -0.602853 5.985489
vt 1.044173 0.602853
vt -0.602853 5.985489
vt 0.602853 5.985489
vt -0.904280 5.040727
vt 0.602853 5.985489
vt -0.602853 5.985489
vt 0.904280 5.040727
vt -0.904280 5.040727
vt 0.904280 5.040727
vt 0.602853 5.985489
vt -0.904280 5.040727
vt 0.602853 5.985489
vt -0.602853 5.985489
vt 0.904280 5.040727
vt -0.904280 5.040727
vt -0.602853 5.985489
vt 0.904280 5.040727
vt 0.602853 5.985489
vt -0.904280 5.040727
vt -0.602853 5.985489
vt 0.904280 5.040727
vt -0.904280 5.040727
vt 0.602853 5.985489
vt 0.904280 5.040727
vt -0.602853 5.985489
vt -0.904280 5.040727
vt 0.602853 5.985489
vt -0.602853 5.985489
vt 0.602853 5.985489
vt -0.904280 5.040727
vt 0.904280 5.040727
vt -0.602853 5.985489
vt -0.904280 5.040727
vt 0.904280 5.040727
vt -0.602853 5.985489
vt 0.602853 5.985489
vt 0.904280 5.040727
vt -0.602853 5.985489
vt -0.602853 5.985489
vt 0.904280 5.040727
vt 0.602853 5.985489
vt -0.904280 5.040727
vt 0.602853 5.985489
vt -0.602853 5.985489
vt 0.904280 5.040727
vt -0.602853 5.985489
vt 0.602853 5.985489
vt 0.602853 5.985489
vt -0.904280 5.040727
vt 0.904280 5.040727
vt -0.602853 5.985489
vt -0.904280 5.040727
vt 0.602853 5.985489
vt 0.904280 5.040727
vt -0.602853 5.985489
vt -0.904280 5.040727
vt 0.602853 5.985489
vt -0.602853 5.985489
vt 0.904280 5.040727
vt 0.602853 5.985489
vt -0.904280 5.040727
vt 0.602853 5.985489
vt -0.602853 5.985489
vt 0.904280 5.040727
vt 0.904280 5.040727
vt -0.602853 5.985489
vt 0.602853 5.985489
vt 0.904280 5.040727
vt 0.602853 5.985489
vt -0.602853 5.985489
vt 0.904280 5.040727
vt -0.602853 5.985489
vt 0.602853 5.985489
vt 0.602853 5.985489
vt 0.904280 5.040727
vt -0.602853 5.985489
vt 0.602853 5.985489
vt 0.904280 5.040727
vt -0.602853 5.985489
vt 0.904280 5.040727
vt 0.602853 5.985489
vt -0.904280 5.040727
s 0
usemtl purpleLight
f 7/11/1 6/8/1 5/5/1
f 6/8/1 7/11/1 2/2/1
f 2/2/1 7/11/1 1/1/1
f 1/1/1 7/11/1 8/14/1
f 1/1/1 8/14/1 3/3/1
f 4/4/1 6/8/1 2/2/1
f 6/8/1 4/4/1 9/17/1
f 9/17/1 4/4/1 3/3/1
f 9/17/1 3/3/1 10/20/1
f 10/20/1 3/3/1 8/14/1
f 9/18/2 12/27/2 11/26/2
f 12/27/2 9/18/2 10/21/2
f 5/6/3 14/34/3 13/33/3
f 14/34/3 5/6/3 6/9/3
f 7/12/4 13/30/4 15/40/4
f 13/30/4 7/12/4 5/7/4
f 6/10/5 11/23/5 14/36/5
f 11/23/5 6/10/5 9/19/5
f 12/28/6 8/15/6 16/41/6
f 8/15/6 12/28/6 10/22/6
f 8/16/7 15/38/7 16/43/7
f 15/38/7 8/16/7 7/13/7
f 19/52/8 18/48/8 17/47/8
f 18/49/8 19/55/8 20/57/8
f 16/41/9 22/62/9 21/58/9
f 22/61/9 16/42/9 15/39/9
f 25/71/10 24/67/10 23/65/10
f 24/68/10 25/72/10 26/74/10
f 28/80/11 17/46/11 27/77/11
f 17/45/11 28/81/11 19/54/11
f 25/71/12 18/48/12 20/57/12
f 18/49/12 25/72/12 23/65/12
f 15/39/13 29/84/13 22/62/13
f 29/85/13 15/40/13 13/31/13
f 31/91/14 30/87/14 26/76/14
f 30/89/14 31/90/14 32/93/14
f 21/58/15 19/53/15 28/81/15
f 19/54/15 21/59/15 22/62/15
f 33/98/16 20/56/16 29/86/16
f 20/57/16 33/97/16 25/72/16
f 27/77/17 30/87/17 28/81/17
f 30/89/17 27/78/17 34/100/17
f 22/63/18 20/56/18 19/55/18
f 20/57/18 22/64/18 29/86/18
f 33/98/19 26/73/19 25/72/19
f 26/74/19 33/97/19 31/92/19
f 14/35/20 31/90/20 33/96/20
f 31/91/20 14/36/20 11/24/20
f 13/32/21 33/97/21 29/86/21
f 33/98/21 13/33/21 14/37/21
f 32/95/22 16/43/22 21/60/22
f 16/44/22 32/94/22 12/29/22
f 11/25/23 32/94/23 31/92/23
f 32/95/23 11/26/23 12/29/23
f 24/70/24 18/50/24 23/66/24
f 18/51/24 24/69/24 17/46/24
f 17/47/24 24/69/24 34/100/24
f 17/47/24 34/99/24 27/79/24
f 28/82/25 32/94/25 21/60/25
f 32/95/25 28/83/25 30/88/25
f 26/75/26 34/100/26 24/70/26
f 34/101/26 26/76/26 30/89/26
f 2/2/1 1/1/1 3/3/1 4/4/1
