# Blender v2.78 (sub 0) OBJ File: ''
# www.blender.org
mtllib back.mtl
o oven1.001_ID11.005
v -1.181336 -0.048001 0.624000
v 1.181336 -0.048001 0.624000
v 1.181336 0.048000 0.624000
v -1.181336 0.048000 0.624000
v -1.181336 -0.048001 -0.624000
v 1.181336 -0.048001 -0.624000
v 1.181336 0.048000 -0.624000
v -1.181336 0.048000 -0.624000
vt -16.9291 0.0000
vt -16.9291 15.3543
vt -16.9291 15.3543
vt 0.0000 15.3543
vt 0.0000 15.3543
vt 0.0000 0.0000
vt -16.9291 0.0000
vt 0.0000 0.0000
vn 0.5774 0.5774 -0.5774
vn 0.5774 0.5774 0.5774
vn 0.5774 -0.5774 0.5774
vn -0.6908 -0.2137 0.6908
vn -0.5774 0.5774 0.5774
vn -0.5774 0.5774 -0.5774
vn 0.7071 0.0000 -0.7071
vn -0.7071 0.0000 -0.7071
vn 0.0000 -1.0000 0.0000
usemtl wood.003
s 1
f 7/1/1 3/2/2 2/3/3
f 1/4/4 4/5/5 8/6/6
f 1/4/4 2/3/3 3/2/2 4/5/5
f 3/2/2 8/6/6 4/5/5
f 6/7/7 5/8/8 8/6/6 7/1/1
f 5/8/8 1/4/4 8/6/6
f 8/6/6 3/2/2 7/1/1
f 6/7/7 7/1/1 2/3/3
f 5/8/9 6/7/9 1/4/9
f 2/3/3 1/4/4 6/7/9
