# Blender v2.78 (sub 0) OBJ File: ''
# www.blender.org
mtllib base.mtl
o oven1.001_ID11.004
v -1.181275 -0.656000 -0.093188
v -1.181275 0.656000 -0.093188
v 1.181275 -0.656000 -0.093188
v 1.181275 0.656000 -0.093188
v -1.181275 0.656000 0.093187
v 1.181275 -0.655999 0.093187
v 1.181275 0.656000 0.093187
v -1.181275 -0.655999 0.093187
vt 0.0000 0.0000
vt 0.0000 17.7165
vt 0.0000 2.2930
vt 0.0000 0.0000
vt 16.9291 2.2930
vt 0.0000 2.2930
vt -16.9291 17.7165
vt 0.0000 1.5748
vt -16.9291 1.5748
vt 17.7165 0.0000
vt 1.5748 2.2930
vt 16.9291 2.2930
vt 16.9291 0.0000
vt 1.5748 0.0000
vn -1.0000 0.0000 0.0000
vn -0.7071 -0.7071 0.0000
vn -0.7071 0.0000 0.7071
vn -0.5774 -0.5773 0.5774
vn 0.5774 -0.5773 0.5774
vn 0.7071 -0.7071 0.0000
vn 0.0000 0.0000 -1.0000
vn 0.7071 0.0000 0.7071
vn 0.0000 1.0000 0.0000
vn 1.0000 0.0000 0.0000
usemtl wood.003
s 1
f 2/1/1 1/2/2 5/3/3
f 1/2/2 8/4/4 5/3/3
f 6/5/5 8/6/4 3/7/6
f 8/4/4 1/2/2 3/7/6
f 1/2/7 2/8/7 3/7/7
f 4/9/7 3/7/7 2/8/7
f 3/10/6 7/11/8 6/5/5
f 7/12/8 5/3/3 8/6/4 6/5/5
f 4/13/9 2/1/9 7/12/9
f 5/3/9 7/12/9 2/1/9
f 4/14/10 7/11/8 3/10/6
