# Blender v2.78 (sub 0) OBJ File: ''
# www.blender.org
mtllib handle.mtl
o OvenDoor.001_ID22.002_OvenDoor.001_ID22.004
v -0.303761 0.039353 0.054542
v 0.303761 0.039353 0.054542
v -0.303761 0.039353 -0.054542
v 0.303761 0.039353 -0.054542
v 0.303761 -0.039353 -0.054542
v -0.303761 -0.039353 -0.054542
v 0.303761 -0.039353 0.054542
v -0.303761 -0.039353 0.054542
vt -1.6130 1.6643
vt -13.0303 1.6643
vt -1.6130 8.0083
vt -13.0303 8.0083
vt -1.6130 8.0083
vt -1.6130 1.6643
vt -13.0303 8.0083
vt -13.0303 1.6643
vn -0.5774 0.5774 0.5774
vn 0.5774 0.5774 0.5774
vn -0.5774 0.5774 -0.5774
vn 0.5774 0.5774 -0.5774
vn -0.5774 -0.5774 -0.5774
vn -0.5774 -0.5774 0.5774
vn 0.5774 -0.5774 -0.5774
vn 0.5774 -0.5774 0.5774
usemtl metalMedium.007
s 1
f 1/1/1 2/2/2 3/3/3
f 4/4/4 3/3/3 2/2/2
f 3/3/3 6/5/5 8/6/6 1/1/1
f 5/7/7 7/8/8 6/5/5
f 8/6/6 6/5/5 7/8/8
f 4/4/4 5/7/7 6/5/5 3/3/3
f 2/2/2 7/8/8 5/7/7 4/4/4
f 1/1/1 8/6/6 7/8/8 2/2/2
