# Blender v2.78 (sub 0) OBJ File: ''
# www.blender.org
mtllib heatknob.mtl
o Cylinder.008_Cylinder.001
v 0.000000 0.045106 -0.003516
v 0.000000 0.045106 0.003516
v 0.026513 0.036492 0.003516
v 0.026513 0.036492 -0.003516
v 0.042899 0.013939 0.003516
v 0.042899 0.013939 -0.003516
v 0.042899 -0.013939 0.003516
v 0.042899 -0.013939 -0.003516
v 0.026513 -0.036492 0.003516
v 0.026513 -0.036492 -0.003516
v 0.000000 -0.045106 0.003516
v 0.000000 -0.045106 -0.003516
vn 0.3090 0.9511 0.0000
vn 0.8090 0.5878 0.0000
vn 1.0000 0.0000 0.0000
vn 0.8090 -0.5878 0.0000
vn 0.3090 -0.9511 0.0000
vn 0.0000 0.0000 1.0000
vn -1.0000 0.0000 0.0000
vn 0.0000 0.0000 -1.0000
usemtl BkPlastic.002
s 1
f 1//1 2//1 3//1 4//1
f 4//2 3//2 5//2 6//2
f 6//3 5//3 7//3 8//3
f 8//4 7//4 9//4 10//4
f 10//5 9//5 11//5 12//5
f 5//6 2//6 11//6
f 3//6 2//6 5//6
f 9//6 7//6 11//6
f 5//6 11//6 7//6
f 2//7 1//7 11//7
f 12//7 11//7 1//7
f 1//8 6//8 12//8
f 4//8 6//8 1//8
f 10//8 12//8 8//8
f 8//8 12//8 6//8
o Cylinder.009_Cylinder.000
v 0.000000 0.023232 0.002922
v 0.000000 0.023232 0.014409
v 0.013655 0.018795 0.014409
v 0.013655 0.018795 0.002922
v 0.022095 0.007179 0.014409
v 0.022095 0.007179 0.002922
v 0.022095 -0.007179 0.014409
v 0.022095 -0.007179 0.002922
v 0.013655 -0.018795 0.014409
v 0.013655 -0.018795 0.002922
v 0.000000 -0.023232 0.014409
v 0.000000 -0.023232 0.002922
v -0.013655 -0.018795 0.014409
v -0.013655 -0.018795 0.002922
v -0.022095 -0.007179 0.014409
v -0.022095 -0.007179 0.002922
v -0.022095 0.007179 0.014409
v -0.022095 0.007179 0.002922
v -0.013655 0.018795 0.014409
v -0.013655 0.018795 0.002922
vn 0.3090 0.9511 0.0000
vn 0.8090 0.5878 0.0000
vn 1.0000 0.0000 0.0000
vn 0.8090 -0.5878 0.0000
vn 0.3090 -0.9511 0.0000
vn -0.3090 -0.9511 0.0000
vn -0.8090 -0.5878 0.0000
vn -1.0000 0.0000 0.0000
vn -0.0000 0.0000 1.0000
vn -0.8090 0.5878 0.0000
vn -0.3090 0.9511 0.0000
vn -0.0000 0.0000 -1.0000
usemtl BkPlastic.002
s 1
f 13//9 14//9 15//9 16//9
f 16//10 15//10 17//10 18//10
f 18//11 17//11 19//11 20//11
f 20//12 19//12 21//12 22//12
f 22//13 21//13 23//13 24//13
f 24//14 23//14 25//14 26//14
f 26//15 25//15 27//15 28//15
f 28//16 27//16 29//16 30//16
f 15//17 14//17 31//17 29//17 27//17 25//17 23//17 21//17 19//17 17//17
f 30//18 29//18 31//18 32//18
f 32//19 31//19 14//19 13//19
f 13//20 16//20 18//20 20//20 22//20 24//20 26//20 28//20 30//20 32//20
