# Blender v2.78 (sub 0) OBJ File: ''
# www.blender.org
mtllib shelf.mtl
o oven1.001_ID11.000
v 0.989143 -0.544000 0.020515
v -0.989143 -0.544000 0.020515
v 0.989143 0.544000 0.020515
v -0.989143 0.544000 -0.020515
v 0.989143 0.544000 -0.020515
v -0.989143 0.544000 0.020515
v -0.989143 -0.544000 -0.020515
v 0.989143 -0.544000 -0.020515
vt 0.0000 0.0000
vt 0.0000 0.0000
vt 0.0000 0.0000
vt 0.0000 0.0000
vt 0.0000 0.0000
vt 0.0000 0.0000
vt 0.0000 0.0000
vt 0.0000 0.0000
vn 0.0000 0.0000 -1.0000
vn 0.0000 0.0000 1.0000
vn 1.0000 0.0000 0.0000
vn 0.0000 1.0000 0.0000
vn -1.0000 0.0000 0.0000
vn 0.0000 -1.0000 0.0000
usemtl metalDark.002
s off
f 6/1/1 3/2/1 2/3/1
f 2/3/1 3/2/1 1/4/1
f 4/5/2 7/6/2 5/7/2
f 7/6/2 8/8/2 5/7/2
f 6/1/3 2/3/3 7/6/3 4/5/3
f 2/3/4 1/4/4 8/8/4 7/6/4
f 1/4/5 3/2/5 5/7/5 8/8/5
f 3/2/6 6/1/6 4/5/6 5/7/6
