# Blender v2.78 (sub 0) OBJ File: ''
# www.blender.org
mtllib top_base.mtl
o oven1.001_ID11.006
v -1.182545 0.571788 -0.008000
v 1.182543 0.571788 -0.008000
v 1.182543 -0.573495 -0.008000
v -1.182545 -0.573495 -0.008000
v 1.112143 -0.534881 0.008000
v 1.112143 0.536588 0.008000
v -1.112139 -0.534881 0.008000
v -1.112139 0.536588 0.008000
vt 1.9685 -7.4859
vt 2.4016 -7.0102
vt 15.5840 -7.0102
vt 16.0591 -7.4859
vt -1.1901 -8.5063
vt -15.7391 -8.5063
vt -1.6231 -7.9920
vt -15.3060 -7.9920
vt -1.9685 7.9258
vt -16.0591 7.9258
vt -2.4016 8.4015
vt -15.5840 8.4015
vt 1.1901 8.6345
vt 1.6231 9.1102
vt 15.7391 8.6345
vt 15.3060 9.1102
vn 0.2216 0.0000 0.9751
vn 0.0000 -0.3828 0.9238
vn -0.2216 0.0000 0.9751
vn 0.0000 0.4138 0.9104
vn 0.0000 0.0000 -1.0000
vn 0.0000 0.0000 1.0000
usemtl carpetWhite.001
s 1
f 2/1/1 6/2/1 5/3/1
f 3/4/1 2/1/1 5/3/1
f 4/5/2 3/6/2 7/7/2
f 5/8/2 7/7/2 3/6/2
f 1/9/3 4/10/3 8/11/3
f 7/12/3 8/11/3 4/10/3
f 1/13/4 8/14/4 2/15/4
f 6/16/4 2/15/4 8/14/4
f 2/15/5 3/6/5 1/13/5
f 7/12/6 5/3/6 6/16/6
f 8/14/6 7/12/6 6/16/6
f 4/10/5 1/9/5 3/6/5
