# Blender v2.78 (sub 0) OBJ File: ''
# www.blender.org
mtllib wall.mtl
o oven1.001_ID11.008_oven1.001_ID11.009
v -0.078339 -0.688000 0.530814
v -0.078339 0.688000 0.530814
v 0.078339 0.688000 -0.530816
v 0.078339 0.688000 0.530814
v -0.078339 -0.687999 -0.530811
v -0.078339 0.688000 -0.530811
v 0.078339 -0.687999 0.530814
v 0.078339 -0.687999 -0.530816
vt 1.0569 14.2975
vt -0.7874 15.3543
vt 1.0569 14.2975
vt 0.0000 0.0000
vt 1.0569 3.3498
vt 1.0569 3.3498
vt -1.5748 2.2930
vt 0.0000 2.2930
vt -17.7165 15.3543
vt -0.7874 2.2930
vt 0.0000 15.3543
vn 0.5774 0.5774 0.5774
vn -0.5774 0.5774 0.5774
vn 0.5774 -0.5773 0.5774
vn -0.5774 -0.5774 -0.5773
vn 0.5773 -0.5773 -0.5774
vn 0.5773 0.5773 -0.5774
vn -0.0000 0.7071 -0.7071
vn -0.5773 -0.5774 0.5773
vn -1.0000 0.0000 0.0000
usemtl wood.003
s 1
f 4/1/1 2/2/2 7/3/3
f 5/4/4 8/5/5 7/3/3
f 3/6/6 4/1/1 7/3/3 8/5/5
f 3/6/6 8/5/5 5/4/4
f 3/6/6 5/7/4 6/8/7
f 5/4/4 7/3/3 1/9/8
f 2/2/2 6/10/9 1/9/8
f 5/7/4 1/9/8 6/10/9
f 2/2/2 1/9/8 7/3/3
f 2/11/2 3/6/6 6/8/7
f 4/1/1 3/6/6 2/11/2
