# Blender 3.4.1
# www.blender.org
mtllib bellPepperStrip.mtl
o paprika.006
v -0.001576 -0.042101 0.012122
v -0.010405 -0.019529 0.014431
v -0.001576 -0.042101 -0.012122
v -0.010405 -0.019529 -0.014431
v -0.004836 -0.016663 -0.014431
v 0.001128 -0.037058 0.012122
v 0.001128 -0.037058 -0.012122
v 0.014053 -0.026773 0.006860
v 0.018704 -0.035091 0.006287
v 0.018131 -0.026773 -0.006860
v 0.018131 -0.026773 0.006860
v 0.014053 -0.026773 -0.006860
v 0.018704 -0.035091 -0.006287
v 0.014758 -0.033504 0.006860
v 0.014758 -0.033504 -0.006860
v 0.014123 0.031449 -0.010868
v 0.014123 0.031449 0.010868
v 0.014696 0.023132 -0.010295
v 0.014696 0.023132 0.010295
v 0.001686 0.032126 -0.011653
v 0.001686 0.032126 0.011653
v 0.001686 0.038743 0.011653
v 0.001686 0.038743 -0.011653
v -0.017025 0.032276 -0.012122
v -0.016842 0.011461 -0.014431
v -0.016842 0.011461 0.014431
v -0.017025 0.032276 0.012122
v -0.010453 0.029603 -0.012122
v -0.010453 0.029603 0.012122
v -0.011009 0.011461 -0.014431
v -0.011009 0.011461 0.014431
v -0.004836 -0.016663 0.014431
vn -0.0092 0.0249 0.9996
vn -0.0000 -0.0000 1.0000
vn -0.0092 0.0244 0.9997
vn 0.0768 -0.0804 -0.9938
vn 0.9995 -0.0306 -0.0000
vn 0.9984 -0.0558 -0.0069
vn 1.0000 -0.0049 -0.0042
vn -0.0000 -0.0687 0.9976
vn -0.0000 1.0000 -0.0000
vn -0.2523 0.9676 -0.0000
vn -0.9946 -0.1042 -0.0000
vn 0.1499 0.0157 0.9886
vn 0.0610 -0.0359 0.9975
vn 0.0252 0.0178 0.9995
vn 0.9976 0.0687 -0.0000
vn 0.0610 -0.0359 -0.9975
vn 0.0253 0.1174 0.9928
vn -0.0000 0.1103 0.9939
vn 0.0507 0.1246 0.9909
vn 0.5059 0.8626 -0.0000
vn -0.5687 -0.8226 -0.0000
vn 0.2035 -0.9791 -0.0000
vn -0.3267 0.9451 -0.0000
vn 0.0252 0.0178 -0.9995
vn 0.0253 0.1174 -0.9928
vn -0.0000 0.1102 -0.9939
vn -0.0000 0.1103 -0.9939
vn -1.0000 -0.0088 -0.0000
vn -0.9994 -0.0341 -0.0083
vn -0.9994 -0.0341 0.0083
vn -0.0000 -0.0000 -1.0000
vn -0.0092 0.0249 -0.9996
vn 0.0122 -0.0231 -0.9997
vn 0.0768 -0.0804 0.9938
vn -0.9802 -0.1962 0.0256
vn -0.9802 -0.1962 -0.0256
vn -0.9791 -0.2034 -0.0000
vn 0.9781 0.2067 0.0249
vn 0.9767 0.2144 -0.0000
vn 0.9749 0.2214 0.0250
vn -0.9313 -0.3643 -0.0000
vn 0.9598 0.2807 -0.0000
vn 0.3173 -0.0225 0.9481
vn 0.3267 -0.9451 -0.0000
vn 0.3173 -0.0225 -0.9481
vn 0.0648 -0.0325 -0.9974
vt 0.000000 0.000000
vt 0.000000 0.000000
vt 0.954496 -1.977128
vt -1.136305 2.670430
vt -1.136305 2.670430
vt 0.000000 0.000000
vt 0.000000 0.000000
vt 0.000000 0.000000
vt -0.495004 -0.287519
vt 0.000000 0.000000
vt 0.000000 0.000000
vt 0.000000 0.000000
vt 0.495004 -0.287519
vt 0.000000 0.000000
vt 0.000000 0.000000
vt 0.855731 3.667986
vt 0.000000 0.000000
vt 0.000000 0.000000
vt 0.000000 0.000000
vt 0.000000 0.000000
vt 0.000000 0.000000
vt 0.000000 0.000000
vt 0.000000 0.000000
vt 0.000000 0.000000
vt -1.136305 4.799233
vt 1.136305 4.246302
vt 0.000000 0.000000
vt 0.000000 0.000000
vt 0.000000 0.000000
vt -1.136305 4.246302
vt 1.136305 4.246302
vt 0.000000 0.000000
s 0
usemtl red.002
f 26/26/1 2/2/2 32/32/2 31/31/3
f 3/3/4 4/4/4 5/5/4 7/7/4
f 28/28/5 29/29/5 31/31/6 30/30/7
f 11/11/8 8/8/8 9/9/8
f 11/11/9 10/10/9 12/12/9 8/8/9
f 7/7/10 6/6/10 14/14/10 15/15/10
f 8/8/11 12/12/11 15/15/11 14/14/11
f 14/14/12 9/9/12 8/8/12
f 21/21/13 19/19/13 17/17/13 22/22/13
f 22/22/14 27/27/14 29/29/14 21/21/14
f 16/16/15 17/17/15 19/19/15 18/18/15
f 18/18/16 20/20/16 23/23/16 16/16/16
f 27/27/17 26/26/18 31/31/19 29/29/17
f 16/16/20 23/23/20 22/22/20 17/17/20
f 13/13/15 10/10/15 11/11/15 9/9/15
f 21/21/21 20/20/21 18/18/21 19/19/21
f 20/20/22 21/21/22 29/29/22 28/28/22
f 27/27/23 22/22/23 23/23/23 24/24/23
f 24/24/24 23/23/24 20/20/24 28/28/24
f 28/28/25 30/30/26 25/25/27 24/24/25
f 27/27/28 24/24/28 25/25/29 26/26/30
f 5/5/31 4/4/31 25/25/32 30/30/33
f 1/1/34 6/6/34 32/32/34 2/2/34
f 26/26/35 25/25/36 4/4/37 2/2/37
f 31/31/38 32/32/39 5/5/39 30/30/40
f 2/2/41 4/4/41 3/3/41 1/1/41
f 6/6/42 7/7/42 5/5/42 32/32/42
f 6/6/43 1/1/43 9/9/43 14/14/43
f 3/3/44 13/13/44 9/9/44 1/1/44
f 15/15/45 13/13/45 3/3/45 7/7/45
f 10/10/46 13/13/46 15/15/46 12/12/46
