# Blender 3.4.1
# www.blender.org
mtllib pepperBody.mtl
o paprika
v -0.070792 0.045143 0.028862
v -0.083666 0.107124 0.028862
v -0.044548 0.054214 0.044548
v -0.049365 0.118980 0.049365
v 0.053134 0.000000 -0.024244
v 0.070792 0.045143 -0.028862
v 0.035052 0.006250 -0.035052
v 0.044548 0.054214 -0.044548
v 0.070792 0.045143 0.028862
v 0.053134 0.000000 0.024244
v 0.046611 0.161689 -0.046611
v 0.024244 0.148754 -0.084032
v 0.049365 0.118980 -0.049365
v 0.028862 0.107124 -0.083666
v -0.053134 0.000000 -0.024244
v -0.053134 0.000000 0.024244
v -0.035052 0.006250 -0.035052
v -0.035052 0.006250 0.035052
v -0.012573 0.014020 0.012573
v -0.012573 0.014020 -0.012573
v 0.083666 0.107124 -0.028862
v -0.024244 0.000000 -0.053134
v -0.044548 0.054214 -0.044548
v -0.028862 0.045143 -0.070792
v -0.028862 0.107124 -0.083666
v -0.024244 0.148754 -0.084032
v 0.024244 0.000000 -0.053134
v 0.028862 0.045143 -0.070792
v 0.084032 0.148754 -0.024244
v -0.070792 0.045143 -0.028862
v -0.083666 0.107124 -0.028862
v -0.049365 0.118980 -0.049365
v -0.024244 0.148754 0.084032
v -0.028862 0.107124 0.083666
v -0.046611 0.161689 0.046611
v -0.084032 0.148754 -0.024244
v -0.046611 0.161689 -0.046611
v 0.044548 0.054214 0.044548
v 0.083666 0.107124 0.028862
v 0.049365 0.118980 0.049365
v -0.024244 0.000000 0.053134
v 0.024244 0.000000 0.053134
v 0.012573 0.014020 0.012573
v 0.035052 0.006250 0.035052
v 0.028862 0.107124 0.083666
v 0.028862 0.045143 0.070792
v 0.012573 0.014020 -0.012573
v 0.084032 0.148754 0.024244
v 0.046611 0.161689 0.046611
v 0.024244 0.148754 0.084032
v -0.084032 0.148754 0.024244
v 0.046611 0.161689 -0.000000
v -0.000000 0.161689 -0.046611
v -0.046611 0.161689 0.000000
v -0.028862 0.045143 0.070792
v 0.021736 0.147099 -0.021736
v -0.021736 0.147099 -0.021736
v -0.021736 0.147099 0.021736
v 0.000000 0.161689 0.046611
v 0.021736 0.147099 0.021736
vn -0.4846 -0.1007 0.8689
vn 0.4291 -0.2564 -0.8661
vn 0.9313 -0.3643 -0.0000
vn 0.8412 0.0886 -0.5334
vn 0.3267 -0.9451 -0.0000
vn 0.4846 -0.1007 -0.8689
vn -0.8661 -0.2564 -0.4291
vn -0.0000 -0.0088 -1.0000
vn -0.0000 -0.3643 -0.9313
vn 0.5334 0.0886 -0.8412
vn -0.4846 -0.1007 -0.8689
vn 0.8661 -0.2564 -0.4291
vn -0.8412 0.0886 0.5334
vn -0.5334 0.0886 -0.8412
vn 0.4846 -0.1007 0.8689
vn -0.4291 -0.2564 0.8661
vn -0.0000 -0.9451 -0.3267
vn 0.8689 -0.1007 0.4846
vn 0.8661 -0.2564 0.4291
vn -0.0000 -1.0000 -0.0000
vn -0.8412 0.0886 -0.5334
vn 0.5334 0.0886 0.8412
vn 1.0000 -0.0088 -0.0000
vn 0.4291 -0.2564 0.8661
vn 0.8412 0.0886 0.5334
vn -0.0000 -0.9451 0.3267
vn -0.4291 -0.2564 -0.8661
vn 0.9791 -0.2034 -0.0000
vn -0.0000 -0.2034 -0.9791
vn -0.5334 0.0886 0.8412
vn 0.8689 -0.1007 -0.4846
vn -0.3267 -0.9451 -0.0000
vn 0.3267 0.9451 -0.0000
vn -0.0000 0.9451 -0.3267
vn -0.3267 0.9451 -0.0000
vn -0.0000 -0.0088 1.0000
vn -0.9313 -0.3643 -0.0000
vn -0.8661 -0.2564 0.4291
vn -0.0000 -0.2034 0.9791
vn -0.0000 0.8626 0.5059
vn -1.0000 -0.0088 -0.0000
vn -0.8689 -0.1007 0.4846
vn -0.8689 -0.1007 -0.4846
vn -0.0000 -0.3643 0.9313
vn 0.5059 0.8626 -0.0000
vn -0.0000 0.9451 0.3267
vn -0.9791 -0.2034 -0.0000
vn -0.5059 0.8626 -0.0000
vn -0.0000 0.8626 -0.5059
vn -0.0000 1.0000 -0.0000
vt -1.880706 2.004791
vt -1.993033 2.296204
vt 1.136305 2.670430
vt 1.136305 2.306962
vt -2.323380 4.457434
vt -2.173252 3.959522
vt 1.136305 4.246302
vt 1.136305 4.799233
vt -0.677540 2.363748
vt -0.793059 2.665692
vt 0.793059 2.665692
vt 0.677540 2.363748
vt -0.750792 4.926605
vt 0.600503 4.428154
vt -0.600503 4.428154
vt 0.750792 4.926605
vt -1.450807 0.457433
vt 0.954496 0.762018
vt -0.954496 -1.977128
vt -1.993033 2.296204
vt 1.136305 2.670430
vt -1.880706 2.004791
vt 1.136305 2.306962
vt -0.624007 0.712016
vt 0.624007 0.712016
vt 1.380010 -1.223903
vt -1.380010 -1.223902
vt -0.793059 2.665692
vt -0.677540 2.363748
vt 0.793059 2.665692
vt 0.677540 2.363748
vt -1.136305 2.670430
vt 1.880706 2.004791
vt 1.993033 2.296204
vt -1.136305 2.306962
vt -0.954496 0.762018
vt 1.450807 0.457433
vt 0.954496 -1.977128
vt 0.567011 6.116219
vt -0.567011 6.116219
vt 1.835095 0.345194
vt -1.835095 0.345194
vt 1.835095 4.803362
vt -1.835095 4.803362
vt 2.282798 5.604965
vt -0.954496 5.885335
vt -0.954496 -1.213604
vt 0.600503 4.428154
vt -0.750792 4.926605
vt -0.600503 4.428154
vt 0.750792 4.926605
vt 2.173252 3.959522
vt -1.136305 4.246302
vt -1.136305 4.799233
vt 2.323380 4.457434
vt 0.954496 -1.977128
vt 1.450807 0.457433
vt -0.954496 0.762018
vt -0.954496 -1.977128
vt -1.450807 0.457433
vt 0.954496 0.762018
vt 1.380010 -1.223902
vt -0.624007 0.712016
vt -1.380010 -1.223902
vt 0.624007 0.712016
vt -1.380010 -1.223902
vt -0.624007 0.712016
vt 1.380010 -1.223902
vt 0.624007 0.712016
vt -0.495004 -0.287519
vt 0.495004 -0.287519
vt 0.495004 -0.495004
vt 0.495004 -0.287519
vt 0.495004 0.495004
vt -0.495004 -0.287519
vt -2.323380 4.457434
vt -2.173252 3.959522
vt 1.136305 4.246302
vt 1.136305 4.799233
vt -1.450807 0.457433
vt 0.954496 0.762018
vt -0.954496 -1.977128
vt -0.793059 2.665692
vt 0.677540 2.363748
vt 0.793059 2.665692
vt -0.677540 2.363748
vt -1.993033 2.296204
vt 1.136305 2.670430
vt 1.136305 2.306962
vt -1.880706 2.004791
vt 1.136305 4.246302
vt -2.173252 3.959522
vt 1.136305 4.799233
vt -2.323380 4.457434
vt 0.954496 5.885335
vt -2.282798 5.604965
vt 0.954496 -1.213604
vt -0.954496 0.762018
vt 1.450807 0.457433
vt 0.954496 -1.977128
vt -1.136305 2.670430
vt 1.993033 2.296204
vt -1.136305 2.306962
vt 1.880706 2.004791
vt -2.282798 5.604965
vt 0.954496 5.885335
vt 0.954496 -1.213604
vt 1.880706 2.004791
vt 1.993033 2.296204
vt -1.136305 2.670430
vt -1.136305 2.306962
vt 2.323380 4.457434
vt 2.173252 3.959522
vt -1.136305 4.246302
vt -1.136305 4.799233
vt 0.750792 4.926605
vt 0.600503 4.428154
vt -0.600503 4.428154
vt -0.750792 4.926605
vt 2.282798 5.604965
vt -0.954496 5.885335
vt -0.954496 -1.213604
vt 2.173252 3.959522
vt -1.136305 4.246302
vt -1.136305 4.799233
vt 2.323380 4.457434
vt 0.567011 6.116219
vt -0.567011 6.116219
vt 1.835095 0.345194
vt -1.835095 4.803362
vt -1.835095 0.345194
vt 1.835095 4.803362
vt 2.282798 5.604965
vt -0.954496 -1.213604
vt -0.954496 5.885335
vt 0.567011 6.116219
vt -0.567011 6.116219
vt 1.835095 0.345195
vt -1.835095 0.345194
vt -1.835095 4.803362
vt 1.835095 4.803362
vt 0.677540 2.363748
vt -0.677540 2.363748
vt -0.793059 2.665692
vt 0.793059 2.665692
vt 2.323380 4.457434
vt 2.173252 3.959522
vt -1.136305 4.246302
vt -1.136305 4.799233
vt 0.750792 4.926605
vt -0.750792 4.926605
vt 0.600503 4.428154
vt -0.600503 4.428154
vt 0.954496 -1.977128
vt 1.450807 0.457433
vt -0.954496 0.762018
vt -0.954496 -1.977128
vt -1.450807 0.457433
vt 0.954496 0.762018
vt -0.495004 -0.287519
vt -0.495004 -0.495004
vt 0.495004 -0.287519
vt -1.380010 -1.223902
vt -0.624007 0.712016
vt 0.624007 0.712016
vt 1.380010 -1.223902
vt -2.323380 4.457434
vt -2.173252 3.959522
vt 1.136305 4.246302
vt 1.136305 4.799233
vt -1.880706 2.004791
vt -1.993033 2.296204
vt 1.136305 2.306962
vt 1.136305 2.670430
vt -0.495004 0.495004
vt 0.495004 -0.287519
vt -0.495004 -0.287519
vt 2.282798 5.604965
vt -0.954496 5.885335
vt -0.954496 -1.213604
vt 0.567011 6.116219
vt -0.567011 6.116219
vt -1.835095 0.345195
vt 1.835095 0.345194
vt 1.835095 4.803362
vt -1.835095 4.803362
vt -2.282798 5.604965
vt 0.954496 5.885335
vt 0.954496 -1.213604
vt -2.282798 5.604965
vt 0.954496 -1.213604
vt 0.954496 5.885335
vt 0.000000 0.345194
vt -0.000000 4.803362
vt 0.000000 0.345194
vt 0.000000 4.803362
vt 0.000000 0.345194
vt -0.000000 4.803362
vt 1.993033 2.296204
vt -1.136305 2.306962
vt 1.880706 2.004791
vt -1.136305 2.670430
vt 0.855731 3.667986
vt -0.855731 3.667986
vt -0.855731 3.667986
vt 0.855731 3.667986
vt -0.855731 3.667986
vt 0.855731 3.667986
vt -0.000000 0.345194
vt 0.000000 4.803362
vt -0.855731 3.667986
vt 0.855731 3.667986
s 0
usemtl red
f 3/9/1 2/5/1 1/1/1
f 2/5/1 3/9/1 4/13/1
f 7/24/2 6/20/2 5/17/2
f 6/20/2 7/24/2 8/28/2
f 10/36/3 6/21/3 9/32/3
f 6/21/3 10/36/3 5/18/3
f 13/48/4 12/45/4 11/39/4
f 12/45/4 13/48/4 14/52/4
f 17/62/5 16/59/5 15/56/5
f 16/59/5 17/62/5 18/66/5
f 18/66/5 17/62/5 19/70/5
f 19/70/5 17/62/5 20/73/5
f 8/29/6 21/76/6 6/22/6
f 21/76/6 8/29/6 13/49/6
f 23/83/7 22/80/7 17/63/7
f 22/80/7 23/83/7 24/87/7
f 26/95/8 14/53/8 25/91/8
f 14/53/8 26/95/8 12/46/8
f 24/88/9 27/98/9 22/81/9
f 27/98/9 24/88/9 28/101/9
f 13/50/10 29/105/10 21/77/10
f 29/105/10 13/50/10 11/40/10
f 31/112/11 23/84/11 30/108/11
f 23/84/11 31/112/11 32/116/11
f 27/99/12 8/30/12 7/25/12
f 8/30/12 27/99/12 28/102/12
f 35/127/13 34/123/13 33/120/13
f 34/123/13 35/127/13 4/14/13
f 36/133/14 32/117/14 31/113/14
f 32/117/14 36/133/14 37/136/14
f 39/146/15 38/142/15 9/33/15
f 38/142/15 39/146/15 40/150/15
f 18/67/16 1/2/16 16/60/16
f 1/2/16 18/67/16 3/10/16
f 19/71/17 41/154/17 18/68/17
f 41/154/17 19/71/17 42/157/17
f 42/157/17 19/71/17 43/160/17
f 42/157/17 43/160/17 44/163/17
f 46/171/18 40/151/18 45/167/18
f 40/151/18 46/171/18 38/143/18
f 42/158/19 38/144/19 46/172/19
f 38/144/19 42/158/19 44/164/19
f 47/175/20 19/72/20 20/74/20
f 19/72/20 47/175/20 43/161/20
f 26/96/21 32/118/21 37/137/21
f 32/118/21 26/96/21 25/92/21
f 48/178/22 40/152/22 39/147/22
f 40/152/22 48/178/22 49/181/22
f 21/78/23 48/179/23 39/148/23
f 48/179/23 21/78/23 29/106/23
f 9/34/24 44/165/24 10/37/24
f 44/165/24 9/34/24 38/145/24
f 45/168/25 49/182/25 50/187/25
f 49/182/25 45/168/25 40/153/25
f 22/82/26 20/75/26 17/64/26
f 20/75/26 22/82/26 27/100/26
f 20/75/26 27/100/26 47/176/26
f 47/176/26 27/100/26 7/26/26
f 30/109/27 17/65/27 15/57/27
f 17/65/27 30/109/27 23/85/27
f 6/23/28 39/149/28 9/35/28
f 39/149/28 6/23/28 21/79/28
f 25/93/29 28/103/29 24/89/29
f 28/103/29 25/93/29 14/54/29
f 4/15/30 51/190/30 2/6/30
f 51/190/30 4/15/30 35/128/30
f 28/104/31 13/51/31 8/31/31
f 13/51/31 28/104/31 14/55/31
f 7/27/32 43/162/32 47/177/32
f 43/162/32 7/27/32 44/166/32
f 44/166/32 7/27/32 5/19/32
f 44/166/32 5/19/32 10/38/32
f 52/193/33 29/107/33 11/41/33
f 29/107/33 52/193/33 49/183/33
f 29/107/33 49/183/33 48/180/33
f 53/195/34 26/97/34 37/138/34
f 26/97/34 53/195/34 12/47/34
f 12/47/34 53/195/34 11/42/34
f 35/129/35 36/134/35 51/191/35
f 36/134/35 35/129/35 54/197/35
f 36/134/35 54/197/35 37/139/35
f 50/188/36 34/124/36 45/169/36
f 34/124/36 50/188/36 33/121/36
f 30/110/37 16/61/37 1/3/37
f 16/61/37 30/110/37 15/58/37
f 3/11/38 41/155/38 55/199/38
f 41/155/38 3/11/38 18/69/38
f 45/170/39 55/200/39 46/173/39
f 55/200/39 45/170/39 34/125/39
f 11/43/40 53/196/40 56/203/40
f 53/196/40 37/140/40 57/205/40
f 51/192/41 31/114/41 2/7/41
f 31/114/41 51/192/41 36/135/41
f 4/16/42 55/201/42 34/126/42
f 55/201/42 4/16/42 3/12/42
f 32/119/43 24/90/43 23/86/43
f 24/90/43 32/119/43 25/94/43
f 46/174/44 41/156/44 42/159/44
f 41/156/44 46/174/44 55/202/44
f 58/207/45 54/198/45 35/130/45
f 57/206/45 37/141/45 54/198/45
f 33/122/46 59/209/46 35/131/46
f 59/209/46 33/122/46 50/189/46
f 59/209/46 50/189/46 49/184/46
f 31/115/47 1/4/47 2/8/47
f 1/4/47 31/115/47 30/111/47
f 52/194/48 11/44/48 56/204/48
f 49/185/48 52/194/48 60/212/48
f 49/186/49 60/211/49 59/210/49
f 59/210/49 58/208/49 35/132/49
f 57/206/50 58/207/50 60/211/50 56/204/50
f 56/203/40 53/196/40 57/205/40
f 57/206/45 54/198/45 58/207/45
f 59/210/49 60/211/49 58/208/49
f 56/204/48 60/212/48 52/194/48
