# Blender 3.4.1
# www.blender.org
mtllib pepperBody.mtl
o paprika
v -0.035396 0.022572 0.014431
v -0.041833 0.053562 0.014431
v -0.022274 0.027107 0.022274
v -0.024682 0.059490 0.024682
v 0.026567 0.000000 -0.012122
v 0.035396 0.022572 -0.014431
v 0.017526 0.003125 -0.017526
v 0.022274 0.027107 -0.022274
v 0.035396 0.022572 0.014431
v 0.026567 0.000000 0.012122
v 0.023305 0.080844 -0.023305
v 0.012122 0.074377 -0.042016
v 0.024682 0.059490 -0.024682
v 0.014431 0.053562 -0.041833
v -0.026567 0.000000 -0.012122
v -0.026567 0.000000 0.012122
v -0.017526 0.003125 -0.017526
v -0.017526 0.003125 0.017526
v -0.006287 0.007010 0.006287
v -0.006287 0.007010 -0.006287
v 0.041833 0.053562 -0.014431
v -0.012122 0.000000 -0.026567
v -0.022274 0.027107 -0.022274
v -0.014431 0.022572 -0.035396
v -0.014431 0.053562 -0.041833
v -0.012122 0.074377 -0.042016
v 0.012122 0.000000 -0.026567
v 0.014431 0.022572 -0.035396
v 0.042016 0.074377 -0.012122
v -0.035396 0.022572 -0.014431
v -0.041833 0.053562 -0.014431
v -0.024682 0.059490 -0.024682
v -0.012122 0.074377 0.042016
v -0.014431 0.053562 0.041833
v -0.023305 0.080844 0.023305
v -0.042016 0.074377 -0.012122
v -0.023305 0.080844 -0.023305
v 0.022274 0.027107 0.022274
v 0.041833 0.053562 0.014431
v 0.024682 0.059490 0.024682
v -0.012122 0.000000 0.026567
v 0.012122 0.000000 0.026567
v 0.006287 0.007010 0.006287
v 0.017526 0.003125 0.017526
v 0.014431 0.053562 0.041833
v 0.014431 0.022572 0.035396
v 0.006287 0.007010 -0.006287
v 0.042016 0.074377 0.012122
v 0.023305 0.080844 0.023305
v 0.012122 0.074377 0.042016
v -0.042016 0.074377 0.012122
v 0.023305 0.080844 0.000000
v 0.000000 0.080844 -0.023305
v -0.023305 0.080844 0.000000
v -0.014431 0.022572 0.035396
v 0.010868 0.073550 -0.010868
v -0.010868 0.073550 -0.010868
v -0.010868 0.073550 0.010868
v 0.000000 0.080844 0.023305
v 0.010868 0.073550 0.010868
vn -0.4846 -0.1007 0.8689
vn 0.4291 -0.2564 -0.8661
vn 0.4290 -0.2564 -0.8661
vn 0.9313 -0.3643 -0.0000
vn 0.8412 0.0886 -0.5334
vn 0.3267 -0.9451 -0.0000
vn 0.4846 -0.1007 -0.8689
vn -0.8661 -0.2564 -0.4291
vn -0.8661 -0.2564 -0.4290
vn -0.0000 -0.0088 -1.0000
vn -0.0000 -0.3643 -0.9313
vn 0.5334 0.0886 -0.8412
vn -0.4846 -0.1007 -0.8689
vn 0.8661 -0.2564 -0.4291
vn 0.8661 -0.2564 -0.4290
vn -0.8412 0.0886 0.5334
vn -0.5334 0.0886 -0.8412
vn 0.4846 -0.1007 0.8689
vn -0.4291 -0.2564 0.8661
vn -0.4290 -0.2564 0.8661
vn -0.0000 -0.9451 -0.3267
vn 0.8689 -0.1007 0.4846
vn 0.8661 -0.2564 0.4290
vn 0.8661 -0.2564 0.4291
vn -0.0000 -1.0000 -0.0000
vn -0.8412 0.0886 -0.5334
vn 0.5334 0.0886 0.8412
vn 1.0000 -0.0088 -0.0000
vn 0.4291 -0.2564 0.8661
vn 0.4290 -0.2564 0.8661
vn 0.8412 0.0886 0.5334
vn -0.0000 -0.9451 0.3267
vn -0.4291 -0.2564 -0.8661
vn -0.4290 -0.2564 -0.8661
vn 0.9791 -0.2034 -0.0000
vn -0.0000 -0.2034 -0.9791
vn -0.5334 0.0886 0.8412
vn 0.8689 -0.1007 -0.4846
vn -0.3267 -0.9451 -0.0000
vn 0.3267 0.9451 -0.0000
vn -0.0000 0.9451 -0.3267
vn -0.3267 0.9451 -0.0000
vn -0.0000 -0.0088 1.0000
vn -0.9313 -0.3643 -0.0000
vn -0.8661 -0.2564 0.4290
vn -0.8661 -0.2564 0.4291
vn -0.0000 -0.2034 0.9791
vn -0.0000 0.8626 0.5059
vn -1.0000 -0.0088 -0.0000
vn -0.8689 -0.1007 0.4846
vn -0.8689 -0.1007 -0.4846
vn -0.0000 -0.3643 0.9313
vn 0.5059 0.8626 -0.0000
vn -0.0000 0.9451 0.3267
vn -0.9791 -0.2034 -0.0000
vn -0.5059 0.8626 -0.0000
vn -0.0000 0.8626 -0.5059
vn -0.0000 1.0000 -0.0000
vt -1.880706 2.004791
vt -1.993033 2.296204
vt 1.136305 2.670430
vt 1.136305 2.306962
vt -2.323380 4.457434
vt -2.173252 3.959522
vt 1.136305 4.246302
vt 1.136305 4.799233
vt -0.677540 2.363748
vt -0.793059 2.665692
vt 0.793059 2.665692
vt 0.677540 2.363748
vt -0.750792 4.926605
vt 0.600503 4.428154
vt -0.600503 4.428154
vt 0.750792 4.926605
vt -1.450807 0.457433
vt 0.954496 0.762018
vt -0.954496 -1.977128
vt -1.993033 2.296204
vt 1.136305 2.670430
vt -1.880706 2.004791
vt 1.136305 2.306962
vt -0.624007 0.712016
vt 0.624007 0.712016
vt 1.380010 -1.223903
vt -1.380010 -1.223902
vt -0.793059 2.665692
vt -0.677540 2.363748
vt 0.793059 2.665692
vt 0.677540 2.363748
vt -1.136305 2.670430
vt 1.880706 2.004791
vt 1.993033 2.296204
vt -1.136305 2.306962
vt -0.954496 0.762018
vt 1.450807 0.457433
vt 0.954496 -1.977128
vt 0.567011 6.116219
vt -0.567011 6.116219
vt 1.835095 0.345194
vt -1.835095 0.345194
vt 1.835095 4.803362
vt -1.835095 4.803362
vt 2.282798 5.604965
vt -0.954496 5.885335
vt -0.954496 -1.213604
vt 0.600503 4.428154
vt -0.750792 4.926605
vt -0.600503 4.428154
vt 0.750792 4.926605
vt 2.173252 3.959522
vt -1.136305 4.246302
vt -1.136305 4.799233
vt 2.323380 4.457434
vt 0.954496 -1.977128
vt 1.450807 0.457433
vt -0.954496 0.762018
vt -0.954496 -1.977128
vt -1.450807 0.457433
vt 0.954496 0.762018
vt 1.380010 -1.223902
vt -0.624007 0.712016
vt -1.380010 -1.223902
vt 0.624007 0.712016
vt -1.380010 -1.223902
vt -0.624007 0.712016
vt 1.380010 -1.223902
vt 0.624007 0.712016
vt -0.495004 -0.287519
vt 0.495004 -0.287519
vt 0.495004 -0.495004
vt 0.495004 -0.287519
vt 0.495004 0.495004
vt -0.495004 -0.287519
vt -2.323380 4.457434
vt -2.173252 3.959522
vt 1.136305 4.246302
vt 1.136305 4.799233
vt -1.450807 0.457433
vt 0.954496 0.762018
vt -0.954496 -1.977128
vt -0.793059 2.665692
vt 0.677540 2.363748
vt 0.793059 2.665692
vt -0.677540 2.363748
vt -1.993033 2.296204
vt 1.136305 2.670430
vt 1.136305 2.306962
vt -1.880706 2.004791
vt 1.136305 4.246302
vt -2.173252 3.959522
vt 1.136305 4.799233
vt -2.323380 4.457434
vt 0.954496 5.885335
vt -2.282798 5.604965
vt 0.954496 -1.213604
vt -0.954496 0.762018
vt 1.450807 0.457433
vt 0.954496 -1.977128
vt -1.136305 2.670430
vt 1.993033 2.296204
vt -1.136305 2.306962
vt 1.880706 2.004791
vt -2.282798 5.604965
vt 0.954496 5.885335
vt 0.954496 -1.213604
vt 1.880706 2.004791
vt 1.993033 2.296204
vt -1.136305 2.670430
vt -1.136305 2.306962
vt 2.323380 4.457434
vt 2.173252 3.959522
vt -1.136305 4.246302
vt -1.136305 4.799233
vt 0.750792 4.926605
vt 0.600503 4.428154
vt -0.600503 4.428154
vt -0.750792 4.926605
vt 2.282798 5.604965
vt -0.954496 5.885335
vt -0.954496 -1.213604
vt 2.173252 3.959522
vt -1.136305 4.246302
vt -1.136305 4.799233
vt 2.323380 4.457434
vt 0.567011 6.116219
vt -0.567011 6.116219
vt 1.835095 0.345194
vt -1.835095 4.803362
vt -1.835095 0.345194
vt 1.835095 4.803362
vt 2.282798 5.604965
vt -0.954496 -1.213604
vt -0.954496 5.885335
vt 0.567011 6.116219
vt -0.567011 6.116219
vt 1.835095 0.345195
vt -1.835095 0.345194
vt -1.835095 4.803362
vt 1.835095 4.803362
vt 0.677540 2.363748
vt -0.677540 2.363748
vt -0.793059 2.665692
vt 0.793059 2.665692
vt 2.323380 4.457434
vt 2.173252 3.959522
vt -1.136305 4.246302
vt -1.136305 4.799233
vt 0.750792 4.926605
vt -0.750792 4.926605
vt 0.600503 4.428154
vt -0.600503 4.428154
vt 0.954496 -1.977128
vt 1.450807 0.457433
vt -0.954496 0.762018
vt -0.954496 -1.977128
vt -1.450807 0.457433
vt 0.954496 0.762018
vt -0.495004 -0.287519
vt -0.495004 -0.495004
vt 0.495004 -0.287519
vt -1.380010 -1.223902
vt -0.624007 0.712016
vt 0.624007 0.712016
vt 1.380010 -1.223902
vt -2.323380 4.457434
vt -2.173252 3.959522
vt 1.136305 4.246302
vt 1.136305 4.799233
vt -1.880706 2.004791
vt -1.993033 2.296204
vt 1.136305 2.306962
vt 1.136305 2.670430
vt -0.495004 0.495004
vt 0.495004 -0.287519
vt -0.495004 -0.287519
vt 2.282798 5.604965
vt -0.954496 5.885335
vt -0.954496 -1.213604
vt 0.567011 6.116219
vt -0.567011 6.116219
vt -1.835095 0.345195
vt 1.835095 0.345194
vt 1.835095 4.803362
vt -1.835095 4.803362
vt -2.282798 5.604965
vt 0.954496 5.885335
vt 0.954496 -1.213604
vt -2.282798 5.604965
vt 0.954496 -1.213604
vt 0.954496 5.885335
vt 0.000000 0.345194
vt -0.000000 4.803362
vt 0.000000 0.345194
vt 0.000000 4.803362
vt 0.000000 0.345194
vt -0.000000 4.803362
vt 1.993033 2.296204
vt -1.136305 2.306962
vt 1.880706 2.004791
vt -1.136305 2.670430
vt 0.855731 3.667986
vt -0.855731 3.667986
vt -0.855731 3.667986
vt 0.855731 3.667986
vt -0.855731 3.667986
vt 0.855731 3.667986
vt -0.000000 0.345194
vt 0.000000 4.803362
vt -0.855731 3.667986
vt 0.855731 3.667986
s 0
usemtl red.004
f 3/9/1 2/5/1 1/1/1
f 2/5/1 3/9/1 4/13/1
f 7/24/2 6/20/2 5/17/2
f 6/20/3 7/24/3 8/28/3
f 10/36/4 6/21/4 9/32/4
f 6/21/4 10/36/4 5/18/4
f 13/48/5 12/45/5 11/39/5
f 12/45/5 13/48/5 14/52/5
f 17/62/6 16/59/6 15/56/6
f 16/59/6 17/62/6 18/66/6
f 18/66/6 17/62/6 19/70/6
f 19/70/6 17/62/6 20/73/6
f 8/29/7 21/76/7 6/22/7
f 21/76/7 8/29/7 13/49/7
f 23/83/8 22/80/8 17/63/8
f 22/80/9 23/83/9 24/87/9
f 26/95/10 14/53/10 25/91/10
f 14/53/10 26/95/10 12/46/10
f 24/88/11 27/98/11 22/81/11
f 27/98/11 24/88/11 28/101/11
f 13/50/12 29/105/12 21/77/12
f 29/105/12 13/50/12 11/40/12
f 31/112/13 23/84/13 30/108/13
f 23/84/13 31/112/13 32/116/13
f 27/99/14 8/30/14 7/25/14
f 8/30/15 27/99/15 28/102/15
f 35/127/16 34/123/16 33/120/16
f 34/123/16 35/127/16 4/14/16
f 36/133/17 32/117/17 31/113/17
f 32/117/17 36/133/17 37/136/17
f 39/146/18 38/142/18 9/33/18
f 38/142/18 39/146/18 40/150/18
f 18/67/19 1/2/19 16/60/19
f 1/2/20 18/67/20 3/10/20
f 19/71/21 41/154/21 18/68/21
f 41/154/21 19/71/21 42/157/21
f 42/157/21 19/71/21 43/160/21
f 42/157/21 43/160/21 44/163/21
f 46/171/22 40/151/22 45/167/22
f 40/151/22 46/171/22 38/143/22
f 42/158/23 38/144/23 46/172/23
f 38/144/24 42/158/24 44/164/24
f 47/175/25 19/72/25 20/74/25
f 19/72/25 47/175/25 43/161/25
f 26/96/26 32/118/26 37/137/26
f 32/118/26 26/96/26 25/92/26
f 48/178/27 40/152/27 39/147/27
f 40/152/27 48/178/27 49/181/27
f 21/78/28 48/179/28 39/148/28
f 48/179/28 21/78/28 29/106/28
f 9/34/29 44/165/29 10/37/29
f 44/165/30 9/34/30 38/145/30
f 45/168/31 49/182/31 50/187/31
f 49/182/31 45/168/31 40/153/31
f 22/82/32 20/75/32 17/64/32
f 20/75/32 22/82/32 27/100/32
f 20/75/32 27/100/32 47/176/32
f 47/176/32 27/100/32 7/26/32
f 30/109/33 17/65/33 15/57/33
f 17/65/34 30/109/34 23/85/34
f 6/23/35 39/149/35 9/35/35
f 39/149/35 6/23/35 21/79/35
f 25/93/36 28/103/36 24/89/36
f 28/103/36 25/93/36 14/54/36
f 4/15/37 51/190/37 2/6/37
f 51/190/37 4/15/37 35/128/37
f 28/104/38 13/51/38 8/31/38
f 13/51/38 28/104/38 14/55/38
f 7/27/39 43/162/39 47/177/39
f 43/162/39 7/27/39 44/166/39
f 44/166/39 7/27/39 5/19/39
f 44/166/39 5/19/39 10/38/39
f 52/193/40 29/107/40 11/41/40
f 29/107/40 52/193/40 49/183/40
f 29/107/40 49/183/40 48/180/40
f 53/195/41 26/97/41 37/138/41
f 26/97/41 53/195/41 12/47/41
f 12/47/41 53/195/41 11/42/41
f 35/129/42 36/134/42 51/191/42
f 36/134/42 35/129/42 54/197/42
f 36/134/42 54/197/42 37/139/42
f 50/188/43 34/124/43 45/169/43
f 34/124/43 50/188/43 33/121/43
f 30/110/44 16/61/44 1/3/44
f 16/61/44 30/110/44 15/58/44
f 3/11/45 41/155/45 55/199/45
f 41/155/46 3/11/46 18/69/46
f 45/170/47 55/200/47 46/173/47
f 55/200/47 45/170/47 34/125/47
f 11/43/48 53/196/48 56/203/48
f 53/196/48 37/140/48 57/205/48
f 51/192/49 31/114/49 2/7/49
f 31/114/49 51/192/49 36/135/49
f 4/16/50 55/201/50 34/126/50
f 55/201/50 4/16/50 3/12/50
f 32/119/51 24/90/51 23/86/51
f 24/90/51 32/119/51 25/94/51
f 46/174/52 41/156/52 42/159/52
f 41/156/52 46/174/52 55/202/52
f 58/207/53 54/198/53 35/130/53
f 57/206/53 37/141/53 54/198/53
f 33/122/54 59/209/54 35/131/54
f 59/209/54 33/122/54 50/189/54
f 59/209/54 50/189/54 49/184/54
f 31/115/55 1/4/55 2/8/55
f 1/4/55 31/115/55 30/111/55
f 52/194/56 11/44/56 56/204/56
f 49/185/56 52/194/56 60/212/56
f 49/186/57 60/211/57 59/210/57
f 59/210/57 58/208/57 35/132/57
f 57/206/58 58/207/58 60/211/58 56/204/58
f 56/203/48 53/196/48 57/205/48
f 57/206/53 54/198/53 58/207/53
f 59/210/57 60/211/57 58/208/57
f 56/204/56 60/212/56 52/194/56
