# Blender 3.4.1
# www.blender.org
mtllib pepperSeeds.mtl
o paprika.002
v -0.010704 -0.006826 -0.004364
v -0.012651 -0.016198 -0.004364
v 0.008034 -0.000000 0.003666
v 0.010704 -0.006826 0.004364
v 0.010704 -0.006826 -0.004364
v 0.008034 0.000000 -0.003666
v 0.007048 -0.024448 0.007048
v 0.003666 -0.022492 0.012706
v 0.004364 -0.016198 0.012651
v -0.008034 -0.000000 0.003666
v -0.008034 0.000000 -0.003666
v 0.012651 -0.016198 0.004364
v -0.003666 -0.000000 0.008034
v -0.004364 -0.006826 0.010704
v -0.004364 -0.016198 0.012651
v -0.003666 -0.022492 0.012706
v 0.003666 -0.000000 0.008034
v 0.004364 -0.006826 0.010704
v 0.012706 -0.022492 0.003666
v -0.010704 -0.006826 0.004364
v -0.012651 -0.016198 0.004364
v -0.003666 -0.022492 -0.012706
v -0.004364 -0.016198 -0.012651
v -0.007048 -0.024448 -0.007048
v -0.012706 -0.022492 0.003666
v -0.007048 -0.024448 0.007048
v 0.012651 -0.016198 -0.004364
v -0.003666 0.000000 -0.008034
v 0.003666 0.000000 -0.008034
v 0.004364 -0.016198 -0.012651
v 0.004364 -0.006826 -0.010704
v 0.012706 -0.022492 -0.003666
v 0.007048 -0.024448 -0.007048
v 0.003666 -0.022492 -0.012706
v -0.012706 -0.022492 -0.003666
v 0.007048 -0.024448 -0.000000
v 0.000000 -0.024448 0.007048
v -0.007048 -0.024448 -0.000000
v -0.004364 -0.006826 -0.010704
v 0.000000 -0.024448 -0.007048
vn 0.9313 0.3643 -0.0000
vn -0.0000 0.0088 1.0000
vn -0.0000 0.3643 0.9313
vn 0.7053 -0.0720 0.7053
vn 0.6996 0.1453 0.6996
vn 0.5459 -0.6355 0.5459
vn -0.5459 -0.6355 0.5459
vn -0.5459 -0.6355 -0.5459
vn 0.5459 -0.6355 -0.5459
vn 0.6996 0.1453 -0.6996
vn -0.7053 -0.0720 0.7053
vn 0.7053 -0.0720 -0.7053
vn 1.0000 0.0088 -0.0000
vn 0.6676 0.3294 -0.6676
vn -0.6996 0.1453 0.6996
vn 0.9791 0.2034 -0.0000
vn -0.0000 0.2034 0.9791
vn -0.7053 -0.0720 -0.7053
vn 0.6676 0.3294 0.6676
vn 0.3267 -0.9451 -0.0000
vn -0.0000 -0.9451 0.3267
vn -0.3267 -0.9451 -0.0000
vn -0.0000 0.0088 -1.0000
vn -0.9313 0.3643 -0.0000
vn -0.6996 0.1453 -0.6996
vn -0.0000 0.2034 -0.9791
vn -0.0000 1.0000 -0.0000
vn -1.0000 0.0088 -0.0000
vn -0.6676 0.3294 -0.6676
vn -0.6676 0.3294 0.6676
vn -0.0000 0.3643 -0.9313
vn -0.0000 -0.9451 -0.3267
vn -0.9791 0.2034 -0.0000
vn -0.0000 -1.0000 -0.0000
vt 1.136305 2.670430
vt 1.136305 2.306962
vt 1.136305 4.246302
vt 1.136305 4.799233
vt 0.000000 0.000000
vt 0.954496 0.762018
vt 1.136305 2.306962
vt 1.136305 2.670430
vt -1.136305 2.670430
vt -1.136305 2.306962
vt -0.954496 0.762018
vt 1.835095 0.345194
vt -1.835095 0.345194
vt -0.954496 5.885335
vt -0.954496 -1.213604
vt -1.136305 4.246302
vt -1.136305 4.799233
vt -0.954496 0.762018
vt 0.954496 0.762018
vt 0.000000 0.000000
vt 1.136305 4.246302
vt 1.136305 4.799233
vt 0.954496 0.762018
vt 0.000000 0.000000
vt 1.136305 2.306962
vt 1.136305 2.670430
vt 1.136305 4.246302
vt 1.136305 4.799233
vt 0.954496 5.885335
vt 0.954496 -1.213604
vt -0.954496 0.762018
vt -1.136305 2.306962
vt -1.136305 2.670430
vt 0.954496 5.885335
vt 0.954496 -1.213604
vt -1.136305 2.670430
vt -1.136305 2.306962
vt -1.136305 4.246302
vt -1.136305 4.799233
vt -0.954496 5.885335
vt -0.954496 -1.213604
vt -1.136305 4.246302
vt -1.136305 4.799233
vt 1.835095 0.345194
vt -1.835095 0.345194
vt -0.954496 -1.213604
vt -0.954496 5.885335
vt 1.835095 0.345195
vt -1.835095 0.345194
vt -1.136305 4.246302
vt -1.136305 4.799233
vt -0.954496 0.762018
vt 0.954496 0.762018
vt 0.000000 0.000000
vt 1.136305 4.246302
vt 1.136305 4.799233
vt 1.136305 2.306962
vt 1.136305 2.670430
vt -0.954496 5.885335
vt 0.000000 0.000000
vt -0.954496 -1.213604
vt -1.835095 0.345195
vt 1.835095 0.345194
vt 0.954496 5.885335
vt 0.954496 -1.213604
vt 0.954496 -1.213604
vt 0.954496 5.885335
vt 0.000000 0.345194
vt 0.000000 0.345194
vt 0.000000 0.345194
vt -1.136305 2.306962
vt -1.136305 2.670430
vt -0.000000 0.345194
s 0
usemtl Material.010
f 6/11/1 4/8/1 5/9/1
f 4/8/1 6/11/1 3/6/1
f 16/29/2 9/16/2 15/27/2
f 9/16/2 16/29/2 8/14/2
f 14/26/3 17/31/3 13/23/3
f 17/31/3 14/26/3 18/33/3
f 8/14/4 19/34/4 12/22/4
f 12/22/4 9/17/4 8/14/4
f 9/17/5 12/22/5 4/8/5
f 9/17/5 4/8/5 18/32/5
f 8/14/6 7/12/6 19/34/6
f 26/49/7 16/29/7 25/46/7
f 22/40/8 24/44/8 35/67/8
f 33/62/9 34/64/9 32/61/9
f 27/51/10 31/58/10 5/9/10
f 15/28/11 25/47/11 16/29/11
f 21/39/11 25/47/11 15/28/11
f 27/51/12 32/60/12 30/56/12
f 12/21/13 32/59/13 27/50/13
f 32/59/13 12/21/13 19/34/13
f 5/9/14 31/58/14 29/54/14
f 5/9/14 29/54/14 6/11/14
f 30/55/12 32/60/12 34/64/12
f 31/58/10 27/51/10 30/56/10
f 14/26/15 21/39/15 15/28/15
f 20/36/15 21/39/15 14/26/15
f 4/7/16 27/51/16 5/10/16
f 27/51/16 4/7/16 12/22/16
f 15/28/17 18/32/17 14/25/17
f 18/32/17 15/28/17 9/17/17
f 2/4/18 22/40/18 35/67/18
f 23/43/18 22/40/18 2/4/18
f 4/8/19 3/5/19 18/33/19
f 18/33/19 3/5/19 17/31/19
f 36/68/20 19/35/20 7/12/20
f 19/35/20 36/68/20 33/62/20
f 19/35/20 33/62/20 32/61/20
f 37/69/21 16/30/21 26/48/21
f 16/30/21 37/69/21 8/15/21
f 8/15/21 37/69/21 7/13/21
f 24/44/22 25/46/22 35/66/22
f 25/46/22 24/44/22 38/70/22
f 25/46/22 38/70/22 26/49/22
f 34/64/23 23/42/23 30/55/23
f 23/42/23 34/64/23 22/40/23
f 20/36/24 11/19/24 1/1/24
f 11/19/24 20/36/24 10/18/24
f 2/4/25 1/1/25 23/43/25
f 23/43/25 1/1/25 39/71/25
f 30/56/26 39/71/26 31/57/26
f 39/71/26 30/56/26 23/43/26
f 13/24/27 17/31/27 10/18/27
f 35/67/28 21/38/28 2/3/28
f 21/38/28 35/67/28 25/47/28
f 11/20/29 39/72/29 1/1/29
f 39/72/29 11/20/29 28/52/29
f 14/26/30 13/24/30 20/36/30
f 20/36/30 13/24/30 10/18/30
f 31/58/31 28/52/31 29/53/31
f 28/52/31 31/58/31 39/72/31
f 11/20/27 10/18/27 17/31/27
f 11/20/27 17/31/27 28/52/27
f 22/41/32 40/73/32 24/45/32
f 40/73/32 22/41/32 34/65/32
f 40/73/32 34/65/32 33/63/32
f 21/39/33 1/2/33 2/4/33
f 1/2/33 21/39/33 20/37/33
f 17/31/27 3/5/27 28/52/27
f 29/54/27 28/52/27 3/6/27
f 6/11/27 29/54/27 3/6/27
f 38/70/34 36/68/34 37/69/34
f 36/68/34 38/70/34 40/73/34
f 38/70/34 24/45/34 40/73/34
f 37/69/34 26/49/34 38/70/34
f 36/68/34 7/13/34 37/69/34
f 36/68/34 40/73/34 33/63/34
