# Blender 3.4.1
# www.blender.org
mtllib pepperBodyCollider.mtl
o paprika
v -0.022274 0.027107 0.022274
v -0.024682 0.059490 0.024682
v -0.017526 0.003125 0.017526
v -0.006287 0.007010 0.006287
v -0.012122 0.074377 0.042016
v -0.014431 0.053562 0.041833
v -0.023305 0.080844 0.023305
v 0.022274 0.027107 0.022274
v 0.024682 0.059490 0.024682
v -0.012122 0.000000 0.026567
v 0.012122 0.000000 0.026567
v 0.006287 0.007010 0.006287
v 0.017526 0.003125 0.017526
v 0.014431 0.053562 0.041833
v 0.014431 0.022572 0.035396
v 0.023305 0.080844 0.023305
v 0.012122 0.074377 0.042016
v -0.014431 0.022572 0.035396
v -0.010868 0.073550 0.010868
v 0.000000 0.080844 0.023305
v 0.010868 0.073550 0.010868
vn -0.8412 0.0886 0.5334
vn -0.0000 -0.9451 -0.3267
vn 0.8689 -0.1007 0.4846
vn 0.8689 -0.1006 0.4846
vn 0.8661 -0.2564 0.4291
vn -0.7071 -0.0000 -0.7071
vn 0.8412 0.0886 0.5334
vn -0.0000 -0.0088 1.0000
vn -0.8661 -0.2564 0.4291
vn -0.0000 -0.2034 0.9791
vn -0.0000 0.0687 -0.9976
vn -0.8689 -0.1007 0.4846
vn -0.8689 -0.1006 0.4846
vn -0.0000 -0.3643 0.9313
vn 0.7071 -0.0000 -0.7071
vn -0.0000 0.9451 0.3267
vn -0.0000 0.8626 -0.5059
vt 0.793059 2.665692
vt 0.677540 2.363748
vt 0.600503 4.428154
vt 0.750792 4.926605
vt 0.624007 0.712016
vt 1.380010 -1.223902
vt 0.495004 -0.287519
vt 2.282798 5.604965
vt -0.954496 5.885335
vt -0.954496 -1.213604
vt 2.173252 3.959522
vt -1.136305 4.246302
vt -1.136305 4.799233
vt 2.323380 4.457434
vt 0.567011 6.116219
vt -1.835095 0.345194
vt 1.835095 4.803362
vt -0.793059 2.665692
vt -0.677540 2.363748
vt -0.750792 4.926605
vt -0.600503 4.428154
vt 0.954496 -1.977128
vt 1.450807 0.457433
vt -0.954496 0.762018
vt -0.954496 -1.977128
vt -1.450807 0.457433
vt 0.954496 0.762018
vt -0.495004 -0.287519
vt -1.380010 -1.223902
vt -0.624007 0.712016
vt -2.323380 4.457434
vt -2.173252 3.959522
vt 1.136305 4.246302
vt 1.136305 4.799233
vt -1.880706 2.004791
vt -1.993033 2.296204
vt 1.136305 2.306962
vt 1.136305 2.670430
vt -0.567011 6.116219
vt 1.835095 0.345194
vt -1.835095 4.803362
vt -2.282798 5.604965
vt 0.954496 5.885335
vt 0.954496 -1.213604
vt 1.993033 2.296204
vt -1.136305 2.306962
vt 1.880706 2.004791
vt -1.136305 2.670430
vt 0.855731 3.667986
vt -0.000000 0.345194
vt 0.000000 4.803362
vt -0.855731 3.667986
s 0
usemtl red.004
f 7/15/1 6/11/1 5/8/1
f 6/11/1 7/15/1 2/3/1
f 4/7/2 10/22/2 3/6/2
f 10/22/2 4/7/2 11/25/2
f 11/25/2 4/7/2 12/28/2
f 11/25/2 12/28/2 13/29/2
f 15/35/3 9/20/3 14/31/3
f 9/20/4 15/35/4 8/19/4
f 11/26/5 8/18/5 15/36/5
f 8/18/5 11/26/5 13/30/5
f 2/3/6 19/49/6 1/2/6
f 7/15/6 19/49/6 2/3/6
f 14/32/7 16/39/7 17/42/7
f 16/39/7 14/32/7 9/21/7
f 17/43/8 6/12/8 14/33/8
f 6/12/8 17/43/8 5/9/8
f 1/1/9 10/23/9 18/45/9
f 10/23/9 1/1/9 3/5/9
f 14/34/10 18/46/10 15/37/10
f 18/46/10 14/34/10 6/13/10
f 19/49/11 21/52/11 12/28/11
f 4/7/11 19/49/11 12/28/11
f 2/4/12 18/47/12 6/14/12
f 18/47/13 2/4/13 1/2/13
f 15/38/14 10/24/14 11/27/14
f 10/24/14 15/38/14 18/48/14
f 8/19/15 12/28/15 21/52/15
f 8/18/15 13/30/15 12/28/15
f 5/10/16 20/50/16 7/16/16
f 20/50/16 5/10/16 17/44/16
f 20/50/16 17/44/16 16/40/16
f 8/19/15 21/52/15 9/20/15
f 21/52/15 16/41/15 9/21/15
f 16/41/17 21/52/17 20/51/17
f 20/51/17 19/49/17 7/17/17
f 3/6/6 1/1/6 4/7/6
f 19/49/6 4/7/6 1/2/6
f 20/51/17 21/52/17 19/49/17
o paprika.001
v 0.017526 0.003125 -0.017526
v 0.022274 0.027107 -0.022274
v 0.023305 0.080844 -0.023305
v 0.012122 0.074377 -0.042016
v 0.024682 0.059490 -0.024682
v 0.014431 0.053562 -0.041833
v -0.017526 0.003125 -0.017526
v -0.006287 0.007010 -0.006287
v -0.012122 0.000000 -0.026567
v -0.022274 0.027107 -0.022274
v -0.014431 0.022572 -0.035396
v -0.014431 0.053562 -0.041833
v -0.012122 0.074377 -0.042016
v 0.012122 0.000000 -0.026567
v 0.014431 0.022572 -0.035396
v -0.024682 0.059490 -0.024682
v -0.023305 0.080844 -0.023305
v 0.006287 0.007010 -0.006287
v 0.000000 0.080844 -0.023305
v 0.010868 0.073550 -0.010868
v -0.010868 0.073550 -0.010868
vn 0.8412 0.0886 -0.5334
vn -0.8661 -0.2564 -0.4291
vn -0.0000 -0.0088 -1.0000
vn -0.0000 -0.3643 -0.9313
vn 0.8661 -0.2564 -0.4291
vn -0.8412 0.0886 -0.5334
vn -0.0000 -0.9451 0.3267
vn -0.0000 -0.2034 -0.9791
vn 0.8689 -0.1006 -0.4846
vn 0.8689 -0.1007 -0.4846
vn -0.0000 0.9451 -0.3267
vn -0.0000 0.8626 0.5059
vn -0.8689 -0.1006 -0.4846
vn -0.8689 -0.1007 -0.4846
vn -0.0000 0.0687 0.9976
vn -0.7071 -0.0000 0.7071
vn 0.7071 -0.0000 0.7071
vt 0.624007 0.712016
vt 1.380010 -1.223903
vt 0.677540 2.363748
vt 0.793059 2.665692
vt 0.567011 6.116219
vt -1.835095 0.345194
vt 1.835095 4.803362
vt 2.282798 5.604965
vt -0.954496 5.885335
vt -0.954496 -1.213604
vt 0.750792 4.926605
vt 0.600503 4.428154
vt 2.173252 3.959522
vt -1.136305 4.246302
vt -1.136305 4.799233
vt 2.323380 4.457434
vt -0.624007 0.712016
vt -1.380010 -1.223902
vt -0.495004 -0.287519
vt -1.450807 0.457433
vt 0.954496 0.762018
vt -0.954496 -1.977128
vt -0.677540 2.363748
vt -0.793059 2.665692
vt -1.993033 2.296204
vt 1.136305 2.670430
vt 1.136305 2.306962
vt -1.880706 2.004791
vt 1.136305 4.246302
vt -2.173252 3.959522
vt 1.136305 4.799233
vt -2.323380 4.457434
vt 0.954496 5.885335
vt -2.282798 5.604965
vt 0.954496 -1.213604
vt -0.954496 0.762018
vt 1.450807 0.457433
vt 0.954496 -1.977128
vt -1.136305 2.670430
vt 1.993033 2.296204
vt -1.136305 2.306962
vt 1.880706 2.004791
vt -0.750792 4.926605
vt -0.600503 4.428154
vt 1.835095 0.345195
vt -1.835095 4.803362
vt -0.567011 6.116219
vt 0.495004 -0.287519
vt 0.000000 0.345194
vt 0.000000 4.803362
vt 0.855731 3.667986
vt 0.000000 0.000000
vt -0.855731 3.667986
s 0
usemtl red.004
f 26/64/18 25/60/18 24/57/18
f 25/60/18 26/64/18 27/65/18
f 31/76/19 30/72/19 28/69/19
f 30/72/19 31/76/19 32/77/19
f 34/85/20 27/66/20 33/81/20
f 27/66/20 34/85/20 25/61/20
f 32/78/21 35/88/21 30/73/21
f 35/88/21 32/78/21 36/91/21
f 35/89/22 23/56/22 22/53/22
f 23/56/22 35/89/22 36/92/22
f 34/86/23 37/96/23 38/99/23
f 37/96/23 34/86/23 33/82/23
f 30/74/24 29/71/24 28/70/24
f 29/71/24 30/74/24 35/90/24
f 29/71/24 35/90/24 39/100/24
f 39/100/24 35/90/24 22/54/24
f 33/83/25 36/93/25 32/79/25
f 36/93/25 33/83/25 27/67/25
f 36/94/26 26/63/26 23/55/26
f 26/63/27 36/94/27 27/68/27
f 40/101/28 34/87/28 38/97/28
f 34/87/28 40/101/28 25/62/28
f 25/62/28 40/101/28 24/58/28
f 24/59/29 40/102/29 41/103/29
f 40/102/29 38/98/29 42/105/29
f 37/95/30 32/80/30 31/75/30
f 32/80/31 37/95/31 33/84/31
f 41/103/29 40/102/29 42/105/29
f 42/104/32 29/71/32 39/100/32
f 42/104/32 39/100/32 41/103/32
f 38/99/33 37/96/33 42/105/33
f 31/76/33 28/70/33 29/71/33
f 37/96/33 31/75/33 42/105/33
f 29/71/33 42/105/33 31/76/33
f 23/56/34 39/100/34 22/54/34
f 26/64/34 24/59/34 41/103/34
f 39/100/34 23/56/34 41/103/34
f 23/56/34 26/64/34 41/103/34
o paprika.002
v 0.026567 0.000000 -0.012122
v 0.035396 0.022572 -0.014431
v 0.017526 0.003125 -0.017526
v 0.022274 0.027107 -0.022274
v 0.035396 0.022572 0.014431
v 0.026567 0.000000 0.012122
v 0.023305 0.080844 -0.023305
v 0.024682 0.059490 -0.024682
v 0.041833 0.053562 -0.014431
v 0.042016 0.074377 -0.012122
v 0.022274 0.027107 0.022274
v 0.041833 0.053562 0.014431
v 0.024682 0.059490 0.024682
v 0.006287 0.007010 0.006287
v 0.017526 0.003125 0.017526
v 0.006287 0.007010 -0.006287
v 0.042016 0.074377 0.012122
v 0.023305 0.080844 0.023305
v 0.023305 0.080844 0.000000
v 0.010868 0.073550 -0.010868
v 0.010868 0.073550 0.010868
vn 0.4291 -0.2564 -0.8661
vn 0.9313 -0.3643 -0.0000
vn 0.4846 -0.1007 -0.8689
vn 0.4846 -0.1006 -0.8689
vn 0.5334 0.0886 -0.8412
vn 0.4846 -0.1007 0.8689
vn 0.4846 -0.1006 0.8689
vn 0.5334 0.0886 0.8412
vn 1.0000 -0.0088 -0.0000
vn 0.4291 -0.2564 0.8661
vn 0.9791 -0.2034 -0.0000
vn -0.3267 -0.9451 -0.0000
vn 0.3267 0.9451 -0.0000
vn -0.5059 0.8626 -0.0000
vn -0.9976 0.0687 -0.0000
vn -0.7071 -0.0000 -0.7071
vn -0.7071 -0.0000 0.7071
vt -1.450807 0.457433
vt 0.954496 0.762018
vt -0.954496 -1.977128
vt -1.993033 2.296204
vt 1.136305 2.670430
vt -1.880706 2.004791
vt 1.136305 2.306962
vt -0.624007 0.712016
vt -1.380010 -1.223902
vt -0.677540 2.363748
vt -0.793059 2.665692
vt -1.136305 2.670430
vt 1.880706 2.004791
vt 1.993033 2.296204
vt -1.136305 2.306962
vt -0.954496 0.762018
vt 1.450807 0.457433
vt 0.954496 -1.977128
vt -0.567011 6.116219
vt 1.835095 0.345194
vt -1.835095 4.803362
vt -0.750792 4.926605
vt -0.600503 4.428154
vt -2.323380 4.457434
vt -2.173252 3.959522
vt 1.136305 4.246302
vt 1.136305 4.799233
vt -2.282798 5.604965
vt 0.954496 5.885335
vt 0.954496 -1.213604
vt 0.793059 2.665692
vt 0.677540 2.363748
vt 2.323380 4.457434
vt 2.173252 3.959522
vt -1.136305 4.246302
vt -1.136305 4.799233
vt 0.750792 4.926605
vt 0.600503 4.428154
vt 0.495004 -0.287519
vt 1.380010 -1.223902
vt 0.624007 0.712016
vt -0.495004 -0.287519
vt 2.282798 5.604965
vt -0.954496 5.885335
vt -0.954496 -1.213604
vt -1.835095 0.345195
vt 1.835095 4.803362
vt 0.567011 6.116219
vt 0.000000 0.345194
vt -0.000000 4.803362
vt 0.000000 0.000000
vt -0.855731 3.667986
vt 0.855731 3.667986
s 0
usemtl red.004
f 45/113/35 44/109/35 43/106/35
f 44/109/35 45/113/35 46/116/35
f 48/121/36 44/110/36 47/117/36
f 44/110/36 48/121/36 43/107/36
f 46/115/37 51/129/37 44/111/37
f 51/129/38 46/115/38 50/127/38
f 50/128/39 52/133/39 51/130/39
f 52/133/39 50/128/39 49/124/39
f 54/138/40 53/137/40 47/118/40
f 53/137/41 54/138/41 55/142/41
f 59/148/42 55/143/42 54/139/42
f 55/143/42 59/148/42 60/153/42
f 51/131/43 59/149/43 54/140/43
f 59/149/43 51/131/43 52/134/43
f 47/119/44 57/146/44 48/122/44
f 57/146/44 47/119/44 53/136/44
f 44/112/45 54/141/45 47/120/45
f 54/141/45 44/112/45 51/132/45
f 45/114/46 56/144/46 58/147/46
f 56/144/46 45/114/46 57/145/46
f 57/145/46 45/114/46 43/108/46
f 57/145/46 43/108/46 48/123/46
f 61/154/47 52/135/47 49/125/47
f 52/135/47 61/154/47 60/151/47
f 52/135/47 60/151/47 59/150/47
f 61/155/48 49/126/48 62/157/48
f 60/152/48 61/155/48 63/158/48
f 62/157/48 63/158/48 61/155/48
f 62/156/49 58/147/49 56/144/49
f 63/158/49 62/156/49 56/144/49
f 50/128/50 62/157/50 49/126/50
f 46/116/50 45/114/50 58/147/50
f 50/128/50 46/115/50 62/157/50
f 58/147/50 62/157/50 46/116/50
f 57/146/51 53/136/51 56/144/51
f 60/153/51 63/158/51 55/143/51
f 55/143/51 63/158/51 53/137/51
f 63/158/51 56/144/51 53/137/51
o paprika.003
v -0.035396 0.022572 0.014431
v -0.041833 0.053562 0.014431
v -0.022274 0.027107 0.022274
v -0.024682 0.059490 0.024682
v -0.026567 0.000000 -0.012122
v -0.026567 0.000000 0.012122
v -0.017526 0.003125 -0.017526
v -0.017526 0.003125 0.017526
v -0.006287 0.007010 0.006287
v -0.006287 0.007010 -0.006287
v -0.022274 0.027107 -0.022274
v -0.035396 0.022572 -0.014431
v -0.041833 0.053562 -0.014431
v -0.024682 0.059490 -0.024682
v -0.023305 0.080844 0.023305
v -0.042016 0.074377 -0.012122
v -0.023305 0.080844 -0.023305
v -0.042016 0.074377 0.012122
v -0.023305 0.080844 0.000000
v -0.010868 0.073550 -0.010868
v -0.010868 0.073550 0.010868
vn -0.4846 -0.1007 0.8689
vn -0.4846 -0.1006 0.8689
vn 0.3267 -0.9451 -0.0000
vn -0.4846 -0.1007 -0.8689
vn -0.4846 -0.1006 -0.8689
vn -0.5334 0.0886 -0.8412
vn -0.4291 -0.2564 0.8661
vn -0.4291 -0.2564 -0.8661
vn -0.5334 0.0886 0.8412
vn -0.3267 0.9451 -0.0000
vn -0.9313 -0.3643 -0.0000
vn -1.0000 -0.0088 -0.0000
vn 0.5059 0.8626 -0.0000
vn -0.9791 -0.2034 -0.0000
vn 0.9976 0.0687 -0.0000
vn 0.7071 -0.0000 -0.7071
vn 0.7071 -0.0000 0.7071
vt -1.880706 2.004791
vt -1.993033 2.296204
vt 1.136305 2.670430
vt 1.136305 2.306962
vt -2.323380 4.457434
vt -2.173252 3.959522
vt 1.136305 4.246302
vt 1.136305 4.799233
vt -0.677540 2.363748
vt -0.793059 2.665692
vt -0.750792 4.926605
vt -0.600503 4.428154
vt 0.954496 -1.977128
vt 1.450807 0.457433
vt -0.954496 0.762018
vt -0.954496 -1.977128
vt -1.450807 0.457433
vt 0.954496 0.762018
vt 0.624007 0.712016
vt 1.380010 -1.223902
vt -0.624007 0.712016
vt -1.380010 -1.223902
vt -0.495004 -0.287519
vt 0.000000 0.000000
vt 0.495004 -0.287519
vt 0.677540 2.363748
vt 0.793059 2.665692
vt 1.880706 2.004791
vt 1.993033 2.296204
vt -1.136305 2.670430
vt -1.136305 2.306962
vt 2.323380 4.457434
vt 2.173252 3.959522
vt -1.136305 4.246302
vt -1.136305 4.799233
vt 0.750792 4.926605
vt 0.600503 4.428154
vt 1.835095 0.345194
vt -1.835095 4.803362
vt -0.567011 6.116219
vt 2.282798 5.604965
vt -0.954496 -1.213604
vt -0.954496 5.885335
vt -1.835095 0.345194
vt 1.835095 4.803362
vt 0.567011 6.116219
vt -2.282798 5.604965
vt 0.954496 -1.213604
vt 0.954496 5.885335
vt 0.000000 0.345194
vt -0.000000 4.803362
vt 0.855731 3.667986
vt -0.855731 3.667986
s 0
usemtl red.004
f 66/167/52 65/163/52 64/159/52
f 65/163/53 66/167/53 67/169/53
f 70/178/54 69/174/54 68/171/54
f 69/174/54 70/178/54 71/180/54
f 71/180/54 70/178/54 72/181/54
f 72/181/54 70/178/54 73/183/54
f 76/190/55 74/184/55 75/186/55
f 74/184/56 76/190/56 77/194/56
f 79/199/57 77/195/57 76/191/57
f 77/195/57 79/199/57 80/204/57
f 71/179/58 64/160/58 69/175/58
f 64/160/58 71/179/58 66/168/58
f 75/187/59 70/177/59 68/172/59
f 70/177/59 75/187/59 74/185/59
f 67/170/60 81/205/60 65/164/60
f 81/205/60 67/170/60 78/198/60
f 78/196/61 79/200/61 81/206/61
f 79/200/61 78/196/61 82/208/61
f 79/200/61 82/208/61 80/202/61
f 75/188/62 69/176/62 64/161/62
f 69/176/62 75/188/62 68/173/62
f 81/207/63 76/192/63 65/165/63
f 76/192/63 81/207/63 79/201/63
f 84/211/64 82/209/64 78/197/64
f 83/210/64 80/203/64 82/209/64
f 76/193/65 64/162/65 65/166/65
f 64/162/65 76/193/65 75/189/65
f 83/210/64 82/209/64 84/211/64
f 84/211/66 73/182/66 83/210/66
f 73/182/66 84/211/66 72/181/66
f 80/204/67 83/210/67 77/195/67
f 74/185/67 73/183/67 70/178/67
f 73/183/67 74/185/67 83/210/67
f 74/185/67 77/195/67 83/210/67
f 78/198/68 67/170/68 84/211/68
f 71/180/68 72/181/68 66/168/68
f 67/170/68 66/167/68 84/211/68
f 72/181/68 84/211/68 66/168/68
o paprika.004
v -0.006287 0.007010 0.006287
v -0.006287 0.007010 -0.006287
v 0.006287 0.007010 0.006287
v 0.006287 0.007010 -0.006287
v 0.010868 0.073550 -0.010868
v -0.010868 0.073550 -0.010868
v -0.010868 0.073550 0.010868
v 0.010868 0.073550 0.010868
vn -0.0000 -1.0000 -0.0000
vn -0.0000 1.0000 -0.0000
vn 0.9976 -0.0687 -0.0000
vn -0.0000 -0.0687 -0.9976
vn -0.9976 -0.0687 -0.0000
vn -0.0000 -0.0687 0.9976
vt 0.495004 -0.495004
vt 0.495004 0.495004
vt -0.495004 -0.495004
vt -0.495004 0.495004
vt -0.855731 3.667986
vt 0.855731 3.667986
vt -0.855731 3.667986
vt -0.855731 3.667986
vt 0.000000 0.000000
s 0
usemtl red.004
f 88/215/69 85/212/69 86/213/69
f 85/212/69 88/215/69 87/214/69
f 90/217/70 91/218/70 92/219/70 89/216/70
f 92/220/71 87/214/71 88/215/71
f 92/220/71 88/215/71 89/216/71
f 88/215/72 86/213/72 89/216/72
f 89/216/72 86/213/72 90/217/72
f 86/213/73 85/212/73 90/217/73
f 90/217/73 85/212/73 91/218/73
f 85/212/74 87/214/74 91/218/74
f 91/218/74 87/214/74 92/220/74
