# Blender 3.4.1
# www.blender.org
mtllib sliceCollider.mtl
o paprikaSlice
v 0.016060 0.016060 0.015000
v 0.016060 0.016060 0.000000
v 0.008403 0.029791 0.015000
v 0.008403 0.029791 0.000000
v -0.008403 -0.029791 0.000000
v 0.008403 -0.029791 0.000000
v -0.008403 -0.029791 0.015000
v 0.008403 -0.029791 0.015000
v -0.029791 -0.008403 0.000000
v -0.016060 -0.016060 0.000000
v -0.029791 -0.008403 0.015000
v -0.016060 -0.016060 0.015000
v -0.016060 0.016060 0.000000
v -0.029791 0.008403 0.000000
v -0.016060 0.016060 0.015000
v -0.029791 0.008403 0.015000
v 0.016060 -0.016060 0.015000
v 0.016060 -0.016060 0.000000
v -0.008403 0.029791 0.000000
v -0.008403 0.029791 0.015000
v 0.029791 -0.008403 0.015000
v 0.029791 -0.008403 0.000000
v 0.029791 0.008403 0.015000
v 0.029791 0.008403 0.000000
v -0.036939 0.014431 0.000000
v -0.022489 0.022489 0.000000
v -0.014431 0.036939 0.000000
v 0.014431 0.036939 0.000000
v 0.022489 0.022489 0.000000
v 0.036939 0.014431 0.000000
v -0.036939 -0.014431 0.000000
v -0.022489 -0.022489 0.000000
v -0.014431 -0.036939 0.000000
v 0.014431 -0.036939 0.000000
v 0.022489 -0.022489 0.000000
v 0.036939 -0.014431 0.000000
v -0.040055 0.014431 0.015000
v -0.023605 0.023605 0.015000
v 0.014431 -0.040055 0.015000
v -0.014431 -0.040055 0.015000
v -0.040055 -0.014431 0.015000
v -0.023605 -0.023605 0.015000
v 0.023605 -0.023605 0.015000
v 0.040055 -0.014431 0.015000
v 0.040055 0.014431 0.015000
v -0.014431 0.040055 0.015000
v 0.014431 0.040055 0.015000
v 0.023605 0.023605 0.015000
v 0.000000 0.000000 0.015000
v 0.000000 0.000000 0.000000
vn -0.0000 -0.0000 -1.0000
vn -0.0000 -0.0000 1.0000
vn -0.4846 0.8689 -0.1007
vn -0.7032 0.7032 -0.1046
vn -0.0000 -0.9791 -0.2034
vn -0.9791 -0.0000 -0.2034
vn 0.8689 0.4846 -0.1007
vn 0.7032 0.7032 -0.1046
vn -0.8689 0.4846 -0.1007
vn -0.7032 -0.7032 -0.1046
vn -0.4846 -0.8689 -0.1007
vn 0.4846 0.8689 -0.1007
vn 0.8689 -0.4846 -0.1007
vn 0.7032 -0.7032 -0.1046
vn -0.0000 0.9791 -0.2034
vn 0.4846 -0.8689 -0.1007
vn 0.9791 -0.0000 -0.2034
vn -0.8689 -0.4846 -0.1007
vt 1.264589 1.264589
vt -1.264589 1.264589
vt 0.661657 2.345738
vt -0.661657 2.345738
vt 0.661657 -2.345738
vt -0.661657 -2.345738
vt -0.661657 -2.345738
vt 0.661657 -2.345738
vt 2.345738 -0.661657
vt 1.264589 -1.264589
vt -2.345738 -0.661657
vt -1.264589 -1.264589
vt 1.264589 1.264589
vt 2.345738 0.661657
vt -1.264589 1.264589
vt -2.345738 0.661657
vt 1.264589 -1.264589
vt -1.264589 -1.264589
vt 0.661657 2.345738
vt -0.661657 2.345738
vt 2.345738 -0.661656
vt -2.345738 -0.661656
vt 2.345738 0.661657
vt -2.345738 0.661657
vt 2.908577 1.136305
vt 1.986815 0.242483
vt -1.136305 0.591522
vt 1.770812 1.770812
vt 0.684084 0.242483
vt -0.684084 0.242483
vt 1.136305 2.908577
vt -1.986815 0.242483
vt 1.136305 0.591522
vt -1.136305 2.908577
vt 1.986815 0.242483
vt -1.136305 0.591522
vt -1.770812 1.770812
vt 0.684084 0.242483
vt -0.684084 0.242483
vt -2.908577 1.136305
vt -1.986815 0.242483
vt 1.136305 0.591522
vt 2.908577 -1.136305
vt 1.136305 0.591522
vt -1.986815 0.242483
vt 1.770812 -1.770812
vt -0.684084 0.242483
vt 0.684084 0.242482
vt 1.136305 -2.908577
vt -1.136305 0.591522
vt 1.986815 0.242482
vt -1.136305 -2.908577
vt 1.136305 0.591522
vt -1.986815 0.242482
vt -1.770812 -1.770811
vt -0.684084 0.242482
vt 0.684084 0.242482
vt -2.908577 -1.136305
vt 1.986815 0.242482
vt -1.136305 0.591522
vt 2.201079 1.429614
vt -3.153907 1.136305
vt -1.136305 1.797835
vt 0.718014 1.429614
vt -1.858644 1.858644
vt -0.718014 1.429614
vt 1.136305 1.797835
vt 1.136305 -3.153907
vt -2.201079 1.429614
vt -1.136305 1.797835
vt -1.136305 -3.153907
vt 2.201079 1.429614
vt -3.153907 -1.136305
vt 1.136305 1.797835
vt -2.201079 1.429614
vt -1.858644 -1.858644
vt -0.718014 1.429614
vt 0.718014 1.429614
vt 1.858644 -1.858644
vt -0.718014 1.429614
vt 0.718014 1.429614
vt 3.153907 -1.136305
vt 2.201079 1.429614
vt -1.136305 1.797835
vt 3.153907 1.136305
vt -2.201079 1.429614
vt 1.136305 1.797835
vt -1.136305 3.153907
vt -2.201079 1.429614
vt 1.136305 1.797835
vt 1.136305 3.153907
vt 2.201079 1.429614
vt -1.136305 1.797835
vt 1.858644 1.858644
vt 0.718015 1.429614
vt -0.718014 1.429614
vt 0.000000 0.000000
vt 0.000000 0.000000
s 0
usemtl red.002
f 19/19/1 4/4/1 2/2/1 50/98/1 13/13/1
f 2/2/1 24/24/1 22/22/1 18/18/1 50/98/1
f 6/6/1 5/5/1 10/10/1 50/98/1 18/18/1
f 10/10/1 9/9/1 14/14/1 13/13/1 50/98/1
f 12/12/2 49/97/2 15/15/2 16/16/2 11/11/2
f 3/3/2 20/20/2 15/15/2 49/97/2 1/1/2
f 21/21/2 23/23/2 1/1/2 49/97/2 17/17/2
f 8/8/2 17/17/2 49/97/2 12/12/2 7/7/2
f 26/28/1 14/14/1 25/25/1
f 14/14/1 26/28/1 13/13/1
f 13/13/1 26/28/1 27/31/1
f 13/13/1 27/31/1 19/19/1
f 19/19/1 27/31/1 28/34/1
f 19/19/1 28/34/1 4/4/1
f 4/4/1 28/34/1 2/2/1
f 2/2/1 28/34/1 29/37/1
f 2/2/1 29/37/1 24/24/1
f 24/24/1 29/37/1 30/40/1
f 24/24/1 30/40/1 22/22/1
f 9/9/1 25/25/1 14/14/1
f 9/9/1 31/43/1 25/25/1
f 31/43/1 9/9/1 32/46/1
f 32/46/1 9/9/1 10/10/1
f 32/46/1 10/10/1 33/49/1
f 33/49/1 10/10/1 5/5/1
f 33/49/1 5/5/1 34/52/1
f 34/52/1 5/5/1 6/6/1
f 34/52/1 6/6/1 18/18/1
f 34/52/1 18/18/1 35/55/1
f 35/55/1 18/18/1 22/22/1
f 35/55/1 22/22/1 36/58/1
f 36/58/1 22/22/1 30/40/1
f 37/61/3 26/29/4 25/26/3
f 26/29/4 37/61/3 38/64/4
f 39/67/5 33/50/5 34/53/5
f 33/50/5 39/67/5 40/70/5
f 41/73/2 11/11/2 16/16/2
f 11/11/2 41/73/2 42/76/2
f 11/11/2 42/76/2 12/12/2
f 12/12/2 42/76/2 40/71/2
f 12/12/2 40/71/2 7/7/2
f 7/7/2 40/71/2 39/68/2
f 7/7/2 39/68/2 8/8/2
f 8/8/2 39/68/2 17/17/2
f 17/17/2 39/68/2 43/79/2
f 17/17/2 43/79/2 21/21/2
f 21/21/2 43/79/2 44/82/2
f 21/21/2 44/82/2 45/85/2
f 38/65/2 41/73/2 16/16/2
f 41/73/2 38/65/2 37/62/2
f 38/65/2 16/16/2 15/15/2
f 38/65/2 15/15/2 46/88/2
f 46/88/2 15/15/2 20/20/2
f 46/88/2 20/20/2 47/91/2
f 47/91/2 20/20/2 3/3/2
f 47/91/2 3/3/2 1/1/2
f 47/91/2 1/1/2 48/94/2
f 48/94/2 1/1/2 23/23/2
f 48/94/2 23/23/2 45/85/2
f 45/85/2 23/23/2 21/21/2
f 41/74/6 25/27/6 31/44/6
f 25/27/6 41/74/6 37/63/6
f 28/35/7 48/95/8 29/38/8
f 48/95/8 28/35/7 47/92/7
f 38/66/4 27/32/9 26/30/4
f 27/32/9 38/66/4 46/89/9
f 42/77/10 31/45/11 32/47/10
f 31/45/11 42/77/10 41/75/11
f 48/96/8 30/41/12 29/39/8
f 30/41/12 48/96/8 45/86/12
f 34/54/13 43/80/14 39/69/13
f 43/80/14 34/54/13 35/56/14
f 46/90/15 28/36/15 27/33/15
f 28/36/15 46/90/15 47/93/15
f 36/59/16 43/81/14 35/57/14
f 43/81/14 36/59/16 44/83/16
f 30/42/17 44/84/17 36/60/17
f 44/84/17 30/42/17 45/87/17
f 42/78/10 33/51/18 40/72/18
f 33/51/18 42/78/10 32/48/10
