# Blender v2.78 (sub 0) OBJ File: ''
# www.blender.org
mtllib countertop.mtl
o kitchenBar.002_ID9.009
v -1.883961 0.567553 0.026621
v -1.883961 0.567553 -0.026621
v -1.883961 -0.567553 0.026621
v -1.883961 -0.567553 -0.026621
v 1.883961 0.567553 -0.026621
v 1.883961 0.567553 0.026621
v 1.883961 -0.567553 0.026621
v 1.883961 -0.567553 -0.026621
vt 0.0000 16.5354
vt 0.0000 15.3543
vt -8.2677 16.5354
vt 0.0000 15.3543
vt -16.9291 15.3543
vt 16.9291 0.0000
vt -16.9291 16.5354
vt 16.9291 15.3543
vt 16.9291 16.5354
vt 0.0000 0.0000
vt 0.0000 8.2677
vt 16.9291 8.2677
vt 0.0000 16.5354
vn -1.0000 0.0000 0.0000
vn -0.7071 0.0000 -0.7071
vn 0.7071 0.0000 -0.7071
vn 1.0000 0.0000 0.0000
vn 0.0000 1.0000 0.0000
vn 0.0000 0.0000 1.0000
vn 0.0000 -1.0000 0.0000
usemtl metal.004
s 1
f 1/1/1 2/2/2 3/3/1
f 3/3/1 2/2/2 4/4/2
f 8/5/3 6/6/4 7/7/4
f 6/6/4 8/5/3 5/8/3
f 5/8/5 2/2/5 6/9/5
f 1/1/5 6/9/5 2/2/5
f 1/10/6 3/11/6 6/6/6
f 7/12/6 6/6/6 3/11/6
f 4/4/7 8/5/7 3/13/7
f 7/7/7 3/13/7 8/5/7
f 5/8/3 8/5/3 2/2/2
f 8/5/3 4/4/2 2/2/2
