# Blender v2.78 (sub 0) OBJ File: ''
# www.blender.org
mtllib cap.mtl
o shakerPepper.004
v -0.012072 -0.013299 0.010500
v -0.015535 0.012269 0.000000
v -0.015535 -0.013495 0.000000
v -0.012072 0.012072 0.010500
v 0.016762 0.012269 0.000000
v 0.013299 -0.013299 0.010500
v 0.016762 -0.013495 0.000000
v 0.013299 0.012072 0.010500
v -0.012269 -0.016762 0.000000
v 0.013495 -0.016762 0.000000
v 0.013495 0.015535 0.000000
v -0.012269 0.015535 0.000000
v -0.012269 0.012269 0.000000
v -0.012269 -0.013495 0.000000
v 0.013495 -0.013495 0.000000
v -0.012269 0.012269 0.000000
v 0.013495 0.012269 0.000000
v -0.011539 -0.012766 -0.010500
v -0.011539 0.011539 -0.010500
v 0.012766 0.011539 -0.010500
v 0.012766 -0.012766 -0.010500
vt 0.9988 7.0154
vt -1.0143 6.1448
vt 1.0143 6.1448
vt -0.9988 7.0154
vt 1.0143 6.1448
vt -0.9988 7.0154
vt -1.0143 6.1448
vt 0.9988 7.0154
vt 0.9988 7.0154
vt -1.0143 6.1448
vt 1.0143 6.1448
vt -0.9988 7.0154
vt 0.9988 7.0154
vt -1.0143 6.1448
vt 1.0143 6.1448
vt -0.9988 7.0154
vt 0.9988 -0.9988
vt -0.9988 0.9988
vt -0.9988 -0.9988
vt 0.9988 0.9988
vt -1.0143 6.9435
vt 1.0143 6.9435
vt 1.0143 6.9435
vt -1.0143 -1.2715
vt -1.2715 1.0143
vt -0.1819 6.3028
vt 1.0143 -1.2715
vt 1.0143 1.0143
vt -1.0143 1.2715
vt 1.0143 1.2715
vt -1.0143 6.9435
vt 1.0143 6.9435
vt 1.0143 6.9435
vt -1.2715 -1.0143
vt 0.9569 6.1147
vt -0.9569 6.1147
vt -0.9569 6.1147
vt 1.2715 -1.0143
vt 1.2715 1.0143
vt -0.9569 6.1147
vt 0.9569 6.1147
vt 0.9569 6.1147
vt 0.0000 7.1543
vt -0.1819 6.3028
vt 0.1819 6.3028
vt -0.1819 6.3028
vt 0.1819 6.3028
vt 0.0000 7.1543
vt 0.1819 6.3028
vt -0.0000 7.1543
vt -0.0000 7.1543
vt -0.1819 6.3028
vt 0.1819 6.3028
vt 0.9569 6.1147
vt -0.9569 6.1147
vt -1.0143 6.9435
vt -1.0143 6.9435
vn -0.9497 0.0000 0.3132
vn 0.9497 0.0000 0.3132
vn 0.0000 -0.9497 0.3132
vn 0.0000 0.9497 0.3132
vn 0.0000 0.0000 1.0000
vn 0.0000 0.0000 -1.0000
vn 0.7071 0.0000 -0.7071
vn -0.6867 -0.6865 0.2393
vn -0.6866 0.6866 0.2393
vn 0.6865 0.6867 0.2393
vn 0.6866 -0.6866 0.2393
vn 0.0000 0.9976 -0.0694
vn 0.9976 0.0000 -0.0693
vn -0.9976 0.0000 -0.0694
vn 0.0000 -0.9976 -0.0693
usemtl greyDark.001
s 1
f 1/1/1 2/2/1 3/3/1
f 2/2/1 1/1/1 4/4/1
f 5/5/2 6/6/2 7/7/2
f 6/6/2 5/5/2 8/8/2
f 6/9/3 9/10/3 10/11/3
f 9/10/3 6/9/3 1/12/3
f 4/13/4 11/14/4 12/15/4
f 11/14/4 4/13/4 8/16/4
f 6/17/5 4/18/5 1/19/5
f 4/18/5 6/17/5 8/20/5
f 13/21/5 14/22/5 15/23/5
f 10/24/6 9/10/6 5/25/6
f 5/26/6 9/27/6 16/28/7
f 11/29/6 16/28/7 12/30/6
f 15/31/5 17/32/5 13/33/5
f 10/24/6 5/25/6 7/34/6
f 9/27/6 12/30/6 16/28/7
f 18/35/6 19/36/6 20/37/6
f 3/38/6 12/30/6 9/27/6
f 12/30/6 3/38/6 2/39/6
f 11/29/6 5/26/6 16/28/7
f 18/40/6 20/41/6 21/42/6
f 1/43/8 3/44/8 9/45/8
f 12/46/9 2/47/9 4/48/9
f 11/49/10 8/50/10 5/26/10
f 6/51/11 10/52/11 7/53/11
f 13/33/12 20/37/12 19/54/12
f 17/32/13 21/55/13 20/41/13
f 13/21/14 18/35/14 14/22/14
f 18/35/14 13/21/14 19/36/14
f 18/40/15 15/23/15 14/56/15
f 20/37/12 13/33/12 17/57/12
f 15/23/15 18/40/15 21/42/15
f 21/55/13 17/32/13 15/31/13
