# Blender 3.4.1
# www.blender.org
mtllib CucumberSliceOutside.mtl
o avocado.001
v 0.000000 -0.011921 0.052688
v -0.045629 -0.011921 0.026344
v 0.045629 -0.011921 -0.026344
v 0.045629 -0.011921 0.026344
v 0.000000 -0.011921 -0.052688
v -0.045629 -0.011921 -0.026344
v 0.045629 0.011921 0.026344
v 0.000000 0.011921 0.052688
v -0.045629 0.011921 -0.026344
v -0.045629 0.011921 0.026344
v 0.000000 0.011921 -0.052688
v 0.045629 0.011921 -0.026344
vn 0.6862 0.6100 0.3962
vn -0.0000 -0.6100 0.7924
vn 0.6862 -0.6100 0.3962
vn -0.0000 0.6100 0.7924
vn -0.6862 0.6100 -0.3962
vn -0.6862 -0.6100 0.3962
vn -0.6862 0.6100 0.3962
vn -0.6862 -0.6100 -0.3962
vn -0.0000 -0.6100 -0.7924
vn -0.0000 0.6100 -0.7924
vn 0.6862 -0.6100 -0.3962
vn 0.6862 0.6100 -0.3962
vt 3.208700 3.389500
vt -3.208700 3.389500
vt -3.208700 3.389500
vt 3.208700 3.389500
vt 3.208700 3.389500
vt -3.208700 3.389500
vt 3.208700 3.389500
vt -3.208700 3.389500
vt 3.208700 3.389500
vt -3.208700 3.389500
vt 3.208700 3.389500
vt -3.208700 3.389500
vt -3.208700 8.593600
vt 3.208700 8.593600
vt -3.208700 8.593600
vt 3.208700 8.593600
vt 3.208700 8.593600
vt -3.208700 8.593600
vt -3.208700 8.593600
vt 3.208700 8.593600
vt -3.208700 8.593600
vt 3.208700 8.593600
vt -3.208700 8.593600
vt 3.208700 8.593600
s 1
usemtl brownDarkest
f 7/14/1 1/2/2 4/7/3
f 1/2/2 7/14/1 8/15/4
f 9/18/5 2/4/6 10/20/7
f 2/4/6 9/18/5 6/12/8
f 9/17/5 5/10/9 6/11/8
f 5/10/9 9/17/5 11/21/10
f 3/5/11 7/13/1 4/8/3
f 7/13/1 3/5/11 12/24/12
f 11/22/10 3/6/11 5/9/9
f 3/6/11 11/22/10 12/23/12
f 8/16/4 2/3/6 1/1/2
f 2/3/6 8/16/4 10/19/7
f 9/18/5 10/20/7 8/16/4 7/14/1 12/24/12 11/22/10
f 2/4/6 6/12/8 5/10/9 3/6/11 4/8/3 1/2/2
