# Blender 3.4.1
# www.blender.org
mtllib cucumberSeeds.mtl
o avocado.002
v 0.000000 -0.014448 0.046645
v -0.040395 -0.014448 0.023322
v 0.040395 -0.014448 -0.023322
v 0.040395 -0.014448 0.023322
v 0.000000 -0.014448 -0.046645
v -0.040395 -0.014448 -0.023322
v 0.040395 0.014448 0.023322
v 0.000000 0.014448 0.046645
v -0.040395 0.014448 -0.023322
v -0.040395 0.014448 0.023322
v 0.000000 0.014448 -0.046645
v 0.040395 0.014448 -0.023322
vn 0.7549 0.4901 0.4358
vn -0.0000 -0.4901 0.8717
vn 0.7549 -0.4901 0.4358
vn -0.0000 0.4901 0.8717
vn -0.7549 0.4901 -0.4358
vn -0.7549 -0.4901 0.4358
vn -0.7549 0.4901 0.4358
vn -0.7549 -0.4901 -0.4358
vn -0.0000 -0.4901 -0.8717
vn -0.0000 0.4901 -0.8717
vn 0.7549 -0.4901 -0.4358
vn 0.7549 0.4901 -0.4358
vt 3.208700 3.389500
vt -3.208700 3.389500
vt -3.208700 3.389500
vt 3.208700 3.389500
vt 3.208700 3.389500
vt -3.208700 3.389500
vt 3.208700 3.389500
vt -3.208700 3.389500
vt 3.208700 3.389500
vt -3.208700 3.389500
vt 3.208700 3.389500
vt -3.208700 3.389500
vt -3.208700 8.593600
vt 3.208700 8.593600
vt -3.208700 8.593600
vt 3.208700 8.593600
vt 3.208700 8.593600
vt -3.208700 8.593600
vt -3.208700 8.593600
vt 3.208700 8.593600
vt -3.208700 8.593600
vt 3.208700 8.593600
vt -3.208700 8.593600
vt 3.208700 8.593600
s 1
usemtl brownDarkest
f 7/14/1 1/2/2 4/7/3
f 1/2/2 7/14/1 8/15/4
f 9/18/5 2/4/6 10/20/7
f 2/4/6 9/18/5 6/12/8
f 9/17/5 5/10/9 6/11/8
f 5/10/9 9/17/5 11/21/10
f 3/5/11 7/13/1 4/8/3
f 7/13/1 3/5/11 12/24/12
f 11/22/10 3/6/11 5/9/9
f 3/6/11 11/22/10 12/23/12
f 8/16/4 2/3/6 1/1/2
f 2/3/6 8/16/4 10/19/7
f 9/18/5 10/20/7 8/16/4 7/14/1 12/24/12 11/22/10
f 2/4/6 6/12/8 5/10/9 3/6/11 4/8/3 1/2/2
o Cube
v 0.008690 -0.018222 0.009059
v 0.008690 -0.018222 0.024058
v 0.008690 0.018222 0.009059
v 0.008690 0.018222 0.024058
v 0.023689 -0.018222 0.009059
v 0.023689 -0.018222 0.024058
v 0.023689 0.018222 0.009059
v 0.023689 0.018222 0.024058
vn -1.0000 -0.0000 -0.0000
vn -0.0000 1.0000 -0.0000
vn 1.0000 -0.0000 -0.0000
vn -0.0000 -1.0000 -0.0000
vn -0.0000 -0.0000 -1.0000
vn -0.0000 -0.0000 1.0000
vt 0.375000 0.000000
vt 0.375000 1.000000
vt 0.125000 0.750000
vt 0.625000 0.000000
vt 0.625000 1.000000
vt 0.875000 0.750000
vt 0.375000 0.250000
vt 0.125000 0.500000
vt 0.625000 0.250000
vt 0.875000 0.500000
vt 0.375000 0.750000
vt 0.625000 0.750000
vt 0.375000 0.500000
vt 0.625000 0.500000
s 0
usemtl Material.001
f 13/25/13 14/28/13 16/33/13 15/31/13
f 15/31/14 16/33/14 20/38/14 19/37/14
f 19/37/15 20/38/15 18/36/15 17/35/15
f 17/35/16 18/36/16 14/29/16 13/26/16
f 15/32/17 19/37/17 17/35/17 13/27/17
f 20/38/18 16/34/18 14/30/18 18/36/18
o Cube.001
v 0.008690 -0.018222 -0.019419
v 0.008690 -0.018222 -0.004421
v 0.008690 0.018222 -0.019419
v 0.008690 0.018222 -0.004421
v 0.023689 -0.018222 -0.019419
v 0.023689 -0.018222 -0.004421
v 0.023689 0.018222 -0.019419
v 0.023689 0.018222 -0.004421
vn -1.0000 -0.0000 -0.0000
vn -0.0000 1.0000 -0.0000
vn 1.0000 -0.0000 -0.0000
vn -0.0000 -1.0000 -0.0000
vn -0.0000 -0.0000 -1.0000
vn -0.0000 -0.0000 1.0000
vt 0.375000 0.000000
vt 0.375000 1.000000
vt 0.125000 0.750000
vt 0.625000 0.000000
vt 0.625000 1.000000
vt 0.875000 0.750000
vt 0.375000 0.250000
vt 0.125000 0.500000
vt 0.625000 0.250000
vt 0.875000 0.500000
vt 0.375000 0.750000
vt 0.625000 0.750000
vt 0.375000 0.500000
vt 0.625000 0.500000
s 0
usemtl Material.001
f 21/39/19 22/42/19 24/47/19 23/45/19
f 23/45/20 24/47/20 28/52/20 27/51/20
f 27/51/21 28/52/21 26/50/21 25/49/21
f 25/49/22 26/50/22 22/43/22 21/40/22
f 23/46/23 27/51/23 25/49/23 21/41/23
f 28/52/24 24/48/24 22/44/24 26/50/24
o Cube.002
v -0.020870 -0.018222 0.009059
v -0.020870 -0.018222 0.024058
v -0.020870 0.018222 0.009059
v -0.020870 0.018222 0.024058
v -0.005872 -0.018222 0.009059
v -0.005872 -0.018222 0.024058
v -0.005872 0.018222 0.009059
v -0.005872 0.018222 0.024058
vn -1.0000 -0.0000 -0.0000
vn -0.0000 1.0000 -0.0000
vn 1.0000 -0.0000 -0.0000
vn -0.0000 -1.0000 -0.0000
vn -0.0000 -0.0000 -1.0000
vn -0.0000 -0.0000 1.0000
vt 0.375000 0.000000
vt 0.375000 1.000000
vt 0.125000 0.750000
vt 0.625000 0.000000
vt 0.625000 1.000000
vt 0.875000 0.750000
vt 0.375000 0.250000
vt 0.125000 0.500000
vt 0.625000 0.250000
vt 0.875000 0.500000
vt 0.375000 0.750000
vt 0.625000 0.750000
vt 0.375000 0.500000
vt 0.625000 0.500000
s 0
usemtl Material.001
f 29/53/25 30/56/25 32/61/25 31/59/25
f 31/59/26 32/61/26 36/66/26 35/65/26
f 35/65/27 36/66/27 34/64/27 33/63/27
f 33/63/28 34/64/28 30/57/28 29/54/28
f 31/60/29 35/65/29 33/63/29 29/55/29
f 36/66/30 32/62/30 30/58/30 34/64/30
o Cube.003
v -0.020870 -0.018222 -0.019419
v -0.020870 -0.018222 -0.004421
v -0.020870 0.018222 -0.019419
v -0.020870 0.018222 -0.004421
v -0.005872 -0.018222 -0.019419
v -0.005872 -0.018222 -0.004421
v -0.005872 0.018222 -0.019419
v -0.005872 0.018222 -0.004421
vn -1.0000 -0.0000 -0.0000
vn -0.0000 1.0000 -0.0000
vn 1.0000 -0.0000 -0.0000
vn -0.0000 -1.0000 -0.0000
vn -0.0000 -0.0000 -1.0000
vn -0.0000 -0.0000 1.0000
vt 0.375000 0.000000
vt 0.375000 1.000000
vt 0.125000 0.750000
vt 0.625000 0.000000
vt 0.625000 1.000000
vt 0.875000 0.750000
vt 0.375000 0.250000
vt 0.125000 0.500000
vt 0.625000 0.250000
vt 0.875000 0.500000
vt 0.375000 0.750000
vt 0.625000 0.750000
vt 0.375000 0.500000
vt 0.625000 0.500000
s 0
usemtl Material.001
f 37/67/31 38/70/31 40/75/31 39/73/31
f 39/73/32 40/75/32 44/80/32 43/79/32
f 43/79/33 44/80/33 42/78/33 41/77/33
f 41/77/34 42/78/34 38/71/34 37/68/34
f 39/74/35 43/79/35 41/77/35 37/69/35
f 44/80/36 40/76/36 38/72/36 42/78/36
