# Blender 3.4.1
# www.blender.org
mtllib peeledCucumber.mtl
o avocado
v 0.000000 -0.133281 0.045238
v -0.027146 -0.203515 0.015393
v 0.000000 -0.203515 0.030786
v -0.039888 -0.133281 0.022619
v 0.027146 -0.203515 0.015393
v 0.039888 -0.133281 -0.022619
v 0.039888 -0.133281 0.022619
v 0.027146 -0.203515 -0.015393
v 0.000000 -0.133281 -0.045238
v 0.000000 -0.203515 -0.030786
v -0.027146 -0.203515 -0.015393
v 0.000000 0.203517 0.029783
v -0.026260 0.203517 -0.014891
v -0.026260 0.203517 0.014891
v 0.000000 0.203517 -0.029783
v 0.026260 0.203517 0.014891
v 0.026260 0.203517 -0.014891
v -0.039888 -0.133281 -0.022619
v 0.039888 0.133281 0.022619
v 0.000000 0.133281 0.045238
v -0.039888 0.133281 -0.022619
v -0.039888 0.133281 0.022619
v 0.000000 0.133281 -0.045238
v 0.039888 0.133281 -0.022619
v 0.000000 -0.234789 0.010912
v 0.009621 -0.234789 0.005456
v 0.000000 -0.234789 -0.010912
v -0.009621 -0.234789 -0.005456
v -0.009621 -0.234789 0.005456
v 0.009621 -0.234789 -0.005456
v 0.000000 0.234906 0.009938
v -0.008762 0.234906 -0.004969
v -0.008762 0.234906 0.004969
v 0.000000 0.234906 -0.009938
v 0.008762 0.234906 0.004969
v 0.008762 0.234906 -0.004969
vn -0.0000 -0.0977 0.9952
vn -0.8052 -0.3573 0.4732
vn -0.0000 -0.3530 0.9356
vn -0.8579 -0.0990 0.5043
vn 0.8052 -0.3572 0.4733
vn 0.8579 -0.0990 -0.5043
vn 0.8579 -0.0990 0.5042
vn 0.8052 -0.3572 -0.4733
vn -0.0000 -0.0977 -0.9952
vn -0.0000 -0.3530 -0.9356
vn -0.8052 -0.3572 -0.4733
vn -0.5144 -0.8025 -0.3024
vn -0.5144 -0.8025 0.3024
vn 0.5144 -0.8025 0.3024
vn 0.5144 -0.8025 -0.3024
vn -0.0000 -0.7986 -0.6019
vn -0.0000 -0.7986 0.6019
vn -0.8032 0.3632 0.4721
vn -0.0000 0.3590 0.9333
vn -0.0000 0.7978 0.6029
vn -0.5154 0.8016 0.3029
vn -0.8032 0.3632 -0.4721
vn -0.5154 0.8016 -0.3029
vn 0.8032 0.3632 -0.4721
vn -0.0000 0.3590 -0.9333
vn -0.0000 0.7978 -0.6029
vn 0.5154 0.8016 -0.3029
vn -0.8579 -0.0990 -0.5042
vn 0.8573 0.1054 0.5039
vn -0.0000 0.1040 0.9946
vn -0.8573 0.1054 -0.5039
vn -0.8573 0.1054 0.5039
vn -0.0000 0.1040 -0.9946
vn 0.8573 0.1054 -0.5039
vn 0.8032 0.3632 0.4721
vn 0.5154 0.8016 0.3029
vt 3.208700 5.474900
vt -3.208700 5.474900
vt -3.208700 3.389500
vt 3.208700 3.389500
vt -2.259700 1.707900
vt 2.259700 1.707900
vt 2.259700 1.707900
vt -2.259700 1.707900
vt -3.208700 5.474900
vt 3.208700 5.474900
vt 3.208700 3.389500
vt -3.208700 3.389500
vt -2.259700 1.707900
vt 2.259700 1.707900
vt 3.208700 5.474900
vt -3.208700 5.474900
vt 3.208700 3.389500
vt -3.208700 3.389500
vt -3.208700 5.474900
vt 3.208700 5.474900
vt 3.208700 3.389500
vt -3.208700 3.389500
vt 2.259700 1.707900
vt -2.259700 1.707900
vt 3.208700 5.474900
vt -3.208700 5.474900
vt -3.208700 3.389500
vt 3.208700 3.389500
vt -2.259700 1.707900
vt 2.259700 1.707900
vt 2.259700 1.707900
vt -2.259700 1.707900
vt 1.604400 13.765300
vt -1.604400 13.765300
vt 1.604400 13.765300
vt -1.604400 13.765300
vt -1.604400 13.765300
vt 1.604400 13.765300
vt 1.604400 13.765300
vt -1.604400 13.765300
vt -1.604400 13.765300
vt 1.604400 13.765300
vt -1.604400 13.765300
vt 1.604400 13.765300
vt 3.208700 5.474900
vt -3.208700 5.474900
vt -3.208700 3.389500
vt 3.208700 3.389500
vt 3.208700 8.593600
vt -3.208700 8.593600
vt 3.208700 6.025400
vt -3.208700 6.025400
vt -3.208700 8.593600
vt 3.208700 8.593600
vt -3.208700 6.025400
vt 3.208700 6.025400
vt -3.208700 8.593600
vt 3.208700 8.593600
vt 3.208700 6.025400
vt -3.208700 6.025400
vt 3.208700 8.593600
vt -3.208700 8.593600
vt -3.208700 6.025400
vt 3.208700 6.025400
vt -3.208700 8.593600
vt 3.208700 8.593600
vt 3.208700 6.025400
vt -3.208700 6.025400
vt 3.208700 8.593600
vt -3.208700 8.593600
vt -3.208700 6.025400
vt 3.208700 6.025400
vt 2.259700 1.707900
vt 0.000000 -4.519300
vt -2.259700 1.707900
vt -2.259700 1.707900
vt -3.913800 -2.259700
vt 2.259700 1.707900
vt -2.259700 1.707900
vt 0.000000 4.519300
vt 2.259700 1.707900
vt -2.259700 1.707900
vt 2.259700 1.707900
vt 3.913800 2.259700
vt 2.259700 1.707900
vt -2.259700 1.707900
vt 3.913800 -2.259700
vt 2.259700 1.707900
vt -3.913800 2.259700
vt -2.259700 1.707900
vt 1.604400 13.765300
vt 0.000000 -3.208700
vt -1.604400 13.765300
vt -1.604400 13.765300
vt 1.604400 13.765300
vt -2.778800 1.604400
vt -1.604400 13.765300
vt 1.604400 13.765300
vt -2.778800 -1.604400
vt 1.604400 13.765300
vt -1.604400 13.765300
vt 0.000000 3.208700
vt 2.778800 -1.604400
vt -1.604400 13.765300
vt 1.604400 13.765300
vt -1.604400 13.765300
vt 2.778800 1.604400
vt 1.604400 13.765300
s 1
usemtl brownDarkest.001
f 1/1/1 2/5/2 3/7/3
f 2/5/2 1/1/1 4/9/4
f 5/13/5 6/15/6 7/19/7
f 6/15/6 5/13/5 8/23/8
f 9/25/9 8/24/8 10/30/10
f 8/24/8 9/25/9 6/16/6
f 2/6/2 11/32/11 28/82/12 29/85/13
f 8/23/8 5/13/5 26/76/14 30/88/15
f 11/31/11 10/29/10 27/79/16 28/83/12
f 3/7/3 2/5/2 29/86/13 25/73/17
f 14/37/18 12/33/19 31/91/20 33/97/21
f 13/36/22 14/38/18 33/98/21 32/94/23
f 17/43/24 15/39/25 34/100/26 36/106/27
f 15/40/25 13/35/22 32/95/23 34/101/26
f 18/45/28 10/29/10 11/31/11
f 10/29/10 18/45/28 9/26/9
f 18/46/28 2/6/2 4/10/4
f 2/6/2 18/46/28 11/32/11
f 7/20/7 3/8/3 5/14/5
f 3/8/3 7/20/7 1/2/1
f 19/49/29 1/3/1 7/21/7
f 1/3/1 19/49/29 20/53/30
f 21/57/31 4/11/4 22/61/32
f 4/11/4 21/57/31 18/47/28
f 21/58/31 9/27/9 18/48/28
f 9/27/9 21/58/31 23/65/33
f 6/17/6 19/50/29 7/22/7
f 19/50/29 6/17/6 24/69/34
f 23/66/33 6/18/6 9/28/9
f 6/18/6 23/66/33 24/70/34
f 15/39/25 24/71/34 23/67/33
f 24/71/34 15/39/25 17/43/24
f 20/54/30 4/12/4 1/4/1
f 4/12/4 20/54/30 22/62/32
f 16/42/35 20/55/30 19/51/29
f 20/55/30 16/42/35 12/34/19
f 13/35/22 23/68/33 21/59/31
f 23/68/33 13/35/22 15/40/25
f 24/72/34 16/41/35 19/52/29
f 16/41/35 24/72/34 17/44/24
f 12/33/19 22/63/32 20/56/30
f 22/63/32 12/33/19 14/37/18
f 14/38/18 21/60/31 22/64/32
f 21/60/31 14/38/18 13/36/22
f 27/80/16 29/87/13 28/84/12
f 29/87/13 27/80/16 25/74/17
f 25/74/17 27/80/16 30/89/15
f 25/74/17 30/89/15 26/77/14
f 10/30/10 8/24/8 30/90/15 27/81/16
f 5/14/5 3/8/3 25/75/17 26/78/14
f 31/92/20 32/96/23 33/99/21
f 32/96/23 31/92/20 34/102/26
f 34/102/26 31/92/20 35/103/36
f 34/102/26 35/103/36 36/107/27
f 16/41/35 17/44/24 36/108/27 35/104/36
f 12/34/19 16/42/35 35/105/36 31/93/20
