# Blender v2.78 (sub 0) OBJ File: ''
# www.blender.org
mtllib countertop_collision.mtl
o kitchenBar_ID9.000
v -1.883961 0.567553 0.693593
v 1.883961 0.567553 0.693593
v -1.883961 -0.567553 0.693593
v 1.883961 -0.567553 0.693593
v -1.883961 0.567553 0.746919
v -1.883961 -0.567553 0.746919
v 1.883961 0.567553 0.746919
v 1.883961 -0.567553 0.746919
vt 0.0000 0.0000
vt 16.9291 0.0000
vt 0.0000 8.2677
vt 16.9291 8.2677
vt 0.0000 0.0000
vt 0.0000 8.2677
vt 16.9291 0.0000
vt 16.9291 8.2677
vn 0.0000 0.0000 -1.0000
vn 0.0000 0.0000 1.0000
vn 0.0000 1.0000 0.0000
vn 1.0000 0.0000 0.0000
vn 0.0000 -1.0000 0.0000
vn -1.0000 0.0000 0.0000
usemtl metal.000
s 1
f 1/1/1 2/2/1 3/3/1
f 4/4/1 3/3/1 2/2/1
f 5/5/2 6/6/2 7/7/2
f 8/8/2 7/7/2 6/6/2
f 2/2/3 1/1/3 5/5/3 7/7/3
f 4/4/4 2/2/4 7/7/4 8/8/4
f 3/3/5 4/4/5 8/8/5 6/6/5
f 1/1/6 3/3/6 6/6/6 5/5/6
o kitchenBar_ID9.007
v -1.883961 0.463611 0.002826
v 1.883961 0.463611 0.002826
v -1.883961 -0.463612 0.002826
v 1.883961 -0.463612 0.002826
v -1.883961 0.463611 0.691919
v -1.883961 -0.463612 0.691919
v 1.883961 0.463611 0.691919
v 1.883961 -0.463612 0.691919
vt 0.0000 0.0000
vt 16.9291 0.0000
vt 0.0000 8.2677
vt 16.9291 8.2677
vt 0.0000 0.0000
vt 0.0000 8.2677
vt 16.9291 0.0000
vt 16.9291 8.2677
vn 0.0000 0.0000 -1.0000
vn 0.0000 0.0000 1.0000
vn 0.0000 1.0000 0.0000
vn 1.0000 0.0000 0.0000
vn 0.0000 -1.0000 0.0000
vn -1.0000 0.0000 0.0000
usemtl metal.000
s 1
f 9/9/7 10/10/7 11/11/7
f 12/12/7 11/11/7 10/10/7
f 13/13/8 14/14/8 15/15/8
f 16/16/8 15/15/8 14/14/8
f 10/10/9 9/9/9 13/13/9 15/15/9
f 12/12/10 10/10/10 15/15/10 16/16/10
f 11/11/11 12/12/11 16/16/11 14/14/11
f 9/9/12 11/11/12 14/14/12 13/13/12
