# Blender 3.4.1
# www.blender.org
mtllib ciderVinegarParticle.mtl
o Cube.005
v -0.009756 -0.009756 -0.009756
v -0.009756 -0.009756 0.009756
v -0.009756 0.009756 0.009756
v -0.009756 0.009756 -0.009756
v 0.009756 0.009756 0.009756
v 0.009756 0.009756 -0.009756
v 0.009756 -0.009756 0.009756
v 0.009756 -0.009756 -0.009756
vn -1.0000 -0.0000 -0.0000
vn -0.0000 1.0000 -0.0000
vn 1.0000 -0.0000 -0.0000
vn -0.0000 -1.0000 -0.0000
vn -0.0000 -0.0000 -1.0000
vn -0.0000 -0.0000 1.0000
vt 0.375000 0.000000
vt 0.375000 1.000000
vt 0.125000 0.750000
vt 0.625000 0.000000
vt 0.625000 1.000000
vt 0.875000 0.750000
vt 0.625000 0.250000
vt 0.875000 0.500000
vt 0.375000 0.250000
vt 0.125000 0.500000
vt 0.625000 0.500000
vt 0.375000 0.500000
vt 0.625000 0.750000
vt 0.375000 0.750000
s 1
usemtl Material.001
f 1/1/1 2/4/1 3/7/1 4/9/1
f 4/9/2 3/7/2 5/11/2 6/12/2
f 6/12/3 5/11/3 7/13/3 8/14/3
f 8/14/4 7/13/4 2/5/4 1/2/4
f 4/10/5 6/12/5 8/14/5 1/3/5
f 5/11/6 3/8/6 2/6/6 7/13/6
