# Blender v2.78 (sub 0) OBJ File: ''
# www.blender.org
mtllib back.mtl
o kitchenCabinet1.001_ID7.009
v -3.134774 -0.030000 1.066898
v -3.134774 -0.030000 -1.066899
v 3.134775 -0.030000 -1.066899
v 3.134775 -0.030000 1.066898
v 3.134774 0.030000 -1.066898
v -3.134774 0.030000 1.066898
v 3.134774 0.030000 1.066898
v -3.134774 0.030000 -1.066898
vt 0.0000 0.0000
vt 0.0000 0.0000
vt 0.0000 0.0000
vt 16.9291 17.7165
vt 0.0000 17.7165
vt 0.0000 0.0000
vt 16.9291 16.5354
vt 0.0000 16.5354
vt 16.9291 16.5354
vt 0.0000 16.5354
vt 16.9291 17.7165
vt 0.0000 17.7165
vn 0.0000 -1.0000 0.0000
vn 1.0000 0.0000 0.0000
vn 0.0000 0.0000 -1.0000
vn 0.0000 0.0000 1.0000
vn 0.0000 1.0000 0.0000
vn -0.7071 0.0000 -0.7071
vn -0.7093 0.0000 -0.7049
vn -1.0000 0.0000 0.0000
usemtl wood.002
s off
f 1/1/1 2/2/1 3/3/1
f 4/4/1 1/5/1 3/3/1
f 3/3/2 5/6/2 4/4/2
f 2/2/3 5/7/3 3/3/3
s 1
f 6/8/4 1/5/4 7/9/4
f 4/4/4 7/9/4 1/5/4
f 5/7/5 8/10/5 7/11/5
f 6/12/5 7/11/5 8/10/5
f 5/6/2 7/9/2 4/4/2
f 8/10/6 2/2/7 6/12/8
f 1/1/8 6/12/8 2/2/7
f 8/10/6 5/7/3 2/2/7
