# Blender v2.78 (sub 0) OBJ File: ''
# www.blender.org
mtllib shaft.mtl
o cookingSpatula.002_cookingSpatula.003
v 0.101970 -0.005000 0.012488
v 0.101970 0.005000 0.012488
v 0.101970 -0.005000 -0.012488
v -0.101970 0.005000 0.022488
v -0.101970 0.005000 -0.022488
v 0.101970 0.005000 -0.012488
v -0.101970 -0.005000 -0.022488
v -0.101970 -0.005000 0.022488
vt -3.7176 0.8854
vt -3.7176 -0.8854
vt -3.7176 -0.8854
vt -3.7176 0.8854
vt 4.3116 0.4917
vt 4.3116 0.4917
vt 4.3116 -0.4917
vt 4.3116 -0.4917
vn -0.7463 -0.6656 0.0000
vn -0.5643 -0.5748 0.5926
vn -0.5643 0.5748 0.5926
vn -0.7463 0.6656 0.0000
vn 0.5900 -0.5800 -0.5618
vn 0.0488 -0.0767 -0.9959
vn 0.0488 0.0767 -0.9959
vn 0.5900 0.5800 -0.5618
vn 0.0485 -0.1380 0.9892
vn 0.0485 0.1380 0.9892
vn 0.0000 1.0000 0.0000
vn 1.0000 0.0000 0.0000
vn 0.0000 -1.0000 0.0000
usemtl white
s 1
f 7/1/1 8/2/2 4/3/3 5/4/4
f 3/5/5 7/1/6 5/4/7 6/6/8
f 8/2/2 1/7/9 2/8/10 4/3/3
f 5/4/7 2/8/11 6/6/8
f 1/7/12 3/5/5 6/6/8 2/8/12
f 2/8/10 5/4/4 4/3/3
f 1/7/9 8/2/2 7/1/1
f 7/1/6 3/5/5 1/7/13
