# Blender 3.4.1
# www.blender.org
mtllib BreadKnifeBlade.mtl
o cookingKnife
v 0.382061 -0.001440 -0.044676
v -0.117321 -0.005000 -0.028555
v -0.117321 -0.001440 -0.063157
v 0.157934 0.001440 -0.044676
v -0.117321 0.001440 -0.063157
v -0.117321 0.005000 -0.028555
v -0.117321 -0.005000 0.016843
v -0.117321 0.005000 0.016843
v 0.251794 -0.001440 0.046843
v 0.249184 0.001440 0.046843
v -0.127321 -0.005000 0.046843
v -0.127321 0.005000 0.046843
v -0.127321 -0.005000 0.016843
v -0.127321 0.005000 0.016843
vn 0.7935 -0.0955 -0.6010
vn -0.6938 -0.7193 -0.0361
vn -0.8727 -0.0766 -0.4822
vn 0.0189 0.9696 -0.2440
vn -0.4749 0.8401 -0.2622
vn -0.6921 0.7209 -0.0356
vn -0.2966 -0.9065 -0.3006
vn -0.2950 0.9066 -0.3017
vn 0.0793 -0.3903 0.9173
vn 0.0165 0.7755 0.6312
vn -0.5751 -0.5795 0.5774
vn -0.5751 0.5795 0.5774
vn -0.5774 -0.5774 -0.5774
vn -0.5774 0.5774 -0.5774
vt -10.703700 1.426900
vt 4.060000 1.147300
vt 4.060000 2.509600
vt -10.703700 1.426900
vt 4.060000 2.509600
vt 4.060000 1.147300
vt 0.000000 0.000000
vt 4.060000 -0.640000
vt 0.000000 0.000000
vt 4.060000 -0.640000
vt 0.000000 0.000000
vt 0.000000 0.000000
vt 4.453700 -1.821100
vt 4.453700 -1.821100
vt 4.453700 -0.640000
vt 4.453700 -0.640000
s 1
usemtl white
f 1/1/1 2/2/2 3/3/3
f 4/4/4 5/5/5 6/6/6
f 2/2/2 1/1/1 7/7/7
f 2/2/2 6/6/6 5/5/5 3/3/3
f 8/9/8 4/4/4 6/6/6
f 4/4/4 1/1/1 3/3/3 5/5/5
f 7/7/7 8/9/8 6/6/6 2/2/2
usemtl greyLight
f 1/1/1 9/11/9 7/7/7
f 4/4/4 8/9/8 10/12/10
f 9/11/9 11/13/11 7/8/7
f 10/12/10 8/10/8 12/14/12
f 7/8/7 11/13/11 13/15/13
f 1/1/1 4/4/4 10/12/10 9/11/9
f 9/11/9 10/12/10 12/14/12 11/13/11
f 11/13/11 12/14/12 14/16/14 13/15/13
f 8/10/8 14/16/14 12/14/12
f 13/15/13 14/16/14 8/10/8 7/8/7
