# Blender v2.78 (sub 0) OBJ File: 'tmp_MSPrep.blend'
# www.blender.org
mtllib wall_visual.mtl
o wallHalf
v 0.500000 0.050000 -1.289532
v 0.500000 -0.050000 -1.289532
v -0.500000 -0.050000 -1.289532
v -0.500000 0.050000 -1.289532
v 0.500000 -0.050000 1.289532
v 0.500000 0.050000 1.289532
v -0.500000 0.050000 1.289532
v -0.500000 -0.050000 1.289532
vt -19.6850 1.9685
vt -19.6850 0.0000
vt 0.0000 0.0000
vt -19.6850 1.9685
vt -19.6850 0.0000
vt 0.0000 0.0000
vt 19.6850 0.0000
vt 19.6850 1.9685
vt 0.0000 1.9685
vt 19.6850 0.0000
vt 19.6850 1.9685
vt 0.0000 1.9685
vt 0.0000 50.7690
vt -19.6850 50.7690
vt -19.6850 0.0000
vt 0.0000 50.7690
vt -19.6850 50.7690
vt -19.6850 0.0000
vt -19.6850 0.0000
vt 0.0000 0.0000
vt 0.0000 50.7690
vt -19.6850 50.7690
vt 0.0000 1.9685
vt -19.6850 1.9685
vt -19.6850 0.0000
vt 0.0000 1.9685
vt 0.0000 0.0000
vn 1.0000 0.0000 0.0000
vn -1.0000 0.0000 0.0000
vn 0.0000 1.0000 0.0000
vn 0.0000 -1.0000 -0.0000
vn 0.0000 0.0000 -1.0000
vn 0.0000 0.0000 1.0000
usemtl _defaultMat.008
s 1
f 1/1/1 6/2/1 5/3/1
f 5/4/1 2/5/1 1/6/1
f 7/7/2 4/8/2 3/9/2
f 3/10/2 8/11/2 7/12/2
f 1/13/3 4/14/3 7/15/3
f 7/16/3 6/17/3 1/18/3
usemtl metalDark.003
f 3/19/4 2/20/4 5/21/4
f 5/21/4 8/22/4 3/19/4
usemtl wood.002
f 1/6/5 2/23/5 3/24/5
f 3/24/5 4/25/5 1/6/5
f 5/26/6 6/27/6 7/7/6
f 7/7/6 8/11/6 5/26/6
