# Blender 3.4.1
# www.blender.org
mtllib FoodProcessorContainerCollider.mtl
o Container.006
v 0.035709 -0.079133 -0.062229
v -0.035305 -0.079133 -0.062229
v 0.035709 -0.079133 0.054317
v -0.035305 -0.079133 0.054317
v 0.032104 -0.070285 0.054317
v -0.031809 -0.070285 0.054317
v 0.032104 -0.070285 -0.062229
v -0.031809 -0.070285 -0.062229
v 0.035709 -0.079133 -0.068879
v -0.035305 -0.079133 -0.068879
v 0.017956 -0.079133 0.029283
v -0.017551 -0.079133 0.029283
v -0.017551 -0.079133 -0.062229
v -0.017551 -0.079133 0.054317
v 0.017956 -0.079133 -0.062229
v 0.017956 -0.079133 0.054317
vn -0.0000 -1.0000 -0.0000
vn -0.0000 -0.0000 1.0000
vn -0.0000 1.0000 -0.0000
vn -0.9300 0.3675 -0.0000
vn 0.9261 0.3773 -0.0000
vn -0.0000 0.6008 -0.7994
vt 0.000000 0.000000
vt 0.562500 1.000000
vt 0.000000 0.000000
vt 0.000000 0.000000
vt 0.000000 0.000000
vt 0.000000 0.000000
vt 0.000000 0.000000
vt 0.000000 0.000000
vt 0.000000 0.000000
vt 0.562500 1.000000
vt 0.437500 1.000000
vt 0.000000 0.000000
vt 0.000000 0.000000
vt 0.140625 0.250000
vt 0.000000 0.000000
vt 0.000000 0.000000
vt 0.000000 0.000000
vt 0.421875 0.750000
vt 0.000000 0.000000
s 0
usemtl Grey.003
f 16/19/1 11/12/1 15/17/1 1/1/1 3/4/1
f 4/5/2 14/16/2 16/19/2 3/4/2 5/6/2 6/7/2
f 6/7/3 5/6/3 7/8/3 8/9/3
f 10/11/1 9/10/1 1/2/1 15/18/1 13/14/1 2/3/1
f 12/13/1 13/15/1 15/18/1 11/12/1
f 4/5/1 2/3/1 13/15/1 12/13/1 14/16/1
f 11/12/1 16/19/1 14/16/1 12/13/1
f 2/3/4 4/5/4 6/7/4 8/9/4 10/11/4
f 1/2/5 9/10/5 7/8/5 5/6/5 3/4/5
f 8/9/6 7/8/6 9/10/6 10/11/6
o Container.001
v 0.017956 -0.079133 0.029283
v 0.013451 -0.118844 0.055863
v -0.017551 -0.079133 0.029283
v -0.022753 -0.118844 0.055863
v -0.017551 -0.079133 0.054317
v 0.017956 -0.079133 0.054317
vn -0.0000 -0.5562 -0.8310
vn -0.9915 0.1299 -0.0000
vn 0.9936 -0.1127 -0.0000
vn -0.0000 0.0389 0.9992
vn -0.0000 1.0000 -0.0000
vt 0.000000 0.000000
vt 0.000000 0.000000
vt 0.000000 0.000000
vt 0.000000 0.000000
vt 0.000000 0.000000
vt 0.000000 0.000000
s 0
usemtl Grey.003
f 19/22/7 17/20/7 18/21/7 20/23/7
f 21/24/8 19/22/8 20/23/8
f 17/20/9 22/25/9 18/21/9
f 20/23/10 18/21/10 22/25/10 21/24/10
f 21/24/11 22/25/11 17/20/11 19/22/11
o Container.002
v 0.032104 0.084015 -0.062229
v 0.077298 0.038822 -0.062229
v 0.077298 -0.025091 -0.062229
v 0.032104 -0.070285 -0.062229
v -0.031809 -0.070285 -0.062229
v -0.077003 -0.025091 -0.062229
v -0.077003 0.038822 -0.062229
v -0.031809 0.084015 -0.062229
v 0.035709 0.092312 -0.068879
v 0.085925 0.042096 -0.068879
v 0.085925 -0.028918 -0.068879
v 0.035709 -0.079133 -0.068879
v -0.035305 -0.079133 -0.068879
v -0.085520 -0.028918 -0.068879
v -0.085520 0.042096 -0.068879
v -0.035305 0.092312 -0.068879
vn -0.0000 -0.0000 1.0000
vn -0.0000 -0.0000 -1.0000
vn 0.4261 -0.4261 0.7980
vn 0.6105 -0.0000 0.7920
vn 0.4384 0.4384 0.7846
vn -0.0000 0.6254 0.7803
vn -0.4409 0.4409 0.7818
vn -0.6154 -0.0000 0.7882
vn -0.4285 -0.4285 0.7954
vn -0.0000 -0.6008 0.7994
vt 0.000000 0.000000
vt 0.000000 0.000000
vt 0.000000 0.000000
vt 0.000000 0.000000
vt 0.000000 0.000000
vt 0.000000 0.000000
vt 0.000000 0.000000
vt 0.000000 0.000000
vt 0.937500 1.000000
vt 0.812500 1.000000
vt 0.687500 1.000000
vt 0.562500 1.000000
vt 0.437500 1.000000
vt 0.312500 1.000000
vt 0.187500 1.000000
vt 0.062500 1.000000
s 0
usemtl Grey.003
f 24/27/12 23/26/12 30/33/12 29/32/12 28/31/12 27/30/12 26/29/12 25/28/12
f 36/39/13 37/40/13 38/41/13 31/34/13 32/35/13 33/36/13 34/37/13 35/38/13
f 26/29/14 34/37/14 33/36/14 25/28/14
f 25/28/15 33/36/15 32/35/15 24/27/15
f 24/27/16 32/35/16 31/34/16 23/26/16
f 30/33/17 23/26/17 31/34/17 38/41/17
f 38/41/18 37/40/18 29/32/18 30/33/18
f 29/32/19 37/40/19 36/39/19 28/31/19
f 28/31/20 36/39/20 35/38/20 27/30/20
f 27/30/21 35/38/21 34/37/21 26/29/21
o Container.003
v -0.085520 -0.028918 -0.062229
v -0.085520 0.042096 -0.062229
v -0.085520 -0.028918 0.054317
v -0.085520 0.042096 0.054317
v -0.077003 -0.025091 0.054317
v -0.077003 0.038822 0.054317
v -0.077003 -0.025091 -0.062229
v -0.077003 0.038822 -0.062229
v -0.085520 -0.028918 -0.068879
v -0.085520 0.042096 -0.068879
vn -1.0000 -0.0000 -0.0000
vn 1.0000 -0.0000 -0.0000
vn -0.0000 -0.0000 1.0000
vn 0.3588 0.9334 -0.0000
vn 0.6154 -0.0000 -0.7882
vn 0.4099 -0.9121 -0.0000
vt 0.312500 1.000000
vt 0.187500 1.000000
vt 0.312500 1.000000
vt 0.187500 1.000000
vt 0.312500 1.000000
vt 0.187500 1.000000
vt 0.000000 0.000000
vt 0.000000 0.000000
vt 0.312500 1.000000
vt 0.187500 1.000000
s 0
usemtl Grey.003
f 42/45/22 40/43/22 39/42/22 41/44/22
f 47/50/22 39/42/22 40/43/22 48/51/22
f 46/49/23 44/47/23 43/46/23 45/48/23
f 43/46/24 44/47/24 42/45/24 41/44/24
f 40/43/25 42/45/25 44/47/25 46/49/25 48/51/25
f 46/49/26 45/48/26 47/50/26 48/51/26
f 39/42/27 47/50/27 45/48/27 43/46/27 41/44/27
o Container.004
v -0.085520 0.042096 -0.062229
v -0.035305 0.092312 -0.062229
v -0.085520 0.042096 0.054317
v -0.035305 0.092312 0.054317
v -0.077003 0.038822 0.054317
v -0.031809 0.084015 0.054317
v -0.077003 0.038822 -0.062229
v -0.031809 0.084015 -0.062229
v -0.085520 0.042096 -0.068879
v -0.035305 0.092312 -0.068879
vn -0.7071 0.7071 -0.0000
vn 0.7071 -0.7071 -0.0000
vn -0.0000 -0.0000 1.0000
vn 0.4409 -0.4409 -0.7818
vn -0.3588 -0.9334 -0.0000
vn 0.9215 0.3883 -0.0000
vt 0.187500 1.000000
vt 0.062500 1.000000
vt 0.187500 1.000000
vt 0.062500 1.000000
vt 0.187500 1.000000
vt 0.062500 1.000000
vt 0.000000 0.000000
vt 0.000000 0.000000
vt 0.187500 1.000000
vt 0.062500 1.000000
s 0
usemtl Grey.003
f 51/54/28 52/55/28 50/53/28 49/52/28
f 50/53/28 58/61/28 57/60/28 49/52/28
f 53/56/29 55/58/29 56/59/29 54/57/29
f 53/56/30 54/57/30 52/55/30 51/54/30
f 56/59/31 55/58/31 57/60/31 58/61/31
f 49/52/32 57/60/32 55/58/32 53/56/32 51/54/32
f 50/53/33 52/55/33 54/57/33 56/59/33 58/61/33
o Container.005
v 0.035709 0.092312 -0.062229
v -0.035305 0.092312 -0.062229
v 0.035709 0.092312 0.054317
v -0.035305 0.092312 0.054317
v 0.032104 0.084015 0.054317
v -0.031809 0.084015 0.054317
v 0.032104 0.084015 -0.062229
v -0.031809 0.084015 -0.062229
v 0.035709 0.092312 -0.068879
v -0.035305 0.092312 -0.068879
vn -0.0000 1.0000 -0.0000
vn -0.0000 -1.0000 -0.0000
vn -0.0000 -0.0000 1.0000
vn -0.0000 -0.6254 -0.7803
vn -0.9215 -0.3883 -0.0000
vn 0.9172 -0.3985 -0.0000
vt 0.937500 1.000000
vt 0.062500 1.000000
vt 0.937500 1.000000
vt 0.062500 1.000000
vt 0.000000 0.000000
vt 0.062500 1.000000
vt 0.000000 0.000000
vt 0.000000 0.000000
vt 0.937500 1.000000
vt 0.062500 1.000000
s 0
usemtl Grey.003
f 68/71/34 60/63/34 59/62/34 67/70/34
f 63/66/35 64/67/35 66/69/35 65/68/35
f 62/65/34 61/64/34 59/62/34 60/63/34
f 64/67/36 63/66/36 61/64/36 62/65/36
f 66/69/37 68/71/37 67/70/37 65/68/37
f 60/63/38 68/71/38 66/69/38 64/67/38 62/65/38
f 59/62/39 61/64/39 63/66/39 65/68/39 67/70/39
o Container.007
v -0.035305 -0.079133 -0.062229
v -0.085520 -0.028918 -0.062229
v -0.035305 -0.079133 0.054317
v -0.085520 -0.028918 0.054317
v -0.031809 -0.070285 0.054317
v -0.077003 -0.025091 0.054317
v -0.031809 -0.070285 -0.062229
v -0.077003 -0.025091 -0.062229
v -0.035305 -0.079133 -0.068879
v -0.085520 -0.028918 -0.068879
vn 0.7071 0.7071 -0.0000
vn -0.7071 -0.7071 -0.0000
vn -0.0000 -0.0000 1.0000
vn 0.4285 0.4285 -0.7954
vn 0.9300 -0.3675 -0.0000
vn -0.4099 0.9121 -0.0000
vt 0.000000 0.000000
vt 0.312500 1.000000
vt 0.000000 0.000000
vt 0.312500 1.000000
vt 0.000000 0.000000
vt 0.312500 1.000000
vt 0.000000 0.000000
vt 0.000000 0.000000
vt 0.437500 1.000000
vt 0.312500 1.000000
s 0
usemtl Grey.003
f 71/74/40 69/72/40 70/73/40 72/75/40
f 69/72/41 70/73/41 78/81/41 77/80/41
f 73/76/40 75/78/40 76/79/40 74/77/40
f 73/76/42 74/77/42 72/75/42 71/74/42
f 76/79/43 75/78/43 77/80/43 78/81/43
f 69/72/44 77/80/44 75/78/44 73/76/44 71/74/44
f 70/73/45 72/75/45 74/77/45 76/79/45 78/81/45
o Container.008
v 0.035709 0.092312 -0.062229
v 0.085925 0.042096 -0.062229
v 0.035709 0.092312 0.054317
v 0.085925 0.042096 0.054317
v 0.032104 0.084015 0.054317
v 0.077298 0.038822 0.054317
v 0.032104 0.084015 -0.062229
v 0.077298 0.038822 -0.062229
v 0.035709 0.092312 -0.068879
v 0.085925 0.042096 -0.068879
vn -0.0000 -0.0000 1.0000
vn 0.7071 0.7071 -0.0000
vn -0.7071 -0.7071 -0.0000
vn -0.9172 0.3985 -0.0000
vn 0.3548 -0.9349 -0.0000
vn -0.4384 -0.4384 -0.7846
vt 0.937500 1.000000
vt 0.812500 1.000000
vt 0.000000 0.000000
vt 0.937500 1.000000
vt 0.812500 1.000000
vt 0.000000 0.000000
vt 0.000000 0.000000
vt 0.000000 0.000000
vt 0.000000 0.000000
vt 0.937500 1.000000
vt 0.812500 1.000000
s 0
usemtl Grey.003
f 84/88/46 82/86/46 81/85/46 83/87/46
f 81/84/47 82/86/47 80/83/47 79/82/47
f 88/92/47 87/91/47 79/82/47 80/83/47
f 83/87/48 85/89/48 86/90/48 84/88/48
f 79/82/49 87/91/49 85/89/49 83/87/49 81/85/49
f 80/83/50 82/86/50 84/88/50 86/90/50 88/92/50
f 86/90/51 85/89/51 87/91/51 88/92/51
o Container.009
v 0.085925 0.042096 -0.062229
v 0.085925 -0.028918 -0.062229
v 0.085925 0.042096 0.054317
v 0.085925 -0.028918 0.054317
v 0.077298 0.038822 0.054317
v 0.077298 -0.025091 0.054317
v 0.077298 0.038822 -0.062229
v 0.077298 -0.025091 -0.062229
v 0.085925 0.042096 -0.068879
v 0.085925 -0.028918 -0.068879
vn -0.0000 -0.0000 1.0000
vn -1.0000 -0.0000 -0.0000
vn 1.0000 -0.0000 -0.0000
vn -0.6105 -0.0000 -0.7920
vn -0.3548 0.9349 -0.0000
vn -0.4055 -0.9141 -0.0000
vt 0.812500 1.000000
vt 0.687500 1.000000
vt 0.812500 1.000000
vt 0.000000 0.000000
vt 0.000000 0.000000
vt 0.000000 0.000000
vt 0.000000 0.000000
vt 0.000000 0.000000
vt 0.812500 1.000000
vt 0.687500 1.000000
s 0
usemtl Grey.003
f 91/95/52 93/97/52 94/98/52 92/96/52
f 96/100/53 94/98/53 93/97/53 95/99/53
f 92/96/54 90/94/54 89/93/54 91/95/54
f 89/93/54 90/94/54 98/102/54 97/101/54
f 96/100/55 95/99/55 97/101/55 98/102/55
f 89/93/56 97/101/56 95/99/56 93/97/56 91/95/56
f 90/94/57 92/96/57 94/98/57 96/100/57 98/102/57
o Container.010
v 0.085925 -0.028918 -0.062229
v 0.035709 -0.079133 -0.062229
v 0.085925 -0.028918 0.054317
v 0.035709 -0.079133 0.054317
v 0.077298 -0.025091 0.054317
v 0.032104 -0.070285 0.054317
v 0.077298 -0.025091 -0.062229
v 0.032104 -0.070285 -0.062229
v 0.085925 -0.028918 -0.068879
v 0.035709 -0.079133 -0.068879
vn 0.7071 -0.7071 -0.0000
vn -0.0000 -0.0000 1.0000
vn -0.7071 0.7071 -0.0000
vn -0.9261 -0.3773 -0.0000
vn 0.4055 0.9141 -0.0000
vn -0.4261 0.4261 -0.7980
vt 0.000000 0.000000
vt 0.687500 1.000000
vt 0.000000 0.000000
vt 0.562500 1.000000
vt 0.000000 0.000000
vt 0.000000 0.000000
vt 0.000000 0.000000
vt 0.000000 0.000000
vt 0.000000 0.000000
vt 0.000000 0.000000
vt 0.687500 1.000000
vt 0.562500 1.000000
s 0
usemtl Grey.003
f 102/108/58 100/105/58 99/103/58 101/107/58
f 100/106/58 108/114/58 107/113/58 99/104/58
f 101/107/59 103/109/59 104/110/59 102/108/59
f 104/110/60 103/109/60 105/111/60 106/112/60
f 100/106/61 102/108/61 104/110/61 106/112/61 108/114/61
f 99/104/62 107/113/62 105/111/62 103/109/62 101/107/62
f 106/112/63 105/111/63 107/113/63 108/114/63
