# Blender 3.4.1
# www.blender.org
mtllib FoodProcessorLidCollider.mtl
o Lid
v 0.011693 -0.028229 -0.011997
v 0.028229 -0.011693 -0.011997
v 0.011693 -0.028229 0.042586
v 0.028229 -0.011693 0.042586
v 0.009581 -0.023132 0.042586
v 0.023132 -0.009581 0.042586
v 0.009581 -0.023132 -0.012585
v 0.023132 -0.009581 -0.012585
vn -0.0000 -0.0000 1.0000
vn -0.7071 0.7071 -0.0000
vn 0.7071 -0.7071 -0.0000
vn 0.3827 0.9239 -0.0000
vn -0.9239 -0.3827 -0.0000
vn 0.0811 -0.0811 -0.9934
vt 0.562500 1.000000
vt 0.687500 1.000000
vt 0.562500 1.000000
vt 0.687500 1.000000
vt 0.562500 1.000000
vt 0.687500 1.000000
vt 0.562500 1.000000
vt 0.687500 1.000000
s 0
usemtl Material.019
f 4/4/1 6/6/1 5/5/1 3/3/1
f 6/6/2 8/8/2 7/7/2 5/5/2
f 2/2/3 4/4/3 3/3/3 1/1/3
f 2/2/4 8/8/4 6/6/4 4/4/4
f 3/3/5 5/5/5 7/7/5 1/1/5
f 2/2/6 1/1/6 7/7/6 8/8/6
o Lid.001
v 0.085722 0.035507 -0.021075
v 0.085722 -0.035507 -0.021075
v 0.085722 0.035507 -0.011997
v 0.085722 -0.035507 -0.011997
v 0.023132 -0.009581 -0.027519
v 0.023132 0.009581 -0.027519
v 0.028229 0.011693 -0.011997
v 0.028229 -0.011693 -0.011997
v 0.023132 0.009581 -0.012585
v 0.023132 -0.009581 -0.012585
vn 1.0000 -0.0000 -0.0000
vn -0.0000 -0.0000 1.0000
vn 0.1024 -0.0000 -0.9947
vn -1.0000 -0.0000 -0.0000
vn -0.1146 -0.0000 0.9934
vn -0.3827 0.9239 -0.0000
vn -0.3827 -0.9239 -0.0000
vt 0.812500 1.000000
vt 0.687500 1.000000
vt 0.812500 1.000000
vt 0.687500 1.000000
vt 0.687500 1.000000
vt 0.812500 1.000000
vt 0.812500 1.000000
vt 0.687500 1.000000
vt 0.812500 1.000000
vt 0.687500 1.000000
s 0
usemtl Material.019
f 11/11/7 12/12/7 10/10/7 9/9/7
f 16/16/8 12/12/8 11/11/8 15/15/8
f 13/13/9 14/14/9 9/9/9 10/10/9
f 13/13/10 18/18/10 17/17/10 14/14/10
f 18/18/11 16/16/11 15/15/11 17/17/11
f 11/11/12 9/9/12 14/14/12 17/17/12 15/15/12
f 12/12/13 16/16/13 18/18/13 13/13/13 10/10/13
o Lid.002
v 0.085722 -0.035507 -0.021075
v 0.035507 -0.085722 -0.021075
v 0.035507 -0.085722 -0.011997
v 0.085722 -0.035507 -0.011997
v 0.023132 -0.009581 -0.027519
v 0.009581 -0.023132 -0.027519
v 0.011693 -0.028229 -0.011997
v 0.028229 -0.011693 -0.011997
v 0.009581 -0.023132 -0.012585
v 0.023132 -0.009581 -0.012585
vn 0.0724 -0.0724 -0.9947
vn -0.7071 0.7071 -0.0000
vn 0.7071 -0.7071 -0.0000
vn -0.0000 -0.0000 1.0000
vn -0.0811 0.0811 0.9934
vn 0.3827 0.9239 -0.0000
vn -0.9239 -0.3827 -0.0000
vt 0.687500 1.000000
vt 0.562500 1.000000
vt 0.562500 1.000000
vt 0.687500 1.000000
vt 0.687500 1.000000
vt 0.562500 1.000000
vt 0.562500 1.000000
vt 0.687500 1.000000
vt 0.562500 1.000000
vt 0.687500 1.000000
s 0
usemtl Material.019
f 20/20/14 24/24/14 23/23/14 19/19/14
f 24/24/15 27/27/15 28/28/15 23/23/15
f 21/21/16 20/20/16 19/19/16 22/22/16
f 26/26/17 25/25/17 21/21/17 22/22/17
f 26/26/18 28/28/18 27/27/18 25/25/18
f 19/19/19 23/23/19 28/28/19 26/26/19 22/22/19
f 21/21/20 25/25/20 27/27/20 24/24/20 20/20/20
o Lid.003
v 0.035507 -0.085722 -0.021075
v -0.035507 -0.085722 -0.021075
v 0.035507 -0.085722 -0.011997
v -0.035507 -0.085722 -0.011997
v -0.009581 -0.023132 -0.027519
v 0.009581 -0.023132 -0.027519
v 0.011693 -0.028229 -0.011997
v -0.011693 -0.028229 -0.011997
v 0.009581 -0.023132 -0.012585
v -0.009581 -0.023132 -0.012585
vn -0.0000 -1.0000 -0.0000
vn -0.0000 -0.1024 -0.9947
vn -0.0000 -0.0000 1.0000
vn -0.0000 1.0000 -0.0000
vn -0.0000 0.1146 0.9934
vn 0.9239 0.3827 -0.0000
vn -0.9239 0.3827 -0.0000
vt 0.562500 1.000000
vt 0.437500 1.000000
vt 0.562500 1.000000
vt 0.437500 1.000000
vt 0.437500 1.000000
vt 0.562500 1.000000
vt 0.562500 1.000000
vt 0.437500 1.000000
vt 0.562500 1.000000
vt 0.437500 1.000000
s 0
usemtl Material.019
f 31/31/21 32/32/21 30/30/21 29/29/21
f 29/29/22 30/30/22 33/33/22 34/34/22
f 35/35/23 36/36/23 32/32/23 31/31/23
f 37/37/24 34/34/24 33/33/24 38/38/24
f 37/37/25 38/38/25 36/36/25 35/35/25
f 31/31/26 29/29/26 34/34/26 37/37/26 35/35/26
f 32/32/27 36/36/27 38/38/27 33/33/27 30/30/27
o Lid.004
v -0.035507 -0.085722 -0.021075
v -0.085722 -0.035507 -0.021075
v -0.035507 -0.085722 -0.011997
v -0.085722 -0.035507 -0.011997
v -0.023132 -0.009581 -0.027519
v -0.009581 -0.023132 -0.027519
v -0.011693 -0.028229 -0.011997
v -0.028229 -0.011693 -0.011997
v -0.009581 -0.023132 -0.012585
v -0.023132 -0.009581 -0.012585
vn -0.7071 -0.7071 -0.0000
vn -0.0000 -0.0000 1.0000
vn -0.0724 -0.0724 -0.9947
vn 0.7071 0.7071 -0.0000
vn 0.0811 0.0811 0.9934
vn 0.9239 -0.3827 -0.0000
vn -0.3827 0.9239 -0.0000
vt 0.437500 1.000000
vt 0.312500 1.000000
vt 0.437500 1.000000
vt 0.312500 1.000000
vt 0.312500 1.000000
vt 0.437500 1.000000
vt 0.437500 1.000000
vt 0.312500 1.000000
vt 0.437500 1.000000
vt 0.312500 1.000000
s 0
usemtl Material.019
f 41/41/28 42/42/28 40/40/28 39/39/28
f 45/45/29 46/46/29 42/42/29 41/41/29
f 39/39/30 40/40/30 43/43/30 44/44/30
f 48/48/31 47/47/31 44/44/31 43/43/31
f 48/48/32 46/46/32 45/45/32 47/47/32
f 41/41/33 39/39/33 44/44/33 47/47/33 45/45/33
f 42/42/34 46/46/34 48/48/34 43/43/34 40/40/34
o Lid.005
v -0.085722 -0.035507 -0.021075
v -0.085722 0.035507 -0.021075
v -0.085722 -0.035507 -0.011997
v -0.085722 0.035507 -0.011997
v -0.023132 0.009581 -0.027519
v -0.023132 -0.009581 -0.027519
v -0.028229 -0.011693 -0.011997
v -0.028229 0.011693 -0.011997
v -0.023132 -0.009581 -0.012585
v -0.023132 0.009581 -0.012585
vn -0.1024 -0.0000 -0.9947
vn 1.0000 -0.0000 -0.0000
vn -0.0000 -0.0000 1.0000
vn -1.0000 -0.0000 -0.0000
vn 0.3827 -0.9239 -0.0000
vn 0.1146 -0.0000 0.9934
vn 0.3827 0.9239 -0.0000
vt 0.312500 1.000000
vt 0.000000 0.000000
vt 0.312500 1.000000
vt 0.187500 1.000000
vt 0.187500 1.000000
vt 0.312500 1.000000
vt 0.312500 1.000000
vt 0.187500 1.000000
vt 0.312500 1.000000
vt 0.187500 1.000000
s 0
usemtl Material.019
f 53/53/35 54/54/35 49/49/35 50/50/35
f 57/57/36 54/54/36 53/53/36 58/58/36
f 56/56/37 52/52/37 51/51/37 55/55/37
f 49/49/38 51/51/38 52/52/38 50/50/38
f 51/51/39 49/49/39 54/54/39 57/57/39 55/55/39
f 58/58/40 56/56/40 55/55/40 57/57/40
f 52/52/41 56/56/41 58/58/41 53/53/41 50/50/41
o Lid.006
v -0.085722 0.035507 -0.021075
v -0.035507 0.085722 -0.021075
v -0.085722 0.035507 -0.011997
v -0.035507 0.085722 -0.011997
v -0.009581 0.023132 -0.027519
v -0.023132 0.009581 -0.027519
v -0.028229 0.011693 -0.011997
v -0.011693 0.028229 -0.011997
v -0.023132 0.009581 -0.012585
v -0.009581 0.023132 -0.012585
vn 0.7071 -0.7071 -0.0000
vn -0.7071 0.7071 -0.0000
vn -0.0000 -0.0000 1.0000
vn -0.0724 0.0724 -0.9947
vn -0.3827 -0.9239 -0.0000
vn 0.0811 -0.0811 0.9934
vn 0.9239 0.3827 -0.0000
vt 0.000000 0.000000
vt 0.062500 1.000000
vt 0.187500 1.000000
vt 0.062500 1.000000
vt 0.062500 1.000000
vt 0.187500 1.000000
vt 0.187500 1.000000
vt 0.062500 1.000000
vt 0.187500 1.000000
vt 0.062500 1.000000
s 0
usemtl Material.019
f 63/63/42 68/68/42 67/67/42 64/64/42
f 60/60/43 59/59/43 61/61/43 62/62/43
f 66/66/44 62/62/44 61/61/44 65/65/44
f 63/63/45 64/64/45 59/59/45 60/60/45
f 61/61/46 59/59/46 64/64/46 67/67/46 65/65/46
f 67/67/47 68/68/47 66/66/47 65/65/47
f 62/62/48 66/66/48 68/68/48 63/63/48 60/60/48
o Lid.007
v 0.035507 0.085722 -0.021075
v -0.035507 0.085722 -0.021075
v 0.035507 0.085722 -0.011997
v -0.035507 0.085722 -0.011997
v -0.009581 0.023132 -0.027519
v 0.009581 0.023132 -0.027519
v 0.011693 0.028229 -0.011997
v -0.011693 0.028229 -0.011997
v 0.009581 0.023132 -0.012585
v -0.009581 0.023132 -0.012585
vn -0.0000 -1.0000 -0.0000
vn -0.0000 -0.0000 1.0000
vn -0.0000 1.0000 -0.0000
vn -0.0000 0.1024 -0.9947
vn -0.0000 -0.1146 0.9934
vn -0.9239 -0.3827 -0.0000
vn 0.9239 -0.3827 -0.0000
vt 0.937500 1.000000
vt 0.062500 1.000000
vt 0.937500 1.000000
vt 0.062500 1.000000
vt 0.062500 1.000000
vt 0.937500 1.000000
vt 0.937500 1.000000
vt 0.062500 1.000000
vt 0.937500 1.000000
vt 0.062500 1.000000
s 0
usemtl Material.019
f 77/77/49 78/78/49 73/73/49 74/74/49
f 76/76/50 75/75/50 71/71/50 72/72/50
f 69/69/51 70/70/51 72/72/51 71/71/51
f 73/73/52 70/70/52 69/69/52 74/74/52
f 77/77/53 75/75/53 76/76/53 78/78/53
f 72/72/54 70/70/54 73/73/54 78/78/54 76/76/54
f 71/71/55 75/75/55 77/77/55 74/74/55 69/69/55
o Lid.008
v 0.035507 0.085722 -0.021075
v 0.085722 0.035507 -0.021075
v 0.035507 0.085722 -0.011997
v 0.085722 0.035507 -0.011997
v 0.023132 0.009581 -0.027519
v 0.009581 0.023132 -0.027519
v 0.011693 0.028229 -0.011997
v 0.028229 0.011693 -0.011997
v 0.009581 0.023132 -0.012585
v 0.023132 0.009581 -0.012585
vn -0.7071 -0.7071 -0.0000
vn 0.7071 0.7071 -0.0000
vn -0.0000 -0.0000 1.0000
vn 0.0724 0.0724 -0.9947
vn -0.0811 -0.0811 0.9934
vn 0.3827 -0.9239 -0.0000
vn -0.9239 0.3827 -0.0000
vt 0.937500 1.000000
vt 0.812500 1.000000
vt 0.937500 1.000000
vt 0.812500 1.000000
vt 0.812500 1.000000
vt 0.937500 1.000000
vt 0.937500 1.000000
vt 0.812500 1.000000
vt 0.937500 1.000000
vt 0.812500 1.000000
s 0
usemtl Material.019
f 83/83/56 88/88/56 87/87/56 84/84/56
f 81/81/57 82/82/57 80/80/57 79/79/57
f 85/85/58 86/86/58 82/82/58 81/81/58
f 83/83/59 84/84/59 79/79/59 80/80/59
f 88/88/60 86/86/60 85/85/60 87/87/60
f 82/82/61 86/86/61 88/88/61 83/83/61 80/80/61
f 81/81/62 79/79/62 84/84/62 87/87/62 85/85/62
o Lid.009
v 0.028229 0.011693 -0.011997
v 0.028229 -0.011693 -0.011997
v 0.028229 0.011693 0.042586
v 0.028229 -0.011693 0.042586
v 0.023132 0.009581 0.042586
v 0.023132 -0.009581 0.042586
v 0.023132 0.009581 -0.012585
v 0.023132 -0.009581 -0.012585
vn 1.0000 -0.0000 -0.0000
vn -0.0000 -0.0000 1.0000
vn -1.0000 -0.0000 -0.0000
vn -0.3827 -0.9239 -0.0000
vn -0.3827 0.9239 -0.0000
vn 0.1146 -0.0000 -0.9934
vt 0.812500 1.000000
vt 0.687500 1.000000
vt 0.812500 1.000000
vt 0.687500 1.000000
vt 0.812500 1.000000
vt 0.687500 1.000000
vt 0.812500 1.000000
vt 0.687500 1.000000
s 0
usemtl Material.019
f 92/92/63 90/90/63 89/89/63 91/91/63
f 92/92/64 91/91/64 93/93/64 94/94/64
f 94/94/65 93/93/65 95/95/65 96/96/65
f 90/90/66 92/92/66 94/94/66 96/96/66
f 89/89/67 95/95/67 93/93/67 91/91/67
f 96/96/68 95/95/68 89/89/68 90/90/68
o Lid.010
v 0.011693 0.028229 -0.011997
v 0.028229 0.011693 -0.011997
v 0.011693 0.028229 0.042586
v 0.028229 0.011693 0.042586
v 0.009581 0.023132 0.042586
v 0.023132 0.009581 0.042586
v 0.009581 0.023132 -0.012585
v 0.023132 0.009581 -0.012585
vn 0.7071 0.7071 -0.0000
vn -0.0000 -0.0000 1.0000
vn -0.7071 -0.7071 -0.0000
vn 0.3827 -0.9239 -0.0000
vn -0.9239 0.3827 -0.0000
vn 0.0811 0.0811 -0.9934
vt 0.937500 1.000000
vt 0.812500 1.000000
vt 0.937500 1.000000
vt 0.812500 1.000000
vt 0.937500 1.000000
vt 0.812500 1.000000
vt 0.937500 1.000000
vt 0.812500 1.000000
s 0
usemtl Material.019
f 100/100/69 98/98/69 97/97/69 99/99/69
f 102/102/70 100/100/70 99/99/70 101/101/70
f 102/102/71 101/101/71 103/103/71 104/104/71
f 98/98/72 100/100/72 102/102/72 104/104/72
f 97/97/73 103/103/73 101/101/73 99/99/73
f 104/104/74 103/103/74 97/97/74 98/98/74
o Lid.011
v 0.011693 0.028229 -0.011997
v -0.011693 0.028229 -0.011997
v 0.011693 0.028229 0.042586
v -0.011693 0.028229 0.042586
v 0.009581 0.023132 0.042586
v -0.009581 0.023132 0.042586
v 0.009581 0.023132 -0.012585
v -0.009581 0.023132 -0.012585
vn -0.0000 1.0000 -0.0000
vn -0.0000 -0.0000 1.0000
vn -0.0000 -1.0000 -0.0000
vn 0.9239 -0.3827 -0.0000
vn -0.9239 -0.3827 -0.0000
vn -0.0000 0.1146 -0.9934
vt 0.937500 1.000000
vt 0.062500 1.000000
vt 0.937500 1.000000
vt 0.062500 1.000000
vt 0.937500 1.000000
vt 0.062500 1.000000
vt 0.937500 1.000000
vt 0.062500 1.000000
s 0
usemtl Material.019
f 106/106/75 108/108/75 107/107/75 105/105/75
f 108/108/76 110/110/76 109/109/76 107/107/76
f 112/112/77 111/111/77 109/109/77 110/110/77
f 105/105/78 107/107/78 109/109/78 111/111/78
f 106/106/79 112/112/79 110/110/79 108/108/79
f 111/111/80 112/112/80 106/106/80 105/105/80
o Lid.012
v -0.028229 0.011693 -0.011997
v -0.011693 0.028229 -0.011997
v -0.028229 0.011693 0.042586
v -0.011693 0.028229 0.042586
v -0.023132 0.009581 0.042586
v -0.009581 0.023132 0.042586
v -0.023132 0.009581 -0.012585
v -0.009581 0.023132 -0.012585
vn -0.7071 0.7071 -0.0000
vn -0.0000 -0.0000 1.0000
vn 0.7071 -0.7071 -0.0000
vn 0.9239 0.3827 -0.0000
vn -0.3827 -0.9239 -0.0000
vn -0.0811 0.0811 -0.9934
vt 0.187500 1.000000
vt 0.062500 1.000000
vt 0.187500 1.000000
vt 0.062500 1.000000
vt 0.187500 1.000000
vt 0.062500 1.000000
vt 0.187500 1.000000
vt 0.062500 1.000000
s 0
usemtl Material.019
f 115/115/81 116/116/81 114/114/81 113/113/81
f 116/116/82 115/115/82 117/117/82 118/118/82
f 118/118/83 117/117/83 119/119/83 120/120/83
f 114/114/84 116/116/84 118/118/84 120/120/84
f 113/113/85 119/119/85 117/117/85 115/115/85
f 119/119/86 113/113/86 114/114/86 120/120/86
o Lid.013
v -0.028229 -0.011693 -0.011997
v -0.028229 0.011693 -0.011997
v -0.028229 -0.011693 0.042586
v -0.028229 0.011693 0.042586
v -0.023132 -0.009581 0.042586
v -0.023132 0.009581 0.042586
v -0.023132 -0.009581 -0.012585
v -0.023132 0.009581 -0.012585
vn -1.0000 -0.0000 -0.0000
vn -0.0000 -0.0000 1.0000
vn 1.0000 -0.0000 -0.0000
vn 0.3827 -0.9239 -0.0000
vn -0.1146 -0.0000 -0.9934
vn 0.3827 0.9239 -0.0000
vt 0.312500 1.000000
vt 0.187500 1.000000
vt 0.312500 1.000000
vt 0.187500 1.000000
vt 0.312500 1.000000
vt 0.187500 1.000000
vt 0.312500 1.000000
vt 0.187500 1.000000
s 0
usemtl Material.019
f 124/124/87 122/122/87 121/121/87 123/123/87
f 124/124/88 123/123/88 125/125/88 126/126/88
f 126/126/89 125/125/89 127/127/89 128/128/89
f 121/121/90 127/127/90 125/125/90 123/123/90
f 128/128/91 127/127/91 121/121/91 122/122/91
f 122/122/92 124/124/92 126/126/92 128/128/92
o Lid.014
v -0.011693 -0.028229 -0.011997
v -0.028229 -0.011693 -0.011997
v -0.011693 -0.028229 0.042586
v -0.028229 -0.011693 0.042586
v -0.009581 -0.023132 0.042586
v -0.023132 -0.009581 0.042586
v -0.009581 -0.023132 -0.012585
v -0.023132 -0.009581 -0.012585
vn -0.7071 -0.7071 -0.0000
vn 0.7071 0.7071 -0.0000
vn -0.0000 -0.0000 1.0000
vn 0.9239 -0.3827 -0.0000
vn -0.3827 0.9239 -0.0000
vn -0.0811 -0.0811 -0.9934
vt 0.437500 1.000000
vt 0.312500 1.000000
vt 0.437500 1.000000
vt 0.312500 1.000000
vt 0.437500 1.000000
vt 0.312500 1.000000
vt 0.437500 1.000000
vt 0.312500 1.000000
s 0
usemtl Material.019
f 131/131/93 132/132/93 130/130/93 129/129/93
f 134/134/94 133/133/94 135/135/94 136/136/94
f 133/133/95 134/134/95 132/132/95 131/131/95
f 131/131/96 129/129/96 135/135/96 133/133/96
f 130/130/97 132/132/97 134/134/97 136/136/97
f 136/136/98 135/135/98 129/129/98 130/130/98
o Lid.015
v 0.011693 -0.028229 -0.011997
v -0.011693 -0.028229 -0.011997
v 0.011693 -0.028229 0.042586
v -0.011693 -0.028229 0.042586
v 0.009581 -0.023132 0.042586
v -0.009581 -0.023132 0.042586
v 0.009581 -0.023132 -0.012585
v -0.009581 -0.023132 -0.012585
vn -0.0000 -1.0000 -0.0000
vn -0.0000 -0.0000 1.0000
vn -0.0000 1.0000 -0.0000
vn 0.9239 0.3827 -0.0000
vn -0.9239 0.3827 -0.0000
vn -0.0000 -0.1146 -0.9934
vt 0.562500 1.000000
vt 0.437500 1.000000
vt 0.562500 1.000000
vt 0.437500 1.000000
vt 0.562500 1.000000
vt 0.437500 1.000000
vt 0.562500 1.000000
vt 0.437500 1.000000
s 0
usemtl Material.019
f 139/139/99 140/140/99 138/138/99 137/137/99
f 142/142/100 140/140/100 139/139/100 141/141/100
f 144/144/101 142/142/101 141/141/101 143/143/101
f 139/139/102 137/137/102 143/143/102 141/141/102
f 140/140/103 142/142/103 144/144/103 138/138/103
f 143/143/104 137/137/104 138/138/104 144/144/104
