# Blender 3.4.1
# www.blender.org
mtllib FoodProcessorHandleCollider.mtl
o Handle.001
v 0.018102 0.013583 0.058352
v 0.018102 0.013583 -0.058194
v -0.018102 0.013583 -0.058194
v -0.018102 0.013583 0.058352
v 0.018102 0.027013 0.039263
v 0.018102 0.027013 -0.039106
v -0.018102 0.027013 -0.039106
v -0.018102 0.027013 0.039263
v 0.018102 0.013583 0.045155
v -0.018102 0.013583 0.045155
v 0.018102 0.013583 -0.045627
v -0.018102 0.013583 -0.045627
v 0.018102 0.013583 -0.058194
v -0.018102 0.013583 -0.058194
vn -0.0000 -1.0000 -0.0000
vn 1.0000 -0.0000 -0.0000
vn -1.0000 -0.0000 -0.0000
vn -0.0000 0.8179 0.5754
vn -0.0000 0.8179 -0.5754
vn -0.0000 1.0000 -0.0000
vt 0.968750 1.000000
vt 0.000000 0.000000
vt 0.031250 1.000000
vt 0.031250 1.000000
vt 0.000000 0.000000
vt 0.968750 1.000000
vt 0.000000 0.000000
vt 0.968750 1.000000
vt 0.000000 0.000000
vt 0.031250 1.000000
vt 0.031250 1.000000
vt 0.000000 0.000000
vt 0.000000 0.000000
vt 0.000000 0.000000
vt 0.000000 0.000000
vt 0.000000 0.000000
vt 0.031250 1.000000
s 0
usemtl Material.016
f 12/15/1 11/14/1 9/12/1 10/13/1
f 1/1/2 9/12/2 5/6/2
f 6/8/2 5/6/2 9/12/2 11/14/2
f 3/3/3 12/15/3 7/10/3
f 2/2/2 6/8/2 11/14/2
f 4/4/3 8/11/3 10/13/3
f 7/10/3 12/15/3 10/13/3 8/11/3
f 8/11/4 4/5/4 1/1/4 5/6/4
f 7/9/5 6/7/5 13/16/5 14/17/5
f 6/8/6 7/10/6 8/11/6 5/6/6
f 1/1/1 4/5/1 10/13/1 9/12/1
f 13/16/1 11/14/1 12/15/1 14/17/1
o Handle.002
v 0.018102 -0.032602 0.058352
v -0.018102 -0.032602 0.058352
v 0.018102 0.013583 0.058352
v -0.018102 0.013583 0.058352
v 0.018102 -0.032602 0.045155
v -0.018102 -0.032602 0.045155
v 0.018102 0.013583 0.045155
v -0.018102 0.013583 0.045155
v 0.018102 0.013583 0.058352
v -0.018102 0.013583 0.058352
vn 1.0000 -0.0000 -0.0000
vn -1.0000 -0.0000 -0.0000
vn -0.0000 -0.0000 -1.0000
vn -0.0000 -1.0000 -0.0000
vn -0.0000 -0.0000 1.0000
vn -0.0000 1.0000 -0.0000
vt 0.968750 1.000000
vt 0.031250 1.000000
vt 0.000000 0.000000
vt 0.000000 0.000000
vt 0.968750 1.000000
vt 0.000000 0.000000
vt 0.000000 0.000000
vt 0.000000 0.000000
vt 0.000000 0.000000
vt 0.000000 0.000000
s 0
usemtl Material.016
f 17/20/7 15/18/7 19/22/7 21/24/7
f 16/19/8 18/21/8 22/25/8 20/23/8
f 19/22/9 20/23/9 22/25/9 21/24/9
f 15/18/10 16/19/10 20/23/10 19/22/10
f 16/19/11 15/18/11 23/26/11 24/27/11
f 22/25/12 24/27/12 23/26/12 21/24/12
o Handle.003
v 0.018102 -0.032602 -0.058194
v -0.018102 -0.032602 -0.058194
v 0.018102 0.013583 -0.058194
v -0.018102 0.013583 -0.058194
v 0.018102 0.013583 -0.045627
v -0.018102 0.013583 -0.045627
v 0.018102 -0.032602 -0.045627
v -0.018102 -0.032602 -0.045627
vn 1.0000 -0.0000 -0.0000
vn -0.0000 -1.0000 -0.0000
vn -0.0000 -0.0000 1.0000
vn -1.0000 -0.0000 -0.0000
vn -0.0000 -0.0000 -1.0000
vn -0.0000 1.0000 -0.0000
vt 0.968750 1.000000
vt 0.031250 1.000000
vt 0.000000 0.000000
vt 0.031250 1.000000
vt 0.000000 0.000000
vt 0.000000 0.000000
vt 0.968750 1.000000
vt 0.000000 0.000000
s 0
usemtl Material.016
f 29/32/13 31/34/13 25/28/13 27/30/13
f 26/29/14 25/28/14 31/34/14 32/35/14
f 29/32/15 30/33/15 32/35/15 31/34/15
f 28/31/16 26/29/16 32/35/16 30/33/16
f 28/31/17 27/30/17 25/28/17 26/29/17
f 27/30/18 28/31/18 30/33/18 29/32/18
