# Blender 3.4.1
# www.blender.org
mtllib FoodProcessorHandle.mtl
o Handle.001
v 0.018102 -0.032602 -0.058194
v -0.018102 -0.032602 -0.058194
v 0.018102 0.013583 -0.058194
v -0.018102 0.013583 -0.058194
v 0.018102 0.013583 -0.045627
v -0.018102 0.013583 -0.045627
v 0.018102 -0.032602 -0.045627
v -0.018102 -0.032602 -0.045627
v 0.018102 0.013583 0.058352
v 0.018102 0.013583 -0.058194
v -0.018102 0.013583 -0.058194
v -0.018102 0.013583 0.058352
v 0.018102 0.027013 0.039263
v 0.018102 0.027013 -0.039106
v -0.018102 0.027013 -0.039106
v -0.018102 0.027013 0.039263
v 0.018102 0.013583 0.045155
v -0.018102 0.013583 0.045155
v 0.018102 0.013583 -0.045627
v -0.018102 0.013583 -0.045627
v 0.018102 0.013583 -0.058194
v -0.018102 0.013583 -0.058194
v 0.018102 -0.032602 0.058352
v -0.018102 -0.032602 0.058352
v 0.018102 0.013583 0.058352
v -0.018102 0.013583 0.058352
v 0.018102 -0.032602 0.045155
v -0.018102 -0.032602 0.045155
v 0.018102 0.013583 0.045155
v -0.018102 0.013583 0.045155
v 0.018102 0.013583 0.058352
v -0.018102 0.013583 0.058352
vn 1.0000 -0.0000 -0.0000
vn -0.0000 -1.0000 -0.0000
vn -0.0000 -0.0000 1.0000
vn -1.0000 -0.0000 -0.0000
vn -0.0000 -0.0000 -1.0000
vn -0.0000 0.8179 0.5754
vn -0.0000 0.8179 -0.5754
vn -0.0000 1.0000 -0.0000
vt 0.968750 1.000000
vt 0.031250 1.000000
vt 0.000000 0.000000
vt 0.031250 1.000000
vt 0.000000 0.000000
vt 0.000000 0.000000
vt 0.968750 1.000000
vt 0.000000 0.000000
vt 0.968750 1.000000
vt 0.000000 0.000000
vt 0.031250 1.000000
vt 0.031250 1.000000
vt 0.000000 0.000000
vt 0.968750 1.000000
vt 0.000000 0.000000
vt 0.968750 1.000000
vt 0.000000 0.000000
vt 0.031250 1.000000
vt 0.031250 1.000000
vt 0.000000 0.000000
vt 0.000000 0.000000
vt 0.000000 0.000000
vt 0.000000 0.000000
vt 0.000000 0.000000
vt 0.031250 1.000000
vt 0.968750 1.000000
vt 0.031250 1.000000
vt 0.000000 0.000000
vt 0.000000 0.000000
vt 0.968750 1.000000
vt 0.000000 0.000000
vt 0.000000 0.000000
vt 0.000000 0.000000
vt 0.000000 0.000000
vt 0.000000 0.000000
s 0
usemtl Material.016
f 5/5/1 7/7/1 1/1/1 3/3/1
f 2/2/2 1/1/2 7/7/2 8/8/2
f 5/5/3 6/6/3 8/8/3 7/7/3
f 4/4/4 2/2/4 8/8/4 6/6/4
f 4/4/5 3/3/5 1/1/5 2/2/5
f 20/23/2 19/22/2 17/20/2 18/21/2
f 9/9/1 17/20/1 13/14/1
f 14/16/1 13/14/1 17/20/1 19/22/1
f 11/11/4 20/23/4 15/18/4
f 10/10/1 14/16/1 19/22/1
f 12/12/4 16/19/4 18/21/4
f 15/18/4 20/23/4 18/21/4 16/19/4
f 16/19/6 12/13/6 9/9/6 13/14/6
f 15/17/7 14/15/7 21/24/7 22/25/7
f 14/16/8 15/18/8 16/19/8 13/14/8
f 25/28/1 23/26/1 27/30/1 29/32/1
f 24/27/4 26/29/4 30/33/4 28/31/4
f 27/30/5 28/31/5 30/33/5 29/32/5
f 23/26/2 24/27/2 28/31/2 27/30/2
f 24/27/3 23/26/3 31/34/3 32/35/3
