# Blender 3.4.1
# www.blender.org
mtllib FoodProcessorLid.mtl
o Lid
v 0.035507 0.085722 -0.021075
v 0.085722 0.035507 -0.021075
v 0.085722 -0.035507 -0.021075
v 0.035507 -0.085722 -0.021075
v -0.035507 -0.085722 -0.021075
v -0.085722 -0.035507 -0.021075
v -0.085722 0.035507 -0.021075
v -0.035507 0.085722 -0.021075
v 0.035507 -0.085722 -0.011997
v -0.035507 -0.085722 -0.011997
v 0.035507 0.085722 -0.011997
v -0.085722 -0.035507 -0.011997
v -0.085722 0.035507 -0.011997
v -0.035507 0.085722 -0.011997
v 0.085722 0.035507 -0.011997
v 0.085722 -0.035507 -0.011997
v 0.023132 -0.009581 -0.027519
v 0.023132 0.009581 -0.027519
v -0.009581 0.023132 -0.027519
v -0.023132 0.009581 -0.027519
v -0.023132 -0.009581 -0.027519
v 0.009581 0.023132 -0.027519
v -0.009581 -0.023132 -0.027519
v 0.009581 -0.023132 -0.027519
v 0.011693 -0.028229 -0.011997
v -0.011693 -0.028229 -0.011997
v 0.011693 0.028229 -0.011997
v -0.028229 -0.011693 -0.011997
v -0.028229 0.011693 -0.011997
v -0.011693 0.028229 -0.011997
v 0.028229 0.011693 -0.011997
v 0.028229 -0.011693 -0.011997
v 0.011693 -0.028229 0.042586
v -0.011693 -0.028229 0.042586
v 0.011693 0.028229 0.042586
v -0.028229 -0.011693 0.042586
v -0.028229 0.011693 0.042586
v -0.011693 0.028229 0.042586
v 0.028229 0.011693 0.042586
v 0.028229 -0.011693 0.042586
v 0.009581 -0.023132 0.042586
v -0.009581 -0.023132 0.042586
v 0.009581 0.023132 0.042586
v -0.023132 -0.009581 0.042586
v -0.023132 0.009581 0.042586
v -0.009581 0.023132 0.042586
v 0.023132 0.009581 0.042586
v 0.023132 -0.009581 0.042586
v 0.009581 -0.023132 -0.012585
v -0.009581 -0.023132 -0.012585
v 0.009581 0.023132 -0.012585
v -0.023132 -0.009581 -0.012585
v -0.023132 0.009581 -0.012585
v -0.009581 0.023132 -0.012585
v 0.023132 0.009581 -0.012585
v 0.023132 -0.009581 -0.012585
vn -0.0000 1.0000 -0.0000
vn -0.7071 0.7071 -0.0000
vn 0.0724 -0.0724 -0.9947
vn -0.0000 -0.0000 1.0000
vn 1.0000 -0.0000 -0.0000
vn -0.1024 -0.0000 -0.9947
vn -1.0000 -0.0000 -0.0000
vn -0.7071 -0.7071 -0.0000
vn 0.7071 -0.7071 -0.0000
vn -0.0000 -1.0000 -0.0000
vn 0.1024 -0.0000 -0.9947
vn -0.0724 0.0724 -0.9947
vn -0.0000 0.1024 -0.9947
vn -0.0724 -0.0724 -0.9947
vn 0.7071 0.7071 -0.0000
vn -0.0000 -0.1024 -0.9947
vn 0.0724 0.0724 -0.9947
vt 0.937500 1.000000
vt 0.812500 1.000000
vt 0.687500 1.000000
vt 0.562500 1.000000
vt 0.437500 1.000000
vt 0.312500 1.000000
vt 0.000000 0.000000
vt 0.062500 1.000000
vt 0.562500 1.000000
vt 0.437500 1.000000
vt 0.937500 1.000000
vt 0.312500 1.000000
vt 0.187500 1.000000
vt 0.062500 1.000000
vt 0.812500 1.000000
vt 0.687500 1.000000
vt 0.687500 1.000000
vt 0.812500 1.000000
vt 0.062500 1.000000
vt 0.187500 1.000000
vt 0.312500 1.000000
vt 0.937500 1.000000
vt 0.437500 1.000000
vt 0.562500 1.000000
vt 0.562500 1.000000
vt 0.437500 1.000000
vt 0.937500 1.000000
vt 0.312500 1.000000
vt 0.187500 1.000000
vt 0.062500 1.000000
vt 0.812500 1.000000
vt 0.687500 1.000000
vt 0.562500 1.000000
vt 0.437500 1.000000
vt 0.937500 1.000000
vt 0.312500 1.000000
vt 0.187500 1.000000
vt 0.062500 1.000000
vt 0.812500 1.000000
vt 0.687500 1.000000
vt 0.562500 1.000000
vt 0.437500 1.000000
vt 0.937500 1.000000
vt 0.312500 1.000000
vt 0.187500 1.000000
vt 0.062500 1.000000
vt 0.812500 1.000000
vt 0.687500 1.000000
vt 0.562500 1.000000
vt 0.437500 1.000000
vt 0.937500 1.000000
vt 0.312500 1.000000
vt 0.187500 1.000000
vt 0.062500 1.000000
vt 0.812500 1.000000
vt 0.687500 1.000000
s 0
usemtl Material.019
f 30/30/1 38/38/1 35/35/1 27/27/1
f 37/37/2 38/38/2 30/30/2 29/29/2
f 4/4/3 24/24/3 17/17/3 3/3/3
f 38/38/4 46/46/4 43/43/4 35/35/4
f 40/40/4 48/48/4 41/41/4 33/33/4
f 15/15/5 16/16/5 3/3/5 2/2/5
f 20/20/6 21/21/6 6/6/6 7/7/6
f 48/48/2 56/56/2 49/49/2 41/41/2
f 37/37/7 29/29/7 28/28/7 36/36/7
f 37/37/4 36/36/4 44/44/4 45/45/4
f 32/32/4 16/16/4 15/15/4 31/31/4
f 38/38/4 37/37/4 45/45/4 46/46/4
f 10/10/8 12/12/8 6/6/8 5/5/8
f 46/46/9 45/45/9 53/53/9 54/54/9
f 54/54/10 51/51/10 43/43/10 46/46/10
f 45/45/5 44/44/5 52/52/5 53/53/5
f 17/17/11 18/18/11 2/2/11 3/3/11
f 51/51/10 54/54/10 19/19/10 22/22/10
f 24/24/2 49/49/2 56/56/2 17/17/2
f 26/26/4 28/28/4 12/12/4 10/10/4
f 19/19/9 54/54/9 53/53/9 20/20/9
f 40/40/5 32/32/5 31/31/5 39/39/5
f 8/8/2 7/7/2 13/13/2 14/14/2
f 30/30/4 14/14/4 13/13/4 29/29/4
f 19/19/12 20/20/12 7/7/12 8/8/12
f 30/30/4 27/27/4 11/11/4 14/14/4
f 1/1/1 8/8/1 14/14/1 11/11/1
f 19/19/13 8/8/13 1/1/13 22/22/13
f 40/40/4 39/39/4 47/47/4 48/48/4
f 9/9/9 4/4/9 3/3/9 16/16/9
f 32/32/4 25/25/4 9/9/4 16/16/4
f 32/32/9 40/40/9 33/33/9 25/25/9
f 5/5/14 6/6/14 21/21/14 23/23/14
f 52/52/15 50/50/15 23/23/15 21/21/15
f 52/52/5 21/21/5 20/20/5 53/53/5
f 34/34/8 36/36/8 28/28/8 26/26/8
f 48/48/7 47/47/7 55/55/7 56/56/7
f 17/17/7 56/56/7 55/55/7 18/18/7
f 29/29/4 13/13/4 12/12/4 28/28/4
f 39/39/15 31/31/15 27/27/15 35/35/15
f 9/9/10 10/10/10 5/5/10 4/4/10
f 47/47/4 39/39/4 35/35/4 43/43/4
f 4/4/16 5/5/16 23/23/16 24/24/16
f 25/25/4 26/26/4 10/10/4 9/9/4
f 47/47/8 43/43/8 51/51/8 55/55/8
f 18/18/8 55/55/8 51/51/8 22/22/8
f 33/33/10 34/34/10 26/26/10 25/25/10
f 42/42/4 34/34/4 33/33/4 41/41/4
f 44/44/15 42/42/15 50/50/15 52/52/15
f 50/50/1 42/42/1 41/41/1 49/49/1
f 11/11/15 15/15/15 2/2/15 1/1/15
f 27/27/4 31/31/4 15/15/4 11/11/4
f 18/18/17 22/22/17 1/1/17 2/2/17
f 49/49/1 24/24/1 23/23/1 50/50/1
f 42/42/4 44/44/4 36/36/4 34/34/4
f 6/6/7 12/12/7 13/13/7 7/7/7
