# Blender v2.78 (sub 0) OBJ File: ''
# www.blender.org
mtllib bag.mtl
o bag.000_bag.000
v -0.055186 0.070302 -0.057631
v 0.051012 0.064916 -0.078126
v -0.051334 0.064916 -0.078126
v 0.054864 0.070302 -0.057631
v 0.051012 -0.078190 -0.078126
v 0.054864 -0.083576 -0.057631
v -0.051334 -0.078190 -0.078126
v -0.055186 -0.083576 -0.057631
v -0.043631 -0.067419 0.056019
v -0.043631 0.054145 0.056019
v 0.043308 0.054145 0.056019
v 0.031028 -0.063468 0.066266
v 0.043308 -0.067419 0.056019
v 0.018748 -0.059517 0.076514
v 0.018748 0.046243 0.076514
v 0.031028 0.050194 0.066266
v -0.019071 0.046243 0.076514
v -0.019071 -0.059517 0.076514
v -0.031351 -0.063468 0.066266
v -0.031351 0.050194 0.066266
v -0.026171 0.066371 0.079258
v 0.029398 0.066371 0.079258
vt 6.1024 6.3308
vt -5.6752 1.9270
vt 5.6752 1.9270
vt -6.1024 6.3308
vt -10.6181 0.5571
vt 11.4173 4.9088
vt -11.4173 4.9088
vt 10.6181 0.5571
vt -11.4173 4.9088
vt 10.6181 0.5571
vt 11.4173 4.9088
vt -10.6181 0.5571
vt 6.1024 6.3308
vt -5.6752 1.9270
vt 5.6752 1.9270
vt -6.1024 6.3308
vt 9.0197 28.0493
vt -11.4173 3.9994
vt 11.4173 3.9994
vt -9.0197 28.0493
vt 9.0197 21.4284
vt -8.4334 23.9865
vt -9.0197 21.4284
vt -7.8471 26.5445
vt 7.8471 26.5445
vt 8.4334 23.9865
vt 2.0971 -7.8471
vt -2.0971 7.8471
vt -2.0971 -7.8471
vt 2.0971 7.8471
vt 8.4334 23.9865
vt -9.0197 21.4284
vt 9.0197 21.4284
vt 7.8471 26.5445
vt -7.8471 26.5445
vt -8.4334 23.9865
vt -5.6752 10.6181
vt 5.6752 -10.6181
vt 5.6752 10.6181
vt -5.6752 -10.6181
vt 4.8209 27.3102
vt -6.1024 3.1751
vt 6.1024 3.1751
vt -4.8209 27.3102
vt 4.8209 27.3102
vt -6.1024 3.1751
vt 6.1024 3.1751
vt -4.8209 27.3102
vt 11.4173 3.9994
vt -9.0197 28.0493
vt -11.4173 3.9994
vt 9.0197 28.0493
vt 3.4590 27.2474
vt -4.8209 25.0040
vt 4.8209 25.0040
vt -3.4590 27.2474
vt 3.4590 27.2474
vt -4.8209 25.0040
vt 4.8209 25.0040
vt -3.4590 27.2474
vt -11.1649 30.2314
vt -9.1086 27.1653
vt -8.0895 29.5837
vt 11.1687 31.1327
vt 7.9672 30.4979
vt 9.0943 28.1279
vt -2.0971 13.9319
vt 3.2782 16.9745
vt -2.8845 16.9745
vt 2.0971 13.9319
vt 2.8845 32.1673
vt -3.4590 28.5205
vt 3.4590 28.5205
vt -3.2782 32.1673
vn 0.0000 0.9672 -0.2542
vn 0.9828 0.0000 -0.1847
vn -0.9828 0.0000 -0.1847
vn 0.0000 -0.9672 -0.2542
vn -0.9949 0.0000 0.1012
vn 0.6407 -0.0000 0.7678
vn 0.6032 -0.2819 0.7462
vn 0.0000 0.0000 1.0000
vn -0.6407 -0.0000 0.7678
vn -0.6407 -0.0003 0.7678
vn -0.6033 -0.2598 0.7540
vn 0.0000 0.0000 -1.0000
vn 0.0000 -0.9900 0.1407
vn 0.0000 0.9900 0.1407
vn 0.9949 0.0000 0.1012
vn 0.0000 -0.9330 0.3598
vn 0.0000 0.9330 0.3598
vn -0.6653 -0.3262 0.6715
vn 0.6558 -0.4314 0.6195
vn 0.0000 -0.1351 0.9908
vn 0.0000 0.6262 -0.7797
vn 0.0000 -0.9331 0.3597
usemtl brownDark
s 1
f 1/1/1 2/2/1 3/3/1
f 2/2/1 1/1/1 4/4/1
f 5/5/2 4/6/2 6/7/2
f 4/6/2 5/5/2 2/8/2
f 1/9/3 7/10/3 8/11/3
f 7/10/3 1/9/3 3/12/3
f 6/13/4 7/14/4 5/15/4
f 7/14/4 6/13/4 8/16/4
f 9/17/5 1/18/5 8/19/5
f 1/18/5 9/17/5 10/20/5
f 11/21/6 12/22/6 13/23/6
f 12/22/6 11/21/6 14/24/6
f 14/24/6 11/21/6 15/25/6
f 15/25/6 11/21/6 16/26/7
f 14/27/8 17/28/8 18/29/8
f 17/28/8 14/27/8 15/30/8
f 19/31/9 10/32/9 9/33/9
f 10/32/9 19/31/9 18/34/9
f 10/32/9 18/34/9 17/35/10
f 10/32/9 17/35/10 20/36/11
f 2/37/12 7/38/12 3/39/12
f 7/38/12 2/37/12 5/40/12
f 13/41/13 8/42/13 6/43/13
f 8/42/13 13/41/13 9/44/13
f 10/45/14 4/46/14 1/47/14
f 4/46/14 10/45/14 11/48/14
f 4/49/15 13/50/15 6/51/15
f 13/50/15 4/49/15 11/52/15
f 12/53/16 9/54/16 13/55/16
f 9/54/16 12/53/16 19/56/16
f 20/57/17 11/58/17 10/59/17
f 11/58/17 20/57/17 16/60/17
f 21/61/18 20/62/18 17/63/18
f 22/64/19 15/65/19 16/66/19
f 17/67/20 22/68/20 21/69/20
f 22/68/20 17/67/20 15/70/20
f 21/71/21 16/72/21 20/73/21
f 16/72/21 21/71/21 22/74/21
f 12/53/16 14/27/22 18/34/22 19/56/16
