# Blender v2.78 (sub 0) OBJ File: ''
# www.blender.org
mtllib slice_crust.mtl
o bread.000_bread.004
v -0.007452 0.034303 0.065955
v -0.007452 -0.034303 0.065955
v -0.007452 -0.000000 0.072205
v -0.007452 0.059415 0.048879
v -0.007452 -0.000000 0.056596
v -0.007452 0.028355 0.051429
v -0.007452 0.046864 0.038843
v -0.007452 0.068607 0.025553
v -0.007452 0.052101 0.025553
v -0.007452 0.059415 0.002226
v -0.007452 0.046864 0.012262
v -0.007452 0.038004 0.006238
v -0.007452 0.053361 -0.001891
v -0.007452 0.038004 -0.078308
v -0.007452 0.053361 -0.078308
v -0.007452 -0.038004 -0.078308
v -0.007452 -0.053361 -0.078308
v -0.007452 0.048863 -0.089167
v -0.007452 -0.048863 -0.089167
v -0.007452 0.038004 -0.093665
v -0.007452 -0.038004 -0.093665
v -0.007452 -0.053361 -0.001891
v -0.007452 -0.038004 0.006238
v -0.007452 -0.059415 0.002226
v -0.007452 -0.046864 0.012262
v -0.007452 -0.052101 0.025553
v -0.007452 -0.068607 0.025553
v -0.007452 -0.046864 0.038843
v -0.007452 -0.059415 0.048879
v -0.007452 -0.028355 0.051429
v 0.007452 0.034304 0.065955
v 0.007452 -0.000000 0.072205
v 0.007452 0.059415 0.048879
v 0.007452 0.068607 0.025553
v 0.007452 -0.038004 -0.093665
v 0.007452 0.038004 -0.093665
v 0.007452 0.053361 -0.001891
v 0.007452 0.059415 0.002226
v 0.007452 0.053361 -0.078308
v 0.007452 -0.068607 0.025553
v 0.007452 -0.059415 0.002226
v 0.007452 0.048863 -0.089167
v 0.007452 -0.034303 0.065955
v 0.007452 -0.059415 0.048879
v 0.007452 -0.053361 -0.001891
v 0.007452 -0.053361 -0.078308
v 0.007452 -0.000000 0.056596
v 0.007452 -0.028355 0.051429
v 0.007452 -0.046864 0.038843
v 0.007452 -0.052101 0.025553
v 0.007452 -0.046864 0.012262
v 0.007452 -0.038004 0.006238
v 0.007452 -0.038004 -0.078308
v 0.007452 0.038004 -0.078308
v 0.007452 0.038004 0.006238
v 0.007452 0.046864 0.012262
v 0.007452 0.052101 0.025553
v 0.007452 0.046864 0.038843
v 0.007452 0.028355 0.051429
v 0.007452 -0.048863 -0.089167
vt -3.9899 0.0000
vt -3.9899 1.5647
vt 0.0000 0.0000
vt 0.0000 0.0000
vt 0.0000 0.0000
vt 0.0000 0.0000
vt 0.0000 0.0000
vt 7.0948 0.0000
vt 7.0948 1.5647
vt 7.0948 -3.9899
vt -7.0948 -5.6022
vt -7.0948 -3.9899
vt -7.0948 3.9899
vt 0.0000 0.0000
vt 7.0948 3.9899
vt 8.0509 3.6014
vt 8.0509 -3.6014
vt 8.7071 0.0000
vt 6.2581 6.2378
vt 7.0683 0.0000
vt 6.5259 2.9769
vt 5.2045 4.9201
vt 3.8092 7.2028
vt 3.8092 5.4699
vt 1.3602 6.2378
vt 2.4139 4.9201
vt 1.7813 3.9899
vt 0.9280 5.6022
vt -7.0948 5.6022
vt 3.9899 1.5647
vt 0.0000 0.0000
vt 0.9280 -5.6022
vt 1.7813 -3.9899
vt 1.3602 -6.2378
vt 2.4139 -4.9201
vt 3.8092 -5.4699
vt 3.8092 -7.2028
vt 5.2045 -4.9201
vt 6.2581 -6.2378
vt 6.5259 -2.9769
vt -2.0999 1.5647
vt 1.5608 0.0000
vt 1.5608 1.5647
vt -2.0999 0.0000
vt 3.5356 1.5647
vt 0.9033 0.0000
vt 3.5356 0.0000
vt 0.9033 1.5647
vt 3.9899 0.0000
vt 5.9231 0.0000
vt 5.1544 1.5647
vt 5.1544 0.0000
vt 5.9231 1.5647
vt 0.9280 1.5647
vt -7.0948 0.0000
vt 0.9280 0.0000
vt -7.0948 1.5647
vt 6.1846 1.5647
vt 3.5523 0.0000
vt 6.1846 0.0000
vt 3.5523 1.5647
vt -3.5523 0.0000
vt -6.1846 1.5647
vt -6.1846 0.0000
vt -3.5523 1.5647
vt -1.5490 1.5647
vt 1.6392 0.0000
vt 1.6392 1.5647
vt -1.5490 0.0000
vt -1.5608 1.5647
vt 2.0999 0.0000
vt 2.0999 1.5647
vt -1.5608 0.0000
vt -1.6392 1.5647
vt 1.5490 0.0000
vt 1.5490 1.5647
vt -1.6392 0.0000
vt -0.9280 1.5647
vt -0.9280 0.0000
vt -6.2581 -6.2378
vt -7.0683 0.0000
vt -8.0509 -3.6014
vt -6.5259 -2.9769
vt -5.2045 -4.9201
vt -3.8092 -7.2028
vt -3.8092 -5.4699
vt -1.3602 -6.2378
vt -2.4139 -4.9201
vt -1.7813 -3.9899
vt -0.9280 -5.6022
vt 7.0948 -5.6022
vt -6.2581 6.2378
vt -8.0509 3.6014
vt -8.7071 -0.0000
vt 7.0948 5.6022
vt -0.9280 5.6022
vt -1.7813 3.9899
vt -1.3602 6.2378
vt -2.4139 4.9201
vt -3.8092 5.4699
vt -3.8092 7.2028
vt -5.2045 4.9201
vt -6.5259 2.9769
vt 0.0000 0.0000
vt -5.1544 0.0000
vt -5.9231 1.5647
vt -5.9231 0.0000
vt -5.1544 1.5647
vt -0.9033 0.0000
vt -3.5356 1.5647
vt -3.5356 0.0000
vt -0.9033 1.5647
vn 0.0000 -0.3827 -0.9239
vn -1.0000 0.0000 0.0000
vn 0.0000 -0.9239 -0.3827
vn 1.0000 0.0000 0.0000
vn 0.7306 -0.5677 -0.3793
vn 0.0000 0.0000 1.0000
vn -0.6427 0.2305 0.7306
vn -0.0988 0.6756 0.7306
vn -0.5340 -0.5339 0.6556
vn -0.7498 -0.0000 -0.6617
vn -0.7568 -0.2477 -0.6049
vn -0.7798 -0.4889 -0.3909
vn -0.7996 -0.6005 -0.0000
vn -0.7798 -0.4889 0.3909
vn -0.6154 -0.6966 0.3687
vn -0.8321 -0.5547 -0.0000
vn -0.8682 0.4584 -0.1899
vn 0.8682 0.1899 -0.4584
vn 0.6303 0.5490 -0.5490
vn -0.4637 0.6265 -0.6265
vn -0.7071 0.7071 0.0000
vn -0.6154 0.6966 0.3687
vn -0.7798 0.4889 0.3909
vn -0.7996 0.6005 -0.0000
vn -0.7798 0.4889 -0.3909
vn -0.7568 0.2477 -0.6049
vn 0.0000 0.1793 0.9838
vn -0.0000 0.9304 0.3666
vn 0.0000 0.0000 -1.0000
vn -0.0000 0.5623 -0.8269
vn 0.0000 1.0000 0.0000
vn -0.0000 0.9304 -0.3666
vn -0.0000 -0.9304 -0.3666
vn 0.0000 -0.5623 0.8269
vn -0.0000 -0.1793 0.9838
vn -0.0000 0.5623 0.8269
vn 0.0000 -1.0000 0.0000
vn 0.7498 0.0000 -0.6617
vn 0.7568 0.2477 -0.6049
vn 0.7798 0.4889 -0.3909
vn 0.7996 0.6005 -0.0000
vn 0.7798 0.4889 0.3909
vn 0.6154 0.6966 0.3687
vn 0.8162 -0.0007 0.5777
vn 0.7306 -0.4828 0.4828
vn 0.7551 0.0002 -0.6556
vn 0.6657 -0.7319 -0.1456
vn 0.3281 -0.3275 0.8861
vn 0.6154 -0.6966 0.3687
vn 0.7798 -0.4889 0.3909
vn 0.7996 -0.6005 -0.0000
vn 0.7798 -0.4889 -0.3909
vn 0.7568 -0.2477 -0.6049
vn -0.0000 -0.5623 -0.8269
vn 0.0000 -0.9304 0.3666
vn -0.8682 0.1899 -0.4584
vn 0.6000 0.7391 -0.3061
vn 0.6556 -0.0002 -0.7551
vn 0.7306 0.5677 -0.3793
usemtl brown
s off
f 21/1/1 35/2/1 60/3/1
f 21/4/1 60/3/1 19/5/1
f 18/6/2 21/1/2 19/5/2
f 46/7/3 19/5/3 60/3/3
f 17/8/3 19/5/3 46/9/3
f 60/3/4 53/10/5 46/7/4
f 17/11/2 16/12/2 19/5/2
f 19/5/2 14/13/2 18/6/2
f 14/13/2 19/5/2 16/12/2
f 16/14/6 53/10/7 14/13/6
f 14/13/6 53/10/8 54/15/9
s 1
f 1/16/2 2/17/2 3/18/2
f 2/17/2 1/16/2 4/19/2
f 2/17/2 4/19/2 5/20/10
f 5/20/10 4/19/2 6/21/11
f 6/21/11 4/19/2 7/22/12
f 7/22/12 4/19/2 8/23/2
f 7/22/12 8/23/2 9/24/13
f 9/24/13 8/23/2 10/25/2
f 9/24/13 10/25/2 11/26/14
f 11/26/14 10/25/2 12/27/15
f 12/27/15 10/25/2 13/28/2
f 12/27/15 13/28/2 14/13/16
f 14/13/16 13/28/2 15/29/17
f 35/2/4 36/30/18 60/3/4
f 42/31/19 60/3/4 36/30/18
f 18/6/20 42/31/19 36/30/18
f 22/32/2 16/12/21 17/11/2
f 22/32/2 23/33/22 16/12/21
f 24/34/2 23/33/22 22/32/2
f 24/34/2 25/35/23 23/33/22
f 24/34/2 26/36/24 25/35/23
f 27/37/2 26/36/24 24/34/2
f 27/37/2 28/38/25 26/36/24
f 29/39/2 28/38/25 27/37/2
f 29/39/2 30/40/26 28/38/25
f 29/39/2 5/20/10 30/40/26
f 5/20/10 29/39/2 2/17/2
f 31/41/27 3/42/27 32/43/27
f 3/42/27 31/41/27 1/44/27
f 33/45/28 8/46/28 4/47/28
f 8/46/28 33/45/28 34/48/28
f 20/49/29 35/2/29 21/1/29
f 35/2/29 20/49/29 36/30/29
f 10/50/30 37/51/30 13/52/30
f 37/51/30 10/50/30 38/53/30
f 37/54/31 15/55/31 13/56/31
f 15/55/31 37/54/31 39/57/31
f 34/58/32 10/59/32 8/60/32
f 10/59/32 34/58/32 38/61/32
f 24/62/33 40/63/33 27/64/33
f 40/63/33 24/62/33 41/65/33
f 43/66/34 29/67/34 44/68/34
f 29/67/34 43/66/34 2/69/34
f 32/70/35 2/71/35 43/72/35
f 2/71/35 32/70/35 3/73/35
f 33/74/36 1/75/36 31/76/36
f 1/75/36 33/74/36 4/77/36
f 17/8/37 45/78/37 22/79/37
f 45/78/37 17/8/37 46/9/37
f 44/80/4 47/81/38 43/82/4
f 47/81/38 44/80/4 48/83/39
f 48/83/39 44/80/4 49/84/40
f 49/84/40 44/80/4 40/85/4
f 49/84/40 40/85/4 50/86/41
f 50/86/41 40/85/4 41/87/4
f 50/86/41 41/87/4 51/88/42
f 51/88/42 41/87/4 52/89/43
f 52/89/43 41/87/4 45/90/4
f 52/89/43 45/90/4 53/10/44
f 53/10/44 45/90/4 46/91/4
f 53/10/45 54/15/46 46/91/47
f 33/92/4 43/82/4 47/81/38
f 31/93/4 43/82/4 33/92/4
f 43/82/4 31/93/4 32/94/4
f 39/95/29 46/91/47 54/15/46
f 37/96/4 54/15/48 39/95/4
f 37/96/4 55/97/49 54/15/48
f 38/98/4 55/97/49 37/96/4
f 38/98/4 56/99/50 55/97/49
f 38/98/4 57/100/51 56/99/50
f 34/101/4 57/100/51 38/98/4
f 33/92/4 58/102/52 34/101/4
f 34/101/4 58/102/52 57/100/51
f 33/92/4 59/103/53 58/102/52
f 33/92/4 47/81/38 59/103/53
f 18/6/20 15/104/17 42/31/19
f 22/105/54 41/106/54 24/107/54
f 41/106/54 22/105/54 45/108/54
f 27/109/55 44/110/55 29/111/55
f 44/110/55 27/109/55 40/112/55
f 20/49/56 21/1/2 18/6/20
f 39/57/57 42/31/19 15/55/17
f 20/49/56 18/6/20 36/30/18
f 42/31/19 39/57/57 54/15/58
f 15/29/17 18/6/20 14/13/16
f 60/3/4 42/31/19 54/15/58
f 53/10/59 60/3/4 54/15/58
f 53/10/44 16/14/21 52/89/43
f 16/14/21 23/33/22 52/89/43
f 52/89/43 23/33/22 51/88/42
f 23/33/22 25/35/23 51/88/42
f 51/88/42 25/35/23 50/86/41
f 25/35/23 26/36/24 50/86/41
f 50/86/41 26/36/24 49/84/40
f 26/36/24 28/38/25 49/84/40
f 49/84/40 28/38/25 48/83/39
f 28/38/25 30/40/26 48/83/39
f 48/83/39 30/40/26 47/81/38
f 30/40/26 5/20/10 47/81/38
f 47/81/38 5/20/10 59/103/53
f 5/20/10 6/21/11 59/103/53
f 59/103/53 6/21/11 58/102/52
f 6/21/11 7/22/12 58/102/52
f 58/102/52 7/22/12 57/100/51
f 7/22/12 9/24/13 57/100/51
f 11/26/14 57/100/51 9/24/13
f 57/100/51 11/26/14 56/99/50
f 11/26/14 12/27/15 56/99/50
f 56/99/50 12/27/15 55/97/49
f 12/27/15 14/13/16 55/97/49
f 55/97/49 14/13/16 54/15/48
