# Blender v2.78 (sub 0) OBJ File: ''
# www.blender.org
mtllib mediumbowl_collision.mtl
o mediumBowl10_ID5.006_mediumBowl10_ID5.000_mediumBowl10_ID5..000
v -0.118038 -0.065251 0.052839
v -0.118039 0.071722 0.052839
v -0.124954 0.075715 0.052839
v -0.124955 -0.069243 0.052839
v -0.100091 0.061361 -0.032567
v -0.100091 -0.054889 -0.032567
v -0.109152 0.066592 -0.015130
v -0.109152 -0.060120 -0.015130
v -0.073365 0.045930 -0.022161
v -0.073364 -0.039457 -0.022161
v -0.124955 -0.069243 0.019277
v -0.124954 0.075715 0.019277
vt 0.0000 0.0000
vt 0.0000 0.0000
vt 0.0000 0.0000
vt 0.0000 0.0000
vt 0.0000 0.0000
vt 0.0000 0.0000
vt 0.0000 0.0000
vt 0.0000 0.0000
vt 0.0000 0.0000
vt 0.0000 0.0000
vt 0.0000 0.0000
vt 0.0000 0.0000
vn 0.0000 -0.0000 1.0000
vn -0.8873 0.0000 -0.4611
vn -0.2108 -0.3178 -0.9244
vn -0.1972 0.3113 -0.9296
vn 0.3628 0.0000 -0.9319
vn 0.5000 -0.8660 -0.0000
vn -0.1013 -0.9762 0.1918
vn -0.9087 0.0000 -0.4174
vn -1.0000 0.0000 0.0000
vn -0.1166 0.9737 0.1958
vn 0.5000 0.8660 0.0000
vn 0.5947 0.2156 0.7745
vn 0.1478 0.7010 0.6977
vn 0.1434 -0.7029 0.6967
vn 0.4204 -0.3709 0.8281
vn 0.4340 0.3633 0.8244
usemtl _defaultMat.000
s off
f 1/1/1 2/2/1 3/3/1
f 4/4/1 1/1/1 3/3/1
f 5/5/2 6/6/2 7/7/2
f 8/8/2 7/7/2 6/6/2
f 9/9/3 10/10/4 6/6/5 5/5/5
f 4/4/6 11/11/6 6/6/6 10/10/7 1/1/6
f 7/7/8 8/8/8 12/12/8
f 11/11/8 12/12/8 8/8/8
f 12/12/9 11/11/9 3/3/9
f 4/4/9 3/3/9 11/11/9
f 9/9/10 5/5/11 12/12/11 3/3/11 2/2/12
s 1
f 2/2/13 1/1/14 9/9/15
f 10/10/16 9/9/15 1/1/14
o mediumBowl10_ID5.006_mediumBowl10_ID5.004_mediumBowl10_ID5..000
v 0.119211 0.072653 0.052839
v 0.119212 -0.064320 0.052839
v 0.126128 -0.068313 0.052839
v 0.126128 0.076645 0.052839
v 0.101265 -0.053959 -0.032567
v 0.101265 0.062291 -0.032567
v 0.110326 -0.059190 -0.015130
v 0.110326 0.067522 -0.015130
v 0.074538 -0.038528 -0.022161
v 0.074537 0.046859 -0.022161
v 0.126128 0.076645 0.019277
v 0.126128 -0.068313 0.019277
vt 0.0000 0.0000
vt 0.0000 0.0000
vt 0.0000 0.0000
vt 0.0000 0.0000
vt 0.0000 0.0000
vt 0.0000 0.0000
vt 0.0000 0.0000
vt 0.0000 0.0000
vt 0.0000 0.0000
vt 0.0000 0.0000
vt 0.0000 0.0000
vt 0.0000 0.0000
vn 0.0000 -0.0000 1.0000
vn 0.8873 0.0000 -0.4611
vn 0.2108 0.3178 -0.9244
vn 0.1972 -0.3113 -0.9296
vn -0.3628 -0.0000 -0.9319
vn -0.5000 0.8660 -0.0000
vn 0.1013 0.9762 0.1918
vn 0.9087 0.0000 -0.4174
vn 1.0000 0.0000 0.0000
vn 0.1166 -0.9737 0.1958
vn -0.5000 -0.8660 0.0000
vn -0.5947 -0.2156 0.7745
vn -0.1478 -0.7010 0.6977
vn -0.1434 0.7029 0.6967
vn -0.4204 0.3709 0.8281
vn -0.4340 -0.3633 0.8244
usemtl _defaultMat.000
s off
f 13/13/17 14/14/17 15/15/17
f 16/16/17 13/13/17 15/15/17
f 17/17/18 18/18/18 19/19/18
f 20/20/18 19/19/18 18/18/18
f 21/21/19 22/22/20 18/18/21 17/17/21
f 16/16/22 23/23/22 18/18/22 22/22/23 13/13/22
f 19/19/24 20/20/24 24/24/24
f 23/23/24 24/24/24 20/20/24
f 24/24/25 23/23/25 15/15/25
f 16/16/25 15/15/25 23/23/25
f 21/21/26 17/17/27 24/24/27 15/15/27 14/14/28
s 1
f 14/14/29 13/13/30 21/21/31
f 22/22/32 21/21/31 13/13/30
o mediumBowl10_ID5.003_mediumBowl10_ID5.000
v -0.100675 0.062070 -0.032567
v 0.000000 0.120195 -0.032567
v -0.100675 -0.054180 -0.032567
v 0.000000 -0.112305 -0.032567
v 0.100675 0.062070 -0.032567
v 0.100675 -0.054180 -0.032567
v -0.066848 -0.034650 -0.054073
v -0.066848 0.042540 -0.054073
v 0.000000 -0.073245 -0.054073
v 0.000000 0.081135 -0.054073
v 0.066848 -0.034650 -0.054073
v 0.066848 0.042540 -0.054073
v -0.091268 0.056639 -0.022161
v -0.091268 -0.048749 -0.022161
v 0.000000 0.109333 -0.022161
v 0.000000 -0.101443 -0.022161
v 0.091268 -0.048749 -0.022161
v 0.091268 0.056639 -0.022161
vt 0.0000 0.0000
vt 0.0000 0.0000
vt 0.0000 0.0000
vt 0.0000 0.0000
vt 0.0000 0.0000
vt 0.0000 0.0000
vt 0.0000 0.0000
vt 0.0000 0.0000
vt 0.0000 0.0000
vt 0.0000 0.0000
vt 0.0000 0.0000
vt 0.0000 0.0000
vt 0.0000 0.0000
vt 0.0000 0.0000
vt 0.0000 0.0000
vt 0.0000 0.0000
vt 0.0000 0.0000
vt 0.0000 0.0000
vn 0.0000 0.0000 -1.0000
vn -0.7418 0.0000 0.6706
vn -0.3709 0.6424 0.6706
vn 0.3709 -0.6424 0.6706
vn -0.2683 -0.4646 -0.8439
vn 0.2683 0.4646 -0.8439
vn -0.5365 0.0000 -0.8439
vn 0.5365 0.0000 -0.8439
vn 0.2683 -0.4646 -0.8439
vn -0.2683 0.4646 -0.8439
vn -0.3709 -0.6424 0.6706
vn 0.0000 -0.0000 1.0000
vn 0.3709 0.6424 0.6706
vn 0.7418 0.0000 0.6706
usemtl _defaultMat.001
s off
f 25/25/33 26/26/33 27/27/33
f 28/28/33 27/27/33 26/26/33
f 29/29/33 28/28/33 26/26/33
f 30/30/33 28/28/33 29/29/33
f 31/31/33 32/32/33 33/33/33
f 34/34/33 33/33/33 32/32/33
f 35/35/33 33/33/33 34/34/33
f 36/36/33 35/35/33 34/34/33
f 37/37/34 25/25/34 27/27/34 38/38/34
f 25/25/35 37/37/35 39/39/35 26/26/35
f 40/40/36 28/28/36 30/30/36 41/41/36
f 27/27/37 31/31/37 28/28/37
f 33/33/37 28/28/37 31/31/37
f 26/26/38 29/29/38 34/34/38
f 36/36/38 34/34/38 29/29/38
f 27/27/39 25/25/39 31/31/39
f 32/32/39 31/31/39 25/25/39
f 35/35/40 36/36/40 30/30/40
f 29/29/40 30/30/40 36/36/40
f 28/28/41 33/33/41 30/30/41
f 35/35/41 30/30/41 33/33/41
f 25/25/42 26/26/42 32/32/42
f 34/34/42 32/32/42 26/26/42
f 38/38/43 27/27/43 28/28/43 40/40/43
f 37/37/44 38/38/44 39/39/44
f 40/40/44 39/39/44 38/38/44
f 42/42/44 39/39/44 40/40/44
f 41/41/44 42/42/44 40/40/44
f 26/26/45 39/39/45 42/42/45 29/29/45
f 29/29/46 42/42/46 41/41/46 30/30/46
o mediumBowl10_ID5.006_mediumBowl10_ID5.003_mediumBowl10_ID5..000
v 0.118827 -0.064123 0.052839
v 0.000206 -0.132611 0.052839
v 0.000205 -0.140597 0.052839
v 0.125743 -0.068118 0.052839
v 0.000205 -0.111888 -0.032567
v 0.100880 -0.053762 -0.032567
v 0.000205 -0.122350 -0.015130
v 0.109941 -0.058994 -0.015130
v 0.000205 -0.081026 -0.022161
v 0.074152 -0.038332 -0.022161
v 0.125743 -0.068118 0.019277
v 0.000205 -0.140597 0.019277
vt 0.0000 0.0000
vt 0.0000 0.0000
vt 0.0000 0.0000
vt 0.0000 0.0000
vt 0.0000 0.0000
vt 0.0000 0.0000
vt 0.0000 0.0000
vt 0.0000 0.0000
vt 0.0000 0.0000
vt 0.0000 0.0000
vt 0.0000 0.0000
vt 0.0000 0.0000
vn -0.0000 0.0000 1.0000
vn 0.4437 -0.7685 -0.4611
vn 0.3806 -0.0236 -0.9244
vn -0.1710 -0.3264 -0.9296
vn -0.1814 0.3142 -0.9319
vn 0.5000 0.8660 -0.0000
vn 0.8960 0.4004 0.1918
vn 0.4544 -0.7870 -0.4174
vn 0.5000 -0.8660 0.0000
vn -0.7850 -0.5878 0.1958
vn -1.0000 0.0000 0.0000
vn -0.4841 0.4072 0.7745
vn -0.6810 -0.2225 0.6977
vn 0.5370 0.4756 0.6967
vn 0.1110 0.5495 0.8281
vn -0.5317 0.1942 0.8244
usemtl _defaultMat.000
s off
f 43/43/47 44/44/47 45/45/47
f 46/46/47 43/43/47 45/45/47
f 47/47/48 48/48/48 49/49/48
f 50/50/48 49/49/48 48/48/48
f 51/51/49 52/52/50 48/48/51 47/47/51
f 46/46/52 53/53/52 48/48/52 52/52/53 43/43/52
f 49/49/54 50/50/54 54/54/54
f 53/53/54 54/54/54 50/50/54
f 54/54/55 53/53/55 45/45/55
f 46/46/55 45/45/55 53/53/55
f 51/51/56 47/47/57 54/54/57 45/45/57 44/44/58
s 1
f 44/44/59 43/43/60 51/51/61
f 52/52/62 51/51/61 43/43/60
o mediumBowl10_ID5.006_mediumBowl10_ID5.000
v -0.118544 0.072178 0.052839
v 0.000078 0.140665 0.052839
v 0.000078 0.148651 0.052839
v -0.125460 0.076173 0.052839
v 0.000078 0.119942 -0.032567
v -0.100597 0.061817 -0.032567
v 0.000078 0.130404 -0.015130
v -0.109658 0.067048 -0.015130
v 0.000078 0.089080 -0.022161
v -0.073869 0.046386 -0.022161
v -0.125460 0.076173 0.019277
v 0.000078 0.148651 0.019277
vt 0.0000 0.0000
vt 0.0000 0.0000
vt 0.0000 0.0000
vt 0.0000 0.0000
vt 0.0000 0.0000
vt 0.0000 0.0000
vt 0.0000 0.0000
vt 0.0000 0.0000
vt 0.0000 0.0000
vt 0.0000 0.0000
vt 0.0000 0.0000
vt 0.0000 0.0000
vn -0.0000 0.0000 1.0000
vn -0.4437 0.7685 -0.4611
vn -0.3806 0.0236 -0.9244
vn 0.1710 0.3264 -0.9296
vn 0.1814 -0.3142 -0.9319
vn -0.5000 -0.8660 -0.0000
vn -0.8960 -0.4004 0.1918
vn -0.4544 0.7870 -0.4174
vn -0.5000 0.8660 0.0000
vn 0.7850 0.5878 0.1958
vn 1.0000 0.0000 0.0000
vn 0.4841 -0.4072 0.7745
vn 0.6810 0.2225 0.6977
vn -0.5370 -0.4756 0.6967
vn -0.1110 -0.5495 0.8281
vn 0.5317 -0.1942 0.8244
usemtl _defaultMat.000
s off
f 55/55/63 56/56/63 57/57/63
f 58/58/63 55/55/63 57/57/63
f 59/59/64 60/60/64 61/61/64
f 62/62/64 61/61/64 60/60/64
f 63/63/65 64/64/66 60/60/67 59/59/67
f 58/58/68 65/65/68 60/60/68 64/64/69 55/55/68
f 61/61/70 62/62/70 66/66/70
f 65/65/70 66/66/70 62/62/70
f 66/66/71 65/65/71 57/57/71
f 58/58/71 57/57/71 65/65/71
f 63/63/72 59/59/73 66/66/73 57/57/73 56/56/74
s 1
f 56/56/75 55/55/76 63/63/77
f 64/64/78 63/63/77 55/55/76
o mediumBowl10_ID5.006_mediumBowl10_ID5.002_mediumBowl10_ID5..000
v 0.000206 -0.133280 0.052839
v -0.118417 -0.064795 0.052839
v -0.125333 -0.068787 0.052839
v 0.000204 -0.141267 0.052839
v -0.100470 -0.054432 -0.032567
v 0.000205 -0.112557 -0.032567
v -0.109531 -0.059664 -0.015130
v 0.000205 -0.123020 -0.015130
v -0.073743 -0.039002 -0.022161
v 0.000204 -0.081695 -0.022161
v 0.000204 -0.141267 0.019277
v -0.125333 -0.068787 0.019277
vt 0.0000 0.0000
vt 0.0000 0.0000
vt 0.0000 0.0000
vt 0.0000 0.0000
vt 0.0000 0.0000
vt 0.0000 0.0000
vt 0.0000 0.0000
vt 0.0000 0.0000
vt 0.0000 0.0000
vt 0.0000 0.0000
vt 0.0000 0.0000
vt 0.0000 0.0000
vn 0.0000 -0.0000 1.0000
vn -0.4437 -0.7685 -0.4611
vn 0.1698 -0.3415 -0.9244
vn -0.3682 -0.0151 -0.9296
vn 0.1814 0.3142 -0.9319
vn 1.0000 -0.0000 -0.0000
vn 0.7948 -0.5758 0.1918
vn -0.4544 -0.7870 -0.4173
vn -0.4544 -0.7870 -0.4174
vn -0.5000 -0.8660 0.0000
vn -0.9015 0.3859 0.1958
vn -0.5000 0.8660 0.0000
vn 0.1106 0.6228 0.7745
vn -0.5332 0.4785 0.6977
vn 0.6804 -0.2273 0.6967
vn 0.5314 0.1786 0.8281
vn -0.0976 0.5575 0.8244
usemtl _defaultMat.000
s off
f 67/67/79 68/68/79 69/69/79
f 70/70/79 67/67/79 69/69/79
f 71/71/80 72/72/80 73/73/80
f 74/74/80 73/73/80 72/72/80
f 75/75/81 76/76/82 72/72/83 71/71/83
f 70/70/84 77/77/84 72/72/84 76/76/85 67/67/84
f 73/73/86 74/74/86 78/78/86
f 77/77/87 78/78/87 74/74/87
f 78/78/88 77/77/88 69/69/88
f 70/70/88 69/69/88 77/77/88
f 75/75/89 71/71/90 78/78/90 69/69/90 68/68/91
s 1
f 68/68/92 67/67/93 75/75/94
f 76/76/95 75/75/94 67/67/93
o mediumBowl10_ID5.006_mediumBowl10_ID5.005_mediumBowl10_ID5..000
v 0.000467 0.141335 0.052839
v 0.119090 0.072849 0.052839
v 0.126006 0.076842 0.052839
v 0.000469 0.149322 0.052839
v 0.101143 0.062487 -0.032567
v 0.000468 0.120612 -0.032567
v 0.110204 0.067718 -0.015130
v 0.000468 0.131074 -0.015130
v 0.074416 0.047056 -0.022161
v 0.000468 0.089749 -0.022161
v 0.000469 0.149322 0.019277
v 0.126006 0.076842 0.019277
vt 0.0000 0.0000
vt 0.0000 0.0000
vt 0.0000 0.0000
vt 0.0000 0.0000
vt 0.0000 0.0000
vt 0.0000 0.0000
vt 0.0000 0.0000
vt 0.0000 0.0000
vt 0.0000 0.0000
vt 0.0000 0.0000
vt 0.0000 0.0000
vt 0.0000 0.0000
vn -0.0000 -0.0000 1.0000
vn 0.4437 0.7685 -0.4611
vn -0.1698 0.3415 -0.9244
vn 0.3682 0.0151 -0.9296
vn -0.1814 -0.3142 -0.9319
vn -1.0000 0.0000 -0.0000
vn -0.7948 0.5758 0.1918
vn 0.4544 0.7870 -0.4174
vn 0.5000 0.8660 0.0000
vn 0.9015 -0.3859 0.1958
vn 0.5000 -0.8660 0.0000
vn -0.1106 -0.6228 0.7745
vn 0.5332 -0.4785 0.6977
vn -0.6804 0.2273 0.6967
vn -0.5314 -0.1786 0.8281
vn 0.0976 -0.5575 0.8244
usemtl _defaultMat.000
s off
f 79/79/96 80/80/96 81/81/96
f 82/82/96 79/79/96 81/81/96
f 83/83/97 84/84/97 85/85/97
f 86/86/97 85/85/97 84/84/97
f 87/87/98 88/88/99 84/84/100 83/83/100
f 82/82/101 89/89/101 84/84/101 88/88/102 79/79/101
f 85/85/103 86/86/103 90/90/103
f 89/89/103 90/90/103 86/86/103
f 90/90/104 89/89/104 81/81/104
f 82/82/104 81/81/104 89/89/104
f 87/87/105 83/83/106 90/90/106 81/81/106 80/80/107
s 1
f 80/80/108 79/79/109 87/87/110
f 88/88/111 87/87/110 79/79/109
