# Blender 3.4.1
# www.blender.org
mtllib grip2Collider.mtl
o rollingPin.002
v -0.031000 -0.017002 0.009816
v -0.031000 0.000000 0.019632
v -0.031000 -0.017002 -0.009816
v -0.031000 0.000000 -0.019632
v -0.041000 -0.017002 0.009816
v -0.041000 0.000000 0.019632
v -0.041000 0.017002 0.009816
v -0.041000 0.017002 -0.009816
v -0.031000 0.017002 0.009816
v -0.031000 0.017002 -0.009816
v -0.041000 -0.017002 -0.009816
v -0.041000 0.000000 -0.019632
vn -0.0000 -0.5000 0.8660
vn -0.0000 1.0000 -0.0000
vn -0.0000 -0.5000 -0.8660
vn -0.0000 0.5000 -0.8660
vn -0.0000 -1.0000 -0.0000
vn -0.0000 0.5000 0.8660
vn -1.0000 -0.0000 -0.0000
vn 1.0000 -0.0000 -0.0000
vt 9.717630 -0.772926
vt -9.717630 -0.772926
vt 9.717630 0.772926
vt 9.717630 -0.772926
vt -9.717630 0.772926
vt -9.717630 -0.772926
vt -9.717630 0.772926
vt -9.717630 -0.772926
vt 8.930229 -0.772926
vt -8.930229 -0.772926
vt 8.930229 0.772926
vt 8.930229 -0.772926
vt 8.930229 0.772926
vt 8.930229 -0.772926
vt 8.930229 0.772926
vt -8.930229 0.772926
vt 9.717630 -0.772926
vt 9.717630 0.772926
vt -9.717630 0.772926
vt 9.717630 0.772926
vt -8.930229 -0.772926
vt -8.930229 0.772926
vt -8.930229 -0.772926
vt -8.930229 0.772926
s 0
usemtl brownLight.008
f 2/3/1 5/9/1 1/1/1
f 5/9/1 2/3/1 6/11/1
f 9/17/2 8/15/2 7/14/2
f 8/15/2 9/17/2 10/20/2
f 11/21/3 4/7/3 3/6/3
f 4/7/3 11/21/3 12/24/3
f 12/23/4 10/19/4 4/8/4
f 10/19/4 12/23/4 8/16/4
f 11/22/5 1/2/5 5/10/5
f 1/2/5 11/22/5 3/5/5
f 9/18/6 6/12/6 2/4/6
f 6/12/6 9/18/6 7/13/6
f 5/10/7 6/12/7 7/14/7 8/16/7 12/24/7 11/22/7
f 2/4/8 1/2/8 3/6/8 4/8/8 10/20/8 9/18/8
o rollingPin.001
v 0.049000 0.000000 0.012958
v 0.049000 0.011222 0.006479
v 0.049000 -0.011222 0.006479
v 0.049000 0.011222 -0.006479
v 0.049000 -0.011222 -0.006479
v 0.049000 0.000000 -0.012958
v 0.024000 0.000000 0.016715
v 0.024000 0.014476 0.008357
v 0.024000 -0.014476 -0.008357
v 0.024000 0.000000 -0.016715
v 0.024000 -0.014476 0.008357
v 0.024000 0.014476 -0.008357
vn 1.0000 -0.0000 -0.0000
vn 0.1291 0.4958 0.8588
vn 0.1290 0.4958 0.8588
vn 0.1290 -0.4958 -0.8588
vn 0.1291 -0.4958 -0.8588
vn 0.1291 -0.9916 -0.0000
vn 0.1291 0.9916 -0.0000
vn 0.1291 0.4958 -0.8588
vn 0.1290 0.4958 -0.8588
vn 0.1290 -0.4958 0.8588
vn 0.1291 -0.4958 0.8588
vn -1.0000 -0.0000 -0.0000
vt -1.020262 -0.000000
vt 15.687280 -1.680622
vt 15.687280 1.680622
vt -0.510131 0.883573
vt 15.763110 -0.663181
vt -0.510129 -15.768800
vt -0.510131 -0.883573
vt -0.510134 15.768800
vt 15.763110 0.663181
vt 0.510131 0.883573
vt 0.510134 -15.768800
vt -15.763110 -0.663181
vt 0.510131 -0.883573
vt -15.763110 0.663181
vt 0.510129 15.768800
vt 1.020262 0.000000
vt -15.687280 1.680622
vt -15.687280 -1.680622
vt 13.696670 -1.680622
vt 13.696670 1.680622
vt 13.794480 -0.368123
vt -0.658067 -13.783690
vt 0.658067 13.783690
vt -13.794480 0.368123
vt -13.696670 1.680622
vt -13.696670 -1.680622
vt 13.794480 0.368123
vt -0.658071 13.783690
vt -13.794480 -0.368124
vt 0.658071 -13.783690
s 0
usemtl brownLight.008
f 15/31/9 14/28/9 13/25/9
f 14/28/9 15/31/9 16/34/9
f 16/34/9 15/31/9 17/37/9
f 16/34/9 17/37/9 18/40/9
f 14/29/10 19/43/10 13/26/10
f 19/43/11 14/29/11 20/45/11
f 22/49/12 17/38/12 21/48/12
f 17/38/13 22/49/13 18/41/13
f 17/39/14 23/52/14 21/47/14
f 23/52/14 17/39/14 15/32/14
f 14/30/15 24/54/15 20/46/15
f 24/54/15 14/30/15 16/35/15
f 22/50/16 16/36/16 18/42/16
f 16/36/17 22/50/17 24/53/17
f 15/33/18 19/44/18 23/51/18
f 19/44/19 15/33/19 13/27/19
f 20/46/20 24/54/20 22/50/20 21/48/20 23/52/20 19/44/20
o rollingPin.003
v -0.001000 -0.011222 0.006479
v -0.001000 0.000000 0.012958
v 0.024000 0.000000 0.016715
v 0.024000 0.014476 0.008357
v 0.024000 -0.014476 -0.008357
v 0.024000 0.000000 -0.016715
v -0.001000 -0.011222 -0.006479
v -0.001000 0.000000 -0.012958
v 0.024000 -0.014476 0.008357
v -0.001000 0.011222 0.006479
v -0.001000 0.011222 -0.006479
v 0.024000 0.014476 -0.008357
vn -0.1290 -0.4958 -0.8588
vn -0.1291 -0.4958 -0.8588
vn -0.1290 -0.4958 0.8588
vn -0.1291 -0.4958 0.8588
vn -0.1291 0.9916 -0.0000
vn -0.1291 0.4958 -0.8588
vn -0.1290 0.4958 -0.8588
vn -0.1291 0.4958 0.8588
vn -0.1290 0.4958 0.8588
vn -0.1291 -0.9916 -0.0000
vn -1.0000 -0.0000 -0.0000
vn 1.0000 -0.0000 -0.0000
vt 12.021480 -1.407432
vt 0.510129 -12.092830
vt 12.097300 0.389991
vt 12.097300 -0.389991
vt 14.087920 0.389991
vt 14.087920 -0.389991
vt 13.990100 1.702490
vt 0.658072 14.077940
vt -0.658072 -14.077940
vt -13.990100 -1.702490
vt -14.087920 -0.389991
vt -14.087920 0.389991
vt -0.510133 -12.092830
vt -12.021480 -1.407432
vt -12.097300 -0.389991
vt -12.097300 0.389991
vt 13.990100 -1.702490
vt 0.658067 -14.077940
vt 0.510133 12.092830
vt 12.021480 1.407432
vt -0.510129 12.092830
vt -12.021480 1.407432
vt -13.990100 1.702490
vt -0.658067 14.077940
s 0
usemtl brownLight.008
f 31/68/21 30/65/21 29/64/21
f 30/65/22 31/68/22 32/69/22
f 27/60/23 25/55/23 33/71/23
f 25/55/24 27/60/24 26/58/24
f 28/62/25 35/75/25 34/73/25
f 35/75/25 28/62/25 36/78/25
f 32/70/26 36/77/26 30/66/26
f 36/77/27 32/70/27 35/76/27
f 28/61/28 26/57/28 27/59/28
f 26/57/29 28/61/29 34/74/29
f 29/63/30 25/56/30 31/67/30
f 25/56/30 29/63/30 33/72/30
f 35/76/31 32/70/31 31/68/31 25/56/31 26/58/31 34/74/31
f 28/62/32 27/60/32 33/72/32 29/64/32 30/66/32 36/78/32
o rollingPin.004
v -0.031000 -0.017002 0.009816
v -0.031000 0.000000 0.019632
v -0.001000 -0.011222 0.006479
v -0.001000 0.000000 0.012958
v -0.001000 -0.011222 -0.006479
v -0.001000 0.000000 -0.012958
v -0.031000 -0.017002 -0.009816
v -0.031000 0.000000 -0.019632
v -0.001000 0.011222 0.006479
v -0.001000 0.011222 -0.006479
v -0.031000 0.017002 0.009816
v -0.031000 0.017002 -0.009816
vn 0.1892 -0.4910 0.8504
vn 0.1892 -0.4910 -0.8504
vn 0.1892 0.9819 -0.0000
vn 0.1892 -0.9819 -0.0000
vn 0.1892 0.4910 -0.8504
vn 0.1892 0.4910 0.8504
vn 1.0000 -0.0000 -0.0000
vn -1.0000 -0.0000 -0.0000
vt 9.317798 0.240354
vt -0.772927 9.288795
vt 9.149926 1.777064
vt 9.149926 -1.777065
vt 11.680690 0.762836
vt -0.510132 11.694450
vt 11.569900 -1.777065
vt 11.569900 1.777064
vt 0.510130 11.694450
vt -11.680690 0.762836
vt -11.569900 1.777064
vt -11.569900 -1.777065
vt 0.772925 9.288795
vt -9.317798 0.240354
vt -9.149926 1.777064
vt -9.149926 -1.777065
vt -0.510130 -11.694450
vt 11.680690 -0.762836
vt 0.510132 -11.694450
vt -11.680690 -0.762836
vt -0.772925 -9.288795
vt 9.317798 -0.240355
vt -9.317798 -0.240355
vt 0.772927 -9.288795
s 0
usemtl brownLight.008
f 39/83/33 38/81/33 37/79/33
f 38/81/33 39/83/33 40/86/33
f 44/93/34 41/88/34 43/92/34
f 41/88/34 44/93/34 42/89/34
f 45/95/35 48/102/35 47/99/35
f 48/102/35 45/95/35 46/97/35
f 41/87/36 37/80/36 43/91/36
f 37/80/36 41/87/36 39/84/36
f 44/94/37 46/98/37 42/90/37
f 46/98/37 44/94/37 48/101/37
f 45/96/38 38/82/38 40/85/38
f 38/82/38 45/96/38 47/100/38
f 46/98/39 45/96/39 40/86/39 39/84/39 41/88/39 42/90/39
f 38/82/40 47/100/40 48/102/40 44/94/40 43/92/40 37/80/40
