# Blender 3.4.1
# www.blender.org
mtllib woodenSpoon.mtl
o cookingSpoon
v 0.077473 0.000000 0.010081
v 0.077473 0.000000 -0.010081
v 0.095771 0.000000 0.020645
v 0.095771 0.000000 -0.020645
v 0.133552 0.000000 0.008981
v 0.133552 0.000000 -0.008981
v 0.166399 0.007200 0.021600
v 0.166399 0.007200 -0.021600
v 0.059026 0.007200 -0.021600
v 0.096438 0.007200 -0.043200
v 0.096438 0.007200 0.043200
v 0.059026 0.007200 0.021600
v 0.059026 0.007200 0.012671
v 0.059026 0.007200 -0.012671
v -0.153799 0.002200 -0.016244
v -0.153799 0.012200 -0.016244
v -0.153799 0.002200 0.016244
v -0.153799 0.012200 0.016244
v -0.166399 0.012200 0.000000
v -0.166399 0.002200 0.000000
v 0.077473 -0.003387 0.010081
v 0.077473 -0.003387 -0.010081
v 0.095771 -0.003387 0.020645
v 0.095771 -0.003387 -0.020645
v 0.133552 -0.003387 0.008981
v 0.133552 -0.003387 -0.008981
v 0.166399 0.003813 0.021600
v 0.166399 0.003813 -0.021600
v 0.059026 0.003813 -0.021600
v 0.096438 0.003813 -0.043200
v 0.096438 0.003813 0.043200
v 0.059026 0.003813 0.021600
v 0.059026 0.003813 0.012671
v 0.059026 0.003813 -0.012671
vn -0.0000 1.0000 -0.0000
vn -0.2141 0.9768 -0.0000
vn 0.1756 0.9363 0.3041
vn -0.0927 0.9493 -0.3003
vn 0.1756 0.9363 -0.3041
vn -1.0000 -0.0000 -0.0000
vn -0.0927 0.9493 0.3003
vn 0.2950 -0.0000 0.9555
vn -0.5000 -0.0000 -0.8660
vn 0.3636 0.9316 -0.0000
vn -0.5000 -0.0000 0.8660
vn 0.2950 -0.0000 -0.9555
vn 1.0000 -0.0000 -0.0000
vn 0.0076 -1.0000 -0.0000
vn 0.0168 -0.0000 0.9999
vn 0.0235 0.9997 -0.0000
vn -0.7902 -0.0000 0.6129
vn -0.0000 -1.0000 -0.0000
vn -0.7902 -0.0000 -0.6129
vn 0.2141 -0.9768 -0.0000
vn -0.1756 -0.9363 -0.3041
vn 0.0927 -0.9493 0.3003
vn -0.1756 -0.9363 0.3041
vn 0.0927 -0.9493 -0.3003
vn -0.3636 -0.9316 -0.0000
vn 0.0168 -0.0000 -0.9999
vt 6.100240 -0.793797
vt -5.679862 -2.212226
vt -0.793797 -5.682731
vt 6.100240 0.793797
vt 5.679862 -2.212226
vt 0.793797 -5.682731
vt 7.541018 -1.625630
vt -6.725848 3.586465
vt -7.343528 -2.212226
vt 7.541018 1.625630
vt 7.343528 -2.212226
vt 6.725848 3.586465
vt 10.515910 -0.707151
vt 0.707151 10.272030
vt -9.839302 3.586465
vt 10.515910 0.707151
vt -0.707151 10.272030
vt 9.839302 3.586465
vt -12.017460 5.390281
vt 1.700787 12.919830
vt 12.017460 5.390281
vt -1.700787 12.919830
vt 4.875429 -0.597676
vt 1.700787 -4.123483
vt 8.277003 -0.597676
vt 6.252143 5.390281
vt -6.252143 5.390281
vt -8.277003 -0.597676
vt -4.875429 -0.597676
vt -1.700787 -4.123483
vt -0.997665 -4.123483
vt 0.000000 0.000000
vt -0.997665 -4.633112
vt 0.997665 -4.123483
vt 0.997665 -4.633112
vt 12.110170 1.279058
vt 6.411691 0.173228
vt 1.279058 12.129400
vt -12.110170 1.279058
vt 6.411691 0.960630
vt 0.000000 0.000000
vt -6.411691 0.173228
vt 12.110170 -1.279058
vt 0.000000 0.000000
vt -1.279058 12.129400
vt -12.110170 -1.279058
vt -6.411691 0.960630
vt -13.102300 0.000000
vt -8.030426 0.960630
vt 8.030426 0.960630
vt -8.030426 0.173228
vt 13.102300 0.000000
vt 8.030426 0.173228
vt 6.100240 -0.793797
vt -5.679862 -2.212226
vt -0.793797 -5.682731
vt 6.100240 0.793797
vt 5.679862 -2.212226
vt 0.793797 -5.682731
vt 7.541018 -1.625630
vt -6.725848 3.586465
vt -7.343528 -2.212226
vt 7.541018 1.625630
vt 7.343528 -2.212226
vt 6.725848 3.586465
vt 10.515910 -0.707151
vt 0.707151 10.272030
vt -9.839302 3.586465
vt 10.515910 0.707151
vt -0.707151 10.272030
vt 9.839302 3.586465
vt 1.700787 12.919830
vt -12.017460 5.390281
vt -1.700787 12.919830
vt 12.017460 5.390281
vt 4.875429 -0.597676
vt 1.700787 -4.123483
vt 8.277003 -0.597676
vt 6.252143 5.390281
vt -6.252143 5.390281
vt -8.277003 -0.597676
vt -4.875429 -0.597676
vt -1.700787 -4.123483
vt 0.000000 0.000000
vt -0.997665 -4.123483
vt 0.997665 -4.123483
s 0
usemtl brown.018
f 3/7/1 2/4/1 1/1/1
f 2/4/1 3/7/1 4/10/1
f 4/10/1 3/7/1 5/13/1
f 4/10/1 5/13/1 6/16/1
f 7/20/2 6/17/2 5/14/2
f 6/17/2 7/20/2 8/22/2
f 2/5/3 10/25/3 9/23/3
f 10/25/3 2/5/3 4/11/3
f 11/27/4 5/15/4 3/8/4
f 5/15/4 11/27/4 7/19/4
f 11/28/5 1/2/5 12/29/5
f 1/2/5 11/28/5 3/9/5
f 14/34/6 9/24/6 29/77/6 34/86/6
f 6/18/7 10/26/7 4/12/7
f 10/26/7 6/18/7 8/21/7
f 7/19/8 11/27/8 31/80/8 27/73/8
f 9/23/9 10/25/9 30/78/9 29/76/9
f 1/3/10 13/31/10 12/30/10
f 14/34/10 1/3/10 9/24/10
f 9/24/10 1/3/10 2/6/10
f 11/28/11 12/29/11 32/82/11 31/81/11
f 10/26/12 8/21/12 28/75/12 30/79/12
f 12/30/6 13/31/6 33/85/6 32/83/6
f 8/22/13 7/20/13 27/72/13 28/74/13
f 34/86/14 17/41/14 15/36/14
f 34/86/14 33/85/14 17/41/14
f 17/41/15 33/84/15 13/32/15 18/44/15
f 13/33/16 16/38/16 18/45/16
f 16/38/16 13/33/16 14/35/16
f 16/39/1 19/48/1 18/46/1
f 19/49/17 17/42/17 18/47/17
f 17/42/17 19/49/17 20/51/17
f 17/43/18 20/52/18 15/36/18
f 16/40/19 20/53/19 19/50/19
f 20/53/19 16/40/19 15/37/19
f 21/54/18 22/57/18 23/60/18
f 24/63/18 23/60/18 22/57/18
f 25/66/18 23/60/18 24/63/18
f 26/69/18 25/66/18 24/63/18
f 25/67/20 26/70/20 27/72/20
f 28/74/20 27/72/20 26/70/20
f 29/76/21 30/78/21 22/58/21
f 24/64/21 22/58/21 30/78/21
f 23/61/22 25/68/22 31/80/22
f 27/73/22 31/80/22 25/68/22
f 32/82/23 21/55/23 31/81/23
f 23/62/23 31/81/23 21/55/23
f 24/65/24 30/79/24 26/71/24
f 28/75/24 26/71/24 30/79/24
f 32/83/25 33/85/25 21/56/25
f 15/37/26 16/40/26 14/35/26 34/86/26
f 33/85/25 34/86/25 21/56/25
f 13/33/10 1/3/10 14/35/10
f 29/77/25 21/56/25 34/86/25
f 22/59/25 21/56/25 29/77/25
