# Blender 3.4.1
# www.blender.org
mtllib chiliBowl.mtl
o bowlSoup
v -0.125538 0.072480 0.106912
v -0.109962 -0.063486 0.106912
v -0.125538 -0.072480 0.106912
v -0.000000 -0.144959 0.106912
v -0.000000 -0.126973 0.106912
v 0.125538 -0.072480 0.106912
v 0.109962 -0.063486 0.106912
v 0.109962 0.063486 0.106912
v -0.109962 0.063486 0.106912
v -0.000000 0.144959 0.106912
v -0.000000 0.126973 0.106912
v 0.125538 0.072480 0.106912
v -0.066849 0.038595 0.000000
v -0.066849 -0.038595 -0.000000
v 0.000000 0.077190 0.000000
v 0.000000 -0.077190 -0.000000
v 0.066849 0.038595 0.000000
v 0.066849 -0.038595 -0.000000
v -0.100675 0.058125 0.021506
v -0.000000 0.116250 0.021506
v -0.109736 0.063356 0.038944
v -0.000000 0.126713 0.038944
v -0.109736 -0.063356 0.038944
v -0.100675 -0.058125 0.021506
v -0.000000 -0.116250 0.021506
v -0.000000 -0.126713 0.038944
v 0.100675 -0.058125 0.021506
v 0.109736 -0.063356 0.038944
v 0.100675 0.058125 0.021506
v 0.109736 0.063356 0.038944
v 0.125538 -0.072480 0.073350
v -0.000000 -0.144959 0.073350
v -0.125538 0.072480 0.073350
v -0.000000 0.144959 0.073350
v -0.000000 -0.115545 0.089362
v 0.100065 -0.057773 0.089362
v -0.100065 -0.057773 0.089362
v -0.100065 0.057773 0.089362
v 0.100065 0.057773 0.089362
v -0.000000 0.115545 0.089362
v -0.125538 -0.072480 0.073350
v 0.125538 0.072480 0.073350
vn -0.0000 -0.0000 1.0000
vn -0.0000 -0.0000 -1.0000
vn -0.4437 0.7685 -0.4611
vn -0.8874 -0.0000 -0.4611
vn -0.4437 -0.7685 -0.4611
vn 0.4437 -0.7685 -0.4611
vn 0.4437 0.7685 -0.4611
vn 0.8874 -0.0000 -0.4611
vn 0.5000 -0.8660 -0.0000
vn -0.5000 0.8660 -0.0000
vn -0.4355 0.7544 0.4912
vn 0.8711 -0.0000 0.4912
vn 0.4355 0.7544 0.4912
vn -0.4355 -0.7544 0.4912
vn -1.0000 -0.0000 -0.0000
vn -0.5000 -0.8660 -0.0000
vn 0.4355 -0.7544 0.4912
vn -0.8711 -0.0000 0.4912
vn 0.5000 0.8660 -0.0000
vn 1.0000 -0.0000 -0.0000
vn -0.2683 0.4646 -0.8439
vn 0.2683 -0.4646 -0.8439
vn -0.5365 -0.0000 -0.8439
vn 0.5365 -0.0000 -0.8439
vn 0.2683 0.4646 -0.8439
vn -0.2683 -0.4646 -0.8439
vn -0.4544 0.7870 -0.4174
vn -0.9087 -0.0000 -0.4174
vn 0.9087 -0.0000 -0.4174
vn -0.4544 -0.7870 -0.4174
vn 0.4544 0.7870 -0.4174
vn 0.4544 -0.7870 -0.4174
vt 0.000000 0.000000
vt 1.757503 4.265108
vt 0.519180 0.435401
vt 0.000000 0.000000
vt 1.521777 -0.567196
vt 1.757503 4.265108
vt 0.519180 0.435401
vt 0.000000 0.000000
vt 1.521777 -0.567196
vt 0.000000 0.000000
vt 1.521777 -0.567196
vt 1.757503 4.265108
vt 0.519180 0.435401
vt 0.000000 0.000000
vt 1.757503 4.265108
vt 0.519180 0.435401
vt 1.521777 -0.567196
vt 0.000000 0.000000
vt 0.519180 0.435401
vt 1.757503 4.265108
vt 0.000000 0.000000
vt 1.521777 -0.567196
vt 0.000000 0.000000
vt 1.757503 4.265108
vt 0.519180 0.435401
vt 0.000000 0.000000
vt 0.519180 0.435401
vt 1.757503 4.265108
vt 1.521777 -0.567196
vt 0.000000 0.000000
vt 1.521777 -0.567196
vt 1.757503 4.265108
vt 0.519180 0.435401
vt 0.000000 0.000000
vt 1.521777 -0.567196
vt 1.757503 4.265108
vt 0.519180 0.435401
vt 0.000000 0.000000
vt 1.521777 -0.567196
vt 0.000000 0.000000
vt -5.364173 6.874071
vt 6.136614 10.079690
vt 0.000000 0.000000
vt -6.136614 10.079690
vt -5.364173 6.874071
vt 6.136614 10.079690
vt 0.000000 0.000000
vt -6.136614 10.079690
vt 6.136614 10.079690
vt -5.364173 6.874071
vt 0.000000 0.000000
vt -5.364173 6.874071
vt 6.136614 10.079690
vt -6.136614 10.079690
vt 0.000000 0.000000
vt -6.136614 10.079690
vt 0.000000 0.000000
vt -6.136614 10.079690
vt 6.136614 10.079690
vt -5.364173 6.874071
vt 0.000000 0.000000
vt -6.136614 10.079690
vt 0.000000 0.000000
vt -5.364173 6.874071
vt 6.136614 10.079690
vt -6.136614 10.079690
vt 0.000000 0.000000
vt 5.364173 6.874071
vt -5.364173 6.874071
vt 0.000000 0.000000
vt -5.364173 6.874071
vt 5.364173 6.874071
vt 0.000000 0.000000
vt 5.364173 6.874071
vt -5.364173 6.874071
vt 0.000000 0.000000
vt 6.136614 10.079690
vt -5.364173 6.874071
vt -6.136614 10.079690
vt 0.000000 0.000000
vt -6.136614 10.079690
vt 6.136614 10.079690
vt -5.364173 6.874071
vt 0.000000 0.000000
vt 5.364173 6.874071
vt -5.364173 6.874071
vt 0.000000 0.000000
vt 6.136614 10.079690
vt -5.364173 6.874071
vt -6.136614 10.079690
vt 0.000000 0.000000
vt -5.364173 6.874071
vt 5.364173 6.874071
vt 0.000000 0.000000
vt -5.364173 6.874071
vt 6.136614 10.079690
vt 0.000000 0.000000
vt 5.364173 6.874071
vt -5.364173 6.874071
vt 1.521777 -0.567196
vt -6.136614 10.079690
vt 6.136614 10.079690
vt 0.519180 0.435401
vt 1.757503 4.265108
vt 1.521777 -0.567196
vt 6.136614 10.079690
vt -6.136614 10.079690
vt 1.521777 -0.567196
vt 6.136614 10.079690
vt -6.136614 10.079690
vt 0.519180 0.435401
vt 1.757503 4.265108
vt 1.521777 -0.567196
vt -6.136614 10.079690
vt 6.136614 10.079690
vt 0.519180 0.435401
vt 1.757503 4.265108
vt 1.521777 -0.567196
vt 1.757503 4.265108
vt 0.519180 0.435401
vt 1.757503 4.265108
vt 1.521777 -0.567196
vt 0.519180 0.435401
vt 0.519180 0.435401
vt 1.757503 4.265108
vt 1.521777 -0.567196
vt 1.521777 -0.567196
vt 1.757503 4.265108
vt 1.521777 -0.567196
vt 0.519180 0.435401
vt 0.519180 0.435401
vt 1.757503 4.265108
vt 6.136614 10.079690
vt -6.136614 10.079690
vt 1.757503 4.265108
vt 0.519180 0.435401
vt 6.136614 10.079690
vt -6.136614 10.079690
s 0
usemtl _defaultMat.004
f 3/8/1 2/4/1 1/1/1
f 2/4/1 3/8/1 4/10/1
f 2/4/1 4/10/1 5/14/1
f 5/14/1 4/10/1 6/18/1
f 5/14/1 6/18/1 7/21/1
f 7/21/1 6/18/1 8/23/1
f 9/26/1 1/1/1 2/4/1
f 1/1/1 9/26/1 10/30/1
f 10/30/1 9/26/1 11/34/1
f 10/30/1 11/34/1 8/23/1
f 10/30/1 8/23/1 12/38/1
f 12/38/1 8/23/1 6/18/1
f 15/47/2 14/43/2 13/40/2
f 14/43/2 15/47/2 16/51/2
f 16/51/2 15/47/2 17/55/2
f 16/51/2 17/55/2 18/57/2
f 21/67/3 20/63/3 19/61/3
f 20/63/3 21/67/3 22/70/3
f 21/67/4 24/76/4 23/73/4
f 24/76/4 21/67/4 19/61/4
f 26/84/5 24/76/5 25/80/5
f 24/76/5 26/84/5 23/73/5
f 28/91/6 25/80/6 27/87/6
f 25/80/6 28/91/6 26/84/6
f 22/70/7 29/94/7 20/63/7
f 29/94/7 22/70/7 30/97/7
f 27/87/8 30/97/8 28/91/8
f 30/97/8 27/87/8 29/94/8
f 6/20/9 32/103/9 31/100/9
f 32/104/9 6/19/9 4/11/9
f 1/2/10 34/111/10 33/108/10
f 34/112/10 1/3/10 10/31/10
f 5/15/11 36/120/11 35/118/11
f 36/119/11 5/16/11 7/22/11
f 37/121/12 9/27/12 2/5/12
f 9/28/12 37/123/12 38/126/12
f 2/6/13 35/116/13 37/122/13
f 35/117/13 2/7/13 5/17/13
f 8/24/14 40/130/14 39/127/14
f 40/128/14 8/25/14 11/35/14
f 1/2/15 41/131/15 3/9/15
f 41/132/15 1/3/15 33/108/15
f 4/12/16 41/131/16 32/105/16
f 41/132/16 4/13/16 3/9/16
f 11/36/17 38/124/17 40/129/17
f 38/125/17 11/37/17 9/29/17
f 8/24/18 36/120/18 7/22/18
f 36/119/18 8/25/18 39/127/18
f 10/32/19 42/136/19 34/113/19
f 42/135/19 10/33/19 12/39/19
f 42/135/20 6/19/20 31/100/20
f 6/20/20 42/136/20 12/39/20
f 20/64/21 13/42/21 19/62/21
f 13/41/21 20/65/21 15/48/21
f 16/52/22 27/88/22 25/81/22
f 27/89/22 16/53/22 18/58/22
f 13/41/23 24/77/23 19/62/23
f 24/78/23 13/42/23 14/44/23
f 29/95/24 18/59/24 17/56/24
f 18/60/24 29/96/24 27/90/24
f 29/95/25 15/49/25 20/66/25
f 15/50/25 29/96/25 17/56/25
f 14/45/26 25/82/26 24/79/26
f 25/83/26 14/46/26 16/54/26
f 33/109/27 22/71/27 21/68/27
f 22/71/27 33/109/27 34/114/27
f 33/110/28 23/74/28 41/133/28
f 23/74/28 33/110/28 21/69/28
f 28/92/29 42/137/29 31/101/29
f 42/137/29 28/92/29 30/98/29
f 32/106/30 23/75/30 26/85/30
f 23/75/30 32/106/30 41/134/30
f 34/115/31 30/99/31 22/72/31
f 30/99/31 34/115/31 42/138/31
f 31/102/32 26/86/32 28/93/32
f 26/86/32 31/102/32 32/107/32
f 40/130/1 35/118/1 39/127/1
f 36/120/1 39/127/1 35/118/1
f 35/118/1 40/130/1 37/122/1
f 38/126/1 37/123/1 40/130/1
