# Blender 3.4.1
# www.blender.org
mtllib chiliBowlCollider.mtl
o bowlSoup
v -0.066849 0.038595 0.000000
v -0.066849 -0.038595 -0.000000
v 0.000000 0.077190 0.000000
v 0.000000 -0.077190 -0.000000
v 0.066849 0.038595 0.000000
v 0.066849 -0.038595 -0.000000
v -0.100675 0.058125 0.021506
v -0.000000 0.116250 0.021506
v -0.109736 0.063356 0.038944
v -0.000000 0.126713 0.038944
v -0.109736 -0.063356 0.038944
v -0.100675 -0.058125 0.021506
v -0.000000 -0.116250 0.021506
v -0.000000 -0.126713 0.038944
v 0.100675 -0.058125 0.021506
v 0.109736 -0.063356 0.038944
v 0.100675 0.058125 0.021506
v 0.109736 0.063356 0.038944
v 0.125538 -0.072480 0.073350
v -0.000000 -0.144959 0.073350
v -0.125538 0.072480 0.073350
v -0.000000 0.144959 0.073350
v -0.000000 -0.115545 0.089362
v 0.100065 -0.057773 0.089362
v -0.100065 -0.057773 0.089362
v -0.100065 0.057773 0.089362
v 0.100065 0.057773 0.089362
v -0.000000 0.115545 0.089362
v -0.125538 -0.072480 0.073350
v 0.125538 0.072480 0.073350
vn -0.0000 -0.0000 -1.0000
vn -0.4437 0.7685 -0.4611
vn -0.8874 -0.0000 -0.4611
vn -0.4437 -0.7685 -0.4611
vn 0.4437 -0.7685 -0.4611
vn 0.4437 0.7685 -0.4611
vn 0.8874 -0.0000 -0.4611
vn -0.2683 0.4646 -0.8439
vn 0.2683 -0.4646 -0.8439
vn -0.5365 -0.0000 -0.8439
vn 0.5365 -0.0000 -0.8439
vn 0.2683 0.4646 -0.8439
vn -0.2683 -0.4646 -0.8439
vn -0.4544 0.7870 -0.4174
vn -0.9087 -0.0000 -0.4174
vn 0.9087 -0.0000 -0.4174
vn -0.4544 -0.7870 -0.4174
vn 0.4544 0.7870 -0.4174
vn 0.4544 -0.7870 -0.4174
vn -0.0000 -0.0000 1.0000
vn 0.2661 0.4609 0.8466
vn -0.2661 0.4609 0.8466
vn -0.5322 -0.0000 0.8466
vn -0.2661 -0.4609 0.8466
vn 0.2661 -0.4609 0.8466
vn 0.5322 -0.0000 0.8466
vt 0.000000 0.000000
vt -5.364173 6.874071
vt 6.136614 10.079690
vt 0.000000 0.000000
vt -6.136614 10.079690
vt -5.364173 6.874071
vt 6.136614 10.079690
vt 0.000000 0.000000
vt -6.136614 10.079690
vt 6.136614 10.079690
vt -5.364173 6.874071
vt 0.000000 0.000000
vt -5.364173 6.874071
vt 6.136614 10.079690
vt -6.136614 10.079690
vt 0.000000 0.000000
vt -6.136614 10.079690
vt 0.000000 0.000000
vt -6.136614 10.079690
vt 6.136614 10.079690
vt -5.364173 6.874071
vt 0.000000 0.000000
vt -6.136614 10.079690
vt 0.000000 0.000000
vt -5.364173 6.874071
vt 6.136614 10.079690
vt -6.136614 10.079690
vt 0.000000 0.000000
vt 5.364173 6.874071
vt -5.364173 6.874071
vt 0.000000 0.000000
vt -5.364173 6.874071
vt 5.364173 6.874071
vt 0.000000 0.000000
vt 5.364173 6.874071
vt -5.364173 6.874071
vt 0.000000 0.000000
vt 6.136614 10.079690
vt -5.364173 6.874071
vt -6.136614 10.079690
vt 0.000000 0.000000
vt -6.136614 10.079690
vt 6.136614 10.079690
vt -5.364173 6.874071
vt 0.000000 0.000000
vt 5.364173 6.874071
vt -5.364173 6.874071
vt 0.000000 0.000000
vt 6.136614 10.079690
vt -5.364173 6.874071
vt -6.136614 10.079690
vt 0.000000 0.000000
vt -5.364173 6.874071
vt 5.364173 6.874071
vt 0.000000 0.000000
vt -5.364173 6.874071
vt 6.136614 10.079690
vt 0.000000 0.000000
vt 5.364173 6.874071
vt -5.364173 6.874071
vt -6.136614 10.079690
vt 6.136614 10.079690
vt -6.136614 10.079690
vt 6.136614 10.079690
vt -6.136614 10.079690
vt 6.136614 10.079690
vt -6.136614 10.079690
vt 6.136614 10.079690
vt 0.000000 0.000000
vt 1.521777 -0.567196
vt 0.519180 0.435401
vt 1.521777 -0.567196
vt 0.519180 0.435401
vt 1.521777 -0.567196
vt 1.521777 -0.567196
vt 0.519180 0.435401
vt -6.136614 10.079690
vt 6.136614 10.079690
vt -6.136614 10.079690
vt 6.136614 10.079690
s 0
usemtl _defaultMat.004
f 3/8/1 2/4/1 1/1/1
f 2/4/1 3/8/1 4/12/1
f 4/12/1 3/8/1 5/16/1
f 4/12/1 5/16/1 6/18/1
f 9/28/2 8/24/2 7/22/2
f 8/24/2 9/28/2 10/31/2
f 9/28/3 12/37/3 11/34/3
f 12/37/3 9/28/3 7/22/3
f 14/45/4 12/37/4 13/41/4
f 12/37/4 14/45/4 11/34/4
f 16/52/5 13/41/5 15/48/5
f 13/41/5 16/52/5 14/45/5
f 10/31/6 17/55/6 8/24/6
f 17/55/6 10/31/6 18/58/6
f 15/48/7 18/58/7 16/52/7
f 18/58/7 15/48/7 17/55/7
f 8/25/8 1/3/8 7/23/8
f 1/2/8 8/26/8 3/9/8
f 4/13/9 15/49/9 13/42/9
f 15/50/9 4/14/9 6/19/9
f 1/2/10 12/38/10 7/23/10
f 12/39/10 1/3/10 2/5/10
f 17/56/11 6/20/11 5/17/11
f 6/21/11 17/57/11 15/51/11
f 17/56/12 3/10/12 8/27/12
f 3/11/12 17/57/12 5/17/12
f 2/6/13 13/43/13 12/40/13
f 13/44/13 2/7/13 4/15/13
f 21/66/14 10/32/14 9/29/14
f 10/32/14 21/66/14 22/67/14
f 21/65/15 11/35/15 29/78/15
f 11/35/15 21/65/15 9/30/15
f 16/53/16 30/80/16 19/61/16
f 30/80/16 16/53/16 18/59/16
f 20/64/17 11/36/17 14/46/17
f 11/36/17 20/64/17 29/77/17
f 22/68/18 18/60/18 10/33/18
f 18/60/18 22/68/18 30/79/18
f 19/62/19 14/47/19 16/54/19
f 14/47/19 19/62/19 20/63/19
f 28/76/20 23/70/20 27/75/20
f 24/71/20 27/75/20 23/70/20
f 23/70/20 28/76/20 25/72/20
f 26/74/20 25/73/20 28/76/20
f 28/76/21 27/75/21 22/69/21
f 22/69/21 27/75/21 30/79/21
f 22/69/22 21/66/22 28/76/22
f 28/76/22 21/66/22 26/74/22
f 21/66/23 29/78/23 26/74/23
f 26/74/23 29/78/23 25/73/23
f 29/78/24 20/64/24 25/73/24
f 25/73/24 20/64/24 23/70/24
f 20/64/25 19/62/25 23/70/25
f 23/70/25 19/62/25 24/71/25
f 19/62/26 30/80/26 24/71/26
f 24/71/26 30/80/26 27/75/26
o bowlSoup.002
v -0.125538 0.072480 0.106912
v -0.109962 -0.063486 0.106912
v -0.125538 -0.072480 0.106912
v -0.109962 0.063486 0.106912
v -0.125538 0.072480 0.073350
v -0.100065 -0.057773 0.089362
v -0.100065 0.057773 0.089362
v -0.125538 -0.072480 0.073350
vn -0.0000 -0.0000 1.0000
vn 0.8711 -0.0000 0.4912
vn -1.0000 -0.0000 -0.0000
vn 0.5000 -0.8660 -0.0000
vn 0.5000 0.8660 -0.0000
vn 0.5322 -0.0000 -0.8466
vt 0.000000 0.000000
vt 1.757503 4.265108
vt 0.519180 0.435401
vt 1.521777 -0.567196
vt 0.000000 0.000000
vt 0.000000 0.000000
vt 1.521777 -0.567196
vt 0.519180 0.435401
vt 1.757503 4.265108
vt 0.000000 0.000000
vt 1.521777 -0.567196
vt 0.519180 0.435401
vt 1.757503 4.265108
vt 1.521777 -0.567196
vt 1.757503 4.265108
vt 0.519180 0.435401
s 0
usemtl _defaultMat.004
f 33/86/27 32/85/27 31/81/27
f 34/90/27 31/81/27 32/85/27
f 36/93/28 34/88/28 32/84/28
f 34/89/28 36/92/28 37/94/28
f 31/82/29 38/96/29 33/87/29
f 38/95/29 31/83/29 35/91/29
f 33/87/30 38/96/30 32/85/30
f 36/93/30 32/85/30 38/96/30
f 34/90/31 35/91/31 31/83/31
f 37/94/31 35/91/31 34/90/31
f 37/94/32 36/93/32 38/96/32
f 35/91/32 37/94/32 38/96/32
o bowlSoup.003
v -0.109962 -0.063486 0.106912
v -0.125538 -0.072480 0.106912
v -0.000000 -0.144959 0.106912
v -0.000000 -0.126973 0.106912
v -0.000000 -0.144959 0.073350
v -0.000000 -0.115545 0.089362
v -0.100065 -0.057773 0.089362
v -0.125538 -0.072480 0.073350
vn -0.0000 -0.0000 1.0000
vn 0.4355 0.7544 0.4912
vn -0.5000 -0.8660 -0.0000
vn 1.0000 -0.0000 -0.0000
vn -0.5000 0.8660 -0.0000
vn 0.2661 0.4609 -0.8466
vt 0.000000 0.000000
vt 0.519180 0.435401
vt 1.757503 4.265108
vt 1.521777 -0.567196
vt 0.000000 0.000000
vt 0.000000 0.000000
vt 0.519180 0.435401
vt 1.757503 4.265108
vt 1.521777 -0.567196
vt 0.000000 0.000000
vt 1.521777 -0.567196
vt 0.519180 0.435401
vt 1.757503 4.265108
vt 1.521777 -0.567196
vt 0.519180 0.435401
vt 1.757503 4.265108
s 0
usemtl _defaultMat.004
f 39/97/33 40/101/33 41/102/33
f 39/97/33 41/102/33 42/106/33
f 39/99/34 44/108/34 45/110/34
f 44/109/34 39/98/34 42/105/34
f 41/104/35 46/111/35 43/107/35
f 46/112/35 41/103/35 40/100/35
f 42/106/36 41/104/36 43/107/36
f 44/109/36 42/106/36 43/107/36
f 40/101/37 39/99/37 45/110/37
f 46/112/37 40/101/37 45/110/37
f 45/110/38 44/109/38 43/107/38
f 43/107/38 46/112/38 45/110/38
o bowlSoup.004
v -0.000000 -0.144959 0.106912
v -0.000000 -0.126973 0.106912
v 0.125538 -0.072480 0.106912
v 0.109962 -0.063486 0.106912
v 0.125538 -0.072480 0.073350
v -0.000000 -0.144959 0.073350
v -0.000000 -0.115545 0.089362
v 0.100065 -0.057773 0.089362
vn -0.0000 -0.0000 1.0000
vn 0.5000 -0.8660 -0.0000
vn -0.4355 0.7544 0.4912
vn 0.5000 0.8660 -0.0000
vn -1.0000 -0.0000 -0.0000
vn -0.2661 0.4609 -0.8466
vt 0.000000 0.000000
vt 1.521777 -0.567196
vt 1.757503 4.265108
vt 0.519180 0.435401
vt 0.000000 0.000000
vt 0.000000 0.000000
vt 0.519180 0.435401
vt 1.757503 4.265108
vt 1.521777 -0.567196
vt 0.000000 0.000000
vt 1.521777 -0.567196
vt 0.519180 0.435401
vt 1.757503 4.265108
vt 1.521777 -0.567196
vt 0.519180 0.435401
vt 1.757503 4.265108
s 0
usemtl _defaultMat.004
f 48/117/39 47/113/39 49/118/39
f 48/117/39 49/118/39 50/122/39
f 49/120/40 52/124/40 51/123/40
f 52/125/40 49/119/40 47/114/40
f 48/115/41 54/127/41 53/126/41
f 54/128/41 48/116/41 50/121/41
f 50/122/42 49/120/42 51/123/42
f 54/128/42 50/122/42 51/123/42
f 48/117/43 52/125/43 47/114/43
f 53/126/43 52/125/43 48/117/43
f 54/128/44 51/123/44 53/126/44
f 51/123/44 52/125/44 53/126/44
o bowlSoup.005
v 0.125538 -0.072480 0.106912
v 0.109962 -0.063486 0.106912
v 0.109962 0.063486 0.106912
v 0.125538 0.072480 0.106912
v 0.125538 -0.072480 0.073350
v 0.100065 -0.057773 0.089362
v 0.100065 0.057773 0.089362
v 0.125538 0.072480 0.073350
vn -0.0000 -0.0000 1.0000
vn -0.8711 -0.0000 0.4912
vn 1.0000 -0.0000 -0.0000
vn -0.5000 0.8660 -0.0000
vn -0.5000 -0.8660 -0.0000
vn -0.5322 -0.0000 -0.8466
vt 0.000000 0.000000
vt 1.757503 4.265108
vt 0.519180 0.435401
vt 1.521777 -0.567196
vt 0.000000 0.000000
vt 1.757503 4.265108
vt 0.519180 0.435401
vt 0.000000 0.000000
vt 0.000000 0.000000
vt 1.521777 -0.567196
vt 1.521777 -0.567196
vt 1.757503 4.265108
vt 0.519180 0.435401
vt 1.521777 -0.567196
vt 1.757503 4.265108
vt 0.519180 0.435401
s 0
usemtl _defaultMat.004
f 56/133/45 55/129/45 57/136/45
f 58/137/45 57/136/45 55/129/45
f 57/134/46 60/141/46 56/132/46
f 60/140/46 57/135/46 61/142/46
f 62/143/47 55/131/47 59/139/47
f 55/130/47 62/144/47 58/138/47
f 58/138/48 62/144/48 57/136/48
f 61/142/48 57/136/48 62/144/48
f 56/133/49 59/139/49 55/131/49
f 60/141/49 59/139/49 56/133/49
f 61/142/50 62/144/50 60/140/50
f 59/139/50 60/141/50 62/144/50
o bowlSoup.006
v 0.109962 0.063486 0.106912
v -0.000000 0.144959 0.106912
v -0.000000 0.126973 0.106912
v 0.125538 0.072480 0.106912
v -0.000000 0.144959 0.073350
v 0.100065 0.057773 0.089362
v -0.000000 0.115545 0.089362
v 0.125538 0.072480 0.073350
vn -0.0000 -0.0000 1.0000
vn -0.4355 -0.7544 0.4912
vn 0.5000 0.8660 -0.0000
vn -1.0000 -0.0000 -0.0000
vn 0.5000 -0.8660 -0.0000
vn -0.2661 -0.4609 -0.8466
vt 0.000000 0.000000
vt 0.519180 0.435401
vt 1.757503 4.265108
vt 0.000000 0.000000
vt 0.519180 0.435401
vt 1.757503 4.265108
vt 1.521777 -0.567196
vt 0.000000 0.000000
vt 0.000000 0.000000
vt 1.521777 -0.567196
vt 1.521777 -0.567196
vt 1.521777 -0.567196
vt 0.519180 0.435401
vt 1.757503 4.265108
vt 0.519180 0.435401
vt 1.757503 4.265108
vt 0.000000 0.000000
s 0
usemtl _defaultMat.004
f 64/148/51 65/152/51 63/145/51
f 64/148/51 63/145/51 66/153/51
f 63/147/52 69/157/52 68/156/52
f 69/158/52 63/146/52 65/151/52
f 64/150/53 70/159/53 67/155/53
f 70/160/53 64/149/53 66/154/53
f 65/152/54 64/150/54 67/155/54
f 69/158/54 65/152/54 67/155/54
f 68/156/55 70/161/55 63/147/55
f 63/147/55 70/161/55 66/154/55
f 69/158/56 67/155/56 68/156/56
f 67/155/56 70/161/56 68/156/56
o bowlSoup.007
v -0.125538 0.072480 0.106912
v -0.109962 0.063486 0.106912
v -0.000000 0.144959 0.106912
v -0.000000 0.126973 0.106912
v -0.125538 0.072480 0.073350
v -0.000000 0.144959 0.073350
v -0.100065 0.057773 0.089362
v -0.000000 0.115545 0.089362
vn -0.0000 -0.0000 1.0000
vn -0.5000 0.8660 -0.0000
vn 0.4355 -0.7544 0.4912
vn -0.5000 -0.8660 -0.0000
vn 1.0000 -0.0000 -0.0000
vn 0.2661 -0.4609 -0.8466
vt 0.000000 0.000000
vt 0.519180 0.435401
vt 1.757503 4.265108
vt 1.521777 -0.567196
vt 0.000000 0.000000
vt 0.000000 0.000000
vt 1.521777 -0.567196
vt 1.757503 4.265108
vt 0.519180 0.435401
vt 0.000000 0.000000
vt 1.521777 -0.567196
vt 0.519180 0.435401
vt 1.757503 4.265108
vt 0.519180 0.435401
vt 1.757503 4.265108
vt 1.521777 -0.567196
s 0
usemtl _defaultMat.004
f 71/162/57 72/166/57 73/167/57
f 73/167/57 72/166/57 74/171/57
f 71/164/58 76/173/58 75/172/58
f 76/174/58 71/163/58 73/168/58
f 74/169/59 77/175/59 78/177/59
f 77/176/59 74/170/59 72/165/59
f 72/166/60 71/164/60 75/172/60
f 77/176/60 72/166/60 75/172/60
f 74/171/61 76/174/61 73/168/61
f 78/177/61 76/174/61 74/171/61
f 78/177/62 77/176/62 75/172/62
f 75/172/62 76/174/62 78/177/62
