# Blender 3.4.1
# www.blender.org
mtllib coffeeCup.mtl
o cupTea
v -0.102839 0.140000 0.000000
v -0.051419 0.140000 -0.089061
v -0.093583 0.110000 0.000000
v -0.046792 0.110000 -0.081045
v -0.062438 0.140000 0.108145
v -0.056250 0.060000 0.097428
v -0.124875 0.140000 0.000000
v -0.115539 0.117864 0.010240
v -0.122294 0.123315 0.000000
v -0.110828 0.087412 0.010240
v -0.112500 0.060000 0.000000
v -0.117583 0.092863 0.000000
v -0.062438 0.140000 -0.108145
v -0.115539 0.117864 -0.010240
v -0.110828 0.087412 -0.010240
v -0.056250 0.060000 -0.097428
v -0.045000 0.000000 0.077942
v -0.096190 0.032273 0.010240
v -0.101355 0.030280 0.000000
v -0.088907 0.012852 0.010240
v -0.090000 0.000000 0.000000
v -0.094072 0.010859 0.000000
v 0.093583 0.110000 -0.000000
v 0.046792 0.110000 -0.081045
v 0.102839 0.140000 -0.000000
v 0.051419 0.140000 -0.089061
v -0.046792 0.110000 0.081045
v 0.046792 0.110000 0.081045
v -0.051419 0.140000 0.089061
v 0.051419 0.140000 0.089061
v -0.096190 0.032273 -0.010240
v -0.088907 0.012852 -0.010240
v -0.045000 0.000000 -0.077942
v 0.045000 0.000000 -0.077942
v 0.056250 0.060000 -0.097428
v 0.062438 0.140000 0.108145
v 0.124875 0.140000 -0.000000
v 0.062438 0.140000 -0.108145
v 0.045000 0.000000 0.077942
v 0.056250 0.060000 0.097428
v 0.090000 0.000000 0.000000
v 0.112500 0.060000 -0.000000
v -0.155700 0.015239 -0.010240
v -0.128386 0.019850 -0.010240
v -0.179309 0.034289 -0.010240
v -0.142675 0.031380 -0.010240
v -0.166284 0.050430 -0.010240
v -0.195048 0.046989 -0.010240
v -0.170940 0.054187 -0.010240
v -0.177792 0.100580 -0.010240
v -0.160496 0.086624 -0.010240
v -0.130999 0.103688 -0.010240
v -0.129057 0.128772 -0.010240
v -0.126342 0.099931 -0.010240
v -0.132091 -0.003811 -0.010240
v -0.177792 0.100580 0.010240
v -0.129057 0.128772 0.010240
v -0.195048 0.046989 0.010240
v -0.179309 0.034289 0.010240
v -0.155700 0.015239 0.010240
v -0.132091 -0.003811 0.010240
v -0.128386 0.019850 0.010240
v -0.126342 0.099931 0.010240
v -0.130999 0.103688 0.010240
v -0.142675 0.031380 0.010240
v -0.166284 0.050430 0.010240
v -0.170940 0.054187 0.010240
v -0.160496 0.086624 0.010240
vn 0.8367 0.2581 0.4831
vn -0.8584 -0.1328 0.4956
vn -0.8584 -0.1328 -0.4956
vn -0.8237 -0.3089 0.4756
vn -0.8237 -0.3089 0.4755
vn -0.8367 0.2581 0.4831
vn -0.0000 0.2581 0.9661
vn -0.0000 0.2581 -0.9661
vn -0.8237 -0.3089 -0.4756
vn -0.8237 -0.3089 -0.4755
vn -0.0000 -0.3089 -0.9511
vn -0.0000 1.0000 -0.0000
vn -0.0000 -0.3089 0.9511
vn 0.8237 -0.3089 -0.4756
vn 0.8237 -0.3089 0.4756
vn -0.0000 -0.1328 0.9911
vn 0.8584 -0.1328 0.4956
vn -0.0000 -0.0000 -1.0000
vn -0.5007 0.8656 -0.0000
vn 0.6280 0.7782 -0.0000
vn -0.9519 0.3065 -0.0000
vn -0.6280 -0.7782 -0.0000
vn 0.3600 -0.9330 -0.0000
vn -0.0000 -0.0000 1.0000
vn -0.0000 -0.1328 -0.9911
vn -0.3600 0.9330 -0.0000
vn 0.5007 -0.8656 -0.0000
vn 0.9519 -0.3065 -0.0000
vn -0.8367 0.2581 -0.4831
vn 0.8584 -0.1328 -0.4956
vn 0.8367 0.2581 -0.4831
vn -0.0000 -1.0000 -0.0000
vt 0.000000 0.000000
vt 1.842188 -3.190763
vt 1.842188 3.190763
vt 0.000000 0.000000
vt 0.000000 0.000000
vt 3.684376 0.000000
vt 0.000000 0.000000
vt 0.000000 0.000000
vt 3.684376 0.000000
vt 0.000000 0.000000
vt 1.842188 -3.190763
vt 1.842188 3.190763
vt 0.000000 0.000000
vt 0.000000 0.000000
vt 1.842188 3.190763
vt 1.842188 -3.190763
vt 3.684376 0.000000
vt 0.000000 0.000000
vt 1.842188 -3.190763
vt 3.684376 0.000000
vt 0.000000 0.000000
vt 3.684376 0.000000
vt 1.842188 3.190763
vt 0.000000 0.000000
vt 0.000000 0.000000
vt 3.684376 0.000000
vt 0.000000 0.000000
vt 1.842188 3.190763
vt 1.842188 -3.190763
vt 0.000000 0.000000
vt 3.684376 0.000000
vt 1.842188 -3.190763
vt 1.842188 3.190763
vt 0.000000 0.000000
vt 3.684376 0.000000
vt 1.842188 -3.190763
vt 0.000000 0.000000
vt 3.684376 0.000000
vt 0.000000 0.000000
vt 1.842188 -3.190763
vt 1.842188 3.190763
vt 0.000000 0.000000
vt 3.684376 0.000000
vt 1.842188 3.190763
vt 0.000000 0.000000
vt 1.842188 -3.190763
vt 3.684376 0.000000
vt 0.000000 0.000000
vt 1.842188 3.190763
vt 1.842188 -3.190763
vt 0.000000 0.000000
vt 3.684376 0.000000
vt 0.000000 0.000000
vt 3.684376 0.000000
vt 3.684376 0.000000
vt 0.000000 0.000000
vt 0.000000 0.000000
vt 0.000000 0.000000
vt 1.842188 3.190763
vt 1.842188 -3.190763
vt 0.000000 0.000000
vt 1.842188 3.190763
vt 1.842188 -3.190763
vt 0.000000 0.000000
vt 1.842188 -3.190763
vt 1.842188 3.190763
vt 0.000000 0.000000
vt 0.000000 0.000000
vt 3.684376 0.000000
vt 0.000000 0.000000
vt 3.684376 0.000000
vt 0.000000 0.000000
vt 3.684376 0.000000
vt 1.842188 -3.190763
vt 1.842188 3.190763
vt 0.000000 0.000000
vt 1.842188 3.190763
vt 1.842188 -3.190763
vt 0.000000 0.000000
vt 1.842188 3.190763
vt 1.842188 -3.190763
vt 0.000000 0.000000
vt 3.684376 0.000000
vt 1.842188 -3.190763
vt 0.000000 0.000000
vt 1.842188 3.190763
vt 1.842188 -3.190763
vt 0.000000 0.000000
vt 1.842188 3.190763
vt 1.842188 -3.190763
vt 3.684376 0.000000
vt 0.000000 0.000000
vt 1.842188 -3.190763
vt 1.842188 3.190763
vt 0.000000 0.000000
vt 3.684376 0.000000
vt 0.000000 0.000000
vt 3.684376 0.000000
vt 1.842188 3.190763
vt 0.000000 0.000000
vt 3.684376 0.000000
vt 1.842188 3.190763
vt 1.842188 -3.190763
vt 0.000000 0.000000
vt 3.684376 0.000000
vt 0.000000 0.000000
vt 3.684376 0.000000
vt 1.842188 3.190763
vt 3.684376 0.000000
vt 1.842188 -3.190763
vt 3.684376 0.000000
vt 1.842188 -3.190763
vt 1.842188 3.190763
vt 1.842188 3.190763
vt 1.842188 -3.190763
vt 1.842188 3.190763
vt 3.684376 0.000000
vt 3.684376 0.000000
vt 1.842188 -3.190763
vt 1.842188 3.190763
vt 1.842188 -3.190763
vt 1.842188 3.190763
vt 3.684376 0.000000
vt 3.684376 0.000000
vt 1.842188 3.190763
vt 1.842188 -3.190763
vt 1.842188 -3.190763
vt 3.684376 0.000000
vt 1.842188 3.190763
vt 3.684376 0.000000
vt 1.842188 3.190763
vt 1.842188 -3.190763
vt 3.684376 0.000000
vt 1.842188 -3.190763
vt 1.842188 3.190763
vt 3.684376 0.000000
vt 1.842188 3.190763
vt 1.842188 -3.190763
vt 1.842188 -3.190763
vt 3.684376 0.000000
vt 1.842188 -3.190763
vt 3.684376 0.000000
vt 1.842188 3.190763
vt 1.842188 -3.190763
vt 3.684376 0.000000
vt 1.842188 3.190763
vt 1.842188 -3.190763
vt 3.684376 0.000000
vt 1.842188 3.190763
vt 3.684376 0.000000
vt 1.842188 -3.190763
vt 1.842188 3.190763
vt 1.842188 -3.190763
vt 1.842188 3.190763
vt 3.684376 0.000000
vt 1.842188 3.190763
vt 1.842188 -3.190763
vt 3.684376 0.000000
vt 1.842188 3.190763
vt 1.842188 -3.190763
vt 3.684376 0.000000
vt 3.684376 0.000000
vt 1.842188 3.190763
vt 1.842188 -3.190763
vt 3.684376 0.000000
vt 1.842188 -3.190763
vt 1.842188 3.190763
vt 3.684376 0.000000
vt 1.842188 3.190763
vt 1.842188 -3.190763
vt 3.684376 0.000000
vt 1.842188 -3.190763
vt 1.842188 3.190763
vt 1.842188 -3.190763
vt 3.684376 0.000000
vt 3.684376 0.000000
vt 1.842188 -3.190763
vt 1.842188 3.190763
s 0
usemtl _defaultMat
f 3/5/1 2/4/1 1/1/1
f 2/4/1 3/5/1 4/7/1
f 7/13/2 6/10/2 5/8/2
f 6/10/2 7/13/2 8/14/2
f 8/14/2 7/13/2 9/18/2
f 10/21/2 6/10/2 8/14/2
f 6/10/2 10/21/2 11/24/2
f 11/24/2 10/21/2 12/25/2
f 13/27/3 9/18/3 7/13/3
f 9/18/3 13/27/3 14/30/3
f 14/30/3 13/27/3 15/34/3
f 15/34/3 13/27/3 16/37/3
f 11/24/3 15/34/3 16/37/3
f 15/34/3 11/24/3 12/25/3
f 11/24/4 17/39/4 6/10/4
f 17/39/4 11/24/4 18/42/4
f 18/42/5 11/24/5 19/45/5
f 20/48/4 17/39/4 18/42/4
f 17/39/4 20/48/4 21/51/4
f 21/51/4 20/48/4 22/53/4
f 25/58/6 24/57/6 23/56/6
f 24/57/6 25/58/6 26/61/6
f 26/61/7 4/7/7 24/57/7
f 4/7/7 26/61/7 2/4/7
f 29/68/8 28/67/8 27/64/8
f 28/67/8 29/68/8 30/70/8
f 16/37/9 19/45/9 11/24/9
f 19/45/10 16/37/10 31/72/10
f 31/72/9 16/37/9 32/76/9
f 32/76/9 16/37/9 33/79/9
f 21/51/9 32/76/9 33/79/9
f 32/76/9 21/51/9 22/53/9
f 16/37/11 34/82/11 33/79/11
f 34/82/11 16/37/11 35/85/11
f 5/8/12 1/1/12 7/13/12
f 1/1/12 5/8/12 29/68/12
f 29/68/12 5/8/12 36/88/12
f 29/68/12 36/88/12 30/70/12
f 30/70/12 36/88/12 25/58/12
f 25/58/12 36/88/12 37/92/12
f 1/1/12 13/27/12 7/13/12
f 13/27/12 1/1/12 2/4/12
f 13/27/12 2/4/12 38/95/12
f 38/95/12 25/58/12 37/92/12
f 38/95/12 2/4/12 26/61/12
f 38/95/12 26/61/12 25/58/12
f 40/100/13 17/39/13 39/97/13
f 17/39/13 40/100/13 6/10/13
f 34/82/14 42/106/14 41/104/14
f 42/106/14 34/82/14 35/85/14
f 39/97/15 42/106/15 40/100/15
f 42/106/15 39/97/15 41/104/15
f 36/89/16 6/11/16 40/101/16
f 6/12/16 36/90/16 5/9/16
f 40/102/17 37/93/17 36/91/17
f 37/94/17 40/103/17 42/107/17
f 45/114/18 44/112/18 43/109/18
f 44/113/18 45/115/18 46/117/18
f 46/116/18 45/115/18 47/118/18
f 47/120/18 45/115/18 48/123/18
f 47/120/18 48/121/18 49/124/18
f 49/125/18 48/121/18 50/128/18
f 49/125/18 50/127/18 51/130/18
f 51/129/18 50/127/18 52/133/18
f 52/131/18 50/127/18 53/136/18
f 52/131/18 53/134/18 14/31/18
f 54/137/18 14/32/18 15/35/18
f 14/33/18 54/138/18 52/133/18
f 43/108/18 32/78/18 55/140/18
f 32/77/18 43/110/18 44/111/18
f 32/77/18 44/112/18 31/73/18
f 56/143/19 53/134/19 50/128/19
f 53/135/19 56/141/19 57/145/19
f 8/15/20 9/19/20 57/145/20
f 57/146/20 14/32/20 53/136/20
f 14/33/20 57/144/20 9/20/20
f 56/143/21 48/121/21 58/148/21
f 48/122/21 56/141/21 50/128/21
f 45/114/22 58/147/22 48/123/22
f 58/149/22 45/115/22 59/150/22
f 59/152/22 45/115/22 43/109/22
f 59/152/22 43/110/22 60/155/22
f 60/154/22 43/110/22 55/140/22
f 60/154/22 55/139/22 61/158/22
f 32/77/23 61/157/23 55/140/23
f 61/156/23 32/78/23 22/54/23
f 20/49/23 61/157/23 22/54/23
f 20/49/24 60/153/24 61/158/24
f 60/154/24 20/50/24 62/161/24
f 62/159/24 20/50/24 18/43/24
f 8/15/24 63/164/24 10/22/24
f 63/163/24 8/16/24 64/165/24
f 62/159/24 59/151/24 60/155/24
f 59/152/24 62/160/24 65/168/24
f 59/152/24 65/170/24 66/171/24
f 59/152/24 66/172/24 58/148/24
f 58/149/24 66/172/24 67/175/24
f 58/149/24 67/174/24 56/142/24
f 56/143/24 67/174/24 68/176/24
f 56/143/24 68/177/24 64/165/24
f 56/143/24 64/166/24 57/145/24
f 57/146/24 64/166/24 8/17/24
f 13/28/25 35/87/25 16/38/25
f 35/86/25 13/29/25 38/96/25
f 18/44/26 19/46/26 62/161/26
f 62/159/26 31/74/26 44/111/26
f 31/75/26 62/160/26 19/47/26
f 67/173/20 47/119/20 49/124/20
f 47/120/20 67/174/20 66/171/20
f 47/120/20 66/172/20 46/117/20
f 46/116/20 66/172/20 65/168/20
f 52/131/27 68/177/27 51/130/27
f 68/178/27 52/132/27 64/165/27
f 54/137/22 64/166/22 52/133/22
f 64/167/22 54/138/22 63/162/22
f 63/163/22 54/138/22 15/35/22
f 63/163/22 15/36/22 12/26/22
f 10/23/22 63/164/22 12/26/22
f 49/125/28 68/177/28 67/175/28
f 68/178/28 49/126/28 51/130/28
f 25/59/29 28/65/29 30/71/29
f 28/66/29 25/60/29 23/55/29
f 65/169/20 44/112/20 46/117/20
f 44/113/20 65/170/20 62/161/20
f 35/86/30 37/93/30 42/107/30
f 37/94/30 35/87/30 38/96/30
f 27/62/31 1/2/31 29/69/31
f 1/3/31 27/63/31 3/6/31
f 33/80/32 17/40/32 21/52/32
f 17/41/32 33/81/32 34/83/32
f 17/41/32 34/84/32 39/98/32
f 39/99/32 34/84/32 41/105/32
f 27/63/12 4/7/12 3/6/12
f 28/67/12 23/56/12 24/57/12
f 4/7/12 27/64/12 28/67/12
f 4/7/12 28/67/12 24/57/12
