# Blender 3.4.1
# www.blender.org
mtllib coffeeCupCollider.mtl
o cupTea
v -0.093583 0.110000 0.000000
v -0.046792 0.110000 -0.081045
v -0.045000 0.000000 0.077942
v -0.090000 0.000000 0.000000
v 0.093583 0.110000 0.000000
v 0.046792 0.110000 -0.081045
v -0.046792 0.110000 0.081045
v 0.046792 0.110000 0.081045
v -0.045000 0.000000 -0.077942
v 0.045000 0.000000 -0.077942
v 0.045000 0.000000 0.077942
v 0.090000 0.000000 0.000000
vn -0.8657 -0.0282 -0.4998
vn -0.8657 -0.0282 0.4998
vn -0.0000 -0.0282 0.9996
vn 0.8657 -0.0282 -0.4998
vn -0.0000 -0.0282 -0.9996
vn 0.8657 -0.0282 0.4998
vn -0.0000 -1.0000 -0.0000
vn -0.0000 1.0000 -0.0000
vt 3.684376 0.000000
vt 0.000000 0.000000
vt 1.842188 -3.190763
vt 1.842188 3.190763
vt 3.684376 0.000000
vt 0.000000 0.000000
vt 0.000000 0.000000
vt 1.842188 -3.190763
vt 0.000000 0.000000
vt 0.000000 0.000000
vt 1.842188 3.190763
vt 1.842188 -3.190763
vt 3.684376 0.000000
vt 1.842188 -3.190763
vt 3.684376 0.000000
vt 1.842188 3.190763
vt 3.684376 0.000000
s 0
usemtl _defaultMat.001
f 2/2/1 9/11/1 1/1/1
f 4/5/1 1/1/1 9/11/1
f 7/9/2 1/1/2 4/5/2
f 3/4/2 7/9/2 4/5/2
f 8/10/3 7/9/3 3/4/3
f 11/16/3 8/10/3 3/4/3
f 12/17/4 6/7/4 5/6/4
f 12/17/4 10/14/4 6/7/4
f 6/7/5 10/13/5 2/2/5
f 9/11/5 2/2/5 10/13/5
f 5/6/6 8/10/6 11/16/6
f 5/6/6 11/16/6 12/17/6
f 9/11/7 3/3/7 4/5/7
f 3/4/7 9/12/7 10/13/7
f 3/4/7 10/14/7 11/15/7
f 11/16/7 10/14/7 12/17/7
f 7/8/8 2/2/8 1/1/8
f 8/10/8 5/6/8 6/7/8
f 2/2/8 7/9/8 8/10/8
f 2/2/8 8/10/8 6/7/8
o cupTea.001
v -0.115539 0.117864 0.010240
v -0.122294 0.123315 0.000000
v -0.110828 0.087412 0.010240
v -0.115539 0.117864 -0.010240
v -0.110828 0.087412 -0.010240
v -0.096190 0.032273 0.010240
v -0.088907 0.012852 0.010240
v -0.090000 0.000000 0.000000
v -0.096190 0.032273 -0.010240
v -0.088907 0.012852 -0.010240
v -0.155700 0.015239 -0.010240
v -0.128386 0.019850 -0.010240
v -0.179309 0.034289 -0.010240
v -0.142675 0.031380 -0.010240
v -0.166284 0.050430 -0.010240
v -0.195048 0.046989 -0.010240
v -0.170940 0.054187 -0.010240
v -0.177792 0.100580 -0.010240
v -0.160496 0.086624 -0.010240
v -0.130999 0.103688 -0.010240
v -0.129057 0.128772 -0.010240
v -0.126342 0.099931 -0.010240
v -0.132091 -0.003811 -0.010240
v -0.177792 0.100580 0.010240
v -0.129057 0.128772 0.010240
v -0.195048 0.046989 0.010240
v -0.179309 0.034289 0.010240
v -0.155700 0.015239 0.010240
v -0.132091 -0.003811 0.010240
v -0.128386 0.019850 0.010240
v -0.126342 0.099931 0.010240
v -0.130999 0.103688 0.010240
v -0.142675 0.031380 0.010240
v -0.166284 0.050430 0.010240
v -0.170940 0.054187 0.010240
v -0.160496 0.086624 0.010240
vn -0.0000 -0.0000 -1.0000
vn -0.5007 0.8656 -0.0000
vn 0.6280 0.7782 -0.0000
vn -0.9519 0.3065 -0.0000
vn -0.6280 -0.7782 -0.0000
vn 0.9693 0.2458 -0.0000
vn -0.9964 0.0847 -0.0000
vn -0.0000 -0.0000 1.0000
vn -0.2383 0.6175 -0.7496
vn -0.0902 0.9959 -0.0000
vn -0.2383 0.6175 0.7496
vt 1.842188 -3.190763
vt 3.684376 0.000000
vt 1.842188 3.190763
vt 1.842188 -3.190763
vt 3.684376 0.000000
vt 3.684376 0.000000
vt 1.842188 3.190763
vt 1.842188 -3.190763
vt 0.000000 0.000000
vt 3.684376 0.000000
vt 3.684376 0.000000
vt 1.842188 -3.190763
vt 1.842188 3.190763
vt 0.000000 0.000000
vt 3.684376 0.000000
vt 1.842188 -3.190763
vt 1.842188 3.190763
vt 0.000000 0.000000
vt 1.842188 3.190763
vt 3.684376 0.000000
vt 1.842188 -3.190763
vt 3.684376 0.000000
vt 1.842188 -3.190763
vt 1.842188 3.190763
vt 1.842188 3.190763
vt 1.842188 -3.190763
vt 3.684376 0.000000
vt 1.842188 3.190763
vt 3.684376 0.000000
vt 1.842188 3.190763
vt 1.842188 -3.190763
vt 1.842188 3.190763
vt 3.684376 0.000000
vt 3.684376 0.000000
vt 1.842188 3.190763
vt 1.842188 -3.190763
vt 3.684376 0.000000
vt 3.684376 0.000000
vt 1.842188 3.190763
vt 1.842188 3.190763
vt 3.684376 0.000000
vt 1.842188 -3.190763
vt 1.842188 3.190763
vt 3.684376 0.000000
vt 1.842188 3.190763
vt 1.842188 -3.190763
vt 3.684376 0.000000
vt 1.842188 -3.190763
vt 0.000000 0.000000
vt 1.842188 -3.190763
vt 3.684376 0.000000
vt 1.842188 3.190763
vt 3.684376 0.000000
vt 1.842188 3.190763
vt 1.842188 -3.190763
vt 3.684376 0.000000
vt 1.842188 3.190763
vt 3.684376 0.000000
vt 1.842188 -3.190763
vt 1.842188 3.190763
vt 1.842188 -3.190763
vt 1.842188 3.190763
vt 3.684376 0.000000
vt 1.842188 -3.190763
vt 3.684376 0.000000
vt 3.684376 0.000000
vt 1.842188 3.190763
vt 1.842188 -3.190763
vt 1.842188 -3.190763
vt 1.842188 3.190763
vt 1.842188 -3.190763
vt 3.684376 0.000000
vt 3.684376 0.000000
vt 1.842188 -3.190763
vt 3.684376 0.000000
vt 1.842188 -3.190763
vt 3.684376 0.000000
vt 1.842188 -3.190763
vt 3.684376 0.000000
vt 1.842188 -3.190763
s 0
usemtl _defaultMat.001
f 25/42/9 24/40/9 23/37/9
f 24/41/9 25/43/9 26/44/9
f 26/45/9 25/43/9 27/46/9
f 27/47/9 25/43/9 28/50/9
f 27/47/9 28/48/9 29/51/9
f 29/52/9 28/48/9 30/54/9
f 29/52/9 30/53/9 31/55/9
f 31/56/9 30/53/9 32/58/9
f 32/57/9 30/53/9 33/61/9
f 32/57/9 33/59/9 16/23/9
f 34/62/9 16/25/9 17/27/9
f 16/24/9 34/63/9 32/58/9
f 23/36/9 22/33/9 35/64/9
f 22/34/9 23/38/9 24/39/9
f 22/34/9 24/40/9 21/32/9
f 36/69/10 33/59/10 30/54/10
f 33/60/10 36/67/10 37/70/10
f 13/20/11 14/21/11 37/70/11
f 37/71/11 16/25/11 33/61/11
f 36/69/12 28/48/12 38/73/12
f 28/49/12 36/67/12 30/54/12
f 25/42/13 38/72/13 28/50/13
f 38/74/13 25/43/13 39/75/13
f 39/77/13 25/43/13 23/37/13
f 39/77/13 23/38/13 40/80/13
f 40/79/13 23/38/13 35/64/13
f 40/79/13 35/65/13 41/82/13
f 13/20/14 22/34/14 16/26/14
f 22/35/14 13/20/14 19/30/14
f 20/31/15 19/30/15 22/35/15
f 19/30/16 40/78/16 41/82/16
f 40/79/16 19/29/16 42/83/16
f 42/84/16 19/29/16 18/28/16
f 13/20/16 43/86/16 15/22/16
f 43/87/16 13/18/16 44/89/16
f 42/84/16 39/76/16 40/80/16
f 39/77/16 42/85/16 45/90/16
f 39/77/16 45/91/16 46/92/16
f 39/77/16 46/93/16 38/73/16
f 38/74/16 46/93/16 47/94/16
f 38/74/16 47/95/16 36/68/16
f 36/69/16 47/95/16 48/96/16
f 36/69/16 48/97/16 44/89/16
f 36/69/16 44/88/16 37/70/16
f 37/71/16 44/88/16 13/19/16
f 13/20/16 18/28/16 19/29/16
f 13/20/16 15/22/16 18/28/16
f 21/32/9 17/27/9 16/25/9
f 21/32/9 16/26/9 22/34/9
f 15/22/16 42/85/16 18/28/16
f 15/22/16 45/91/16 42/85/16
f 21/32/9 24/40/9 17/27/9
f 17/27/9 24/41/9 26/45/9
f 27/47/9 17/27/9 26/45/9
f 46/93/16 45/91/16 15/22/16
f 29/52/9 17/27/9 27/47/9
f 47/95/16 46/93/16 15/22/16
f 31/56/9 17/27/9 29/52/9
f 48/97/16 47/95/16 15/22/16
f 34/63/9 17/27/9 31/56/9
f 43/87/16 48/97/16 15/22/16
f 32/58/9 34/63/9 31/56/9
f 44/89/16 48/97/16 43/87/16
f 13/20/11 16/26/11 14/21/11
f 20/31/17 41/81/17 19/30/17
f 20/31/18 35/65/18 41/82/18
f 35/66/19 20/31/19 22/35/19
o cupTea.002
v -0.062438 0.140000 0.108145
v -0.056250 0.060000 0.097428
v -0.045000 0.000000 0.077942
v -0.046792 0.110000 0.081045
v 0.046792 0.110000 0.081045
v -0.051419 0.140000 0.089061
v 0.051419 0.140000 0.089061
v 0.062438 0.140000 0.108145
v 0.045000 0.000000 0.077942
v 0.056250 0.060000 0.097428
vn -0.0000 0.2581 -0.9661
vn -0.0000 1.0000 -0.0000
vn -0.0000 -0.3089 0.9511
vn -0.0000 -0.1328 0.9911
vn -0.0000 0.0282 -0.9996
vn 0.8660 -0.0000 -0.5000
vn -0.8660 -0.0000 -0.5000
vt 3.684376 0.000000
vt 0.000000 0.000000
vt 1.842188 -3.190763
vt 1.842188 3.190763
vt 0.000000 0.000000
vt 0.000000 0.000000
vt 0.000000 0.000000
vt 0.000000 0.000000
vt 0.000000 0.000000
vt 0.000000 0.000000
vt 0.000000 0.000000
vt 1.842188 -3.190763
vt 1.842188 3.190763
vt 0.000000 0.000000
vt 3.684376 0.000000
vt 0.000000 0.000000
s 0
usemtl _defaultMat.001
f 54/106/20 53/105/20 52/104/20
f 53/105/20 54/106/20 55/107/20
f 54/106/21 49/99/21 56/108/21
f 54/106/21 56/108/21 55/107/21
f 58/113/22 51/103/22 57/111/22
f 51/103/22 58/113/22 50/102/22
f 56/110/23 50/100/23 58/112/23
f 50/101/23 56/109/23 49/98/23
f 57/111/24 52/104/24 53/105/24
f 57/111/24 51/103/24 52/104/24
f 58/113/25 57/111/25 53/105/25
f 58/113/25 53/105/25 56/110/25
f 55/107/25 56/110/25 53/105/25
f 54/106/26 52/104/26 49/99/26
f 51/103/26 50/102/26 52/104/26
f 50/102/26 49/99/26 52/104/26
o cupTea.003
v -0.102839 0.140000 0.000000
v -0.093583 0.110000 0.000000
v -0.062438 0.140000 0.108145
v -0.056250 0.060000 0.097428
v -0.124875 0.140000 0.000000
v -0.115539 0.117864 0.010240
v -0.122294 0.123315 0.000000
v -0.110828 0.087412 0.010240
v -0.112500 0.060000 0.000000
v -0.117583 0.092863 0.000000
v -0.045000 0.000000 0.077942
v -0.096190 0.032273 0.010240
v -0.101355 0.030280 0.000000
v -0.088907 0.012852 0.010240
v -0.090000 0.000000 0.000000
v -0.046792 0.110000 0.081045
v -0.051419 0.140000 0.089061
vn -0.8584 -0.1328 0.4956
vn -0.8237 -0.3089 0.4755
vn -0.8237 -0.3089 0.4756
vn -0.0000 1.0000 -0.0000
vn 0.8367 0.2581 -0.4831
vn 0.8657 0.0282 -0.4998
vn 0.8660 -0.0000 0.5000
vn -0.0000 -0.0000 -1.0000
vt 1.842188 -3.190763
vt 1.842188 3.190763
vt 0.000000 0.000000
vt 3.684376 0.000000
vt 0.000000 0.000000
vt 0.000000 0.000000
vt 0.000000 0.000000
vt 0.000000 0.000000
vt 0.000000 0.000000
vt 0.000000 0.000000
vt 0.000000 0.000000
vt 0.000000 0.000000
vt 0.000000 0.000000
vt 0.000000 0.000000
vt 0.000000 0.000000
vt 0.000000 0.000000
vt 0.000000 0.000000
vt 1.842188 -3.190763
vt 1.842188 3.190763
vt 0.000000 0.000000
vt 3.684376 0.000000
s 0
usemtl _defaultMat.001
f 63/120/27 62/119/27 61/118/27
f 62/119/27 63/120/27 64/121/27
f 64/121/27 63/120/27 65/122/27
f 66/123/27 62/119/27 64/121/27
f 62/119/27 66/123/27 67/124/27
f 67/124/27 66/123/27 68/125/27
f 67/124/28 69/126/28 62/119/28
f 69/126/28 67/124/28 70/127/28
f 70/127/29 67/124/29 71/128/29
f 72/129/28 69/126/28 70/127/28
f 69/126/29 72/129/29 73/130/29
f 61/118/30 59/116/30 63/120/30
f 59/116/30 61/118/30 75/133/30
f 71/128/29 72/129/29 70/127/29
f 73/130/29 72/129/29 71/128/29
f 65/122/27 68/125/27 64/121/27
f 66/123/27 64/121/27 68/125/27
f 74/132/31 59/114/31 75/134/31
f 59/115/31 74/131/31 60/117/31
f 74/131/32 69/126/32 60/117/32
f 73/130/32 60/117/32 69/126/32
f 69/126/33 74/131/33 62/119/33
f 62/119/33 74/131/33 61/118/33
f 75/134/33 61/118/33 74/132/33
f 60/117/34 63/120/34 59/116/34
f 63/120/34 60/117/34 65/122/34
f 68/125/34 65/122/34 60/117/34
f 68/125/34 60/117/34 67/124/34
f 71/128/34 67/124/34 60/117/34
f 73/130/34 71/128/34 60/117/34
o cupTea.004
v -0.102839 0.140000 0.000000
v -0.051419 0.140000 -0.089061
v -0.093583 0.110000 0.000000
v -0.046792 0.110000 -0.081045
v -0.124875 0.140000 0.000000
v -0.122294 0.123315 0.000000
v -0.112500 0.060000 0.000000
v -0.117583 0.092863 0.000000
v -0.062438 0.140000 -0.108145
v -0.115539 0.117864 -0.010240
v -0.110828 0.087412 -0.010240
v -0.056250 0.060000 -0.097428
v -0.101355 0.030280 0.000000
v -0.090000 0.000000 0.000000
v -0.096190 0.032273 -0.010240
v -0.088907 0.012852 -0.010240
v -0.045000 0.000000 -0.077942
vn 0.8367 0.2581 0.4831
vn -0.8584 -0.1328 -0.4956
vn -0.8237 -0.3089 -0.4756
vn -0.8238 -0.3088 -0.4755
vn -0.8236 -0.3091 -0.4756
vn -0.8237 -0.3089 -0.4755
vn -0.0000 1.0000 -0.0000
vn 0.8657 0.0282 0.4998
vn 0.8660 -0.0000 -0.5000
vn -0.0000 -0.0000 1.0000
vt 0.000000 0.000000
vt 0.000000 0.000000
vt 0.000000 0.000000
vt 0.000000 0.000000
vt 0.000000 0.000000
vt 0.000000 0.000000
vt 0.000000 0.000000
vt 0.000000 0.000000
vt 0.000000 0.000000
vt 0.000000 0.000000
vt 0.000000 0.000000
vt 0.000000 0.000000
vt 0.000000 0.000000
vt 0.000000 0.000000
vt 0.000000 0.000000
vt 0.000000 0.000000
vt 0.000000 0.000000
s 0
usemtl _defaultMat.001
f 78/137/35 77/136/35 76/135/35
f 77/136/35 78/137/35 79/138/35
f 84/143/36 81/140/36 80/139/36
f 81/140/36 84/143/36 85/144/36
f 85/144/36 84/143/36 86/145/36
f 86/145/36 84/143/36 87/146/36
f 82/141/36 86/145/36 87/146/36
f 86/145/36 82/141/36 83/142/36
f 87/146/37 88/147/37 82/141/37
f 88/147/38 87/146/39 90/149/39
f 90/149/40 87/146/40 91/150/40
f 91/150/40 87/146/40 92/151/40
f 89/148/37 91/150/37 92/151/37
f 76/135/41 84/143/41 80/139/41
f 84/143/41 76/135/41 77/136/41
f 86/145/36 83/142/36 85/144/36
f 88/147/37 90/149/37 91/150/37
f 89/148/37 88/147/37 91/150/37
f 85/144/36 83/142/36 81/140/36
f 89/148/42 79/138/42 78/137/42
f 89/148/42 92/151/42 79/138/42
f 79/138/43 84/143/43 77/136/43
f 84/143/43 79/138/43 87/146/43
f 92/151/43 87/146/43 79/138/43
f 89/148/44 78/137/44 88/147/44
f 88/147/44 78/137/44 82/141/44
f 82/141/44 78/137/44 81/140/44
f 78/137/44 76/135/44 81/140/44
f 80/139/44 81/140/44 76/135/44
o cupTea.005
v -0.051419 0.140000 -0.089061
v -0.046792 0.110000 -0.081045
v -0.062438 0.140000 -0.108145
v -0.056250 0.060000 -0.097428
v 0.046792 0.110000 -0.081045
v 0.051419 0.140000 -0.089061
v -0.045000 0.000000 -0.077942
v 0.045000 0.000000 -0.077942
v 0.056250 0.060000 -0.097428
v 0.062438 0.140000 -0.108145
vn -0.0000 0.2581 0.9661
vn -0.0000 -0.3089 -0.9511
vn -0.0000 1.0000 -0.0000
vn -0.0000 -0.1328 -0.9911
vn -0.0000 0.0282 0.9996
vn 0.8660 -0.0000 0.5000
vn -0.8660 -0.0000 0.5000
vt 0.000000 0.000000
vt 0.000000 0.000000
vt 1.842188 3.190763
vt 1.842188 -3.190763
vt 0.000000 0.000000
vt 0.000000 0.000000
vt 3.684376 0.000000
vt 0.000000 0.000000
vt 0.000000 0.000000
vt 0.000000 0.000000
vt 0.000000 0.000000
vt 0.000000 0.000000
vt 1.842188 -3.190763
vt 1.842188 3.190763
vt 3.684376 0.000000
vt 0.000000 0.000000
s 0
usemtl _defaultMat.001
f 98/160/45 94/153/45 97/159/45
f 94/153/45 98/160/45 93/152/45
f 96/157/46 100/162/46 99/161/46
f 100/162/46 96/157/46 101/163/46
f 95/156/47 93/152/47 102/167/47
f 102/167/47 93/152/47 98/160/47
f 95/154/48 101/164/48 96/158/48
f 101/165/48 95/155/48 102/166/48
f 99/161/49 97/159/49 94/153/49
f 99/161/49 100/162/49 97/159/49
f 98/160/50 97/159/50 102/167/50
f 102/167/50 97/159/50 101/165/50
f 101/165/50 97/159/50 100/162/50
f 94/153/51 93/152/51 95/156/51
f 95/156/51 96/158/51 94/153/51
f 99/161/51 94/153/51 96/158/51
o cupTea.006
v 0.093583 0.110000 0.000000
v 0.102839 0.140000 0.000000
v 0.046792 0.110000 0.081045
v 0.051419 0.140000 0.089061
v 0.062438 0.140000 0.108145
v 0.124875 0.140000 0.000000
v 0.045000 0.000000 0.077942
v 0.056250 0.060000 0.097428
v 0.090000 0.000000 0.000000
v 0.112500 0.060000 0.000000
vn -0.0000 1.0000 -0.0000
vn 0.8237 -0.3089 0.4755
vn 0.8237 -0.3089 0.4756
vn 0.8584 -0.1328 0.4956
vn -0.8367 0.2581 -0.4831
vn -0.8660 -0.0000 0.5000
vn -0.8657 0.0282 -0.4998
vn -0.0000 -0.0000 -1.0000
vt 3.684376 0.000000
vt 0.000000 0.000000
vt 0.000000 0.000000
vt 1.842188 3.190763
vt 1.842188 -3.190763
vt 1.842188 3.190763
vt 1.842188 -3.190763
vt 0.000000 0.000000
vt 3.684376 0.000000
vt 3.684376 0.000000
vt 0.000000 0.000000
vt 1.842188 -3.190763
vt 1.842188 3.190763
vt 0.000000 0.000000
vt 0.000000 0.000000
vt 0.000000 0.000000
vt 1.842188 -3.190763
vt 1.842188 3.190763
vt 0.000000 0.000000
vt 0.000000 0.000000
vt 3.684376 0.000000
s 0
usemtl _defaultMat.001
f 106/175/52 107/178/52 104/170/52
f 104/170/52 107/178/52 108/181/52
f 109/182/53 112/187/53 110/183/53
f 112/187/54 109/182/54 111/186/54
f 110/185/55 108/179/55 107/177/55
f 108/180/55 110/184/55 112/188/55
f 104/171/56 105/174/56 106/176/56
f 105/173/56 104/172/56 103/168/56
f 106/176/57 105/174/57 107/178/57
f 110/185/57 107/178/57 105/174/57
f 110/185/57 105/174/57 109/182/57
f 109/182/58 103/169/58 111/186/58
f 103/169/58 109/182/58 105/174/58
f 104/172/59 108/181/59 103/168/59
f 112/188/59 103/168/59 108/181/59
f 111/186/59 103/169/59 112/188/59
o cupTea.007
v 0.093583 0.110000 0.000000
v 0.046792 0.110000 -0.081045
v 0.102839 0.140000 0.000000
v 0.051419 0.140000 -0.089061
v 0.045000 0.000000 -0.077942
v 0.056250 0.060000 -0.097428
v 0.124875 0.140000 0.000000
v 0.062438 0.140000 -0.108145
v 0.090000 0.000000 0.000000
v 0.112500 0.060000 0.000000
vn -0.8367 0.2581 0.4831
vn -0.0000 1.0000 -0.0000
vn 0.8237 -0.3089 -0.4756
vn 0.8237 -0.3089 -0.4755
vn 0.8584 -0.1328 -0.4956
vn -0.8657 0.0282 0.4998
vn -0.8660 -0.0000 -0.5000
vn -0.0000 -0.0000 1.0000
vt 0.000000 0.000000
vt 0.000000 0.000000
vt 0.000000 0.000000
vt 0.000000 0.000000
vt 0.000000 0.000000
vt 1.842188 3.190763
vt 1.842188 -3.190763
vt 0.000000 0.000000
vt 1.842188 -3.190763
vt 1.842188 3.190763
vt 0.000000 0.000000
vt 3.684376 0.000000
vt 0.000000 0.000000
vt 0.000000 0.000000
vt 0.000000 0.000000
vt 3.684376 0.000000
s 0
usemtl _defaultMat.001
f 115/191/60 114/190/60 113/189/60
f 114/190/60 115/191/60 116/192/60
f 120/201/61 115/191/61 119/199/61
f 120/201/61 116/192/61 115/191/61
f 117/193/62 122/203/62 121/202/62
f 122/203/63 117/193/63 118/196/63
f 118/194/64 119/197/64 122/204/64
f 119/198/64 118/195/64 120/200/64
f 117/193/65 113/189/65 114/190/65
f 117/193/65 121/202/65 113/189/65
f 118/196/66 117/193/66 114/190/66
f 116/192/66 120/201/66 114/190/66
f 120/201/66 118/196/66 114/190/66
f 115/191/67 113/189/67 119/199/67
f 122/204/67 119/199/67 113/189/67
f 122/204/67 113/189/67 121/202/67
