# Blender 3.4.1
# www.blender.org
mtllib corn.mtl
o bowlSoup.003
v 0.051492 -0.029588 -0.003107
v 0.054171 -0.019591 -0.003107
v 0.070347 -0.023925 -0.003107
v 0.027387 0.061793 -0.003107
v -0.028343 -0.026355 -0.003107
v -0.031022 -0.036353 -0.003107
v -0.047198 -0.032018 -0.003107
v -0.061826 0.003983 -0.003107
v -0.053453 -0.010520 -0.003107
v 0.067668 -0.033923 -0.003107
v -0.044489 -0.005345 -0.003107
v -0.044519 -0.022021 -0.003107
v -0.052863 0.009158 -0.003107
v 0.002764 -0.000755 -0.003107
v 0.014606 -0.012597 -0.003107
v 0.021924 -0.005278 -0.003107
v 0.024708 0.051796 -0.003107
v 0.010082 0.006563 -0.003107
v 0.008532 0.056130 -0.003107
v 0.011211 0.066128 -0.003107
v 0.051374 -0.029316 0.003107
v 0.054053 -0.019319 0.003107
v 0.067550 -0.033651 0.003107
v -0.047316 -0.031746 0.003107
v -0.044637 -0.021749 0.003107
v -0.053571 -0.010248 0.003107
v -0.052981 0.009430 0.003107
v 0.014488 -0.012325 0.003107
v 0.021806 -0.005007 0.003107
v 0.027269 0.062065 0.003107
v 0.024590 0.052068 0.003107
v 0.008414 0.056402 0.003107
v 0.011093 0.066400 0.003107
v 0.070229 -0.023653 0.003107
v 0.009964 0.006835 0.003107
v -0.031140 -0.036081 0.003107
v -0.028461 -0.026084 0.003107
v -0.061944 0.004255 0.003107
v -0.044607 -0.005073 0.003107
v 0.002646 -0.000483 0.003107
vn -0.0000 -0.0000 -1.0000
vn -0.0000 -0.0000 1.0000
vn 0.4994 -0.8651 0.0473
vn -0.2586 -0.9653 0.0373
vn 0.7070 0.7070 -0.0175
vn -0.9655 0.2587 -0.0296
vn 0.8660 0.5000 -0.0054
vn 0.9655 -0.2587 0.0296
vn 0.7064 -0.7064 0.0443
vn 0.2586 0.9653 -0.0373
vn -0.8660 -0.5000 0.0054
vn -0.7070 -0.7070 0.0175
vn -0.7064 0.7064 -0.0443
vn -0.4994 0.8651 -0.0473
vt 4.025200 -2.625440
vt 4.252004 -1.778997
vt 5.621577 -2.145973
vt 1.984306 5.111551
vt -2.734185 -2.351717
vt -2.960988 -3.198159
vt -4.330561 -2.831183
vt -5.569099 0.216921
vt -4.860157 -1.011004
vt 5.394773 -2.992416
vt -4.101257 -0.572853
vt -4.103757 -1.984741
vt -4.810200 0.655072
vt -0.100459 -0.184238
vt 0.902138 -1.186835
vt 1.521777 -0.567196
vt 1.757503 4.265108
vt 0.519180 0.435401
vt 0.387930 4.632084
vt 0.614733 5.478527
vt 4.025200 -2.625440
vt 4.252004 -1.778997
vt 5.394773 -2.992416
vt -4.330561 -2.831183
vt -4.103757 -1.984741
vt -4.860157 -1.011004
vt -4.810200 0.655072
vt 0.902138 -1.186835
vt 1.521777 -0.567196
vt 1.984306 5.111551
vt 1.757503 4.265108
vt 0.387930 4.632084
vt 0.614733 5.478527
vt 5.621577 -2.145973
vt 0.519180 0.435401
vt -2.960988 -3.198159
vt -2.734185 -2.351717
vt -5.569099 0.216921
vt -4.101257 -0.572853
vt -0.100459 -0.184238
s 0
usemtl green.001
f 17/17/1 19/19/1 20/20/1
f 20/20/1 4/4/1 17/17/1
f 9/9/1 8/8/1 13/13/1
f 13/13/1 11/11/1 9/9/1
f 6/6/1 7/7/1 12/12/1
f 12/12/1 5/5/1 6/6/1
f 10/10/1 1/1/1 2/2/1
f 2/2/1 3/3/1 10/10/1
f 15/15/1 14/14/1 18/18/1
f 18/18/1 16/16/1 15/15/1
f 31/31/2 33/33/2 32/32/2
f 33/33/2 31/31/2 30/30/2
f 26/26/2 27/27/2 38/38/2
f 27/27/2 26/26/2 39/39/2
f 36/36/2 25/25/2 24/24/2
f 25/25/2 36/36/2 37/37/2
f 23/23/2 22/22/2 21/21/2
f 22/22/2 23/23/2 34/34/2
f 28/28/2 35/35/2 40/40/2
f 35/35/2 28/28/2 29/29/2
f 9/9/3 11/11/3 39/39/3 26/26/3
f 1/1/4 10/10/4 23/23/4 21/21/4
f 19/19/4 17/17/4 31/31/4 32/32/4
f 16/16/5 18/18/5 35/35/5 29/29/5
f 12/12/6 7/7/6 24/24/6 25/25/6
f 11/11/7 13/13/7 27/27/7 39/39/7
f 6/6/8 5/5/8 37/37/8 36/36/8
f 15/15/9 16/16/9 29/29/9 28/28/9
f 4/4/10 20/20/10 33/33/10 30/30/10
f 8/8/11 9/9/11 26/26/11 38/38/11
f 17/17/8 4/4/8 30/30/8 31/31/8
f 7/7/4 6/6/4 36/36/4 24/24/4
f 10/10/8 3/3/8 34/34/8 23/23/8
f 20/20/6 19/19/6 32/32/6 33/33/6
f 14/14/12 15/15/12 28/28/12 40/40/12
f 5/5/10 12/12/10 25/25/10 37/37/10
f 3/3/10 2/2/10 22/22/10 34/34/10
f 18/18/13 14/14/13 40/40/13 35/35/13
f 2/2/6 1/1/6 21/21/6 22/22/6
f 13/13/14 8/8/14 38/38/14 27/27/14
