# Blender 3.4.1
# www.blender.org
mtllib notCarne.mtl
o bowlSoup.002
v 0.040744 -0.006626 -0.008660
v 0.050403 -0.004038 -0.008660
v 0.030391 0.032011 -0.008660
v 0.017935 -0.044467 -0.008660
v 0.017935 -0.054467 -0.008660
v -0.022065 -0.054467 -0.008660
v -0.027184 0.052821 -0.008660
v -0.049480 0.018139 -0.008660
v -0.040008 0.014933 -0.008660
v -0.036656 0.056027 -0.008660
v -0.022065 -0.044467 -0.008660
v 0.040051 0.034599 -0.008660
v 0.042639 0.024940 0.008660
v 0.032980 0.022352 0.008660
v 0.047815 0.005622 0.008660
v 0.038156 0.003034 0.008660
v 0.007935 -0.054467 0.008660
v 0.007935 -0.044467 0.008660
v -0.012065 -0.054467 0.008660
v -0.012065 -0.044467 0.008660
v -0.036802 0.024405 0.008660
v -0.030390 0.043349 0.008660
v -0.039862 0.046555 0.008660
v -0.046274 0.027611 0.008660
vn -0.2241 0.8365 0.5000
vn 0.2241 -0.8365 0.5000
vn -0.0000 -0.0000 1.0000
vn 0.9659 0.2588 -0.0000
vn -0.9659 -0.2588 -0.0000
vn 0.8660 -0.0000 0.5000
vn -0.0000 -1.0000 -0.0000
vn -0.0000 1.0000 -0.0000
vn -0.8660 -0.0000 0.5000
vn 0.9472 -0.3206 -0.0000
vn 0.2777 0.8203 0.5000
vn -0.9472 0.3206 -0.0000
vn -0.2777 -0.8203 0.5000
vn -0.0000 -0.0000 -1.0000
vt 3.580792 5.902515
vt 1.299721 7.566031
vt 4.427461 5.902515
vt -1.299721 7.566031
vt -2.086953 7.566031
vt -3.580792 5.508899
vt -3.532551 5.620389
vt -1.863974 7.566031
vt -4.379219 5.620389
vt 1.863974 7.566031
vt 4.379219 5.791026
vt -1.522699 7.566031
vt 3.829037 7.566031
vt 3.361133 4.637857
vt -4.207801 6.773558
vt -0.442364 7.566031
vt 0.442364 7.566031
vt -3.361133 6.773558
vt -3.829037 7.566031
vt 4.207801 4.637857
vt 3.532551 5.791026
vt 1.522699 7.566031
vt 2.086953 7.566031
vt -4.427461 5.508899
vt -4.427461 7.202236
vt 3.955590 2.343934
vt 1.240285 9.032504
vt -3.580792 7.202236
vt 3.137771 2.124800
vt -1.240285 9.032504
vt 4.427461 7.595852
vt 4.393857 0.708296
vt -0.453052 9.032504
vt 3.580792 7.595852
vt 3.576039 0.489163
vt 0.453052 9.032504
vt -4.379219 7.313725
vt 1.017306 9.032504
vt 1.017306 -4.379219
vt -3.532551 7.313725
vt 1.017306 -3.532551
vt -1.017306 9.032504
vt -0.676031 9.032504
vt -0.676031 -4.379219
vt 4.379219 7.484363
vt -0.676031 -3.532551
vt 0.676031 9.032504
vt 3.532551 7.484363
vt 1.289032 9.032504
vt -3.361133 8.466894
vt -2.770419 2.298607
vt 2.982369 9.032504
vt 3.361133 6.331194
vt -2.227514 3.902553
vt 4.207801 6.331194
vt -2.982369 9.032504
vt -3.029487 4.174006
vt -1.289032 9.032504
vt -4.207801 8.466894
vt -3.572392 2.570060
s 0
usemtl orange
f 3/6/1 13/25/1 12/24/1
f 13/25/1 3/6/1 14/28/1
f 15/31/2 1/1/2 2/3/2
f 1/1/2 15/31/2 16/34/2
f 16/35/3 13/26/3 14/29/3
f 13/26/3 16/35/3 15/32/3
f 12/23/4 15/33/4 2/4/4
f 15/33/4 12/23/4 13/27/4
f 16/36/5 3/5/5 1/2/5
f 3/5/5 16/36/5 14/30/5
f 5/9/6 18/40/6 17/37/6
f 18/40/6 5/9/6 4/7/6
f 17/38/7 6/12/7 5/10/7
f 6/12/7 17/38/7 19/43/7
f 17/39/3 20/46/3 19/44/3
f 20/46/3 17/39/3 18/41/3
f 11/22/8 18/42/8 4/8/8
f 18/42/8 11/22/8 20/47/8
f 20/48/9 6/11/9 19/45/9
f 6/11/9 20/48/9 11/21/9
f 7/13/10 21/49/10 9/17/10
f 21/49/10 7/13/10 22/52/10
f 10/20/11 22/53/11 7/14/11
f 22/53/11 10/20/11 23/55/11
f 24/58/12 10/19/12 8/16/12
f 10/19/12 24/58/12 23/56/12
f 21/50/13 8/15/13 9/18/13
f 8/15/13 21/50/13 24/59/13
f 21/51/3 23/57/3 24/60/3
f 23/57/3 21/51/3 22/54/3
f 12/24/14 2/4/14 3/6/14
f 2/4/14 1/2/14 3/6/14
f 5/9/14 11/22/14 4/8/14
f 6/12/14 11/22/14 5/10/14
f 10/20/14 7/14/14 8/16/14
f 7/14/14 9/18/14 8/16/14
