# Blender v2.78 (sub 0) OBJ File: ''
# www.blender.org
mtllib doughclump.mtl
o cookie
v -0.011441 -0.019981 0.002074
v -0.016337 0.000879 0.002074
v -0.022840 -0.000237 0.002074
v -0.011882 -0.003576 0.002074
v -0.007427 0.000879 0.002074
v 0.004197 -0.013999 0.002074
v 0.011357 -0.019981 0.002074
v 0.001047 -0.008544 0.002074
v 0.009653 -0.010849 0.002074
v 0.010588 0.008952 0.002074
v -0.011441 0.019507 0.002074
v -0.011882 0.005334 0.002074
v 0.011357 0.019507 0.002074
v 0.001678 0.008952 0.002074
v 0.006133 0.013407 0.002074
v 0.022757 -0.000237 0.002074
v 0.006503 -0.005394 0.002074
v 0.006133 0.004497 0.002074
v -0.027510 -0.000237 -0.002903
v -0.012642 -0.022061 -0.007880
v -0.013776 -0.024025 -0.002903
v -0.025242 -0.000237 -0.007880
v -0.013776 0.023551 -0.002903
v -0.012642 0.021587 -0.007880
v 0.027426 -0.000237 -0.002903
v 0.013692 -0.024025 -0.002903
v 0.012558 0.021587 -0.007880
v 0.013692 0.023551 -0.002903
v 0.025158 -0.000237 -0.007880
v 0.012558 -0.022061 -0.007880
v -0.016337 0.000879 0.004562
v -0.011882 0.005334 0.004562
v 0.009653 -0.010849 0.004562
v 0.010588 0.008952 0.004562
v 0.006133 0.013407 0.004562
v 0.004197 -0.013999 0.004562
vt -1.7952 -3.1093
vt -2.5661 0.1757
vt -3.5903 0.0000
vt -1.8646 -0.5258
vt -1.1631 0.1757
vt 0.6675 -2.1673
vt 1.7952 -3.1093
vt 0.1715 -1.3081
vt 1.5267 -1.6713
vt 1.6740 1.4471
vt -1.7952 3.1093
vt -1.8646 0.8773
vt 1.7952 3.1093
vt 0.2709 1.4471
vt 0.9724 2.1486
vt 3.5903 0.0000
vt 1.0307 -0.8121
vt 0.9724 0.7456
vt -2.1628 2.1042
vt 1.9843 1.2616
vt 2.1628 2.1042
vt -1.9843 1.2616
vt -2.1628 2.1042
vt 1.9843 1.2616
vt 2.1628 2.1042
vt -1.9843 1.2616
vt 2.1628 -1.7540
vt -1.7952 -0.7442
vt -2.1628 -1.7540
vt 1.7952 -0.7442
vt 2.1628 2.1042
vt -1.9843 1.2616
vt 1.9843 1.2616
vt -2.1628 2.1042
vt 1.9843 1.2616
vt -2.1628 2.1042
vt -1.9843 1.2616
vt 2.1628 2.1042
vt 1.7952 -0.7442
vt -2.1628 -1.7540
vt 2.1628 -1.7540
vt -1.7952 -0.7442
vt 2.1628 2.1042
vt -1.9843 1.2616
vt 1.9843 1.2616
vt -2.1628 2.1042
vt 2.1628 -1.7540
vt -1.7952 -0.7442
vt -2.1628 -1.7540
vt 1.7952 -0.7442
vt 1.9843 3.4368
vt 1.9843 -3.4368
vt 3.9685 0.0000
vt -1.9843 3.4368
vt -1.9843 -3.4368
vt -3.9685 0.0000
vt 1.7952 -0.7442
vt -2.1628 -1.7540
vt 2.1628 -1.7540
vt -1.7952 -0.7442
vt 1.7952 -0.7442
vt -2.1628 -1.7540
vt 2.1628 -1.7540
vt -1.7952 -0.7442
vt -1.9843 1.2616
vt 2.1628 2.1042
vt -2.1628 2.1042
vt 1.9843 1.2616
vt -1.7952 -0.7442
vt 2.1628 -1.7540
vt 1.7952 -0.7442
vt -2.1628 -1.7540
vt 1.6903 1.9594
vt 0.6981 1.5676
vt 1.6903 1.5676
vt 0.6981 1.9594
vt -1.6903 1.4564
vt -0.6981 2.5231
vt -1.6903 2.5231
vt -0.6981 1.4564
vt -1.2186 1.5676
vt -2.2107 1.9594
vt -2.2107 1.5676
vt 1.9388 1.9594
vt 0.9467 1.5676
vt 1.9388 1.5676
vt 0.8317 1.5676
vt -0.1604 1.9594
vt -0.1604 1.5676
vt 0.8317 1.9594
vt 0.4865 1.9594
vt -0.5056 1.5676
vt 0.4865 1.5676
vt -0.5056 1.9594
vt 1.2186 1.5676
vt 2.2107 1.5676
vt 2.2107 1.9594
vt 0.5056 2.7760
vt -0.4865 1.7093
vt 0.5056 1.7093
vt -0.4865 2.7760
vt 0.1604 1.7057
vt -0.8317 2.7725
vt -0.8317 1.7057
vt 0.1604 2.7725
vt -2.2069 1.9594
vt -2.2069 1.5676
vt -1.2148 1.5676
vt 2.2069 1.9594
vt 1.2148 1.5676
vt 2.2069 1.5676
vt -1.9388 1.5676
vt -0.9467 1.5676
vt -1.9388 1.9594
vn 0.0000 0.0000 1.0000
vn -0.8056 -0.4651 -0.3671
vn -0.8056 0.4651 -0.3671
vn 0.6721 -0.3881 0.6306
vn 0.6721 -0.3880 0.6306
vn 0.0000 0.9302 -0.3671
vn 0.8056 0.4651 -0.3671
vn 0.0000 -0.7761 0.6306
vn 0.0000 -0.9302 -0.3671
vn 0.6721 0.3881 0.6306
vn 0.6722 0.3881 0.6306
vn 0.0000 0.0000 -1.0000
vn 0.0000 0.7761 0.6306
vn -0.6721 -0.3880 0.6306
vn 0.8056 -0.4651 -0.3671
vn -0.6721 0.3880 0.6306
vn -0.7071 0.7071 0.0000
vn 0.2597 -0.2597 0.9301
vn 0.8660 0.5001 0.0000
vn 0.7071 0.7071 0.0000
vn 0.5000 -0.8660 0.0000
vn -0.8660 -0.5001 0.0000
vn -0.1837 0.3181 0.9301
vn -0.2597 -0.2597 0.9301
vn 0.7071 -0.7071 0.0000
vn -0.7071 -0.7071 0.0000
usemtl brownDark.001
s 1
f 1/1/1 2/2/1 3/3/1
f 2/2/1 1/1/1 4/4/1
f 4/4/1 1/1/1 5/5/1
f 5/5/1 1/1/1 6/6/1
f 6/6/1 1/1/1 7/7/1
f 5/5/1 6/6/1 8/8/1
f 6/6/1 7/7/1 9/9/1
f 9/9/1 7/7/1 10/10/1
f 2/2/1 11/11/1 3/3/1
f 11/11/1 2/2/1 12/12/1
f 11/11/1 12/12/1 5/5/1
f 11/11/1 5/5/1 13/13/1
f 13/13/1 10/10/1 7/7/1
f 13/13/1 5/5/1 14/14/1
f 14/14/1 5/5/1 8/8/1
f 13/13/1 14/14/1 15/15/1
f 13/13/1 15/15/1 10/10/1
f 13/13/1 7/7/1 16/16/1
f 17/17/1 14/14/1 8/8/1
f 10/10/1 17/17/1 9/9/1
f 14/14/1 17/17/1 18/18/1
f 18/18/1 17/17/1 10/10/1
f 19/19/2 20/20/2 21/21/2
f 20/20/2 19/19/2 22/22/2
f 23/23/3 22/24/3 19/25/3
f 22/24/3 23/23/3 24/26/3
f 25/27/4 7/28/5 26/29/5
f 7/28/5 25/27/4 16/30/4
f 23/31/6 27/32/6 24/33/6
f 27/32/6 23/31/6 28/34/6
f 27/35/7 25/36/7 29/37/7
f 25/36/7 27/35/7 28/38/7
f 7/39/8 21/40/8 26/41/8
f 21/40/8 7/39/8 1/42/8
f 26/43/9 20/44/9 30/45/9
f 20/44/9 26/43/9 21/46/9
f 28/47/10 16/48/10 25/49/11
f 16/48/10 28/47/10 13/50/10
f 24/51/12 20/52/12 22/53/12
f 20/52/12 24/51/12 27/54/12
f 20/52/12 27/54/12 30/55/12
f 30/55/12 27/54/12 29/56/12
f 11/57/13 28/58/13 23/59/13
f 28/58/13 11/57/13 13/60/13
f 1/61/14 19/62/14 21/63/14
f 19/62/14 1/61/14 3/64/14
f 30/65/15 25/66/15 26/67/15
f 25/66/15 30/65/15 29/68/15
f 11/69/16 19/70/16 3/71/16
f 19/70/16 11/69/16 23/72/16
f 31/73/17 12/74/17 2/75/17
f 12/74/17 31/73/17 32/76/17
f 4/77/18 32/78/18 31/79/18
f 32/78/18 4/77/18 5/80/18
f 17/81/19 33/82/19 9/83/19
f 32/84/20 5/85/20 12/86/20
f 15/87/20 34/88/20 10/89/20
f 34/88/20 15/87/20 35/90/20
f 33/91/21 6/92/21 9/93/21
f 6/92/21 33/91/21 36/94/21
f 8/95/22 6/96/22 36/97/22
f 36/98/23 17/99/23 8/100/23
f 17/99/23 36/98/23 33/101/23
f 18/102/24 35/103/24 14/104/24
f 35/103/24 18/102/24 34/105/24
f 35/106/17 15/107/17 14/108/17
f 34/109/25 18/110/25 10/111/25
f 2/112/26 4/113/26 31/114/26
