# Blender v2.78 (sub 0) OBJ File: ''
# www.blender.org
mtllib sugarsprinkle.mtl
o cookie
v -0.005408 0.002913 0.002074
v -0.011170 0.006598 0.002074
v 0.000664 0.006060 0.002074
v -0.010859 0.013431 0.002074
v -0.004787 0.016578 0.002074
v 0.000975 0.012893 0.002074
v -0.005408 0.002913 0.003074
v -0.011170 0.006598 0.003074
v 0.000664 0.006060 0.003074
v -0.010859 0.013431 0.003074
v -0.004787 0.016578 0.003074
v 0.000975 0.012893 0.003074
v 0.000182 -0.006140 0.002074
v -0.000129 -0.012973 0.002074
v -0.005580 -0.002455 0.002074
v -0.006202 -0.016120 0.002074
v -0.011963 -0.012435 0.002074
v -0.011653 -0.005602 0.002074
v 0.000182 -0.006140 0.003074
v -0.000129 -0.012973 0.003074
v -0.005580 -0.002455 0.003074
v -0.006202 -0.016120 0.003074
v -0.011963 -0.012435 0.003074
v -0.011653 -0.005602 0.003074
v 0.005227 0.003227 0.002074
v 0.011299 0.006374 0.002074
v 0.004916 -0.003605 0.002074
v 0.017061 0.002689 0.002074
v 0.016750 -0.004143 0.002074
v 0.010678 -0.007291 0.002074
v 0.005227 0.003227 0.003074
v 0.011299 0.006374 0.003074
v 0.004916 -0.003605 0.003074
v 0.017061 0.002689 0.003074
v 0.016750 -0.004143 0.003074
v 0.010678 -0.007291 0.003074
vt 0.0000 0.0000
vt 0.0000 0.0000
vt 0.0000 0.0000
vt 0.0000 0.0000
vt 0.0000 0.0000
vt 0.0000 0.0000
vt 0.0000 0.0000
vt 0.0000 0.0000
vt 0.0000 0.0000
vt 0.0000 0.0000
vt 0.0000 0.0000
vt 0.0000 0.0000
vt 0.0000 0.0000
vt 0.0000 0.0000
vt 0.0000 0.0000
vt 0.0000 0.0000
vt 0.0000 0.0000
vt 0.0000 0.0000
vt 0.0000 0.0000
vt 0.0000 0.0000
vt 0.0000 0.0000
vt 0.0000 0.0000
vt 0.0000 0.0000
vt 0.0000 0.0000
vt 0.0000 0.0000
vt 0.0000 0.0000
vt 0.0000 0.0000
vt 0.0000 0.0000
vt 0.0000 0.0000
vt 0.0000 0.0000
vt 0.0000 0.0000
vt 0.0000 0.0000
vt 0.0000 0.0000
vt 0.0000 0.0000
vt 0.0000 0.0000
vt 0.0000 0.0000
vn -0.0000 0.0000 1.0000
vn 0.0000 0.0000 -1.0000
vn -0.4601 0.8878 0.0000
vn -0.9990 0.0455 0.0000
vn 0.4601 -0.8878 0.0000
vn 0.5388 0.8424 0.0000
vn 0.9990 -0.0454 0.0000
vn -0.5388 -0.8424 0.0000
vn 0.4601 -0.8879 0.0000
vn -0.9990 0.0454 0.0000
vn 0.5389 0.8424 0.0000
vn -0.4602 0.8878 0.0000
usemtl Material
s off
f 4/1/1 2/2/1 1/3/1 3/4/1 6/5/1 5/6/1
f 10/7/2 11/8/2 12/9/2 9/10/2 7/11/2 8/12/2
f 3/4/3 1/3/3 7/11/3 9/10/3
f 6/5/4 3/4/4 9/10/4 12/9/4
f 4/1/5 5/6/5 11/8/5 10/7/5
f 1/3/6 2/2/6 8/12/6 7/11/6
f 2/2/7 4/1/7 10/7/7 8/12/7
f 5/6/8 6/5/8 12/9/8 11/8/8
f 16/13/1 14/14/1 13/15/1 15/16/1 18/17/1 17/18/1
f 22/19/2 23/20/2 24/21/2 21/22/2 19/23/2 20/24/2
f 15/16/8 13/15/8 19/23/8 21/22/8
f 18/17/9 15/16/9 21/22/9 24/21/9
f 16/13/6 17/18/6 23/20/6 22/19/6
f 13/15/10 14/14/10 20/24/10 19/23/10
f 14/14/3 16/13/3 22/19/3 20/24/3
f 17/18/7 18/17/7 24/21/7 23/20/7
f 28/25/1 26/26/1 25/27/1 27/28/1 30/29/1 29/30/1
f 34/31/2 35/32/2 36/33/2 33/34/2 31/35/2 32/36/2
f 27/28/7 25/27/7 31/35/7 33/34/7
f 30/29/11 27/28/11 33/34/11 36/33/11
f 28/25/10 29/30/10 35/32/10 34/31/10
f 25/27/9 26/26/9 32/36/9 31/35/9
f 26/26/8 28/25/8 34/31/8 32/36/8
f 29/30/12 30/29/12 36/33/12 35/32/12
