# Blender 3.4.1
# www.blender.org
mtllib spatula.mtl
o cookingSpatula
v 0.054757 0.005000 0.036302
v 0.054757 0.005000 0.006244
v 0.065573 0.007898 0.047500
v 0.054757 0.005000 -0.006244
v 0.054757 0.005000 -0.036302
v 0.065573 0.007898 -0.047500
v 0.072173 0.009666 0.031220
v 0.159852 0.033160 0.047500
v 0.153252 0.031392 0.031220
v 0.153252 0.031392 0.018732
v 0.153252 0.031392 0.006244
v 0.153252 0.031392 -0.006244
v 0.153252 0.031392 -0.018732
v 0.153252 0.031392 -0.031220
v 0.072173 0.009666 -0.031220
v 0.159852 0.033160 -0.047500
v 0.072173 0.009666 0.018732
v 0.072173 0.009666 0.006244
v 0.072173 0.009666 -0.006244
v 0.072173 0.009666 -0.018732
v 0.170668 0.036059 0.036302
v 0.170668 0.036059 -0.036302
v -0.047213 0.005000 0.011244
v -0.047213 0.005000 -0.011244
v 0.055205 0.003170 0.036302
v 0.055205 0.003170 0.006244
v 0.066021 0.006068 0.047500
v 0.055205 0.003170 -0.006244
v 0.055205 0.003170 -0.036302
v 0.066021 0.006068 -0.047500
v 0.072621 0.007837 0.031220
v 0.160300 0.031330 0.047500
v 0.153701 0.029561 0.031220
v 0.153701 0.029561 0.018732
v 0.153701 0.029561 0.006244
v 0.153701 0.029561 -0.006244
v 0.153701 0.029561 -0.018732
v 0.153701 0.029561 -0.031220
v 0.072621 0.007837 -0.031220
v 0.160300 0.031330 -0.047500
v 0.171117 0.034228 0.036302
v -0.046765 0.003170 0.011244
v -0.046765 0.003170 -0.011244
v 0.072621 0.007837 -0.006244
v 0.072621 0.007837 0.018732
v 0.072621 0.007837 0.006244
v 0.072621 0.007837 -0.018732
v 0.171117 0.034228 -0.036302
v 0.170668 0.036059 0.000000
v 0.171117 0.034228 0.000000
vn 0.2588 -0.9659 -0.0000
vn -0.2588 0.9659 -0.0000
vn 0.9713 0.2380 -0.0000
vn -0.0000 -0.0000 -1.0000
vn 0.0490 0.0120 0.9987
vn -0.0000 -0.0000 1.0000
vn 0.6869 0.1683 -0.7070
vn -0.6869 -0.1682 -0.7070
vn -0.9713 -0.2378 -0.0000
vn 0.9713 0.2378 -0.0000
vn 0.6869 0.1683 0.7070
vn -0.9713 -0.2380 -0.0000
vn -0.6869 -0.1682 0.7070
vn -0.2971 -0.0796 -0.9515
vn 0.0490 0.0120 -0.9987
vn -0.0000 1.0000 -0.0000
vn -0.9121 -0.2444 -0.3291
vn -0.0000 -1.0000 -0.0000
vn -0.5654 -0.1515 0.8108
vn -0.7941 -0.2128 0.5694
vn -0.9297 -0.2491 -0.2713
vt 2.858467 4.266560
vt 0.491656 4.266560
vt 4.311576 -0.491656
vt 3.740157 5.148250
vt 4.311576 0.491656
vt -0.491656 4.266560
vt -2.858467 4.266560
vt -3.740157 5.148250
vt 0.000000 0.000000
vt 2.458282 5.686231
vt 3.740157 12.833690
vt 2.458282 12.295710
vt 1.474969 12.295710
vt 0.491656 12.295710
vt -0.491656 12.295710
vt -1.474969 12.295710
vt -2.458282 12.295710
vt 0.000000 0.000000
vt -2.458282 5.686231
vt -3.740157 12.833690
vt 1.474969 5.686231
vt 0.000000 0.000000
vt 0.491656 5.686231
vt -0.491656 5.686231
vt 0.000000 0.000000
vt -1.474969 5.686231
vt 2.858467 13.715380
vt -2.858467 13.715380
vt -3.717572 -0.885357
vt -3.717572 0.885357
vt 2.858467 4.266560
vt 0.491656 4.266560
vt 4.311576 -0.491656
vt 3.740157 5.148250
vt -0.491656 4.266560
vt 4.311576 0.491656
vt -2.858467 4.266560
vt -3.740157 5.148250
vt 0.000000 0.000000
vt 2.458282 5.686231
vt 3.740157 12.833690
vt 2.458282 12.295710
vt 1.474969 12.295710
vt 0.491656 12.295710
vt -0.491656 12.295710
vt -1.474969 12.295710
vt -2.458282 12.295710
vt 0.000000 0.000000
vt -2.458282 5.686231
vt -3.740157 12.833690
vt 2.858467 13.715380
vt -3.717572 -0.885357
vt -3.717572 0.885357
vt -0.491656 5.686231
vt 0.000000 0.000000
vt 1.474969 5.686231
vt 0.491656 5.686231
vt 0.000000 0.000000
vt -1.474969 5.686231
vt -2.858467 13.715380
vt 0.000000 13.715380
vt 0.000000 0.000000
vt 0.000000 13.715380
s 0
usemtl white
f 45/55/1 31/39/1 26/33/1
f 26/33/1 46/57/1 45/56/1
f 28/36/1 44/54/1 46/57/1 26/33/1
f 44/54/1 28/35/1 47/59/1
f 28/35/1 39/49/1 47/58/1
f 7/10/2 3/4/2 8/11/2
f 7/10/2 8/11/2 9/12/2
f 40/50/1 48/60/1 38/47/1
f 34/43/1 41/51/1 33/42/1
f 21/27/2 9/12/2 8/11/2
f 22/28/3 49/61/3 50/63/3 48/60/3
f 36/45/1 50/63/1 35/44/1
f 39/49/1 28/35/1 29/37/1
f 6/8/2 15/19/2 16/20/2
f 16/20/2 15/19/2 14/17/2
f 9/12/2 21/27/2 10/13/2
f 10/13/2 18/23/2 17/21/2
f 18/23/2 10/13/2 11/14/2
f 2/3/2 18/23/2 19/24/2 4/5/2
f 12/15/2 20/26/2 19/24/2
f 20/26/2 12/15/2 13/16/2
f 11/14/2 10/13/2 21/27/2
f 49/61/2 11/14/2 21/27/2
f 6/8/4 16/20/4 40/50/4 30/38/4
f 2/3/5 23/29/5 42/52/5 26/33/5
f 20/26/6 4/5/2 19/24/2
f 16/20/7 22/28/7 48/60/7 40/50/7
f 5/7/8 6/8/8 30/38/8 29/37/8
f 4/6/9 5/7/9 29/37/9 28/35/9
f 18/23/10 46/57/10 44/54/10 19/24/10
f 23/29/9 24/30/9 43/53/9 42/52/9
f 12/15/6 19/24/6 44/54/6 36/45/6
f 20/26/4 13/16/4 37/46/4 47/59/4
f 35/44/1 50/63/1 41/51/1
f 8/11/6 3/4/6 27/34/6 32/41/6
f 21/27/11 8/11/11 32/41/11 41/51/11
f 11/14/12 12/15/12 36/45/12 35/44/12
f 3/4/13 1/1/13 25/31/13 27/34/13
f 14/17/6 15/19/6 39/49/6 38/47/6
f 22/28/2 14/17/2 13/16/2
f 18/23/2 2/3/2 17/21/2
f 18/23/4 11/14/4 35/44/4 46/57/4
f 9/12/12 10/13/12 34/43/12 33/42/12
f 26/33/1 31/39/1 25/31/1
f 17/21/2 2/3/2 7/10/14
f 49/61/3 21/27/3 41/51/3 50/63/3
f 1/1/9 2/2/9 26/32/9 25/31/9
f 7/10/4 9/12/4 33/42/4 31/40/4
f 24/30/15 4/5/15 28/36/15 43/53/15
f 2/3/16 24/30/16 23/29/16
f 24/30/16 2/3/16 4/5/16
f 2/3/2 1/1/2 7/10/17
f 10/13/6 17/21/6 45/56/6 34/43/6
f 6/8/2 5/7/2 15/19/2
f 39/49/1 29/37/1 30/38/1
f 39/48/10 15/18/10 20/25/10 47/58/10
f 31/39/10 45/55/10 17/22/10 7/9/10
f 27/34/1 25/31/1 31/40/1
f 32/41/1 27/34/1 31/40/1
f 33/42/1 32/41/1 31/40/1
f 41/51/1 32/41/1 33/42/1
f 13/16/12 14/17/12 38/47/12 37/46/12
f 48/60/1 37/46/1 38/47/1
f 16/20/2 14/17/2 22/28/2
f 35/44/1 41/51/1 34/43/1
f 3/4/2 7/10/2 1/1/2
f 40/50/1 39/49/1 30/38/1
f 38/47/1 39/49/1 40/50/1
f 11/14/2 49/62/2 12/15/2
f 45/56/1 46/57/1 34/43/1
f 35/44/1 34/43/1 46/57/1
f 44/54/1 47/59/1 36/45/1
f 37/46/1 36/45/1 47/59/1
f 48/60/1 36/45/1 37/46/1
f 48/60/1 50/63/1 36/45/1
f 42/52/18 43/53/18 26/33/18
f 28/36/18 26/33/18 43/53/18
f 15/19/19 4/5/2 20/26/20
f 5/7/2 4/6/2 15/19/21
f 22/28/2 12/15/2 49/62/2
f 12/15/2 22/28/2 13/16/2
