# Blender v2.78 (sub 0) OBJ File: ''
# www.blender.org
mtllib peeled_potato.mtl
o avocado
v 0.000000 -0.035161 0.086717
v -0.038816 -0.119820 0.022410
v -0.000000 -0.119820 0.044820
v -0.075099 -0.035161 0.043359
v 0.038816 -0.119820 0.022410
v 0.075099 -0.035161 -0.043359
v 0.075099 -0.035161 0.043359
v 0.038816 -0.119820 -0.022410
v 0.000000 -0.035161 -0.086717
v -0.000000 -0.119820 -0.044820
v -0.038816 -0.119820 -0.022410
v 0.000000 0.119823 0.043359
v -0.037550 0.119823 -0.021679
v -0.037550 0.119823 0.021679
v 0.000000 0.119823 -0.043359
v 0.037550 0.119823 0.021679
v 0.037550 0.119823 -0.021679
v -0.075099 -0.035161 -0.043359
v 0.075099 0.035161 0.043359
v 0.000000 0.035161 0.086717
v -0.075099 0.035161 -0.043359
v -0.075099 0.035161 0.043359
v 0.000000 0.035161 -0.086717
v 0.075099 0.035161 -0.043359
vt 3.2087 5.4749
vt -2.2597 1.7079
vt 2.2597 1.7079
vt -3.2087 5.4749
vt -2.2597 1.7079
vt 3.2087 5.4749
vt -3.2087 5.4749
vt 2.2597 1.7079
vt 3.2087 5.4749
vt -2.2597 1.7079
vt 2.2597 1.7079
vt -3.2087 5.4749
vt 0.0000 4.5193
vt 3.9138 -2.2597
vt 3.9138 2.2597
vt 0.0000 -4.5193
vt -3.9138 2.2597
vt -3.9138 -2.2597
vt 0.0000 -3.2087
vt -2.7788 1.6044
vt -2.7788 -1.6044
vt 0.0000 3.2087
vt 2.7788 -1.6044
vt 2.7788 1.6044
vt 3.2087 5.4749
vt -2.2597 1.7079
vt 2.2597 1.7079
vt -3.2087 5.4749
vt -3.2087 5.4749
vt 2.2597 1.7079
vt 3.2087 5.4749
vt -2.2597 1.7079
vt 3.2087 5.4749
vt -2.2597 1.7079
vt 2.2597 1.7079
vt -3.2087 5.4749
vt 3.2087 8.5936
vt -3.2087 3.3895
vt 3.2087 3.3895
vt -3.2087 8.5936
vt -3.2087 8.5936
vt 3.2087 3.3895
vt 3.2087 8.5936
vt -3.2087 3.3895
vt 3.2087 8.5936
vt -3.2087 3.3895
vt 3.2087 3.3895
vt -3.2087 8.5936
vt 3.2087 3.3895
vt -3.2087 8.5936
vt -3.2087 3.3895
vt 3.2087 8.5936
vt 3.2087 8.5936
vt -3.2087 3.3895
vt 3.2087 3.3895
vt -3.2087 8.5936
vt 1.6044 13.7653
vt -3.2087 6.0254
vt 3.2087 6.0254
vt -1.6044 13.7653
vt 3.2087 8.5936
vt -3.2087 3.3895
vt 3.2087 3.3895
vt -3.2087 8.5936
vt 1.6044 13.7653
vt -3.2087 6.0254
vt 3.2087 6.0254
vt -1.6044 13.7653
vt 1.6044 13.7653
vt -3.2087 6.0254
vt 3.2087 6.0254
vt -1.6044 13.7653
vt 3.2087 6.0254
vt -1.6044 13.7653
vt -3.2087 6.0254
vt 1.6044 13.7653
vt 1.6044 13.7653
vt -3.2087 6.0254
vt 3.2087 6.0254
vt -1.6044 13.7653
vt 1.6044 13.7653
vt -3.2087 6.0254
vt 3.2087 6.0254
vt -1.6044 13.7653
vn -0.4596 -0.3939 0.7960
vn 0.9191 -0.3939 0.0000
vn 0.4596 -0.3939 -0.7960
vn 0.0000 -1.0000 0.0000
vn 0.0000 1.0000 0.0000
vn -0.4596 -0.3939 -0.7960
vn -0.9191 -0.3939 0.0000
vn 0.4596 -0.3939 0.7960
vn 0.5000 0.0000 0.8660
vn -1.0000 0.0000 0.0000
vn -0.5000 0.0000 -0.8660
vn 1.0000 0.0000 0.0000
vn 0.5000 0.0000 -0.8660
vn 0.4571 0.4054 -0.7917
vn -0.5000 0.0000 0.8660
vn 0.4571 0.4054 0.7917
vn -0.4571 0.4054 -0.7917
vn 0.9141 0.4054 0.0000
vn -0.4571 0.4054 0.7917
vn -0.9141 0.4054 0.0000
usemtl Material
s 1
f 1/1/1 2/2/1 3/3/1
f 2/2/1 1/1/1 4/4/1
f 5/5/2 6/6/2 7/7/2
f 6/6/2 5/5/2 8/8/2
f 9/9/3 8/10/3 10/11/3
f 8/10/3 9/9/3 6/12/3
f 10/13/4 2/14/4 11/15/4
f 2/14/4 10/13/4 3/16/4
f 3/16/4 10/13/4 8/17/4
f 3/16/4 8/17/4 5/18/4
f 12/19/5 13/20/5 14/21/5
f 13/20/5 12/19/5 15/22/5
f 15/22/5 12/19/5 16/23/5
f 15/22/5 16/23/5 17/24/5
f 18/25/6 10/26/6 11/27/6
f 10/26/6 18/25/6 9/28/6
f 18/29/7 2/30/7 4/31/7
f 2/30/7 18/29/7 11/32/7
f 7/33/8 3/34/8 5/35/8
f 3/34/8 7/33/8 1/36/8
f 19/37/9 1/38/9 7/39/9
f 1/38/9 19/37/9 20/40/9
f 21/41/10 4/42/10 22/43/10
f 4/42/10 21/41/10 18/44/10
f 21/45/11 9/46/11 18/47/11
f 9/46/11 21/45/11 23/48/11
f 6/49/12 19/50/12 7/51/12
f 19/50/12 6/49/12 24/52/12
f 23/53/13 6/54/13 9/55/13
f 6/54/13 23/53/13 24/56/13
f 15/57/14 24/58/14 23/59/14
f 24/58/14 15/57/14 17/60/14
f 20/61/15 4/62/15 1/63/15
f 4/62/15 20/61/15 22/64/15
f 16/65/16 20/66/16 19/67/16
f 20/66/16 16/65/16 12/68/16
f 13/69/17 23/70/17 21/71/17
f 23/70/17 13/69/17 15/72/17
f 24/73/18 16/74/18 19/75/18
f 16/74/18 24/73/18 17/76/18
f 12/77/19 22/78/19 20/79/19
f 22/78/19 12/77/19 14/80/19
f 14/81/20 21/82/20 22/83/20
f 21/82/20 14/81/20 13/84/20
