# Blender 3.4.1
# www.blender.org
mtllib MicrowaveHandle.mtl
o fridgeDoor1.001_ID25.000
v 0.012300 0.000224 -0.136530
v 0.012300 0.000224 0.136530
v -0.012300 0.000224 0.136530
v -0.012300 0.000224 -0.136530
v 0.012300 0.035648 0.000000
v -0.012300 0.035648 0.000000
v 0.012300 -0.018048 -0.136530
v 0.012300 -0.018048 0.136530
v -0.012300 -0.018048 0.136530
v -0.012300 -0.018048 -0.136530
vn -0.0000 -0.0000 1.0000
vn -0.0000 -0.0000 -1.0000
vn 1.0000 -0.0000 -0.0000
vn -1.0000 -0.0000 -0.0000
vn -0.0000 0.9679 -0.2511
vn -0.0000 0.9679 0.2511
vn -0.0000 -1.0000 -0.0000
vt 0.000000 0.000000
vt 0.000000 0.000000
vt 0.000000 0.000000
vt 0.000000 0.000000
vt 0.000000 0.000000
vt 0.000000 0.000000
vt 0.000000 0.000000
vt 0.000000 0.000000
vt 0.000000 0.000000
vt 0.000000 0.000000
s 0
usemtl metalMedium.004
f 2/2/1 3/3/1 9/9/1 8/8/1
f 4/4/2 1/1/2 7/7/2 10/10/2
f 2/2/3 1/1/3 5/5/3
f 4/4/4 3/3/4 6/6/4
f 6/6/5 5/5/5 4/4/5
f 3/3/6 2/2/6 6/6/6
f 6/6/6 2/2/6 5/5/6
f 4/4/5 5/5/5 1/1/5
f 9/9/7 7/7/7 8/8/7
f 7/7/7 9/9/7 10/10/7
f 1/1/3 2/2/3 8/8/3 7/7/3
f 3/3/4 4/4/4 10/10/4 9/9/4
