# Blender 3.4.1
# www.blender.org
mtllib CeleryLeavesCollider.mtl
o leek.003
v 0.011976 0.026811 -0.068254
v -0.012088 0.026811 -0.068254
v -0.021472 0.071036 0.021770
v 0.021472 0.071036 0.021770
v -0.018861 -0.071910 -0.005028
v -0.012088 -0.027965 -0.069326
v 0.011976 -0.027965 -0.069326
v 0.018861 -0.071910 -0.005028
v -0.071420 -0.016225 -0.004762
v -0.071420 0.016225 -0.004762
v -0.027357 -0.011892 -0.068891
v -0.027357 0.012172 -0.068891
v 0.027818 -0.011892 -0.069201
v 0.071769 -0.016391 -0.004952
v 0.027818 0.012172 -0.069201
v 0.071769 0.016391 -0.004952
v 0.045525 -0.016391 0.064823
v 0.045525 0.016391 0.064823
v -0.046734 -0.016225 0.064364
v -0.046734 0.016225 0.064364
v -0.018861 -0.045913 0.041054
v 0.018861 -0.045913 0.041054
vn 0.7706 0.5676 0.2898
vn -0.0034 0.6163 0.7875
vn -0.9418 -0.0000 0.3363
vn -0.7732 0.5709 0.2761
vn 0.9360 -0.0000 0.3520
vn -0.5742 0.7032 -0.4193
vn 0.5673 0.7089 -0.4191
vn -0.0048 0.0167 -0.9998
vn 0.6337 -0.6072 -0.4794
vn -0.6402 -0.6005 -0.4791
vn -0.0050 -0.0000 1.0000
vn 0.8254 -0.0000 -0.5646
vn -0.0000 0.8975 -0.4409
vn -0.8242 -0.0000 -0.5663
vn -0.0000 -0.8256 -0.5643
vn -0.6772 -0.6409 0.3616
vn -0.0036 -0.6224 0.7827
vn -0.0000 -0.8710 0.4914
vn -0.6185 -0.7541 0.2209
vn 0.6207 -0.7485 0.2334
vn 0.6743 -0.6431 0.3628
vt 0.000000 0.000000
vt 0.577198 16.328779
vt 0.000000 0.000000
vt -0.577198 16.328779
vt -0.435827 23.212910
vt 0.435827 23.212910
vt 0.435827 20.418680
vt 0.000000 0.000000
vt 0.577198 16.325109
vt 0.000000 0.000000
vt -0.577198 16.325109
vt -0.435827 20.418680
vt -0.435827 20.418680
vt 0.435827 20.418680
vt 0.000000 0.000000
vt -0.577198 16.325109
vt 0.000000 0.000000
vt 0.577198 16.325109
vt 0.000000 0.000000
vt 0.000000 0.000000
vt 0.435827 20.418680
vt 0.000000 0.000000
vt -0.435827 20.418680
vt 0.000000 0.000000
vt 0.435827 26.980150
vt -0.435827 26.980150
vt -0.435827 26.980150
vt 0.435827 26.980150
vt 0.435827 23.891550
vt -0.435827 23.891550
s 0
usemtl green.006
f 4/6/1 18/26/1 16/24/1
f 3/5/2 20/28/2 18/26/2 4/6/2
f 9/13/3 19/27/3 20/28/3 10/14/3
f 20/28/4 3/5/4 10/14/4
f 18/26/5 17/25/5 14/21/5 16/23/5
f 12/18/6 10/14/6 3/5/6 2/4/6
f 1/2/7 4/6/7 16/24/7 15/22/7
f 15/22/8 13/19/8 7/10/8 6/8/8 11/15/8 12/17/8 2/3/8 1/1/8
f 7/11/9 13/19/9 14/20/9 8/12/9
f 6/9/10 5/7/10 9/13/10 11/16/10
f 18/26/11 20/28/11 19/27/11 17/25/11
f 14/20/12 13/19/12 15/22/12 16/24/12
f 1/2/13 2/4/13 3/5/13 4/6/13
f 12/18/14 11/16/14 9/13/14 10/14/14
f 7/11/15 8/12/15 5/7/15 6/9/15
f 5/7/16 21/29/16 9/13/16
f 21/29/17 22/30/17 17/25/17 19/27/17
f 21/29/18 5/7/18 8/12/18 22/30/18
f 19/27/19 9/13/19 21/29/19
f 17/25/20 22/30/20 14/21/20
f 8/12/21 14/21/21 22/30/21
