# Blender 3.4.1
# www.blender.org
mtllib CeleryStickCollider.mtl
o celeryStick
v -0.002702 -0.004675 0.216000
v -0.002702 -0.004675 -0.000000
v -0.004742 -0.011290 0.216000
v -0.004742 -0.011290 -0.000000
v -0.007354 -0.006204 0.216000
v -0.007354 -0.006204 -0.000000
v 0.001440 -0.009258 -0.000000
v 0.001440 -0.009258 0.216000
vn -0.8896 -0.4568 -0.0000
vn -0.3122 0.9500 -0.0000
vn -0.5006 0.8657 -0.0000
vn -0.0000 -0.0000 -1.0000
vn -0.0000 -0.0000 1.0000
vn 0.5006 -0.8657 -0.0000
vn 0.3122 -0.9500 -0.0000
vn 0.7419 0.6705 -0.0000
vn 0.7307 0.6603 -0.1736
vt 0.580631 21.259840
vt -0.332384 -0.718960
vt 0.580631 0.000000
vt 0.332384 -0.718960
vt 1.384321 21.259840
vt -0.583453 -1.736220
vt -1.199389 21.259840
vt 1.384321 0.000000
vt 0.583453 -1.736220
vt -1.199389 0.000000
vt 0.538748 21.259840
vt 1.199389 21.259840
vt -0.904736 -0.954063
vt 0.538748 0.000000
vt 1.199389 0.000000
vt 0.904736 -0.954063
vt -0.177167 -1.423784
vt -0.377100 0.000000
vt -0.377100 21.259840
vt 0.177167 -1.423784
s 0
usemtl green
f 5/11/1 4/8/1 3/5/1
f 4/8/1 5/11/1 6/14/1
f 5/12/2 2/3/3 6/15/2
f 2/3/3 5/12/2 1/1/3
f 1/2/8 8/20/8 7/18/9 2/4/8
usemtl greenDark
f 4/9/4 2/4/4 7/17/4
f 2/4/4 4/9/4 6/16/4
f 3/6/5 1/2/5 5/13/5
f 1/2/5 3/6/5 8/20/5
f 8/19/6 4/10/7 7/18/6
f 4/10/7 8/19/6 3/7/7
o celeryStick.001
v -0.002702 0.004675 0.000000
v -0.007354 0.006204 0.000000
v -0.002702 0.004675 0.216000
v -0.007354 0.006204 0.216000
v -0.004742 0.011290 0.216000
v -0.004742 0.011290 0.000000
v 0.001440 0.009258 0.000000
v 0.001440 0.009258 0.216000
vn -0.5006 -0.8657 -0.0000
vn -0.3122 -0.9500 -0.0000
vn -0.8896 0.4568 -0.0000
vn -0.0000 -0.0000 -1.0000
vn 0.3122 0.9500 -0.0000
vn 0.5006 0.8657 -0.0000
vn -0.0000 -0.0000 1.0000
vn 0.7419 -0.6705 -0.0000
vn 0.6683 -0.7271 -0.1574
vt -0.580631 0.000000
vt 0.332384 0.718960
vt -1.199389 0.000000
vt -0.538748 0.000000
vt 0.904736 0.954063
vt -0.580631 21.259840
vt -0.332384 0.718960
vt -1.199389 21.259840
vt -0.538748 21.259840
vt -0.904736 0.954063
vt -1.384321 21.259840
vt 1.199389 21.259840
vt -0.583453 1.736220
vt -1.384321 0.000000
vt 0.583453 1.736220
vt 1.199389 0.000000
vt -0.177167 1.423784
vt 0.377100 0.000000
vt 0.377100 21.259840
vt 0.177167 1.423784
s 0
usemtl green
f 11/26/10 10/23/11 9/21/10
f 10/23/11 11/26/10 12/28/11
f 13/31/12 10/24/12 12/29/12
f 10/24/12 13/31/12 14/34/12
f 11/27/17 9/22/17 15/38/18 16/40/17
usemtl greenDark
f 14/35/13 9/22/13 10/25/13
f 9/22/13 14/35/13 15/37/13
f 13/32/14 15/38/15 14/36/14
f 15/38/15 13/32/14 16/39/15
f 13/33/16 11/27/16 16/40/16
f 11/27/16 13/33/16 12/30/16
o celeryStick.002
v -0.002702 0.004675 0.000000
v -0.002702 0.004675 0.216000
v -0.000505 0.002625 0.216000
v -0.000505 0.002625 0.000000
v 0.001440 0.009258 0.000000
v 0.005790 0.005198 0.000000
v 0.001440 0.009258 0.216000
v 0.005790 0.005198 0.216000
vn -0.5007 -0.8656 -0.0000
vn -0.8427 -0.5383 -0.0000
vn -0.8775 0.4743 -0.0706
vn -0.7307 0.6603 0.1736
vn -0.7922 0.5878 -0.1637
vn 0.5007 0.8656 -0.0000
vn 0.8427 0.5383 -0.0000
vn 0.2553 0.1631 0.9530
vn 0.2355 0.2027 0.9505
vn 0.2010 0.2522 0.9466
vn -0.1313 0.3133 0.9405
vn 0.2553 0.1631 -0.9530
vn 0.1663 0.2875 -0.9432
vn 0.1954 0.2587 -0.9460
vn 0.2309 0.2105 -0.9499
vn 0.3736 -0.9140 -0.1581
vn 0.3785 -0.9120 0.1582
vn 0.3736 -0.9140 0.1581
vt -0.762187 0.000000
vt -0.762187 21.259840
vt -0.346961 21.259840
vt -0.346961 0.000000
vt 0.965719 0.000000
vt 0.143430 0.000000
vt 0.965719 21.259840
vt 0.143430 21.259840
s 0
usemtl green
f 18/42/19 20/44/20 19/43/20
f 20/44/20 18/42/19 17/41/19
f 18/42/21 23/47/22 21/45/23 17/41/22
f 19/43/26 24/48/27 23/47/28 18/42/29
f 20/44/30 17/41/31 21/45/32 22/46/33
usemtl greenDark
f 21/45/24 24/48/25 22/46/25
f 24/48/25 21/45/24 23/47/24
f 22/46/34 24/48/35 19/43/34 20/44/36
o celeryStick.003
v -0.000505 0.002625 0.216000
v -0.000505 0.002625 0.000000
v 0.000285 -0.000000 0.216000
v 0.000285 -0.000000 -0.000000
v 0.005790 0.005198 0.000000
v 0.007354 -0.000000 -0.000000
v 0.005790 0.005198 0.216000
v 0.007354 -0.000000 0.216000
vn -0.8428 -0.5383 -0.0000
vn -1.0000 -0.0000 -0.0000
vn 0.8428 0.5383 -0.0000
vn 1.0000 -0.0000 -0.0000
vn 1.0000 -0.0000 0.0001
vn 0.8428 0.5383 -0.0001
vn 0.2855 0.0469 0.9572
vn -0.1013 0.3295 0.9387
vn 0.2553 0.1631 0.9530
vn 0.2881 -0.0000 0.9576
vn -0.1891 0.9820 -0.0000
vn -0.3736 0.9140 0.1581
vn -0.5501 0.8327 -0.0638
vn -0.1892 0.9819 0.0039
vn 0.2843 0.0566 -0.9570
vn 0.2881 -0.0000 -0.9576
vn 0.2553 0.1631 -0.9530
vn -0.1084 0.3261 -0.9391
vn -0.0001 -0.9883 -0.1522
vn 0.0049 -0.9883 0.1522
vn -0.0000 -0.9883 -0.1522
vn -0.0000 -0.9883 0.1522
vt -0.407033 21.259840
vt -0.407033 0.000000
vt 0.008194 21.259840
vt 0.008194 0.000000
vt 0.610564 0.000000
vt 0.143430 0.000000
vt -0.211725 0.000000
vt 0.610564 21.259840
vt 0.143430 21.259840
vt -0.211725 21.259840
s 0
usemtl green
f 25/49/37 28/52/38 27/51/38
f 28/52/38 25/49/37 26/50/37
usemtl greenDark
f 29/53/39 32/58/40 30/55/41
f 32/58/40 29/53/39 31/56/42
f 32/58/43 31/57/44 25/49/45 27/51/46
f 29/54/47 26/50/48 25/49/49 31/57/50
f 30/55/51 28/52/52 26/50/53 29/54/54
f 30/55/55 32/58/56 27/51/57 28/52/58
o celeryStick.004
v -0.000505 -0.002625 0.216000
v -0.000505 -0.002625 -0.000000
v 0.000285 -0.000000 0.216000
v 0.000285 -0.000000 -0.000000
v 0.005790 -0.005198 -0.000000
v 0.007354 -0.000000 -0.000000
v 0.005790 -0.005198 0.216000
v 0.007354 -0.000000 0.216000
vn -1.0000 -0.0000 -0.0000
vn -0.8428 0.5383 -0.0000
vn 1.0000 -0.0000 -0.0000
vn 0.8428 -0.5383 -0.0000
vn 0.8428 -0.5383 0.0001
vn 1.0000 -0.0000 -0.0001
vn -0.0660 -0.3426 0.9371
vn 0.2553 -0.1631 0.9530
vn 0.2707 -0.1204 0.9551
vn 0.0297 0.3501 0.9362
vn 0.1891 0.9820 0.0001
vn 0.1891 0.9820 -0.0000
vn -0.1740 0.9829 -0.0595
vn 0.1890 0.9820 0.0039
vn -0.0660 -0.3426 -0.9371
vn 0.0220 0.3510 -0.9361
vn 0.2734 -0.1112 -0.9555
vn 0.2553 -0.1631 -0.9530
vn -0.3737 -0.9140 -0.1581
vn -0.3688 -0.9160 0.1579
vn -0.3736 -0.9140 -0.1581
vn -0.3736 -0.9140 0.1581
vt 0.407033 21.259840
vt 0.407033 0.000000
vt 0.008194 21.259840
vt -0.008194 21.259840
vt -0.008194 0.000000
vt 0.008194 0.000000
vt -0.610564 0.000000
vt 0.211725 0.000000
vt -0.211725 0.000000
vt -0.610564 21.259840
vt 0.211725 21.259840
vt -0.211725 21.259840
s 0
usemtl green
f 35/62/59 34/60/60 33/59/60
f 34/60/60 35/62/59 36/63/59
f 35/61/65 33/59/66 39/68/67 40/70/68
f 36/64/73 38/67/74 37/65/75 34/60/76
usemtl greenDark
f 38/66/61 39/68/62 37/65/63
f 39/68/62 38/66/61 40/69/64
f 38/67/69 36/64/70 35/62/71 40/70/72
f 37/65/77 39/68/78 33/59/79 34/60/80
o celeryStick.005
v -0.002702 -0.004675 0.216000
v -0.002702 -0.004675 -0.000000
v -0.000505 -0.002625 0.216000
v -0.000505 -0.002625 -0.000000
v 0.001440 -0.009258 -0.000000
v 0.005790 -0.005198 -0.000000
v 0.001440 -0.009258 0.216000
v 0.005790 -0.005198 0.216000
vn -0.8427 0.5383 -0.0000
vn -0.5007 0.8656 -0.0000
vn 0.8427 -0.5383 -0.0000
vn 0.5007 -0.8656 -0.0000
vn -0.1850 -0.2698 0.9450
vn -0.0000 -0.0000 1.0000
vn 0.1954 -0.2587 0.9460
vn 0.1549 0.2968 0.9423
vn 0.5655 0.8247 0.0001
vn 0.5655 0.8247 -0.0000
vn 0.2035 0.9773 -0.0597
vn 0.5655 0.8248 0.0042
vn -0.1850 -0.2698 -0.9450
vn 0.1483 0.3018 -0.9418
vn 0.2010 -0.2522 -0.9466
vn -0.0000 -0.0000 -1.0000
vn -0.7419 -0.6705 -0.0000
vn -0.7307 -0.6603 -0.1736
vn -0.7264 -0.6650 0.1733
vt 0.762187 21.259840
vt -0.332384 -0.718960
vt 0.762187 0.000000
vt 0.332384 -0.718960
vt 0.407033 21.259840
vt 0.346961 21.259840
vt 0.346961 0.000000
vt 0.407033 0.000000
vt -0.965719 0.000000
vt -0.143430 0.000000
vt -0.610564 0.000000
vt -0.965719 21.259840
vt -0.143430 21.259840
vt -0.610564 21.259840
s 0
usemtl green
f 43/76/81 42/73/82 41/71/82
f 42/73/82 43/76/81 44/77/81
f 43/75/85 41/72/86 47/82/87 48/84/88
f 44/78/93 46/81/94 45/79/95 42/74/96
f 41/72/97 42/74/97 45/79/98 47/82/99
usemtl greenDark
f 46/80/83 47/82/84 45/79/84
f 47/82/84 46/80/83 48/83/83
f 46/81/89 44/78/90 43/76/91 48/84/92
