# Blender 3.4.1
# www.blender.org
mtllib CeleryCollider.mtl
o leek.001
v 0.010934 0.024443 0.131215
v -0.011021 0.024443 0.131215
v -0.021472 0.071036 0.305310
v 0.021472 0.071036 0.305310
v -0.018861 -0.071910 0.278512
v -0.011021 -0.025534 0.130238
v 0.010934 -0.025534 0.130238
v 0.018861 -0.071910 0.278512
v -0.071420 -0.016225 0.278778
v -0.071420 0.016225 0.278778
v -0.024953 -0.010869 0.130634
v -0.024953 0.011086 0.130634
v 0.025388 -0.010869 0.130351
v 0.071769 -0.016391 0.278588
v 0.025388 0.011086 0.130351
v 0.071769 0.016391 0.278588
v 0.045525 -0.016391 0.348363
v 0.045525 0.016391 0.348363
v -0.046734 -0.016225 0.347904
v -0.046734 0.016225 0.347904
v -0.018861 -0.045913 0.324594
v 0.018861 -0.045913 0.324594
vn 0.7706 0.5676 0.2898
vn -0.0034 0.6163 0.7875
vn -0.9418 -0.0000 0.3363
vn -0.7732 0.5709 0.2761
vn 0.9360 -0.0000 0.3520
vn -0.6623 0.7126 -0.2314
vn 0.6559 0.7185 -0.2315
vn 0.6997 -0.6709 -0.2456
vn -0.7057 -0.6647 -0.2453
vn -0.0050 -0.0000 1.0000
vn 0.9544 -0.0000 -0.2986
vn -0.0000 0.9660 -0.2585
vn -0.9542 -0.0000 -0.2993
vn -0.0000 -0.9544 -0.2985
vn -0.6772 -0.6409 0.3615
vn -0.0036 -0.6224 0.7827
vn -0.0000 -0.8710 0.4914
vn -0.6185 -0.7541 0.2209
vn 0.6207 -0.7485 0.2334
vn 0.6743 -0.6431 0.3628
vn -0.0048 0.0167 -0.9998
vt 0.577198 16.328779
vt -0.577198 16.328779
vt -0.435827 23.212910
vt 0.435827 23.212910
vt 0.435827 20.418680
vt 0.577198 16.325109
vt -0.577198 16.325109
vt -0.435827 20.418680
vt -0.435827 20.418680
vt 0.435827 20.418680
vt -0.577198 16.325109
vt 0.577198 16.325109
vt 0.000000 0.000000
vt 0.000000 0.000000
vt 0.435827 20.418680
vt 0.000000 0.000000
vt -0.435827 20.418680
vt 0.000000 0.000000
vt 0.435827 26.980150
vt -0.435827 26.980150
vt -0.435827 26.980150
vt 0.435827 26.980150
vt 0.435827 23.891550
vt -0.435827 23.891550
s 0
usemtl green.004
f 4/4/1 18/20/1 16/18/1
f 3/3/2 20/22/2 18/20/2 4/4/2
f 9/9/3 19/21/3 20/22/3 10/10/3
f 20/22/4 3/3/4 10/10/4
f 18/20/5 17/19/5 14/15/5 16/17/5
f 12/12/6 10/10/6 3/3/6 2/2/6
f 1/1/7 4/4/7 16/18/7 15/16/7
f 7/7/8 13/13/8 14/14/8 8/8/8
f 6/6/9 5/5/9 9/9/9 11/11/9
f 18/20/10 20/22/10 19/21/10 17/19/10
f 14/14/11 13/13/11 15/16/11 16/18/11
f 1/1/12 2/2/12 3/3/12 4/4/12
f 12/12/13 11/11/13 9/9/13 10/10/13
f 7/7/14 8/8/14 5/5/14 6/6/14
f 5/5/15 21/23/15 9/9/15
f 21/23/16 22/24/16 17/19/16 19/21/16
f 21/23/17 5/5/17 8/8/17 22/24/17
f 19/21/18 9/9/18 21/23/18
f 17/19/19 22/24/19 14/15/19
f 8/8/20 14/15/20 22/24/20
f 1/1/21 15/16/21 13/13/21 7/7/21 6/6/21 11/11/21 12/12/21 2/2/21
o leek.003
v 0.010934 0.024443 0.131215
v -0.011021 0.024443 0.131215
v -0.011021 -0.025534 0.130238
v 0.010934 -0.025534 0.130238
v -0.024953 -0.010869 0.130634
v -0.024953 0.011086 0.130634
v 0.025388 -0.010869 0.130351
v 0.025388 0.011086 0.130351
v 0.010934 0.024443 0.015413
v -0.011021 0.024443 0.015413
v -0.011021 -0.025534 0.014435
v 0.010934 -0.025534 0.014435
v -0.024953 -0.010869 0.014832
v -0.024953 0.011086 0.014832
v 0.025388 -0.010869 0.014549
v 0.025388 0.011086 0.014549
v 0.006748 0.014924 0.000096
v -0.006733 0.014924 0.000096
v -0.006733 -0.015763 -0.000505
v 0.006748 -0.015763 -0.000505
v -0.015288 -0.006758 -0.000261
v -0.015288 0.006723 -0.000261
v 0.015623 -0.006758 -0.000435
v 0.015623 0.006723 -0.000435
vn -0.7250 -0.6887 -0.0000
vn -0.0000 -0.8369 -0.5474
vn -1.0000 -0.0000 -0.0000
vn -0.0000 -1.0000 -0.0000
vn 1.0000 -0.0000 -0.0000
vn -0.0000 1.0000 -0.0000
vn -0.6921 0.7218 -0.0000
vn 0.6787 0.7344 -0.0000
vn 0.7122 -0.7020 -0.0000
vn 0.5518 0.6323 -0.5438
vn -0.5692 0.6174 -0.5430
vn -0.8421 -0.0000 -0.5393
vn -0.0000 0.8494 -0.5278
vn 0.8378 -0.0000 -0.5460
vn 0.5972 -0.5843 -0.5495
vn -0.6139 -0.5683 -0.5479
vn -0.0048 0.0167 -0.9998
vn 0.0048 -0.0167 0.9998
vt 0.577198 16.328779
vt -0.577198 16.328779
vt 0.577198 16.325109
vt -0.577198 16.325109
vt -0.577198 16.325109
vt 0.577198 16.325109
vt 0.000000 0.000000
vt 0.000000 0.000000
vt 0.577198 16.328779
vt -0.577198 16.328779
vt 0.577198 16.325109
vt -0.577198 16.325109
vt -0.577198 16.325109
vt 0.577198 16.325109
vt 0.000000 0.000000
vt 0.000000 0.000000
vt 0.577198 16.328779
vt -0.577198 16.328779
vt 0.577198 16.325109
vt -0.577198 16.325109
vt -0.577198 16.325109
vt 0.577198 16.325109
vt 0.000000 0.000000
vt 0.000000 0.000000
s 0
usemtl green.004
f 25/27/22 27/29/22 35/37/22 33/35/22
f 34/36/23 33/35/23 41/43/23 42/44/23
f 27/29/24 28/30/24 36/38/24 35/37/24
f 26/28/25 25/27/25 33/35/25 34/36/25
f 30/32/26 29/31/26 37/39/26 38/40/26
f 24/26/27 23/25/27 31/33/27 32/34/27
f 28/30/28 24/26/28 32/34/28 36/38/28
f 23/25/29 30/32/29 38/40/29 31/33/29
f 29/31/30 26/28/30 34/36/30 37/39/30
f 31/33/31 38/40/31 46/48/31 39/41/31
f 36/38/32 32/34/32 40/42/32 44/46/32
f 35/37/33 36/38/33 44/46/33 43/45/33
f 32/34/34 31/33/34 39/41/34 40/42/34
f 38/40/35 37/39/35 45/47/35 46/48/35
f 37/39/36 34/36/36 42/44/36 45/47/36
f 33/35/37 35/37/37 43/45/37 41/43/37
f 40/42/38 39/41/38 46/48/38 45/47/38 42/44/38 41/43/38 43/45/38 44/46/38
f 23/25/39 24/26/39 28/30/39 27/29/39 25/27/39 26/28/39 29/31/39 30/32/39
