# Blender 3.4.1
# www.blender.org
mtllib chopedCeleryStick.mtl
o celeryStick
v -0.002702 0.004675 0.000000
v -0.007354 0.006204 0.000000
v -0.002702 0.004675 0.008252
v -0.007354 0.006204 0.008252
v -0.004742 0.011290 0.008252
v -0.004742 0.011290 0.000000
v -0.002702 -0.004675 0.008252
v -0.002702 -0.004675 0.000000
v -0.000505 -0.002625 0.008252
v -0.000505 -0.002625 0.000000
v -0.004742 -0.011290 0.008252
v -0.004742 -0.011290 0.000000
v -0.007354 -0.006204 0.008252
v -0.007354 -0.006204 0.000000
v -0.000505 0.002625 0.008252
v -0.000505 0.002625 0.000000
v 0.000285 0.000000 0.008252
v 0.000285 0.000000 0.000000
v 0.001440 0.009258 0.000000
v 0.001440 -0.009258 0.000000
v 0.005790 0.005198 0.000000
v 0.005790 -0.005198 0.000000
v 0.007354 0.000000 0.000000
v 0.001440 0.009258 0.008252
v 0.005790 0.005198 0.008252
v 0.001440 -0.009258 0.008252
v 0.005790 -0.005198 0.008252
v 0.007354 0.000000 0.008252
vn -0.4862 -0.8704 0.0773
vn -0.3122 -0.9500 -0.0000
vn -0.5006 -0.8657 -0.0000
vn -0.8895 0.4568 -0.0000
vn -0.8427 0.5383 -0.0000
vn -0.6505 0.7258 0.2236
vn -0.5007 0.8656 -0.0000
vn -0.6766 0.6933 -0.2479
vn -0.8895 -0.4568 -0.0000
vn -0.5007 -0.8656 -0.0000
vn -0.6766 -0.6933 0.2479
vn -0.8427 -0.5383 -0.0000
vn -0.6505 -0.7258 -0.2236
vn -0.3122 0.9500 -0.0000
vn -0.5006 0.8657 -0.0000
vn -0.4862 0.8704 -0.0773
vn -1.0000 -0.0000 -0.0000
vn -0.9150 0.2982 0.2717
vn -0.8428 0.5383 -0.0000
vn -0.9236 0.2539 -0.2873
vn -0.8428 -0.5383 -0.0000
vn -0.9236 -0.2539 0.2873
vn -0.9150 -0.2982 -0.2717
vn -0.0000 -0.0000 -1.0000
vn 0.3123 0.9500 -0.0000
vn 0.4835 0.8713 0.0841
vn 0.4981 0.8665 0.0327
vn 0.5006 0.8657 -0.0000
vn 0.5134 0.8538 0.0866
vn 0.8407 0.5402 -0.0372
vn 0.8427 0.5383 0.0001
vn 0.8287 0.5514 -0.0959
vn 0.5026 0.8639 0.0335
vn 0.5007 0.8656 -0.0000
vn -0.0000 -0.0000 1.0000
vn 0.8481 0.5207 0.0984
vn 0.9992 0.0027 -0.0401
vn 1.0000 -0.0000 0.0001
vn 0.9944 0.0186 -0.1040
vn 0.8435 0.5357 0.0380
vn 0.8428 0.5383 -0.0000
vn 0.9944 -0.0186 0.1040
vn 0.8435 -0.5357 -0.0380
vn 0.8428 -0.5383 -0.0000
vn 0.8481 -0.5207 -0.0984
vn 0.9992 -0.0027 0.0401
vn 1.0000 -0.0000 -0.0001
vn 0.8287 -0.5514 0.0959
vn 0.5026 -0.8639 -0.0335
vn 0.5007 -0.8656 -0.0000
vn 0.5134 -0.8538 -0.0866
vn 0.8407 -0.5402 0.0372
vn 0.8427 -0.5383 -0.0001
vn 0.4981 -0.8665 -0.0327
vn 0.3123 -0.9500 -0.0000
vn 0.5006 -0.8657 -0.0000
vn 0.4835 -0.8713 -0.0841
vt -0.580631 0.000000
vt -0.762187 0.000000
vt 0.332384 0.718960
vt -1.199389 0.000000
vt -0.538748 0.000000
vt 0.904736 0.954063
vt -0.580631 21.259840
vt -0.762187 21.259840
vt -0.332384 0.718960
vt -1.199389 21.259840
vt -0.538748 21.259840
vt -0.904736 0.954063
vt -1.384321 21.259840
vt 1.199389 21.259840
vt -0.583453 1.736220
vt -1.384321 0.000000
vt 0.583453 1.736220
vt 1.199389 0.000000
vt 0.762187 21.259840
vt 0.580631 21.259840
vt -0.332384 -0.718960
vt 0.762187 0.000000
vt 0.580631 0.000000
vt 0.332384 -0.718960
vt 0.346961 21.259840
vt 0.407033 21.259840
vt -0.062158 -0.403697
vt 0.346961 0.000000
vt 0.407033 0.000000
vt 0.062158 -0.403697
vt 1.384321 21.259840
vt -0.583453 -1.736220
vt -1.199389 21.259840
vt 1.384321 0.000000
vt 0.583453 -1.736220
vt -1.199389 0.000000
vt 0.538748 21.259840
vt 1.199389 21.259840
vt -0.904736 -0.954063
vt 0.538748 0.000000
vt 1.199389 0.000000
vt 0.904736 -0.954063
vt -0.346961 21.259840
vt -0.407033 21.259840
vt -0.062158 0.403697
vt -0.346961 0.000000
vt -0.407033 0.000000
vt 0.062158 0.403697
vt -0.008194 21.259840
vt 0.008194 21.259840
vt 0.035013 -0.000000
vt -0.008194 0.000000
vt 0.008194 0.000000
vt -0.035013 -0.000000
vt -0.177167 1.423784
vt 0.377100 0.000000
vt 0.965719 0.000000
vt -0.177167 -1.423784
vt -0.965719 0.000000
vt -0.377100 0.000000
vt -0.712305 0.799456
vt 0.143430 0.000000
vt 0.610564 0.000000
vt -0.712305 -0.799456
vt -0.610564 0.000000
vt -0.143430 0.000000
vt -0.904736 -0.000000
vt -0.211725 0.000000
vt 0.211725 0.000000
vt 0.377100 21.259840
vt 0.965719 21.259840
vt 0.177167 1.423784
vt 0.143430 21.259840
vt 0.712305 0.799456
vt 0.610564 21.259840
vt 0.177167 -1.423784
vt -0.965719 21.259840
vt -0.377100 21.259840
vt 0.712305 -0.799456
vt -0.610564 21.259840
vt -0.143430 21.259840
vt 0.904736 -0.000000
vt -0.211725 21.259840
vt 0.211725 21.259840
s 0
usemtl green.005
f 3/7/1 2/4/2 1/1/3
f 2/4/2 3/7/3 4/10/2
f 5/13/4 2/5/4 4/11/4
f 2/5/4 5/13/4 6/16/4
f 9/25/5 8/22/6 7/19/7
f 8/22/7 9/25/8 10/28/5
f 13/37/9 12/34/9 11/31/9
f 12/34/9 13/37/9 14/40/9
f 3/8/10 16/46/11 15/43/12
f 16/46/12 3/8/13 1/2/10
f 13/38/14 8/23/15 14/41/14
f 8/23/16 13/38/14 7/20/15
f 17/49/17 10/29/18 9/26/19
f 10/29/19 17/49/20 18/52/17
f 15/44/21 18/53/22 17/50/17
f 18/53/17 15/44/23 16/47/21
f 6/17/24 1/3/24 2/6/24
f 1/3/24 6/17/24 19/55/24
f 1/3/24 19/55/24 16/48/24
f 16/48/24 19/55/24 18/54/24
f 20/58/24 18/54/24 19/55/24
f 20/58/24 10/30/24 18/54/24
f 20/58/24 8/24/24 10/30/24
f 12/35/24 8/24/24 20/58/24
f 8/24/24 12/35/24 14/42/24
f 20/58/24 19/55/24 21/61/24
f 20/58/24 21/61/24 22/64/24
f 22/64/24 21/61/24 23/67/24
f 5/14/25 19/56/26 6/18/25
f 19/56/27 5/14/25 24/70/28
f 19/57/29 25/73/30 21/62/31
f 25/73/32 19/57/33 24/71/34
f 11/32/35 7/21/35 13/39/35
f 7/21/35 11/32/35 26/76/35
f 7/21/35 26/76/35 9/27/35
f 9/27/35 26/76/35 17/51/35
f 24/72/35 17/51/35 26/76/35
f 24/72/35 15/45/35 17/51/35
f 24/72/35 3/9/35 15/45/35
f 5/15/35 3/9/35 24/72/35
f 3/9/35 5/15/35 4/12/35
f 24/72/35 26/76/35 27/79/35
f 24/72/35 27/79/35 25/74/35
f 25/74/35 27/79/35 28/82/35
f 21/63/36 28/83/37 23/68/38
f 28/83/39 21/63/40 25/75/41
f 23/69/42 27/80/43 22/65/44
f 27/80/45 23/69/46 28/84/47
f 22/66/48 26/77/49 20/59/50
f 26/77/51 22/66/52 27/81/53
f 26/78/54 12/36/55 20/60/56
f 12/36/55 26/78/57 11/33/55
