# Blender v2.78 (sub 0) OBJ File: ''
# www.blender.org
mtllib bakingtray_collision.mtl
o bakingTray1.001_ID14.005_bakingTray1.001_ID14.000
v -0.203987 -0.102973 -0.003176
v -0.229199 -0.115699 0.041176
v -0.248258 -0.121733 0.041176
v -0.219698 -0.107729 -0.041192
v -0.219698 0.107729 -0.041192
v -0.203987 0.102973 -0.003176
v -0.248258 0.121733 0.041176
v -0.229199 0.115699 0.041176
vt 0.0000 0.0000
vt 0.0000 0.0000
vt 0.0000 0.0000
vt 0.0000 0.0000
vt 0.0000 0.0000
vt 0.0000 0.0000
vt 0.0000 0.0000
vt 0.0000 0.0000
vn 0.7290 -0.6419 -0.2380
vn 0.2665 -0.7211 0.6395
vn 0.2453 -0.6638 0.7065
vn 0.8645 -0.3883 -0.3190
vn 0.8645 0.3883 -0.3190
vn 0.7290 0.6419 -0.2380
vn 0.2453 0.6638 0.7065
vn 0.2665 0.7211 0.6395
vn 0.8694 0.0000 0.4942
vn -0.9448 0.0000 -0.3276
usemtl metalMedium.001
s 1
f 1/1/1 2/2/2 3/3/3 4/4/4
f 1/1/1 4/4/4 5/5/5 6/6/6
f 7/7/7 8/8/8 6/6/6 5/5/5
f 3/3/3 8/8/8 7/7/7
f 8/8/8 3/3/3 2/2/2
f 8/8/9 2/2/9 6/6/9
f 1/1/9 6/6/9 2/2/9
f 7/7/10 5/5/10 3/3/10
f 4/4/10 3/3/10 5/5/10
o bakingTray1.001_ID14.008_bakingTray1.001_ID14.000
v 0.203987 -0.102973 -0.003176
v 0.134736 -0.155897 -0.003176
v 0.229199 -0.115699 0.041176
v 0.151389 -0.175166 0.041176
v 0.140960 -0.167904 -0.041192
v 0.219698 -0.107729 -0.041192
v 0.159284 -0.189732 0.041176
v 0.248258 -0.121733 0.041176
vt 0.0000 0.0000
vt 0.0000 0.0000
vt 0.0000 0.0000
vt 0.0000 0.0000
vt 0.0000 0.0000
vt 0.0000 0.0000
vt 0.0000 0.0000
vt 0.0000 0.0000
vn -0.5268 0.6893 0.4973
vn 0.5739 -0.7509 -0.3267
vn -0.5414 -0.3425 0.7679
vn -0.6306 -0.3990 0.6656
vn -0.9903 0.0008 -0.1392
vn -0.8461 0.4585 -0.2717
vn 0.2359 0.6383 0.7328
vn 0.2645 0.7158 0.6462
vn -0.2706 0.9375 -0.2187
vn -0.0823 0.9865 -0.1417
usemtl metalMedium.001
s 1
f 9/9/11 10/10/11 11/11/11
f 12/12/11 11/11/11 10/10/11
f 13/13/12 14/14/12 15/15/12
f 16/16/12 15/15/12 14/14/12
f 15/15/13 12/12/14 10/10/15 13/13/16
f 11/11/17 12/12/14 15/15/13
f 16/16/18 11/11/17 15/15/13
f 16/16/18 14/14/19 9/9/20 11/11/17
f 10/10/15 9/9/20 14/14/19 13/13/16
o bakingTray1.001_ID14.002_bakingTray1.001_ID14.000
v 0.219698 0.107729 -0.041192
v 0.140960 0.167904 -0.041192
v 0.248258 0.121733 0.041176
v 0.159284 0.189732 0.041176
v 0.134736 0.155897 -0.003176
v 0.203987 0.102973 -0.003176
v 0.151389 0.175166 0.041176
v 0.229199 0.115699 0.041176
vt 0.0000 0.0000
vt 0.0000 0.0000
vt 0.0000 0.0000
vt 0.0000 0.0000
vt 0.0000 0.0000
vt 0.0000 0.0000
vt 0.0000 0.0000
vt 0.0000 0.0000
vn 0.5739 0.7509 -0.3267
vn -0.5268 -0.6893 0.4973
vn -0.5414 0.3425 0.7679
vn 0.2359 -0.6383 0.7328
vn 0.2645 -0.7158 0.6462
vn -0.6306 0.3990 0.6656
vn -0.8461 -0.4585 -0.2717
vn -0.9903 -0.0008 -0.1392
vn -0.2706 -0.9375 -0.2187
vn -0.0823 -0.9865 -0.1417
usemtl metalMedium.001
s 1
f 17/17/21 18/18/21 19/19/21
f 20/20/21 19/19/21 18/18/21
f 21/21/22 22/22/22 23/23/22
f 24/24/22 23/23/22 22/22/22
f 20/20/23 24/24/24 19/19/25
f 23/23/26 24/24/24 20/20/23
f 20/20/23 18/18/27 21/21/28 23/23/26
f 18/18/27 17/17/29 22/22/30 21/21/28
f 24/24/24 22/22/30 17/17/29 19/19/25
o bakingTray1.001_ID14.006_bakingTray1.001_ID14.000
v -0.219698 -0.107729 -0.041192
v -0.140960 -0.167904 -0.041192
v -0.248258 -0.121733 0.041176
v -0.159284 -0.189732 0.041176
v -0.134736 -0.155897 -0.003176
v -0.203987 -0.102973 -0.003176
v -0.151389 -0.175166 0.041176
v -0.229199 -0.115699 0.041176
vt 0.0000 0.0000
vt 0.0000 0.0000
vt 0.0000 0.0000
vt 0.0000 0.0000
vt 0.0000 0.0000
vt 0.0000 0.0000
vt 0.0000 0.0000
vt 0.0000 0.0000
vn -0.5739 -0.7509 -0.3267
vn 0.5268 0.6893 0.4973
vn 0.5414 -0.3425 0.7679
vn -0.2359 0.6383 0.7328
vn -0.2645 0.7158 0.6462
vn 0.6306 -0.3990 0.6656
vn 0.8461 0.4585 -0.2717
vn 0.9903 0.0008 -0.1392
vn 0.2706 0.9375 -0.2187
vn 0.0823 0.9865 -0.1417
usemtl metalMedium.001
s 1
f 25/25/31 26/26/31 27/27/31
f 28/28/31 27/27/31 26/26/31
f 29/29/32 30/30/32 31/31/32
f 32/32/32 31/31/32 30/30/32
f 28/28/33 32/32/34 27/27/35
f 31/31/36 32/32/34 28/28/33
f 28/28/33 26/26/37 29/29/38 31/31/36
f 26/26/37 25/25/39 30/30/40 29/29/38
f 32/32/34 30/30/40 25/25/39 27/27/35
o bakingTray1.001_ID14.009_bakingTray1.001_ID14.000
v -0.203987 0.102973 -0.003176
v -0.203987 -0.102973 -0.003176
v -0.134736 0.155897 -0.003176
v -0.134736 -0.155897 -0.003176
v 0.134736 0.155897 -0.003176
v 0.134736 -0.155897 -0.003176
v 0.203987 0.102973 -0.003176
v 0.203987 -0.102973 -0.003176
v -0.219698 -0.107729 -0.041192
v -0.219698 0.107729 -0.041192
v -0.140960 -0.167904 -0.041192
v -0.140960 0.167904 -0.041192
v 0.140960 -0.167904 -0.041192
v 0.140960 0.167904 -0.041192
v 0.219698 -0.107729 -0.041192
v 0.219698 0.107729 -0.041192
vt 0.0000 0.0000
vt 0.0000 0.0000
vt 0.0000 0.0000
vt 0.0000 0.0000
vt 0.0000 0.0000
vt 0.0000 0.0000
vt 0.0000 0.0000
vt 0.0000 0.0000
vt 0.0000 0.0000
vt 0.0000 0.0000
vt 0.0000 0.0000
vt 0.0000 0.0000
vt 0.0000 0.0000
vt 0.0000 0.0000
vt 0.0000 0.0000
vt 0.0000 0.0000
vn 0.0000 0.0000 1.0000
vn 0.0000 0.0000 -1.0000
vn -0.3107 0.8906 0.3321
vn -0.2921 0.8972 0.3312
vn 0.2921 0.8972 0.3312
vn 0.3107 0.8906 0.3321
vn -0.8308 0.3944 0.3927
vn -0.8161 0.4260 0.3906
vn 0.2921 -0.8972 0.3312
vn 0.3107 -0.8906 0.3321
vn 0.8308 -0.3944 0.3927
vn 0.8161 -0.4260 0.3906
vn 0.8161 0.4260 0.3906
vn 0.8308 0.3944 0.3927
vn -0.8308 -0.3944 0.3927
vn -0.8161 -0.4260 0.3906
vn -0.2921 -0.8972 0.3312
vn -0.3107 -0.8906 0.3321
usemtl metalMedium.001
s 1
f 33/33/41 34/34/41 35/35/41
f 36/36/41 35/35/41 34/34/41
f 37/37/41 35/35/41 36/36/41
f 38/38/41 37/37/41 36/36/41
f 39/39/41 37/37/41 38/38/41
f 40/40/41 39/39/41 38/38/41
f 41/41/42 42/42/42 43/43/42
f 44/44/42 43/43/42 42/42/42
f 45/45/42 43/43/42 44/44/42
f 46/46/42 45/45/42 44/44/42
f 47/47/42 45/45/42 46/46/42
f 48/48/42 47/47/42 46/46/42
f 44/44/43 35/35/44 37/37/45 46/46/46
f 35/35/44 44/44/43 42/42/47 33/33/48
f 38/38/49 45/45/50 47/47/51 40/40/52
f 46/46/46 37/37/45 39/39/53 48/48/54
f 40/40/52 47/47/51 48/48/54 39/39/53
f 41/41/55 34/34/56 33/33/48 42/42/47
f 38/38/49 36/36/57 43/43/58 45/45/50
f 34/34/56 41/41/55 43/43/58 36/36/57
o bakingTray1.001_ID14.003_bakingTray1.001_ID14.000
v 0.134736 0.155897 -0.003176
v 0.151389 0.175166 0.041176
v -0.134736 0.155897 -0.003176
v -0.151389 0.175166 0.041176
v 0.159284 0.189732 0.041176
v 0.140960 0.167904 -0.041192
v -0.140960 0.167904 -0.041192
v -0.159284 0.189732 0.041176
vt 0.0000 0.0000
vt 0.0000 0.0000
vt 0.0000 0.0000
vt 0.0000 0.0000
vt 0.0000 0.0000
vt 0.0000 0.0000
vt 0.0000 0.0000
vt 0.0000 0.0000
vn 0.0000 -0.9172 0.3985
vn 0.6584 -0.4165 0.6269
vn 0.6168 -0.3902 0.6836
vn 0.5484 -0.8151 -0.1867
vn 0.3043 -0.9189 -0.2510
vn -0.3043 -0.9189 -0.2510
vn -0.5484 -0.8151 -0.1867
vn -0.6584 -0.4165 0.6269
vn -0.6168 -0.3902 0.6836
vn 0.0000 0.9666 -0.2562
usemtl metalMedium.001
s 1
f 49/49/59 50/50/59 51/51/59
f 52/52/59 51/51/59 50/50/59
f 53/53/60 50/50/61 49/49/62 54/54/63
f 55/55/64 54/54/63 49/49/62 51/51/65
f 56/56/66 55/55/64 51/51/65 52/52/67
f 54/54/68 55/55/68 53/53/68
f 56/56/68 53/53/68 55/55/68
f 53/53/60 56/56/66 52/52/67
f 50/50/61 53/53/60 52/52/67
o bakingTray1.001_ID14.000_bakingTray1.001_ID14.000
v -0.140960 0.167904 -0.041192
v -0.219698 0.107729 -0.041192
v -0.159284 0.189732 0.041176
v -0.151389 0.175166 0.041176
v -0.229199 0.115699 0.041176
v -0.134737 0.155897 -0.003176
v -0.203987 0.102973 -0.003176
v -0.248258 0.121733 0.041176
vt 0.0000 0.0000
vt 0.0000 0.0000
vt 0.0000 0.0000
vt 0.0000 0.0000
vt 0.0000 0.0000
vt 0.0000 0.0000
vt 0.0000 0.0000
vt 0.0000 0.0000
vn -0.5739 0.7509 -0.3267
vn 0.5268 -0.6893 0.4973
vn 0.9903 -0.0008 -0.1392
vn 0.0823 -0.9865 -0.1417
vn 0.2706 -0.9375 -0.2187
vn 0.8461 -0.4585 -0.2717
vn -0.2645 -0.7158 0.6462
vn -0.2359 -0.6383 0.7328
vn 0.5414 0.3425 0.7679
vn 0.6307 0.3990 0.6657
usemtl metalMedium.001
s 1
f 57/57/69 58/58/69 59/59/69
f 60/60/70 61/61/70 62/62/70
f 63/63/70 62/62/70 61/61/70
f 62/62/71 63/63/72 58/58/73 57/57/74
f 64/64/75 58/58/73 63/63/72 61/61/76
f 64/64/75 61/61/76 59/59/77
f 61/61/76 60/60/78 59/59/77
f 59/59/77 60/60/78 62/62/71 57/57/74
f 64/64/69 59/59/69 58/58/69
o bakingTray1.001_ID14.007_bakingTray1.001_ID14.000
v 0.159284 -0.189732 0.041176
v 0.140960 -0.167904 -0.041192
v 0.134737 -0.155897 -0.003176
v 0.151389 -0.175166 0.041176
v -0.140960 -0.167904 -0.041192
v -0.134736 -0.155897 -0.003176
v -0.159284 -0.189732 0.041176
v -0.151389 -0.175166 0.041176
vt 0.0000 0.0000
vt 0.0000 0.0000
vt 0.0000 0.0000
vt 0.0000 0.0000
vt 0.0000 0.0000
vt 0.0000 0.0000
vt 0.0000 0.0000
vt 0.0000 0.0000
vn 0.6584 0.4165 0.6269
vn 0.3043 0.9189 -0.2510
vn 0.5484 0.8151 -0.1867
vn 0.6168 0.3902 0.6836
vn -0.3043 0.9189 -0.2510
vn -0.5484 0.8151 -0.1867
vn -0.6584 0.4165 0.6269
vn -0.6168 0.3902 0.6836
vn 0.0000 0.9172 0.3985
vn 0.0000 -0.9666 -0.2562
usemtl metalMedium.001
s 1
f 65/65/79 66/66/80 67/67/81 68/68/82
f 66/66/80 69/69/83 70/70/84 67/67/81
f 71/71/85 72/72/86 70/70/84 69/69/83
f 68/68/87 67/67/87 72/72/87
f 72/72/86 71/71/85 68/68/82
f 71/71/85 65/65/79 68/68/82
f 65/65/88 71/71/88 66/66/88
f 70/70/87 72/72/87 67/67/87
f 69/69/88 66/66/88 71/71/88
o bakingTray1.001_ID14.004_bakingTray1.001_ID14.000
v 0.248258 -0.121733 0.041176
v 0.229199 -0.115699 0.041176
v 0.203987 -0.102973 -0.003176
v 0.219698 -0.107729 -0.041192
v 0.248258 0.121733 0.041176
v 0.203987 0.102973 -0.003176
v 0.219698 0.107729 -0.041192
v 0.229199 0.115699 0.041176
vt 0.0000 0.0000
vt 0.0000 0.0000
vt 0.0000 0.0000
vt 0.0000 0.0000
vt 0.0000 0.0000
vt 0.0000 0.0000
vt 0.0000 0.0000
vt 0.0000 0.0000
vn -0.2453 -0.6638 0.7065
vn -0.2665 -0.7211 0.6395
vn -0.7290 -0.6419 -0.2380
vn -0.8645 -0.3883 -0.3190
vn -0.2453 0.6638 0.7065
vn -0.7290 0.6419 -0.2380
vn -0.8645 0.3883 -0.3190
vn -0.2665 0.7211 0.6395
vn 0.9448 0.0000 -0.3276
vn -0.8694 0.0000 0.4942
usemtl metalMedium.001
s 1
f 73/73/89 74/74/90 75/75/91 76/76/92
f 77/77/93 74/74/90 73/73/89
f 78/78/94 79/79/95 76/76/92 75/75/91
f 78/78/94 80/80/96 77/77/93 79/79/95
f 79/79/97 77/77/97 76/76/97
f 74/74/90 77/77/93 80/80/96
f 74/74/98 80/80/98 75/75/98
f 73/73/97 76/76/97 77/77/97
f 78/78/98 75/75/98 80/80/98
