# Blender 3.4.1
# www.blender.org
mtllib HalfJalapeno.mtl
o carrotBody.002
v -0.018166 0.121408 0.010488
v 0.000000 0.121408 0.020976
v 0.018166 0.121408 0.010488
v 0.000000 0.108906 0.030000
v -0.025981 0.108906 0.015000
v 0.025981 0.108906 0.015000
v -0.008833 0.000000 0.005100
v 0.000000 0.000000 0.010200
v 0.008833 0.000000 0.005100
v 0.000000 0.010000 0.015000
v -0.012990 0.010000 0.007500
v 0.012990 0.010000 0.007500
v 0.010839 0.042870 0.022500
v 0.004343 0.042870 0.018750
v -0.008647 0.042870 0.011250
v 0.023829 0.042870 0.015000
v -0.008833 0.000000 0.000000
v 0.012990 0.010000 0.000000
v 0.030325 0.042870 0.011250
v 0.014426 0.075888 0.026250
v 0.011178 0.075888 0.024375
v -0.008307 0.075888 0.013125
v 0.033912 0.075888 0.015000
v -0.018166 0.121408 0.000000
v 0.008833 0.000000 0.000000
v 0.037159 0.075888 0.013125
v 0.018166 0.121408 0.000000
v -0.012990 0.010000 0.000000
v 0.037159 0.075888 0.000000
v -0.008647 0.042870 0.000000
v -0.025981 0.108906 0.000000
v 0.025981 0.108906 0.000000
v -0.008307 0.075888 0.000000
v 0.030325 0.042870 0.000000
v 0.000000 0.000000 0.000000
v 0.000000 0.121408 0.000000
vn -0.4240 0.5301 0.7344
vn 0.4240 0.5301 0.7344
vn -0.9914 0.1310 -0.0000
vn -0.8480 0.5301 -0.0000
vn -0.0000 -1.0000 -0.0000
vn -0.0000 1.0000 -0.0000
vn -0.4617 -0.3838 0.7997
vn -0.4617 -0.3839 0.7997
vn 0.4617 -0.3839 0.7997
vn 0.4617 -0.3838 0.7997
vn 0.8845 -0.4665 -0.0000
vn 0.8480 0.5301 -0.0000
vn -0.4997 -0.0327 0.8656
vn -0.4767 -0.3020 0.8256
vn -0.9999 0.0103 -0.0000
vn -0.9234 -0.3839 -0.0000
vn 0.4943 -0.1509 0.8561
vn 0.4964 0.1192 0.8598
vn 0.4701 -0.3408 0.8142
vn 0.9234 -0.3839 -0.0000
vn -0.8816 -0.4719 -0.0000
vn -0.4995 -0.0440 0.8652
vn -0.4766 -0.3020 0.8256
vn 0.4965 0.1193 0.8598
vn 0.9472 0.3207 -0.0000
vn -0.0000 -0.0000 -1.0000
vn 0.9792 -0.2027 -0.0000
vt 0.825827 14.147410
vt -0.825827 14.147410
vt 0.825827 14.147410
vt -0.825827 14.147410
vt 0.825827 14.147410
vt -0.825827 14.147410
vt 1.181102 12.456650
vt -1.181102 12.456650
vt -1.181102 14.287900
vt 1.181102 14.287900
vt -1.181102 12.456650
vt 1.181102 12.456650
vt -1.181102 14.287900
vt 1.181102 14.287900
vt 1.181102 12.456650
vt -1.181102 12.456650
vt 1.181102 14.287900
vt -1.181102 14.287900
vt 0.401575 0.266985
vt -0.401575 0.266985
vt 0.401575 0.266985
vt -0.401575 0.266985
vt 0.401575 0.266985
vt -0.401575 0.266985
vt 0.590551 1.119709
vt 0.590551 0.863047
vt -0.590551 0.863047
vt -0.590551 1.119709
vt 0.590551 0.863047
vt -0.590551 1.119709
vt 0.590551 1.119709
vt -0.590551 0.863047
vt 0.590551 1.119709
vt -0.590551 0.863047
vt -0.590551 1.119709
vt 0.590551 0.863047
vt 0.885827 7.575473
vt -0.885827 7.575473
vt 0.295276 7.575473
vt 0.885827 7.575473
vt -0.885827 7.575473
vt 0.295276 7.575473
vt 0.000000 0.266985
vt 0.000000 0.863047
vt 0.000000 1.119709
vt 0.885827 7.575473
vt 1.033464 10.931686
vt -1.033464 10.931686
vt 0.738189 10.931686
vt 1.033464 10.931686
vt -1.033464 10.931686
vt 0.738189 10.931686
vt 0.000000 14.147410
vt 0.000000 0.266985
vt -1.033464 10.931686
vt 1.033464 10.931686
vt 0.000000 14.147410
vt -0.825827 14.147410
vt 0.000000 0.000000
vt 0.000000 1.119709
vt 0.000000 0.863047
vt 1.033464 10.931686
vt 0.000000 10.931686
vt 0.000000 7.575473
vt 0.000000 14.287900
vt 0.000000 12.456650
vt 0.000000 14.287900
vt 0.000000 12.456650
vt 0.000000 10.931686
vt 0.885827 7.575473
vt 0.000000 0.000000
vt -0.412914 14.147410
s 0
usemtl orange.006
f 2/3/1 5/11/1 4/7/1
f 5/11/1 2/3/1 1/2/1
f 3/5/2 4/8/2 6/15/2
f 4/8/2 3/5/2 2/4/2
f 15/40/3 30/64/3 28/61/3 11/29/3
f 1/1/4 24/53/4 31/66/4 5/12/4
f 35/71/5 8/21/5 7/20/5
f 25/54/5 9/23/5 35/71/5
f 3/6/6 36/72/6 2/4/6
f 8/21/5 35/71/5 9/23/5
f 10/25/7 7/20/7 8/21/7
f 7/20/8 10/25/8 11/30/8
f 12/33/9 8/22/9 9/23/9
f 8/22/10 12/33/10 10/28/10
f 34/70/11 19/46/11 12/34/11 18/44/11
f 32/68/12 27/57/12 3/6/12 6/16/12
f 14/39/13 11/32/13 10/26/13 13/37/13
f 21/49/14 4/10/14 5/13/14 22/51/14
f 33/69/15 30/64/15 15/40/15 22/50/15
f 28/60/16 17/43/16 7/19/16 11/31/16
f 19/46/17 26/56/17 23/52/17 16/42/17
f 23/52/18 6/17/18 4/9/18 20/48/18
f 27/58/6 36/72/6 3/6/6
f 10/27/19 16/42/19 13/38/19
f 9/24/20 25/54/20 18/45/20 12/35/20
f 33/69/21 22/50/21 5/14/21 31/65/21
f 11/32/13 14/39/13 15/41/13
f 21/49/22 14/39/22 13/37/22 20/47/22
f 4/10/23 21/49/23 20/47/23
f 16/42/17 23/52/17 20/48/17 13/38/17
f 6/17/24 23/52/24 26/56/24
f 26/55/25 29/63/25 32/67/25 6/18/25
f 14/39/22 21/49/22 22/51/22 15/41/22
f 33/69/26 32/68/26 29/63/26
f 32/68/26 33/69/26 31/66/26
f 31/66/26 27/59/26 32/68/26
f 26/56/27 19/46/27 34/70/27 29/62/27
f 16/42/19 10/28/19 12/36/19 19/46/19
f 24/53/26 27/59/26 31/66/26
f 7/20/5 17/43/5 35/71/5
f 2/4/6 36/72/6 1/2/6
f 24/53/6 1/2/6 36/72/6
f 33/69/26 29/63/26 30/64/26
f 29/63/26 34/70/26 30/64/26
f 30/64/26 34/70/26 28/61/26
f 34/70/26 18/44/26 28/61/26
f 28/61/26 18/44/26 17/43/26
f 35/71/26 17/43/26 18/44/26
f 25/54/26 35/71/26 18/45/26
