# Blender 3.4.1
# www.blender.org
mtllib jalapenoStem.mtl
o carrotBody.001
v -0.018166 -0.010244 0.010488
v -0.018166 -0.010244 -0.010488
v 0.000000 -0.010244 0.020976
v 0.018166 -0.010244 0.010488
v 0.005714 0.014545 0.003299
v 0.005714 0.014545 -0.003299
v 0.000000 -0.010244 -0.020976
v 0.018166 -0.010244 -0.010488
v -0.009316 -0.004300 0.005379
v -0.009316 -0.004300 -0.005379
v 0.000000 -0.004300 0.010757
v 0.000000 0.014545 -0.006598
v 0.000000 0.014545 0.006598
v 0.009316 -0.004300 0.005379
v -0.005714 0.014545 -0.003299
v -0.005714 0.014545 0.003299
v 0.000000 -0.004300 -0.010757
v 0.009316 -0.004300 -0.005379
vn 0.2788 0.8302 -0.4828
vn 0.2788 0.8302 0.4828
vn -0.2788 0.8302 0.4828
vn -0.2788 0.8302 -0.4828
vn -0.5575 0.8302 -0.0000
vn 0.5575 0.8302 -0.0000
vn 0.9822 0.1877 -0.0000
vn -0.4911 0.1877 -0.8506
vn -0.9822 0.1877 -0.0000
vn 0.4911 0.1877 -0.8506
vn -0.4911 0.1877 0.8506
vn -0.0000 1.0000 -0.0000
vn 0.4911 0.1877 0.8506
vn -0.0000 -1.0000 -0.0000
vt 0.825827 14.147410
vt -0.825827 14.147410
vt -0.825827 14.147410
vt 0.825827 14.147410
vt 0.825827 14.147410
vt -0.825827 14.147410
vt 0.825827 14.147410
vt -0.825827 14.147410
vt -0.825827 14.147410
vt 0.825827 14.147410
vt 0.825827 14.147410
vt -0.825827 14.147410
vt 0.825827 14.147410
vt -0.825827 14.147410
vt 0.825827 14.147410
vt -0.825827 14.147410
vt 0.825827 14.147410
vt -0.825827 14.147410
vt 0.825827 14.147410
vt -0.825827 14.147410
vt 0.825827 14.147410
vt -0.825827 14.147410
vt 0.825827 14.147410
vt -0.825827 14.147410
vt 0.825827 14.147410
vt -0.825827 14.147410
vt -0.825827 14.147410
vt 0.825827 14.147410
vt -0.825827 14.147410
vt 0.825827 14.147410
vt 0.825827 14.147410
vt -0.825827 14.147410
vt -0.825827 14.147410
vt 0.825827 14.147410
vt 0.825827 14.147410
vt -0.825827 14.147410
s 0
usemtl darkgreen.003
f 8/16/1 7/13/1 17/34/1 18/36/1
f 3/6/2 4/7/2 14/28/2 11/22/2
f 1/2/3 3/5/3 11/21/3 9/18/3
f 7/14/4 2/4/4 10/19/4 17/33/4
f 2/3/5 1/1/5 9/17/5 10/20/5
f 4/8/6 8/15/6 18/35/6 14/27/6
f 14/27/7 18/35/7 6/11/7 5/9/7
f 17/33/8 10/19/8 15/30/8 12/24/8
f 10/20/9 9/17/9 16/31/9 15/29/9
f 18/36/10 17/34/10 12/23/10 6/12/10
f 9/18/11 11/21/11 13/25/11 16/32/11
f 15/30/12 16/32/12 13/26/12 5/9/12 6/12/12 12/24/12
f 11/22/13 14/28/13 5/10/13 13/26/13
f 2/4/14 7/14/14 8/16/14 4/8/14 3/6/14 1/2/14
