# Blender 3.4.1
# www.blender.org
mtllib jalapenoStemCollider.mtl
o carrotBody.001
v -0.018166 -0.010244 0.010488
v -0.018166 -0.010244 -0.010488
v 0.000000 -0.010244 0.020976
v 0.018166 -0.010244 0.010488
v 0.005714 0.014545 0.003299
v 0.005714 0.014545 -0.003299
v 0.000000 -0.010244 -0.020976
v 0.018166 -0.010244 -0.010488
v 0.000000 0.014545 -0.006598
v 0.000000 0.014545 0.006598
v -0.005714 0.014545 -0.003299
v -0.005714 0.014545 0.003299
vn -0.0000 1.0000 -0.0000
vn -0.0000 -1.0000 -0.0000
vn 0.4468 0.4489 0.7739
vn -0.4468 0.4489 0.7739
vn -0.8936 0.4489 -0.0000
vn -0.4468 0.4489 -0.7739
vn 0.4468 0.4489 -0.7739
vn 0.8936 0.4489 -0.0000
vt -0.825827 14.147410
vt 0.000000 0.000000
vt 0.825827 14.147410
vt 0.000000 0.000000
vt -0.825827 14.147410
vt 0.000000 0.000000
vt -0.825827 14.147410
vt 0.825827 14.147410
vt 0.000000 0.000000
vt -0.825827 14.147410
vt 0.000000 0.000000
vt -0.825827 14.147410
vt 0.000000 0.000000
vt -0.825827 14.147410
vt 0.000000 0.000000
vt -0.825827 14.147410
vt 0.000000 0.000000
vt -0.825827 14.147410
vt 0.000000 0.000000
vt -0.825827 14.147410
vt 0.000000 0.000000
vt 0.825827 14.147410
vt 0.000000 0.000000
vt -0.825827 14.147410
vt 0.000000 0.000000
s 0
usemtl darkgreen.001
f 11/22/1 12/24/1 10/20/1 5/10/1 6/12/1 9/18/1
f 2/3/2 7/14/2 8/16/2 4/7/2 3/5/2 1/1/2
f 3/5/3 4/8/3 5/10/3 10/20/3
f 12/25/4 1/2/4 3/6/4 10/21/4
f 1/2/5 12/25/5 11/23/5 2/4/5
f 2/4/6 11/23/6 9/19/6 7/15/6
f 7/15/7 9/19/7 6/13/7 8/17/7
f 5/11/8 4/9/8 8/17/8 6/13/8
